<?xml version="1.0" encoding="UTF-8"?><svg id="_圖層_2" xmlns="http://www.w3.org/2000/svg" viewBox="0 0 305.47 284.13"><defs><style>.cls-1{fill:#b68154;}.cls-2{fill:#683717;}.cls-3{fill:#83522b;}.cls-4{fill:#b88051;}.cls-5{fill:#353335;}.cls-6{fill:#c6976a;}.cls-7{fill:#6d6b6e;}.cls-8{fill:#383638;}.cls-9{fill:#7f4a24;}.cls-10{fill:#b48866;}.cls-11{fill:#693c1e;}.cls-12{fill:#6c3a1a;}.cls-13{fill:#b67d50;}.cls-14{fill:#8f5a2e;}.cls-15{fill:#cc5853;}.cls-16{fill:#805028;}.cls-17{fill:#814c2a;}.cls-18{fill:#945c37;}.cls-19{fill:#9e663d;}.cls-20{fill:#2b2a2e;}.cls-21{fill:#6a381d;}.cls-22{fill:#996032;}.cls-23{fill:#915d30;}.cls-24{fill:#6a3b1d;}.cls-25{fill:#963b32;}.cls-26{fill:#976236;}.cls-27{fill:#87502f;}.cls-28{fill:#794a24;}.cls-29{fill:#7f432b;}.cls-30{fill:#925a35;}.cls-31{fill:#313032;}.cls-32{fill:#66381c;}.cls-33{fill:#ab7241;}.cls-34{fill:#c75e50;}.cls-35{fill:#5f5e61;}.cls-36{fill:#b1825e;}.cls-37{fill:#7b4726;}.cls-38{fill:#333237;}.cls-39{fill:#b57e52;}.cls-40{fill:#ae794e;}.cls-41{fill:#975e38;}.cls-42{fill:#88562e;}.cls-43{fill:#d47e70;}.cls-44{fill:#945f3b;}.cls-45{fill:#b68865;}.cls-46{fill:#844e30;}.cls-47{fill:#7d4826;}.cls-48{fill:#8c5834;}.cls-49{fill:#965f3c;}.cls-50{fill:#a0673d;}.cls-51{fill:#6e3e21;}.cls-52{fill:#b27a4e;}.cls-53{fill:#764b2a;}.cls-54{fill:#7a4c27;}.cls-55{fill:#7d7e83;}.cls-56{fill:#6c3c1e;}.cls-57{fill:#6f3d1d;}.cls-58{fill:#6a3a1c;}.cls-59{fill:#5d2e16;}.cls-60{fill:#64371a;}.cls-61{fill:#e89a8b;}.cls-62{fill:#7e4f2c;}.cls-63{fill:#de877e;}.cls-64{fill:#845030;}.cls-65{fill:#38383f;}.cls-66{fill:#87542b;}.cls-67{fill:#77441f;}.cls-68{fill:#37373e;}.cls-69{fill:#88562f;}.cls-70{fill:#82502a;}.cls-71{fill:#27272b;}.cls-72{fill:#673819;}.cls-73{fill:#8e5830;}.cls-74{fill:#865230;}.cls-75{fill:#af784d;}.cls-76{fill:#a97c5d;}.cls-77{fill:#8e5a2f;}.cls-78{fill:#754522;}.cls-79{fill:#742;}.cls-80{fill:#8f5a37;}.cls-81{fill:#955c31;}.cls-82{fill:#c24e46;}.cls-83{fill:#9b633d;}.cls-84{fill:#b87c68;}.cls-85{fill:#905d30;}.cls-86{fill:#6a3a1a;}.cls-87{fill:#744625;}.cls-88{fill:#9b6436;}.cls-89{fill:#9d3732;}.cls-90{fill:#d2a681;}.cls-91{fill:#8e5a38;}.cls-92{fill:#61341a;}.cls-93{fill:#a26736;}.cls-94{fill:#935d3a;}.cls-95{fill:#955e34;}.cls-96{fill:#845430;}.cls-97{fill:#693918;}.cls-98{fill:#787a82;}.cls-99{fill:#90592f;}.cls-100{fill:#b3794e;}.cls-101{fill:#714226;}.cls-102{fill:#d1aa84;}.cls-103{fill:#353234;}.cls-104{fill:#62361b;}.cls-105{fill:#754421;}.cls-106{fill:#643619;}.cls-107{fill:#c08d62;}.cls-108{fill:#764622;}.cls-109{fill:#8d562e;}.cls-110{fill:#6c6b6c;}.cls-111{fill:#d7b28d;}.cls-112{fill:#a33735;}.cls-113{fill:#794f31;}.cls-114{fill:#794723;}.cls-115{fill:#623418;}.cls-116{fill:#d5ac85;}.cls-117{fill:#9e633b;}.cls-118{fill:#925c39;}.cls-119{fill:#474447;}.cls-120{fill:#b34441;}.cls-121{fill:#7b4b25;}.cls-122{fill:#a73733;}.cls-123{fill:#693320;}.cls-124{fill:#62361a;}.cls-125{fill:#d68272;}.cls-126{fill:#985f34;}.cls-127{fill:#d6ae8b;}.cls-128{fill:#83542c;}.cls-129{fill:#8d5836;}.cls-130{fill:#2b2b2e;}.cls-131{fill:#a03430;}.cls-132{fill:#734222;}.cls-133{fill:#814b29;}.cls-134{fill:#7f4a2a;}.cls-135{fill:#885333;}.cls-136{fill:#322f33;}.cls-137{fill:#683820;}.cls-138{fill:#313031;}.cls-139{fill:#af774c;}.cls-140{fill:#983631;}.cls-141{fill:#703f22;}.cls-142{fill:#99633d;}.cls-143{fill:#be4440;}.cls-144{fill:#b34c43;}.cls-145{fill:#774520;}.cls-146{fill:#ba875a;}.cls-147{fill:#6f3d1f;}.cls-148{fill:#7c4724;}.cls-149{fill:#5f3419;}.cls-150{fill:#8a5534;}.cls-151{fill:#75431c;}.cls-152{fill:#7d7f84;}.cls-153{fill:#d4b08e;}.cls-154{fill:#cfa682;}.cls-155{fill:#b17a4f;}.cls-156{fill:#d5ae8a;}.cls-157{fill:#956444;}.cls-158{fill:#be4d44;}.cls-159{fill:#8a5a39;}.cls-160{fill:#6d3b1e;}.cls-161{fill:#99302f;}.cls-162{fill:#9d643f;}</style></defs><g id="_圖層_1-2"><path class="cls-114" d="M227.65,18.89c.79,3.22.79,6.55,0,9.99-.27,1.51-.74,5.08-1,5.99-1.73,4.66-6.38,10.25-5,2-2.94-1.21-1.63-4.85,1-5.99-.62-.3-1.11-.63-1.16-1-.12-.93-.37-12.68-.13-13.3,1.41-.5,1.67-1.4,1.29-2.68-.83.18-1.77.22-2.29-.38-4.12-4.74-19.72,2.97-24.11,7.05-7.89,7.33-13.66,25.26-6.57,34.29,3.57-1.75,7.57-2.41,11.99-2,.28-.87.62-.86,1,0,4.2,2.26.4,3.36-2.82,3.42-.29,0,4.79-1.57,4.82.58-21.05,8.75-27.22-4.96-22.27-23.77,3.43-13.07,16.1-24.67,29.76-26.18,11.05-1.22,14.71.93,15.49,11.99Z"/><path class="cls-106" d="M120.75,63.84c9.88,26.34,9.04,46.59-5,70.93-2.22,2.72-6.01.33-4-3-.44-2.32,2.07-8.94,3.56-11.58.17-.31.75-.39,1.44-.41l-.38-1.64c4.19-12.13,3.65-24.68,2.89-36.96-2.81-4.29-3.65-8.07-2.51-11.35-2.12-.12-2.5-3.67-1-5-1.87-5.07,2.68-4.36,5-1Z"/><path class="cls-71" d="M172.37,187.09c20.52-.16,19.12,33.56-3.74,28.18-15.53-3.66-12.59-28.05,3.74-28.18Z"/><path class="cls-108" d="M294.58,85.82c5.99,4.65,11.21,21.74,8.24,28.72-3.07,7.22-18.91,5.23-25.22,4.25-1.93-.37-3.59-1.03-5-2-4.3-1.21-2.98-1.06-5.99-3-1.76-.98-2.42-1.98-2-3-3.26-3.84-6.26-7.83-8.99-11.99-1.01-2.63-.45-4.04,2-5,2.98-.46,2.5.92,1,3,3.16.85,7.28,6.73,6.99,9.99,3.15.56,10.3,3.17,13.21,4.91.63.38.74,1.29.78,2.08l2.05-1.31c5.2,1.48,10.85,1.92,16.93,1.31.18-9.59-2.84-18.24-9.69-25.42-.41-.99-.17-1.84.7-2.55-5.37-6.1,1.63-4.42,5,0Z"/><path class="cls-59" d="M29.84,238.67c2.87-1.03,6.11-1.01,8.99,0,12.55,1.71,11.54,24.95-4.5,25.06-17.15.11-16.68-23.12-4.49-25.06Z"/><path class="cls-11" d="M82.79,11.9l2.71,4.19c5.21,1.74,5.63,5.13.29,4.8-3.51.61-5.84-1.39-6.99-5.99l-1.48.3c-4.99-9.08-9.47-10.87-13.43-5.37l-7.47,9.19-2.59-.13c.26,3.6-5.68,8.16-8.99,6.99-4.7,4.12-6.7,4.12-5.99,0,6.43-6.52,15.49-16.98,21.95-22.51,9.31-7.98,17.85-.44,22.01,8.53Z"/><path class="cls-105" d="M221.65,110.8c7.54,4.15,6.74,7.87,4.5,15.98-2.84,10.25-9.35,18.27-18.48,22.98-4.21,1.96-7.16.21-3-3-.76-1.88.24-2.55,3-2,.2-3.64,6.36-8.33,9.99-8.99-1.91-1.94-.54-4.11,2-4l1.2-11.67,1.8-1.32c-1.66.13-2.33-.79-2.03-2.77-1.79-.46-3.12-1.54-3.97-3.22-1.47,2.02-2.47,1.46-2-1-4.24-1.06-8.74-1.06-12.99,0,.18,2.15-3.07,2.97-4,1l-2.07.39c-1.96,1.16-8.08,4.27-7.23.52,1.04-4.62,28.41-7.62,33.28-2.91Z"/><path class="cls-130" d="M284.59,212.7c.82-1.33,2.68-1.7,5.57-1.08l.43-1.91.88-2.38c5.41-2.55,8.36-9.34,2.94-13.33l.17-2.27c-2.89-1.11-5.5-.62-7.99,1,.2,2.1-.46,2.43-2,1-3.25,3.68-4.66.3-2-3,4.76-4.02,8.03-4.81,13.97-2.47,18.45,7.25,5.16,34.12-11.97,24.45Z"/><path class="cls-161" d="M218.66,254.66l-4,4c-17.78,10.02-25.96-15.11-12-21.48,11.48-5.24,22.26,6.17,15.99,17.49Z"/><path class="cls-123" d="M251.38,170.93c11.97-2.27,15.68,16.07,4.53,18.59-13.63,3.08-17.2-16.18-4.53-18.59Z"/><path class="cls-78" d="M172.7,130.78c1.47-2.67,6.08-8.97,4-1,2.7.07,2.64,1.32,0,2,.78,2.49.16,5.08-1.86,7.76.11,2.21-.27,3.95-1.13,5.23,10.2,3.31,19.91,3.51,29.15.6l1.82,1.4c-.29,3.23-.24,3.29,3,3-4.13,2.13-6.41,3.57-11.45,4.04-7.06.65-25.34-.51-26.56-9.48-.56-4.11.02-10.41,3.04-13.54Z"/><path class="cls-92" d="M5.86,95.81l1.99,2.11c.83,3.48,1.47,11.08,0,13.88,2.97.19,2.68,3.35,0,4-.46,3.63-3.16,8.49-5,2-3.82-13.36-3.48-18.47-1-31.97,1.16-3.33,2.39-3.58,4.43-.54l-.43,10.53Z"/><path class="cls-25" d="M97.49,260.86c13.16-3.04,16.15,14.28,6.33,17.32-14.19,4.4-15.58-15.19-6.33-17.32Z"/><path class="cls-121" d="M103.77,209.7c3.69,4.44,7.58,16.44,1.98,20.46-2.28,1.63-3.59,1.23-5.98,1.52l-5,1c-.65.08-1.34-.03-2,0l-8.99-1c-4.13-1.16-5.42-.63-8.99-4-1.16-1.71-1.16-2.71,0-3,1.93-2.04,5.38.3,5,3,1.01.11,1.99-.27,2.93-1.16,7.03,1.51,14.04,1.9,21.04,1.16.55-4.21-.44-8.1-2.96-11.65l.96-2.34c-1.52-.28-3.43-2.32-3-4-2.03,0-2.99-2.15-1-3-1.84-.99-1.51-2.43.48-3.24l5.51,6.23Z"/><path class="cls-149" d="M20.85,138.77c3.05.6,5.74,2.79,8.08,6.6,3.08,2.21,4.72,4.68,4.9,7.39,1.67,1.71,1.04,2.82-1.22,3.15l-7.77-4.15c-7.14-6.66-9.94-9.41-14.99-17.98-1.38-2.57,1.7-3.6,4-4l2.91.7c1.25,2.87,2.61,5.63,4.08,8.29Z"/><path class="cls-58" d="M90.78,156.75c3.48,1.82,1.46,5.34-2,6.99-3.78,4.86-13.09,9.11-18.98,10.99-2.13.77-4.13.77-5.99,0-.33.03-.67-.02-1,0-.77,0-1.13-.2-1-1-2.42-2.03-2.75-3.7-1-5,.28-.87.62-.86,1,0,3.87.58,7.01.06,9.44-1.54l2.55.54c-.17-2.27,4.95-4.72,6.99-5-1.12-1-.45-1.33,2-1-.49-2.75,1.5-3.42,4-3,.36.76.7.43,1-1-.04-1.94,2.03-2.98,3-1Z"/><path class="cls-131" d="M242.63,203.71c.61,3.52,1.4,8.84-1.91,11.22-3.53,2.54-.32-3.06.91.77-6.69,6.69-15.67,1.73-15.05-7.48.57-8.55,11.52-10.84,16.05-4.51Z"/><path class="cls-124" d="M21.85,52.86c1.64,2.19,1.08,5.5-2,5,1.55,3.26-3.59,12.15-6.99,12.99,1.19,2.17.76,4.65-2,4-3.87,4.86-4.42-4.06-3-6.99,1.18-5.29,3.51-10.28,6.99-14.99.58-.78,2.1-1.82,3-3,1.89-2.46,4.77.56,4,3Z"/><path class="cls-57" d="M120.75,63.84c-2.93.69-5.65-2.78-5,1l-1.46-.1c-2.81-6.07-5.99-11.99-9.55-17.75l1.02-2.13c-.37-2.68-.04-4.67,1-5.99,7,9.4,9.81,13.83,13.99,24.98Z"/><path class="cls-72" d="M87.78,22.88c-1.65-.76.23-3.39,1.28-3.49.66-.06,8.03,7.01,8.71,8.48,4.48,4.23,5.53,6.33,8.99,10.99l2,5.98h-3c-1.04-.06-2.18-.17-3.02-.85-2.24-1.78-11.02-11.48-12.89-14.03l-.07-3.09c-2.73,1.04-3.8-2.11-2-4Z"/><path class="cls-60" d="M44.83,25.88c2.12,1.92.73,3.87-2,3-1,5.43-7.78,13.31-12.99,14.99,1.25,2.8-3.13,8.13-5.99,6.99-3.22.9-3.86-.92-1.92-5.46,1.54-1.68,6.11-7.68,6.22-8.26.08-.45.36-.86.7-1.27,3.23-3.62,6.63-6.59,9.99-9.99l2.99,2c-.1-2.74-.56-3.47,2.5-2.99l.5.99Z"/><path class="cls-31" d="M174,271.93c5.42-6.7,17.48,3.57,10.67,10.19-6.35,6.17-16.34-3.16-10.67-10.19Z"/><path class="cls-136" d="M169.34,239.92c8.69-.95,9.84,13.15.79,13.72s-8.52-12.88-.79-13.72Z"/><path class="cls-138" d="M142.73,263.65c.26.09,3.95,3.43,4.01,3.7,2.48,9.58-9.61,12.77-13.01,6.29-.76-2.31-.72-4.67,0-6.99.55-1.13,1.76-2.71,3-3,1.85-.93,4.15-.94,5.99,0Z"/><path class="cls-32" d="M104.77,141.77c10.41-11.58,7.67,1.35,1,6.99-2.27,3.15-4.47,4.51-6.99,6.99l-2.35,1.25c-3.12,4.75-4.67,4.33-4.65-1.25-2.89-.57-1.71-2.68,3.55-6.32,1.71-3.28,3.79-4.98,6.25-5.11l2.18-1.56c-.95-1.39-.51-1.92,1-1Z"/><path class="cls-56" d="M7.86,67.84c-.58,3.38,1.22.98,2,1.47,2.33,1.48-4.06,5.99,1,5.52,2.3,2.45-.26,9.69-3,10.99l-.49,4.47c1.68,1.34,1.11,5.27-1.51,5.52.45-4.24-.06-7.28-2.02-10.99l-1.97,1c1.06-5.78,2.15-10.41,4-15.98.51-1.36,1.17-2.03,2-2Z"/><path class="cls-5" d="M262.61,236.68l-2,3c-3.79,3.12-10,2.41-10.97-2.52-2.53-12.83,13.23-10.35,12.97-.48Z"/><path class="cls-160" d="M13.86,128.78c.86.27.84.6,0,1-1,2.34-.66,2.13,0,4.99-.36.46-3.42-3.69-3.99-1-3.72-6.33-4.97-8.89-6.99-15.98l1.01,1.99h.98c-.58-3.06.79-2.83,3.01-3.99,4.14.95,6.32,9.6,5.99,12.99Z"/><path class="cls-66" d="M78.79,194.72l5.99,1c8.53,1.9,15.25,5.66,18.98,13.99-1.18-1.42-4.3-3.08-5.5-4.99l-.49,1.99c-1.04,1.84-2.41,1.09-2-1-3.67-1.67-7.44-3.56-11.34-5.67-2.86-.16-4.74-.93-5.65-2.32-2.55-.99-5.44-.96-7.99,0-.43,2.69-.94,2.43-2,0-.87-.28-.86-.62,0-1,1.47-1.21,3.47-1.87,5.99-2,1.3-.06,2.7-.09,4,0Z"/><path class="cls-62" d="M68.8,196.71v1c.77,2.48-.92,3.3-3,2-.96,3.56.81,6.35,3.02,8.98,1.88,4.41,3.58,8.44,3.97,13,2.59-.62,3.89.89,2,3v3c-.34-.32-.67-.66-1-1-1.73-1.54-3.39-3.2-5-5-2.99-4.36-3.79-5.65-5-10.99l-1-6.99c.18-4.23-.64-4.34,3-6.99,1.46-.81,2.46-.81,3,0Z"/><path class="cls-145" d="M216.66,49.86c-4.45,3.99-5.64,5.63-11.99,6.99-2.08.45-4.82.12-6.99.99,1.07-4.89,2.86-1.67,4.07-2.43.86-.54.72-2.39.92-2.56,1.62-3.13,8.65-8.47,12.99-6.99,3.29-.41,2.51,1.74,1,4Z"/><path class="cls-24" d="M24.85,151.76c1.4.87,4.58-.17,5.36.06.85.24.34,2.92,3.12,1.93l.51-.99c2.63-1.76,8.05,3.12,6.99,5.99,3.36,1.61,3.49,5.08,0,5.99-5.03-4.56-10.93-8.27-15.98-12.99Z"/><path class="cls-53" d="M271.6,73.83c4.13.22,4.38.26,7.99,2,2.66-.8,13.81,8.73,8.42,8.21-2.99-1.97-6.13-3.71-9.42-5.21-1.65,1-9.97.89-9.99-2-2.9-.99-6.08-.87-8.99,0-.04,2.9-2.3,2.57-3,0-1.84-.4-1.53-1.05,0-2,4.86-1.4,9.99-2.23,14.99-1Z"/><path class="cls-20" d="M278.6,197.71c2.66-4.66,4.29.86,2,4,1.77.58,3.37,2.36,4.8,5.36,2.46.41,4.19,1.29,5.19,2.64,2.01.46,1.29,2.5,2,3.99-.35.21-7.13-.72-7.99-.99-7.11-2.25-7.42-8.98-5.99-14.99Z"/><path class="cls-28" d="M221.65,110.8c-10.88-3.35-21.42-1.71-31.97,2.01,1.69,4.3,4.82-1.22,7.99-.01.03.51.03,1-.12,1.44-.22.65-10.91,6.19-11.86,5.55.48,2.59-.18,2.93-2,1-.57,1.34-1.59,2.53-3,3,1.32,2.58.99,3.42-2,3-2.83.74-2.83-1.26,0-5.99,9.76-11.55,29.29-17.52,42.96-9.99Z"/><path class="cls-87" d="M256.62,76.83c2.66.34,2.51,1.16,0,2,1.27,4.59,2.72,10.99,1,14.99,1.44,3.19-3.45,2.88-2,5-1.37-3.27-1.24-3.95-2-6.99l-1-5c-.15-1.2,0-1.35,0-2,.24-1.19.24-2.52,0-4,.32-1.41.11-3.01.93-4.32.67-1.08,2.06-1.16,3.07-1.68-.05.65.08,1.35,0,2Z"/><path class="cls-89" d="M236.64,269.64c-.77-2.29-.8-5.71,2-4,2.54-.3,2.49-.08,1,2,.98,3.28,9.29,3.11,9.13-2.07-1.16-5.01-.54-6.65,1.86-4.92,4.85,10.56-9.3,18.78-13.99,8.99Z"/><path class="cls-112" d="M250.63,260.65c-3.23,1.12.37,7.27-2.17,8.83-.3.18-6.51,1.71-6.86,1.68-2.84-.23-1.65-1.99-1.96-3.52l2.2-1.23c3,1.23,4.93-.02,5.8-3.77-1.83-.09-3.73-.72-5-2-.48,2.91-1.81,4.58-4,5-.38.69-2.88,1.49-2,4-5.44-11.36,10.06-17.53,13.99-8.99Z"/><path class="cls-9" d="M216.66,49.86l-1-4c-2.17-2.12,3.17-9.8,5.99-8.99,1.81,6.49,2.22-.13,5-2-2.19,7.56-4.38,9.96-9.99,14.99Z"/><path class="cls-141" d="M111.76,131.78c-.46,3.71,1.54-.55,2.65,2.98l1.34.02c-2.79,4.83-4.84,10.76-9.99,13.99.84-1.17,5.66-9.34,4.99-9.99-5.25-.58-1.92,1.29-2.14,2.5-.44,2.45-2.72.44-3.85.49-.3-.54-.5-1.04-.35-1.39.91-2.07,5.08-8.94,7.34-8.6Z"/><path class="cls-51" d="M28.84,35.87c.35,1.12,2.94,2.37,1,3.5-3.15,1.84-1.05-1.7-2.99-1.5-.89,3,.47,6.88-4.01,6,4.98,4.63-3.92,2.38,1,6.98,1.46,2.52.5,3.48-2,2l-4-3c3.97-5.23,6.52-8.98,10.99-13.99Z"/><path class="cls-16" d="M279.6,75.83c5.43.83,12.53,5.14,14.99,9.99-1.29-1-4.05-1.91-5.48-3.01-.75.04.4,2.84.49,3.01-.28.87-.62.86-1,0-2.55.53-6.41-2.94-7.99-5-1.31.6-3.07-.58-2-2,3.37.96,6.01,1.78,8.98,4,1.61-1.71-6.74-6.4-7.98-6.99Z"/><path class="cls-140" d="M241.63,215.7l-2.99-.49c4.92-2.82,1.55-7.6,3.99-11.49,3.32,4.64,2.75,8.24-1,11.99Z"/><path class="cls-38" d="M282.59,190.72c-.04,2.36-.67,3.46,2,3,2.44,1.37,1.67,2.37-1,2l-.62,4.38c1.84,2.21-.26,3.41-2.38,1.61-.43-2.3,1.29-4.64-2-4,1.04-4.38.42-3.98,4-6.99Z"/><path class="cls-147" d="M91.78,155.75c2.4.64,1.39,2.08,1.01,3.99,2.41-1.4,2.36-4.72,5.99-3.99-2.9,2.84-5.58,6.89-9.99,7.99,1.99-2.56,3.76-3.53,2-6.99-1.43-1.33-.82-1.9,1-1Z"/><path class="cls-3" d="M178.7,126.78c3.08,1.79.65,5.65-2,3-.01-.59.1-1.91,0-1.99-2.4-1.95-1.69,2.24-2.16,2.81s-1.71.05-1.83.18c.62-4.11,3.46-6.99,5.99-9.99l-.77,5.41.77.59Z"/><path class="cls-70" d="M255.62,98.81c.05.07,1.26-.23,1.66.36l7.33,11.63c-1.51.16-2.84-.84-4-3-2.32-3.28-3.43-5.27-5-8.99Z"/><path class="cls-132" d="M97.77,27.88c-2.68-2.53-3.53-3.81-7.03-5.44-1.35-.63-1.26-3.05-2.96.45-2.26,1.59-2.82.61-2-2l3-2.99c-6.29.12-4.38-2.53-5.99-6.01,5.08,4.79,11.79,9.76,14.99,15.98Z"/><path class="cls-96" d="M271.6,73.83c-5.24-.27-9.86.54-14.99,1,4.54-2.33,10.43-3.22,14.99-1Z"/><path class="cls-54" d="M92.78,232.68c-.57.03-1.4.87-3.18.75-2.29-.15-3.97-1.24-5.81-1.75,3.05.31,6.58-1.74,8.99,1Z"/><path class="cls-42" d="M74.8,194.72c-1.67.85-4.19,1.67-5.99,2-.9.16-2.04-.11-3,0,3.8-2.77,4.66-1.81,8.99-2Z"/><path class="cls-69" d="M68.8,221.69c2.69-.3,3.87,3.85,5,5-3.37-.11-3.6-2.96-5-5Z"/><path class="cls-113" d="M227.65,28.88c-.16-3.3.23-6.7,0-9.99,2.53,3.27.51,7.17,0,9.99Z"/><path class="cls-137" d="M38.83,238.67c-2-.27-7.05-.31-8.99,0,1.86-1.68,7.13-1.68,8.99,0Z"/><path class="cls-122" d="M218.66,254.66c-.5.91-.78,2.28-1.52,2.98-1.05,1-1.93.71-2.48,1.01.78-1.96,1.52-4.08,4-4Z"/><path class="cls-42" d="M63.81,210.7c-.62-2.74-1.15-3.54-1-6.99,1.9,1.42.76,4.81,1,6.99Z"/><path class="cls-103" d="M133.74,273.64c-1.66-3.16-1.5-3.88,0-6.99v6.99Z"/><path class="cls-42" d="M84.79,195.72c-1.88-.14-4.87.77-5.99-1,2.91.2,3.61.47,5.99,1Z"/><path class="cls-103" d="M142.73,263.65c-.49-.18-5.27-.17-5.99,0,.95-1.61,4.99-1.64,5.99,0Z"/><path class="cls-54" d="M99.77,231.68c-1.48,1.56-3.34.8-5,1,.86-1.72,3.44-.81,5-1Z"/><path class="cls-96" d="M253.62,91.82c-.52-2.09-.71-2.64-1-5,1.62.85.94,3.39,1,5Z"/><path class="cls-8" d="M260.62,239.67l-1-1.98,3-1.02c-.06,2.25-.76,1.98-2,3Z"/><path class="cls-96" d="M252.62,84.82c-.02-1.74-.71-.87,0-4l.78,3.38-.78.61Z"/><path class="cls-52" d="M222.65,13.89c.56,2.8.46,4.49-2.52,4.94-.21,3.43-9.03,21.19-11.25,20.74-.44-.09-.83-.37-1.22-.71-.31.35-.63.67-1.02.83-.7.3-9.99-8.42-8.97-10.83-1.44-4.36,6.26-10.67,9.99-7.99,1.47-2.1.14-3.1-4-3l-.51,2.3c-3.69,1.36-10.66,7.5-7.48,10.69.6,1.56.62,3.62.06,6.17,1.91,4.69,2.23,8.63.94,11.81.83,1.91-1.52,3.31-3,2-.16,2.06-1.49,3.39-4,4-3.91-.26-4.42-2.42-4.91-6.58-2.25-19.12,11.73-35.87,30.65-38.13,4.77-.57,5.58-.72,7.22,3.75Z"/><path class="cls-14" d="M222.65,30.88c-1.13,4.33-4.07,3.17-3-1-1.47.1-.29-1.73-.34-1.63-4.38,9.03-9.06,14.23-16.64,20.61-.33,3.55-12.14,7.93-8.99,2,1.03-.69,1.97-1.25,3-2,.2-3.82,7.29-9.21,10.99-9.99,2.78-1.85,5.05-6.04,6.51-8.97,1.77-3.53,3.25-10.36,4.44-12.31.85-1.39,4.44-.42,4.03-3.7,1.98,5.39,1.09,11.44,0,16.98Z"/><path class="cls-81" d="M219.66,29.88c1.35,1.87.74,2.67,3,1-.32,1.65-.47,4.71-1,5.99-.4.99-5.24,8.29-5.99,8.99-3.03,2.83-10,4.57-12.99,6.99h-1c-2.62.38-2.28-.96,1-4,6.54-5.49,12.28-12.19,16.98-18.98Z"/><path class="cls-19" d="M202.67,48.86c.49,1.12,2.46.56,1.99,1.99-3.78-.91-2.8,1.87-2.99,2.01-2.93,2.12-8.45,2.23-11.99,2-.16-2.87,2.36-2.9,4-4,.2.64.97,1.9,1.49,1.9.42,0,6.29-3.27,7.51-3.9Z"/><path class="cls-94" d="M105.77,44.86c3.2,4.93,7.9,14.43,9.99,19.98.81,2.16.58,3.62,1,5-1.2,4.54-4.72,1.26-5.35-2.38-1.37,4.21-2.92,5.34-4.64,3.38l-2.71-2.63c-3.69-12.86-10.34-24.77-18.13-35.58l-.15-3.75c-.01-1.69,1.32-2.36,4-2,5.03,5.88,11.46,11.02,15.98,17.98Z"/><path class="cls-129" d="M106.77,70.84c3.41-.73.61-4.66.99-4.99.36-.31,2.7.3,3,0,1.09-1.07-2.73-6.16-1.99-7.99,3.4,1.59,3.53,6.39,4.87,9.64.78,1.89-1.04,2.9,3.11,2.35,5.89,19.36,7.11,30.47,0,49.95-1.02,2.22-2.11,2.57-2,0l-1.28-1.95c1.71-3.94,2.13-8.82,1.29-12.78,2.72-4.57,1.61-11.91.7-17.11-.15-.87.52-1.61,1.28-2.13,1.15-4.26-2.04-10.59-5-5l-1,5c2.98,1.5,3,5.44,0,6.99-1.48,4.05-2.44,2.66-2-1-2.91-.56-2.69-5.87,0-6.99l-1-5.99c-3.02-.4-3.68-6.76-1-7.99Z"/><path class="cls-135" d="M116.76,119.79c-1.38,3.78-3.11,8.5-5,11.99s-4.73,6.72-6.99,9.99c-.75.03-.75.78-1,1-3.29-1.28-3.3-3.84.09-5.77l2.56-8.03c3.19-2.19,5.64-5.25,7.34-9.18.18-.91.52-.87,1,0,.2.01.92,1.21,2,0Z"/><path class="cls-65" d="M179.69,195.72c.5.37,2.09-.3,2.76,1.6.14.39.27,6.04.18,6.74-1.91,14.95-22.62.48-16.8-9.73,2.77-4.86,5.2-2.79,8.76-2.15,1,.18,2.87-.68,3.11-.46.27.24-.21,1.62,0,2-.02.86-.29,1.67-1.04,2.11-5.24,3.09,2.18,6.35,1.76.46l1.28-.57Z"/><path class="cls-55" d="M177.7,193.72c.76,1.33.96,1.22,2,2,1.51,14.19-15.33-1.27-2-2Z"/><path class="cls-155" d="M259.62,76.83c2.91-.88,6.1-.99,8.99,0,2.82.27,7.25,1.21,9.99,2,.68.48,1.37,1.67,2,2,1.32,1.4.77,1.92-1,1l-1.65,1.48c-9.24-3.03-7.02-1.02,6.66,6.05v1.46s2.24.11,2.24.11c-1.42-4.81-.83-6.51,1.74-5.1h1c1.45,2.69,4.42,5.11,6.18,8.31,2.64,4.81,7.03,15.3,2.81,19.66-3.29.64-8.61-.02-9.4-3.33l-4.59-2.66c-3.44-.2-10.41-3.55-10.99-6.99-3.22-.71-5.94-2.98-8.15-6.8-4.67-4.62-7.61-9.68-8.83-15.17.11-.62-.08-1.36,0-2h3Z"/><path class="cls-126" d="M270.61,101.81c6.29,2.38,12.27,5.68,17.94,9.92-2.17-1.24-3.49-2.55-3.96-3.93l13.99,5.99c-1.98,2.05-10.47,2.33-13.42,2.01s-3.77-1.48-5.56-2.01c-2.54-3.84-9.41-5.94-13.99-6.99-3.09-2.64-5.53-6.14-6.99-9.99-.39-1.42-.18-2.57.61-3.48-1.65-2.53-1.76-6.86,1.76-5.94.8.21,9.03,11.47,10.07,13.02.17.25-.08.78-.45,1.38Z"/><path class="cls-77" d="M256.62,78.83l8.58,12.9c2.68,3.15,5.18,6.45,8.41,9.08.83,1.99-.17,2.32-3,1-3.54-3.06-7.66-8.83-10-12.98-3.12.79,1.73,4.67.97,5.94-.09.15-2.71.5-2.96,2.04-.27-.7-.78-2.26-1-3-1.77-6.06-2.06-8.9-1-14.99Z"/><path class="cls-109" d="M265.61,106.8c7.81-3.31,4.87-.49,7.11.95.64.41,2.36-1.11,2.77-.83.3.21.38,1.8,1.09,2.22,2.56,1.51,7.27.24,3.02,4.65-6.02-1.8-8.98-2.7-13.99-6.99Z"/><path class="cls-21" d="M31.84,244.67c2.42-3.01,4.92-2.19,6.46,1.37,1.45-.89,2.38-.9,3.53.63.28.51,1.32.98,1.59,1.92,1.96,6.75-5.63,11.74-11.86,9.89-3.16-.94-1.91-3.56-2.72-5.82,2.38-1.94,2.87-3.69,1.48-5.27l1.52-1.72c-.9-.31-.89-.64,0-1Z"/><path class="cls-101" d="M41.83,246.67l-4.5,1.98c-2.18-3.02-.63-4.87-5.49-3.97-1.25-1.13-.91-2.46,1-4,5.1.52,6.76,1.93,8.99,5.99Z"/><path class="cls-157" d="M29.84,245.67c.59-1.88,1.37-1.86,2,0,.97,3.49,4.31,5.61-3,6.99-.14-.4-2.63-.81-2.05-4.47.37-2.35,1.17-2.17,3.05-2.53Z"/><path class="cls-137" d="M32.84,240.67c2.3,2.96-1.04.83-1,4,0,.34-.07.74,0,1-.64.08-1.39-.11-2,0v-4.99c.98.04,2.02-.11,3,0Z"/><path class="cls-21" d="M24.84,249.66c.14.15,1.16,3.86,1.01,3.99-2.48,2.11-3.87-6.92-1.01-3.99Z"/><path class="cls-44" d="M78.79,14.89c2.72,2.95,2.73,6.38-1,3-1.75,1.44-3.28-.19-2-2-1.37-1.92-2.85-1.26-2,1,.89.28.87.62,0,1,.63,2.7-1.1,2.8-3.28,1.58-5.68,2.52-8.25,2.33-7.71-.58-1.55.37-.86-2.13-.32-2.31.36-.12-3,6.73-4.68,4.31-3.98,2.94-6.89,3.37-4-2,3.36-3.35,10.31-14.17,13.88-14.52,6.05-.59,8.48,7.71,11.1,10.52Z"/><path class="cls-162" d="M53.82,18.89l.72.62c-1.72,4.9.83.8,3.28,1.38.15,3.99-3.54,6.5-6.99,7.99.83,3.26-.62,5.1-4,5-2.94,3.57-5.99-2.22-4-5,.75-.77,1.24-2.23,2-3,2.53-2.59,6.53-4.54,8.99-6.99Z"/><path class="cls-83" d="M85.79,20.89c.69.76,1.48,1.41,2,2,1.14,1.29,1.56,3.48,2,4,1.07,1.97-2.01,2-4,2-.18.9-.52.86-1,0-3.22-2.57-7.58-6.84-6.99-10.99,3.29.34,1.44-.55,1-3,1.77,1.9,5.27,4.09,6.99,5.99Z"/><path class="cls-39" d="M214.66,111.8c.19.02,1.19.78,2,1l2.99,2.06c.39,1.22-2.88,7-3.99,8.93,1.15,2.3-3.46,7.64-5.99,5.99-3.36.89-5.73-.58-6.48-4.1-3.28-.76-5.45-2.05-6.51-3.89-.87-.28-.86-.62,0-1,1.26-2.35,4.03-3.64,8.29-3.85,18.7-1.55-3-2.03-7.49,1.3l-1.8-1.44c.51,2-2.34,2.22-4,2,.31,5.48-9.84,6.86-5.99,1,3.38-2.38,8.08-5.8,11.99-6.99.77-.23,3.39-.92,4-1,4.24-1.07,8.74-1.06,12.99,0Z"/><path class="cls-95" d="M197.68,137.77c3.33-.33,4.66.34,4,2,.93,1.31-4.57,3.29-4.3,3.19,3.37-2.36,6.14-3.09,8.29-2.19,2.06-1.27,2.72.06,2,4-1.04.66-1.55,1.36-3,2-2.53,1.11-6.04,2.38-8.75,2.73-4.45.57-19.9-.98-22.22-4.73,1.96-3.81,7.49-3.49,10.99-3,.7-3.24,9.15-4.68,11.99-4,.23-.93.57-.91,1,0Z"/><path class="cls-99" d="M222.65,118.79c.57,4.13-1.18,8.95-3,12.99-1.34.18-1.74-.74-1.2-2.74l-2.8-.25c-1.21,4.14-9.32,11.7-13.99,10.99-.54-1.59-2.94.66-3.88-.11-.44-.36.04-1.6-.12-1.89,1.31-3.47,8.26-8.58,11.99-7.99,2.56-2.15,3.84-3.85,5.99-5.99,1.61-6.23,3.95-7.89,6.99-5Z"/><path class="cls-73" d="M217.66,135.77c-2.48,3.58-6.37,6.69-9.99,8.99l-3-1.01,1.98-2.49-.98-.49c-.06-2.37,4.74-6.07,6.99-5.99,3.19-1.96,4.85-1.63,5,1Z"/><path class="cls-40" d="M222.65,118.79c-3.76.14-4.51,2.52-6.99,5,.44-2.01,2.36-4.19-.93-4.05-.13-3.42,5.23-2.11,1.93-6.94,1.55.42,4.65.76,5.53,2s.29,2.78.46,4Z"/><path class="cls-22" d="M219.66,131.78c-.53,1.19-1.31,3-2,4l-5-1c-.71-1.26,2.14-3.75,3.44-4.8.09-.07.31,1.52-.45-1.2,1.26-1.43,1.94-3.67,3.5-4.98l.5,7.97Z"/><path class="cls-28" d="M214.66,111.8c-3-.39-9.96-.37-12.99,0,3-1.66,9.78-1.7,12.99,0Z"/><path class="cls-68" d="M294.58,191.72c9.19,5.42,3.36,16.28-4,17.98-6.01,1.39-9-2.63-9.99-7.99,2.89-.72,1.13-4.35,3-5.99,2.59,4.15,4.59,3.15,5.99-3-.37-2.71,3.06-1.8,5-1Z"/><path class="cls-98" d="M286.59,192.72c.83-1.66,2.47-2.03,3,0,2.89,4.53-1.35,8.67-5.99,8,.16-1.58-.27-3.52,0-5,.02-.11.93-1.91,1-2,.97-1.15.98-.7,2-1Z"/><path class="cls-38" d="M294.58,191.72c-2.03-.87-3.84.79-5,1-.91.17-2.23-.23-3,0,.65-4.66,5.02-2.75,7.99-1Z"/><path class="cls-143" d="M216.66,245.67c.63,1.27.82,2.75,0,4-.09.26-.83.58-1,1-8.53,6.77-13.53,6.77-14.99,0-.47-.76-.67-1.17-1-2-.22-1.27-.18-1.7,1-1,2.31-1.51,4.64-2.51,6.99-3,1.61-1.09,2.87-2.38,4-4h1c2.02,1.35,3.04,2.78,4,5Z"/><path class="cls-122" d="M215.66,250.66c-.53,1.32.71,2.8-1.44,5.06-3.44,3.62-7.91-.74-9.04,2.93-1.75-.65-.37-2.92-.51-2.99-1.15-.55-4.94,3.29-4-5,1.54,2.45,1.12,3.92,4.53,4.09.47.02,6.95-4.41,7.97-5.08,2.3-1.53.79-.89,2.48.99Z"/><path class="cls-63" d="M204.67,241.67c1.39-2.1,3.39-1.62,3,1,2.33-.02,2.24,1.26,0,2-1.22,2.57-4.27,5.37-6.99,3-1.53-.26-1.42-1.83-1-3,1.35-2.41,2.18-2.93,5-3Z"/><path class="cls-120" d="M212.66,240.67h-1c-.8,1.86-2.6,4.18-4,2-.44.03-1.97-1.02-3-1,.4-4.39,5.37-2.76,7.99-1Z"/><path class="cls-122" d="M200.67,247.66c.04.49-.39,1.18-1,1-.93-2.34-1.6-1.15,0-4-.05.99.94,2.3,1,3Z"/><path class="cls-122" d="M216.66,249.66v-4c.26.6,1.23.81,1.07,2.46-.11,1.11-1.01,1.37-1.07,1.54Z"/><path class="cls-29" d="M252.62,181.73l.49,1.99c5.66-2.37-1.66-7.98-.49-8.98.2-.17,3.08-.17,3.78.22,2.27,1.25,1.99,7.86.72,9.78-1.15,1.73-7.53-.75-8.5-2.01-.52-2.92,2.63-3.52,4-1Z"/><path class="cls-84" d="M252.62,181.73l-4,1c-4.94-6.41,6.78-8.44,4-1Z"/><path class="cls-13" d="M181.69,123.79c3.25-.32,5.91.35,7.99,2,3.07-1.7,3.38,2.57,3.08,5.1,3.42,2.24,4.72,4.54,3.91,6.89-.15.05-1.37,1.29-2.68,1.78-3.39,1.27-6.3,1.39-9.31,2.22-3.64,1.39-5.94-.34-6.89-5.21-1.83-.87-2.2-2.46-1.1-4.78.13-.41.01-1.4,0-2,1.91-.35,1.5-2.07,2-3,.71-1.32,1.15-1.86,2-3h1Z"/><path class="cls-75" d="M176.7,131.78c-.46,2.23,1.78,2.13,2.75,3.7,1.99,3.19.94,6.72,5.24,6.29-3.63,1-7.07,3.1-10.99,3-3.38-5.46,1.69-9.03,3-12.99Z"/><path class="cls-159" d="M7.86,85.82c3.13.81,2.97,5.05,2,7.99l2.04,1.09.72,13.48-1.77,1.41c1.51,4.13-.75,5.16-3,2-1.03-5.26-2.18-10.57-2-15.98.07-2.16,1.5-7.52,2-9.99Z"/><path class="cls-49" d="M16.85,124.78c-.98,1.35-2.33-1.27-2.24-1.15,2.2,3.01,5.25,7.63-.75,5.15-1.57-3.87-5.01-9.11-5.99-12.99-.27-1.09.23-2.81,0-4,2.15-1.11,3.48,1.21,3-2,3.43,1.85,8.46,11.63,5.99,14.99Z"/><path class="cls-144" d="M105.77,267.65c-3.34-1.38-3.34-1.04,0,1,1.58,5.44-4.76,5.96-8.99,5.98.85-1.22.09-2.07,0-2.99q.57-2.42,0,0c-4.03.92-1.71-5.89,1.24-7.25,3.2-1.48,8.45-1.78,7.76,3.25Z"/><path class="cls-61" d="M105.77,267.65c.12.23-.1.66,0,1l-6.01.49c.4-5.38,3.42-6.38,6.01-1.48Z"/><path class="cls-4" d="M70.8,197.71c2.55-.97,5.43-.99,7.99,0,6.69.83,12.09,3.47,16.98,7.99,1.05,2.66,0,2.89-2,1-2.62.93-6.89-1.04-6.99-4-1.6.39-3.44.36-5.52-.1,1.3.74,2.05,1.35,1.53,3.1,3.6-1.76,12.81,3.94,12.99,7.99,1.46-1.05,3.24.65,4,2,.36-1.91,1.03-2.57,2-2,2.29,4.17,6.91,10.09,2,13.99-3.6,1.75-6.94-.64-8.99-3-1.46,1.44-6.88-1.09-6.99-3-3.59-.08-9.45-3.51-10.99-6.99-2.63-.48-6.28-4.17-5.99-6.99-3.73,1.66-6.37-4.53-5-7.99.59-.89,1.97-1.79,3-2,.58-.12,1.34.06,2,0Z"/><path class="cls-26" d="M86.79,223.69c.41-2.06,9.17,2.74,7.75,2.78-.61.01-1.12-1.42.25-1.78.54.22,2.08-.24,3.25.2,1.89.71,2.98,3.52,5.74,2.8-4.66,3.69-18.46,2.15-23.98,0-.43-2.16.8-3.46,3-3-.61-1.59.72-1.92,4-1Z"/><path class="cls-93" d="M82.79,224.69c-.21.1-.5,2.75-3,3-1.47-.57-3.86-1.96-5-3-.68-.62-1.31-2.13-2-3v-1c.79-4.07,10.73,1.13,9.99,4Z"/><path class="cls-6" d="M97.77,206.7c.26.28.35,2.14,1,3,.9,1.65.94,2.42-1,2-2.73.64-5.64-2.43-4-5l2-1c.68.62,1.85.84,2,1Z"/><path class="cls-146" d="M101.77,213.7c-.34.88-1.04,1.83-2,2-1.37-.44-2.93-2.61-2-4,.39-.62.63-1.36,1-2,1.26,1.65,1.54,1.33,3,4Z"/><path class="cls-37" d="M20.85,129.78c1.33-1.39,1.88-.8,1,1,4.32-.53,7.32,1.4,9.02,5.79l4.51,2.31c2.77,4.49,5.59,7.45,8.45,8.88.8-.26,1.8-.57,2.4-.1,2.69,2.11,8.94,8.1,8.59,11.09,1.65,1.79,2.32,2.12,2,1-1.11-2.57.16-3.03,2-1,.66-.58,1.51-.88,1.94-.33,6.83,8.66-.66,8.15-7.94,6.32-2.58,1.26-3.46.85-3-2,2.5-.7,2.17-1.04-1-1-2.15,2.89-6.92.15-7.99-3-1.25-.8-5.3-4.59-6.99-5.99-5.52-4.6-8.77-8.62-12.99-13.99l-.38-1.66c-2.86-2.85-7.04-10.61-.61-8.33.84-.89,1-.23,1,1Z"/><path class="cls-64" d="M16.85,124.78c3.08-1.5,4.97,1.43,3,4-1.6.48-1.81,1.5-1.6,2.98.46,3.32,4.49,4.58,2.6,7.01-2.33-2.97-4.93-5.8-6.99-8.99.12-.29-.13-.75,0-1s1.73-.56,1.77-1.46c.05-1.1-4.77-7.63,1.23-2.54Z"/><path class="cls-47" d="M105.77,110.8c.56-1.76,3.38-5.17,5.35-4.34,4.47,1.89,4.68,11.59-1.06,15.28-.87.56,1.76-4.91,3.7-1.96-.21,2.48-1.48,5.95-2.64,8.03-.78,1.4-2.54,1.45-3.08,2.24-.79,1.17-1.61,6.14-2.52,8-.81,1.67-5.02,2.08-1.75,4.7-3.94,3.57-7.43,7.49-11.71,11.29-.48.43-.16,1.59-.28,1.7-.38.33-.72.79-1,1-.45.33-2.13.31-3,1,.21.88-.12,1.22-1,1-1.31,1.01-2.63,2.06-4,3-5.61,1.4-5.92-5.41-.38-5.76,1.66-2.15,3.14-2.94,4.43-2.36.3-4.46,1.77-6.17,4.4-5.13-1.74-3.29.44-5.14,3.88-4.36l-.36-1.96c2.46-2.03,5.43-7.16,2.01-9.4l-1.19-1.99c3.17-6.21,5.95-12.7,7.96-19.38l2.22-.61Z"/><path class="cls-79" d="M96.78,132.78l3.01-3,3.98,1.02c.73,3.53-2.72-.05-3.53,3.49-.07.32-.53,5.58-.51,5.87.02.22,3.83,1.78,2.04,3.61-1.97,2.02-3.6-3.55-4.99-1.99-.55.62.95,2.99.89,3.52-.25,2.57-4.59.21-4.89.47-1.94,1.72,2.07,2.14,2,2.48l-1.99,3.07-4.01-1.55c-.42.47,2.62,3.39-2.01,6.5-1.95,1.31-.36-1.9-1.49-1.5-1.89.68-.36,2.92-.49,2.99-.75.38-3.61-.36-4.01.01-.17.15-1,5.08,2.01,3.99-.74.51-1.49.68-2,1-2.19.61-4.58,1.76-7.17,3.46l-2.82-.46c-.31.86-.64.86-1,0-4.75.79-6.56-9.7,1-6.99,3.3-.73,5.6-3.15,7.82-5.59l2.17.6c2.54-.4,3.21-1.06,2-2l-.72-2.16c4.58-5.26,8.76-10.95,12.43-16.87l2.28.05Z"/><path class="cls-134" d="M54.82,153.76c-.98-6.81,6.84-1.9,8.73,1.93,2.91-1.89,7.88-2.16,8.25,2.07.43.87.06,1.17-1,1-1.65,1.54-.2,2.56-3.99,1l2.99,5.99c2.41,1.22,2.35,2.03-.24,2.9l-7.75.1h-1c-2.06,2.05-8.64-.97-7.99-4l8.99-1c.51-2.59-1.95-3.67-2.99-4.99-2.54.2-5.31-2.58-4-5Z"/><path class="cls-104" d="M48.82,161.75c1.08-.05,1.5-.04,1,1,.88.51,1.82,1.32,3,2,1.94,1.11,6.85,2.87,7.99,4,1.79,1.77-.86,4.21,5,2.01-.96,1.94-1.45,2.18.99,2l-4.99.99c-3.2-1.17-19.84-7.2-20.98-8.99-.54-.85,1.73-4.59,0-5.99,2.06,1.32,6.42,2.07,7.99,3Z"/><path class="cls-91" d="M73.8,167.74c-4.47,2.19-7.08,3.64-11.99,1,1.84-2.64,5.86-.61,7.34-.95,1.2-.27.45-1.71.65-2.05.06-.11.67.06,1,0,2.85-.53,3.85.13,3,2Z"/><path class="cls-134" d="M80.79,162.75c-2.32,1.48-3.77,3.42-6.99,5l-3-2c1.88-1.04,4.44-1.37,6.2-2.11,1.25-.53.57-3.4,3.79-.89Z"/><path class="cls-147" d="M87.78,157.75l1,3.99c-2.66.5-2.03-.64-1.99-2.99.36-.27.63-.71,1-1Z"/><path class="cls-158" d="M233.64,203.71c1.49,3.23,2.49,3.23,3,0,4.18.73,6.01,10.44-1.53,10.05-6.59-.34-6.65-9.06-1.47-10.05Z"/><path class="cls-125" d="M236.64,203.71c3.96,6.36-6,5.85-3,0,.67-.13,2.31-.12,3,0Z"/><path class="cls-48" d="M19.85,57.85c1.04-3.08,3.34-1.14,4.56,1.22,2.96-.71,4.11.88,3.44,4.77,2.76-.09,2.6,1.03,0,2,1.49,1.65,1.03,4.25-1.37,7.79-.15,4.09-1.36,6.82-3.63,8.19l-.33,4.12c1.25,3.24.69,5.2-1.67,5.87-.84-.4-1.7-.94-2.02-1.86-.65-1.83-.15-8.78.03-11.13-1.32-1.09-2.65-2.42-4-4-1.93.13-2.6-1.2-2-4,2.4-5.53,4.13-8.06,6.99-12.99Z"/><path class="cls-41" d="M34.84,49.86c1.38,3.57-2.95,13.63-6.99,13.99-.03-.13-1.05-.34-1.36-1-.38-.81.45-1.94.36-1.99-.51-.28-2.27.31-3.23-.04s-1.65-3.03-3.77-2.97c.69-1.19.61-2.87,2-5,.19-.29,1.27-.96,2-2,2.41-3.45,3.84-4.34,5.99-6.99,4.86-3.73,7.91,1.14,5,5.99Z"/><path class="cls-142" d="M14.86,74.83l1.78,1.41-3.48,10.21c.48,5.23-.61,7.68-3.29,7.36-.08-1.65.07-3.34-.01-4.99-1.96-.37-.02,2.36-1.98,1.99v-4.99c.83-4.14,1.53-7,2.99-10.99.57-1.56,1.44-2.71,2-4,1.2-.29,2.05,3.54,2,4Z"/><path class="cls-118" d="M42.83,28.88c-.53,2.51.85,2.11,3,2.01-.82,2.35-2.18,3.35.99,2.99l.59,2.48-10.09,13.34-2.49.17c.49-3.61-1.09-6.3-5-5.99,4.35-5.36,7.93-9.82,12.99-14.99Z"/><path class="cls-119" d="M181.69,273.64l-1,5c-.78.24-4.24.27-4.98-.48.54-2.47,2.73-8.58,5.98-4.51Z"/><path class="cls-7" d="M180.69,278.63c-2.41-2.68-2.18-3.18,1-5,1.19,1.49.84,4.43-1,5Z"/><path class="cls-35" d="M172.7,243.67c2.01,2.03-3.48,6.48-4.98,2.48-1.4-3.71,4.72-2.75,4.98-2.48Z"/><path class="cls-110" d="M141.73,268.64c-.5,2.1-4.65,2.12-5,0,.17-1.14-1.45-3.06,1.51-3.05,2.63.02,3.22.52,3.49,3.05Z"/><path class="cls-103" d="M141.73,268.64c.07.68.38,2.14-.6,2.01l-5.39-.03c-.39-.24.93-1.51,1-1.99,1.61,1.18,3.39,1.18,5,0Z"/><path class="cls-152" d="M258.62,234.68c-1.79,4.88-6.83-.5-4-3,2.38-.47,4.01.48,4,3Z"/><path class="cls-8" d="M258.62,234.68c-.01,2.01-1.75,4.28-3.99,3.99,1.27-4.38-.35-2.94-2.98-4.49.82-.77,1.9-2.28,2.98-2.5-.3,3.05,1.16,5.17,4,3Z"/><path class="cls-42" d="M78.79,197.71c-2.12-.26-5.81-.19-7.99,0,1.57-1.68,6.46-1.67,7.99,0Z"/><path class="cls-88" d="M70.8,207.7c.46,3.86,3.96,6.54,5.99,6.99,2.7.58,7.83,5.4,10.99,6.99-.2.91-.86,1.57-2,2l-2.13-.08c-3.87-3.55-7.49-4.52-10.86-2.92v1c-4.21-5.29-2.01-3.6-3.43-7.97-1.57-4.83-7.69-7.76-3.56-14.01-.23,3.23,2.92,5.51,5,7.99Z"/><path class="cls-96" d="M268.61,76.83c-2.79-.27-6.1,0-8.99,0,1.86-1.68,7.13-1.68,8.99,0Z"/><path class="cls-107" d="M191.68,118.79c.08,2.03,1.41,3.03,4,3,.04,2.63-3.75,6.05-5.99,4-.69.4-2.22.27-3.31.96-1.16.73-1.6,5.03-2.71-1.96-1.74,1.09-2.27,1.36-1.96-.99l2-3c.5-.41,1.42-.59,2-1-.47,4.54,3.66.22,5.99-1Z"/><path class="cls-3" d="M181.69,123.79h-1c1.21-1.61,1.53-1.79,3-3-.01,1.46-.57,2.56-2,3Z"/><path class="cls-82" d="M242.63,260.65c.99,2.03,2.66,2.7,5,2,2.43,5.87-3.21,7.5-7.99,5-.08-.39-1.06-1.22-1-2,1.63-2.99-.46-3.09,4-5Z"/><path class="cls-43" d="M242.63,260.65c1.27-.54,2.43-1.38,3.92-.92.28,1.01.67,1.96,1.07,2.92-2.43,3.75-6.18,2.98-5-2Z"/><path class="cls-1" d="M288.59,85.82c-3.61,3.21,1.86,7.64-4,5-.08-1.95-1.87-4.19-5.37-6.73l.37-2.26,1-1c2.58,1.33,6.24,1.84,7.99,5Z"/><path class="cls-139" d="M197.68,28.88c3.21,2.5,6.94,7.43,10.98,7,.41,1.71-1.39.59-1.93,1.1-.66.61.93,1.74.94,1.89.09,2.01-8.99,8.54-10.99,9.99-.89-4.12-3.01-9.45-3.09-13.56-.02-1.2,1.39-3.35,2.1-4.42-1.48-2.58-.52-3.58,2-2Z"/><path class="cls-127" d="M203.67,17.89c2.73-.64,5.86.45,4,3-.75.41-2.22.24-3.26.99-2.03,1.48-5.01,4.99-6.73,7-.52.61-1.2.79-2,2-4.36,3.12-3.42-1.9-2.07-4.57,2.03-4.02,5.85-7.11,10.07-8.42Z"/><path class="cls-90" d="M207.67,20.89c.33-3.31-.55-1.44-3-1.01-.4-.29,2.57-2.71-1-1.99,5.29-1.64,6.65,1.55,4,3Z"/><path class="cls-117" d="M219.66,29.88c-2.86,8.02-9.66,15.17-16.98,18.98-.48-1.11-.04-1.39.65-2.06,7-6.7,13.04-12.09,16.34-21.91,2.03-.1.28,4.15-.01,4.99Z"/><path class="cls-97" d="M84.79,28.88c.33.02.67,0,1,0,9.01,13.25,17.41,26.02,20.98,41.96.52,2.35.67,5.52,1,7.99l1,5.99c.08,1.83.07,5.14,0,6.99.56,2.35,1.28,6.41-1,7.99-.49,1.51-.66,3.14-.53,4.87,2.76,1.85.71,4.28-1.47,6.12-1.4,5.82-6.04,16.72-8.99,21.98-2.84,5.06-9.98,14.79-13.99,18.98.66,1.71-.24,2.24-2,2-2.21,2.13-7.48,7.74-9.99,5,.34-.32.68-.66,1-1l.93-3.91c15.17-16.22,26.39-36.09,27.86-58.59l2.18-3.43-1.94-2.34c.37-9.17-1.06-18.24-4.2-26.85,1.13-.73,1.59-1.63,1.14-2.78h-2.13c-2.8-8.06-6.46-15.66-10.99-22.81l.14-2.17c-2.57-1.4-4.26-2.44-2-5-1.75-3.91-.59-3.93,2-1Z"/><path class="cls-133" d="M116.76,85.82c2.71,6.45,1.57,4.75,1,11.49-.11,1.34.97,2.83.91,4.06-.08,1.66-2.27,2.87-1.96,4.92s1.99-2.36.53,3.49c-.83,3.33-.96,6.86-2.48,10.01-.32-.02-.68-.02-1,0-3.24.23-2.53,6.63-7.99,4.98,1.19-2.33,4.26-1.2,1.98-4.98h3.03c-1.98-2.58.59-1.82,1.38-3.05,3.42-5.33-2.68-4.43-.39-8.93l-5.99,2.99c.81-3.38,1.01-6.86,1.19-10.32l.81-.67c1.59.22.74,4.72.77,4.47-.26-4.46.48-8.28,2.23-11.47.1-2.27.12-4.73,0-6.99-.01-2.99.65-4.32,2-4-1.83-7.47,6.69-1.49,4,4Z"/><path class="cls-74" d="M111.76,80.83c-.79-1.89-2.6-2.79-1.99-4.48,1.3-3.62,1.94,1.29,4.49.51.92-.28-.18-2.46,1.48-2.02-.87,2.69,2.95,5.35,3.01,5.68.25,1.39-1.49,3.6.5,5.28l-2.5.02c-.82-1.95-2.18-3.67-2.01-5.99h-.97c.1.87-.63,1.36-1.01,1.99-1.45,1.25-1.97.71-1-1Z"/><path class="cls-150" d="M108.76,91.82c-.17,2.67-.04,2.27,2,1-.06,1.33-1.24,10.49-1.48,10.99-.22.47-1.31,1.28-1.51.99-.05-1.66.03-3.33,0-5-.08-3.29.93-6.16,1-7.99Z"/><path class="cls-150" d="M111.76,80.83c.12.3.77.62,1,1-.72,1.19-.71,3.01-2,4-.09-1.75-.83-3.28-.99-4.99h1.99Z"/><path class="cls-150" d="M108.76,84.82c-1.77-1.12-.85-4.11-1-5.99.26,1.91.88,3.2,1,5.99Z"/><path class="cls-156" d="M279.6,81.83c.5.24,4.82,4.29,5.41,5.08.44.59,3.01,4.9-.41,3.91-2.04-.92-14.7-6.73-14.95-7.53-1.55-5.05,7.75-2.51,9.95-1.46Z"/><path class="cls-128" d="M273.6,100.81c3.38,2.75,7.44,4.51,10.99,6.99,1.36.95,6.03,3.4,4.5,4.99-5.72-3.83-13.26-6.46-18.49-10.98l3-1Z"/><path class="cls-18" d="M62.81,18.89c.1-.02.72,1.17,1.91.57.87-.43,2.53-3.03,3.08-2.57.37.31-.82,2.39,1,1.99l1-4.99-2.98,2c-1.19-5.61,2.73-8.18,3.8-2.26.21,1.17-.84,2.9-.68,3.14.11.17,3.88,2.55,3.86,1.12,3.93.58,8.17,7.99,8.99,11.99.9,1.4,1.16,3.48,2,5,1.36,2.41-.34,2.74-2.87,2.5-4.03,5.62-8.54,9.61-15.7,10.29-4.77,4.61-7.24,4.67-7.4.2l-1.63-1.4c2.66-13.57-18.14,16.91-10.81,19.29,1.78-2.59,3.59-3.88,5.45-3.89,1.51-2.43,4.28-.72,4.8,1.76.62,2.97-5.22,9.37-8.69,9.06.62,9.89-1.08,12.94-5.1,9.16l-1.15-1.79c3.32-8.44-.86-11.04-.73-.52l-2.11,1.32c2.82,1.63-1.5,5.43-3.57,4.7-3.33-1.18-3.3-7.58-2.42-10.69-1.13-13.63,9.64-32.99,18.74-43.77l3.24-1.19c-.92-3.71,4.45-9.88,7.99-10.99Z"/><path class="cls-151" d="M75.8,15.89c.73,1.05,1.71,1.58,2,2,2.42,3.43,4.8,7.38,6.99,10.99-1.17-.08-2.29-2.75-2,1-2.28-3.58-6.82-8.41-8.99-11.99-.15-.24.14-.74,0-1-1.64-3.47.23-4.22,2-1Z"/><path class="cls-67" d="M62.81,18.89c-1.08.23-6.72,9.16-7.99,10.99-3.05-.86-.93-.67-1.04-.32-.43,1.47-2.42,1.15-2.96-.68,2.2-2.63,4.71-5.34,6.99-7.99.41-.48,1.72-1.03,2.54-1.93,1.9-2.08,2.35-6,2.46-.07Z"/><path class="cls-18" d="M75.8,15.89c-2.04-1.27-2.17-1.67-2,1-1.11-1.97-3.54-5.57.5-3.99,1.44.56,1.15,2.49,1.5,2.99Z"/><path class="cls-86" d="M54.82,29.88c-9.32,13.41-19.58,28.53-21.98,44.96-.28.87-.62.86-1,0-2.74-.09-3.28-2.11-1.63-6.04-1.76-.48-2.61-.89-2.37-2.95.1-.41.1-1.6,0-2,2.55-4.09,4.54-10.06,6.99-13.99,2.95-4.71,8.39-11.43,11.99-15.98,1.3-1.65,2.65-3.39,4-5,2.73.23,4.49-2.62,4,1Z"/><path class="cls-100" d="M196.68,121.79c2.06-.09,6.57,1.22,7.96,2.56,1.02.97.72,2.51,1.33,3.18.49.54,3.24.21,3.69,2.26-3.77,3.17-7.35,6.13-11.99,7.99-.02-.04-.79-.07-1,0-.82-1.04-5.5-5.78-5.71-6.19-.13-.26.2-4.53-1.29-5.8,1.37-.8,3.72-3.53,5.99-4,.26-.66.59-.64,1,0Z"/><path class="cls-153" d="M195.68,116.79c3.29-1.4,15.9-5.27,17.98-1.98,2.98,4.7-6.45,3.76-8.37,4.1-2.78.49-5.95,1.61-8.61,1.88-5.6,1.8-6.04-.71-1-4Z"/><path class="cls-154" d="M195.68,116.79l1,2.99c-.41.34-3.65-1.88-3.99,1,1.31-.07,2.69.14,4,0v1c-.32.01-.69-.06-1,0-3.46.06-4.55.9-4-3,1.3-.68,2.65-1.42,4-2Z"/><path class="cls-50" d="M215.66,128.78c4.99-.45-.97,4.1-3,5.99-2.16,2.02-4.38,4.53-6.99,5.99-1.44.81-5.94,1.07-7.88,3.44l-12.1,1.54,8.75-3.73c3.61.34,4.83-1.04,7.23-2.25,4.89-2.47,10.4-6.9,13.99-10.99Z"/><path class="cls-15" d="M211.66,240.67c.58,2.08-2.26,6.17-4,4,.19-.4-.13-1.4,0-2,.95-.06,2.82-1.7,4-2Z"/><path class="cls-45" d="M14.86,74.83c4.99-3.16,3.93.17,4,4-.68,12.83-.26,24.94,4.11,37.17-1.17.73-1.63,1.64-1.11,2.79,3.33,1.44,4.07,4.02,2,6.99.66,2.13-.84,3.83-3,4-.2-.33-.74-.61-1-1-1.21-1.79-.93-2.24-3-4-1.38-4.95-4.88-9.97-5.99-14.99-.91-4.1-.78-11.57-1-15.98,1.8-1.71.78-4.88,1.23-7.26.69-3.65,3.37-8.4,3.76-11.72Z"/><path class="cls-34" d="M96.78,271.64c-.12-1.16-1.05-2.16.01-3.99h.98c-.11,1.65.7,3.6-.99,3.99Z"/><path class="cls-111" d="M86.79,202.71c3.13,1.33,4.25,1.44,6.99,4,1.11,1.03,2.86,3.58,4,5,1.84,2.13.27,3.92-2,2-4.86-3.49-7.83-5.12-12.99-7.99-1.66-3.01.97-4.71,4-3Z"/><path class="cls-116" d="M86.79,202.71c-2.22-.49-2.22,2.12-4,3-.97-.54-6.51-2.25-3.03-4.53,3.22-2.11,5.23.76,7.03,1.53Z"/><path class="cls-85" d="M87.78,221.69c1.96.99,4.88,2.14,6.99,3l1,1.99c-1.69,1.2-7.59-2.95-8.99-2.99h-1c-.24-2.12-.12-2.24,2-2Z"/><path class="cls-23" d="M70.8,207.7c1.92,2.3,4.39,4.38,5.99,6.99-.07-.02.37,1.19-1.28.81-2.39-.54-7.73-5.55-4.72-7.8Z"/><path class="cls-102" d="M99.77,215.7c-3.05.54-2.9-1.21-4-2,1.11-.34,1.45-1.12,2-2,.85,1.06,2.69,1.3,2,4Z"/><path class="cls-33" d="M72.8,220.69v-3c2.85,1.99,1.68-.67,2.02-.95,1.88-1.57,1.87,1.4,2.67,1.96,2.38,1.65,5.96,2.86,8.29,4.99h1c-.21,0-3.81.91-4,1-2.24-2.8-6.52-4.42-9.99-4Z"/><path class="cls-64" d="M37.83,139.77c3.36-.23,7.08,4.82,5.99,7.99-4.87,3.95-3.16-6.93-7.98-3,.36-3.15.33-3.81-2.52-5l-1.98,2.98.5-3.96c-4.57.26-3.68-7.29-7.5-6.04-.69.23-.14,2.34-.99,2.02-1.79-.69-1.13-3.34-1.5-3.99.4-1.84,1.06-3.51,2-5-.57-2.33-1.28-4.7-2-6.99-1.01-3.2-.2-3.54,3-4,.24-.9.57-.87,1,0l2.31,1.52c1.79,7.58,5.9,14.32,10.21,20.7l-.53,2.75Z"/><path class="cls-2" d="M47.82,146.76c2.93-.44,7.82,3.57,6.99,6.99,1.12,1.26,2.82,3.51,4,5l-2,1c-.55.42-1.21.09-2-1-3.34-3.35-8.03-7.61-10.99-10.99-2.32-2.64-4.02-5.14-5.99-7.99-.22-1.56.78-2.9,3-4,4.16-.07,6.83,7.58,6.99,10.99Z"/><path class="cls-76" d="M21.85,130.78c-.18-.31-.75-.59-1-1,.78-.67.02-2.7.18-2.84.41-.36,2.23-.21,2.82-1.15.57,2.33,2.77,4.41-2,5Z"/><path class="cls-134" d="M48.82,161.75l3.99-.99c.5,2.66-.64,2.03-2.99,1.99-.39-.23-.67-.8-1-1Z"/><path class="cls-134" d="M56.81,159.75c.59.73,1.78,2.62.5,2.99l-2.5-3.99c.43.43,1.69.62,2,1Z"/><path class="cls-46" d="M82.79,151.76c4.05-.2,2.09,2.81-1.39,2.8l-.61-.8c.63-.61,1.39-1.36,2-2Z"/><path class="cls-148" d="M102.77,91.82c-.87,26.49-13.08,47.24-30.97,65.94-4.39-2.16-7.71-2.18-7.49,2.99-3.65-1.09-1.82-3.03-2.75-4.72-.11-.2-2.48-2.26-3.34-3.19-1.66-1.81-1.87.39-3.41.92-1.61-1.8-4.74-3.81-6.99-6.99-1.61-4.36-1.33-6.63.84-6.82-3.38-4.52,3.37-7.52,5.15-3.17l1.12-2.16c7.95-.27,15.22-3.04,21.84-8.32.4-3.14,2.33-5.79,5.79-7.97.69-2.97,2.23-4.95,4.62-5.95.42-3.78,1.25-7.63,3.34-10.84l2.26.28c2.37-3.44,3.08-5.32,2.15-5.63-2.53-6.05,5.47-6.29,7.85-4.36Z"/><path class="cls-12" d="M22.85,81.83l1.27.51c.56,5.04,2.47,6.53,5.72,4.48l1.83,3.04c-.24,7.63.94,15.2,2.51,22.65l-1.34,3.29c-3,.41-5.33.07-6.99-1-.33.07-.95-.1-1,0l-2.16-1.13c-1.99-6.65-3.7-13.39-3.85-20.37l2.02-1.48c.19-2.45,1.43-7.26,2-9.99Z"/><path class="cls-106" d="M27.84,65.84c7.95,2.38,3.83,2.99,3.46,6.52-.1.97.6,2.02.53,2.47,1.62,1.89,2.05,11.45-2,11.99-.27,1.05-1.6,2.3-1,4-4.75-.13-6.65-4.85-5.99-9,.62-2.96.89-5.79,1.72-8.77.67-2.4,2.91-5.63,3.28-7.21Z"/><path class="cls-30" d="M18.85,78.83c.1,6.1,1.67,5.44,1.98,6.69.45,1.85-.21,4.32.02,6.3-.2,2.53.67,9.21,1.26,12.23.71,3.64,2.42,7.02,2.74,10.75-.26.55.18,2.13,0,2.99-2.44-.5-3.33-2.27-2.99,1-4.22-13.46-7.75-25.65-3-39.96Z"/><path class="cls-80" d="M58.81,47.86c1.96-1.19,2.12,2.98,2.98,1.99.13-.15.19-1.64,1.1-2.39,3.79-3.1,5.34-1.82,8.86-3.14,3.04-1.15,8.53-7.54,10.05-10.44h.98c-.33,3.62,1.14.96,2.01.99,3.21.1,11.68,21.3,12.99,24.98.45,1.85.82,3.48-1.12,4.35.92,6.62,1.02,13.13.29,19.51,2.74,3.05,2.05,6.04-2.08,8.97.95,3.74.69,5.67-2.09,9.12-3.81,4.79-3.47,12.52-4.01,12.96-.3.24-2-.35-2.71.24-.5.42-.94,3.23-1.94,4.55s-4.76,3.94-5.06,4.51c-.59,1.12.05,2.76-.44,3.51-.33.51-2.72.85-3.78,1.73-9.24,7.59-10.14,5.95-21.03,7.46l-1.39-1.92c-5.75-1.98-10.95-5.33-15.6-10.07-3.58-1.03-5.88-5.69-4-8.99-2.1-9.62-3.8-19.03-3-28.97.84-3.33,1.5-8.44,2-11.99h1c2.47,1.4,3.43,2.45,0,3.49,1.83,1.34,2.2,3.31,2.01,5.51,1.23.76,3.93-2.76,3.99-3,1.61-1.5,3.23-1.27,4,1,1,0,2,.04,3,0,.33-1.86-.48-10.44.05-10.95.17-.16,2.8,0,4.5-.98,1.28-.75,4.72-5.14,4.45-6.53l-3-1.52-1.07-2.19,5.74-11.4,2.32-.39Z"/><path class="cls-17" d="M102.77,91.82c-2.02-.8-1.94,2.03-2.58,2.03-1,0-3.64-1.64-4.41-1.02-1.95,1.54,1.9,2.14,2.01,2.61.96,4.04-2.41,3.1-5.01,6.37.35-3.05.84-8.84,1.81-11.57.58-1.63,2.12-1.6,2.2-1.94.69-2.98-1.88-2.24-2-3.09-.15-1.15.98-4.83.9-6.85-.08-2.24-1.51-15.93-.92-16.51s3.29,1.36,2.99-2c4.29,12.04,5.42,18.97,5,31.97Z"/><path class="cls-36" d="M58.81,47.86c-.94,2.6-5.44,11.25-6.99,13.99-1.29,2.26-3.44,6.45-6.3,5.89-8.53-2.13,5.37-26.28,10.84-26.91,4.69-.53,3.53,4.07,2.46,7.03Z"/><path class="cls-10" d="M42.83,81.83c-1.31,0-3.31.47-4-1,.46-1.91-.85-11.35,4.42-9.96,3.09.81,1.37,9.14-.43,10.96Z"/><path class="cls-115" d="M25.84,114.79c5.4-1.11,4.8-4.11,6.99,1,1.22,2.85,2.57,5.73,4,8.99,3.14,1.32,6.15,7.58,4,10.99l1.01,2.98-4,1.01c-4.99-7.2-10.66-16.22-11.99-24.98Z"/><path class="cls-27" d="M36.83,124.78h2.57s-.58.99-.58.99c4.75-.61,6.53,4.15,9.62,5.88,2.81,1.57,7.78.28,5.37,5.12-1.59.22-3.84-.13-3.99,0-1.89,1.68,2.03,2.21,2,2.48-.16,1.7-2.2,3.15-4.01,2.52-1.16,1.11,5.02,5.43,0,4.99-1.95-2.76-5.57-8.16-6.99-10.99-1.73-3.45-2.53-7.64-4-10.99Z"/><path class="cls-148" d="M43.82,129.77c-1.46,5.68,4.36,3.83,4.93,7.63.31,2.06-2.92.63-.93,3.36-1.83,1.64-3.65-5.14-4.12-6.16-.31-.67-5.22-4.68.12-4.83Z"/></g></svg>