<?xml version="1.0" encoding="UTF-8"?><svg id="_圖層_2" xmlns="http://www.w3.org/2000/svg" viewBox="0 0 128.78 92.36"><defs><style>.cls-1{fill:#677f60;}.cls-2{fill:#a8be64;}.cls-3{fill:#acbe65;}.cls-4{fill:#738668;}.cls-5{fill:#59774c;}.cls-6{fill:#738860;}.cls-7{fill:#a8b964;}.cls-8{fill:#a9bb64;}.cls-9{fill:#4b6445;}.cls-10{fill:#7f8c77;}.cls-11{fill:#70885d;}.cls-12{fill:#a6b861;}.cls-13{fill:#bacd88;}.cls-14{fill:#d4dfa5;}.cls-15{fill:#a7bc68;}.cls-16{fill:#5b7057;}.cls-17{fill:#6d8658;}.cls-18{fill:#7e9860;}.cls-19{fill:#6b8363;}.cls-20{fill:#728a6a;}.cls-21{fill:#a7b961;}.cls-22{fill:#82a26e;}.cls-23{fill:#50714c;}.cls-24{fill:#668261;}.cls-25{fill:#718864;}.cls-26{fill:#91a873;}.cls-27{fill:#718f54;}.cls-28{fill:#92ab62;}.cls-29{fill:#86a267;}.cls-30{fill:#749159;}.cls-31{fill:#5f7f53;}.cls-32{fill:#748b5e;}.cls-33{fill:#6b8164;}.cls-34{fill:#5c7a4b;}.cls-35{fill:#778f6a;}.cls-36{fill:#607950;}.cls-37{fill:#a3bb72;}.cls-38{fill:#637c53;}.cls-39{fill:#819e70;}.cls-40{fill:#688659;}.cls-41{fill:#67815d;}.cls-42{fill:#a5b863;}.cls-43{fill:#6c8566;}.cls-44{fill:#708765;}.cls-45{fill:#849e5b;}.cls-46{fill:#6f8767;}.cls-47{fill:#5e7653;}.cls-48{fill:#72865f;}.cls-49{fill:#718e5d;}.cls-50{fill:#aac06d;}.cls-51{fill:#607b52;}.cls-52{fill:#577049;}.cls-53{fill:#5e7258;}.cls-54{fill:#a7b962;}.cls-55{fill:#628251;}.cls-56{fill:#6e8656;}.cls-57{fill:#748969;}.cls-58{fill:#8ca565;}.cls-59{fill:#7c9e65;}.cls-60{fill:#708c5d;}.cls-61{fill:#778b5e;}.cls-62{fill:#6c8365;}.cls-63{fill:#a8b863;}.cls-64{fill:#abbf68;}.cls-65{fill:#68835c;}.cls-66{fill:#5b804d;}.cls-67{fill:#809d60;}.cls-68{fill:#658054;}.cls-69{fill:#c1cd89;}.cls-70{fill:#86a770;}.cls-71{fill:#5c7451;}.cls-72{fill:#859c61;}.cls-73{fill:#546c4e;}.cls-74{fill:#8fac61;}.cls-75{fill:#a5b75f;}.cls-76{fill:#849f71;}.cls-77{fill:#6d895d;}.cls-78{fill:#67845c;}.cls-79{fill:#547447;}.cls-80{fill:#c5d48d;}.cls-81{fill:#8fab6a;}.cls-82{fill:#597651;}.cls-83{fill:#728b62;}.cls-84{fill:#5a8147;}.cls-85{fill:#6c8c57;}.cls-86{fill:#728c67;}.cls-87{fill:#6c8565;}.cls-88{fill:#678164;}.cls-89{fill:#57764c;}.cls-90{fill:#71885e;}.cls-91{fill:#5b7657;}.cls-92{fill:#5d7c46;}.cls-93{fill:#82a46c;}.cls-94{fill:#708665;}.cls-95{fill:#98ab88;}.cls-96{fill:#9fb565;}.cls-97{fill:#88aa6f;}.cls-98{fill:#6a8a57;}.cls-99{fill:#5f7656;}.cls-100{fill:#718950;}.cls-101{fill:#97ac61;}.cls-102{fill:#769063;}.cls-103{fill:#6d8666;}.cls-104{fill:#687c61;}.cls-105{fill:#849e66;}.cls-106{fill:#a3b65f;}.cls-107{fill:#55754a;}.cls-108{fill:#a9ba67;}.cls-109{fill:#94af73;}.cls-110{fill:#7e9a62;}.cls-111{fill:#597151;}.cls-112{fill:#4b6746;}.cls-113{fill:#96ae67;}.cls-114{fill:#607c5e;}.cls-115{fill:#8caa6a;}.cls-116{fill:#b9cb81;}.cls-117{fill:#6d8263;}.cls-118{fill:#a6bb63;}.cls-119{fill:#5f7b52;}.cls-120{fill:#7d975a;}.cls-121{fill:#64815a;}.cls-122{fill:#657e5d;}.cls-123{fill:#596e54;}.cls-124{fill:#739066;}.cls-125{fill:#667b5e;}.cls-126{fill:#58754c;}.cls-127{fill:#4f6a4f;}.cls-128{fill:#6e8a5c;}.cls-129{fill:#7d9b60;}.cls-130{fill:#5b7256;}.cls-131{fill:#a7b864;}.cls-132{fill:#668355;}.cls-133{fill:#57734e;}.cls-134{fill:#aec065;}.cls-135{fill:#95b171;}.cls-136{fill:#6e865d;}.cls-137{fill:#5e7552;}.cls-138{fill:#63805d;}.cls-139{fill:#5d7947;}.cls-140{fill:#57774e;}.cls-141{fill:#a5b761;}.cls-142{fill:#bbca7c;}.cls-143{fill:#779461;}.cls-144{fill:#839977;}.cls-145{fill:#b0c47c;}.cls-146{fill:#708b5d;}.cls-147{fill:#647c55;}.cls-148{fill:#688652;}.cls-149{fill:#b8cc88;}.cls-150{fill:#5e7950;}.cls-151{fill:#abbc65;}.cls-152{fill:#a1b663;}.cls-153{fill:#64785e;}.cls-154{fill:#5f834c;}.cls-155{fill:#57774c;}.cls-156{fill:#688250;}.cls-157{fill:#708c5e;}.cls-158{fill:#697e62;}.cls-159{fill:#9aac82;}.cls-160{fill:#738c5d;}.cls-161{fill:#a4ba68;}.cls-162{fill:#768d65;}.cls-163{fill:#68865f;}.cls-164{fill:#8ca669;}.cls-165{fill:#b5c56f;}.cls-166{fill:#adc26c;}.cls-167{fill:#678555;}.cls-168{fill:#618250;}.cls-169{fill:#a8bd68;}.cls-170{fill:#748770;}.cls-171{fill:#5c7b4d;}.cls-172{fill:#759465;}.cls-173{fill:#7e9171;}.cls-174{fill:#7a9568;}.cls-175{fill:#6c8b5b;}.cls-176{fill:#5a7255;}.cls-177{fill:#98b677;}.cls-178{fill:#6c8456;}.cls-179{fill:#7b9062;}.cls-180{fill:#a8ba67;}.cls-181{fill:#87a069;}.cls-182{fill:#6c8468;}.cls-183{fill:#577548;}.cls-184{fill:#6c845b;}.cls-185{fill:#51684c;}.cls-186{fill:#bbc572;}.cls-187{fill:#a7ba65;}.cls-188{fill:#617757;}.cls-189{fill:#849f6f;}.cls-190{fill:#abbf6a;}.cls-191{fill:#68835b;}.cls-192{fill:#77915e;}.cls-193{fill:#728b5c;}.cls-194{fill:#667d57;}.cls-195{fill:#abbe68;}.cls-196{fill:#617b5c;}.cls-197{fill:#688564;}.cls-198{fill:#96b070;}.cls-199{fill:#95af77;}.cls-200{fill:#adbe6c;}.cls-201{fill:#a4ba76;}.cls-202{fill:#768f61;}.cls-203{fill:#719459;}.cls-204{fill:#6b815f;}.cls-205{fill:#53744f;}.cls-206{fill:#a5b865;}.cls-207{fill:#647d5f;}.cls-208{fill:#657e53;}.cls-209{fill:#4e6849;}.cls-210{fill:#8caa75;}.cls-211{fill:#67815b;}.cls-212{fill:#88a76d;}.cls-213{fill:#82a469;}.cls-214{fill:#6f8666;}.cls-215{fill:#c4d38d;}.cls-216{fill:#526a4d;}.cls-217{fill:#597249;}.cls-218{fill:#677d51;}.cls-219{fill:#b9cb78;}.cls-220{fill:#9eb766;}.cls-221{fill:#a6ba5e;}.cls-222{fill:#607a5b;}.cls-223{fill:#a8b967;}.cls-224{fill:#647260;}.cls-225{fill:#758b60;}.cls-226{fill:#728f60;}.cls-227{fill:#6a7e59;}.cls-228{fill:#819c63;}.cls-229{fill:#66825b;}.cls-230{fill:#9eb460;}.cls-231{fill:#5d7a54;}.cls-232{fill:#abbe6b;}.cls-233{fill:#6c8064;}</style></defs><g id="_圖層_1-2"><path class="cls-174" d="M28.66,23.79c.72.65,1.05,1.31,1,2,.2.92.03,1.81-1,2,1.72.45,1.69,1.21,0,2,.28,1.71.62,3.38,1,5,.87.28.86.62,0,1-1.35,2.04-3.6,1.59-3-1l-.95-1.12c1.75.42,2.08-2.72.95-3.88-1.61-2.23-1.86-6.96,1-6h1Z"/><path class="cls-157" d="M24.67,24.79c2.01,2.04-.02,4.17-3,5-.18.89-.52.86-1,0-.87-.28-.86-.62,0-1-1.11-.72-2.44-1.39-4-2-.78,2.33-1.78,2.33-3,0-.1.91-.45.86-1,0,.27-1.61,2.16-.96,3.5-1,1.5-.05,3.66-.23,5,0,.39.07.89,1.55,2.5,1,.14-1.11-.23-2.51,0-3.5.15-.67.97-.46,1-.5.93.28.67,1.44,0,2Z"/><path class="cls-36" d="M27.66,22.79c-.08.33.11.76,0,1-.02.05-.66-.22-1,.5-.2.42.13,1.45-1,2,1.65.83.63,2.71,1,3.5-.33,1.09-1,1.09-2,0-.21,1.52-1.02,1.19-2,0-.33.87-.67.87-1,0l.5-1c3.15.11,2.01-2.95,2.5-4l1-2c-.6-.3-.58-.63,0-1,.2-.06.8-.06,1,0l1,1Z"/><path class="cls-138" d="M25.67,22.79c-.28.87-.62.86-1,0,.17-.22-.33-.6,1-1v1Z"/><path class="cls-138" d="M27.66,22.79l-1-1c.57.18,1.13-.02,1,1Z"/><path class="cls-56" d="M127.64,46.78c-.01.33.04.67,0,1l-1,2c-.34,1.01-.59,1.88-1,3-.1.29.1.69,0,1-1.14,1.81-2.47,3.48-4,5-1.59,1.78-5.47,4.06-7.5,5-2.32,1.07-3.52,1.38-6,2-.4.1-.62.93-1,1-1.46.26-5.47.22-7,0-.37-.05-.61-.91-1-1-.91-.2-2.17.23-3,0-1.15-.31-3.67-2.55-4.5-3-.5-.3-.49-.64,0-1,2.58-.56,5.15-.55,7.69.03,3.13-.28,6.31.1,9.31.97-.17-2.59,1.31-2.77,3-1-.09-2.74,1.58-3.74,5-3,1.17-2.68,3.17-5.02,6-7-.56-2.43.11-3.76,2-4l1-1c-.65-.25-.62-.59,0-1,.28-.87.62-.86,1,0,.37-.13.71.2,1,1Z"/><path class="cls-147" d="M6.67,36.79c.88.19.85.53,0,1l-1,1c.87.29.86.63,0,1l-1,1c.86.33.86.66,0,1,.62.27.6.6,0,1-.74,2.45-1.07,6.48,0,9,2.08.31,2.39,1.39,1,3,1.45-.9,1.78-.23,1,2,2.92.01,4.18,3.14,2,5l2,2,1,1c.28-.87.62-.86,1,0,.87.28.86.62,0,1,.87.28.86.62,0,1-.95.8-2.38.02-3-1l-4-4s-.53.22-1-.5c-.14-.22.15-.74,0-1-.69-1.15-1.52-2.23-2-3.5-1.95-.2-2.58-.8-1-2-1.91.18-2.29-.61-.57-1.31-.28-3.11-.09-6,.57-8.68.65-3.51,1.51-6.16,3.7-9.3l1.3.3c.6.3.59.63,0,1Z"/><path class="cls-122" d="M99.65,9.8l-3,3h-1c-2.55,3.16-5.39,1.69-2-1-.65-2.74.21-3.72,3-3,.22-1.8-.45-2.47-2-2,.42,3.02-.98,2.82-3,1-1.4,1.32-1.92.77-1-1,.09-.07.88-1.54,1-2,.19-1.28.87-1.62,2-1,2-1.16,4.02-2.29,6-3.5.5-.99,1.93.74,2,1,.2.75.2,5.26,0,6-.04.15-1.46,1.73-2,2.5Z"/><path class="cls-207" d="M74.65,9.8c.87.34.87.67,0,1l-1,1c.87.29.86.63,0,1l-1,1c.85.25.83.59,0,1l-1,2c.86.18.82.52,0,1l2,1q1.25.84,0,0c-.86-.33-.86-.66,0-1l1-1c-.69-.25-.66-.59,0-1l1-1c-.87-.33-.87-.67,0-1,.85-1.39,1.85-2.05,3-2,.6.3.59.63,0,1,.72.26.7.59,0,1l-1,1c1.69.99.68,1.51-1,2l1,1c.66.29.64.63,0,1v1c1.88-1.06,2.39-.74,1,1-.38.4-1.05.73-2,1-2.15,1.52-3.82,1.52-5,0h-1c-.2.89-.54.86-1,0-.45-.39-.45-1.06,0-2-.17-.38-.08-2.26,0-3l1-2c.26-.56.14-2.2,1-4l1-1c.08-.33-.1-.73,0-1,2.17-2.77,3.29-2.54,2,1Z"/><path class="cls-191" d="M41.66,69.77l1,2c.74.26.71.59,0,1l1,2,1.77,2.3c2.15-.23,4.57,3.68,3.22,5.69,2.43-.4,3.1.27,2,2l1,1c2.89,1.27,4.89,2.6,6,4-.29.85-1.52.7-2,0-.26.67-.6.65-1,0-1.99-.76-3.65-1.76-5-3-.32-.15-.99.21-1.5,0-.33-.14-4.11-3.91-4.5-4.5-1.25-1.89-1.67-4.46-2-6.5l-1-3c0-.33,0-.67,0-1-.71-.76-.82-2.2,0-3,1.38-.91,1.83-.4,1,1Z"/><path class="cls-227" d="M117.64,23.79l3,2c1.32,1.14,2.94,2.03,4,3.5.15.21-.16.76,0,1,.46.68,1.86,1.53,2,2,.21.71-.24,2,0,2.5-.32,1.08-.98,1.08-2,0-2.93.87-6.79-6.03-8-9-2.75-1.65-3.57-2.83,0-2,.31-.48.64-.47,1,0Z"/><path class="cls-128" d="M102.65,17.8c1.6-1.4,3.19.29,2,2,.47,1.59-1.55,2.06-3,2,.99,1.33-.68,2.58-2,2-2.95,2.65-4.61,2.65-5,0-.41.09-.75-.25-1-1-2.68-1.13-1.3-2.96,1-1,.5-.19,1.16-.19,2,0,.38-.27,1.68-.75,2-1l2-2c.6-.36,1.32-.84,2-1Z"/><path class="cls-163" d="M92.65,16.8c.58.32.57.65,0,1-.18.57.16.9,1,1l1,1c.09.3-.07.68,0,1,.58.3.57.63,0,1-1.07-.04-.81.39-1,1,1.07,1.46.62,3.58-1,2-1.26,1.28-1.56.72-1-1-.3.58-.63.57-1,0-.86-.29-.85-.63,0-1-1.47-1.09-2.14-2.09-2-3-.67-1.19-.11-1.75,1-2,.47-2.12,1.14-2.46,2-1,.26-.9.6-.88,1,0Z"/><path class="cls-43" d="M76.65,2.8c3.05-3.15,4.24-1.35,5,2,.66.29.64.63,0,1l-1,3c.68,1.06.27,2.4-1,2-1.08.43-1.81.71-2-1-.86-.26-.84-.59,0-1l1-1c-1.6.16-1.01-1.01,0-2,.18-.87-.15-1.21-1-1,.56.28.54.61,0,1-.65.99-1.31,1.32-2,1-.88-.25-.86-.58,0-1-.42-.32-.41-.65,0-1l1-1c.16-.15-.16-.87,0-1Z"/><path class="cls-130" d="M71.65,22.79c3.41-.82,2.41.51-3,4l-1,1c-1.89,2.04-2.44,1.68-2-1-.6-.3-.59-.63,0-1,.07-.32-.09-.7,0-1l1-1c.1-.1-.28-.39,1-1,.42-.67,1.16-1.17,2-1,.28-.08.65.04,1,0,.6.1.99.34,1,1Z"/><path class="cls-6" d="M127.64,46.78c-.44-3.9-.86-7.65-1.93-11.49l.93-.51c.15.31,1.9,2.97,2,3.5.42,2.35-.29,5.5,0,8l-1,.5Z"/><path class="cls-192" d="M12.67,28.79c2.86-.11,3.86.55,3,2-.8,1.57-4.18,3.94-6,3,1.22,2.21-.23,3.21-2,1-.63-.92.03-2.25,2-4-.61-.3-.6-.63,0-1,.58-.12,1.35.06,2,0v-3c.33-.03.67.05,1,0,.97.33,1.05,1.53,0,2Z"/><path class="cls-225" d="M105.65,19.79c.19.61-.09,1.03,1,1,1.47,1.22.78,1.67-1,2,1.32,1.57.75,2.13-1,1,.07-.6-.6-.93-2-1l-1-1c.77-.78,1.69-1.59,3-2,.28-.87.62-.86,1,0Z"/><path class="cls-24" d="M91.65,7.8c2.15.81,1.82,1.48-1,2,.51,2.5-.14,2.7-2,1-1.34,1.31-1.8.74-1-1-.56-.28-.23-.95,1-2,.4-.27,1.71-.76,2-1l1,1Z"/><path class="cls-90" d="M113.64,21.79c.41.62,1.08.96,2,1,.28.13.74-.13,1,0,.44.31.43.64,0,1l-1,.5,1,1.5c-.3.6-.63.58-1,0-1.38,1.15-1.93.52-1-1l-1-1c-.31.85-.64.84-1,0l-1-1c-.25.66-.59.63-1,0-.87-.28-.86-.62,0-1,.35-.92,1.99-.39,3,0Z"/><path class="cls-87" d="M93.65,11.8l-1,2c1.26.28,1.93-.46,3-1,.2.51-.13,1.18-1,2-.21.16-.74-.15-1,0l-1,1c-.13.26.13.73,0,1-.32.07-.7-.09-1,0-.98-.12-1.64-.79-2-2-.87-.33-.87-.67,0-1,.21-1.96,1.07-2.46,3-2,.34-.49.67-.49,1,0Z"/><path class="cls-136" d="M7.67,34.79c.86.3.85.64,0,1-.3.64-.63.63-1,0-2.53,1.43-4.18,5.56-4,8.5l-1,.5c.01-.99-.05-2.01,0-3,.03-.66-.12-1.43,0-2l1-1,1-1c-.55-.29-.54-.62,0-1l1-1c-.55-.29-.53-.63,0-1l4-4c.3-.52.64-.51,1,0,.41,1.89-1.26,2.31-2,4Z"/><path class="cls-182" d="M75.65,6.8c.77.26.75.59,0,1,1.74,1.27,1.02,3.07-1,2v-2l-2,1c.25-.7.64-1.37,1-2l1-1h1c-.04.33.03.67,0,1Z"/><path class="cls-61" d="M109.64,20.79c.21.09.65-.02,1,0,.87.28.86.62,0,1v1c-.5.8-1.22.58-2,0-2.99-.54-1.54-3.45,1-2Z"/><path class="cls-19" d="M69.65,21.79c-.05.02.21.72-.5,1-.51.2-1.18-.15-1.5,0l1-2.5,1-.5c.02.05,1.04-.13,1,.5l-1,1.5Z"/><path class="cls-179" d="M109.64,20.79h-2l1,2c-.07,2.83-2.34,2.73-3,0,.3-.39.87-1.45,1-2,2.54-2.09,2.69-.14,3,0Z"/><path class="cls-202" d="M41.66,75.77h-1c.14-.91-.02-2.02,0-3l1,.5c.08.82-.13,1.72,0,2.5Z"/><path class="cls-179" d="M113.64,21.79c-.55-.26-2.11.16-3,0v-1c2.63.18,2.23.66,3,1Z"/><path class="cls-87" d="M93.65,17.8c.09.3-.09.69,0,1l-2,1c-.52-2.09.96-1.88,1-2,.3-.64.63-.63,1,0Z"/><path class="cls-214" d="M81.65,6.8c-.05.66.1,1.39,0,2h-1c.12-.79-.08-1.68,0-2.5l1-.5c0,.33.02.67,0,1Z"/><path class="cls-214" d="M81.65,2.8v2l-1-.5V1.8c-1.52-.2-2.8.07-4,1,1.61-3.25,3.18-2.54,5,0Z"/><path class="cls-11" d="M54.66,89.76c-.83,2.77-1.83,2.44-3-1h-1c-.13-1.01-1.06-1.13-1-2,1.48.72,2.99,1.76,4.5,2l.5,1Z"/><path class="cls-6" d="M126.64,49.78v-1.5l1-.5c-.3,2.5-.96,1.88-1,2Z"/><path class="cls-90" d="M120.64,25.79c-1.07-.74-2.98-.88-3-2,.3.18,1.09-.27,1.5,0,.85.57,1.37,1.89,1.5,2Z"/><path class="cls-61" d="M115.64,22.79h-1.5c-.66-.17-.45-.98-.5-1,.99.44,1.65.84,2,1Z"/><path class="cls-19" d="M69.65,16.8c.27-2.47.94-1.88,1-2v1.5l-1,.5Z"/><path class="cls-182" d="M75.65,4.8c.43-.5.57-.61,1-1,.18,1.16-.98.93-1,1Z"/><path class="cls-214" d="M75.65,5.8h-1c.61-.84.94-.93,1-1-.09.25.05.65,0,1Z"/><path class="cls-189" d="M73.65,6.8c.68-1.18.96-.94,1-1l-1,1Z"/><path class="cls-182" d="M71.65,10.8c.18-.37-.11-1.15,1-1-.15.67-.04,1.12-1,1Z"/><path class="cls-170" d="M96.65,12.8c.51-.38,1.54-3.01,3-3-1.15,1.63-1.67,1.82-3,3Z"/><path class="cls-144" d="M83.65,14.8c.17.85-.21,1.27-1,1-.25.9-.58.88-1,0v-1c1.14.16.85-.74,1-1h1c.58.3.57.63,0,1Z"/><path class="cls-61" d="M117.64,23.79h-1v-1c1.27.67.94.96,1,1Z"/><path class="cls-62" d="M65.66,24.79c.42-1.35.93-.93,1-1l-1,1Z"/><path class="cls-62" d="M65.66,26.79c-.27.85-.6.84-1,0,.17-.61,0-1.12,1-1v1Z"/><path class="cls-20" d="M64.66,27.79c-.3.5-.64.48-1,0-.11-.3.12-.73,0-1h1c.87.27.85.61,0,1Z"/><path class="cls-192" d="M4.67,34.79c.11-.34-.14-.8,0-1,.31-.44,3.04-1.57,3-3h1c-1.41,1.68-2.27,2.61-4,4Z"/><path class="cls-192" d="M3.67,36.79c.08-.32-.09-.7,0-1h1c-.38,1.33-.74.81-1,1Z"/><path class="cls-192" d="M2.67,38.79c.08-.32-.09-.7,0-1h1c-.38,1.33-.74.81-1,1Z"/><path class="cls-65" d="M9.67,65.77c-1.94-1.12-2.73-2.26-4-4l4,4Z"/><path class="cls-83" d="M12.67,66.77c2.05-.5,7.23,1.99,3,3-1.71.14-3.04-.66-4-2-.81-.39-1.38-1-2-1v-1c1.33.76,2.14.68,3,1Z"/><path class="cls-158" d="M37.66,8.8c.31.08.69-.08,1,0l1,1c1.62.82,4.04,1.83,5.5,3,2.47,1.98,4.29,4.93,6.5,7,2.01,1.84,1.62,3.16-1,2-.38,2.27-6.44,2.14-7,0-.87-.28-.86-.62,0-1l1.13-1.86c-2.19-1.41-3.57-3.12-4.12-5.14-1.65,1.78-5.31-1.09-4-3-.99-.68-1.32-1.35-1-2,.33-.65.67-.65,1,0,.2-.81.54-.77,1,0Z"/><path class="cls-196" d="M34.66,13.8c.3-.85.63-.85,1,0l1,1c1.31-1.48,2.41-.92,2,1,2.8.09,5.57.51,4,4l1,1v1l-1,1c-.29.66-.63.64-1,0-.89,1.1-1.56.1-2-3-.62.09-1.29-.25-2-1-.59-.29-1.5-.67-2-1l-2-2c-.98-.75-2.18-1.88-1-3,.38-.83,1.04-.5,2,1Z"/><path class="cls-224" d="M33.66,5.8l1,1c.23.15.77-.15,1,0,.98.66,1.32,1.33,1,2-.32-.07-.69.08-1,0-1.88-.71-2.88.62-3,4-.92,1-1.59-.33-2-4-.03-1.33.02-2.67,0-4h2.5c.68.17.46.97.5,1Z"/><path class="cls-117" d="M37.66,24.79c.33-.63.67-.63,1,0,1.23.79.21,1.5-1,2l-1,1c-2.31,2.72-3.98,3.39-5,2-1.51.33-2.4-.79-1-2-.34-1.27.32-1.61,2-1,.3-.12.77.14,1,0l2-2c.18-.13.65.09,1,0h1Z"/><path class="cls-10" d="M55.66,22.79c1.1,1.08,1.98,1.76,3,3-.74,1.56-1.82,1.24-3,0-.18.7-.51,1.03-1,1-.28.87-.62.86-1,0-.58-.3-.57-.63,0-1l-.25-1.5c-2.87-.29-3.79-1.12-2.74-2.5h2l-1-2c.98.92,3.06,2.08,4,3Z"/><path class="cls-57" d="M41.66,22.79c.87.28.86.62,0,1l-2,1c-.19.89-.52.86-1,0-.33.02-.67-.04-1,0,.29-1.01.95-2.01,2-3,.11-.26-.08-.67,0-1v-1c.24.11.83-.18,1,.5l1,2.5Z"/><path class="cls-33" d="M35.66,8.8c.07.75.63,1.16,1,2-.8.9-1.46,1.9-2,3-.82-.37-1.26-.92-2-1-.17,1.04.32,2.18,1,3-.15-.16-1.49-.63-2-1.5-.13-.22.14-.69,0-1-.19-.43-.92-.64-1-1-.21-.91.03-2.4,0-3.5l1,.5v3.5h1v-5c1.44-.45,1.83.72,3,1Z"/><path class="cls-33" d="M34.66,6.8l-1-1c.85.64.94.96,1,1Z"/><path class="cls-33" d="M37.66,8.8c-.31-.08-.68.07-1,0l-1-2c.71.47,2.02.8,2,2Z"/><path class="cls-33" d="M39.66,9.8l-1-1c1.38.37.94.97,1,1Z"/><path class="cls-228" d="M29.66,35.79c.68-.67,1.4-.74,2,0,.99,1.07.49,2.89-1,3-.24.86-.57.83-1,0-2.96.39-5.62,1.39-8,3-.39,1.03-1.67,1.22-2,0-.87-.34-.87-.67,0-1,1.17-2.14,2.17-3.14,3-3,1.14-3.02,2.48-4.02,4-3,1.23.77,1.67.82,3,1Z"/><path class="cls-226" d="M26.66,34.79c-.1.23.18.75-.5,1-1.82-.31-1.64.24-1.5,2-.65.05-1.39-.1-2,0-.71-.28-.71-.95,0-2-2.64-.57-2.58-1.27,0-2-.9-.24-.87-.58,0-1l1-1c.33-.87.66-.87,1,0l2-2c.02.05.83-.18,1,.5.48,1.97-.34,2.98-1,4.5Z"/><path class="cls-77" d="M36.66,33.79c0,3.02-1.44,3.49-4,2-.18.9-.52.87-1,0-.65,0-1.36.08-2,0v-1c-.14-1.7.83-1.54,2-1-.03-.7.97-1.03,3-1,1.24-5.08,5.93-.82,2,1Z"/><path class="cls-185" d="M30.66,27.79c.37.9,1,1.31,1,2-.71,1.15-1.38,1.48-2,1l-1-1c0-.66-.04-1.34,0-2,.29-1.34,1.14-1.11,2,0Z"/><path class="cls-222" d="M29.66,30.79c.82.33.82.66,0,1,1.4.76,1.48,2.47,0,3-.42-.07-.85.11-1-.5v-4.5c.88-.1.91.25,1,1Z"/><path class="cls-222" d="M30.66,27.79c-.66.05-1.34-.02-2,0,.03-.49-.04-1,0-1.5l1-.5c.31.75.69,1.25,1,2Z"/><path class="cls-137" d="M16.67,26.79c1.66.35,1.99,1.02,1,2,.77.26,1.1.6,1,1,2.23,1.6-.3,2.33-2,1-.31.84-.64.84-1,0l-2.5-1c-.62-.16-.43-.59-.5-1l1-2c.98-.04,2.02-.06,3,0Z"/><path class="cls-231" d="M20.67,28.79c-.26.84-2.24.73-3,0-.03-.05-.84.16-1-.5v-1.5c2.11.13,3.66-.58,5,1.5l-1,.5Z"/><path class="cls-9" d="M13.67,26.79l1,2h-2c-.1-.56-.1-1.44,0-2,.32-.04.67.01,1,0Z"/><path class="cls-79" d="M24.67,24.79v-2h1c.52,2.07-.94,1.88-1,2Z"/><path class="cls-133" d="M26.66,29.79c.34.72-.22,2.88,0,4-1.16.22-1.88-1.92-2-2-1.02-.44-1.27-1.73,0-2v-2h1c-.52,2.07.94,1.88,1,2Z"/><path class="cls-208" d="M86.65,57.78c2.31,2.02,2.64,3.35,1,4l1,1c.31,1.6.65,3.26,1,5,.15,6.13-.77,9.56-4,14.49-.16.66-.95.44-1,.5l-3,3c-.3.5-.64.49-1,0-.88-.19-.84-.53,0-1-.62-.33-.62-.67,0-1l2-2c-2.13-1.48.29-3.97,2-5-.96-.67-.63-1.67,1-3-1.82-1.43-1.48-2.1,1-2-.85-.31-.85-.65,0-1-.88-.25-.86-.59,0-1-.5-.81-.16-1.81,1-3-.25-.93-.58-1.93-1-3-.73-.63-.74-1.34,0-2l-1-1c-.87-.33-.87-.67,0-1l-1-1c-.9-.26-.88-.6,0-1v-1c.93-.36,1.54.14,2,1Z"/><path class="cls-100" d="M54.66,86.76c.18-.45.39-.86.71-1.15.48-.44,7.05,1.66,7.75,2.28,3.65-1.7,6.16-1.41,7.54.87l2-1c.24-.89.58-.87,1,0,1.16.83.31,1.65-1,2l-2,1c-.26.2-.44-.28-1,1-2.81.83-6.17.77-9,0-.66.02-1.4-.1-2,0-1.48.04-1.81-.3-1-1-.87-.28-.86-.62,0-1l-.5-1c-2.62.2-4-1.13-5.5-3,.07-1.31,1.07-.98,3,1Z"/><path class="cls-178" d="M80.65,84.77c-.08.31.06.68,0,1,.6.3.59.63,0,1-.32.09-.73-.11-1,0-1.48,1.26-3.14,2.26-5,3-.31.06-.66-.03-1,0-.28.54-.61.51-1,0,.13-.56.7-1.6,1-2,.26-.49.6-.45,1,0l1-1,3-2c.28-.87.62-.86,1,0,.3-.6.63-.58,1,0Z"/><path class="cls-17" d="M91.65,60.78c.87.28.86.62,0,1v1c-1.05-.56-1.75-1.27-3-1-.3.6-.63.59-1,0-.31-1.88-.46-2.31-1-4,1.77-1.49,5.23.22,5,3Z"/><path class="cls-17" d="M89.65,67.77l-1-.5v-4.5c.25.11.84-.18,1,.5.02,1.5-.04,3.01,0,4.5Z"/><path class="cls-160" d="M72.65,89.76c.32-.05.67.02,1,0l-.5,1h-2.5c.74-.58-.09-.66,2-1Z"/><path class="cls-11" d="M57.66,89.76v1c-.31-.07-.68.05-1,0h-1v-1h2Z"/><path class="cls-160" d="M74.65,89.76l.5-1c1.55-.16,2.96-1.39,4.5-2-.65,2.09-3.18,2.67-5,3Z"/><path class="cls-218" d="M88.65,62.77c-.53-.23-.8.2-1-1h1v1Z"/><path class="cls-178" d="M81.65,85.76c.79-.99,1.46-2.73,3-3-.79.96-1.45,2.74-3,3Z"/><path class="cls-160" d="M80.65,86.76v-1h1c-.14.18.34.62-1,1Z"/><path class="cls-32" d="M15.67,66.77c.28-.68.62-.66,1,0,.9-.47,1.51.09,2,1,2.38-.4,3.71-.06,4,1,3.27-.48,6.65-1.05,10.15-1.71l1.85,1.71,1-1,1-1c.27-.89.6-.87,1,0l1-1c.33-.87.66-.87,1,0,1.21.06,1.84.8,2,2,.29-.66.63-.64,1,0,.79.49.55,1.22,0,2-.28.87-.62.86-1,0-.18-.57.02-1.13-1-1-.25.88-.58.86-1,0-.36.05-.77-.1-1,0l-4,2c-1.68.67-3.38,1.22-5,2-1.93.65-5.31,1-7,0-.35.02-.76-.08-1,0l-1.45-.45c-1.01,1.78-1.86,1.27-2.55-1.55l-1-1c-.33.6-.67.6-1,0v-2c-1.34.37-1.86-.58-3-1v-1c1.67-.94,3.75-1.61,3,1Z"/><path class="cls-202" d="M40.66,71.77l-1-.5v-2.5c.33-.04.67.03,1,0v3Z"/><path class="cls-202" d="M38.66,68.77c-.05.02.2.73-.5,1-1.03.39-2.68.67-3.5,1l.5-1c.95.32,1.39-.32,2-1h1.5Z"/><path class="cls-83" d="M17.67,70.77c-.19-.15-.68.12-1,0v-1c1.33.61.94.96,1,1Z"/><path class="cls-75" d="M105.65,51.78c2.96-1.3,5.78-3.1,2.5-5.31,6.49-9.92,12.23-1.66,11.5,6.31,2.71.93-.95,3.69-3.27,4.56l.27,1.44s.22.53-.5,1-3.22,1.4-4.5,2c-2.02.33-5.65-2.14-5-4-1.16-.23-1.83-.9-2-2-2.44-1.4-1.68-2.54,1-2-.58-.3-.57-.63,0-1-.86-.32-.86-.65,0-1Z"/><path class="cls-64" d="M124.64,34.79c1.58-.16,1.52,1.49,0,2l1,2c.9.18.87.52,0,1,.88,1.87.74,4.16,0,6-.01.34.06.71,0,1-.3.64-.63.63-1,0-1.16-1.62-2.49-2.96-4-4-.28.87-.62.86-1,0-.25.87-.58.85-1,0-1.64.43-1.97.09-1-1-1.86-1.4-4-2.39-6.95-1.21-2.46-.14-3.64-1.68-2.05-3.79-1.3-2.41-.47-3.05,2-2,.39-.55,1.06-.55,2,0,1.72-1.62,2.09.41,2,2,.61-1.13,1.61-1.13,3,0,.78-1,.75-1.97,0-3-.65-.34-.65-.67,0-1-.87-.34-1.36-1.13-1-2-.86-.33-.86-.67,0-1-2.28-.97-2.62-2.3-1-4h1c1.83,1.34,4.78,3.71,6,5.5.35.52,1.92,3.3,2,3.5Z"/><path class="cls-108" d="M88.65,54.78c-.08-.73-.12-1.31,0-1.34,3.72-1.04,12.84,2.79,15.54,5.4,2.47-.21,6.55,1.2,4.46,3.94-.05.02.18.83-.5,1-2.36.58-6.35-.41-9,0l-7.5-2v-1c.03-2.16,2.72-.99,3.88,0,.2.17-2.35-.34-3.17-.77-1.32-.69-2.49-3.95-.7-2.49.89.72-5.79,1.06-3.02-2.74Z"/><path class="cls-190" d="M120.64,42.78c.06-.12,1.52.07,1-2l-2-2,4-1c.13,1.12-.21,2.47,0,3.5.08.39.94.63,1,1,.19,1.29.04,3.1,0,4.5.68.15.62.5,0,1-.27,1.86-.53,1.52-1,2.5-.14.29.13.77,0,1-.41.72-.97.45-1,.5-1.86,1.4-2.43.8-1-1-.91-.23-.89-.56,0-1-1.07-2.35-1.4-4.68-1-7Z"/><path class="cls-8" d="M122.64,51.78c-2.05,3.43-2.56,4.48-6,7-4.29.38-1-3.7,1-3v-2l2,1v-2c-1.37-2.49-.5-3.32,2-2,.14.68.05,1.11,1,1Z"/><path class="cls-63" d="M104.65,44.78c.61-4.42,3.92-3.61,3.6.59,3.23.68.96,8.63-2.6,6.41-.15.25.16.8,0,1-.48.39-.48.72,0,1l-1,2c-.92.52-.25,1.18,2,2,.4.2,1.24,1.78,3.5,1l1.5,3c-1.25.59-2.23.7-3,1l-2-2.5-.5.5c-.6-.45-2.82-2-3-2-.34,0-.67,1-1,1-.2,0-1.69-1.76-3.5-1v-2c-1.52-.55-2.29,1-2.5,1-.2,0-1.69-1.76-3.5-1v-2.5l-4,.5c-1.57,1.17-2.66-.17-2-2-1.42-3.78,1.76-4.6,5-2l.83-.98c-1.43-2.57-.83-4.79,2.17-4.02,2.25-.31,4.59-.64,7-1,.49-1.99,1.49-1.99,3,0Z"/><path class="cls-217" d="M126.64,34.79c.3.64-.2,2.46,0,3.5.08.39.95.63,1,1,.27,2.13.1,5.25,0,7.5-.94.05-.88-.24-1-1-.29-1.95-.62-3.95-1-6,0-.33.02-.67,0-1l-1-2c-.1-.63.16-1.56,0-2v-2h1c-.52,2.07.94,1.88,1,2Z"/><path class="cls-6" d="M126.64,45.78h-1c.09-1.97.06-4.03,0-6l1,.5c.18,1.77-.26,3.83,0,5.5Z"/><path class="cls-6" d="M124.64,47.78c.05-.32,0-.67,0-1h1c-.14.68-.05,1.11-1,1Z"/><path class="cls-151" d="M26.66,40.78c2.39.88,5.2,4.91,4,7,1.08,1.33,2.75,2.66,5,4,1.36,3.96-3.35,6.21-6.76,6.82-1.54,2.02-3.16,3.74-4.85,5.17.46,3.47-1.33,4.81-5.38,4l-2-1c-.19.06-.81.06-1,0l-3-2h-1l-1-1v-1c-4.15-4.69,2.15-8.12,6-4l2-3-.18-2.14c2.69-.7,2.77-2.88,2.79-5.48-2.28-1.54-1.03-4.54,1.39-5.37-.19-1.6,1.78-3.49,3-2h1Z"/><path class="cls-54" d="M16.67,41.78c1.33-.14,1.96.57,2,2,.82-.87,1.79-1.81,3-1,.22-.91.56-.88,1,0l-1,7h2l-1,4-4,2-1.15-.71c1.14,1.24.59,3.13-.85,3.71l-1.5,1c-2.79-2.45-4.73-.52-4.5,3-.51.31-1.18-.03-2-1-1.08-1.8-1.37-3.64-2-5-.49-2.85,2.3-4.02,5-4,1.4-1.32,1.92-.77,1,1-.84,1.12,1.64,1.27,2-1-1.36.27-1.64-.69-.83-2.89l-1.17-1.11c-.86-.33-.86-.67,0-1l2-5c-.75-2.67.8-4.17,2-1Z"/><path class="cls-220" d="M9.67,33.79c4.09-3.39,4.96,4.03,1,5,.86.25.84.59,0,1,.24,3.34-.76,5.01-3,5-.28.87-.62.86-1,0-.84-.25-1.51-1.25-2-3,.05-.33-.07-.69,0-1l1-1c.1-.26-.08-.66,0-1l1-1c.07-.31-.05-.68,0-1l1-1c.08-.34-.11-.75,0-1,.46-.11,1.86-.86,2-1Z"/><path class="cls-152" d="M6.67,44.78c.62,1.32.77,3.02.45,5.11,1.81,2.74,1.9,5.4-1.45,4.88-.58-1.31-.7-2.35-1-3-.96-2.72-.76-6.24,0-9,.02-.33-.05-.68,0-1,1.84.43,1.85,1.54,2,3Z"/><path class="cls-223" d="M12.67,64.77h2l-1-3h2l1,2.5-1,2.5c-.67-.23-1.1-.38-1.5-1h-1.5v-1Z"/><path class="cls-136" d="M4.67,51.78c-.02-.05-.83.18-1-.5-.52-2.11.36-5.63,0-8l1-.5c-.17,2.97.12,6.02,0,9Z"/><path class="cls-131" d="M8.67,51.78h2c.76-1.58,1.42-1.91,2-1,1.56,1.13.8,2.28-1,2-1.13,1.12-4.5,1.47-5,4-.17-.37-.56-1-1-2,1.46-.33,2.3-1.61,2-3l-2,.5c1.47-1.43,1.24-5.23,1-7.5h1l1.91,1.17c-1.43,2.04-1.73,3.98-.91,5.82Z"/><path class="cls-192" d="M6.67,36.79v-1h1c-.15.66-.04,1.12-1,1Z"/><path class="cls-192" d="M5.67,38.79c.15-.66.04-1.12,1-1-.15.66-.04,1.12-1,1Z"/><path class="cls-136" d="M4.67,40.78l1-1c-.55,1.37-.98.93-1,1Z"/><path class="cls-65" d="M10.67,62.77c.02.35-.09.79,0,1-.97-.77-1.16-.61-2-2l2,1Z"/><path class="cls-83" d="M11.67,64.77c-1.14.18-.94-.96-1-1,.03.06,1.18-.16,1,1Z"/><path class="cls-93" d="M96.65,8.8c-1.13,1.58-1.48,1.85-3,3-.21.16-.77-.16-1,0-.25-1.18-.91-1.85-2-2,.11-.41.9-1.95,1-2,.55-.25,1.86-.04,3-1,1.91-2.17,3.44-.37,2,2Z"/><path class="cls-59" d="M96.65,8.8l-2-2c.95-.8,1.91-2.71,4-3-.11.81.19,1.83,0,2.5s-1.77,2.17-2,2.5Z"/><path class="cls-189" d="M78.65,5.8c.11.49.11,1.51,0,2l-1,1c-.09.32.1.72,0,1,.85.25.83.58,0,1l-1,1c.25.64-.08,1.31-1,2-.12.28.12.72,0,1l-1,1c-.11.27.1.68,0,1-.3.56-.63.54-1,0-1.11.45-1.55.06-1-1-.66-.31-.66-.64,0-1,.08-.32-.11-.73,0-1l1-1c.1-.26-.08-.66,0-1l1-1c.12-.28-.12-.71,0-1,.05-.12.62.43,1-2l2-2c.11-.24-.08-.66,0-1,1.4-.92,1.86-.39,1,1Z"/><path class="cls-53" d="M79.65,16.8c.88-.38,1.88-.38,3,0,.28-.89.61-.88,1,0,3.1-1.58,4.51.36,1,2-1.39.99-2.73,1.32-4,1-.17.93-1.16,1.21-2,1,.15-1.09-.57-.82-1-1-.64-.29-.63-.63,0-1,.21-.69.55-.65,1,0v-1c-.29.65-.62.64-1,0-.64-.3-.63-.63,0-1,.09-1.63,1.06-1.17,2,0Z"/><path class="cls-19" d="M76.65,21.79c.42,4-4.25,5.37-8,5,.54-1.07,1.28-1.74,1-3,.23-.28,1.8,1.95,3-.5l-1-.5v-1c2.34.51,2.28.17,5,0Z"/><path class="cls-1" d="M79.65,10.8c-.11.29.12.72,0,1-.3.64-.63.62-1,0l-3,2c.3-.68.65-1.36,1-2l1-1c.06-.35-.09-.73,0-1h1.5l.5,1Z"/><path class="cls-1" d="M80.65,20.79c.27,2.63-.06,2.79-2,1-1.08,1.72-1.75,1.72-2,0,.72-1.64,1.03-.63,2-1,.6-.23,1.54-.67,2-1,.87.28.86.62,0,1Z"/><path class="cls-199" d="M73.65,16.8c.58.3.57.63,0,1-.59.79-1.31.75-2,0-.07-.27-.03-.71,0-1,.13-.65.23-1.09,1-1,.03.06,1.18-.15,1,1Z"/><path class="cls-197" d="M73.65,18.79c.6.11,1.35-.05,2,0v1l-4,1v-1h1.5c.65-.2.41-.63.5-1Z"/><path class="cls-19" d="M73.65,17.8c-.06.32.08.69,0,1-.47-.09-1.05.17-1.5,0-.65-.2-.41-.63-.5-1,.65-.07,1.46.14,2,0Z"/><path class="cls-19" d="M72.65,15.8l-1,1c.04-.49-.05-1,0-1.5l1-.5c.08.33-.12.77,0,1Z"/><path class="cls-182" d="M73.65,11.8c.15-.66.04-1.12,1-1-.18.43.09,1.15-1,1Z"/><path class="cls-43" d="M78.65,12.8v-1h1c-.18.43.09,1.15-1,1Z"/><path class="cls-1" d="M72.65,13.8l1-1c-.54,1.37-.97.93-1,1Z"/><path class="cls-1" d="M78.65,14.8h-1c.16-.29-.14-1.16,1-1,.05.32-.04.67,0,1Z"/><path class="cls-1" d="M74.65,15.8c.57-1.36.97-.93,1-1l-1,1Z"/><path class="cls-1" d="M73.65,17.8v-1h1c-.25.81-.03.76-1,1Z"/><path class="cls-158" d="M77.65,17.8c-.59-.17-1.13,0-1-1h1v1Z"/><path class="cls-94" d="M78.65,18.79c-.31.07-.68-.05-1,0,.11-.27-.08-.68,0-1,.3.09.68-.08,1,0,.64.29.63.63,0,1Z"/><path class="cls-1" d="M77.65,19.79c-.28-.12-.81.18-1-.5,0-.64.98-.45,1-.5v1Z"/><path class="cls-73" d="M71.65,22.79l-1-1c.28-.04.73-.06,1,0v1Z"/><path class="cls-7" d="M53.66,67.77c1.93.37,1.48.88,0,2,.9,1.3,2.08,2.98,3.53,5.03,5.2-1.59,10.05-2.27,14.93.13,2.84-1.54,9.53.91,7.53,4.84,2.01,3.95-4.39,6.86-6.6,1.66,2.99,3.53-7.88,6.9-11.25,6.39-4.19-2.99-6.57-3.34-7.15-1.06-1.22-.47-1.77-.67-3-1l-1-1c-.84-.77-1.23-1.14-2-2-.29-4.2-.04-6.34,2.69-9.52l-.69-.47-1,1c1.47,1.37.83,1.99-1,1l-1,1c-.34.91-.67.91-1,0h-1c-.94.86-1.26.28-1-1-.76-.76-1.65-2.29-1-3,.4-1.69,1.06-2.02,2-1,.25-.66.59-.64,1,0,1.01.71,2.04.73,3,0-1.76-1.03-.88-1.77,1-2,.56-2.63,1.98-3.75,3-1Z"/><path class="cls-42" d="M50.66,72.77c.08-.08.06-.27,0-.5l2,1.5-1.5,1c1.84,1.46-1.5,2.94-1.5,3.5.54.34,1.09,1.38,1.5,1.5,1.2.34,3.69-.96,3.5,1l-6,2c-2.11-2.34-3.83-4.67-5-8,.28-.87.62-.86,1,0,.58,1.3.92.92,1,1h1c.06.05.93.05,1,0l1-1c.51-.43.58-.51,1-1l1-1Z"/><path class="cls-206" d="M43.66,71.77c.03.24.9,2.77,1,3h-1l-1-2c-.04-.32.02-.67,0-1-.83-.53-.61-1.25,0-2-.01-.66-.05-1.35,0-2-.7-.14-.64-.49,0-1-.68-.23-.64-.56,0-1,.3-.55.64-.53,1,0,1.93.88,1.78,4.88,0,6Z"/><path class="cls-202" d="M43.66,74.77l-1-.5c-.16-.42.07-1,0-1.5l1,.5c.14.53-.13,1.13,0,1.5Z"/><path class="cls-202" d="M42.66,71.77l-1-.5c-.13-.52.12-1.11,0-1.5h1c.01.66-.04,1.34,0,2Z"/><path class="cls-11" d="M51.66,85.76c-.62-.17-1.12-.01-1-1,.38.35.5.38,1,1Z"/><path class="cls-194" d="M94.65,23.79c1.53.69,2.53,1.69,3,3,.65.33.65.67,0,1,.18.55.18,1.22,0,2,.45,1.09-.22,2.09-2,3,1.12.93,1.42,1.41,0,2-1.06,1.19-1.83.45-2-1-.84-.23-.81-.57,0-1-2.02.3-2.03-1.68-1-3,.25-.87.58-.85,1,0,.91-.1.61-1.36,0-2-.31.85-.65.84-1,0-.33.59-.67.59-1,0-.14.7-.49.65-1,0-.87-.28-.86-.62,0-1,.25-2.43,3.77-.63,1.38-.54-.51.02-.29-.89.62-1.46,1.51.08.76-1.22,1-2,.87-.1.92.24,1,1Z"/><path class="cls-71" d="M99.65,23.79c.87.28.86.62,0,1l-1,1c-.19.78-.53,1.11-1,1h-3c-.06-.99.1-2.02,0-3,2.3,1.66,2.78.96,4.5-1l.5,1Z"/><path class="cls-164" d="M102.65,22.79c.87.28.86.62,0,1,1.04,2.6-.15,3.03-2,1-.28.87-.62.86-1,0v-1c.95-.28,1.23-1.22,2-2l1,1Z"/><path class="cls-87" d="M89.65,17.8c-.04.49.04,1,0,1.5l-1,.5c-1.74.29-3.74.62-6,1-.66.03-1.44-.12-2,0v-1c1.82-1.29,1.66-.8,4-1,1.31-1.89,2.31-2.22,3-1,.29-.57.63-.56,1,0,.27-.88.61-.87,1,0Z"/><path class="cls-119" d="M92.65,24.79l1,2h-3c-.87-.28-.86-.62,0-1-.69-.14-.63-.49,0-1l1-1,1,1Z"/><path class="cls-99" d="M89.65,14.8c.66-.05,1.34.02,2,0v2c-.85.27-1.14.72-2,1-2.55-.73-2.55-1.73,0-3Z"/><path class="cls-214" d="M77.65,4.8l.5-1h1.5v1.5l-1,.5c-.15-.66-.04-1.12-1-1Z"/><path class="cls-214" d="M75.65,7.8c.05-.32-.03-.67,0-1l2-1c-.42.88-.87,1.95-2,2Z"/><path class="cls-214" d="M77.65,8.8l1-1c-.32,1.38-.98.93-1,1Z"/><path class="cls-114" d="M67.65,27.79c.5.29.48.63,0,1l-1,1c-.76,1.32-1.43,2.66-2,4,.66.32.66.65,0,1,.87.33.87.66,0,1-.1.69-.2,1.12-1,1-2.57,3.86-3.83-2.93-1-5-.58-.84-.02-1.06,1-1v-1c-.68-.26-.65-.6,0-1l1-1c.09-.3-.09-.69,0-1,.32.07.7-.09,1,0,.99.3,1.2.98,2,1Z"/><path class="cls-62" d="M67.65,27.79c.45-1.38.97-.94,1-1,1.26.07.15,1.3-1,1Z"/><path class="cls-50" d="M15.67,30.79c.35.02.73-.07,1,0,2.38.06,3.71.73,4,2l2,1c.11.62-.17,1.65,0,2,.17.98-.95,1.96-2,2-1.09,3.11-2.43,4.45-4,4-.42.25-2.12-.57-2,1-.28.87-.62.86-1,0-.82-.23-.79-.57,0-1-1.12-.86-2.12-1.86-3-3,0-1.77-.04-2.48,1-4l-2-1c2.48-2.42,1.34-3.31,6-3Z"/><path class="cls-161" d="M108.64,22.79c.66,0,1.34-.04,2,0,.34.02.71-.06,1,0,.64.3.63.63,0,1-.23,1.21-1.1,1.83-1.5,1.12-1.14-1.99,4.42.6.5,2.88-.28.87-.62.86-1,0-1.67-.15-2.67-.48-3-1-2.51,2.93-7.91-.17-2-3,.88-.55.65-.54,1-1h3Z"/><path class="cls-91" d="M104.65,23.79c-2.15,3.28-2.82,3.28-2,0v-1l2-1c-.07.64.14,1.48,0,2Z"/><path class="cls-177" d="M102.65,22.79l-1-1,1,1Z"/><path class="cls-70" d="M92.65,11.8c-.1.07-.7,1.72-1.5,2h-1.5c-1.49,1.58-3.84,1.04-2-1-1.29-.92-.46-1.95,1-2,.18-.17,1.53-.78,2-1,.5-.23,1.15-.32,1.5-1l1.5,1.5-1,1.5Z"/><path class="cls-124" d="M88.65,10.8c-.09.09-.9,1.56-1,2-.25.85-.58.83-1,0-1.59.68-1.67.45-1-1,.61-.61,1.47-1.43,2-2l1,1Z"/><path class="cls-166" d="M111.64,23.79c.14-.68.49-.63,1,0,.35.04.73-.08,1,0l1,1c.09.09.4-.28,1,1,.36.77.98,1.41,1,1.5.17.75-.18,1.77,0,2.5-1.42.29-2.75.29-4,0-.75.55-1.42.55-2,0-2.12-.09-2.05-1.52,0-2-.33-2.18-.92-2.17-2-4,.99-.02,2.01.04,3,0Z"/><path class="cls-179" d="M112.64,23.79c-.32-.03-.68-.01-1,0v-1c.68.14,1.11.05,1,1Z"/><path class="cls-61" d="M114.64,24.79l-1-1c1.35.39.93.93,1,1Z"/><path class="cls-22" d="M89.65,13.8c.02.33-.03.67,0,1,.09,1.99-3.58,2.9-4,1-1.86-.05-1.21-3.39,1-3,.19.16.77-.16,1,0,.11.07-.01,1.55,2,1Z"/><path class="cls-158" d="M81.65,15.8c.34-.06.72.09,1,0,.79.29.78.62,0,1-.05.03.18.83-.5,1-1.15.37-1.39-.79-2.5-1v-1c.51.11,1.45.09,2,0Z"/><path class="cls-86" d="M86.65,12.8l-1,1.5v1.5l-2,1c-.24.15-.76-.15-1,0v-1c.07-.02-.36-.42,1-1v-1c-.15-1.22,1.65-1.65,2-2,1.14-.18.95.95,1,1Z"/><path class="cls-41" d="M83.65,14.8v-1l1,.5c0,.66-.74.39-1,.5Z"/><path class="cls-62" d="M63.66,28.79c-.08-.33.1-.73,0-1h1c-.33,1.09-.35.72-1,1Z"/><path class="cls-104" d="M50.66,21.79c.42.2.44,2.06,3,0l1,3.5-1,.5c-.3.63-.63.62-1,0l-1-1c-1.57.75-3.43.74-5,0-1,.74-2.04.73-3,0l-2-1v-1h1l1-1c1.14-.13,6.52-.22,7,0Z"/><path class="cls-213" d="M40.66,13.8c.72.47,2.3.86,2.5,1,1.86,1.26,3.61,4.04,5.5,5.5-.63.81-4.45.72-5,.5l-1-1-4-4c.16-1.21.81-1.88,2-2Z"/><path class="cls-212" d="M36.66,10.8c.38.88,2.7,2.14,4,3v2h-2c-.7-.15-1.39-.64-2-1l-1-1c-.34-.08-.76.11-1,0-1.14-1.65-1.15-2.98-1-5l3,2Z"/><path class="cls-33" d="M36.66,14.8c-.27-.16-1.16.14-1-1,.67.15,1.12.04,1,1Z"/><path class="cls-104" d="M43.66,20.79l-1-1c1.16-.18.93.97,1,1Z"/><path class="cls-57" d="M42.66,22.79c-.1-.88.25-.91,1-1l-1,1Z"/><path class="cls-176" d="M36.66,27.79c.86.29.85.63,0,1,1.72,1.67,1.05,2.34-2,2-.34.83-1.19,1.38-2,1,.62,1.07.08,1.43-1,1-1.27,1.28-1.57.73-1-1-.65-.36-.31-1.03,1-2,.51-.15,1.36.07,2,0v-2c.91-.15,2.37.26,3,0Z"/><path class="cls-16" d="M40.66,24.79c2.59.86-.38,3.13-2,2h-1c.19-.21.88-1.52,1-2,.33-.02.67.01,1,0,.25-.47.59-.43,1,0Z"/><path class="cls-123" d="M37.66,27.79c-.3.68-.64.67-1,0,.07-.03.79-.77,1-1,.4.31.39.65,0,1Z"/><path class="cls-4" d="M58.66,25.79c.65.79,1.36,2.16,2,3,.79,1.04.62,2.9-1,2-.28.87-.62.86-1,0-.64-.85-1.3-1.52-2-2-1.87,1.36-2.42.8-1-1,.47-.4.47-.73,0-1-.64-.3-.63-.63,0-1,.45-.23,1.17-.31,1.5-1l1.5,1Z"/><path class="cls-233" d="M55.66,26.79c.58.3.57.63,0,1-.75,2.81-2.79,1.51-1-1-.16-1.12.66-.83,1-1v1Z"/><path class="cls-125" d="M41.66,23.79h1.5l.5,1c-1.22,1.56-2.26,1.91-3,0-.33,0-.67-.01-1,0l.5-1h1.5Z"/><path class="cls-20" d="M60.66,28.79c.08.11,1.57.03,1,2h1v-1.5c.25-.68.76-.4,1-.5.08.33-.1.73,0,1,.65.29.64.63,0,1-1.29.55-.8.75-1,1-.96,5.92-3.69,3.26-3-1l1-2Z"/><path class="cls-85" d="M30.66,38.79l1.18-.68c.75,2.68,1.69,4.58,2.82,5.68.71,1.18.62,3.02-1,3-.29.65-.63.63-1,0-.9-.23-.88-.56,0-1l-2-3-2-2c-.54,1.45-1.37,1.43-2,0h-1c-.65-1.23.68-1.89,4-2,.33.12.81-.14,1,0Z"/><path class="cls-135" d="M32.66,36.79c2.99,1.38,3.48,2.26,1.47,2.65.9,2.04,1.08,3.49.53,4.35h-2c.05-1-1.36-4.51-2-5v-1.5l1-1.5c.33,0,.67.02,1,0,.87.28.86.62,0,1Z"/><path class="cls-167" d="M29.66,38.79l-.5,1c-2.3-.5-2.55.32-3.5,1-.69.5-2.77,1.89-3,2-.26.13-.71-.12-1,0-.87-.28-.86-.62,0-1,.18-.09,1.56-2.73,2.5-3,.98-.28,2.18.5,3-1,.7,1.35,1.81.75,2.5,1Z"/><path class="cls-154" d="M19.67,40.78c-.11.29.1.7,0,1,.69.77.36,1.43-1,2-.66.05-1.34-.02-2,0v-2c.24-.15,3.18-3.2,4-4,1.37.54.03,2.16-1,3Z"/><path class="cls-55" d="M22.67,37.79c-1.36.22-1.08,2.88-3,3,.22-.62.35-1.1,1-1.5v-1.5c.32-.32.79-2.16,2-2,.02.05,1.04-.13,1,.5l-1,1.5Z"/><path class="cls-55" d="M21.67,41.78v1c-1.28.53-1.35.87-3,1,.03-.8.69-1.06,1-2,.62-.09,1.65.17,2,0Z"/><path class="cls-157" d="M24.67,29.79v2c-.2-.14-.66.11-1,0-1.18-.48-2.15-1.09-1-2,.66-.05,1.34.02,2,0Z"/><path class="cls-82" d="M22.67,32.79c.04.33-.06.68,0,1h-1.5c-.66-.17-.45-.97-.5-1h1c.28-.8.61-.79,1,0Z"/><path class="cls-210" d="M22.67,32.79c-.87-.28-.86-.62,0-1,.32-.67.65-.67,1,0,.03,1.07-.38.81-1,1Z"/><path class="cls-129" d="M36.66,33.79c1.38-1.07,3.77-1.21,4,2,.55.3.54.63,0,1-1.5.3-3.16.63-5,1-.7,1.02-1.7.69-3-1v-1c.66-.04,1.34.02,2,0v-2h2Z"/><path class="cls-209" d="M31.66,32.79c.87.28.86.62,0,1-.12.06.29,1.38-2,1-.03-.99.06-2.01,0-3,.29-.74.62-.72,1,0l1,1Z"/><path class="cls-111" d="M34.66,31.79v1s.17.83-.5,1c-.74.19-2.01-.23-2.5,0v-1c-.17-1.15.87-.89,1-1h2Z"/><path class="cls-111" d="M30.66,31.79h-1c-.02-.33.04-.67,0-1,.82-.01,1.03-.71,2-1l-1,2Z"/><path class="cls-121" d="M20.67,30.79c.55.3.53.64,0,1v1c-1.64-.97-2.61-.67-3.5-1-.71-.26-.45-.98-.5-1h1.5c.67-.17.45-.98.5-1,.27-.68.6-.65,1,0,.71.29,1.04.62,1,1Z"/><path class="cls-172" d="M20.67,28.79v1c-.23.63-.57.6-1,0-.33.08-.73-.1-1,0-1.15.17-.88-.84-1-1h3Z"/><path class="cls-97" d="M21.67,29.79c.33-.01.67.02,1,0l1,2c-.32-.1-.73.11-1,0-.84.7-1.65,0-2-1-.29-.16-1.16.13-1-1,.28-.07.66.02,1,0s.67.01,1,0Z"/><path class="cls-42" d="M74.65,57.78c1.29-.9,2.63-.23,4,2,.91.24.89.57,0,1,.16,2.2,1.01,3.53,2.55,3.99.04,2.88,1.86,4.54,5.45,5.01-.06.31.04.67,0,1-.54.45-.54.79,0,1-.52,1.92-.94,1.88-1,2-.73,1.26-1.73,2.26-3,3,1.51,1.5-1.09,5.13-3,3l-3-3c-1.52.55-2.29-1-2.5-1-.17,0-1.03,1.6-3,1-.37-.11-.42-.85-2-1-2.13-.2-2.65,1.08-4.5,1l2-2-9.5,2-4.5-1,2-1-2-3.5c-.44-1.64.96-1.4,1-1.5.23-2.34,1.15-3.07,2.74-2.21,2.77-2.34,4.48-3.64,4.93,1.12.09,1-2.71,3.12-2.3,1.7.31-1.08,6.58-4.57,8.32-1.78,1.02-2.41,2.46-4.34,4.31-5.82.82-1.57,1.82-2.9,3-4-.58-.3-.56-.63,0-1Z"/><path class="cls-180" d="M84.65,76.77c-.64,1.56-.99,3.14-2,5l-2,2-1,1h-1l-3,2c-.3.51-.63.49-1,0l-1,1c-.33.05-.68-.05-1,0l-2,1c-.52.24-10.25.22-11.5,0-.49-.09-3.37-1.56-4.5-2l-2-2.5,5-2.5c-.21,3.1,2.25,3.27,5,3v2c1.89.73,2.62-1.75,3.5-2,.66-.19,1.5.23,2,0,1.65-.77,3.08-2.6,5.5-2l-3-1,1.5-2,2,1,1.5-1c-.03,2.16-.75,3.51,2,3l-.5-2c2.17.66,2.27-.84,2.5-1,1.14-.82,2.63-1.44,3-3,.46-1.17,1.79-1.49,2,0Z"/><path class="cls-187" d="M78.65,60.78c2.76-1.52,6.66,4.2,6.75,6.37.01.29-.86,1.35-.85,1.28.12-.73,1.29-2.42,2.1-1.65.28-.87.62-.86,1,0,0,3.04-.97,2.82-1,3l-6.5,1,.5-3-3,2,1.5-3,.5-2h-2c1.04-1.52,1-2.23,1-4Z"/><path class="cls-218" d="M82.65,51.78c1.18.93,1.85,1.93,2,3l1,1,1,1c.88.27.87.61,0,1-.65-.35-1.31-.7-2-1h-1c-.33.87-.66.87-1,0-2.12,1.9-2.99.44-2-2l-1-1-1-1c-.33.86-.67.86-1,0l-2-1c-3.35-2.26-2.9-3.49,1-2,.31-.85.64-.84,1,0,.18-.86.52-.82,1,0,.5-2.54,1.17-3.21,2-2,.43,1.36,1.1,2.69,2,4Z"/><path class="cls-165" d="M83.65,56.78c.59.13,1,.33,1,1,.07.31-.1.7,0,1l1,1c.07.32-.07.68,0,1,.6.33.6.66,0,1l1,2c.81.49.6,1.22,0,2-.94,2.01-2.03,2.08-1.64-.1-.74-.71-7.47-8.15-4.66-9.06.78-.25,1.55-.16,2.29.16.2.14.66-.11,1,0Z"/><path class="cls-187" d="M84.65,76.77h-2l-1-.5,4-2.5c-.28.6-.52,1.84-1,3Z"/><path class="cls-17" d="M87.65,66.77h-1c-.87-.28-.86-.62,0-1-.01-.66.02-1.34,0-2,.24.11.82-.18,1,.5v2.5Z"/><path class="cls-187" d="M86.65,70.77c-.04.35.08.72,0,1h-2v-1h2Z"/><path class="cls-187" d="M86.65,63.77c-.27-.12-.81.18-1-.5-.16-.44.08-1.01,0-1.5.3-.64.63-.63,1,0,.08.65-.02,1.34,0,2Z"/><path class="cls-17" d="M84.65,57.78l-1-1c.32.1.74-.12,1,0v1Z"/><path class="cls-17" d="M85.65,59.78c-.02-.07-.53.39-1-1l1,1Z"/><path class="cls-17" d="M86.65,61.78h-1c-.05-.33.07-.69,0-1,.88-.1.91.25,1,1Z"/><path class="cls-178" d="M80.65,83.77c.39-.43.78-2.13,2-2-.8,1.48-1.92,1.88-2,2Z"/><path class="cls-160" d="M80.65,84.77h-1c-.18-1.13.95-.95,1-1-.13.19.09.65,0,1Z"/><path class="cls-160" d="M72.65,87.76l-.5,1h-1.5c.12-.06-.39-.61,2-1Z"/><path class="cls-160" d="M75.65,86.76c.5-1.16,1.84-1.34,3-2-.4,2-1.73,1.71-3,2Z"/><path class="cls-160" d="M74.65,87.76c-.28.08-.65-.05-1,0,.16-.21-.34-.63,1-1,.57.3.56.63,0,1Z"/><path class="cls-100" d="M74.65,87.76v-1c.3-.08.68.07,1,0-.28.65.09.67-1,1Z"/><path class="cls-200" d="M82.65,47.78c1.63.41,2.29,1.07,2,2,2.46-1.03,3.1.92,2,3,.59.52,1.6,1.47,2,2,.37.49.66,1.58,1.5,2l1-1c1.2,1.33,2.88,2.09,2.5,4h2v2c-1.42-1.33-2.96-.65-4-1-1.99-.68-3.29-2.08-5-3-.1-.3.09-.69,0-1l-1-1v-1l-3-3c-1.06-1.11-1.98-2.7-1-4l-1-1c-.9-.18-.86-.52,0-1-1.74-1.37-2.27-2.19,0-3,.42-1.65.8-2.56,2-1,1.87.35.66,5.1,0,6Z"/><path class="cls-21" d="M35.66,51.78c-1.47-5.82,10.6-3.89,6,0-.01,1.15.97,1.69,2.93,1.62.36.75-7.3,12.01-8.93,13.37-2.59,3.24-4.34,1.85-4.62-1.9l-2.35-.96c-1.1,4.25-1.67,5.57-6.03,4.85-.57-.27-2.38-.38-4-1l4-1-3-3c1.33.84,4.99-1.56,5-2.5,0-.25-1.5-1.09-1-1.5,2.08.8,3.39-2.69,4.5-3,5.98-1.65,3.47-1.32,7.5-5Z"/><path class="cls-106" d="M22.67,68.77c2.73-1.32,4.18-.67,2-4h2v-2l3.5-2,.5,2h2l1,5c.83,0,1.01-.74,2-1,.28-.88.61-.87,1,0,.16,1.14-.74.85-1,1l-1,1c-1.94.23-3.97.94-4.5,1-3.23.36-5.16.1-7.5-1Z"/><path class="cls-118" d="M45.66,52.78c.86.3.85.64,0,1-1.44,3.44-2.25,6.45-3.24,10.14-.2.75-.88.96-1.76.86.72,1.48.37,1.64-1,1-.32.05-.68-.07-1,0l-1,1c-.31.09-.7-.1-1,0s-.68-.08-1,0c-1.59-2.15-.22-2.02,1-3.5.52-.62,1.88-1.59,2-2,.28-.94-.52-2.15,1-3l-2-.5,1-3,3,3,2-3.5-3-.5c-.54-2.05.96-1.89,1-2,.13-3.68,4.19-.65,4,1Z"/><path class="cls-156" d="M41.66,66.77c.66.29.65.63,0,1h-2v-2c-.18-1.16.97-.93,1-1,2.73-1.81,2.65-.34,1,2Z"/><path class="cls-223" d="M18.67,67.77c-.36-.14-.97.14-1.5,0l-.5-1c.96-.3,1.19-.98,2-1v2Z"/><path class="cls-202" d="M37.66,66.77c.07-.02-.38-.7,1-1l-1,1Z"/><path class="cls-202" d="M42.66,67.77h-1v-1c.28-.87.62-.86,1,0-.03.33.03.67,0,1Z"/><path class="cls-202" d="M34.66,68.77c-.16-1.14.74-.85,1-1,.1.88-.25.91-1,1Z"/><path class="cls-12" d="M117.64,41.78c.02.07.94.97,1,1q-.78.52,0,0c.23.12.67-.08,1,0,.75,2.24,1.42,4.57,2,7,.02.34-.06.71,0,1l-2,2-3-4.5c1.7-1.04-.61-2.23,0-4.5l-2-1-3,1.5,1,2.5c-.23.28-1.8-1.95-3,.5,2.48,1.74-1.48,3.26,1,5l-2,1.5-3-2,4-4-4-1,1-4c-1.1.05-1.61,1.1-2,2-2.09.6-.88-3.87-.12-4.64,4.32-.87,10.19-1.15,13.11,1.65Z"/><path class="cls-12" d="M104.65,55.78h2v2c-.89-.44-1.95.18-2.5,1l-1.5-3h2Z"/><path class="cls-12" d="M105.65,53.78l-1-.5c0-.64.96-.46,1-.5v1Z"/><path class="cls-195" d="M111.64,33.79c.32,1-.04,1.43-1,1-.23.52-1.79,1.88-2,2,1.28,2.96-2.6,3.47-5,3-2.14,4.4-3.48,3.4-4-3-.83-.26-.72-1.47,0-2-.61-2.48,3.16-3.37,5-2,.22-.54.89-.87,2-1,1.05-2.23,2.3-2.88,4-1,1.35.3,1.56,1.91,1,3Z"/><path class="cls-8" d="M108.64,36.79l2.5,3,1-3c1.77,1.76,2.76,3.59,5.5,3,.08.63-.16,1.56,0,2l-4.5-1-4,1-4-1-.5,4c-.12.27.18.81-.5,1l-2.5-1c-1.63-.96-.97-2.63,2-5,1.31-1.69,3.85-2.35,5-3Z"/><path class="cls-8" d="M121.64,49.78l-1-.5c.55-2.58-1.37-4.04-1-6.5h1c-.16.33.9,4.9,1,7Z"/><path class="cls-142" d="M116.64,29.79c.08.31-.07.68,0,1-1.03.84-2.37,1.17-4,1-1.46-.07-1.45-1.66,0-2,1.9-1.24,2.1-1.24,4,0Z"/><path class="cls-8" d="M112.64,33.79v1l-.5,1-1.5-1c.18-.42-.09-1.15,1-1,.28-.87.62-.86,1,0Z"/><path class="cls-6" d="M125.64,38.79l-1-.5c-.08-.5.07-1.02,0-1.5l1,.5c.04.5-.03,1.01,0,1.5Z"/><path class="cls-232" d="M39.66,39.79c.25-.88.58-.86,1,0,.91-.85,3.39-.49,3,1l2,2c.89.2.86.54,0,1l1,1c1.46.59,1.46,1.4,0,2,.77.86.76,2.13,0,3v1c.66.29.64.63,0,1,1.4,1.44.8,2.02-1,1l-.5-1h-3.5c.16-.44-.08-1.37,0-2l-1.5,1-2-1c-.51.98-1.95,1.49-2.5,2l-2,1-2-2-.5,2-1.5-2.5,1-2.5c.61-.96,1.61-.63,3,1-.04-1.25-.05-1.64,1-1-.67-1.1-.21-1.57,1-1,.06-2.41.39-4.74,1-7,.32-.66.65-.66,1,0,.35-1.47,1.12-1.31,2,0Z"/><path class="cls-186" d="M28.66,40.78l2,2,2,3c.11.27-.1.69,0,1,1.01.44,1.8,1.15,1,2-.43.26-1.86,1.17-2,1,.53-2.06-.94-1.88-1-2-.66-1.28-1.68-3.57-2-5h-2v-2c.65.07,1.46-.14,2,0Z"/><path class="cls-131" d="M18.67,55.78c.29,1.46-.19,3.42,0,5l-2-2c-.55-1.52,1-2.29,1-2.5s-1.55-.98-1-2.5c.96.08,1.82,1.08,2,2Z"/><path class="cls-223" d="M18.17,62.77c.65,0,.65,1,0,1s-.65-1,0-1Z"/><path class="cls-14" d="M10.67,39.79c2.09-1.44,3.16,1.91,2.03,2.36-.98.39-2.16-3.33.97-.36-.12.27.11.7,0,1,.48,1.54.14,3.21-1,5-.02.33.02.67,0,1,2.71.28,2.47.94,0,2-.57.13-1.56.68-2,1-2.03-.23-.64-3.95-.37-3.09.24.77-.5,3.22-1.63,3.09-.04-.04-.84.17-1-.5-.29-1.2-.17-5.07,0-6.5.22-1.9.5-1.51,1-2.5.34-.68.26-2.37,2-2.5Z"/><path class="cls-221" d="M12.67,48.78l2-1,2.5-1,3.5,1v2c-1.54-.72-1.08-1.13-3-.5-1.06.34-2.45,1.03-3,2-.25.44.16,1.15,0,1.5.4,1.31-1.19,2.61-2,1l-1-1c.12-.12.9-1.56,1-2,.13-.56-.04-1.34,0-2Z"/><path class="cls-221" d="M14.67,42.78c.5,2.02-.78,2.91-1,4.5l-1,.5c.17-2.87.26-2.96,1-5h1Z"/><path class="cls-131" d="M14.67,52.78l1,.5-1.5,2.5-2.5-1,1-1c.41-.11,1.95-.9,2-1Z"/><rect class="cls-131" x="17.67" y="51.78" width="2" height="1"/><path class="cls-131" d="M11.17,55.78c.65,0,.65,1,0,1s-.65-1,0-1Z"/><path class="cls-43" d="M76.65,11.8c.16-.29-.13-1.16,1-1-.12.71-.08,1.11-1,1Z"/><path class="cls-204" d="M89.65,14.8c.08.94.08,2.05,0,3-.3.1-.69-.09-1,0-.4-.48-.73-.48-1,0-.18.04-.36.77-3,1l1-2h-2c.11-.07-.03-1.54,2-1,1.65.08,2.18-.87,4-1Z"/><path class="cls-158" d="M78.65,18.79v-1c.38.09.8-.14,1,.5-.2.64-.62.41-1,.5Z"/><path class="cls-206" d="M66.66,58.78l1,1c1.58-1.08,2.92-.08,4,3,.15,1.44.29,1.79,1,3l-3,1,2,2-2-.5-1.5,3.5-4-3-2,3-4.5-1,2.5-4-6.5,3c.15-.4-.03-1.35,0-2-2.05-.42-2.08-2.59,0-3-1.94-.56-1.95-1.44,0-2,.3-.64.63-.62,1,0,.98,1.33,1.98,2,3,2,.92-2.12,2.58-3.78,5-5l1-1c1.34-1.78,1.59-1.65,3,0Z"/><path class="cls-13" d="M50.66,54.78c2.75,1.64,2.63,5.87-1,5,.76,1.22.51,2.59-1,2,.52.28.5.61,0,1-.75,2.56-.69,5.02.19,7.38l-1.19.62c-.26.68-.59.65-1,0-.35.04-.75-.09-1,0-1.25-1.28-1.68-5.59-1-8-.87-.34-.87-.67,0-1l1-2c-.82-.33-.82-.67,0-1l1-1c-.7-1.58-.02-4.02,2-3,1.03-1.53,1.68-1.95,2,0Z"/><path class="cls-149" d="M44.66,62.77v2h2c-.8,1.6-1.83,2.17,0,3.5l-1,2.5c-.05.02.17.83-.5,1h-1.5c-.24-1.88.17-4.06,0-6-.56-.3-.54-.63,0-1-1.96-1.19-1.22-2.56,1-2Z"/><path class="cls-145" d="M53.66,64.77c-.03.99.04,2.01,0,3h-1.5l-1.5,1c.19-1.14.02-2.74,0-4,.06-2.86,2.32-2.73,3,0Z"/><path class="cls-149" d="M49.66,70.77l-.5,1h-2l-.5-1c.33-.04.68.06,1,0,.62-.11,1.65.17,2,0Z"/><path class="cls-206" d="M46.66,75.77l-.5,1c-.68-.17-.42-.91-.5-1l.5-1c.66.16.45.96.5,1Z"/><path class="cls-206" d="M49.66,73.77c.43-.5.58-.61,1-1l-1,1Z"/><path class="cls-206" d="M47.66,75.77c.06-.04.37-.47,1-1l-1,1Z"/><path class="cls-180" d="M71.15,77.77c.65,0,.65,1,0,1s-.65-1,0-1Z"/><path class="cls-27" d="M45.66,58.78c.05.06.05.94,0,1l-1,2c-.11.29.1.7,0,1-.04.12-.5.72-1,2l-1,1c-.07.29.04.66,0,1h-1v-1.5l-1-.5c.38-.95.61-4.14,1-5.5.18-.63,3.35-3.18,3-5l1-.5c1.46.56,1.46,2.22,0,5Z"/><path class="cls-42" d="M43.66,65.77h-1c.34-1.38.97-.93,1-1v1Z"/><path class="cls-103" d="M88.65,25.79h1c.3-.58.63-.57,1,0v2c-.63.72-1.35.73-2,0,.27,2.98-3.94,4.4-5,2-1.36-1.67-1.3-3.55,1-4,1.09-.86,2.93-.8,4,0Z"/><path class="cls-38" d="M93.65,32.79c0,.33.08.78,0,1,.9.68.9,1.35,0,2,.51,1.41.4,1.73-1,1-.24.87-.58.85-1,0-1.03-.77-1.37-.77-1,0,1.16,2.41-.81,4.02-3,2-1.79-.53-1.74-1.39,0-2-1.75-.81-.96-2.68,1-2l3-1c-1.36-1.55,1.22-3.49,2-1Z"/><path class="cls-5" d="M95.65,34.79c2.39,1.35,2.16,4.86-1,4-.73-1.03-1.07-2.03-1-3-1.21-2.67-.21-1.41,0-2,.82,0,1.02.72,2,1Z"/><path class="cls-143" d="M93.65,29.79c-.23-.12-.67.08-1,0,.61,1.68-.25,2.8-2,2-.64-.32-.64-.65,0-1l-1-1c-1.45,2.51-2.6,1.46-1-1,.6-.91,2.07-.64,3,0l1-1c.34.03.72-.07,1,0,.76.38.74,1.53,0,2Z"/><path class="cls-120" d="M98.65,31.79c1.33,1.55,1.07,1.84-1,2-.77.98-1.83.23-2-1,.04-.66-.02-1.34,0-2l2-1c.28-.87.62-.86,1,0,1.64-.38,1.64.28,0,2Z"/><path class="cls-105" d="M93.65,32.79h-1.5c-.68.19-.38.73-.5,1-.29.64-.63.63-1,0-.87-.44-.65-1.23,0-2l2-2c.64,1.27.96,1.47,1,3Z"/><path class="cls-155" d="M98.65,27.79c.88.19.85.52,0,1,.47.25.43.59,0,1h-1l-1-1.5c.17-.68.98-.45,1-.5.28-.87.62-.86,1,0Z"/><path class="cls-113" d="M97.65,33.79c.65.26.62.6,0,1-.6,1.95-1.51,1.98-2,0,.03-.66-.04-1.34,0-2l2,1Z"/><path class="cls-52" d="M93.65,27.79c.36.09.85-.15,1,.5v2.5c-1.15.18-.94-.97-1-1v-2Z"/><path class="cls-39" d="M90.65,27.79c.32-.04.68-.01,1,0,.65.29.64.63,0,1-.98.11-2.01-.06-3,0-.79-.29-.78-.62,0-1,.54-.14,1.36.08,2,0Z"/><path class="cls-98" d="M98.65,26.79c.86.33.86.66,0,1h-1c.13-.27-.13-.73,0-1,.56-1.19.62-.73,1-1,.85.31.84.64,0,1Z"/><path class="cls-76" d="M91.65,28.79v-1c.33.01.67-.03,1,0,.1.88-.24.92-1,1Z"/><path class="cls-128" d="M98.65,25.79c.18-.58-.01-1.13,1-1,.91,1.41.38,1.88-1,1Z"/><path class="cls-60" d="M104.65,23.79c-.32,1.17-1.43,1.57-1,3h3c3.39.3-1.25,4.97-3,2-1.04.78-3.55,1.23-4,0h-1c.01-.33-.02-.67,0-1s-.04-.67,0-1l2-2,2-1,.5,1c.27-.71,1.2-.81,1.5-1Z"/><path class="cls-115" d="M100.65,24.79v2h-2c.04-.35-.08-.73,0-1,.18-.13,1.17.15,1-1h1Z"/><path class="cls-49" d="M88.65,28.79c-.17,1.15.96.94,1,1l1,1c.1.21-.04.64,0,1,.06.65-.03,1.34,0,2-.29.66-.62.64-1,0-1.87,1.09-.75-1.92-.47-2.08.19-.11-.85,4.13-2.53,2.08-.91-1.26-2.09-.33-3.52,2.8l-1.48-.8c-1.11.69-1.54.2-1-1-.25-1.14.41-2.47,2-4,.06-.04-.31-.38,1-1,.33-.16,1.01.22,1.5,0,.93-.42,2.31-1.7,3.5-2v1Z"/><path class="cls-201" d="M80.65,34.79c-.33.86-.66.86-1,0,.07-.31-.05-.68,0-1,1.18-1.19,1.52-1.85,3-3l-2,4Z"/><path class="cls-188" d="M88.65,17.8c-.3.09-.68-.08-1,0l.5-1,.5,1Z"/><path class="cls-25" d="M59.66,30.79l1,3h1c-.57-1.97.9-1.87,1-2,.2,1.39-.3,3.27,0,4.5.17.68.98.45,1,.5.44,3.2.77,6.53,1,10,.81.3.8.64,0,1,.16.54.16,1.21,0,2,1.48.74.81,1.74-2,3-.27.88-.61.87-1,0l-1-1c-3.7-1.55-5.03-2.88-4-4,.28-.87.62-.86,1,0l1,1c.28-.83.61-.81,1,0l1-1c-2.62-.2-2.4-1.01,0-2-.77-1.68-.72-4.3,0-6l-1-2c-.87-.26-.85-.59,0-1-.14-1.16-.47-2.16-1-3-.87-.33-.87-.67,0-1-.55-.18-.49-.53,0-1-.66-.27-.64-.61,0-1h1Z"/><path class="cls-46" d="M64.66,46.78c-.47-.01-.8.05-1-.5-.54-2.26.68-8.05,0-9.5l1-1c.2,3.37.22,7.64,0,11Z"/><path class="cls-20" d="M64.66,34.79c-.04-.36.11-.86,0-1-.37-.95.01-1.37,1-1-.11.42.12.98,0,1.5l-1,.5Z"/><path class="cls-88" d="M66.66,30.79c-.04.35.08.72,0,1l-1,1c-.09.08-1.18-.14-1,1-.03-.04-1.05.12-1-.5,1.46-.63,1.72-2.62,2-3,.53-.71.97-.46,1-.5.88.25.86.58,0,1Z"/><path class="cls-62" d="M67.65,29.79c-.33.81-.67.81-1,0,.42-.55.35-.52,1-1v1Z"/><path class="cls-88" d="M63.66,30.79v-1c.02.05,1-.15,1,.5-.19.68-.72.38-1,.5Z"/><path class="cls-30" d="M109.64,27.79h1c.1.63-.08,1.36,0,2,.89.25.87.58,0,1-1.35,1.34-3.28.66-4,1-.9.5-1.56.5-2,0-3.43,1.83-4.43,1.5-3-1,3.14-.46,5.19-1.63,6.15-3.51l1.85.51Z"/><path class="cls-18" d="M109.64,27.79h-1.5l-1.5,3c-1.62.14-3.43-.21-5,0,.6,1.78-.81,2.55-2,1-.84-1.48.49-2.48,4-3,.55-.26,2.11.16,3,0v-2c1.34.04,3-.5,3,1Z"/><path class="cls-219" d="M112.64,29.79v4h-1c-.77-1.23-.82-1.67-1-3-.04-.33.04-.67,0-1l1.5-1,.5,1Z"/><path class="cls-169" d="M114.64,27.79c-1.25.65-3.49-1.6-3-2,1.25-.65,3.49,1.6,3,2Z"/><path class="cls-10" d="M43.66,24.79c.99.01,2.01-.02,3,0,.87.28.86.62,0,1-.21.88-.54.85-1,0l-2,1c-.29.87-.62.86-1,0l-1,1c-.3.88-.63.87-1,0-.94,1.26-1.94,1.93-3,2-1.22.67-1.66.2-1-1,.17-.14-.16-.83,0-1s.8.16,1,0l1-1c.64-.46,2.05-.79,2-2,.99-.02,2.01-.01,3,0Z"/><path class="cls-10" d="M52.66,25.79c-.28.87-.62.86-1,0v-1c1.15-.17.87.82,1,1Z"/><path class="cls-229" d="M37.66,29.79c.42-.2,1.09.47,2,2,.31-.86.65-.85,1,0,.64.3.63.63,0,1,5.31,1.89,5.37,8.58,0,3-1.25-.49-1.97-1.45-3.5-1-.61-.16-.43-.57-.5-1-.15-.94.09-2.02,0-3l-2,2v-1c-.87-.28-.86-.62,0-1,.12-.07,1.16-1.29,2-2,1.14-.16.85.74,1,1Z"/><path class="cls-216" d="M34.66,30.79v1l-1.5,1-.5-1c1.3-1.02,1.56-.73,2-1Z"/><path class="cls-104" d="M37.66,27.79v-1h1c-.06.04-.3.43-1,1Z"/><path class="cls-46" d="M58.66,30.79c.06.31-.03.66,0,1-.3.64-.63.63-1,0-.86-.34-.86-.67,0-1l-1-1c-.87-.28-.86-.62,0-1l.5-1c1.53.99,1.26,1.67,1.5,3Z"/><polygon class="cls-153" points="55.66 27.79 55.66 26.79 56.66 27.29 55.66 27.79"/><path class="cls-84" d="M35.66,46.78c-.47.64-.45.58-1,1-.79.61-1.03.02-1-1l1-3c1.31-2.25,2.4,1.59,1,3Z"/><path class="cls-15" d="M32.66,45.78c-2.11-.12-1.76-2.65-2-3,.03.04.55-.22,1,.5.14.22.74,1.88,1,2.5Z"/><path class="cls-151" d="M30.66,42.78c-.08-.12-2.21-.83-2-2,1.47.38,1.42,1.26,2,2Z"/><path class="cls-15" d="M34.66,47.78c-.06.04.15.32-1,1-.03-.8-.69-1.06-1-2h1l1,1Z"/><path class="cls-175" d="M35.66,37.79c1.96-.92,3.29-.92,4,0,2.13.28,1.72.9,0,2-.65-.05-1.35-.05-2,0-.77-.48-1.81-.91-1,0-.28,1.98.41,4.71,0,6.5-.15.67-.97.45-1,.5.78-2.19-.92-2.84-1-3-1.4-2.69-.51-4.57-2-7h1.5c.48.56.73.87,1.5,1Z"/><path class="cls-205" d="M21.67,32.79c-.33-.04-.67.03-1,0v-1c.83-.43,1.17.1,1,1Z"/><path class="cls-157" d="M22.67,31.79v1c-.24.07-.73.03-1,0l-1-1v-1c.64.35,1.32.71,2,1Z"/><path class="cls-74" d="M40.66,36.79c.93-.53,1.36.05,1,1-.62,1.16-1.76,1.46-2,0-1.28,0-2.85.19-4,0l3.5-2c.33.69,1.04.77,1.5,1Z"/><path class="cls-134" d="M80.65,54.78c.95.75,1.88,1.92,2,2l-1,1.5c1.19,1.8,1.77,4.2,3,6,.39.57,1.26,1.49,2,1.5v1c-.3,1.38-1.51,2.29-3,2l1-2.5-2.5-3.5c-3.46,3.07-1.61-.93-3.5-2,0-.32.06-.7,0-1-1.91-.37-3.48-2.53-1-3,.63-.96.97-2.02-.33-2.46l1.33-.54c.3-.56.63-.55,1,0l1,1Z"/><path class="cls-187" d="M74.65,51.78c.2-.76.54-.73,1,0l2,1c.32.07.68-.07,1,0,.56.3.54.63,0,1v2.5l-1,.5q-1.49-1.96,0,0c.17.27-.24,1.02,0,1.5.23.45.82.51,1,1.5h-3v-1.5l-1-.5c-.3.64-.63.63-1,0-.91-.23-.88-.56,0-1-.5-1.45-1.16-2.78-2-4-.33.62-.67.62-1,0v-1c1.21-.76,2.79-.77,4,0Z"/><path class="cls-183" d="M73.65,56.78c.02.34-.06.71,0,1l1,1c.07,2.14.41,3.73-1.5,5-.31-.7-1.09-.78-1.5-1-2.28-2.1-2.61-3.77-1-5-.88-.29-.86-.62,0-1-.8-2.82.12-2.93,2-1l1,1Z"/><path class="cls-230" d="M74.65,58.78c-.95.11-.86-.32-1-1h1v1Z"/><path class="cls-48" d="M72.65,47.78c1.19.19,3.76,1.93,4,2h-2c-.25.21.69,1.28,1,2-.33-.02-.67,0-1,0-1.21-.81-2.81-.76-4,0v1c-.78.24-1.78-.09-3-1-.87-.27-.86-.61,0-1-1.01-.6-.68-1.27,1-2,.13-2.24,2.25-1.68,4-1Z"/><path class="cls-139" d="M80.65,45.78c.01.33-.02.67,0,1,.57.18.51.53,0,1-1.54.04-.36,1.6-2,2-.86-.29-.72-2.3,0-3-1.73-2.92,1.04-5.23,2-1Z"/><path class="cls-45" d="M82.65,51.78c-1.67-1.92-1.6-.27-2-4,.3-.64.63-.63,1,0,.19,1.58-.1,2.63,1,4Z"/><path class="cls-101" d="M78.65,49.78c-.26.06-.73.04-1,0v-3c.28-.87.62-.86,1,0v3Z"/><path class="cls-101" d="M77.65,52.78c-1.25-.27-1.33.54-2-1,.49.03,1-.04,1.5,0l.5,1Z"/><path class="cls-141" d="M85.65,54.78c-.31.44-.64.43-1,0-.61-.74-1.39-2.29-2-3,.66.82,1.98,1.08,3,3Z"/><path class="cls-101" d="M79.65,53.78h-1v-1c1.37.31.94.96,1,1Z"/><path class="cls-230" d="M80.65,54.78l-1-1c.88.63.94.96,1,1Z"/><path class="cls-17" d="M85.65,55.78c-.79-.55-.66-.58-1-1h1c.12.23-.09.66,0,1Z"/><path class="cls-141" d="M86.65,56.78c-1,.13-.83-.39-1-1,.27.19.62-.33,1,1Z"/><path class="cls-141" d="M94.65,45.78c-.89,1.62-2.37,3.4,1,3-.87,2.11-2.73,1.79-1,4h-6v-3l-2,3c-2.24-2-1.38-2.09-2-3-.47-.85.19-1.51,2-2-1.65.09-1.65-.58,0-2-.76-.51-.55-1.22,0-2,1.09-1.47,1.09-2.47,0-3-.33.92-.66.92-1,0-.83-1.07.61-3.32,2-2l3-2c.3-.62.63-.6,1,0,1.23,2.16,2.55,4.48,3.95,6.97l-.95,2.03Z"/><path class="cls-201" d="M81.65,35.79c.02-.05.54.22,1-.5.16-.25-.15-.8,0-1,1.27-1.78,2.8-2.95,5-2.5l-1,2c.44,1.22.63,2.63-1,3,1.52,1.12.73,2.75-1,3,.79,1.65-.33,3.13-2,2-.14.14-1.54.89-2,1-1.92-.56-1.93-1.44,0-2-1.9-1.44-.45-4.09,1-5Z"/><path class="cls-51" d="M80.65,40.78c-.06.65.04,1.34,0,2-.06.98-.03,2.02,0,3l-2-1v2h-1c0-1.99-.04-4.01,0-6,.24-.81.57-1.14,1-1,1-2.29,1.67-1.96,2,1Z"/><path class="cls-201" d="M81.65,47.78h-1c-.04-.33.02-.67,0-1,.89-.1.91.25,1,1Z"/><path class="cls-148" d="M48.66,44.78c.12,1.51.46,2.84,1,4,.02.33-.04.68,0,1-.47.4-.47.73,0,1h2l1.21.64c-1.44,1.19-2.84,2.31-4.21,3.36-.61,1.08-1.34,1.95-2,3l-1,1c-.07-.08-1.44.09-1-1.5,1.6-.9.69-2.32,1-3.5.09-.34-.11-.75,0-1,.03-.06.34-.13,1-1,.7-1.51.88-3.58,0-5-.02-.66.08-1.35,0-2,.37-1.42,1.71-1.55,2,0Z"/><path class="cls-3" d="M94.65,38.79c.82.26.8.59,0,1l1,1,1,1,.96-.36c-.36,1.81.73,2.44,2.04,1.36-1.04-1.06-.54-4.28,0-6l3,1-2,4,3-2c-.3.39-1.65,4.12-2,5-.45,1.13-1.35,1.68-1,3-2.18.35-4.57-.26-6-2-1.18-1.44-1.51-4.13-3-5.5v-3.5c.25.11.66-.08,1,0,.64-.68,1.31-.01,2,2Z"/><path class="cls-8" d="M118.64,42.78l-.5,1c-.84-.52-.54-1.07.5-1Z"/><path class="cls-132" d="M104.65,31.79c.87.28.86.62,0,1-.39.12-.99-.16-1.5,0s-3.16,2.3-3.5,2c-.42.4-.76,1.07-1,2-1.99,2.67-2.91-.03-1-2-.04-.3-.04-.7,0-1,.32-2.53.98-1.87,1-2,.28-.87.62-.86,1,0,.87.06.99-.87,2-1l.5,1h2.5Z"/><path class="cls-126" d="M99.65,34.79v2c0,1.87.27,4.3,0,6-2.76,1.64-3.88-2.54-1-4-1.86-.62-1.87-1.52,0-2v-3c1.13-.18.95.95,1,1Z"/><path class="cls-18" d="M106.65,31.79c-.2.09-.3.47-2,1v-1h2Z"/><path class="cls-127" d="M42.66,38.79c1.03-3.02,3.92-1.5,3,1,.79.31.84,1.6,0,2-.79.63-1.42-.22-2-1-1.31-.6-1.49-.78-3-1-.97-1.62.58-1.96,2-1Z"/><path class="cls-118" d="M40.66,48.78c-.23-1.86-.04-2.9,1.5-4l1.5,1.5-3,2.5Z"/><path class="cls-78" d="M48.66,44.78c-.65-.06-1.43.13-2,0l-1-1c-.08-.27.04-.65,0-1,.74-.45,1.08-1.11,1-2,.29-.68.63-.66,1,0,0,.22.91,3.8,1,4Z"/><path class="cls-140" d="M37.66,39.79c-.34.03-.72-.07-1,0-.37.09-.8-.15-1,.5v1.5h-1v-3h2.5l.5,1Z"/><path class="cls-42" d="M46.66,51.78v-1c-.87-.28-.86-.62,0-1,0-.99.04-2.01,0-3l1,.5v4c-.15.67-.97.46-1,.5Z"/><path class="cls-150" d="M41.66,37.79c1.62-1.01,2.16-.6,1,1h-1.5l-.5,1c-.32-.05-.67.03-1,0v-2h2Z"/><rect class="cls-118" x="43.66" y="49.78" width="3" height="1"/><path class="cls-42" d="M45.66,41.78c.9.1.85.45,0,1-.94-.24-1.92-1-2-2,.81.37,1.27.92,2,1Z"/><path class="cls-42" d="M46.66,44.78c-1-.22-.76-.21-1-1,.88-.1.91.25,1,1Z"/><path class="cls-44" d="M72.65,43.78v3c-1.57,1.26-3.7,1.29-4-1-.31.84-.65.83-1,0-.71-.29-.7-.63,0-1,.19.06.82.06,1,0,1.46-.5,1.84-1.34,4-1Z"/><path class="cls-201" d="M78.65,39.79c-.33,1.09-.36.72-1,1,.01-.66-.04-1.34,0-2,.28-.87.62-.86,1,0,.89.2.86.54,0,1Z"/><path class="cls-201" d="M78.65,37.79c.05-.33-.04-.67,0-1,.04-.35-.08-.73,0-1,.3-.64.63-.63,1,0,1.91.66.76,3.31-1,2Z"/><path class="cls-80" d="M50.66,54.78c2.22-1.37,3.55-.7,4,2,.33-.86.66-.86,1,0,.65,1.24-.13,2.96-1,4,.87.24.84.58,0,1l-1,1c-.08.65.02,1.34,0,2h-3c-.03-1.74.64-4.77-1-5-.31-.3,2.31-2.24,0-3.5.69-.33.77-1.05,1-1.5Z"/><path class="cls-171" d="M69.65,58.78c-.37-1.42-.38-1.68,1-1,.36,1.55.73,2.47,1,5-1.33-.72-2.88-2-4-3l-1-1c-1.51-.75-2.18-1.42-2-2l-1,1c.78.27.76.61,0,1l-1,1c-2.88,2.86-3.88,3.19-3,1-.87-.28-.86-.62,0-1l2-2c-1.45-1.26-.88-2.43,1-2,.26-.82.6-.8,1,0,1.32-2.09,3.32-1.09,6,3Z"/><path class="cls-66" d="M57.66,62.77c.92.26.92.93,0,2-.1.09-.67,1.67-1.5,2h-1.5c-.02-1.33.04-2.67,0-4,.83-2.28,1.95-2.63,3,0Z"/><path class="cls-168" d="M57.66,64.77c-.03-.66.07-1.35,0-2-.85-.31-.84-.64,0-1-.69-1.56.98-2.66,2-1l.5,1c.59-.99,1.8-1.44,2.5-2-1.75,1.85-3.01,3.31-5,5Z"/><path class="cls-96" d="M66.66,58.78c-.1-.09-1.28-.29-1.5-1-.28.71-1.19.81-1.5,1,.13-.28-.14-.76,0-1l1-1c.67-.67,1.89,1.9,2,2Z"/><path class="cls-68" d="M62.66,59.78c.2-.21-.05-.35,1-1-.6,1.24-.73.78-1,1Z"/><path class="cls-68" d="M67.65,59.78c-1.13.18-.95-.95-1-1,.48.43.82.84,1,1Z"/><path class="cls-145" d="M54.66,62.77h-1c.09-.75.12-1.1,1-1,.87.18.84.52,0,1Z"/><path class="cls-42" d="M66.16,67.77c.65,0,.65,1,0,1s-.65-1,0-1Z"/><path class="cls-193" d="M54.66,49.78c.87.28.86.62,0,1,2.94,1.46,1.94,2.46-3,3,.25.43-.09.76-1,1h-2c1-1.77.64-3.54,2.5-3,.68-.26.4-.77.5-1,.32-.75.71-1.24,1-2,.19-1.19.8-1.76,2-2,.19.15.72-.14,1,0,1,1.28.68,2.78-1,3Z"/><path class="cls-118" d="M44.66,61.78c.5-1.35.07-.86,1-2v1.5l-1,.5Z"/><path class="cls-118" d="M45.66,58.78l1-1c-.15.23.15,1.17-1,1Z"/><path class="cls-31" d="M89.65,33.79c.22.38-.12.72-1,1-.32.44-.85,1.42-1,2-.15,1.91-1.69,2-2,0,.23-.48-.16-1.75,0-2.5.17-.68.76-.39,1-.5,1.48-.65,2.31-1.32,2-3h1v3Z"/><path class="cls-89" d="M87.65,36.79c-.14.53.07,1.35,0,2l-2,2c-.67-.15-1.12-.04-1-1,.35-.79.32-1.54,1-3h2Z"/><path class="cls-102" d="M90.65,33.79h1c-.11.24.18.82-.5,1h-2.5c.18-.25-.33-.6,1-1,.3-.09.68.07,1,0Z"/><path class="cls-23" d="M91.65,36.79h-1l-1-1c2.08-.52,1.88.95,2,1Z"/><path class="cls-141" d="M94.65,38.79c-1.54-.04-.36-1.6-2-2l1-1c.5,1.1,1.32,1.7,1,3Z"/><path class="cls-120" d="M97.65,34.79c.32,2.5.96,1.87,1,2,.14.48,0,1.36,0,2-.44,2.55-1.44,2.88-3,1-.3.62-.63.61-1,0-.05-.22-.07-.84,0-1,.02-.05.83.18,1-.5.22-.91-.06-2.39,0-3.5.51.15,1.36-.07,2,0Z"/><path class="cls-34" d="M90.65,30.79c-.03-.06-.3.15-1-1l1,1Z"/><path class="cls-37" d="M103.65,28.79c-.05.02.2.74-.5,1-1.03.39-3.07-.43-3.5,2h-1c.1-.61-.04-1.34,0-2,.13-.59.33-1,1-1h4Z"/><path class="cls-18" d="M98.65,29.79c.02-.33-.01-.67,0-1h1l-1,1Z"/><path class="cls-40" d="M81.65,35.79c-.24.48.36,1.85-1,2.5-.05.83.08,1.69,0,2.5l-2-1c.08-.27-.04-.65,0-1,.04-.33-.05-.67,0-1l1-.5c.07-.5-.06-1.01,0-1.5.04-.34-.07-.7,0-1,.32.05.69-.07,1,0,.66.15,1.12.04,1,1Z"/><path class="cls-95" d="M65.66,47.78c-.28.87-.62.86-1,0,.08-.24-.02-.65,0-1,.81.02.98-.75,2-1,1.67,1.18.95,2.59-1,2Z"/><path class="cls-29" d="M62.66,52.78l1,1v1c.73.29.72.62,0,1-.2.05-.84.07-1,0-1.19.48-2.65,1.02-3-1-.64-.3-.62-.63,0-1-.79-1.07-.22-1.54,1-1,.29-.62.62-.61,1,0,.3-.1.69.09,1,0Z"/><path class="cls-181" d="M67.65,50.78c-.09.3.07.68,0,1,.87.28.86.62,0,1-.76.61-2.09.61-4,0-.32.59-.65.59-1,0,.01-.35,1.86-2.89,2-3,.33-.91.67-.91,1,0,.84-.34,1.51,0,2,1Z"/><path class="cls-35" d="M60.66,45.78l-1-.5c-.08-1.82.12-3.69,0-5.5.28-.87.62-.86,1,0,.09,1.9.14,4.12,0,6Z"/><path class="cls-162" d="M56.66,47.78c.13.57-.06,1.35,0,2h2.5c.82.34,1.23,1.7,1.5,2-.1.9-.45.85-1,0-1.95-.34-3.62-1-5-2l1-1.5v-1.5c.48.24.72-.24,1,1Z"/><path class="cls-211" d="M65.66,47.78c1.96.26,1.96.93,0,2-.06-.05-.94-.05-1,0l-1-1.5c-.04-.63.98-.45,1-.5h1Z"/><path class="cls-4" d="M59.66,36.79c-.04-.18-.75-.37-1-3l1,.5v2.5Z"/><path class="cls-46" d="M60.66,39.79h-1c-.04-.66.06-1.35,0-2l1,.5c.03.5-.02,1.01,0,1.5Z"/><path class="cls-4" d="M58.66,32.79c-1.09.15-.82-.57-1-1h1c.03.33-.02.67,0,1Z"/><path class="cls-46" d="M62.16,41.78c.65,0,.65,1,0,1s-.65-1,0-1Z"/><path class="cls-162" d="M58.66,48.78l-1-1c1.14-.18.94.96,1,1Z"/><path class="cls-35" d="M59.66,48.78c.06-.04.98-.93,1-1l-1,1Z"/><path class="cls-35" d="M61.66,52.78c-.3.1-.69-.09-1,0-.87-.28-.86-.62,0-1,.05.05,1.18-.13,1,1Z"/><path class="cls-146" d="M45.66,36.79c1.55,1.26,3.77,3.36,1,3-.28.87-.62.86-1,0,.02-1.76-2.08-.63-3-1-.07-.03.11-.3-1-1-.06-.04.3-.35-1-1v-1c1.13.44,1.68,1.35,3,1,.57-2.71-2.27-2.47-3-4,.3-.6.63-.59,1,0,1.9.53,2.87,2.8,4,4Z"/><path class="cls-4" d="M57.66,30.79c-.03-.06-1.18.16-1-1l1,1Z"/><path class="cls-193" d="M49.66,48.78l-1-.5v-3.5c.8,1.69.83,1.42,1,4Z"/><path class="cls-107" d="M54.66,46.78l-2,2c.14-.36-.19-1,0-1.5.19-.65.63-.4,1-.5.33-.65.66-.65,1,0Z"/><path class="cls-173" d="M47.66,40.78h-1c-.68-.29-.67-.62,0-1,.03-.04,1.04.12,1-.5l-2-2.5c.44.47,2.99,1.82,3,2.5-.49.51-1,.7-1,1.5Z"/><path class="cls-162" d="M54.66,46.78c-.32.06-.69-.08-1,0l.5-1c.66.16.45.96.5,1Z"/><path class="cls-193" d="M49.66,50.78l-1-.5,1-.5c.05.33-.03.67,0,1Z"/><path class="cls-230" d="M71.65,52.78c.65.06,1.34-.03,2,0,.05,1.32-.07,2.68,0,4-1.14.16-.84-.73-1-1-1.45.43-1.98-.97-1-2-.58-.3-.57-.63,0-1Z"/><path class="cls-101" d="M74.65,51.78c-1.33-.03-2.67.02-4,0l.5-1h3l.5,1Z"/><path class="cls-230" d="M77.65,56.78c-.08-.12-2.21-.82-2-2h2v2Z"/><path class="cls-101" d="M71.65,53.78c-1.36.79-1.86.29-1-1,.33.02.67-.03,1,0v1Z"/><path class="cls-47" d="M70.65,52.78c.13.18-.15,1.17,1,1,.16.7.64,1.39,1,2l-2,1c-.87-.33-.87-.66,0-1l-2-2c-1.13.78-1.53.3-1-1v-1l1-2h1c-.63,2.22.61,2.44,1,3Z"/><path class="cls-72" d="M70.65,56.78c.1.28-.08.67,0,1l-1,1-1-2,1-1c.29-.71.63-.7,1,0,.1.3-.1.71,0,1Z"/><path class="cls-159" d="M72.65,46.78v1c-.91-.15-2.73.67-4,1-2.09-.4-1.83-2.31,0-3,1.21.28,2.09,1.6,4,1Z"/><path class="cls-95" d="M68.65,48.78c-.19.87-.72,1.08-1,2h-1.5c-.66-.16-.44-.95-.5-1,.39-2.16,1.82-3.15,3-1Z"/><path class="cls-2" d="M86.65,43.78c-.86-.3-.72-2.3,0-3,.96-.3,1.19-.98,2-1,.24,1.88,0,3.47-2,4Z"/><path class="cls-69" d="M86.65,43.78c0,.66.05,1.34,0,2h-1c-1.54-.59-1.12-1.96,0-3,.02-.66-.01-1.34,0-2,.23.05.79.07,1,0v3Z"/><path class="cls-92" d="M98.65,38.79c-.02,1.76.05,2.48-1,4h2c-.07.42.11.85-.5,1h-1c-.76-.21-1.38-1.89-1.5-2l-1-1c-.51-.3-.5-.64,0-1l.5-1,1,1,1.5-1Z"/><path class="cls-141" d="M95.65,40.78c-.04-.06-.7.37-1-1h1v1Z"/><path class="cls-120" d="M96.65,41.78c-.36-.32-.45-.24-1-1l1,1Z"/><path class="cls-112" d="M46.66,40.78c.24,1,1.02,1.16,1,2-.65-.07-1.47.14-2,0-.04-.32,0-.67,0-1v-2h1c-.05.06-.05.77,0,1Z"/><path class="cls-184" d="M68.65,45.78c-.11.97.19,2.14,0,3-1.06.27-1.83.12-3,1,.07-.65-.13-1.45,0-2,.25-1.02,1-1.18,1-2,.27-.07.66,0,1,0s.73-.06,1,0Z"/><path class="cls-203" d="M59.66,54.78c.88.25.86.58,0,1-.27,2.04-.93,4.04-2,6,.1.22-.04.64,0,1h-3c0-.33-.03-.68,0-1s-.05-.68,0-1c.7-1.38,1.37-2.72,2-4-1.69-1.11-.78-1.57,1-2-1.35-1.71-.78-2.31,1-1l1,1Z"/><path class="cls-116" d="M56.66,54.78c0,1.18-.91,1.63-2,2-.37-.09-.8.15-1-.5v-1.5c-.12-.12-2.19,0-3,0,.59-1.17.65-.74,1-1,2.16-.87,6.55-2.61,5,1Z"/><path class="cls-215" d="M56.66,54.78c.28-.87.62-.86,1,0-.31.75-.69,1.25-1,2-.28.87-.62.86-1,0-.32-.06-.69.08-1,0v-2h2Z"/><path class="cls-145" d="M54.66,60.78c.24-1.7,1-2.44,1-4h1c-.31.75-.55,2.53-1,3.5l-1,.5Z"/><path class="cls-145" d="M52.16,61.78c.65,0,.65,1,0,1s-.65-1,0-1Z"/><path class="cls-67" d="M60.66,57.78c.64.52-.28,1.53-1,2v1l-2,1c-.04-.1-1.45.13-1-1.5l3-4.5c1.47.05,1.64.76,1,2Z"/><path class="cls-81" d="M62.66,55.78c-.16.67-.64,1.45-1,2-.3.53-.64.52-1,0l-1-.5c-.07-.5.06-1.01,0-1.5-.04-.33.03-.67,0-1,.79.13,1.77-.17,2.5,0,.68.16.45.98.5,1Z"/><path class="cls-68" d="M66.66,54.78c1.22-1.17,2.38.53,2,2,.17.19.88,1.52,1,2l-4.5-4c-.45.59-.77.82-1.5,1v-1c.13-.59.33-1,1-1,.27-.87.61-.85,1,0l1,1Z"/><path class="cls-68" d="M63.66,57.78l1-1c.17,1.15-.96.94-1,1Z"/><path class="cls-168" d="M59.66,59.78l1-2h1c-.47.71-.8,2.02-2,2Z"/><path class="cls-110" d="M58.66,51.78c1.55-.14,1.37,1.4,0,2-.03.07-.45-.36-1,1h-1c-.29-1.81-3.26-.76-5-1,.64-.48.78-1.58,3-1v-2c1.17-.29,2.5.04,4,1Z"/><path class="cls-26" d="M59.66,51.78c-.25.88-.58.86-1,0-1.55-.21-2.47.21-4-1v-1h1.5c.77,1.16,1.64,1.13,3,1l.5,1Z"/><path class="cls-109" d="M60.66,51.78v1c-.07.02.31.35-1,1-.31.61-.64.6-1,0,.16-.41-.09-1.37,0-2,.32.04.67-.03,1,0s.67-.02,1,0Z"/><path class="cls-198" d="M64.66,53.78h-1c-.59-.17-1.13,0-1-1,.33-.1.75.12,1,0,1.01-.82,1.41-.28,1,1Z"/><path class="cls-67" d="M59.66,54.78c-.72-.12-1.11-.08-1-1,.33-.08.76.12,1,0v1Z"/><path class="cls-181" d="M63.66,54.78v-1c.3.09.68-.08,1,0l-1,1Z"/><path class="cls-58" d="M67.65,52.78c1.34.41.84.79,1,1,.81.49,1.48,1.13,1,2l-1,1c-.56-.6-1.13-.92-2-2l-1-1c-.3-.09-.68.08-1,0l-1-1c.1-.04-.12-1.45,1.5-1,.72,1.34,1.73.76,2.5,1Z"/><path class="cls-68" d="M70.65,55.78h-1c-.01-.42-.73-1.65-1-2,1.04.08,1.69,1.06,2,2Z"/><path class="cls-28" d="M68.65,56.78l1-1-1,1Z"/><path class="cls-181" d="M66.66,54.78l-1-1c1.34.38.85.82,1,1Z"/></g></svg>