<?xml version="1.0" encoding="UTF-8"?><svg id="_圖層_2" xmlns="http://www.w3.org/2000/svg" viewBox="0 0 161.56 63.18"><defs><style>.cls-1{fill:#836f93;}.cls-2{fill:#957ca4;}.cls-3{fill:#6f6c78;}.cls-4{fill:#6f6780;}.cls-5{fill:#a48aac;}.cls-6{fill:#715f7c;}.cls-7{fill:#6e5f80;}.cls-8{fill:#a893af;}.cls-9{fill:#776587;}.cls-10{fill:#9980a6;}.cls-11{fill:#668560;}.cls-12{fill:#6a5877;}.cls-13{fill:#b09cbd;}.cls-14{fill:#758d6f;}.cls-15{fill:#878292;}.cls-16{fill:#7d688e;}.cls-17{fill:#645371;}.cls-18{fill:#b098bb;}.cls-19{fill:#78648a;}.cls-20{fill:#5d6a5e;}.cls-21{fill:#8aa37f;}.cls-22{fill:#a282ad;}.cls-23{fill:#725f7e;}.cls-24{fill:#746485;}.cls-25{fill:#988a9f;}.cls-26{fill:#564669;}.cls-27{fill:#6c647a;}.cls-28{fill:#9983a6;}.cls-29{fill:#94789f;}.cls-30{fill:#645874;}.cls-31{fill:#736282;}.cls-32{fill:#796584;}.cls-33{fill:#73876f;}.cls-34{fill:#766a86;}.cls-35{fill:#5a4d6e;}.cls-36{fill:#aa92b3;}.cls-37{fill:#736483;}.cls-38{fill:#614d71;}.cls-39{fill:#a18bad;}.cls-40{fill:#625774;}.cls-41{fill:#a892b2;}.cls-42{fill:#4f4660;}.cls-43{fill:#6e5e78;}.cls-44{fill:#a28fa7;}.cls-45{fill:#698069;}.cls-46{fill:#766c8a;}.cls-47{fill:#554665;}.cls-48{fill:#ae8eb8;}.cls-49{fill:#9580a4;}.cls-50{fill:#5e4f73;}.cls-51{fill:#ad9ab9;}.cls-52{fill:#576a58;}.cls-53{fill:#bda7c9;}.cls-54{fill:#625372;}.cls-55{fill:#91779c;}.cls-56{fill:#a5b49a;}.cls-57{fill:#98869e;}.cls-58{fill:#746384;}.cls-59{fill:#967ba3;}.cls-60{fill:#a0bd91;}.cls-61{fill:#786a88;}.cls-62{fill:#675877;}.cls-63{fill:#5b4b70;}.cls-64{fill:#738e6a;}.cls-65{fill:#7e6e8a;}.cls-66{fill:#8c7b9b;}.cls-67{fill:#6e607f;}.cls-68{fill:#9f8cae;}.cls-69{fill:#554768;}.cls-70{fill:#ac95ba;}.cls-71{fill:#756682;}.cls-72{fill:#738870;}.cls-73{fill:#6e627f;}.cls-74{fill:#917ea1;}.cls-75{fill:#81758d;}.cls-76{fill:#5f765b;}.cls-77{fill:#9c87ac;}.cls-78{fill:#8f779f;}.cls-79{fill:#827094;}.cls-80{fill:#7a6b8d;}.cls-81{fill:#6f577c;}.cls-82{fill:#60536e;}.cls-83{fill:#92b085;}.cls-84{fill:#a18eab;}.cls-85{fill:#63805c;}.cls-86{fill:#766180;}.cls-87{fill:#574968;}.cls-88{fill:#af98b9;}.cls-89{fill:#a795b3;}.cls-90{fill:#6e5b80;}.cls-91{fill:#776c84;}.cls-92{fill:#685076;}.cls-93{fill:#937fa3;}.cls-94{fill:#a794ab;}.cls-95{fill:#766d84;}.cls-96{fill:#645879;}.cls-97{fill:#9c85a6;}.cls-98{fill:#5e755c;}.cls-99{fill:#b19fba;}.cls-100{fill:#547354;}.cls-101{fill:#6b6574;}.cls-102{fill:#695c7b;}.cls-103{fill:#696279;}.cls-104{fill:#745682;}.cls-105{fill:#584c6c;}.cls-106{fill:#7b6a87;}.cls-107{fill:#8d7d9b;}.cls-108{fill:#665977;}.cls-109{fill:#7b6288;}.cls-110{fill:#6f5a7c;}.cls-111{fill:#826f8d;}.cls-112{fill:#b295ba;}.cls-113{fill:#554b6a;}.cls-114{fill:#9580a6;}.cls-115{fill:#6f627c;}.cls-116{fill:#756c7f;}.cls-117{fill:#9f84aa;}.cls-118{fill:#5e586e;}.cls-119{fill:#604e6d;}.cls-120{fill:#625470;}.cls-121{fill:#615170;}.cls-122{fill:#a694ae;}.cls-123{fill:#736485;}.cls-124{fill:#70617f;}.cls-125{fill:#81937c;}.cls-126{fill:#83688f;}.cls-127{fill:#6e5f7b;}.cls-128{fill:#947f9f;}.cls-129{fill:#a691b2;}.cls-130{fill:#655674;}.cls-131{fill:#8b7397;}.cls-132{fill:#7f6e8b;}.cls-133{fill:#7e6e8b;}.cls-134{fill:#78608a;}.cls-135{fill:#867393;}.cls-136{fill:#645a75;}.cls-137{fill:#8a7799;}.cls-138{fill:#90789f;}.cls-139{fill:#795f85;}.cls-140{fill:#675471;}.cls-141{fill:#597356;}.cls-142{fill:#a68fb2;}.cls-143{fill:#776a84;}.cls-144{fill:#776381;}.cls-145{fill:#8c7b9a;}.cls-146{fill:#6e637e;}.cls-147{fill:#6f6181;}.cls-148{fill:#5b556d;}.cls-149{fill:#907f9d;}.cls-150{fill:#7e6b8e;}.cls-151{fill:#859b7b;}.cls-152{fill:#645578;}.cls-153{fill:#6d8669;}.cls-154{fill:#70637f;}.cls-155{fill:#889b81;}.cls-156{fill:#655571;}.cls-157{fill:#7c6b8b;}.cls-158{fill:#867697;}.cls-159{fill:#a389b2;}.cls-160{fill:#8fa487;}.cls-161{fill:#927da2;}.cls-162{fill:#a1ba92;}.cls-163{fill:#6b5777;}.cls-164{fill:#796e87;}.cls-165{fill:#6c8468;}.cls-166{fill:#71667d;}.cls-167{fill:#ac8fb4;}.cls-168{fill:#6c587a;}.cls-169{fill:#71627d;}.cls-170{fill:#80748e;}.cls-171{fill:#80738e;}.cls-172{fill:#6c527e;}.cls-173{fill:#867491;}.cls-174{fill:#6e5a82;}.cls-175{fill:#b4bda7;}.cls-176{fill:#766883;}.cls-177{fill:#7f7090;}.cls-178{fill:#8a7296;}.cls-179{fill:#947e9f;}.cls-180{fill:#746586;}.cls-181{fill:#6a7f66;}.cls-182{fill:#5e4d6d;}.cls-183{fill:#66546c;}.cls-184{fill:#6d5c7d;}.cls-185{fill:#677862;}.cls-186{fill:#a386b3;}.cls-187{fill:#7c6c8c;}.cls-188{fill:#9886a0;}.cls-189{fill:#9381a1;}.cls-190{fill:#8a779b;}.cls-191{fill:#806a8b;}</style></defs><g id="_圖層_1-2"><path class="cls-180" d="M6.09,46.05c1.58-1.69,2.12-1.06,3,1,1.8-1.15,2.38-.67,1,1l-.53.98c-2.41-.35-4.57.32-6.47,2.02l-1,2c.75.99,1.23,2.65,0,3l1,1,2,2c.25-.86.59-.84,1,0,1.83.49,3.68-.02,5.56-1.54l1.44.54,1,2c.87.28.86.62,0,1-.33-.02-.67.02-1,0-.24.55-.58.52-1,0-2.13,1.53-5.93,1.63-8,0-.9.1-1.9-.56-3-2-.14-.23.12-.7,0-1l-1-2c-.13-1.51-.12-3.48,0-5l1-2c.81-1.18.77-1.18,2-2l1-1c.21-.08.67,0,1,0,.31-.6.64-.59,1,0Z"/><path class="cls-37" d="M23.09,21.06c-1.61,2.45-1.27,2.45,1,0-.94-1.52-.96-4.38,1-3,2.7.7,2.53,2,0,3,2.68.34,4.02,1.01,4,2,.85.3.84.64,0,1-2.01.26-4.01.59-6,1-.25.87-.59.85-1,0-.27.87-.61.86-1,0l-2,2c.84.27.82.6,0,1-.51,4.22-1.85,5.21-4,3-.87-.28-.86-.62,0-1l1-2,1-2c1.71-2.3.14-1.69,2.5-3,1.97-1.1,2.95-3.31,2.5-5.5l1-.5c1.46.32.56,2.85,0,4Z"/><path class="cls-147" d="M32.09,11.07c2.07,1.71,1.4,2.37-2,2-.24.89-.58.86-1,0l-3,2c.86.32.86.65,0,1l-1,1c.85.32.85.65,0,1l-1,.5c-.08.82.13,1.71,0,2.5-.28.87-.62.86-1,0,.07-1.32-.1-2.68,0-4,.03-.34-.06-.71,0-1l1-1c.13-.29-.14-.78,0-1l2-2c.28-.12.7.11,1,0l1-1c.5-.2,3.11-.1,4,0Z"/><path class="cls-145" d="M20.09,36.06l-.99.48c-.65-1.86-2.17-4.06-4.01-2.48-.33.85-.66.84-1,0-1.16,1.72-1.83,1.72-2,0-.93-.46-1.75-.95-2-2-.61-.3-.6-.63,0-1,.66-.01,1.34.03,2,0,1.01-.86,2.58-1.35,3,0,.99-.03,2.01.02,3,0v-2.5l1-.5c.95.55,1.12,1.73.52,3.52,2.35.39,2.88,4.25.48,4.47Z"/><path class="cls-79" d="M37.09,13.07c.97.13,1.63.46,2,1,.87.28.86.62,0,1-1.32.9-2.65,1.57-4,2-.34.82-.67.82-1,0-.99.12-.99-.55,0-2-1.5.92-2.83.26-4-2l2-2c2.63.29,2.07,1.16,3.5,2,.43.25,1.15-.16,1.5,0Z"/><path class="cls-128" d="M47.08,18.07c.02.05.83-.18,1,.5.24.98-.17,2.41,0,3.5-.24.89-.58.87-1,0l-1,1c-.63,1.26-1.99,2.41-3,1-5.04.5-1.82-4.35,2-5-.9-.1-.85-.45,0-1,.17-1.11.84-1.11,2,0Z"/><path class="cls-98" d="M58.08,1.07l1,1v1c2.04,4.77-.36,4.62-2,0-.48,2.6-.86,2.32-2,0-1.67,3.54-4.48,4.89-2,0,.14-.25-.13-.72,0-1l1-1c1.13-.72,2.09-1.28,3.5-1,.68.16.46.97.5,1Z"/><path class="cls-11" d="M54.08,14.07c1.36-.59,1.63.77,1,2l1,1c.87.25.85.58,0,1,.6,2.66-.17,2.91-2,1-.24-.82-.77-2.47-1-3l-1-1c-.12-.28.11-.7,0-1l-1-3c-.06-.95-.09-2.06,0-3l1.21-.85,1.79,6.85Z"/><path class="cls-185" d="M56.08,22.06c1,.59.67,1.59-1,3l-1,1c-2.3.87-4.27,1.05-3-2-.87-.28-.86-.62,0-1-.87-.28-.86-.62,0-1,1.66-.25,2.13-.86,3-1,.38-2.47,3.05-1.02,2,1Z"/><path class="cls-105" d="M9.09,45.05c1.63.72,1.81,1.27,0,2-.79-.13-1.77.17-2.5,0-.68-.16-.45-.98-.5-1-.64-.3-.63-.63,0-1,.48-.37.48-.71,0-1v-1c-.52-.39-.57-.94-.59-1.53-.18-4.09,1.83-7.92,2.3-1.17.1,1.43.5,3.58,1.3,4.7Z"/><path class="cls-96" d="M12.09,61.05c.64.3.62.63,0,1-2.61,1.56-5.37,1.46-8,0-.48-.31-.47-.64,0-1,2.16.42,5.54-.12,8,0Z"/><path class="cls-165" d="M53.08,3.07v2h1v-1.5c.24-.62.59-.43,1-.5,2.14.93,1.12,4.87-1.31,4.15,1.18,3.08,1.29,5.37.31,6.85-1.22-1.72-1.13-3.35-2-5.5l-1-.5c.08-.81-.05-1.67,0-2.5,1.13-.58.79-1.48,1-2,.28-.7.97-.45,1-.5Z"/><path class="cls-91" d="M8.09,39.06c.84.24.82.58,0,1,2.86,2.71,3.19,4.38,1,5-.42-.07-.84.11-1-.5l-1-6.5h-1c-.18.21,0,3.91,0,5l-1-.5c-.59-2.41.42-3.51,1-5,.21-.54-.16-1.26,0-1.5,4.57-5.59,4.68-1.36,2,3Z"/><path class="cls-157" d="M10.09,32.06h3l-1,2c-.33.87-.67.87-1,0l-1,2c.82.26.8.59,0,1,.67,1.48-.49,3.15-2,2,.3-1.9,1.28-2.97,1-5-.11-.14-2.9,1.85-3,2,.84-1.38,1.97-2.77,3-4,.3-.63.63-.61,1,0Z"/><path class="cls-174" d="M42.09,13.07c.35.03.74-.08,1,0,4.24,4.2-.95,2.93-4,1-1.88-.53-1.88-.95-2-1,1.25-.75,3.68-.87,5,0Z"/><path class="cls-187" d="M25.09,62.05c0,.44.04.87-.5,1h-7c-.71-.62-1.19-1.06-1.5-2,2.64-.11,6.25.3,9,1Z"/><path class="cls-64" d="M57.08,20.06c.9.25.88.59,0,1,.58.3.57.63,0,1-.29.93-.62.92-1,0-.12-.05.31-1.36-2-1-.07-.64.15-1.5,0-2l2-1c1.25-.02,1.47.95,1,2Z"/><path class="cls-137" d="M46.08,16.07l-1,1c-.27.62-.6.59-1,0-2.89.81-3.71.3-5-2v-1c.4.11.97-.12,1.5,0,.45.1,1.63,1.75,3.5,1l-1-2c1.64.51,2.09,1.82,3,3Z"/><path class="cls-137" d="M42.09,13.07c-1.63-.14-3.35.09-5,0l.5-1h4l.5,1Z"/><path class="cls-170" d="M47.08,18.07l-.5,1c-.29-.71-1.15-.79-1.5-1-.63-.33-.63-.67,0-1l1-1s.57-.22,1,.5c.25.42-.16,1.14,0,1.5Z"/><path class="cls-67" d="M158.06,36.06c.66.59,1.47,2.92,3,3,.67.33.67.66,0,1,.79,1.06.33,2.52-1,2-.79-2.67-3.09-4.72-5.51-5.84l.51-1.16c.21-.67.55-.64,1,0,.47.1,1.76.79,2,1Z"/><path class="cls-23" d="M51.08,22.06v1c-1.22.98-4.95.88-3-1,.96-.13,2.04.14,3,0Z"/><path class="cls-165" d="M52.08,14.07c-.18-.49-.82-.36-1-3l1,.5v2.5Z"/><path class="cls-74" d="M16.09,60.05c.86.3.85.63,0,1-.66-.04-1.34.04-2,0v-1c1.01-1.58,1.42-1.87,2,0Z"/><path class="cls-34" d="M1.1,58.05c-.05-.12-.78.52-1-2l1,.5v1.5Z"/><path class="cls-34" d="M.1,51.05c.04-.49-.04-1,0-1.5.25-.69.97-.45,1-.5v1.5l-1,.5Z"/><path class="cls-145" d="M15.09,30.06c.02-.33-.03-.67,0-1,.03-.35-.08-.73,0-1,.3-.54.64-.52,1,0-.15.32.15.96,0,1.5l-1,.5Z"/><path class="cls-143" d="M16.09,28.06c-.55-.3-.53-.64,0-1,.65-.89.96-.94,1-1v1.5c-.17.66-.98.45-1,.5Z"/><path class="cls-165" d="M53.08,2.07c.53-1.09.51-.69,1-1l-1,1Z"/><path class="cls-37" d="M27.09,12.07l1-1c-.07.03.38.5-1,1Z"/><path class="cls-37" d="M24.09,14.07c.67-1.03.58-1.4,2-2l-2,2Z"/><path class="cls-37" d="M23.09,16.07c.3-1.37.97-.94,1-1l-1,1Z"/><path class="cls-165" d="M53.08,16.07c-.03-.06-.43.36-1-1l1,1Z"/><path class="cls-91" d="M6.09,45.05v-1l1,.5c-.19.68-.72.38-1,.5Z"/><path class="cls-114" d="M6.09,46.05c-.24-.08-.66,0-1,0-.15-1.09.57-.82,1-1v1Z"/><path class="cls-114" d="M3.09,47.05l1-1c-.07.03.06.3-1,1Z"/><path class="cls-34" d="M4.09,61.05v1c-1.59-.88-2.08-1.48-3-3,1.31.19,1.67,1.74,3,2Z"/><path class="cls-74" d="M12.09,62.05v-1c.33.02.67-.02,1,0,.16,1.14-.75.85-1,1Z"/><path class="cls-4" d="M54.08,45.05l1,2c.9.24.87.58,0,1,.4.47.73.47,1,0,.37-2,2.71-1.07,4,0l3-3c-.78-.25-.76-.59,0-1,.28-.87.62-.86,1,0,1.31-1.32,1.71-.76,1,1-.12.32.13.77,0,1l-4,4c-2.15,1.19-4.45,1.31-7,1-2.01,1.81-2.46,1.61-2-1-1.13-1.14-.64-4.19,1-4l-1-1c-.86-.24-.7-1.46,0-2-.71-.21-.67-.55,0-1,.28-.87.62-.86,1,0,1.47-1.1,1.84,1.75,1,3Z"/><path class="cls-108" d="M126.06,31.06c.41.47.74.47,1,0,.44.09,1.87.87,2,1,.67-.74,1-.07,1,2,.81.61,1.47,1.6,2,3,.03.29.06.73,0,1l-1,1c-.84,1.1-.81,1.15-2,2-1.83.39-3.16.05-4-1-.87-.28-.86-.62,0-1,2.28-2.56,1.72-4.08-1.67-4.57l-.33-1.42c-1.68.02-1.68-.65,0-2,.63-.9,2.13-.73,3,0Z"/><path class="cls-102" d="M121.07,45.05c-.13.59-.33,1-1,1,.8.28.78.61,0,1-.28.87-.62.86-1,0-.74.83-1.07.5-1-1l-1.8,1.22c-1.58-1.56-2.98-1.96-4.2-1.22-.28.87-.62.86-1,0l-1,1c2.05.06,2.01,1.43,0,2,.85,1.67.52,2-1,1-.03-.05-.84.18-1-.5l1-4.5,3-2c.21-.09.65.02,1,0,1.46-.1,4.27-.27,5.5,0,.59.13,2.21,1.8,2.5,2Z"/><path class="cls-80" d="M54.08,51.05c-1.14,2.52-3.57,3.67-5.5,5-.83.06-1.69-.09-2.5,0-1.38-.33-2.71-.67-4-1-1.26-1.14-1.99-1.82,0-2,.3-.61.63-.6,1,0l.42-1c2.46-.2,4.99-.87,7.58-2,.28-.87.62-.86,1,0,.87-.06.99.88,2,1Z"/><path class="cls-62" d="M160.06,43.05c.48.31.46.64,0,1-.94.41-3.21,1.94-3.5,2-.99.21-5.02.22-6,0-.36-.08-.57-.81-1-1-.31-.14-.78.13-1,0-.87-.51-1.12-1.51-1.5-2l1-1c.31-.88.65-.88,1,0l1,1,.93-1c3.76.61,6.83.77,7.06-1-.87-.28-.86-.62,0-1,.79-1.18,1.46-.18,2,3Z"/><path class="cls-61" d="M41.09,55.05l-1,2c-.1.61.05,1.35,0,2h-1.5c-.68.25-.4.77-.5,1l-2,1c-.06-.05-.94-.05-1,0-1.06.49-2.01.72-3,0-.16-.07-.8-.05-1,0-.87-.28-.86-.62,0-1,.18-.22.18-.88,0-2,.15-.68.49-.63,1,0,.18-1.64,1.51-1.98,4-1,.31-.87.64-.87,1,0l2-2c-.85-.24-.83-.58,0-1,.49-3.24,3.22-1.31,2,1Z"/><path class="cls-103" d="M61.08,34.06c.21-.66.55-.62,1,0l2,2c.24.11.84-.18,1,.5.2,2.55,1.71,5.1,1,8-.17.68-.98.45-1,.5l-1-1c-.3-1.28-.63-2.62-1-4-.68-.22-.64-.56,0-1l-1-1c-.86-.29-.85-.63,0-1l-1-1c-.31.61-.65.61-1,0-.68-.18-1.01-.51-1-1-2.18-1.2.34-1.99,2-1Z"/><path class="cls-6" d="M154.06,37.06l-1.35,1.96c-2-.59-3.55.42-4.65,3.04l-1,1c-.04-.06-.79.34-1-1-1.76-2.57-.21-6.46,3-7,1.86-.49,5.03.2,5,2Z"/><path class="cls-71" d="M89.07,38.06c1.56,1.22,1.23,1.89-1,2,1.19.5,2.59,2,1,3-.28,1.21-1.09,1.4-2,1-.3.57-.63.56-1,0-.77-1.37-1.35-2.3-1-4-2.31-1.62-.47-5.58,2-3,1.85-2.14,2.2-1.72,2,1Z"/><path class="cls-87" d="M121.07,52.05c-.28.14-.77-.14-1,0l-1,1c-2.89,1.22-4.03,1.65-7,0-2.12-1.85,1.48-2,3-1-.29-.99.73-1.47,3.06-1.44.02-2.82,2.89-.36,2.94,1.44Z"/><path class="cls-26" d="M129.06,41.05s.17.85-.5,1c-1.03-.2-2.75.3-3.5,0-.07-.03.36-.43-1-1-1.4-1.84-.85-2.37,1-1,1.13-.13,2.35.09,3.5,0l.5,1Z"/><path class="cls-82" d="M112.07,51.05c.25-.86.59-.84,1,0,.11-1.78,3.19-.76,2,1-.74.15-1.68-.1-2.5,0l-.5,1c-1.68-.93-1.96-1.55-3-3-.18-1.16.97-.93,1-1l2,2Z"/><path class="cls-171" d="M42.09,55.05c1.15.08,2.34-.05,3.5,0l.5,1c-2.23.24-4.04-.55-6,1,.08-.48-.09-1,0-1.5l1-.5c.31-.84.64-.84,1,0Z"/><path class="cls-154" d="M97.07,39.06c.28-.87.62-.86,1,0,.7.14.65.49,0,1-.04.35.09.74,0,1l-3,3c-.27.09-.65-.06-1,0-.67-.71.11-1.83.85-2.35.63-.43-2.1,3.29-3.85,1.35-.64-.3-.63-.63,0-1l2-1c-.98-2.04,1.85-3.27,3-2h1Z"/><path class="cls-7" d="M122.07,46.05h1c-.09.98.16,2.08,0,3-.98.95-1.75.22-2-1-1.42,1.22-1.76.7-1-1-.09-.3.07-.68,0-1h2Z"/><path class="cls-73" d="M123.07,49.05c-.24,1.36-.97.93-1,1-.29.64-.63.63-1,0-.66-.33-.66-.66,0-1-.87-.28-.86-.62,0-1,.4.3,1.44.87,2,1Z"/><path class="cls-154" d="M93.07,44.05c.61.3.6.63,0,1-.33.02-.67-.03-1,0s-.67.01-1,0c-1.92-1.63.49-2.04,2-1Z"/><path class="cls-27" d="M132.06,37.06l-1-.5c.12-.93-.54-1.78-1-2.5.3-.63.63-.62,1,0,.53,1.29.83,1.37,1,3Z"/><path class="cls-27" d="M131.06,39.06l1-1c-.3,1.36-.96.94-1,1Z"/><path class="cls-46" d="M61.08,50.05l4-4c-1.04,1.75-2.21,3-4,4Z"/><path class="cls-40" d="M122.07,51.05c-1.05.6-1.44.13-1-1h1c-.12.3.13.74,0,1Z"/><path class="cls-123" d="M119.07,47.05l2,2c.05.33-.06.68,0,1,.13.7.07,1.11,1,1-.39.8-.2.61-1,1l-.5-1c-2.19-.32-3.57.61-5.5,1l-.5-1c-.51-.09-1.04.09-1.5,0-1.13-.56-1.08-1.37,0-2l.84-.89c1.34,1.39,4.25,2.54,3.16.89-1.95-1.36-1.88-3.24,1-3,.22.14,1.17-.15,1,1Z"/><path class="cls-123" d="M119.07,53.05l1-1c-.06.04.35.43-1,1Z"/><path class="cls-187" d="M27.09,62.05c-.33.03-.67-.02-1,0-1.35-1.52-.79-2.01,1-1v1Z"/><path class="cls-45" d="M57.08,3.07c.41.07.76-.12,1,.5v1.5h1v-2h1c.14,1.69.8,2.81,1,5-.74.88-.83,3.22,0,2,.01.05.82-.19,1,.5.53,2.06-.94,2.69-1,3-.47,2.6.16,4.93-2,7.5l2,1c.8.29.79.62,0,1-.61,1.25-2.28,1.91-5,2,.9.1.85.45,0,1-.28.87-.62.86-1,0-.61-.3-.6-.63,0-1-.42-1.51.69-1.82,1-3,.16.07.79.05,1,0,.49-.33.49-.67,0-1-.08-.32.1-.72,0-1l1-1c-1.43-.39-1.31-1.15,0-2-.75-.78-.77-2.23,0-3-1.82-.73-2.01-2.24,0-3-2.3-3.7-2.63-6.36-1-8Z"/><path class="cls-156" d="M135.06,22.06l2,1c.8.62,1.13,1.28,1,2,.69.27.67.61,0,1-.3.64-.63.63-1,0-2.36,1.02-3.43.75-3-2-.4-.49-.73-.49-1,0l.05,4.04c2.36-.32,3.93.36,3.95,2.96.63.33.63.66,0,1,.87.28.86.62,0,1-.32.05-.68,0-1,0l-2-1c-.39-.48-.72-.48-1,0-.75.48-2.5-.1-3-1-.43-2.26-1.45-3.98-1-6.5.07-.39,1.55-.89,1-2.5l2.5-1c.74,1.32,1.65.78,2.5,1Z"/><path class="cls-120" d="M123.07,33.06c2.29,1.56,1.73,2.56-1,2-.24,1.05-.24,2.05,0,3l-1,1s-.59.22-1-.5c-.13-.23.14-.71,0-1-.48-1-.71-.67-1-2.5-.05-.29-.04-.71,0-1l1-2c.31-.08.69.09,1,0l1-1c.29-.06.66.02,1,0-.11.62.13,1.43,0,2Z"/><path class="cls-38" d="M152.06,34.06c1.03.34,2.03.68,3,1,1.44,2.74,5.96,2.85,5,7-.1.28.08.68,0,1l-1-.5c.65-2.18-.8-2.23-1-2.5-1.36,1.25-1.98.62-1-1l-3-2c-.86-.35-2.08-1.73-4.5-1l-.5-1c-.07-.38.26-.71,1-1,.63-.09,1.35,0,2,0Z"/><path class="cls-76" d="M76.08,29.06c-.28.07-.66-.02-1,0-.67,1.08-1.4,1.14-2,0-2.4-.2-2.36-1.36,0-2-.11-1.32.96-1.8,2-1,.48.64,1.58.78,1,3Z"/><path class="cls-72" d="M74.08,25.06c-.28.87-.62.86-1,0-1.67,1.74-5.79-.26-7-2h-1c-.71,1.82-4,.93-3-1,.14-.7.49-.65,1,0,2.21.24,5.5.43,7.5,1,.46.13,1.33,1.67,3,1,.69.23.46.97.5,1Z"/><path class="cls-52" d="M61.08,10.07v2h-1v-3.5l1-.5c.06.65-.14,1.48,0,2Z"/><path class="cls-125" d="M63.08,22.06c-.33-.04-.67.02-1,0-.25.89-.58.87-1,0-.49-.08-1.06.16-1.5,0l-.5-1h3.5l.5,1Z"/><path class="cls-33" d="M75.08,26.06c-.86-.04-.99.82-2,1-.19.9-.53.87-1,0-2.44-1.51-1.74-2.3,1-2h1c.6.45.55.4,1,1Z"/><path class="cls-150" d="M126.06,31.06c-.92-.11-2.05-.06-3,0,.07-.41-.12-.84.5-1h2c.68.17.39.76.5,1Z"/><path class="cls-116" d="M141.06,30.06c-.3.61-.63.6-1,0-1.56-.39-1.29-2.25,0-3,.3-.62.63-.6,1,0-.11.97.18,2.12,0,3Z"/><path class="cls-168" d="M137.06,23.06c-.32-.15-.96.15-1.5,0l-.5-1c.43.11,1.02-.17,1.5,0,.69.25.45.97.5,1Z"/><path class="cls-12" d="M139.06,25.06c-.28.87-.62.86-1,0-.14-.5-.9-1.95-1-2,1.3.9,1.24,1.15,2,2Z"/><path class="cls-169" d="M140.06,26.06c-.33.85-.66.85-1,0-.64-.3-.62-.63,0-1,.12.13.43.25,1,1Z"/><path class="cls-150" d="M121.07,32.06c-.11-.95.32-.86,1-1,.13,1-.39.83-1,1Z"/><path class="cls-50" d="M126.06,31.06c.34.04.7-.06,1,0l-.5,1c-.68-.19-.38-.73-.5-1Z"/><path class="cls-114" d="M10.09,48.05c6.47,3.03,3.12,12.45-4,11-.32-.11-.77.13-1,0l-2-2-1-1c-.15-.79-.09-2.13,0-3,.28-.87.62-.86,1,0,1.52-.12,2.85-.12,4,0q.85.64,0,0c-1.41-1.85.01-2.61,2-2l-1-1c-1.54,2.15-3.21,3.15-5,3-.79-.47-.73-1.48,0-2,2.22-3.17,2.87-3.43,7-3Z"/><path class="cls-58" d="M14.09,46.05c.14-2.65,1.03-2.47,2,0,1.31-1.16,1.82-.6,1,1,1.44,1.21,1.77,2.21,1,3l-1,1c.86.32.86.65,0,1,.39,1.88.06,4.21-1,7,.91.1.86.45,0,1-.65-.06-1.34.03-2,0l-1-.5v-1.5c-2.59-.53-1.23-2.74,1-1q.71,1.12,0,0c-2.47-.23-2.61-.88-.72-2.27.81-2.07-.89-6.37-3.28-6.73-.23-.53.2-.8-1-1-.02-.66.04-1.34,0-2,1.28-2.84,3.91-1.4,5,1Z"/><path class="cls-74" d="M14.09,57.05c-1.14-.18-.95.95-1,1-1.88,1.64-3.89,2.64-6.5,2-.68-.17-.45-.98-.5-1l4-1.5v-1.5l3-1.5c.57-1.99-.88-2.55-1-3-.41-1.5.96-2.96-1.5-2.5-.68-.25-.4-.76-.5-1,.51.05,1.09-.16,1.5,0,.51.2,2.43,3.17,2.5,3.5.32,1.48-.44,4.57,0,5.5Z"/><path class="cls-34" d="M3.09,53.05h-1c.05-.49-.06-1,0-1.5.25-.69.97-.45,1-.5.05.65-.11,1.41,0,2Z"/><path class="cls-34" d="M3.09,57.05c-.04-.06-.75.35-1-1,1.13-.18.95.95,1,1Z"/><path class="cls-74" d="M5.09,59.05c-1.39-.81-1.23-.99-2-2,.43.39,2.13.78,2,2Z"/><path class="cls-59" d="M22.09,25.06c.85,1.11,1.85,2.11,3,3,.25-.89.92-1.56,2-2-.87-.28-.86-.62,0-1,4.96-.51,8.14,4.33.88,6.01l-1.88,1.98c-.6.59-.6.92,0,1,1.14.89-.7,2.46-2,2-.54.91-3.01.7-4,0v-1.5c-1.51-1.29-1.14-4.35-1-6.5.02-.35-.1-.85,0-1l2-2c.17-.12.64.07,1,0Z"/><path class="cls-35" d="M24.09,21.06c-.22,1.36,0,2-1.5,3l-1.5-1.5,2-1.5h1Z"/><path class="cls-29" d="M29.09,24.06c1.88.63,3.21,1.63,4,3,2.04.45.72,2.35-1,3-.24,1.54-1.82,2.18-3,1-1.04,5.86-2.38,7.86-4,6-.29.65-.63.63-1,0-.87-.28-.86-.62,0-1l2-2c-.87-.28-.86-.62,0-1v-3h4l2-2-3.5-3c-.41-.16-.99.06-1.5,0-1.19-.13-2.78-.09-4,0l.5-1c1.79.15,3.78-.22,5.5,0Z"/><path class="cls-145" d="M19.09,27.06l2-2c-.12.08-1.92,1.88-2,2Z"/><path class="cls-161" d="M34.09,15.07c-.3,1.88-.97,2.55-2,2-.28.85-.61.84-1,0-1.6-1.44-1.93-1.11-1,1,3.83,1.33-1.98,5.49-5,3-.13-.84-.08-2.1,0-3,.03-.34-.07-.71,0-1l1-1c.16-.23-.17-.83,0-1l3-2c.25-.11.67.08,1,0,1.28-.02,3.81.91,4,2Z"/><path class="cls-37" d="M29.09,13.07c-.05.02.22.61-.5,1-.36.2-1.97.45-2.5,1l1.5-2h1.5Z"/><path class="cls-37" d="M25.09,17.07c.3-1.37.96-.94,1-1l-1,1Z"/><path class="cls-179" d="M16.09,34.06c1.42.93,1.99,2.52,1,4-.55,1-1.77,1.87-3,2-.86,3.82-5.25,5.46-5,1-.44-1.3.57-2.52,2-2,.1-1.77.73-4.79,3-5,.33,0,.68-.04,1,0,.3-.88.63-.87,1,0Z"/><path class="cls-32" d="M20.09,36.06h4v1c-1.2.97-3.76.63-5,0-.33.87-.67.87-1,0l-2-3c-.26-.09-.65.05-1,0l-1-2c.66-.55,4.28,1.45,5,2.5.22.31-.42,1.63,1,1.5Z"/><path class="cls-89" d="M39.09,15.07c2.01.13,2.01.85,2.5,1,.63.19,1.43-.21,2,0,.7.26.45.98.5,1l1,1c-.03.33.03.67,0,1-.5,2.41-4.88,2.53-6,0-.96-1.28-2.29-1.62-4-1-.72-.29-.7-.62,0-1,1.39-1.12.32-2.24,4-2Z"/><path class="cls-16" d="M34.09,17.07c1.14.33.2,1.59-1,1-1.36.94-1.88.38-1-1l2-2c.1.6-.05,1.34,0,2Z"/><path class="cls-10" d="M35.09,18.07c-.44,1.74-.78,2.68-2,1-.9-.26-.88-.59,0-1,1.14.18.95-.95,1-1,.19-.16.8.16,1,0v1Z"/><path class="cls-97" d="M45.08,19.06c-.05.66.02,1.34,0,2l-3,1.5,1,1.5c2.75.95-.62,3.03-2,1-.52,1.99-2.16,1.66-3,0-.06,1.12-1.05,1.13-2,1-.27.86-.61.85-1,0-.82-.26-1.28-1.12-1-2-.85-.24-.82-.57,0-1,1.05-.96,2.05-1.96,3-3-.25-.3.08-.63,1-1,.31-.83.64-.82,1,0,1.95-.05,2.35-1,2.5-1,.2,0,1.69,1.76,3.5,1Z"/><path class="cls-109" d="M46.08,23.06c1.01-.41,2.01-.08,3,1,4.1,2.43-3,3.52-4,2-1.28,1.96-2.28,2.29-3,1-.59-.13-1-.33-1-1-.87-.28-.86-.62,0-1,.48.07,1-.08,1.5,0,.7-.26.45-.97.5-1,.98-.49,2.05-1.47,3-1Z"/><path class="cls-101" d="M51.08,23.06v1c-.66,2.5-1.11,2.41-2,0-2.22.78-2.84-.92-3-1l1-1c.33-.03.67.05,1,0,.07.42-.11.86.5,1h2.5Z"/><path class="cls-23" d="M46.08,23.06l1-1-1,1Z"/><path class="cls-83" d="M57.08,3.07l2,7.5c-.17.68-.98.45-1,.5-.84.82-1.5,1.82-2,3,.86.26.7,1.42,0,2-.3.55-.63.54-1,0-.27-.38-.72-1.61-1-2,.81-2.4-1.49-4.81-1-6.5l2-4.5c.56-.1,1.44-.1,2,0Z"/><path class="cls-45" d="M59.08,2.07l-1-1c.15.11,1.17-.15,1,1Z"/><path class="cls-21" d="M58.08,17.07c-.03.66.01,1.34,0,2l-1,1c-.05-.12-.61.44-1-2-.05-.32.02-.67,0-1,.27-.85.6-.84,1,0,.28-.87.62-.86,1,0Z"/><path class="cls-64" d="M56.08,17.07c-1.33-.4-.82-.76-1-1h1c.65.33.65.67,0,1Z"/><path class="cls-117" d="M51.08,24.06c.18.07,1.61,1.53,3,2,.87.25.85.58,0,1-.63,1.56-3.56,2.52-5,1l-.93,2.09c2.46,1.89,2.31,5.83-1.07,5.91-2.3.3-3.64-1.7-4-6-.89-.31-.89-.65,0-1-.38-1.17.29-2.17,2-3,.05-.02-.18-.83.5-1,.88-.21,2.12.21,3,0,.68-.17.45-.98.5-1,.29-.11,1.7-.11,2,0Z"/><path class="cls-20" d="M55.08,26.06c-.28.7-.62.68-1,0,.1-.75.11-1.1,1-1v1Z"/><path class="cls-138" d="M9.09,41.05c.11.24-.18.83.5,1l2-1,1.5,1c-.55-1.94.71-1.71,1-2,.55.3.54.63,0,1,1.72.13.8,3.81,0,5-.73-.18-1.06-.41-1.5-1-.84,1.36-1.59.32-3.5,0-.13-2.21-.71-3.14-1-5,1.09-.15.82.58,1,1Z"/><path class="cls-145" d="M10.09,36.06v-1.5l1-.5c.52,2.07-.94,1.88-1,2Z"/><path class="cls-182" d="M23.09,61.05c2.02-1.68,3.68-1.4,2,1-3.67.05-6.5-.86-9-1-.08-.26.04-.65,0-1,2.2.11,4.53.45,7,1Z"/><path class="cls-125" d="M57.08,22.06v-1l1,.5c-.2.64-.62.41-1,.5Z"/><path class="cls-146" d="M45.08,17.07l1-1-1,1Z"/><path class="cls-97" d="M45.08,18.07c-.26-.15-1.16.14-1-1,.25.11.67-.08,1,0-.02.33.03.67,0,1Z"/><path class="cls-95" d="M57.08,31.06l1,2h1c.65.05,1.37-.09,2,0,.87.28.86.62,0,1-2.52.22-1.88.95-2,1-2.75.92-4.75,3.26-6,7h-1c-2.06-.81-2.06-2.47,0-5-.66-.32-.66-.65,0-1l1-1c.28-.87.62-.86,1,0l1-1c-.86-.27-.84-.61,0-1l1-1c-1.94,0-1.86-1.5,0-2-.46-1.04-.02-1.45,1-1,.73.62.74,1.34,0,2Z"/><path class="cls-14" d="M73.08,29.06c.66-.02,1.34.05,2,0-.45,2.41-2.38,1.62-3.5,2-.41.14-.62.91-1,1-.7.16-1.68-.08-2.5,0-.43-1.02.23-2.14,1-3,1.09-1.28,3.27-1.64,4,0Z"/><path class="cls-9" d="M96.07,34.06c.52.64.52,1.31,0,2-.31,1.9-1.09,1.79-2,0-1.52,1.76-3.18,2.43-5,2l-2-1c.67-1,1.37-1.97,2-3h1c-.27,2.23.06,2.23,1,0,.05-.01-.19-.83.5-1s3.29-.17,4,0c.68.16.45.97.5,1Z"/><path class="cls-85" d="M69.08,29.06c0,.98,1.1,1.11,1,2l-2,1c-.32.03-.68.03-1,0-.87-.28-.86-.62,0-1-1.38-.45-.29-1.79,1-2,.18-.9.52-.86,1,0Z"/><path class="cls-15" d="M58.08,32.06v1c-.37-.09-.8.15-1-.5-.16-.42.07-1,0-1.5.28-.87.62-.86,1,0,.05.32-.04.67,0,1Z"/><path class="cls-15" d="M57.08,29.06c-1-.06-.84.3-1,1-1.85,1.38-2.38.8-1-1l1-1h1v1Z"/><path class="cls-90" d="M123.07,37.06c2.25-.38,2.92.29,2,2v1c-.75.09-1.1.12-1,1-1.7-.71-1.28.3-3-2l1-1-1-2.5c.18-.68.97-.45,1-.5,1.95.38,2.68.9,1,2Z"/><path class="cls-113" d="M122.07,46.05l-.5,1-.5-1v-1c.19.13,1.17-.15,1,1Z"/><path class="cls-30" d="M98.07,35.06v1c-.36,1.04-.69,2.04-1,3l-.5,1-.5-1c-1.86.21-1.38-2.24,0-3-.13-.77-.43-1.02-1-1.5l1-.5c.45.32,1.56,1,2,1Z"/><path class="cls-152" d="M91.07,34.06v2h-2l1-2c.32-.06.69.08,1,0Z"/><path class="cls-107" d="M59.08,35.06c1.14-.18.92.9,1,1-.33.84-.67.84-1,0-3.53,4.59-2.6,7.4,1,11,.72.29.7.62,0,1-1.03.2-2.83.07-4,0-.25.46-.59.43-1,0-.04-.33.06-.68,0-1l-1-2c-.29-2.37-.48-1.94-1-3-.7-1.42.84-2.02,1-2.5.2-.58-.18-1.36,0-2,.17-.58,2.71-2.1,3.5-2.5.45-.23,1.12.15,1.5,0Z"/><path class="cls-31" d="M52.08,42.05c-.02.33-.01.67,0,1-.28.87-.62.86-1,0-.97.45-1.41,0-1-1-.74-.26-1.07-.59-1-1-.87-.28-.86-.62,0-1-1.7,0-1.37-.67,1-2-.55-.85.09-1.08,1-1,.28-.87.62-.86,1,0,.03.04,1.05-.12,1,.5-1.57,1.04-.88,2.75-1,4.5Z"/><path class="cls-107" d="M52.08,45.05l1,1c-.03.9-1.71,2.15-1,4h-1c-2.97-.28-2.66-1.8,0-3-1.49-.28-1.9-1.92,0-2-1.14-1.3-1.14-1.96,0-2h1c.02.66-.1,1.4,0,2Z"/><path class="cls-46" d="M64.08,44.05h-1v-2c-.88-.19-.84-.52,0-1v-1l1,.5v3.5Z"/><path class="cls-68" d="M59.08,36.06c1.27,1.5,1.81,3.59,1.64,6.26l2.36-.26c-.03.66.08,1.36,0,2-.05.35.08.73,0,1-.87,1.33-1.87,2-3,2l-5-2.5c.23-2.78-.95-5.81,1.5-7.5l1,1-.5-2c.66-.02,1.34.04,2,0Z"/><path class="cls-31" d="M55.08,47.05l-1-.5c-.07-.5.06-1.01,0-1.5l1,.5c.09.5-.08,1.04,0,1.5Z"/><path class="cls-31" d="M53.08,46.05c-.91.11-.88-.28-1-1,.8-.1,1.03.22,1,1Z"/><path class="cls-46" d="M60.08,48.05v-1l3-2c-.34,1.1-1.88,2.78-3,3Z"/><path class="cls-46" d="M55.08,48.05c.33.02.67-.02,1,0l-.5,1-.5-1Z"/><path class="cls-150" d="M123.07,33.06l5,1,1,5h-4c-1.22.08-1.56-1.45-2-2q1.06-.74,0,0c-.04-.05-.84.16-1-.5v-1.5c.32-.43.87-1.44,1-2Z"/><path class="cls-157" d="M118.07,46.05l-1,3c-1.15,1.49-3.75-.05-3-2-1.22.61-1.94.45-2-1l.5-1c2.2-.15,3.67-.17,5.5,1Z"/><path class="cls-93" d="M114.07,47.05c.76,1.11.22,1.61-1,2-.49,1.39-1.12,1.09-2,0-.33.69-.67.69-1,0,.18-.46-.18-1.53,0-2l1-1h2.5c.69.26.46.96.5,1Z"/><path class="cls-177" d="M121.07,48.05v1l-2,1v-3h1c.4,1.33.78.83,1,1Z"/><polygon class="cls-69" points="121.07 46.05 120.07 46.05 121.07 45.05 121.07 46.05"/><path class="cls-123" d="M110.07,47.05l1-1c.18,1.16-.97.93-1,1Z"/><path class="cls-39" d="M45.08,49.05c-3.8-2.24,4.64-7.26,4.64-1.58,0,.22-1.57-3.39,1.36-.42v3c-.98,3.03-3.69,2.56-5.5,4l-2.5-1-1-1c-1.45,2.13-3.11.25-2-2-1.44-1.14.62-4.07,2-3,.87.28.86.62,0,1,3.2,2.35,4.2,2.68,3,1Z"/><path class="cls-124" d="M42.09,52.05c.63.3.62.63,0,1v2c-.35-.02-.74.08-1,0-.05-.02.17-.83-.5-1h-1.5c-.86-.33-.86-.67,0-1-.82-.78-.62-2.09,0-3,.28-.87.62-.86,1,0-.02,1.2,1.29,1.53,2,2Z"/><path class="cls-171" d="M43.09,53.05h-1v-1c.21.14,1.17-.15,1,1Z"/><path class="cls-173" d="M154.06,37.06c.38.16,1.11-.26,1.5,0,.86.57,1.34,1.85,1.5,2l-2,2c-.41,1.6-2.07,1.94-5,1-.27.62-.6.6-1,0-.34.05-.72-.08-1,0,.17-1.12-.11-2.36,0-3.5,1.43-2.17,3.6-1.44,6-1.5Z"/><path class="cls-133" d="M155.06,41.05c.55-1.78,1.61-1.18,3,0v2c-3.45.02-4.47,2.11-8,0-.63-.3-.62-.63,0-1v-2c1.75,1.44,3.13.75,5,1Z"/><path class="cls-25" d="M157.06,39.06c.36.32.46.27,1,1v1l-1.5,1c-.49-.55-.72-.89-1.5-1-.31-1.18-1.42-1.49-1-3,1.51-.42,1.82.69,3,1Z"/><path class="cls-183" d="M147.06,43.05c-.13-1,.4-.83,1-1-.11.73-.1,1.11-1,1Z"/><path class="cls-6" d="M150.06,43.05c-.25-.15-1.16.14-1-1,.32-.05.67.04,1,0v1Z"/><path class="cls-41" d="M35.09,49.05c1.59-1.49,2.59-.49,3,3,.37-.11.7.23,1,1-.02.33.04.67,0,1-.04.35.09.74,0,1l-2,2c-.23.13-.68-.12-1,0-2.49.83-8.58-2.28-5-4-2.19-1.96-1.61-4.91,1-3,1.47.42,2.47.09,3-1Z"/><path class="cls-189" d="M31.09,53.05c.17.34-.09,1.37,0,2h4l1,2c-.05.02.18.83-.5,1-.93.23-2.38-.09-3.5,0-3.57-.48-4.49-1.11-2.75-1.88l-1.25-2.11c-1.91-.56-1.92-1.44,0-2-.54-.28-.51-.61,0-1,1.91-2.01,2.91-1.34,3,2Z"/><path class="cls-164" d="M28.09,54.05c2.59.5,1.18,3.68,3.5,3l.5,1c-.33.03-.67-.02-1,0-.68.58-1.01,1.25-1,2-1-.22-1.15-1.02-2-1v1.5c-.25.68-.77.4-1,.5-1.26.55-.77.69-1,1-.33.02-.67,0-1,0,0-.47.04-.8-.5-1-.5-.05-1.01.04-1.5,0-.87-.28-.86-.62,0-1,.21-.88.54-.85,1,0l2-2c-.61-.31-.61-.64,0-1,.28-.87.62-.86,1,0l1-2c-.85-.31-.84-.64,0-1Z"/><path class="cls-136" d="M31.09,58.05l.5,1h2.5v1c-.99-.03-2.01.05-3,0-.34-.02-.71.06-1,0l-1-2c.66-.01,1.34.03,2,0Z"/><path class="cls-171" d="M37.09,57.05l2-2c-.45,1.36-.99,1.4-2,2Z"/><path class="cls-51" d="M61.08,37.06c.3-.57.63-.56,1,0,.08.28-.05.65,0,1,.57.27.55.61,0,1,.36.49.7,1.15,1,2,.01.33.02.67,0,1l-1,2.5-3,1.5-.5-5,.5-5c.32-.02.68-.03,1,0l1,1Z"/><path class="cls-68" d="M63.08,40.06c.03.33-.01.67,0,1l-1-.5c-.05-.5.05-1.01,0-1.5.3-.64.63-.63,1,0,.07.29-.03.66,0,1Z"/><path class="cls-95" d="M62.08,37.06h-1c-.6-.3-.59-.63,0-1,.89.27.73.11,1,1Z"/><path class="cls-95" d="M64.08,35.06v1c-.9-.4-1.95-.9-2-2,1,.22,1.16,1.02,2,1Z"/><path class="cls-68" d="M61.08,37.06c-1.14.18-.92-.9-1-1,.35.04.73-.08,1,0v1Z"/><path class="cls-95" d="M63.08,39.06h-1c-.03-.33.05-.67,0-1,.96-.12.85.34,1,1Z"/><path class="cls-54" d="M91.07,43.05c.48-.09,1.06.17,1.5,0,1.02-.41,1.56-2.68,3.5-2,.16.13-1.66,2.58-2,3-.32.05-.67-.03-1,0-.49.05-1-.05-1.5,0l-.5,1c-1.55-.05-3.92.6-4-1l.5-1c.5-.06,1.01.06,1.5,0,.25-.88.58-.86,1,0,.28-.56.61-.54,1,0Z"/><path class="cls-1" d="M94.07,36.06c2.85,1.23-.46,4.08-3,5-1.16,1.53-2.25.23-3-1,.07-.45.78-1.75,1-2,1.44-1.67,3.01-1.88,5-2Z"/><path class="cls-158" d="M91.07,41.05c1.28-1.74,1.95-1.74,2,0-.86.61-.11.51-2,1l-1,1c-.33.05-.67-.04-1,0-.42-1.24-1.24-1.39-1-3h1.5c.41.6.81.79,1.5,1Z"/><path class="cls-24" d="M114.07,47.05c.29.29,1.55.06,1,2h2l1,1c-2.2.7-3.62-.71-5-1-.05.66.02,1.34,0,2-.34-.06-.72.09-1,0-.99-.62-1.33-1.29-1-2,.62-.06,1.46-.11,2,0,.04-.49-.04-1,0-1.5l1-.5Z"/><path class="cls-123" d="M112.07,51.05c-.94-.29-1.92-.97-2-2,.33-.02.67.03,1,0l1,2Z"/><path class="cls-66" d="M96.07,36.06c.16.93-.09,2.03,0,3-.18-.19-2.36,1.55-3,2-.64-.08-1.5.15-2,0,.31-1.18,1.42-1.49,1-3h2v-2c.66-.04,1.34.02,2,0Z"/><path class="cls-42" d="M98.07,39.06h-1v-2.5l1-.5c-.02.99.03,2.01,0,3Z"/><path class="cls-60" d="M58.08,11.07c-.21.44.02,2.11,0,3-.28.87-.62.86-1,0-.28.87-.62.86-1,0-.14-.76-.43-1.03-1-1.5l1-1-2-4.5,4,4Z"/><path class="cls-125" d="M61.08,23.06c1.82.33,2.82,1,3,2l-2,1c1.22,1.71.71,2.27-1,1-1.5-1.3-2.95-2.42-5-2,.42-1.21,3.7-2.61,5-2Z"/><path class="cls-181" d="M65.08,23.06v1c.87.28.86.62,0,1-.2.89-.54.86-1,0-.15-.04-1.67-.68-2.5-1-.7-.27-.45-.98-.5-1v-1c.32.05.67-.02,1,0l.5,1c.81.1,1.74-.14,2.5,0Z"/><path class="cls-3" d="M56.08,26.06c-.05.66.1,1.39,0,2-.12.72-.09,1.11-1,1-.29-.55-.62-1.21-1-2,.03-.33-.04-.67,0-1,.29.1.69-.07,1,0h1Z"/><path class="cls-83" d="M58.08,17.07h-1c-.87-.29-.71-2.28,0-3h1c-.03.99.05,2.01,0,3Z"/><path class="cls-125" d="M57.08,20.06l1-1-1,1Z"/><path class="cls-132" d="M134.06,24.06c1.16.66,2.5.84,3,2l1,1c1.96.9,1.22,3.88-1,4-.99-.36-1.75-.72-2.5-1-.56-.21-1.36.18-2,0-1.97-.57-2.5-5.02.5-6,.29-.57.62-.55,1,0Z"/><path class="cls-47" d="M139.06,26.06c.81,1.33.37,1.83-1,1-.57-.27-.54-.61,0-1,.03-.27.07-.75,0-1h1v1Z"/><path class="cls-168" d="M134.06,24.06c-.31.07-.7-.1-1,0l.5-1,.5,1Z"/><path class="cls-169" d="M138.06,27.06c-1.09.15-.82-.58-1-1h1c-.04.33.03.67,0,1Z"/><path class="cls-119" d="M134.06,32.06h-1l.5-1c.64,0,.45.98.5,1Z"/><path class="cls-17" d="M138.06,32.06h-1c.06-.32-.08-.69,0-1,1.86-1.34,2.42-.81,1,1Z"/><path class="cls-63" d="M121.07,39.06l1-1-1,1Z"/><path class="cls-151" d="M72.08,27.06c.3-.08.67.06,1,0v2c-1.32.03-2.68-.07-4,0-.76-1.1-.39-2.44,1-2,.56-1.75,1.41-1.71,2,0Z"/><path class="cls-141" d="M73.08,25.06l-1,2c-.54.14-1.35-.07-2,0l-1-1c-.33.86-.66.86-1,0l-2-1c-.32.85-.65.85-1,0v-1c.13-.59.33-1,1-1,2.09.41,4.82,1.82,7,2Z"/><path class="cls-100" d="M65.08,24.06v-1c.32.06.68-.06,1,0l-1,1Z"/><path class="cls-127" d="M140.06,27.06c.07.99-.04,2.01,0,3l-2,2c.14-1.05-.5-.82-1-1,.27-.99.91-1.23,1-1.5.22-.69-.23-1.92,0-2.5.03-.07.94-.96,1-1,.18-.13.67.08,1,0,.02.33-.02.67,0,1Z"/><path class="cls-13" d="M8.09,50.05c.65.13,1.08.24,1,1-.53.43-1.46,1.47-2,2-.04.04-.51-.21-1,.5-.22.32-.16,1.92-1.5,2.5-1.54-.99-1.25-1.7-1.5-3l2.5-3c.84,0,1.67.01,2.5,0Z"/><path class="cls-74" d="M7.09,53.05h2v1c-1.1.1-2.08.21-2-1Z"/><path class="cls-53" d="M8.09,50.05c.66,0,1.34,0,2,0,.18,1.15-.87.9-1,1l-1-1Z"/><path class="cls-129" d="M24.09,39.06c2.91,1.98,3.95,10.48,0,9-1.51.38-3.35.19-5,0-.47,1.48-1.59.29-2-1-1.22-.69-.93-.97-1-1-3-1.62-.93-5.73,2-6,.18-.9.52-.87,1,0l1-1c.93-.9,2.82-.58,4,0Z"/><path class="cls-49" d="M19.09,48.05c1.51-1.55,3.17-1.22,5,1,2-1.82,2.46-1.61,2,1,1.39,1.85.82,2.39-1,1-.71,2.66-5.11,1.74-6,0-1.1.46-1.54.05-1-1-.09-.1-.29-1.28-1-1.5v-1.5c.52.29,1.57.69,2,1Z"/><path class="cls-106" d="M18.09,40.06c-1.54,2.13-2.53,3.09-2,6-.42-.17-1.42.14-2,0l-1-2.5,1-2.5c.44-1.14,1.78-2.16,3-2,1.16-.67,1.47-.21,1,1Z"/><path class="cls-78" d="M18.09,52.05c4.17-.11,5.5.56,4,2-2.04.71-3.37,2.38-4,5,.1,1.15-1.19.78-2,0-.08-1.69-.33-5.14,0-6.5.17-.68.98-.45,1-.5.28-.87.62-.86,1,0Z"/><path class="cls-184" d="M19.09,51.05c1.24,1.24.69,1.57-1,1h-1c.11-.31-.12-.74,0-1l1-1c.05.05,1.18-.13,1,1Z"/><path class="cls-187" d="M18.09,59.05c1.58-1.01,3.41-1.2,5,1v1c-1.46-.12-3.08.18-4.5,0-.14-.02-.62-.83-2.5-1-.03-.33.02-.67,0-1,.64.08,1.52-.15,2,0Z"/><path class="cls-148" d="M14.09,57.05c.06.12,1.52-.07,1,2h-1v-2Z"/><path class="cls-121" d="M17.09,51.05c.18-.37-.11-1.15,1-1l-1,1Z"/><path class="cls-2" d="M27.09,26.06v2h-2c.17-.34-.09-1.37,0-2h2Z"/><rect class="cls-186" x="22.09" y="33.06" width="4" height="1"/><path class="cls-134" d="M32.09,25.06c1.41-1.32,1.58-.81,1,1,.77.29.76.62,0,1l-4-3c.62-1.64,1.62-1.31,3,1Z"/><path class="cls-134" d="M33.09,18.07c.1.31-.1.72,0,1-.86,1.19-.7,3.08,0,4.39l-1.01.61c-2.86.74-1.52-2.17-1.44-2,.55,1.19-.37,2.76-1.56,1l-3.5-1c-.61-.16-.43-.57-.5-1,2.17.54,3.14-1.11,5-1,.09-.63-.16-1.59,0-2-.74-1.44-.35-1.63,1-1,.13.16.72-.14,1,0,.53.27.64-.19,1,1Z"/><path class="cls-77" d="M30.09,18.07l-3,1c1.02-1.99,1.45-4.39,4-4v2c.18,1.16-.97.93-1,1Z"/><path class="cls-172" d="M32.09,24.06c.87.28.86.62,0,1-1.04-.3-2.45-.93-3-1,.08-.33-.11-.76,0-1,.05-.12,1.52.07,1-2h1c.35.42-.77,3.1,1,3Z"/><path class="cls-135" d="M17.09,39.06l-3,2v-1c.98-.98,1.62-1.29,3-2,.87.28.86.62,0,1Z"/><path class="cls-145" d="M18.09,37.06c.91,1.63.49,2.16-1,1-.27-1.43.26-2.48-1-4,.94.31,1.38.79,2,1.5v1.5Z"/><path class="cls-110" d="M24.09,37.06h1c4.07,2.22-3.45,1.89-6,1-.68-.29-.66-.63,0-1,1.61-.18,3.36.12,5,0Z"/><path class="cls-176" d="M19.09,38.06c.87.28.86.62,0,1,.64.3.63.63,0,1-.31.07-.68-.05-1,0-1,.13-.83-.39-1-1-.08-.29.06-.67,0-1,.33-.17,1.16.13,1-1,.33-.03.67.04,1,0v1Z"/><path class="cls-99" d="M35.09,18.07v3l2-1c-.34.83.22,2.84,0,4-1.3.33-1.89-.52-3-1-.39-.87-.72-1.87-1-3-.66-.3-.65-.63,0-1,.7-.3,1.32-.66,2-1Z"/><path class="cls-191" d="M36.09,26.06c.88-.85,1.81-.13,2,1,1.8-1.41,2.38-.87,1,1,2.5,1.92,1.53,4.56-2,2-.86.55-1.6-.03-2-1-1.34-.11-1.6-1.9-1-3,.28-.75.61-.73,1,0,.3.1.69-.09,1,0Z"/><path class="cls-55" d="M41.09,25.06v2l-1,1c-.24.89-.58.87-1,0,.14-1.05-.49-.82-1-1-1.15-.76-1.37-1.53,0-2,2.6-.79,1.13-.29,3,0Z"/><path class="cls-29" d="M33.09,20.06l1,3c-.02.35.08.76,0,1v2c-.27.86-.6.85-1,0-.07-.02.39-.61-1-1v-5.5c.16-.68.76-.39,1-.5.1.28-.08.67,0,1Z"/><path class="cls-10" d="M38.09,25.06v2c-1.5-.54-1.87-.96-2-1l.5-1c.52-.13,1.1.12,1.5,0Z"/><path class="cls-10" d="M35.09,26.06c-.3-.1-.7.1-1,0-1.21-2.67-.21-1.41,0-2l1,2Z"/><path class="cls-55" d="M45.08,26.06c-.56.76-.75,2.01-1,2.5-.37.72-.98.45-1,.5-.27,2.45-1.08,2.22-2,0-.87-.28-.86-.62,0-1l1-1c.99-.33,2.3-.72,3-1Z"/><path class="cls-86" d="M42.09,27.06c-.28.58-.61.56-1,0v-1l1,1Z"/><path class="cls-162" d="M57.08,17.07c-.32-.07-.7.09-1,0-.02-.33.03-.67,0-1-.06-.65.11-1.4,0-2h1v3Z"/><path class="cls-167" d="M49.08,28.06c1.64.29,3.31.62,5,1,1.61,1.23,1.07,3.26-1,3l-1,3c-.13.64-.24,1.08-1,1-.82,2.14-4.67,2.46-4,0l1-4h-2c-.23-1.47.05-3.42,1.5-4,.48-.19,1.1.13,1.5,0Z"/><path class="cls-44" d="M54.08,27.06c.8.51.72,1.55,0,2l-2.5,1-2-1-.5-1c.37-.12.96.13,1.5,0,.58-.14,1.02-1.4,3.5-1Z"/><path class="cls-55" d="M43.09,30.06l2,2.5-1,1.5c2.93-.45,1.57.63,2,1.5.35.71.96.46,1,.5s-.17.84.5,1l3.5-1c.65.29.63.63,0,1,.18,1.14-.96.94-1,1-1.63,2.91-4.62.29-6-2-1.4.53-1.55-.75-1-2-.89-.31-.89-.64,0-1-.77-1.05-1.38-2.69,0-3Z"/><path class="cls-191" d="M43.09,29.06c-.09.21.03.65,0,1-.07.97-.07,2.03,0,3-1.53,1.76-4.61-3.39-2-4h2Z"/><path class="cls-188" d="M55.08,29.06c.18.51-.05,1.14,1,1-.13.59.17,1.54,0,2l-1,1c-.14.27.14.76,0,1l-1,1h-1c-1.39-2.03-1.39-3.03,0-3,.18-.93.74-1.36,1-3,.1-.62-.06-1.35,0-2,.44.07.82-.11,1,.5.19.49-.14,1.12,0,1.5Z"/><path class="cls-44" d="M53.08,32.06c-.17.9.12,2.03,0,3-.09.75-.11,1.1-1,1v-1c-.05-.66.02-1.34,0-2h-2v-1h3Z"/><path class="cls-107" d="M52.08,36.06c.04.36-.11.86,0,1h-1v-1l1-1c.02.33-.04.67,0,1Z"/><path class="cls-107" d="M55.08,33.06c.65-1.29.98-.93,1-1l-1,1Z"/><path class="cls-107" d="M54.08,35.06c-.17-1.15.96-.94,1-1l-1,1Z"/><path class="cls-160" d="M70.08,27.06c.1.89-1,1.02-1,2-.33.02-.67-.02-1,0-.95,1.15-1.63,1.49-2,0-.87-.28-.86-.62,0-1,0-1.28.77-1.84,2-2,.29.12.73-.13,1,0l1,1Z"/><path class="cls-14" d="M68.08,29.06l-1,2c-2.22.59-2.37-.53-3-1,.13-.97.79-1.31,2-1,.47-.15,1.35.03,2,0Z"/><path class="cls-155" d="M66.08,28.06c-.53,1.29-1.84,1.16-3,1-.85-.76-1.52-1.59-2-2,1.09.15.82-.58,1-1,.3-.54.64-.52,1,0,1.77-.78,4.81.07,3,2Z"/><path class="cls-153" d="M66.08,28.06v1c-.05.02.17.83-.5,1h-1.5c-.81-.6-.9-.91-1-1l.5-1c.83-.05,1.68.07,2.5,0Z"/><path class="cls-81" d="M44.08,36.06c1.3,1.73,2.96,3.06,5,4v1c-1.33.23-2.66.56-4,1-.25,1.25-1.25,1.92-3,2-.74-.31-.73-.65,0-1-.78-.25-.76-.59,0-1-.88-.18-.84-.52,0-1,.95-1.32.62-2.58,0-4-.88,0-.78-1.4,0-2l1-1c.04.13.44-.06,1,2Z"/><path class="cls-28" d="M50.08,42.05c.14.11,1.17-.15,1,1v2c-.77.37-2.13.42-4.09.13-1.74,1.35-3.04,1.63-3.9.86-1.71-.2-1.04-1.53,2-4,1.06-.83,3.66-.77,5,0Z"/><path class="cls-126" d="M50.08,38.06c-.26.32-.87,1.47-1,2-1.68.54-4.39-.98-5-2.5-.19-.46.12-1.07,0-1.5,1.72.79,3.33,1.45,4.5,3l1.5-1Z"/><path class="cls-126" d="M49.08,41.05c1.34.21.94.96,1,1h-5s-.18-.84.5-1c1.14.11,2.38-.17,3.5,0Z"/><path class="cls-36" d="M51.08,45.05v2l-2,1v-2c-1.86-.23-2.9-.04-4,1.5v1.5c-1.37,1.52-2.57.79-3-1v-1c-1.08-1.17-.53-1.68,1-1,1.77-1.08,3.91-1.59,5.5-3l2.5,2Z"/><path class="cls-190" d="M123.07,37.06c-.08-1.21.9-1.1,2-1v1h-2Z"/><path class="cls-88" d="M45.08,49.05c.5.15,1.36-.08,2,0v2h-5v-3h1.5c.41.6.81.79,1.5,1Z"/><path class="cls-111" d="M45.08,42.05v2h-2v2c-1.12.68-.94.96-1,1-.43.34-1.6.66-2,1.5v1.5h-1c-.81-.52-.58-1.25,0-2-1.3-2.08-.3-2.72,2-3-.4-.76.12-1.04,1-1,1.07-.49,2.05-1.32,3-2Z"/><path class="cls-178" d="M39.09,48.05c-.01.66.03,1.34,0,2-.04.99.06,2.01,0,3-1.15.17-.87-.82-1-1-.23-3.86-2.82-4.66-7.77-2.4l-1.23-.6c-1.04-1.08-.54-2.35,1-2-.51-2.53,9.47-1.74,9.61-.79.1.66-.26,1.27-.62,1.79Z"/><path class="cls-84" d="M29.09,49.05l2.5-2c1.44,1.79,4.23.76,6.5,1v4c-.39-.55-1.63-.78-1-3-.66.02-1.34-.05-2,0-.56,1.28-2.02,2.21-3,1-.24.11-.83-.18-1,.5v2.5c-.08-.16-2.44-1.74-3-2-.85-1.16-.47-2.61,1-2Z"/><path class="cls-18" d="M35.09,49.05l1,2h-2l-1.5,3-.5-4c1.29-.56,1.38-.87,3-1Z"/><path class="cls-166" d="M28.09,52.05c-.06.65.06,1.35,0,2-.03.35.08.74,0,1,.58.89-.14,1.53-1,2h-1l-.79-2.76c-1.58.19-1.59-.24-.21-1.24-1.79.05-1.79-.62,0-2,.42-.18,1.15.09,1-1,.28-.87.62-.86,1,0l1,2Z"/><path class="cls-75" d="M29.09,46.05c1.24-.7,1.69-.21,1,1-.15.15-.76,1.61-1,2-.14.23-.7-.34-1,2-.04.33.03.67,0,1l-1-.5c0-.5,0-1,0-1.5-2.24-.36-1.05-4.66,1-5,.28-.87.62-.86,1,0,.69.21.65.55,0,1Z"/><path class="cls-159" d="M22.09,54.05c.88.33.87.66,0,1q-1.3,1.65,0,0c2.92-3.14,4.41-.33,3,3,.32.65-.02,1.32-1,2-.26.08-.65-.03-1,0-1.17.1-3.54.23-4.5,0-.69-.17-.45-.98-.5-1-1.35-2.07-1.63-3.42.5-5,1.12-.15,2.49.22,3.5,0Z"/><path class="cls-149" d="M25.09,53.05c.46,1.55,1,1.66,1,4,0,.34.07.76,0,1-.3.63-.63.61-1,0,.19-1.26-.12-2.7,0-4l-3,1c-.06-.32.08-.69,0-1-1.21-1.77,2.36-2.32,3-1Z"/><path class="cls-118" d="M28.09,55.05l1,2h-2c-.52-2.1.96-1.87,1-2Z"/><path class="cls-187" d="M24.09,60.05c-.05-.87.85-.99,1-2h1c-.34,1.11-.89,1.66-2,2Z"/><path class="cls-71" d="M91.07,43.05c-.32.06-.67-.05-1,0-.12-.98.37-.83,1-1v1Z"/><path class="cls-175" d="M64.08,25.06c1.43,1.05,1.1,1.38-1,1h-1c.49-1.13.46-1.23,2-1Z"/><path class="cls-56" d="M66.08,25.06l2,1v2c-.66.03-1.35-.06-2,0l-.5-1-2.5-1,1-1c.27.08.65-.04,1,0s.7-.07,1,0Z"/><path class="cls-144" d="M134.56,28.06c.65,0,.65,1,0,1s-.65-1,0-1Z"/><path class="cls-72" d="M68.08,26.06l-2-1c2.22.5,1.88.95,2,1Z"/><path class="cls-33" d="M70.08,27.06l-1-1c.37.18,1.15-.11,1,1Z"/><path class="cls-122" d="M27.09,41.05c2.35.7,3.2,2.57,1,4,0,2.42-.98,3.25-1,5h-1c-.88.07-.99-.89-2-1-.87-.28-.86-.62,0-1,2.5-.57-.36-2.23,0-3.5.14-.5,1.56-.91,1-2l-2-2,1-1.5c2.35-2.73,5.01-.78,3,2Z"/><path class="cls-32" d="M29.09,31.06c.97.11,1.3,1.11,1,3,.34,1.65.35,5.52-1,7-.15,2.59-.82,2.59-2,0-.18-.09-.12-1.68-3-2-1.29-.14-2.69.09-4,0-.3.57-.63.56-1,0v-1c1.69-.24,3.98.35,5.5,0,.67-.16.45-.97.5-1,.46-.33,1.79-.78,2-1.5.44-1.53.19-3.71,2-4.5Z"/><path class="cls-142" d="M24.09,48.05v1c-2.53-.27-2.85.52-5-1l1-.5,1.5-2.5,1.5,2.5,1,.5Z"/><path class="cls-122" d="M19.09,40.06v-1h1c.12.96-.34.85-1,1Z"/><path class="cls-122" d="M21.59,40.06c.65,0,.65,1,0,1s-.65-1,0-1Z"/><path class="cls-19" d="M25.09,51.05c.07.64-.15,1.5,0,2h-1.5c-.46.58-.76.84-1.5,1-.09-.37.15-.8-.5-1-1.3-.32-3.44.77-3.5-1l1-1,4.5,1c.37-.67.96-.77,1.5-1Z"/><path class="cls-163" d="M32.09,30.06c.28-.57.62-.55,1,0,.87.28.86.62,0,1,.09.43-.25.77-1,1,1.78,1.68-.03,2.74-2,2l-2,1,1-4c.83-.36,1.36-.96,1.5-1,.52-.15,1.11.12,1.5,0Z"/><path class="cls-104" d="M35.09,29.06c.32,1.39-.84,1.65-2,1-.32.08-.7-.09-1,0,.31-1.18,1.42-1.49,1-3v-1c.3.1.7-.1,1,0,.23.51.32,1.14,1,1.5v1.5Z"/><path class="cls-10" d="M34.09,23.06c-.24-.11-.83.18-1-.5v-2.5c.04.18,1.21-.06,1,3Z"/><path class="cls-115" d="M41.09,28.06v1c-.44,1.69,1.17,2.05,1,3.5l1,.5c.02.35-.08.74,0,1l-1,1c-.28.87-.61.86-1,0-.82-.64-1.16-1.31-1-2l-3-2c-.87-.28-.86-.62,0-1h2v-2c.33-.04.68.05,1,0,.24-.56.58-.52,1,0Z"/><path class="cls-92" d="M37.09,30.06v1c-1.28.59-2.82.79-4,0v-1c.96-.25,1.11-.86,2-1,1.08-.16,2.09-.17,2,1Z"/><path class="cls-191" d="M42.09,27.06c.13,1-.4.83-1,1-.28.08-.66-.05-1,0-.12-.96.34-.85,1-1,.33-.08.72.09,1,0Z"/><path class="cls-57" d="M42.09,41.05c0,.33.03.67,0,1l-2,2c-.25.9-.58.88-1,0l-1,1c-.66.77-1.37.75-2,0-1.72-1.33.25-2.51,2-3,.93-4.1,2.26-5.1,4-3,.99.16.76,1.38,0,2Z"/><path class="cls-111" d="M42.09,41.05v-2c-.87-.28-.86-.62,0-1-.58-.3-.57-.63,0-1,.06.2,1.84,1.16,1,3.5l-1,.5Z"/><path class="cls-130" d="M42.09,44.05c-.41,1.38-.97.94-1,1-1.94,1.31-2.48.76-1-1,.63-1.07,1.3-1.4,2-1-.04.35.08.72,0,1Z"/><path class="cls-57" d="M42.09,37.06v1c-2.64,2.1-4.07-.62-1-2-.88-.25-.86-.58,0-1,.29.1.69-.07,1,0-.1.49-.12,1.57,0,2Z"/><path class="cls-140" d="M42.09,35.06c.14-.68.05-1.11,1-1l-1,1Z"/><path class="cls-111" d="M42.09,43.05c-.78.04-1.08.67-2,1,.03-.84,1.1-1.93,2-2-.03.33.04.67,0,1Z"/><path class="cls-139" d="M34.09,45.05c.53-1.59,1.25-1.61,2,0,.66,0,1.35.08,2,0l1-1c.34-.08.73.1,1,0-.03.77.2,1.1,1,1-.62,1.1-.97,2.97-2,3l-1.5-2c-2.37.19-5.81-.67-7.5,1-.96.12-.85-.34-1-1l1-2c.31-.77.64-.76,1,0l3,1Z"/><path class="cls-65" d="M29.09,41.05c1.27-1.19,1.41-.65,1,1,1.56-.36,2.61.91,1,2-.34,0-.75-.07-1,0-.27.75-.6,1.08-1,1h-1c0-1.77.04-2.48-1-4,.39.19,1.51-.18,2,0Z"/><path class="cls-43" d="M29.09,46.05c-.07-.31.05-.68,0-1-.13-1,.39-.83,1-1v1.5l-1,.5Z"/><polygon class="cls-70" points="22.09 55.05 24.09 56.05 24.09 57.05 21.59 58.05 20.09 55.05 22.09 55.05"/><path class="cls-22" d="M38.09,33.06c-1.59,2.08-4.92,6.13-6,2l-1,2c1.91.56,1.92,1.44,0,2,.78,2.79.45,3.79-1,3-.17-.19-.93-.97-1-1,.16-1.43-.24-3.16,0-4.5.03-.14.92-2.38,1-2.5s1.28-1.15,2-2c1.9-.71,7.57-1.44,6,1Z"/><path class="cls-131" d="M37.09,31.06c.51.06,1.09-.16,1.5,0,.84.45,1.11,1.45,1.5,2-.29.74-.62.73-1,0-.19.83-.53.79-1,0-.05-.01.19-.83-.5-1-1.49-.36-3.82.25-5.5,0,.09-.11-.15-1.18,1-1,1.31.09,2.71-.14,4,0Z"/><path class="cls-94" d="M41.09,35.06c-1.31,1.26-2.62-.22-2-2h1c.44.63.62-.09,1,2Z"/><path class="cls-94" d="M41.09,36.06c.06.48-.07,1,0,1.5l1,.5v1c-1.46.34-2.3,1.61-2,3-.62.09-1.65-.17-2,0-1.28,1.25-1.95,1.25-2,0-.87-.28-.86-.62,0-1-.13-1.11.21-2.11,1-3-.65-.89-.85-2.16,0-3,.25-.87.58-.85,1,0,1.02-.23,2.17.3,3,1Z"/><path class="cls-5" d="M33.09,42.05c1-.45,2.03-.54,3,0,.52-.14,1.36.07,2,0-.16.08-1.74,2.44-2,3-.66,0-1.34.05-2,0l-3-1c-.22-.51-.77-1.74-1-2,.75-1.24.85-1.63,1-3,1.25-.84,1.91.16,2,3Z"/><path class="cls-111" d="M38.09,45.05c-.12-.96.33-.85,1-1,.1.88-.25.91-1,1Z"/><path class="cls-8" d="M41.09,35.06c.06.32-.04.67,0,1-2.26.77-2.83-.93-3-1-1.09-.11-1.09-.77,0-2,.31.08.68-.06,1,0,.08,1.04,1.06,1.69,2,2Z"/><path class="cls-178" d="M34.09,45.05c-.82-.06-1.67.04-2.5,0-.68-.18-.39-.76-.5-1,.83,0,1.66,0,2.5,0l.5,1Z"/><path class="cls-48" d="M38.09,33.06c.08.04.21,1.21,1,1.5l-1,.5c-.25-.11-.67.08-1,0l-1,2c.67.93.34,2.26-1,4-.07,1.15-1.01,1.1-2,1-.24-.11-.83.18-1-.5l-1-2.5c.07-.65-.08-1.35,0-2l1-2h3v-2c.89.16,2.42-.26,3,0Z"/><path class="cls-5" d="M31.09,37.06c.06-.51-.16-1.08,0-1.5l1-.5v1.5l-1,.5Z"/><path class="cls-5" d="M37.09,38.06c.06.12,1.52-.07,1,2l-2,1c-.29.78-.62.77-1,0l-2-1.5c.63-1.08,2.92-2.32,3-2.5.41-.56.74-.22,1,1Z"/><path class="cls-112" d="M35.09,41.05h1v1c-.96.27-1.41,1-1.5,1s-.66-.63-1.5-1l.5-1h1.5Z"/><path class="cls-8" d="M37.09,38.06l-1-1c.15-.32-.2-.99,0-1.5l1-.5c.16.89-.26,2.45,0,3Z"/></g></svg>