<?xml version="1.0" encoding="UTF-8"?><svg id="_圖層_2" xmlns="http://www.w3.org/2000/svg" viewBox="0 0 85.18 83.26"><defs><style>.cls-1{fill:#d79656;}.cls-2{fill:#e49b79;}.cls-3{fill:#e09273;}.cls-4{fill:#e49b80;}.cls-5{fill:#e19877;}.cls-6{fill:#df906f;}.cls-7{fill:#eda585;}.cls-8{fill:#de906f;}.cls-9{fill:#e29277;}.cls-10{fill:#e09172;}.cls-11{fill:#f1c488;}.cls-12{fill:#ecae8f;}.cls-13{fill:#e1896d;}.cls-14{fill:#e49272;}.cls-15{fill:#ecb771;}.cls-16{fill:#d0883e;}.cls-17{fill:#dd7c5a;}.cls-18{fill:#e8a184;}.cls-19{fill:#d89747;}.cls-20{fill:#e19474;}.cls-21{fill:#edb79c;}.cls-22{fill:#d28665;}.cls-23{fill:#d99143;}.cls-24{fill:#e5987b;}.cls-25{fill:#dd8470;}.cls-26{fill:#e9a687;}.cls-27{fill:#dd8868;}.cls-28{fill:#d6984d;}.cls-29{fill:#e5967c;}.cls-30{fill:#d48b39;}.cls-31{fill:#d9974d;}.cls-32{fill:#e09171;}.cls-33{fill:#f0cc9b;}.cls-34{fill:#d7985a;}.cls-35{fill:#d99752;}.cls-36{fill:#de9f4a;}.cls-37{fill:#e09379;}.cls-38{fill:#f0c693;}.cls-39{fill:#d98b70;}.cls-40{fill:#db9743;}.cls-41{fill:#e5997a;}.cls-42{fill:#e8a07f;}.cls-43{fill:#ebb397;}.cls-44{fill:#f1baa1;}.cls-45{fill:#e89f83;}.cls-46{fill:#e49777;}.cls-47{fill:#ebbd7e;}.cls-48{fill:#f2cc96;}.cls-49{fill:#efb091;}.cls-50{fill:#f0b093;}.cls-51{fill:#eeb799;}.cls-52{fill:#dc8863;}.cls-53{fill:#dc993e;}.cls-54{fill:#da9e5c;}.cls-55{fill:#d88f46;}.cls-56{fill:#e9ac8f;}.cls-57{fill:#d79a54;}.cls-58{fill:#d8943a;}.cls-59{fill:#e29579;}.cls-60{fill:#eebea2;}.cls-61{fill:#e6a083;}.cls-62{fill:#e09070;}.cls-63{fill:#dc8966;}.cls-64{fill:#ecbba0;}.cls-65{fill:#eab095;}.cls-66{fill:#eaae8d;}.cls-67{fill:#d98d6d;}.cls-68{fill:#ecb264;}.cls-69{fill:#eca380;}.cls-70{fill:#da845c;}.cls-71{fill:#e7a95d;}.cls-72{fill:#e18a69;}.cls-73{fill:#eca686;}.cls-74{fill:#e3997c;}.cls-75{fill:#da984a;}.cls-76{fill:#eeb69a;}.cls-77{fill:#d7964a;}.cls-78{fill:#f0b99c;}.cls-79{fill:#e4987c;}.cls-80{fill:#da8d6b;}.cls-81{fill:#eebf89;}.cls-82{fill:#e4977a;}.cls-83{fill:#f0b79a;}.cls-84{fill:#eec184;}.cls-85{fill:#df8f73;}.cls-86{fill:#efb699;}.cls-87{fill:#d9923d;}.cls-88{fill:#edb69a;}.cls-89{fill:#d0873a;}.cls-90{fill:#d2835a;}.cls-91{fill:#e6906d;}.cls-92{fill:#df9c44;}.cls-93{fill:#eba485;}.cls-94{fill:#d48630;}.cls-95{fill:#de8f6f;}.cls-96{fill:#e79e81;}.cls-97{fill:#e29c7f;}.cls-98{fill:#f3cb97;}.cls-99{fill:#dd9273;}.cls-100{fill:#eab299;}.cls-101{fill:#d8944f;}.cls-102{fill:#e39370;}.cls-103{fill:#e2997b;}.cls-104{fill:#de9479;}.cls-105{fill:#ebb899;}.cls-106{fill:#f2d09f;}.cls-107{fill:#db9956;}.cls-108{fill:#f3b699;}.cls-109{fill:#efbf7c;}.cls-110{fill:#e59f82;}.cls-111{fill:#dc8f69;}.cls-112{fill:#f1bc9e;}.cls-113{fill:#eba98c;}.cls-114{fill:#eaac8b;}.cls-115{fill:#dc906b;}.cls-116{fill:#e29d86;}.cls-117{fill:#f2d3a6;}.cls-118{fill:#edbda3;}.cls-119{fill:#d88c6d;}.cls-120{fill:#e59c7a;}.cls-121{fill:#f0be7d;}.cls-122{fill:#cc802e;}.cls-123{fill:#e79e7f;}.cls-124{fill:#eab774;}.cls-125{fill:#d69348;}.cls-126{fill:#e89d7d;}.cls-127{fill:#eeb79c;}.cls-128{fill:#d78938;}.cls-129{fill:#f1c991;}.cls-130{fill:#ecb66a;}.cls-131{fill:#ebba7a;}.cls-132{fill:#dd943b;}.cls-133{fill:#db9a58;}.cls-134{fill:#d48c44;}.cls-135{fill:#edbe84;}.cls-136{fill:#e8a98b;}.cls-137{fill:#e4a284;}.cls-138{fill:#e49b7a;}.cls-139{fill:#e7a689;}.cls-140{fill:#e6977a;}.cls-141{fill:#efc1a0;}.cls-142{fill:#f0bca2;}.cls-143{fill:#e6ab8d;}.cls-144{fill:#d99f58;}.cls-145{fill:#df8b6c;}.cls-146{fill:#e49474;}.cls-147{fill:#eec997;}.cls-148{fill:#eeb76c;}.cls-149{fill:#e29d7d;}.cls-150{fill:#e0997a;}.cls-151{fill:#eab297;}.cls-152{fill:#e08862;}.cls-153{fill:#d89249;}.cls-154{fill:#e2977c;}.cls-155{fill:#e59e80;}.cls-156{fill:#e29679;}.cls-157{fill:#e8a37f;}.cls-158{fill:#f5ac8f;}.cls-159{fill:#f0c68b;}.cls-160{fill:#e7a184;}.cls-161{fill:#eeae90;}.cls-162{fill:#efa582;}.cls-163{fill:#e18f6f;}.cls-164{fill:#d38536;}.cls-165{fill:#db8e79;}.cls-166{fill:#f0c78f;}.cls-167{fill:#dd8765;}.cls-168{fill:#e39979;}.cls-169{fill:#eeb297;}.cls-170{fill:#d88e72;}.cls-171{fill:#ecae93;}.cls-172{fill:#e59374;}.cls-173{fill:#e6a88b;}.cls-174{fill:#e79d81;}.cls-175{fill:#eeae5a;}.cls-176{fill:#df9778;}.cls-177{fill:#e58f70;}.cls-178{fill:#cc8239;}.cls-179{fill:#e7a380;}.cls-180{fill:#f3ce97;}.cls-181{fill:#d7876c;}.cls-182{fill:#e39a74;}.cls-183{fill:#e69375;}.cls-184{fill:#edbd88;}.cls-185{fill:#d89449;}.cls-186{fill:#d99b5f;}.cls-187{fill:#da785a;}.cls-188{fill:#efb99f;}.cls-189{fill:#e49677;}.cls-190{fill:#e59475;}.cls-191{fill:#eab89b;}.cls-192{fill:#e4987a;}.cls-193{fill:#efb89a;}.cls-194{fill:#e5a083;}.cls-195{fill:#d89847;}.cls-196{fill:#efc592;}.cls-197{fill:#e7a582;}.cls-198{fill:#efa17e;}.cls-199{fill:#f0cd9c;}.cls-200{fill:#ecaf5c;}.cls-201{fill:#e7a285;}</style></defs><g id="_圖層_1-2"><path class="cls-153" d="M31,3.17c.68-.77,1.4-.8,2,0l1,1c.87.28.86.62,0,1,.14,1.76-1.52,2.43-5,2-.53,2.22-4.27,3.91-6,2l-1,1c-.3.88-.63.87-1,0l-2,2c-.23.9-.57.88-1,0-.87-.28-.86-.62,0-1,.34-1.67,1.67-3,4-4,.77-1.74,5.05-2.35,6.5-4,.83-.06,1.69.09,2.5,0Z"/><path class="cls-185" d="M81.99,44.16c.53.65.95,1.31,1.01,2,.48,5.53-1.63,3.05-.28,1.54.11-.12.63.12,1.27.46.86.52.62,1.31,0,2-.05.82.04,1.67,0,2.5-.18.68-.76.39-1,.5-.51,4.58-4.34,6.71-2,1-.89-2.29-1.64-10.5-.5-10.49.5,0,1,.22,1.5.49Z"/><path class="cls-34" d="M84.99,34.16c.61,4.77-.44,10.57,0,15.49l-1,.5c.04-.66-.02-1.34,0-2-1.48-1.04-1.49-2.96,0-4-.47-.25-.43-.59,0-1-1.34-1.41-1.34-3.41,0-6-1.42-.48-1.41-2.69-1-4-2.46-3.15-2.8-5.48-1-7,.02.05.73-.2,1,.5.47,1.24,1.84,6.26,2,7.5Z"/><path class="cls-133" d="M51.99,1.17c.87.28.86.62,0,1-.33.65-.67.65-1,0-3.2.32-8.33.32-11-1h-1l.5-1c4.5-.58,8.61.41,12.5,1Z"/><path class="cls-186" d="M55.99,1.17c1.86.87,4.52,1.97,7,3,.68.29.66.63,0,1-.7,1.16-2.13.37-2-1-3.02.61-6.35-.45-9-2v-1c1.17.18,3.33-.32,4,0Z"/><path class="cls-35" d="M39,1.17h1c.11,1.62-3.44,2.13-4,1l-1,1c-.23.88-1.34.67-2,0-.65.06-1.35-.07-2,0l.5-1c2.55-.22,4.6-1.54,7.5-1Z"/><path class="cls-54" d="M82.99,56.15c-1.34,3.82-3.34,7.15-6,10-.15.25.14.75,0,1-.88,1.16-1.88,1.82-3,2-.87-.28-.86-.62,0-1,.69-2.09,1.36-3.76,2-5-2-2,.28-5.81,3-6l1-2c-.85-.33-.85-.67,0-1,.28-.87.62-.86,1,0,.02.66,0,1.34,0,2h1v-2.5c.18-.68.76-.39,1-.5-.08.98.14,2.04,0,3Z"/><path class="cls-75" d="M22,7.17c-.11.26-3.6,3.68-4,4-2.53,1.87-4.74,4.05-6.62,6.54l-1.38-.55,9-9,3-1Z"/><path class="cls-77" d="M6.01,24.16c.7.21,1.04,1.21,1,3,2.1-.14,2.06,1.48,0,2,1.3,1.48-1.74,5.46-3,7l-1,1c-.86,1.59-1.53,1.26-2-1,.06-1.32-.04-2.67,0-4,1.73-2.59,3.28-6.12,5-9v1Z"/><path class="cls-1" d="M1.01,50.15H0v-7c.29-.66.63-.64,1,0,.69,2.32,1.49,5.16,0,7Z"/><path class="cls-1" d="M1.01,42.16c-.29.66-.63.64-1,0,.04-1.82-.03-3.67,0-5.5.13-.56.56-.49,1-.5,1.12,1.39,1.12,3.39,0,6Z"/><path class="cls-77" d="M1.01,43.16H0c0-.33,0-.67,0-1h1c.62.22.58.56,0,1Z"/><path class="cls-144" d="M58.99,79.14c-.4,1.64-1.96.46-2,2-.33.05-.68-.06-1,0-.62.11-1.38-.11-2,0-1.21-2.06,3.84-3.22,5-2Z"/><path class="cls-128" d="M75.99,15.17c1.68.74,2.31,3.76,3,5,.45.85.45,1.52,0,2-.13.66-.23,1.09-1,1-.28.87-.62.86-1,0-1.24-1.32-2.37-3.18-3-5-1.88.85-2.38-.57-1-2l-2-2v-1c-4.36-5.22,3.36-1.53,5,2Z"/><path class="cls-107" d="M62.99,5.17c.29-.54.62-.52,1,0l1,1c.29-.56.62-.54,1,0l1,1h1c1.68,1.18,4.26,1.51,5,4-1.52-.53-2.85-.53-4,0-1.91,2.11-4.71-.85-5-3l-1-1c-.31.85-.65.85-1,0l-1-1c-.29.61-.63.59-1,0-.64-.3-.63-.63,0-1-.55-.57-.21-.91,1-1,.87.26,1.13.73,2,1Z"/><path class="cls-55" d="M72.99,11.17c1.9,1.08,2.11,2.04,3,4-2.44-1.08-3.36-4.25-6-4,0,.82.72,1.02,1,2h-1l-1-1c-.88-.28-.87-.61,0-1-.32-.93-.96-1.21-1-2,.59-.5,4.04,1.45,5,2Z"/><path class="cls-23" d="M81.99,26.16c-.94,2.43-1.94,1.1-3-4,.08-.64-.04-1.34,0-2,1.29,2.31,1.92,3.34,3,6Z"/><path class="cls-199" d="M67.99,7.17h-1l-1-1c-.32-.08-.7.08-1,0l-1-1c-.31-.09-.7.09-1,0v-1c3.06,1.27,2.7,1.39,5,3Z"/><path class="cls-98" d="M49.99,3.17c1.32.4,2.66.73,4,1,.96-1.2,3.98-.16,5,1l1,1c.3.08.68-.08,1,0,.64.3.62.63,0,1l-.66.94c-4.37-1.5-8.48-2.14-12.33-1.94-3.14.17-6.14.51-9,1-.21.88-.54.85-1,0l-2,1c-.16,2.22-1.45,2.14-2,0l-2,1c-.44,2.67-1.18,2.53-2,0-1.64-.11-1.04-1.52,0-1.76.11-.03-.79,1.86-1-.24,1.52-.61,2.95-1.45,5-2l2-1c.19-.88.52-.85,1,0,1.15-.52,2.48-.86,4-1,.45-2.35,6.94-1.09,9,0Z"/><path class="cls-166" d="M22,13.17c-.76,3.58-3.97,6.43-7,8-.33.64-.67.64-1,0-2.14,1.08-2.13-1.69-1-3-.92-.29-.91-.62,0-1l5-5c.25-.13.7.12,1,0,.51-.78,1.14-1.45,2-1,2.58-1.11,3.04.18,1,2Z"/><path class="cls-106" d="M29,7.17h2l-1,2c1.15,2.84-4.59,5.88-7,4h-1l-1-2c-.66-.29-.65-.63,0-1,.23-.14.72.13,1,0l1-1c1.59-.71,4.34-1.33,6-2Z"/><path class="cls-164" d="M50.99,2.17c.87.28.86.62,0,1-.21.68-.55.65-1,0-1.71-.04-8.27-.34-9,0-1.51.13-2.84.46-4,1-.33.02-.67,0-1,0-.66.76-1.38.75-2,0-.75-.1-1.1-.11-1-1,.65-.06,1.37.09,2,0l1-1c2.24-.36,2.08-.1,4-1,2.17-1.02,8.75.66,11,1Z"/><path class="cls-87" d="M18,11.17v1l-5,5c-.07.22-.03.7,0,1-.06,2.34-.73,3.34-2,3-.28.87-.62.86-1,0,1.59-3.93.64-2.89-2.84,3.1l-1.16-.1v-1c1.03-1.71,2.66-5.41,4-6,2.27-1,4.49-4.28,6.5-6,.35-.3,1.26.19,1.5,0Z"/><path class="cls-35" d="M36,4.17l-.5,1c-.52.12-1.09-.11-1.5,0v-1c.64.08,1.34,0,2,0Z"/><path class="cls-75" d="M22,10.17c.06-.03-.34-.4,1-1l-1,1Z"/><path class="cls-75" d="M21,11.17c-.77.05-1.1.65-2,1,0-1.19,1.24-1.53,2-2v1Z"/><path class="cls-125" d="M73.99,68.14v1l-4,4c-1.34,1-2,1.81-4,3l-4,2c-.47.79-1.5.73-2,0-.29.65-.63.64-1,0-.88-.18-.84-.52,0-1l1-1c.34-.86.67-.86,1,0l1-1c-.9-2.45,3.15-5.65,4.79-3.76l2.21-1.23c.27-.88.61-.87,1,0,1.49-1.78,4.79-5.71,4-2Z"/><path class="cls-57" d="M65.99,76.14c-1.5.89-1.55,1.48-4,2,.65-1.48,1.54-.68,2.5-2h1.5Z"/><path class="cls-144" d="M61.99,78.14c-.1.23.18.74-.5,1-.5.07-1.02-.06-1.5,0-.66-.29-.64-.63,0-1,.65-.06,1.43.12,2,0Z"/><path class="cls-31" d="M71.99,72.14c-.3.24-1.66.75-2,1,.7-1.89,2.52-2.85,4-4-.46,1.14-1.35,1.94-2,3Z"/><path class="cls-57" d="M59.99,79.14c-.34.04-.7-.06-1,0-.85-.31-.84-.65,0-1h1v1Z"/><path class="cls-71" d="M81.99,40.16c1.47,1.29,1.46,2.71,0,4l-1,.5c.07,3.16-.1,6.35,0,9.5h-1c-.66-.15-.61-.5,0-1-1.82-.19-2.82-1.52-3-4-.87-.28-.86-.62,0-1v-1l1-1c-.12-2.95.27-8.6,2-11,2.08-4.93,4.03.25,2,5Z"/><path class="cls-89" d="M83.99,43.16c-.47.4-.47.73,0,1-.01,1.32.04,2.67,0,4l-1,.5v3.5h-1c-.02-2.66.03-5.34,0-8-.02-1.33.01-2.67,0-4,.43-3,1.09-4,2-3,.07,1.98-.03,4.01,0,6Z"/><path class="cls-23" d="M82.99,33.16c.76,1.61.9,1.35,1,4l-1,.5v2l-1,.5c-.02-1.99.01-4.01,0-6l-2,1c-1.58-1.34-1.51-3.6,0-5,1.3-.8,2.3.2,3,3Z"/><path class="cls-185" d="M83.99,44.16l-1-.5,1-.5c0,.33,0,.67,0,1Z"/><path class="cls-178" d="M60.99,4.17c.11.95-.32.86-1,1-.25.64-.59.61-1,0-2.23-.03-3.09-.68-5-1l-3-1v-1c.33.05.68-.06,1,0,3.11.58,6.03,1.11,9,2Z"/><path class="cls-153" d="M35,3.17c.07-.01-.37-.78,1-1l-1,1Z"/><path class="cls-31" d="M73.99,68.14l-.5-1c-1.15.95-2.02,2.54-3.5,3-1.99-1.84-1.67-2.49,1-2-.25-2.41,2.16-6.48,5-5l1,.5-3,4.5Z"/><path class="cls-134" d="M3.01,37.16c.61.27.58.6,0,1l-1,1c.72,1.24.67,3.73,0,5,.88,2.14,1.55,4.47,2,7,2.36-.74,4.25,4.52,2,6l1,1c.86.34.86.67,0,1,6.32,8.56-1.54,5.84-3-1-.28.87-.62.86-1,0-.39-1.23-.74-2.71-1-4l-1-3c-.02-.33,0-.67,0-1-.05-2.32,0-4.68,0-7,0-.33,0-.67,0-1,.04-1.99-.09-4.01,0-6,.96-.03,1.11,1.11,2,1Z"/><path class="cls-101" d="M4.01,58.15l3,5,2-.5c-.92-.96-1.49-2.3-2-3.5,2.77-2.37,4.13,1.39,4,4,2.57-.64,8.28,2.43,6,5,.58,2.01.58,3.68,0,5-.64.08-1.51-.15-2,0,.06-1.21-1.37-1.54-2-2l-6-6c-.16-.21.15-.76,0-1l-2-2c-.12-.28.12-.71,0-1-1.03-.76-2.04-1.93-1-3Z"/><path class="cls-1" d="M2.01,54.15l-1-.5c-.03-.83.04-1.68,0-2.5l1,.5c.1.81-.15,1.76,0,2.5Z"/><path class="cls-147" d="M9,30.16c.86.25.84.59,0,1l-1,1c.36,3.68-.36,10.07-.98,14.25-.04.29-.48.52-1.02.74-2.79,2.13-3.05-8.1-2-11,.06-.82-.04-1.67,0-2.5.7-1.47,2.67-3.76,3-4.5.89-2.08,2.6-1.05,2,1Z"/><path class="cls-94" d="M10,21.17c.87.34.87.67,0,1-.93.79-1.6,1.79-2,3,.87.28.86.62,0,1,.74,1.23.23,1.73-1,1-.03.04-.6-.22-1,.5-.14.25.14.73,0,1-.39.75-1.48.86-1,2.5h-1l2-7,4.5-6h.5c.38,1.34-.59,1.86-1,3Z"/><path class="cls-129" d="M6.01,47.15c.58.17.52.52,0,1,.79,2.81-.11,2.94-2,1-1.1-1.19-1.63-3.39-1-5-.93-1.2-.88-3.76,0-5-.65-.22-.62-.56,0-1,.01-.33-.05-.68,0-1,.12-.72.08-1.11,1-1-.3,3.87.15,7.1,1,10.5.17.68.76.39,1,.5Z"/><path class="cls-195" d="M29,74.14c.53-1.25,1.27-1.13,2,0,.87.28.86.62,0,1-.87.45-1.23,1.1-1,2l1.11-.37c5.94.96,11.57,2.08,16.88,3.37l3-1c.28-.87.62-.86,1,0,.3-.59.63-.58,1,0,2.44,1.02.77,2.02-5,3-1.55.25-2.7,1.51-5.5,1-.38-.07-.63-.95-1-1-1.9-.24-4.1.24-6,0-.37-.05-.61-.92-1-1-1.03-.2-2.86.3-3.5,0-2.68-1.26-6.15-3.46-9-5,.08-.49.21-.93.49-1.24.32-.35,7.43,3.58,8.5,4.24.33.2-7.01-3.12-6-4v-1c.74-1.14,2.92-.76,4,0Z"/><path class="cls-28" d="M58.99,77.14c0,.33.03.67,0,1-.03.34.07.71,0,1-1.7.36-2.79,1.09-4.5,1l-.5,1c-1.97.34-3.86.66-6,1l.5-1h4.5v-2c-.12-.56.54-.9,2-1,.19-.9.53-.86,1,0l1-1c.28-.88.62-.86,1,0,.27-.58.61-.55,1,0Z"/><path class="cls-180" d="M72.99,16.17c.26.32.73,1.56,1,2l2.33,4.64c.69,5.19-.76,7.05-2.33,1.35-2.2,3.08-5.9-5.04-3-6-1.07-1.1-1.07-2.1,0-3,.5-.21,1.17.12,2,1Z"/><path class="cls-48" d="M76.99,23.16c.75.6,1.03,1.74,0,2,.87,2.3,1.29,9.56-2,7-.24-1.76-.57-3.43-1-5-2.64-.15-2.73-2.41,0-3,.23.1.74-.18,1,.5v1.5h1c.32-2.44-.32-4.64-2-6.5v-1.5c.75,1.21,2.56,3.09,3,5Z"/><path class="cls-23" d="M77.99,24.16c2.65-.08,4.83,4.64,1,5-.29.84-.62.82-1,0-.26-1.38-.59-2.71-1-4-.04-.66.13-1.45,0-2h1c.66.29.65.63,0,1Z"/><path class="cls-122" d="M77.99,24.16v-1l1-1c1.32,1.79,1.09,3.51-1,2Z"/><path class="cls-180" d="M70.99,14.17c-1.39,1.44-2.02.79-1-1h1c.09.31-.08.69,0,1Z"/><path class="cls-55" d="M72.99,16.17l-2-1c-.91-.18-.87-.52,0-1,.84.79,1.19,1,2,2Z"/><path class="cls-199" d="M60.99,7.17c.27-.61.6-.59,1,0,.34.05.72-.08,1,0l1,1c1.59,1.21,3.16,2.22,5,3,.1.29-.09.69,0,1l1,1c.41.47.59.62,1,1,.08.31-.07.68,0,1,.22.98,1,1.39,1,1.5,0,.16-.84.5-1,1.5-1.93,1.45-2.93.45-3-3-1.44,1.05-4.37-1.32-3-3-3.01-1.83-7.32-3.96-10.75-3.31l-2.25-1.69c-.33.86-.67.86-1,0l-3-1,.5-1c2.03-.87,5.29,1.2,6,1,2.31-.64,3.26.5,6.5,1Z"/><path class="cls-186" d="M59.99,6.17c-.61-.17-1.13,0-1-1,.33,0,.72.06,1,0v1Z"/><path class="cls-186" d="M64.99,6.17c-.61-.17-1.13,0-1-1,.61.17,1.13,0,1,1Z"/><path class="cls-186" d="M61.99,7.17c-.33-.04-.67.05-1,0v-1c.66.15,1.12.04,1,1Z"/><path class="cls-186" d="M66.99,7.17l-1-1c.66.15,1.12.04,1,1Z"/><path class="cls-186" d="M63.99,8.17l-1-1c1.38.4.94.96,1,1Z"/><path class="cls-16" d="M81.99,26.16c.66,1.41.5,5.92,1,7-1.06-1.14-1.73-1.99-3-3-.7.44-1.08-.23-1-1v-1.5l1-1-2-2.5,1-.5c.07-.5-.06-1.02,0-1.5,1.2.06,1.52,2.37,2,3.5.3.71.98.45,1,.5Z"/><path class="cls-35" d="M41,3.17c-1.66.78-1.4.85-4,1l.5-1h3.5Z"/><path class="cls-186" d="M53.99,4.17c-1.08-.18-2.37.12-3.5,0l-.5-1c.33,0,.67-.02,1,0,.82.04,1.67-.03,2.5,0l.5,1Z"/><path class="cls-135" d="M14,21.17c.49,2.96-.18,3.96-2,3-1.8-.07-1.83-1.7-1-3l1-2.5,1-.5c.14,1.4.26,1.74,1,3Z"/><path class="cls-75" d="M13,17.17c.45-1.46,3.55-4.25,5-5l-5,5Z"/><path class="cls-175" d="M66.99,64.15c1.34.8,2,2.79,2,6-.04,1.75-2.09,1.72-2.5,2-1.58,1.05-2.52,1.96-4.5,3l-1,1c-.29.11-.7-.1-1,0-.27.6-.61.57-1,0-2.23-.94-4.23-2.27-6-4-.87-.28-.86-.62,0-1,.05-.45.14-.83.37-.98,1.03-.64,9.79-5.94,10.37-5.77.45.13.86.42,1.26.75.62-1.09,1.28-1.43,2-1Z"/><path class="cls-200" d="M69.99,60.15c2.74,2.11,3.07,4.78,1,8-.14.14-.89,1.54-1,2-.3.09-.69-.09-1,0-1,.29-1.87.12-3,1l1-4-2,.5v-1.5h2c.08-.64-.15-1.5,0-2-.41-1.48-.07-4.27,2-4,.33-.82.67-.82,1,0Z"/><path class="cls-57" d="M60.99,76.14c.07-.02-.27-.33,1-1l-1,1Z"/><path class="cls-57" d="M58.99,77.14c-.67-.22-.63-.56,0-1,.33-.08.72.1,1,0,.11.92-.28.87-1,1Z"/><path class="cls-130" d="M79.99,53.15c.04.32,0,.67,0,1s.03.67,0,1l-1,2c-.44,1.75-1.82,4.31-3,6-1.61,2.3-3.22,3.18-5,5l-1-1.5,1-3.5h-2l1-3c-1.17-1.5.35-3.27,2-2,2.54-4.54,5.2-6.2,8-5Z"/><path class="cls-132" d="M79.99,30.16c-.02,1.66.02,3.34,0,5-.07,4.5-.61,7.12-2,11l-1,1c-.1.29.07.69,0,1-1.21,1.2-1.57.64-1-1-.91-.46-.73-1.25,0-2l1-2c-1.62-1.49-1.3-10.06,1-11.99.48-.4.48-.73,0-1-.69-.21-.65-.55,0-1h1c1.14-.18.94.96,1,1Z"/><path class="cls-68" d="M79.99,53.15l-2.5,2h-1.5v2c-1.86-1.41-2.07-.35-4,1-1.38-2.18,1.7-7.42,4-8-.85-1.42-.43-1.92,1-1,1.43-.63,1.13-2.79,3-3,.54,1.64-.86,2-1,2.5-.07.24.82,3.01,1,4.5Z"/><path class="cls-92" d="M76.99,47.15c.47-1.38.98-.93,1-1l-1,1Z"/><path class="cls-68" d="M78.99,57.15c.11-.42-.12-.98,0-1.5l1-.5c-.04.49.05,1,0,1.5l-1,.5Z"/><path class="cls-30" d="M17,68.14c.31-2.69.89-2.42,2,0,2.65.89,3.98,1.89,4,3,3.78.46,5.78,1.46,6,3-1.04.01-3.5.24-4,0-.61-.51-.61-.18,0,1l3.5,2,2.5,2-9-3c-1.18-.63-3.63-1.69-5-2-.16-.13.14-.71,0-1-1.27-2.65-2.83-1.83-3-2-.18-.18-.63-3.85-2-4.5,1.29-1.88,2.71,1.19,3.5,1.5.42.16,1-.07,1.5,0Z"/><path class="cls-84" d="M7.01,49.15c.9.19.86.53,0,1,1.71,1.57,2.71,3.24,3,5,.87.28.86.62,0,1l1,1c.98.94,1.65,1.94,2,3,1.72,2.07.57,3.07-2,3l-4-4c-.12-.28.11-.71,0-1l-1-1c-.73-1.84-.73-4.24-2-6-.28-.7-.53-1.35,0-2l2-1,1,1Z"/><path class="cls-1" d="M3.01,44.16c-.28.87-.62.86-1,0-.14-1.49-.12-3.49,0-5,.3-.63.63-.62,1,0-.04,1.61-.14,3.43,0,5Z"/><path class="cls-77" d="M4.01,49.15c.06.65-.03,1.34,0,2-1.27-1.75-1.76-4.48-2-7h1c.2,2.18.85,3.29,1,5Z"/><path class="cls-77" d="M3.01,39.16h-1c.06-.77.14-1.1,1-1-.01.33,0,.67,0,1Z"/><path class="cls-101" d="M7.01,58.15c-.03-.07-.46.37-1-1l1,1Z"/><path class="cls-38" d="M15,61.15c4.1,1.64,8.27,3.52,12.51,5.64l.49,1.36c.87.28.86.62,0,1-.2.89-.54.86-1,0l-1,1c-2.09.52-4.43-.14-7-2-.59-.11-1.37.09-2,0l-.5-1c-1.77-.72-4.63-2.15-5.5-4v-2h1.5l.5-1c.36-.28,1.03.05,2,1Z"/><path class="cls-47" d="M10,27.16c1.09.94.02,2.26-1,3l-2-1c.17-.37-.09-1.37,0-2,.12-.15-.26-1.04,1-1,1.9-2.03,2.47-1.67,2,1Z"/><path class="cls-131" d="M12,24.16c-.8,1.33-.68,2.02-1,3-.27.92-.6.91-1,0-.98-.27-1.18-1-2-1v-1c.39-1.21,1.06-2.21,2-3,.11-.29-.11-.7,0-1h1l1,1.5v1.5Z"/><path class="cls-87" d="M8,25.16c-.3-1.39.53-2.66,2-3-.39,1.03-1.23,1.4-1,2.5l-1,.5Z"/><path class="cls-15" d="M30,77.14l-.12-1.26c7.74.59,14.92-.42,21.55-3.03,5.64-2.1,7.29,5.69,1.56,4.3l-1.05.6c-1.93-.4-7.13-.13-3.95,1.4.87.28.86.62,0,1-4.31.17-12.65-.85-16.5-2-.18-.05-.6-.65-1.5-1Z"/><path class="cls-109" d="M52.99,77.14c.87.28.86.62,0,1l-1,1h-1c-.96.73-2,.74-3,0-1.99-.02-4.01.02-6,0,.68-2.76,2.81-1.61,4.5-2,.4-.09.63-.94,1-1,1.22-.18,5.01-.57,5.5,1Z"/><path class="cls-28" d="M50.99,79.14l-.5,1c-.83.02-1.68-.03-2.5,0v-1c.99.01,2.01,0,3,0Z"/><path class="cls-144" d="M54.99,78.14l-2,1h-1c-.11-.91.28-.88,1-1,.31-.92,1.61-.96,2,0Z"/><path class="cls-148" d="M52.99,72.14c1.77-.32,3.26.49,5-1l-1,3h2c.02.66-.05,1.34,0,2l-1,1c-.28.1-.67-.08-1,0l-1,1c-.3.07-.66-.05-1,0-.63.09-1.38-.1-2,0v-1l2-.5c.02-1.71-1.56-1.56,0-3.5-1.12.13-2.48-.21-3.5,0-1.34.28-5.03,2.79-6,3-2.34.51-7.19-.02-10,0-1.56.01-4.85-.72-5.5,1-1.13-.44-1.67-1.36-3-1v-1c1.32-.02,2.68.04,4,0,6.58-.91,13.07-2.17,19.48-3.79l2.51.79Z"/><path class="cls-144" d="M58.99,77.14c-.35.06-.73-.09-1,0-.12-.96.34-.85,1-1,.02.33,0,.67,0,1Z"/><path class="cls-144" d="M55.99,78.14l1-1c-.07.02.38.67-1,1Z"/><path class="cls-124" d="M77.99,29.16c.01.33,0,.67,0,1,.47.25.43.59,0,1-.05,2.26-.39,10.71-1,11.99l-1,2c-.05.66.02,1.34,0,2-.28.87-.62.86-1,0l-1.36-.19c-.38-4.33.08-8.6,1.36-12.81-.69-.62-.69-1.33,0-2l2-1.5c-.07-1.83.11-3.68,0-5.5l1,.5c.02,1.17-.04,2.34,0,3.5Z"/><path class="cls-107" d="M69.99,13.17c-1.01.13-.82-.42-1-1,1.14-.18.92.9,1,1Z"/><path class="cls-136" d="M39,10.17c.69.29.68.63,0,1,.87.28.86.62,0,1,1.24-.05,1.24.95,0,3,2.54,2.09-.15,3.82-2,1,.21,1.73-.46,2.06-2,1-.32.88-.65.87-1,0-1.57.98-2.12.46-1-1,.47-1.37.41-2.43-1-3l.5-1c1.01-.45,2.66-.67,3.5-1l1-1c.3-.1.7.1,1,0,.28-.55.61-.52,1,0Z"/><path class="cls-138" d="M25,16.17c1.34.31.93.93,1,1l1,1c.12.27-.12.71,0,1l2,2c.69.29.67.63,0,1-.9,3.19-3.7,2.15-3-1-1.31,1.46-1.87.83-1-1-.89-.28-.88-.61,0-1-.4-.48-.73-.48-1,0,.07.34-.26.67-1,1,0,4.34-6.68,3.04-2-2,.16-.17,1.11-1.88,1-2h1c.65-.69,1.38-.74,2,0Z"/><path class="cls-2" d="M31,16.17c1.3-.03,1.25,1,1,2,4.06,1.76,2.31,5.33-1,3-1.59-.07-2.49-2.14-1-3-.38-.53-.71-1.2-1-2,.04-.36-.1-.87,0-1,.52-.77,1.16-1.5,2-1,.47.29.47.96,0,2Z"/><path class="cls-26" d="M32,13.17c.83,0,1.66,0,2.5,0l1.5,2-3,1c-.03-.95-.7-.95-2,0-.06-.65.03-1.34,0-2-.71-.29-.7-.63,0-1,.24-.07.66,0,1,0Z"/><path class="cls-126" d="M43,9.17c2.15,3.2-1.49,3.57-4,2v-1l1-1c.33-.03.67.01,1,0,.66-.03,1.35-.04,2,0Z"/><path class="cls-136" d="M30,18.17h-1c.03-.66-.07-1.35,0-2l1,.5c.12.52-.11,1.08,0,1.5Z"/><path class="cls-136" d="M31,14.17c-.44.11-1.93.91-2,1,.08-1.03,1.06-1.71,2-2v1Z"/><path class="cls-194" d="M27,18.17l-1-1c.09.09.41-.29,1,1Z"/><path class="cls-194" d="M29,21.17c-1.09-.06-1.62-1.09-2-2h1l1,2Z"/><path class="cls-194" d="M21,18.17l-1,3c1.42.42,1.83-.65,3-1,.64-.76,1.36-.71,2,0,.58.5.94.96,1,1,1.75,2.38-.52,4.5-3,3-1.42,2.24-7.24.48-7-1,.1-.23-.18-.75.5-1,1.11-.08,3.01-2.43,4.5-4Z"/><path class="cls-19" d="M52.99,69.14c-.62,3.38-.82.37-.52,1.13.12.31.31.59.52.87v1c-2.22.4-4.65,1.57-6.5,2-5.17,1.2-9.94.84-15.5,1v-1c-.61-.6-.28-.93,1-1,1.68-.6,4.02-.94,7-1,3.36-2.17,7.36-3.17,12-3,.7-.78,1.46-.92,2,0Z"/><path class="cls-58" d="M64.99,65.15c-1.71,1.17-2.89,2.05-4.5,3-2.36,1.39-4.72,3.31-7.5,3h-2v-1l2-1c.19-.9.53-.86,1,0l1-1c1.43-2.84,3.43-4.17,6-4-.92-2.11.45-2.69,2-1,5.14-3.91,6.46-3.19,2,2Z"/><path class="cls-53" d="M68.99,60.15c-.44,1.3-1.61,2.72-2,4-.65.16-1.47.64-2,1l2-4c-1.12-.04-1.77,1.71-2.5,2-.51.21-1.18-.15-1.5,0-1.71-1.97,1.1-4.35,3-3-.36-2.58.31-2.91,2-1,1.88-1.35,2.42-.79,1,1Z"/><path class="cls-36" d="M75.99,50.15c-1.53,2.44-2.52,5.48-4,8-1.24.87-1.65,1.72-2,2-.06.05-.93.05-1,0-.06-.04.15-1.18-1-1-1.95-1.69-.95-3.36,3-5-1.01-2.07.47-5.52,3-5,.3-.63.63-.62,1,0,1.13-.66,1.46-.19,1,1Z"/><path class="cls-92" d="M76.99,48.15v1c-1.17.51-.71.54-1,1-.96.12-.85-.34-1-1-.6-.32-.6-.65,0-1-.87-.25-.85-.58,0-1h1l1,1Z"/><path class="cls-92" d="M75.99,45.15c.19-2.49.94-1.88,1-2v1.5l-1,.5Z"/><path class="cls-23" d="M77.99,31.16c0-.33,0-.67,0-1l1,.5-1,.5Z"/><path class="cls-184" d="M26,70.14l1-1c.29-.07.66.04,1,0l1,1c.32-.66.65-.65,1,0,1.04.36,2.04.7,3,1,2.72-.94,4.39-.61,5,1,.31-.44.64-.43,1,0-2.19,1.03-3.91,1.4-7,1-2.88-.22-5.88-.89-9-2-.48-1.09-2.15-1.74-3.5-2l-.5-1c1.66.32,6.37,2.27,7,2Z"/><path class="cls-40" d="M32,73.14c.1.88-.25.91-1,1-.64.08-1.34,0-2,0l-.5-1-5-1c-.68-.16-.39-.76-.5-1,1.12.13,2.47-.2,3.5,0,.94.18,4.28,1.84,5.5,2Z"/><path class="cls-40" d="M25,74.14v1l-2-2c2.07-.52,1.88.94,2,1Z"/><path class="cls-81" d="M26,70.14c.07-.03-.38-.66,1-1l-1,1Z"/><path class="cls-20" d="M10,43.16c.47,1.18.8,2.52,1,4,2.81.1,3.31,1.3,1,3,.7.09,1.37.42,2,1,1.77,1.01.71,6.84-2,3-.78-1.22-1.21-1.88-2-3.5-.35-.72-.98-.45-1-.5-.09-.21.02-.65,0-1-.75-2.02-.94-5.07,0-7,.28-.87.62-.86,1,0,.64.33.63.66,0,1Z"/><path class="cls-9" d="M15,32.16c.22-.66.56-.63,1,0,.46-1.63.96-1.17,2,0,.87.28.86.62,0,1-.7.51-1.7.85-3,1v2c-.47.4-.47.73,0,1,.87.28.86.62,0,1-.33.86-.66.86-1,0-.13.65-.24,1.08-1,1-.3.85-.64.84-1,0-1.6,1.7-2.26,1.03-2-2,.13-.55-.08-1.36,0-2,.66.03.98-.32,1-1-.56-.3-.55-.63,0-1,.45-.62.4-.56,1-1,.87.42,1.87.42,3,0Z"/><path class="cls-79" d="M12,39.16c.39,1.23-.27,2.23-2,3h-1v-2c.1-.22.96-2.82,1-3l2,2Z"/><path class="cls-79" d="M11,34.16l2,3h-2l-1-2c.04-.34-.07-.7,0-1h1Z"/><path class="cls-117" d="M74.99,34.16c-.06,1.69.31,4.07,0,5.5-.1.47-1.6.95-1,2l2,.5-2,1c1.21,1.53.78,2.45,1,4,.04.32-.02.67,0,1l-1,1c-1.02,2.08-1.99,3.47-3,5-3.47,3.69-3.92,2.17-2-2-1.63-1.36-1.1-3.03,1-3l1-1c-.85-.31-.84-.65,0-1l1-3c.14-1.48.48-2.81,1-4,.01-.33-.02-.67,0-1,.61-1.12.94-2.46,1-4,.06-.3-.02-.66,0-1h1Z"/><path class="cls-14" d="M66.99,18.17c-.07.15-.05.78,0,1l1,1v1c.71,1.91-1.54,1.42-3.07.55-2.64,1.87-3.29,1.68-1.93-.55-.87-.28-.86-.62,0-1,.07-.68.07-1.35,0-2-3.07-2.7-3.07-3.7,0-3,.27.18,1.12-.29,1.5,0,.87.65,2.17,1.93,2.5,3Z"/><path class="cls-102" d="M70.99,29.16c-.3.61-.63.6-1,0-3.99,2.61-3.34-3.05-2-6-1.91-.1-.49-1.46,1-1,1.03,1.62.66,2.34,1,3.5.2.69,1.48,1.12,1,3.5Z"/><path class="cls-197" d="M67.99,31.16c.68.29.67.63,0,1-.26.08-.65-.03-1,0-.96.83-3.02.79-4,0-.19.89-.52.86-1,0,.83-.78,1.5-1.78,2-3,.33-.88.66-.88,1,0,2.08-.94,2.48.11,3,2Z"/><path class="cls-114" d="M66.99,33.16c.34.05.7-.07,1,0,.55.3.54.63,0,1-.24.86-.58.84-1,0-.34,1.49-1.1,1.32-2,0-.87-.28-.86-.62,0-1,.65.06,1.36-.09,2,0Z"/><path class="cls-183" d="M67.99,20.17c-.95.12-.85-.33-1-1l1,1Z"/><path class="cls-183" d="M62.99,21.17c.05.02-.13,1.05.5,1,1.59-2.53,3.69,1.58,4.5-1,1.15-.17.86.78,1,1-1.15-.18-.94.97-1,1-.25.94-.58.92-1,0-2.7,3.06-8.45,2.98-6-1-.9-.26-.88-.59,0-1,.21-1.43,1.6-1.51,2,0Z"/><path class="cls-5" d="M69.99,35.16c.02.33-.03.67,0,1-1.02,1.96-2.75-.42-2-2,.35.05.75-.09,1,0,.07.02-.16,1.18,1,1Z"/><path class="cls-91" d="M53.99,10.17c.3-.03.78-.07,1,0l2.96,3.12-4.96,3.88c.64.28.62.62,0,1l-1,1c.17,1.25-.91,1.9-2,1-1.5,1.14-1.86.63-1-1-1.49-.25-1.06-2.18,0-3-.82-.75.04-1.59,1-2,.04-.33-.04-.67,0-1l1-2c1.3-.57,1.4-.84,3-1Z"/><path class="cls-110" d="M61.99,14.17c.85.64.94.96,1,1l-1,.5c1.36.67.76,1.95,1,2.5-.29.73-.62.72-1,0l-2-1c.21,1.54-.94,2.45-2,1-1.48-.72-1.14-2.05,1-4,.9-.17,2.02.1,3,0Z"/><path class="cls-172" d="M48.99,14.17c.27.96-.07,1.65-1,2,.5,1.25.51,2.93-1,3,.61,1.33.55,2.83-1,3,.65.28.64.62,0,1,1.39,1.57,1.06,2.24-1,2-1.3,1.32-1.66.76-1-1-.66-.33-.66-.66,0-1-.86-.26-.84-.6,0-1,.55-1.41.55-3.08,0-5-2.76.72-3.76-.72-2-3-1.46-.65-2.46-1.31-3-2v-1c1.26-.55,1.89-1.39,3.5-1l.5-1c1.15.08,2.34-.05,3.5,0,1.71,1.56,3.01,2.49,2.5,5Z"/><path class="cls-96" d="M44,17.17c.89,2.82.15,2.7-2,1,1.29,1.41.74,4.62,0,6,.81.63.63,2.22,0,3,1.82-.7,2.16.5,1,2-1.1,2.2-2.43,2.86-4,2-.68-.21-.64-.55,0-1-.97-.35-1.61-1.9-2-3-1.15,1.05-1.92-.94-1-2,.21-.31.87-.65,2-1-.4-1.16-.4-2.49,0-4-2.51,1.8-2.84.47-1-4,2.46-.33,1.88-.95,2-1,.22-.91.56-.88,1,0,.26-.75.59-1.08,1-1,.29-.65.63-.63,1,0,.68,1,1.41,1.94,2,3Z"/><path class="cls-26" d="M37,16.17l1,1.5-1,2c.17.68.76.39,1,.5.44,3.86-.52,3.59-3,1-.18-.19,3.59,1.15,3,3-.04.04.19.74-.5,1-.5-.08-1.02.07-1.5,0-.07.92-.74.92-2,0-.29.66-.63.64-1,0-.89-.19-.86-.53,0-1l-1-1c-1.24.13-1.44-.8-1-2,.58-.4,1.54-.66,2-1.5l-1-1.5c1.03-.19,1.7-.52,2-1,.14-.17.76.15,1,0q.74,1.06,0,0c.3-.19-.3-.69,2-1Z"/><path class="cls-66" d="M33,16.17c.15.67.05,1.12,1,1-.14.17.08,1.37,0,2l-2-1-1-.5c-.05-.5.05-1.01,0-1.5l1-2h1c.06.65-.13,1.43,0,2Z"/><path class="cls-126" d="M42,14.17h-1c-.48-1.38-.82-1.05-1,1-.26.13-.71-.12-1,0v-3h1.5c.84.46,1.1,1.42,1.5,2Z"/><path class="cls-139" d="M29,22.16c.33,0,.67,0,1,0,1.25.45,2.68,2.66,2,4-1.2,2.27-2.52,1.26-4,0v1c2.5-1.22,4.98,1.78,1,2-.62,1.03-1.62,1.03-3,0-.62,1.08-1.29.41-2-2-1.79-.69-3.59-2.55-1-3l3-3c.2.15,1.26.28,1.5,1,.5.02,1-.01,1.5,0Z"/><path class="cls-69" d="M25,19.17c.17.17-.17.86,0,1-.64.07-1.5-.15-2,0-.12-.95.33-.85,1-1,.33-.65.66-.65,1,0Z"/><path class="cls-194" d="M25,19.17c-.32.05-.68-.07-1,0l.5-1,.5,1Z"/><path class="cls-145" d="M23,24.16v1.5c.6.43.8.79,1,1.5,1.14,1.47,1.47,2.8,1,4-1.72.09-3.52-1.12-5.38-3.62l-4.61.62c-.42-.58-1.62-.78-1-3,1.1-.05,1.6-1.1,2-2,1.86.56,3.72,2.25,5.5,0l1.5,1Z"/><path class="cls-11" d="M55.99,64.15c5.94.21-2.16,4.12-5,5-.17.06-1.77,1.84-2.5,2-1.88.42-8.53.54-9.5,1h-1c-2.45-1.18.05-2.38,2-3,3.04-1.01,6.04-1.68,9-2l2-1c.27-.89.6-.87,1,0,.76-1.14,1.43-1.47,2-1,.65-1.12,1.31-1.45,2-1Z"/><path class="cls-159" d="M65.99,60.15l-3,3c-.62.29-1.45.65-2,1-2.41,1.02-3.41.69-3-1-.87-.28-.86-.62,0-1-.06-.55.94-1.22,3-2-1.28-2.57,2.66-3.58,4-3,2.54-3.02,3.2.45,1,3Z"/><path class="cls-121" d="M60.99,64.15c-1.78,1.13-3.77,2.67-6,4l-1,1c-.3.06-.66-.04-1,0-.64.08-1.57-.16-2,0l.5-1c2.09-.25,3.49-2.19,5.5-2l-1-2c-.05-1.06,1.12-1.5,2-1l3,1Z"/><path class="cls-19" d="M53.99,69.14c-.16-1.14.74-.85,1-1,.11.95-.32.86-1,1Z"/><path class="cls-33" d="M68.99,52.15l1,.5c-.98.71-1.2,1.29-1,2.5l2-1c-.83,1.26-2.42,4.42-3,5-.11.11-1.55.9-2,1l-1-1.5,1-1c.05-.63-.97-.45-1-.5-.89-.28-.87-.62,0-1-.93-2.44,1.53-4.55,4-4Z"/><path class="cls-124" d="M74.99,49.15h-1c.17-.36-.12-1.16,1-1,.02.34-.07.71,0,1Z"/><path class="cls-196" d="M31,69.14c1.92.24,1.98.84,2.5,1,1.34.41,2.78-.78,4.5-1,.6-.74,1.31-.66,2,0l-2,3c-2.29.61-3.45-1.71-4.5,0-.63.05-.45-.98-.5-1-1.03-.37-2.03-.7-3-1-.31-.11-.74.13-1,0-.63-.3-.62-.63,0-1,.65,0,1.36-.08,2,0Z"/><path class="cls-81" d="M33,71.14c-.51-.23-1.74.18-2.5,0-.68-.16-.45-.98-.5-1h2.5l.5,1Z"/><path class="cls-81" d="M29,70.14c-.35-.17-1.16.12-1-1,.32-.03.67,0,1,0v1Z"/><path class="cls-137" d="M39,60.15c.28-.87.62-.86,1,0,.72.14.67.49,0,1,1.12,1.58-.29,4.02-2,5-.53.14-1.34-.04-2,0-.25.47-.59.44-1,0-.87-.28-.86-.62,0-1,1.56-.22.92-.52-1.93-.91l-.07-1.08c-.72-.85-.13-1.07,1-1,.9-.17,1.9-.84,3-2,.27-1.48.94-1.48,2,0Z"/><path class="cls-8" d="M25,62.15c.33-.86.66-.86,1,0,2.44-.16,5.93,4.91,1,3-.31-.1-.72.11-1,0l-3-2c-.42-.58-1.62-.78-1-3l1-1c.81-1.31,1.48-.31,2,3Z"/><path class="cls-97" d="M16,50.15c.6.32.6.65,0,1,.85.6.51,1.94-1,4,1.86.32,1.74,1.1,0,2,.87.24.85.57,0,1-.9-.8-1.12-.81-2-2-.28-.38-.71-1.55-1-2h2v-3c-.87-.28-.86-.62,0-1,.28-.87.62-.86,1,0,.29-.66.63-.65,1,0Z"/><path class="cls-41" d="M47,62.15l-1,2c-.53.78-1.26.55-2,0-.29.74-.62.72-1,0,.06-.29-.03-.66,0-1-.6-.33-.6-.67,0-1,.74-3.55,5.27-4.1,4,0Z"/><path class="cls-99" d="M29,63.15c1.21-.53,1.7-.13,1,1,1.94-.34,3.61,0,5,1v1c-1.93.74-4.11.89-6,0-.96-.43-1.88-.96-2-1h2v-.5l-3-2.5c-1.88-4.91,1.98-2.89,3,1Z"/><path class="cls-105" d="M43,57.15c2.2,1.86,2.2,3.52,0,5-.3.64-.63.63-1,0-.04-.32.01-.67,0-1-.77-1.51-.8-3.5,0-5,.28-.87.62-.86,1,0,.88.19.85.52,0,1Z"/><path class="cls-99" d="M26,65.15c-1.72-.69-1.34.31-3-2l2.5,1,.5,1Z"/><path class="cls-97" d="M21,58.15c-1.09-.15-.82.58-1,1h-1c-2.19-1.6.28-2.36,2-2,.11.31-.13.75,0,1Z"/><path class="cls-201" d="M22,60.15v-1c.22.12.66-.09,1,0-.16.27.14,1.16-1,1Z"/><path class="cls-113" d="M15,45.15c4.89-5.62,8.17,2.44,2,3-1.18-.44-1.51-.44-1,0,.56.49-.23,1.74-1,2h-1c-.44,1.02-1.73,1.27-2,0-.26-.77-.58-1.26-1-3,.29-.67.63-.66,1,0-.15-1.27-.17-1.72,1-1-.46-1.63.79-2.21,2-1Z"/><path class="cls-174" d="M16,39.16c-.01,2.28-3.21,4.41-5,4-.28.87-.62.86-1,0-.01-.32-.04-.69,0-1,.2-1.44.08-2.52,2-3,.33.08.77-.12,1,0l1-1c.32.05.68-.07,1,0,1.8-1.43,2.4-.87,1,1Z"/><path class="cls-160" d="M14,50.15v1l-2,1c-.08-.64.16-1.54,0-2h2Z"/><path class="cls-82" d="M12,47.15h-1c-.24-1-.97-1.32-1-1.5-.12-.76.04-1.67,0-2.5h1c.62,1.09.95,2.42,1,4Z"/><path class="cls-140" d="M15,34.16c.69-.34,1.35-.52,2,0,2.47-.21,2.8.46,1,2,2.06.63,2.06,1.3,0,2,.92.28.91.61,0,1-1.22,1.3-1.88,1.3-2,0,.12-.95-.33-.85-1-1v-1c-.58-.3-.57-.63,0-1l-2-1v-1c.64-.08,1.54.16,2,0Z"/><path class="cls-187" d="M18,33.16c.2-.73.54-.69,1,0,1.81,1.7-.52,2.55-2,1-.66.05-1.34-.02-2,0,.32-.11.39-.82,3-1Z"/><path class="cls-17" d="M15,32.16l-2.5,1-.5-1c.99-.02,2.01.03,3,0Z"/><path class="cls-82" d="M14,38.16v2c-1.15.18-.94-.97-1-1l1-1Z"/><polygon class="cls-25" points="15 37.16 14 36.66 15 36.16 15 37.16"/><path class="cls-167" d="M15,28.16l2-4,.5,3,1-2c.55.01,2.67.79,3,1,2.22,1.42.73,4.27,3.5,5,1.08-2.29,2.84,2.32,0,1-.98,1.01-1.53,1.44-2,0l-2-1c.04,1.66-1.5,1.51-2,0-.34-.05-.7.07-1,0l-1-1c-1.1-.84-1.15-.81-2-2Z"/><path class="cls-13" d="M62.99,20.17v1c-.34-.17-1.37.09-2,0-.63-.3-.62-.63,0-1-1.31-1.64,3.11-2.54,2,0Z"/><path class="cls-183" d="M62.99,18.17c.04.1,1.41-.17,1,1.5l-1,.5-.5-1c-1.35-.6-1.41.94-1.5,1-.17,1.38-.82,1.75-2,1-1.83-.72.27-3.33,2-3,.29-.65.63-.64,1,0h1Z"/><path class="cls-120" d="M69.99,29.16l-2,2h-1.5c-.78-.26-1.4-1.92-1.5-2-.96-.73-.63-1.73,1-3-1.51-1.7-.9-2.19,1-3,.21.05.85.07,1,0-.4,2.25.41,3.69,1,5.5l1,.5Z"/><path class="cls-46" d="M58.99,25.16c1.15.91.69,1.84,0,3,.67.6,1.34.6,2,0,1.53-1.63,2.2-1.63,2,0l1-1c-.55-2.49.31-2.92,2-1-.28.7-.05,1.87-1,3-.17-.13-.67.08-1,0-.3,1.61-1.48,2.48-3,3-.59,1.45-2.51,1.6-3,0l-8.14,1.45c-1.84.03-2.27-.08-.85-1.45.14-.59.33-1,1-1,.18-.9.52-.87,1,0l1-1c-.87-1.1-.33-1.53,1-1,1.14-1.18,1.14-1.84,0-2-.35-1.17,2.34-3.68,4-3l2,1Z"/><path class="cls-120" d="M63.99,29.16v2l-2,1c-.33.02-.67-.01-1,0l3-3Z"/><path class="cls-5" d="M66.99,34.16c1.53,1.98,2.53,4.31,3,7-.04.66.06,1.35,0,2-.38,2.64-1.37,4.3-3,5-.52,1.77-.92,1.32-2,0-3.1-.66-1.77-3.12.58-4.89-.51-2.89-.04-4.59,1.42-5.11-2.89-1.79-3.89-3.12-3-4,.33-.01.67,0,1,0,.66.01,1.34-.04,2,0Z"/><path class="cls-152" d="M69.99,36.16c.13,1.55.09,3.43,0,5h-2c-.16-2.01.68-4.28-1-5.5v-1.5c.33.02.68-.04,1,0,.05,1.1,1.1,1.6,2,2Z"/><path class="cls-182" d="M49.99,20.17c0,.82-.73,1.02-1,2-.29.71-.63.69-1,0-1.56.22-.91-2.09,0-3h1c.09.75.11,1.1,1,1Z"/><path class="cls-190" d="M57.99,18.17c-1.33,1.65-2.39,2.34-3,0-.68-.29-.67-.63,0-1-.02-1.19,1.27-1.53,2-2l1-1c.29-.08.66.06,1,0,.5,1.89-.52,2.64-1,4Z"/><path class="cls-110" d="M56.99,15.17l1-1c-.07.02.1.29-1,1Z"/><path class="cls-7" d="M54.99,18.17c.65,1.9-.58,2.44-2,1,.09-.32-.1-.71,0-1,.26-.15,1.16.14,1-1h1v1Z"/><path class="cls-21" d="M60.99,18.17l-2,3c-.32.88-.65.88-1,0h-1c-3.44-.64-1.63-2.46,1-3,.96-.18,1.07-.86,2-1,.64.13,1.07.25,1,1Z"/><path class="cls-142" d="M44,22.16c-.1.31.1.71,0,1-.4.88-1.22,1.61-2,1-.17-1.08-1.35-1.3-1-2.5l1-3.5c2.32-.86,3.35,2.31,2,4Z"/><path class="cls-12" d="M45,25.16c.57.29.55.62,0,1,1.37.58-.11,2.86-1,4-.23.68-.57.65-1,0-.87-.27-.86-.61,0-1-.28-.92-.81-1.12-1-2,.29-2.27.96-3.27,2-3l1,1Z"/><path class="cls-83" d="M44,17.17c.8,1.44,1.43,2.73,1,4.5-.17.69-.98.45-1,.5.24-1.88,0-3.47-2-4l2-1Z"/><path class="cls-100" d="M44,24.16c-.06.14-1.68.31-1,2.5l-1,.5c-.19-.87.15-2.05,0-3l2-1c-.11.3.11.72,0,1Z"/><path class="cls-161" d="M38,24.16h-1.5l-1.5-3,1.5,1,1.5-2c.24.11.84-.18,1,.5v3c-.16.67-.96.46-1,.5Z"/><path class="cls-115" d="M36,25.16c.11.46.87,1.86,1,2,.93.99,1.26,1.99,1,3,.67.28.65.61,0,1-.3.56-.63.55-1,0-.34.08-.67-.25-1-1-1.17-.47-1.75-2.06-1-3l-1-1c-.65-.29-.64-.63,0-1,.23-1.94.77-.19,2,0Z"/><path class="cls-170" d="M43,29.16c.09.3-.07.68,0,1l-1,1c.87.28.86.62,0,1-.1.9-.45.85-1,0-.67.73-1.38.73-2,0-.66-.29-.64-.63,0-1h2l-1-3,3,1Z"/><path class="cls-176" d="M39,30.16c-.28.87-.62.86-1,0-.06-.17-1.76-.65-1-3,.2.2,1.67.67,2,1.5.1.51-.09,1.05,0,1.5Z"/><path class="cls-162" d="M41,14.17c.16,1.11-.64.82-1,1v-2l1,1Z"/><path class="cls-119" d="M39,31.16v1c-.23.68-.57.64-1,0-.54-.3-.52-.64,0-1-.07-.31.1-.7,0-1h1c.06.32-.05.67,0,1Z"/><path class="cls-156" d="M35,17.17c1.21-.08,1.1.9,1,2h-1v-2Z"/><path class="cls-143" d="M33,24.16c-1.14.16-.84-.73-1-1,.96-.12.85.34,1,1Z"/><path class="cls-143" d="M34,26.16c-.28.87-.62.86-1,0-.03-.33.04-.67,0-1h1v1Z"/><path class="cls-179" d="M32,26.16c.67,1.13.91.9,1,1,.29-.25.63.08,1,1,.91.21,1.22,1.11,1,2,.89.25.72,1.41,0,2-.27,1.81-1.73,1.97-2,0-.53.82-1.25.59-2,0-.1.91-.45.85-1,0-1.27,1.57-5.31.49-3-1-.4-2.33,2.49-.99,4,0,.16.1-3.73-.7-2-2l.5-2-1,1c-.62.05-.45-.95-.5-1-.65-.29-.64-.63,0-1,1.03-.16,1.74.26,2.5-1l1.5,1Z"/><path class="cls-192" d="M26,29.16c1.63-.21,2.57.95,1,2,.11.24-.18.82.5,1,.83.04,1.68-.07,2.5,0,1.32,1.02,1.96,1.86,0,2-1,.99-2.72.35-3-1-.78.41-1.42.72-2,0v-1l1-.5c0-.64-.97-.46-1-.5-1.3-1.73-.64-2.72-1-4l2,2Z"/><path class="cls-64" d="M29,29.16l2,2h-4c-.37-.84-.93-1.25-1-2l.5-1c1.17-.45,1.45.96,2.5,1Z"/><path class="cls-154" d="M28,27.16s-1,.14-1-.5c.18-.61.56-.43,1-.5v1Z"/><path class="cls-201" d="M33,48.15c1.26-.02,1.2,1,1,2,1.96,1.97,1.75,2.58-1,2-.71-.21-1.38-.21-2,0,.86,1.14.32,1.7-1,1,.41,1.85-.26,2.85-2,3-.21,1.12-.11,3.68,2.14,2.97l-1.15,2.03c.83.3.83.64,0,1,.87.28.86.62,0,1l-3-3v2c-.32-.06-.69.08-1,0-.6-1.48-.94-3.15-1-5,1.65-2.41,4.24-5.97,6-8-.27-1.74,1.68-3.73,3-2,.9.1.85.45,0,1Z"/><path class="cls-112" d="M22,50.15c-.06,3.3-4.12,1.02-4.12.06.01-1.61,16.16-11.29,12.12-4.06,1.94.52.66,2-1,2-.4.44-2.63,1.58-3,2-2.73,1.71-4.07,1.71-4,0Z"/><path class="cls-160" d="M34,42.16c.87.28.86.62,0,1-.33.86-.66.86-1,0l-2,2c.29.94-.04,1.27-1,1l-1-2c-3.09-.84-3.6,1.75-5.5,3-.24.16-.78-.15-1,0-1.23.84-2.54,1.33-3.5,2.5l3,.5c1.23.39,1.56,1.73,1,4-.48.56-.78.76-1,1-.72,0-1.53-.33-2-1-1.1.9-3.48,1.24-5,1,.2-2.15.49-2.36,1-4l3.27-3.77c.17-3.14,2.55-4.7,4.72-2.22.73-2.49,3.86-4.65,6-3,.23-.91.56-.88,1,0,1.46-1.14,2.46-1.14,3,0Z"/><path class="cls-193" d="M22,50.15h1.5c1.14-1.12,1.78-2.37,3.5-2l-1,2c-.94,1.06-1.7,2.49-3,4l-2-1,1-3Z"/><path class="cls-10" d="M21,56.15c.12.28-.11.7,0,1l-2,2c-1.2.17-3.3-.1-4-1-.1-.13.03-.64,0-1,.84-2.42,2.68-3.59,5-2,1.06-.92,1.49-.36,1,1Z"/><path class="cls-99" d="M25,62.15c-.36-.09-.83.15-1-.5v-2c-.17-.65-.65-.41-1-.5.3-.52.69-1.55,1-2l1,.5v4.5Z"/><path class="cls-97" d="M22,55.15c-.07.07.14,1.18-1,1-.57-1.35-.96-.94-1-1-.87-.32-.87-.65,0-1h1.5l.5,1Z"/><path class="cls-39" d="M40,53.15c.61.23.57.57,0,1-.21,2.11-.54,4.11-1,6-.08,2.12-1.62-.46-2,0-.69-.29-.67-.63,0-1-3.78-5.54-3.44-7.87,1-7,1.25-.79,1.92-.45,2,1Z"/><path class="cls-8" d="M33,63.15c1.1.17,2.11,1.65,4,1v1c-.66,0-1.34-.02-2,0-1.49.05-3-.03-4.5,0-.67-.15-.46-.97-.5-1-.63-1.5,2.14-2.11,3-1Z"/><path class="cls-43" d="M34,56.15c.68-3.12,1.68-2.12,3,3v1c.41,2.13-2.31,4.37-3,2-.74-.29-.73-.62,0-1,.62-1.15.76-1.89,0-3,1.19.97,1.17,1.99,0,3-.42,1.28-2.05,1.95-3,1-1.21-.08-1.25-1-1-2-1.91-.48,3.4-4.17,4-2-2.24-.19-1.79-.86,0-2Z"/><path class="cls-150" d="M40,54.15c-.02,1.99.09,4.02,0,6h-1c.03-2.3.36-4.11-1-6,.65-.05,1.39.1,2,0Z"/><path class="cls-174" d="M26,37.16c2.51-1.38,3.22.19,1,2-2.31.54-4.64.88-7,1,1.59,1.05,3.25,1.71,5,2,1.64.07,1.31,1.07-1,3-.69.39-2.33.88-2.5,1-1.86,1.26-3.26,4.09-5.5,5,.1-.32-.12-.74,0-1-.52-.79.14-1.83,1-2,.08-.1,1.66-.64,2-1.5v-1.5c-1.29.13-2.75-.2-4,0-.89-.28-.89-.95,0-2-1.57-1.4,1.29-3.44,3-4,.06-.23.05-.94,0-1,.5-2.05,3.04-1.44,4-1l1-1c1.47-1.32,2.51-.71,3,1Z"/><path class="cls-4" d="M20,54.15c.15.26-.15.79,0,1l-1,.5v1.5c-1.9-1.24-2.1-1.24-4,0-.06-.64-.06-1.36,0-2l1-.5c-.59-2.14,2.28-1.25,3.5-3.5l-.5,2.5c-.05.63.97.45,1,.5Z"/><path class="cls-160" d="M16,50.15h-1c.1-.44.92-1.92,1-2h1c-.29.37-.75,1.45-1,2Z"/><path class="cls-95" d="M43,57.15c1.19-.35,2.53-.35,4,0,2.63-.31,3.74,1.95,1.53,3.63,1.43,2.71.92,3.5-1.53,2.36-.87-.29-.86-.62,0-1-.37-.9-.76-1.41-1.5-2l-2.5,2c.09-1.65-.06-3.34,0-5Z"/><path class="cls-67" d="M47,62.15c.11.26-.08.67,0,1,.87.28.86.62,0,1-.32.05-.67-.01-1,0l-1-2h2Z"/><path class="cls-56" d="M34,62.15l-1,1c-1.61-.25-1.76.58-3,1-.15-.11-1.17.15-1-1v-1c.16-1.43,1.45-1.35,2,0,1.34-.24,1.69-.26,3-1v1Z"/><path class="cls-41" d="M54.99,48.15c1-.81,1.33-.15,1,2,.03,1.16-.3,2.16-1,3h1c.28-.87.62-.86,1,0,.8.36.6,1.39,0,2-1.49,1.32-2.11,2.12-.15,2.62-2.58,1.57-4.19,3.03-4.85,4.38.66.29.64.63,0,1-.32.05-.68-.07-1,0-1.4.31-2.58.79-4,1v-1h2c-1.16-1.32-.7-2.52-1-3.5-.17-.54-.71-.65-1-2.5-2.12.97-3.03.23-2-2-.56-2.46.08-2.68,2-1,.29-.93.62-.92,1,0,.89-.19,1.56-1.19,2-3-2.15-1.78-1.74-2.63,1-2-.75-1.2-.33-2.63,1-3,1.25-1.04,2.99.54,3,2Z"/><path class="cls-46" d="M45,55.15c1.03,1.28,1.82.85,2,2l-1,2h-2l-1-2c.01-.33-.02-.67,0-1-.93-1.02-.64-3.67,1-3,1.89-.7,2.42.59,1,2Z"/><path class="cls-42" d="M44,53.15c-.4.85-.82.38-1,3h-1c0-.33,0-.67,0-1-.03-.99.04-2.01,0-3-.89-.18-.86-.52,0-1l1-2c.28-.87.62-.86,1,0,1.83,1.37,2.13,3.49,0,4Z"/><path class="cls-29" d="M15,43.16l1,.5-1,1.5c-.63.1-1.36.62-2,1-3.63-.5-.22-5.85,2-3Z"/><path class="cls-86" d="M17,48.15c-.17.17-.82-.17-1,0l-1-1,2,1Z"/><path class="cls-18" d="M18,39.16c-.11.46-2.77,3.83-3,4-.41.3-3.44.03-3,2.5l1,.5c-.06.04.15,1.17-1,1-.79-1.38-1.31-2.29-1-4v-2c2.38,2.11,2.69-1.35,5-2,.52-.15,1.36.07,2,0Z"/><path class="cls-3" d="M24,34.16c.52-.75,1.59-.75,2,0,.84-.65,1.98-.12,2,1,2.17,1.88.4,3.42-2,2-.34-.16-1.03.23-1.5,0-.37-.18-.65-.63-1.5-1-.34.6-.67.6-1,0-1.68.99-3.01.99-4,0,0-.97-1.1-1.11-1-2,.49-.04,1,.04,1.5,0l.5-1c2.07.19,3.17.61,5,1Z"/><path class="cls-146" d="M22,36.16c.64.3.62.63,0,1-.05.03.17.85-.5,1-.99.23-2.39-.14-3.5,0-1.27-1.59,0-.43,0-2l2.5-1c1.62-.45,1.4.96,1.5,1Z"/><path class="cls-145" d="M23,32.16c-.48-.06-1,.07-1.5,0l-.5-1c.49.05,1-.05,1.5,0l.5,1Z"/><path class="cls-145" d="M21.5,28.16c.65,0,.65,1,0,1s-.65-1,0-1Z"/><path class="cls-70" d="M59.99,54.15c0,.66,0,1.34,0,2h-1c-2.41,1.56-2.32-4.18,0-3,.37-.06.7.27,1,1Z"/><path class="cls-103" d="M64.99,48.15h2v1c-.21.21-.69,1.7-1.5,2h-3.5c-.58-.3-.56-.63,0-1l1-2c.32-2.65,1.24-2.54,2,0Z"/><path class="cls-160" d="M58.99,38.16h1c2.19.45,2.52,1.12,1,2-.85,1.76-.51,2.42,1,2,.3-.66.63-.65,1,0-.46-1.47.83-1.72,2-1,2.35,2.08-.9,4.85-3,6-1.19.62-2.52.95-4,1h-1c.18-1.15-.87-.9-1-1-1.09.62-2.64-.77-2-2-2-2.29-4-4.63-6-7-.99,1.08-2.52.38-3-1-.88-.25-.86-.58,0-1,.31.06.66-.05,1,0,4.14-.43,9.79-.7,12.93.92l.07,1.08Z"/><path class="cls-103" d="M57.99,48.15c-.22-.42-.3-1.18-1-1.5l2-1.5v2h3c.87.28.86.62,0,1l-1,2c-.35-.04-.74.09-1,0l-2-2Z"/><path class="cls-123" d="M60.99,22.16c.05.14,1.7-.36,0,2,1.89.73,2.62-1.74,3.5-2,1.14-.33,1.41.74,2.5,1,.76,2.31-.93,2.83-1,3-.74.15-1.33.65-2,1l-1,1c-.48.15-1.35-.04-2,0-.18.9-.52.86-1,0-.11-1.09-.45-2.09-1-3-.49-.06-1,.06-1.5,0l-.5-1c.26-.9.59-.88,1,0l2-2c.28-.87.62-.86,1,0Z"/><path class="cls-177" d="M60.99,21.17c.08.32-.1.72,0,1h-1l-2,2c-.3.12-.76-.14-1,0-1.25.72-3.66,2.22-4,3,.87,1.12.35,1.52-1,1l-1-1c-.86-.33-.86-.67,0-1,.62-.93,1.93-2.15,3-2-1.13-1.75.42-1.92,2-2,.29-.65.63-.64,1,0,.13-.59.33-1,1-1,.34-.05.71.08,1,0,.58-.16,1.56-.68,2-1v1Z"/><path class="cls-169" d="M58.99,25.16c.97.11,2.02-.07,3,0v2l-2,1c-.28.87-.62.86-1,0-.07-.18-2.12-.42,0-3Z"/><path class="cls-155" d="M57.99,32.16c-2.2,1.03-7.99,2-11,2-2.01-.8-.95-2.61,1-2,.24-.86.57-.84,1,0,.1.04-.12,1.45,1.5,1,1.69-1.88,4.95-.7,7.5-1Z"/><path class="cls-65" d="M52.99,29.16c-.05.04.06.32-1,1l-1,1c-.31.07-.68-.05-1,0h-1c-.88-.24-.86-.58,0-1l1-1,1-1c.28-.65.62-.63,1,0,1.19-.52,1.68-.11,1,1Z"/><path class="cls-120" d="M60.99,28.16v2h-2c-.08-.63.16-1.57,0-2h1c.33-.02.67.02,1,0Z"/><path class="cls-78" d="M52.99,27.16h2c.09,1.22-1.47,1.56-2,2-1.14.16-.85-.74-1-1,1.09-.33.72-.35,1-1Z"/><path class="cls-120" d="M62.99,28.16c.07-.02-.28-.33,1-1l-1,1Z"/><path class="cls-155" d="M50.99,31.16c-.17-1.15.77-.86,1-1,.12.96-.34.85-1,1Z"/><path class="cls-149" d="M48.99,32.16c-.88-.25-.86-.58,0-1h1l-1,1Z"/><path class="cls-171" d="M60.99,34.16c.12.87.12,1.53,0,2,1.52.74.85,1.41-2,2-1.43-.26-2.82-2.36-4.5,0-2.8-2.51-5.35-1.55-8.5-2l.5-1c5.16.74,10.05-.7,14.5-1Z"/><path class="cls-114" d="M63.99,34.16c.34,1.46,1.61,2.3,3,2-.07.64.14,1.47,0,2-1.49,1.69-2.16,1.69-2,0-.55-.81-1.22-1.47-2-2-.36,1.47-1.12,1.32-2,0-.99-.03-2.01.01-3,0v-1h2.5l.5-1c.99-.07,2.01.04,3,0Z"/><path class="cls-149" d="M46,30.16c1.43-.98,1.21.63,1,2,.3-.48.64-.46,1,0l-1,2h-2c-.24,1.03-1.54.09-1-1,.43-.82.43-1.49,0-2-.69-.21-.65-.55,0-1,.25-.88.58-.86,1,0,.33-.75.67-.75,1,0Z"/><path class="cls-61" d="M66.99,38.16c-.27.99-.94,1.26-1,1.5-.22.82,1.84,3.48,1,5.5h-2v3h-2c-.28.87-.62.86-1,0v-1l-1-2c2.57.09,3.6-1.76,4-4-.86-.24-.84-.58,0-1-.46-.25-.42-.59,0-1-.91-.1-.86-.45,0-1h2Z"/><path class="cls-7" d="M53.99,21.17c.4.48.73.48,1,0,.24-.89.58-.87,1,0,.66.29.64.63,0,1,.13,1.22-1.58,1.61-2,2-1.06.41-2.06.74-3,1l-1,1c-.28.87-.62.86-1,0-.73-.33-.73-.67,0-1,.06-.32-.06-.68,0-1-.62-.33-.62-.67,0-1l1-1c.39-.28,1.86-1.14,2-1,.67-.66,1.34-.66,2,0Z"/><path class="cls-45" d="M57.99,18.17c-.4,1.14-1.38,1.66-1,3-.26.67-.6.65-1,0-.33.03-.67-.04-1,0-.26.48-.6.45-1,0-.74.17-1.04.42-1.5,1l-.5-1c0-.83.74-1.01,1-2,.89-.29,1.14-.79,2-1s2.08.18,3,0Z"/><path class="cls-141" d="M48.99,22.16c-.08.29.05.66,0,1l-1,1c-.33-.05-.68.06-1,0v-2h2Z"/><path class="cls-183" d="M56.99,22.16c-.66-.29-.64-.63,0-1,.33-.04.67.05,1,0l-1,1Z"/><path class="cls-49" d="M48.99,26.16c1.74.9.57,2.64-1,3-.26.89-.6.87-1,0-1.11.82-1.59.34-1-1,.27-.48.74-1.69,1-2,.07-.09,1.54-.88,2-1-.06.32.06.68,0,1Z"/><path class="cls-179" d="M37,31.16l1,1c.28.07.65-.03,1,0,.65.06,1.35-.06,2,0v1c-.33.85-.67.85-1,0l-3,1c.86.28.85.62,0,1-.3.52-.64.5-1,0-.87-.28-.86-.62,0-1-1.9-.31-1.79-1.09,0-2-.82-.27-.67-1.37,0-2,1.15-.17.87.82,1,1Z"/><path class="cls-26" d="M35,27.16h-1c-.02-.33.01-.67,0-1,1.02-.13.82.43,1,1Z"/><path class="cls-96" d="M43,31.16h-1c-.13-1.01.42-.82,1-1v1Z"/><path class="cls-90" d="M38,32.16c-1.33-.35-.82-.74-1-1h1v1Z"/><path class="cls-63" d="M33,32.16h2c.28-.87.62-.86,1,0,.03.66-.01,1.34,0,2l-2,1c-.28.87-.62.86-1,0l-2-1c-.19.88-.53.85-1,0v-2c.33.03.67-.01,1,0,.86.62,1.14.66,2,0Z"/><path class="cls-192" d="M33,32.16l-.5,1h-1l-.5-1c.66.03,1.34,0,2,0Z"/><path class="cls-6" d="M56.99,55.15l2,2c-.16.66-.64,1.42-1,2l-4,3c-.22-.11-.64.06-1,0-.32-.05-.67.03-1,0-2.07-.17-3.51.95-3-2l4-1v-2l2,1v-3h2Z"/><path class="cls-59" d="M36,49.15h1c1.95-3.15,3.36,2.01,1,3-.08.16-1.57,1.63-2,2.5l1,4.5-1-.5v-2.5c-.66-.02-1.34.05-2,0-.33.84-.67.84-1,0-.26.49-.6.45-1,0-2.94-.2-2.48-.61,0-2-.13-1.75.2-2.42,1-2,.05-.12.48-.55,1-2-.85-1.47-.42-1.97,1-1,.28-.87.62-.86,1,0Z"/><path class="cls-191" d="M30,53.15l2,1c-.13.42-.09,1.46,0,2,.83,1.25.28,1.69-1,1l-1,1c1.91-.19.02,1.71-1.26,1.54-.19-.03-1.46-3.09-.73-3.53.16-.36-.26-1.1,0-1.5.57-.86,1.85-1.34,2-1.5Z"/><path class="cls-73" d="M37,43.16v3c2.01.27,1.98,1.49,0,2-.14.58-.33,1-1,1h-1l-2-1c-.03-.32,0-.67,0-1s-.06-.72,0-1l1-1c.36-.61.84-1.29,1-2-.13-1.1,1.09-1.68,2-1,.83.28.81.61,0,1Z"/><path class="cls-56" d="M28,56.15c.31,1.18,1.42,1.49,1,3,1.13.18.95-.95,1-1l1-1c.05-.05-.35-.61,1-1,.33.49.67.49,1,0,.32-.03.68-.02,1,0v2c-1.87-.29-1.76.65-2.5,1-.29.14-.76-.13-1,0-.72.4-.46.97-.5,1,.58,1.06.12,1.49-1,1l-2-3.5c-.45-1.62.96-1.4,1-1.5Z"/><path class="cls-108" d="M35,49.15c-1.05-.14-.82.49-1,1l-1-.5c-.05-.5.05-1.01,0-1.5l2-1v2Z"/><path class="cls-188" d="M33,52.15c-.47,1.16-.96,1.87-1,2,.15-.32-.15-.96,0-1.5l-1-.5c.08-.06.15-1.6,1.5-1l.5,1Z"/><path class="cls-27" d="M40,41.16c.68,2.58,1.41,6.8,0,9,1.47.94,1.47,2.05,0,3h-1.5l-.5-1c1.04-2.2-.96-2.82-1-3v-1c-.05-.57-.13-1.74,0-2-.69-1.02-.69-2.02,0-3-.05-.06-.05-.77,0-1-.65-1.13-.4-2.44,1-2,.28-.87.62-.86,1,0l1,1Z"/><path class="cls-168" d="M31,36.16c1.55-.54,4.34-.3,5,1,1.22,2.71,1.31,5.73-2,5-.99.04-2.01-.07-3,0-3.15-2.7.34-2.14.28-1.91-.2.77-.69,1.39-1.28,1.91-.05.01.19.83-.5,1-3.08.75-2.51.34-5.5,2l-1-2h1.5c.68-.26.4-.77.5-1-.63-.48-.3-1.15,1-2-.38-.47-.05-.81,1-1-.11-.41-.9-1.95-1-2l2-2c1.07.33,1.88.63,3,1Z"/><path class="cls-88" d="M27,39.16c.04,1.26-.96.94-1,1-1.41,2.24-4.81,2.02-6,0,.26-1.48,1.66-.64,2.5-2l4.5,1Z"/><path class="cls-160" d="M26,40.16c-.32.46-.74,1.41-1,2h-5c.05-.66-.1-1.4,0-2h1.5c1.37,1.82,2.8,1.01,4.5,0Z"/><path class="cls-118" d="M31,62.15c-.6.11-1.34-.05-2,0,0-.34-.07-.76,0-1-.17-1.15.86-.89,1-1l1,.5v1.5Z"/><path class="cls-50" d="M47,50.15c.87.28.86.62,0,1v1c.82.39.69,1.52,0,2-1,.24-1.16,1.02-2,1-.26-.33-.87-1.47-1-2,.32-.68-.19-2.83,0-4,2.16-1.21,3.16-.87,3,1Z"/><path class="cls-24" d="M45,40.16c2.39.65,3.75,1.87,5,4,.87.28.86.62,0,1,.89,1.4.36,1.9-1,1-.79,2.55-2.48,3.57-5,3h-1c-1.48-1.93-1.42-5.5,1-3l1-1c-1.57-.35-2.57-1.68-3-4-2.04-2.45,1.64-3.23,3-1Z"/><path class="cls-32" d="M45,45.15l-1,1s-.83-.18-1,.5c-.08.82.13,1.72,0,2.5-.08.48.09,1.01,0,1.5l-1,.5c-.02-.33.03-.67,0-1-1.79-1.47-2.5-7.89,0-9,2.11-.98,3.26,1.89,3,4Z"/><path class="cls-168" d="M22,37.16v-1c.27.13.72-.12,1,0,.17,1.15-.82.87-1,1Z"/><path class="cls-80" d="M58.99,53.15l-1,.5c-.68,2.17.94,2.36,1,2.5.07.16.05.79,0,1h-3l1-2c.06-.65-.13-1.44,0-2-1.44-1.79-.87-2.39,1-1,.04.06.32-.14,1,1Z"/><path class="cls-5" d="M61.99,48.15h1l.5,1h2.5v1c-1.33,0-2.67,0-4,0-.33,0-.68.03-1,0-.24-.32-1.13-1.89-1-2h2Z"/><path class="cls-62" d="M55.99,50.15c.62.65,1.11.85,2,2-.96-.12-.84.34-1,1h-1c-.3.58-.63.57-1,0-.48-1.11-1.33-1.69-1-3h2Z"/><path class="cls-183" d="M57.99,24.16l2-2c-.06,1.09-1.09,1.62-2,2Z"/><path class="cls-76" d="M53.99,24.16c-.16.14-.67,1.67-1.5,2-.51.1-1.05-.09-1.5,0-.63-.3-.62-.63,0-1,.63-.69.93-2.48,2.5-2l.5,1Z"/><path class="cls-151" d="M56.99,22.16h-1v-1c.33-.03.67.04,1,0v1Z"/><path class="cls-173" d="M48.99,30.16c.03.33-.04.67,0,1s-.03.67,0,1c-.26-.12-.68.1-1,0-.29-.09-.68.08-1,0-.23-1.28-.14-2.22,1-3,.32-.88.65-.87,1,0,.61.3.6.63,0,1Z"/><path class="cls-72" d="M51.99,28.16c-.3.09-.69-.09-1,0-.84-.31-.84-.64,0-1,1.14-.16.85.74,1,1Z"/><path class="cls-163" d="M49.99,29.16c-1.14-1.54-.64-2.09,1-1-.27.89-.11.73-1,1Z"/><path class="cls-37" d="M48.99,30.16v-1c.29-.87.62-.86,1,0-.14.21.15,1.17-1,1Z"/><path class="cls-127" d="M50.99,26.16c-.02.33.03.67,0,1-.03.35.08.74,0,1-1.31.38-.79.68-1,1-.28.09-.66-.06-1,0s-.7-.08-1,0c.31-1.13.86-2.26,1-3h1c.23-.57.57-.53,1,0Z"/><path class="cls-171" d="M62.99,36.16c.66.04,1.34-.02,2,0,.02.66-.05,1.34,0,2,.02.33-.01.67,0,1-.12.59-.33.99-1,1,0,1.5-1.93.73-3,0l-1-2c1.3.14,2.69-.09,4,0l-1-2Z"/><path class="cls-51" d="M47,32.16l-1-2c-.23-.87.2-1.28,1-1,.32-.07.7.08,1,0-.28,1.01-.11,1.84-1,3Z"/><path class="cls-157" d="M47,29.16c-.07.02.38.7-1,1-.32.07-.68-.06-1,0,.15-.72.65-1.36,1-2l1,1Z"/><path class="cls-111" d="M44,33.16c-.01-.66.03-1.34,0-2,.36.09.84-.15,1,.5l-1,1.5Z"/><path class="cls-189" d="M48,38.16c2.02.34,2.06,1.59,0,2-.16,1.58-.9,1.11-2,0-.78-1.23-.82-1.67-1-3,2.3-.76,2.83.93,3,1Z"/><path class="cls-60" d="M60.99,40.16h4c-.03.33.06.69,0,1-.72.15-1.35.65-2,1-2.09-1.33-2.42-1.33-1,0-.05.02.16.83-.5,1-1.47.36-2.87-1.55-2.5-3h2Z"/><path class="cls-160" d="M64.99,40.16h-1l1-1c.01.33.03.68,0,1Z"/><path class="cls-104" d="M53.99,21.17c.3-.07.66.04,1,0l-.5,1-.5-1Z"/><path class="cls-49" d="M50.99,26.16c-.32.06-.67-.05-1,0-.18-1.13.95-.95,1-1v1Z"/><path class="cls-158" d="M55.49,19.17c.65,0,.65,1,0,1s-.65-1,0-1Z"/><path class="cls-52" d="M36,34.16v1h-1c-.3.58-.63.57-1,0l.5-1h1.5Z"/><path class="cls-120" d="M33,35.16h-2v-1c.48.06,1-.07,1.5,0l.5,1Z"/><path class="cls-74" d="M37,49.15h-1l1-1c.03.34-.07.71,0,1Z"/><path class="cls-165" d="M32,56.15c.27-.08.65.03,1,0l-.5,1c-.61-.18-.43-.56-.5-1Z"/><path class="cls-43" d="M30,58.15c-.18-1.14.93-.93,1-1,.18,1.14-.93.93-1,1Z"/><path class="cls-74" d="M37,46.15l-2-1v-1l2-1s1.05-.12,1,.5c-1.22.98-1.22,1.02,0,2,.05.63-.98.45-1,.5Z"/><path class="cls-22" d="M30,42.16l-1.5-3h5.5l-3,3c-.34.02-.7-.06-1,0Z"/><path class="cls-93" d="M48.99,46.15c1.29-1.03,2.97,1.55,2,3-.32.45-1,1.55-1,2-.28.87-.62.86-1,0l-2-1c-1.28.6-1.92-.78-3-1l2-1v-3c.33-.4,1.59,1.6,3,1Z"/><path class="cls-85" d="M50.99,45.15c.99-.28,1.41.05,1,1,.62,2.22-.6,2.43-1,3l-2-3c.07-.03-.37-.47,1-1,.32-.87.65-.87,1,0Z"/><path class="cls-44" d="M48,54.15c-.16-.07-.79-.05-1,0-.09-.63.17-1.65,0-2,.04.05.84-.16,1,.5v1.5Z"/><path class="cls-198" d="M54.99,53.15h1l-.5,1c-.66,0-.39-.75-.5-1Z"/><path class="cls-44" d="M48.99,51.15h-2v-1c.05-.02-.13-1.04.5-1l1.5,2Z"/><path class="cls-116" d="M47,52.15c-.02-.05-1,.14-1-.5l1-.5c.08.33-.13.84,0,1Z"/><path class="cls-181" d="M44,46.15c.13-.18-.15-1.17,1-1-.09.75-.11,1.1-1,1Z"/><path class="cls-74" d="M48,38.16c.37.15,1.03-.22,1.5,0,1.66.79,5.64,3.15,3.5,4.5l1,2.5c-.36-.27-1.66-.74-2-1-1.21-.92-1.11-.58-2-1-.16-.08-1.73-2.44-2-3v-2Z"/><polygon class="cls-168" points="34 35.16 35 35.16 34.5 36.16 34 35.16"/></g></svg>