<?xml version="1.0" encoding="UTF-8"?><svg id="_圖層_2" xmlns="http://www.w3.org/2000/svg" viewBox="0 0 154.25 126.07"><defs><style>.cls-1{fill:#edde9b;}.cls-2{fill:#d8d886;}.cls-3{fill:#627c69;}.cls-4{fill:#a48156;}.cls-5{fill:#f4e297;}.cls-6{fill:#8bc08f;}.cls-7{fill:#567359;}.cls-8{fill:#526c50;}.cls-9{fill:#f0e197;}.cls-10{fill:#6e8771;}.cls-11{fill:#b5cf7a;}.cls-12{fill:#648565;}.cls-13{fill:#8e663c;}.cls-14{fill:#4f6954;}.cls-15{fill:#60815f;}.cls-16{fill:#5e835f;}.cls-17{fill:#658366;}.cls-18{fill:#f1e18e;}.cls-19{fill:#adc970;}.cls-20{fill:#58725f;}.cls-21{fill:#b69470;}.cls-22{fill:#5b7e63;}.cls-23{fill:#bb9161;}.cls-24{fill:#956d3f;}.cls-25{fill:#f0e08e;}.cls-26{fill:#5b8862;}.cls-27{fill:#82ba85;}.cls-28{fill:#597f5b;}.cls-29{fill:#698d63;}.cls-30{fill:#f0e291;}.cls-31{fill:#f1e39b;}.cls-32{fill:#b4ca78;}.cls-33{fill:#e7de92;}.cls-34{fill:#6ea772;}.cls-35{fill:#f2e191;}.cls-36{fill:#946434;}.cls-37{fill:#b2c777;}.cls-38{fill:#895a27;}.cls-39{fill:#81b984;}.cls-40{fill:#e6d597;}.cls-41{fill:#9eb5a0;}.cls-42{fill:#678967;}.cls-43{fill:#b2cb83;}.cls-44{fill:#aec770;}.cls-45{fill:#607e66;}.cls-46{fill:#a3722f;}.cls-47{fill:#608363;}.cls-48{fill:#6b826c;}.cls-49{fill:#b4c980;}.cls-50{fill:#8bc28e;}.cls-51{fill:#b6ca78;}.cls-52{fill:#5c8b65;}.cls-53{fill:#ead78f;}.cls-54{fill:#699363;}.cls-55{fill:#f3e598;}.cls-56{fill:#607c63;}.cls-57{fill:#afcc6d;}.cls-58{fill:#4f7150;}.cls-59{fill:#87602c;}.cls-60{fill:#51715b;}.cls-61{fill:#91c090;}.cls-62{fill:#4b6a54;}.cls-63{fill:#77532e;}.cls-64{fill:#855c31;}.cls-65{fill:#7ea874;}.cls-66{fill:#85bd88;}.cls-67{fill:#6c8b6a;}.cls-68{fill:#84bb88;}.cls-69{fill:#87bf8f;}.cls-70{fill:#f1e090;}.cls-71{fill:#5c7b67;}.cls-72{fill:#677d69;}.cls-73{fill:#b2ca77;}.cls-74{fill:#85bd8a;}.cls-75{fill:#6d9972;}.cls-76{fill:#986f3e;}.cls-77{fill:#a7c56e;}.cls-78{fill:#8e6a43;}.cls-79{fill:#7aa572;}.cls-80{fill:#704b27;}.cls-81{fill:#4c744d;}.cls-82{fill:#79a56f;}.cls-83{fill:#b1ce78;}.cls-84{fill:#6f4a23;}.cls-85{fill:#eede97;}.cls-86{fill:#906438;}.cls-87{fill:#a2bba4;}.cls-88{fill:#62816b;}.cls-89{fill:#b2c56f;}.cls-90{fill:#577b5f;}.cls-91{fill:#517052;}.cls-92{fill:#4e6f5a;}.cls-93{fill:#f1e394;}.cls-94{fill:#81b785;}.cls-95{fill:#537159;}.cls-96{fill:#678e6b;}.cls-97{fill:#8bbd8f;}.cls-98{fill:#87be8a;}.cls-99{fill:#aeca70;}.cls-100{fill:#8f6838;}.cls-101{fill:#56725d;}.cls-102{fill:#adc678;}.cls-103{fill:#84bc88;}.cls-104{fill:#c2a078;}.cls-105{fill:#75a16c;}.cls-106{fill:#8dc394;}.cls-107{fill:#8dbe90;}.cls-108{fill:#8cbf8e;}.cls-109{fill:#b0c571;}.cls-110{fill:#8bc08e;}.cls-111{fill:#56755b;}.cls-112{fill:#986b2d;}.cls-113{fill:#81582b;}.cls-114{fill:#658068;}.cls-115{fill:#63816b;}.cls-116{fill:#81b988;}.cls-117{fill:#659668;}.cls-118{fill:#d8b88e;}.cls-119{fill:#597b63;}.cls-120{fill:#5d8a67;}.cls-121{fill:#6b9064;}.cls-122{fill:#aac768;}.cls-123{fill:#f0de8a;}.cls-124{fill:#709969;}.cls-125{fill:#865d31;}.cls-126{fill:#759d6b;}.cls-127{fill:#eee08d;}.cls-128{fill:#87bd8c;}.cls-129{fill:#9d6d39;}.cls-130{fill:#6f8973;}.cls-131{fill:#a77d51;}.cls-132{fill:#eee39a;}.cls-133{fill:#7fb782;}.cls-134{fill:#84ba89;}.cls-135{fill:#6b7f6e;}.cls-136{fill:#a97843;}.cls-137{fill:#f2e095;}.cls-138{fill:#87bb8e;}.cls-139{fill:#5b7360;}.cls-140{fill:#517258;}.cls-141{fill:#976a2c;}.cls-142{fill:#657467;}.cls-143{fill:#86be89;}.cls-144{fill:#835a2d;}.cls-145{fill:#5b7d5e;}.cls-146{fill:#acc87e;}.cls-147{fill:#94c697;}.cls-148{fill:#66846a;}.cls-149{fill:#efe29c;}.cls-150{fill:#63986b;}.cls-151{fill:#567559;}.cls-152{fill:#627466;}.cls-153{fill:#619569;}.cls-154{fill:#4f6b51;}.cls-155{fill:#59685d;}.cls-156{fill:#e6d698;}.cls-157{fill:#adc476;}.cls-158{fill:#63826d;}.cls-159{fill:#efe08e;}.cls-160{fill:#56735a;}.cls-161{fill:#5d7260;}.cls-162{fill:#84ba86;}.cls-163{fill:#6f846f;}.cls-164{fill:#8cc38c;}.cls-165{fill:#648a64;}.cls-166{fill:#5a755e;}.cls-167{fill:#f1df8c;}.cls-168{fill:#4f6f50;}.cls-169{fill:#84ba87;}.cls-170{fill:#719b69;}.cls-171{fill:#efdf88;}.cls-172{fill:#8d653a;}.cls-173{fill:#648068;}.cls-174{fill:#5f7e5f;}.cls-175{fill:#b9cc82;}.cls-176{fill:#a9c46c;}.cls-177{fill:#7f5726;}.cls-178{fill:#87bb89;}.cls-179{fill:#628463;}.cls-180{fill:#677e69;}.cls-181{fill:#567659;}.cls-182{fill:#f3e092;}.cls-183{fill:#e4c9a0;}.cls-184{fill:#b7c97e;}.cls-185{fill:#f3e69a;}.cls-186{fill:#6b8769;}.cls-187{fill:#5b7d61;}.cls-188{fill:#8c6540;}.cls-189{fill:#87c08e;}.cls-190{fill:#92c596;}.cls-191{fill:#f5e29c;}.cls-192{fill:#745028;}.cls-193{fill:#7eb185;}.cls-194{fill:#697f6d;}.cls-195{fill:#f0df8a;}.cls-196{fill:#64411c;}.cls-197{fill:#bdd074;}.cls-198{fill:#f1e396;}.cls-199{fill:#5b8b63;}.cls-200{fill:#8a633d;}.cls-201{fill:#5d8063;}.cls-202{fill:#648368;}.cls-203{fill:#956b3b;}.cls-204{fill:#724a26;}.cls-205{fill:#619069;}.cls-206{fill:#f2e297;}.cls-207{fill:#855a2d;}.cls-208{fill:#81b985;}.cls-209{fill:#82b887;}.cls-210{fill:#5f3c1b;}.cls-211{fill:#64806a;}.cls-212{fill:#597d5a;}.cls-213{fill:#7b5229;}.cls-214{fill:#5b775b;}.cls-215{fill:#678368;}.cls-216{fill:#55785e;}.cls-217{fill:#946c41;}.cls-218{fill:#63936a;}.cls-219{fill:#acc56d;}.cls-220{fill:#b3c97a;}.cls-221{fill:#8bc091;}.cls-222{fill:#adc270;}.cls-223{fill:#5a7e5c;}.cls-224{fill:#617b67;}.cls-225{fill:#b4cb7c;}.cls-226{fill:#ba9d87;}.cls-227{fill:#68796c;}.cls-228{fill:#6b9667;}.cls-229{fill:#94683a;}.cls-230{fill:#976a39;}.cls-231{fill:#57765b;}.cls-232{fill:#5c7762;}.cls-233{fill:#6d986f;}.cls-234{fill:#87b98e;}.cls-235{fill:#9b7344;}.cls-236{fill:#f1e49b;}.cls-237{fill:#8fc091;}.cls-238{fill:#8e6330;}.cls-239{fill:#ad874e;}.cls-240{fill:#7fb683;}.cls-241{fill:#5a7959;}.cls-242{fill:#628165;}.cls-243{fill:#82b986;}</style></defs><g id="_圖層_1-2"><path class="cls-231" d="M11.18,37.08l1.37,2.68c-2.04,7.31-3.6,14.51-4.66,21.58l-1.72.72c-3.12,1.43-2.92-3.87-1.77-5.88l.77-6.11c.13-.27.88-4.77,1-5.5.43-2.58-.16-4.84,1-7.5.08-.17,1.43-1.97,2-3,3.72-4.97,4.96-1.05,2,3Z"/><path class="cls-216" d="M84.16,105.05l1,1c.88.3.87.63,0,1l1,1c.26-.86.6-.84,1,0,.76,1.73,1.62,2.04,2.59.94,2.06,1.18,7.91,5.88,6.41,8.05l5,3c.25-.87.58-.85,1,0,2.59,1.37,5.26,2.37,8,3,2.99.46,3.99,1.12,3,2-.49.81-1.22.59-2,0-.22.65-.56.61-1,0-.33-.02-.67.03-1,0-2.45-.4-4.78-1.07-7-2-.33.63-.66.63-1,0l-6-3c-2.21,1.88-8.33-1.84-7-5-.87-.88-2.33-2.86-3-4l-1-1c-.08-.33.09-.72,0-1-.92-.87-2.04-2.05-1-3-1.15-.88-1.49-1.58,0-2,.29-.66.63-.64,1,0,.9.18.87.52,0,1Z"/><path class="cls-214" d="M22.17,5.09c-.69.89-.84,3.22,0,2,.33-.88.67-.88,1,0,.04.03-.13,1.04.5,1,.09,0,.72-.63,1.5-1,4.37-4.12,3.05-.47,1,3l1,1c.88.25.86.58,0,1,1.77,2.43,1.77,4.33-1,2-1.28.7-1.95.36-2-1-.36,1.43-.69,3.09-1,5-.27.86-.61.84-1,0-1.11.26-1.88.24-2-1-.28.25-.62-.08-1-1-3.23-.43-2.89-4.49-2-7-.05-.32.02-.67,0-1-.11-1.61-.07-3.38,0-5,.28-.87.62-.86,1,0,2.1,1.25,2.44,1.25,1,0-2.83-3,7.26-.63,3,2Z"/><path class="cls-15" d="M20.17,17.09c.57.72,1.08,1,2,1,.25.15.77-.15,1,0,.81-.3,1.7.11,2,1,1.63-.92,2.63-.26,3,2,.92,1.59.25,3.59-2,6,3.21,1.61.33,3.14-2,1-.22.91-.56.88-1,0-1.43-.13-2.76-.13-4,0-.19.89-.52.85-1,0l-1,1c-1.89,2.16-3.44.41-2-2,.35-.98,1.02-1.98,2-3l4-1c.27-.23-.7-1.22-1-2-1.94-.98-2.27-1.64-1-2-.07-.28.03-.65,0-1-1.05-1.08-1.05-1.75,0-2,1.16-.18.94.97,1,1Z"/><path class="cls-179" d="M17.17,29.08c1.32,2.86-2.19,7.02-5,8-.28.87-.62.86-1,0,.22-.86-.32-1.76,1-2.5l-1.5-1.5-1.5,1c.97-1.72,1.67-3.49,3-5l3-2,2,2Z"/><path class="cls-48" d="M113.15,125.04c2.47-1.58,6.42-1.4,9,0l-.5,1c-3.16-.08-6.35.11-9.5,0-.33-.01-.68.04-1,0-.64-.3-.62-.63,0-1,.66.02,1.34-.02,2,0Z"/><path class="cls-173" d="M43.17,120.04c1.11.66,2.45,1.33,4,2v1c-.66-.02-1.34,0-2,0-.99-.01-2.01,0-3,0-1.85-.17-3.36-1.41-2-3,.57-.93,2.07-.73,3,0Z"/><path class="cls-186" d="M109.15,125.04c-1.14-.1-2.4.15-3.5,0-.32-.04-1.07-1.01-3.5-1v-1c2.19.43,4.24.96,6.5,1l.5,1Z"/><path class="cls-186" d="M111.15,126.04c-.75-.09-1.1-.12-1-1,.33.02.67-.01,1,0v1Z"/><path class="cls-71" d="M152.14,93.05c.55,2-.21,5.07-1,7-.05.99.03,2.01,0,3-1.65.67-2.09,4.03-3,5.5-2.43,3.94-7.63,8.83-11.5,11.49-.4.28-1.22-.18-1.5,0h-1l-.18-1.32c4.59-3.7,9.03-7.6,12.18-12.67-1.49-1.18-.82-3.18,2-6-3.66-.76-1.63-4.54,1-2,.38-1.31.71-2.64,1-4-1.89-.31-1.78-1.09,0-2,.28-.87.62-.86,1,0,.85-1.58,1.18-1.25,1,1Z"/><path class="cls-22" d="M134.15,120.04c.07.83-.6,1.5-2,2-.32.06-.67-.05-1,0-.25.56-.58.52-1,0l-1,1c-.63.68-1.36.63-2,0-3.79,1.47-1.78-1.25,1-2,.3-.62.64-.61,1,0,1.08-1.25,2.47-2.41,4-3-1.41-3.21,3.87-6.44,7-6l2.38-3.12c-1.23-2.23,1.35-4.24,3.62-2.88-2.34,6.48-7.17,9.35-12,13.99Z"/><path class="cls-211" d="M128.15,121.04l-.5,1h-1.5l1,1c.87.28.86.62,0,1-.28.1-.68-.09-1,0l-2,1c-.65.08-1.34-.03-2,0-2.96.11-6.04.08-9,0l-.5-1h-2l-.5-1c1.39-.7,3.64-.76,5,0,.19-.89.52-.85,1,0,2.81-.12,5.48-.45,8-1l2-1c.24-.89.58-.87,1,0,.26-.67.6-.64,1,0Z"/><path class="cls-10" d="M126.15,124.04c-.13.04.5.69-2,1l.5-1h1.5Z"/><path class="cls-10" d="M129.15,123.04c-.71,1.63-1,.63-2,1v-1c.66-.02,1.34.05,2,0Z"/><path class="cls-211" d="M132.15,122.04l2-2h1c-.78.51-.03,1.46-3,2Z"/><path class="cls-211" d="M130.15,123.04c-.3.06-.66-.03-1,0,.28-.64-.1-.67,1-1,.64.29.63.63,0,1Z"/><path class="cls-10" d="M130.15,123.04v-1c.28-.08.66.05,1,0,.11.95-.32.86-1,1Z"/><path class="cls-20" d="M6.18,62.07c.85.38.73,1.49,0,2,.62.28.6.61,0,1,.29,1.05-.41,2.83-1,4,2.67.94,2.67,2.05,0,3-.4,1.29-.74,2.62-1,4,.77,1.15,1.58,2.52,0,3,.82,3.29.7,6.7,0,10,.32.82.66,1.82,1,3,.7.14.65.49,0,1,1.48.22,1.67,1.88,1,3,.85.26.83.59,0,1,.19,2.05-.14,3.72-1,5,.53.3.52.64,0,1-3.12,1.13-3.34-2.42-3-5-.14-.35.15-.97,0-1.5l-1-.5c.13-1.22.19-3.35,0-4.5-.03-.19-.92-3.32-1-3.5.4-4.62-.56-9.99,0-14.49.43-3.5,3.95-21.25,5-23.49-.22,2.06.32,4.54,0,6.5-.06.38-1,.67-1,1,0,.28,1.94,4.23,2,4.5Z"/><path class="cls-90" d="M14.17,110.05c2.15-1.94,3.48-.94,4,3,.89.25.87.58,0,1l3,2c.32-.89.65-.89,1,0,4.3,1.5-.06,4.84-2,2-.32-.09-.71.1-1,0l-1-1c-.29-.13-.77.14-1,0l-2-2c-1.66-1.45-2.69-2.79-4-4-1.23-1.37-1.23-2.03,0-2,.9-.41,1.9-.08,3,1Z"/><path class="cls-160" d="M40.17,120.04l.5,1h1.5v2c-2.96-.02-6.06.19-9,0-4.36-2-.12-3.27,3.08-1.72l1.91-1.28c.22-.87,1.41-.71,2,0Z"/><path class="cls-7" d="M38.17,120.04c-.11.05-.63,1.76-1.5,2l-3.5-1v2c-2.26-.15-2.55-.65-4-1-1.39-1.74-.88-2.05,1-1l1-1c2.13-.69,4.46-.69,7,0Z"/><path class="cls-166" d="M29.17,120.04c.26-.66.6-.63,1,0,.64.3.63.63,0,1-.26.15-1.16-.14-1,1-.31-.08-.69.08-1,0l-2-1c-.31-.1-.72.1-1,0-7.51-2.63,1.67-4.9,4-1Z"/><path class="cls-119" d="M11.18,109.05v2c-.53-.49-2.36-1.83-3-2-.75-.08-1.08-.42-1-1,.12-.23-.08-.66,0-1v-1c1.3-1.81,5.44,1.44,4,3Z"/><path class="cls-202" d="M29.17,118.04c.86.24.84.58,0,1,.87.28.86.62,0,1-1.84-.28-2.02-.86-2.5-1-1.03-.3-2.16.15-3.5-1v2l2,1c-.85-.31-2.57-.51-3.5-1-.5-.26-1.5-1.31-1.5-2,.71.2,1.07.4,1.5,1l1.5-1.5-1-1.5c.33-.87.67-.87,1,0l3.8.81c1.19-1.64,1.99-.81,2.2,1.19Z"/><path class="cls-202" d="M28.17,122.04c-2.16-.54-1.87-.96-2-1h1.5l.5,1Z"/><path class="cls-202" d="M17.17,117.04c-1.41-.89-1.51-1.57-2-2l2,2Z"/><path class="cls-202" d="M19.17,118.04c-1.38-.48-.94-.97-1-1l1,1Z"/><path class="cls-67" d="M37.17.1c2.69-.29,5.74.21,8.5,0l.5,1-1.19,1.28c-2.78-.9-8.27-2.13-9.81.72,2.69,1.21,1.35,1.88-4,2,.26,1.99-.56,2.42-2,1,.94,1.67.15,3.96-2,4-.3.64-.63.63-1,0-.26-1.82,1.32-2.25,1-4-.19-.22-1.33.68-2,1l4-4c2.57-1.3,5.41-2.72,8-3Z"/><path class="cls-155" d="M151.14,73.06c.66,2.66,1.32,5.33,2,8,.05.9-.22,2.54,0,3,.66,2.91.66,4.9,0,6,.08.24-.02.65,0,1l-1,2-1-1c-.92-3.33-.65-7.69,0-11l-1-1c-.91-.1-.86-.45,0-1-.5-.69-.84-1.69-1-3-2.7.4-3.83-3.23-1-4-.83-.52-.6-1.25,0-2-.84-1.22-.37-1.7,1-1,.99.85,1.66,2.18,2,4Z"/><path class="cls-135" d="M153.14,90.05c-.02-.05-1.05.13-1-.5,1.68-1.22.84-3.49,1-5.5.02.05.83-.18,1,.5.33,1.36-.23,3.47,0,5l-1,.5Z"/><path class="cls-135" d="M151.14,100.05c.14-2.72.68-4.47,1-7,.06-.48-.07-1,0-1.5l1-.5c.23,3.44-.93,5.37-1,8.5l-1,.5Z"/><path class="cls-142" d="M153.14,81.06l-1-.5c-.21-2.7-.72-4.74-1-7.5.24.11.84-.18,1,.5.11,2.77.85,4.63,1,7.5Z"/><path class="cls-152" d="M150.14,68.06l1,2c.04.33-.02.67,0,1,.04.66-.07,1.35,0,2-.24-.11-.83.18-1-.5.45-1.57-.52-2.25-1-3.5-2.27-1.81-3.96-6.04-4-9,.28-.87.62-.86,1,0,.71,1.76,2.73,5.6,4,8Z"/><path class="cls-95" d="M81.16,73.06c.87.28.86.62,0,1-.88,2.61-1.54,5.28-2,8,.72,2.13.78,4.88,0,7l1,5c.91.33.91.67,0,1-.06.57.28,1.57,1,3,.89.28.88.61,0,1l1,1c.87.33.87.66,0,1l1,1c.68.26.65.59,0,1,.71.14.65.49,0,1,.08.64-.09,1.37,0,2-.26.95-.93.61-2-1-.12-.26.11-.7,0-1l-1-1c-.09-.31.1-.7,0-1l-1-2c-.71-.14-.65-.49,0-1l-1-2c-.65-.33-.65-.67,0-1-1.43-.64-1.45-1.46,0-2-1.89-.3-2.89-.97-3-2-.74-1.62-.75-4.38,0-6-.29-3.59.38-5.26,2-5-.52-1.17-.18-2.5,1-4-.86-.33-.86-.67,0-1,1.1-4.74,2.1-5.74,3-3Z"/><path class="cls-45" d="M66.16,111.05c.28-.87.62-.86,1,0,.62,1.2.17,1.65-1,1l-1,1c.85.78-.94,2.51-2,3-.28.63-.61.62-1,0-1.47,1.07-3.13,2.07-5,3-.11.24.18.83-.5,1-1.68-.03-2.93.6-4.5,1l-2,1c-.65.06-1.34-.02-2,0-1.53.08-1.86-.59-1-2-.87-.28-.86-.62,0-1,.17-2.98,6.58-4.8,8-2,3.61-1.24,6.61-3.23,9-6,.33-.6.67-.6,1,0,.33-.65.66-.65,1,0Z"/><path class="cls-160" d="M45.17,120.04h2l1,.5v1.5c-.33,0-.67,0-1,0-1.33-.03-2.67.02-4,0v-2c.15-.83,1.44-.68,2,0Z"/><path class="cls-209" d="M52.17,121.04l-.5,1c-.5.05-1.01-.05-1.5,0l.5-1c.52-.12,1.08.11,1.5,0Z"/><path class="cls-158" d="M62.16,117.04l-5,2c.39-.89,3.64-2.6,5-3,.61.3.6.63,0,1Z"/><path class="cls-47" d="M83.16,106.05c.24,1.62.59,1.79,1,3-1.7-.4-2.29-2.47-3-4l2,1Z"/><path class="cls-145" d="M80.16,102.05h-1v-1c-.47-.25-.43-.59,0-1l1,.5c.13.52-.12,1.11,0,1.5Z"/><path class="cls-145" d="M81.16,104.05l-1-1c.02.07.49-.38,1,1Z"/><path class="cls-47" d="M85.16,111.05c-.96.12-.85-.34-1-1,1.14-.16.85.74,1,1Z"/><path class="cls-103" d="M22.17,32.08c2.47-2.44,4.6,2.1,2.18,1.56-.15-.03,1.12-1.09,1.82.44,6.69,1.8,2.41,5.5-2,8l-.4,1.9c-7.4,1.57-11.7,3.05-11.38,11.33l-2.22,4.75c.84,1.21.48,1.78-1,2-.3.61-.63.6-1,0,.64,1.01.3,1.68-1,2-.3.64-.63.62-1,0,0-.65.12-1.45,0-2l2-5.5c-.18-6.96,1.39-13.29,3-19.49h1c4.72-4.83,7.39-5.5,8-2l2-2c-.82-.33-.82-.67,0-1Z"/><path class="cls-219" d="M91.16,107.05l1.76.27c3.14,4.99,7.79,6.51,12.98,7.42l1.25,2.31c4.22,3.32,1.03,3.3-3,3-.5,1.04-1.21.82-2,0-.32-.05-.67.05-1,0l-5-3c-.19-.42-5.45-5.26-6.5-6-.29-.2-1.93-.17-2.5-1.5v-1.5c.72-1.15,1.58-1.39,3-1,.28-.87.62-.86,1,0Z"/><path class="cls-32" d="M87.16,102.05c1.47-1.3,4.79,3.64,3,5l-1,2c-.21.24-1.29-.69-2-1-.29-.13-.76.14-1,0l-1-1c-.14-.23.13-.7,0-1l-1-1c-.07-.31.05-.68,0-1-.66-.29-.64-.63,0-1-2.1-4.19.35-3.63,3-1Z"/><path class="cls-186" d="M104.15,120.04c3.54-.22,7.46-.05,11.27.4.4.89.28,1.76-.28,2.6-1.65,0-3.36.11-5,0-3.23-.22-4.65-.62-7.5-2l-.5-1c.63.1,1.47-.15,2,0Z"/><path class="cls-56" d="M101.15,123.04c-2.87-.42-3.94-1.71-6-3h1.5c1.08,1,2.7,1.79,4,2l.5,1Z"/><path class="cls-56" d="M101.15,120.04c-1.54-.23-4.47-1.81-5-3h1.5c1,.86,1.64,2.28,3,2l.5,1Z"/><path class="cls-47" d="M84.16,104.05h-1c-.04-.33.02-.67,0-1,.28-.87.62-.86,1,0v1Z"/><path class="cls-47" d="M85.16,106.05c-.96.12-.85-.34-1-1,1.09-.15.82.57,1,1Z"/><path class="cls-47" d="M86.16,108.05l-1-1c.04.06.94.96,1,1Z"/><path class="cls-228" d="M29.17,6.09c2.8.03,4.24,1.15,3.63,4.3,1.52,1.83,2.98,3.73,4.37,5.69,2.05,1.2,3.53,1.21,4.45.02l1.55,1.98c.24-.87.57-.84,1,0,2.55-.59,2.73,0,1,2-.1.9-.45.85-1,0-.26.48-.6.44-1,0-1.34,2.35-7.83.84-9-2-2.8,1.65-6.79-3.4-7-6,.05-.32-.02-.67,0-1-.6-.28-.58-.61,0-1,.27-1.5.6-3.39,2-4Z"/><path class="cls-223" d="M34.17,18.09c3.39,1.1,2.05,3.86-1,2-.4-.47-.73-.47-1,0-3.85.7-6.87-2.12-6-6,.27-.12.81.18,1-.5.16-.43-.08-1.01,0-1.5l1,.5c-.28,1.16,5.17,5.33,6,5.5Z"/><path class="cls-8" d="M19.17,3.09h2c.29,1.9-1.09,3.29-3,3v-3c.33-.08.75.11,1,0Z"/><path class="cls-154" d="M24.17,13.09c.44,1.07.78,2.73,1,5,.87.28.86.62,0,1-.93-.44-.99-.35-2-1v-6c1.15-.18.94.97,1,1Z"/><path class="cls-15" d="M26.17,14.09c.65,1.95.32,3.28-1,4l-1-.5v-4.5c.32.15.98-.19,1.5,0,.68.19.38.73.5,1Z"/><path class="cls-58" d="M22.17,7.09v2h-1v-3.5l1-.5c.06.65-.03,1.34,0,2Z"/><path class="cls-168" d="M22.17,18.09l-2,1v-2c1.02.46,1.16.51,2,1Z"/><path class="cls-223" d="M27.17,11.09c-.9.1-.89-.26-1-1h1c-.06.31.03.66,0,1Z"/><path class="cls-110" d="M23.17,28.08c.27-.12.7.11,1,0,3.3.34,4.16,1.52.85,2.21.81,1.68-.14,2.28-2.85,1.79.05.06.05.94,0,1l-2,2c-.94.44-1.96-.2-2.5-1l-1.5,3h-1.5l-.5,3-2-3v-1.5c2.03-1.71,3.07-4.76,5-6.5l1-1c.33,0,.67-.01,1,0,1.53.21,2.87.21,4,0Z"/><path class="cls-98" d="M31.17,24.08c.65.13,1.08.24,1,1,4.19.74.1,5.5-3,5,.81,1.19-2.98,1.57-3.15,1.44-1.12-.91,3.71-2.02.15,1.56.87.28.86.62,0,1l-2,1v-3h-2c-.14-.17-1.57-.03-1-2,1.96,1.27,2.47,1.46,4-.5l-1-1.5c.36-.14,1,.19,1.5,0,.7-.27.45-.98.5-1,.29-2.38,1.83-5.1,4-3,.28-.87.62-.86,1,0Z"/><path class="cls-241" d="M30.17,23.08c.91.33.91.67,0,1-.5.64-2.73.9-2,3-.63.09-1.57-.16-2,0l-1-1.5c1.83-1.33.8-1.9,0-3.5,2.39.76,2.82-.95,3-1,.27-.07.65.02,1,0,1.68.39,2.01,1.05,1,2Z"/><path class="cls-98" d="M23.17,28.08c-.1.04.12,1.45-1.5,1-.76-1.16-1.33-.96-2.5-1l.5-1c.95-.32,1.39.32,2,1h1.5Z"/><path class="cls-98" d="M17.17,29.08l1-1c.18,1.14-.91.92-1,1Z"/><path class="cls-96" d="M34.17,119.04c.3-.62.63-.61,1,0,.28-.87.62-.86,1,0,.3-.58.63-.57,1,0,.63-.72,1.34-.74,2,0,.19-.89.52-.86,1,0,1.03-2.89,4.91-2.78,6,0,.65.84.09,1.15-1,1-.33-.16-1.35.06-2,0-.92-.09-2.08-.09-3,0-.65.06-1.67-.16-2,0l-2.5,1c-1.04-1.59-2.76-.85-4.5-1-.18.54-.53.49-1,0-.33-.04-.68.05-1,0v-1c1.67-.7,3.37-.76,5,0Z"/><path class="cls-225" d="M149.14,85.06c.28-.87.62-.86,1,0,.82,2.24.71,4.73,0,7-.01.66.03,1.34,0,2-.39,1.34-.72,2.67-1,4-.27.12-.81-.18-1,.5-.18.47.12,1.07,0,1.5-1.94,5.63-6.92,4.05-3.51-.03.08-.1-.24,2.51-1.49,1.03-1.97-.13-1.15-3.98,1-3-1.61-1.6-.31-7.77,2-5,.24-8.86,1.24-11.52,3-8Z"/><path class="cls-176" d="M148.14,100.05c-.53,1.95-1.32,4.11-2,6l-6,6c-1.62-.75,1.98-3.48,1.83-3.33-1.91,2.09-5.88,6.16-4.82,1.33.32-1.11.99-2.11,2-3-.98-1.62,1.83-6,4-6,.07-.11,1.54.03,1-2h1l-.5,4,3.5-3Z"/><path class="cls-135" d="M151.14,92.05h-1c.04-2.32.03-4.68,0-7-1.32-2.34-1.32-3.68,0-4,.3-.64.63-.63,1,0,.4,3.45-.29,7.46,0,11Z"/><path class="cls-135" d="M149.14,98.05v-3.5l1-.5c-.05,1.15.03,2.33,0,3.5-.16.68-.76.39-1,.5Z"/><path class="cls-146" d="M140.14,112.04c-2.03,2.82-6.44,4.74-7,6-1.42,1-2.75,1.67-4,2-.58.79-1.3.73-2,0-.57-1.52.43-3.18,3-5-.64-.3-.63-.63,0-1,.3-.41.63-.39,1,0l1-1c-.62-1.03-.14-1.22,1-1,.26-.82.6-.8,1,0,1.05-1.14,2.05-1.81,3-2l.5,1,4.5-3c.23,1.6-1.06,2.7-2,4Z"/><path class="cls-10" d="M129.15,120.04c.69.29.67.63,0,1-.27.09-.65-.05-1,0-.33.05-.67-.04-1,0-.87-.28-.86-.62,0-1,.64-.07,1.48.15,2,0Z"/><path class="cls-211" d="M133.15,118.04c-.24.56-3.02,2.68-4,3v-1c1.16-.33,1.68-1.24,2.5-2h1.5Z"/><path class="cls-43" d="M130.15,115.04s-.12,1.05.5,1l1-1,1.5,2c-2.51-.47-4.5,1.56-6,3v1c-.33.04-.68-.05-1,0l-2,1c-2.6.41-5.26.74-8,1-.33,0-.67,0-1,0l-.5-1c-3.63.25-6.83-.14-10-1-.69-.19-.45-.98-.5-1v-2l4,1-1-2c.25-.87.58-.85,1,0,1.26.42,2.59.75,4,1,1.91-2.67,4.09-2.67,6,0,.19-.89.52-.86,1,0,1.38-.27,2.72-.6,4-1,.57-1.82,4.85-3.94,6-2,.29-.59.63-.58,1,0Z"/><path class="cls-186" d="M124.15,122.04c-.05.02.18.83-.5,1-1.72.42-5.35-.05-7.5,0l.5-1c1.83-.4,6.29.57,7.5,0Z"/><path class="cls-10" d="M126.15,121.04l-.5,1c-.53.14-1.14-.14-1.5,0,.12-.06-.4-.62,2-1Z"/><path class="cls-178" d="M12.18,73.06c1.78,2.02,1.69,6.58-1.47,7.48.22,1.92-.3,3.42-1.53,4.52.64.32.63.65,0,1v1l1.37.77c-1.09,2.12-1.21,3.86-.37,5.23,4.28-2.22.81,9.86-2,8l-1-1c-1.78-.06-2.3-1.91-1-3,.16-.17-.15-.75,0-1,.18-4.01.01-8.57-.5-13.68l1.5-2.32c-.88-.25-.86-.58,0-1-.56-.27-.54-.61,0-1-.89-.19-.85-.52,0-1-.56-.25-.52-.58,0-1-.68-.29-.67-.62,0-1-.05-.64.45-1.44,1-2,.21-2.75,1.54-2.75,4,0Z"/><path class="cls-61" d="M9.18,63.07l2,1c1.8,1.06.25,2.78-1,4,1.5-.03,1.83.97,1,3,2.71-.73,3.06.11,1,2-1.28.15-2.82-.23-4,0-.29.98-1.02,1.72-2,2,.62.33.62.66,0,1l1,1c-.02.33.02.67,0,1-.3.64-.63.62-1,0-1.28,1.57-2-.55-1-2-.83-.94-.8-3.03,0-4,0-.99-.07-2.02,0-3,.94-2,1.61-3.67,2-5,.11-.44-.18-1.04,0-1.5l1-.5,1,1Z"/><path class="cls-60" d="M8.18,102.05c2.1-3.37,5.89,1.95,3,4l1,1c1.11-1.09,1.38-.5,1,1,1.49-.72,1.64-.38,1,1,.87.28.86.62,0,1l-.5,1c-.63-.97-1.64-1.39-2.5-2-.05-.03.12-1.05-.5-1l-1,1c-1.53-.98-1.13-2.4-2.5-3-1.21-.53-1.26-1.79-2-3v-1c.49-.87,1.49-.87,3,0Z"/><path class="cls-107" d="M6.18,96.05c-.75-1.24-.84-1.63-1-3,.79-1.16.7-2.94,0-1l-1-.5c.16-.75-.23-2.01,0-2.5.28-2.4.62-4.73,1-7,.38-2.44,1.05-3.1,2-2-.19,1.87-.97,2.31-1,2.5-.71,4.05,1.95,8.48,1,12.99-.17.68-.97.45-1,.5Z"/><path class="cls-62" d="M7.18,100.05l1,1c.87.28.86.62,0,1-.38,2.06-1.77.53-3,0l-1-3.5c.29-.8,1.81-1.3,2-1.5.9,1.15.71,2.05,1,3Z"/><path class="cls-147" d="M5.18,82.06c.1,3.33.2,4.45-1,7,.02-3.32-.03-6.67,0-10,2.28-1.06,2.26,1.35,1,3Z"/><path class="cls-237" d="M6.18,78.06l1,1c-.05.33.03.67,0,1l-2,2c-.03-.82.02-1.66,0-2.5l-1-.5c0-.99-.03-2.01,0-3,.28-.87.62-.86,1,0,.21,2.41.89,1.82,1,2Z"/><path class="cls-107" d="M5.18,76.06h-1c.03-1.16-.02-2.33,0-3.5l1-.5c0,1.31-.11,2.71,0,4Z"/><path class="cls-190" d="M5.18,93.05c-.04-.32,0-.67,0-1,0-.99,0-2,0-3h1v3.5l-1,.5Z"/><path class="cls-237" d="M5.18,69.06c.16-2.23.72-2.66,1-4l1-1,1,.5c-1.37,1.24-2.42,2.01-2,4l-1,.5Z"/><path class="cls-108" d="M6.18,65.07c.06-.28,0-.66,0-1h1c-.16.63-.02,1.12-1,1Z"/><path class="cls-221" d="M21.17,111.05c.56-1.89,1.43-1.9,2,0,1.91-3.23,3.96-1.64,2,1q-.75,1.12,0,0c-.05-1.81,3.32-1.93,4.3-1.02.21.19.29,5.72-1.3,3.02-.29.66-.63.65-1,0-.48.4-.48.73,0,1,.33-.64.66-.64,1,0,1.79,2.92-3.1,1.86-5,1-.33.03-.67-.04-1,0-.36.04-.86-.11-1,0-.93-.45-1.93-1.11-3-2-.12-.23.09-.66,0-1-4.15-3.68-.39-6.46,3-2Z"/><path class="cls-94" d="M20.17,107.05c2.32.86,2.82,2.16,1,4-1.09-.12-1.74.23-2.5-1l-1.5,1.5c.6.43.8.8,1,1.5l-4-3v-1c-.29-.98.04-1.98,1-3-4.01-4.16,4.9-4.18,5,1Z"/><path class="cls-202" d="M21.17,116.04s.12,1.04-.5,1c-1.03-.94-1.85-1.73-2.5-3h1.5l1.5,2Z"/><path class="cls-202" d="M30.17,121.04v-1c.33.04.67-.03,1,0,.16,1.14-.74.85-1,1Z"/><path class="cls-151" d="M38.17,24.08c.33-.86.67-.86,1,0,3.79.87,7.3,6.27,10,9v1l5,6v1l2,2c.13.28-.13.74,0,1l1,1,1,1c.16.22-.16.78,0,1,2.37,2.52,3.01,5.12-1,3-1.38.46-2.54-.97-1-2l-1-1c-.48-.31-.47-.64,0-1l-1-1c-.63-.31-.62-.64,0-1l-2-2-1-1c-.87-.33-.87-.66,0-1l-2-2c-.86-.34-.87-.67,0-1l-2-2c-.34.87-.67.87-1,0-1.72.57-2,.59-1-1-2.05,1.09-4.3-1.99-3-4l-.9-.83c-.84,1.1-1.54.37-2.1-2.17-.29.66-.63.64-1,0-1.19.77-1.69.25-1-1l-2-1c-.56,1.85-1.43,1.85-2,0-.87-.28-.86-.62,0-1-.87-.28-.86-.62,0-1,1.36-.67,3.03-.34,5,1Z"/><path class="cls-161" d="M135.15,34.08c-3.81-8.29.97-5.74,3,0,1.34,2.4,1.43,4.79,2,6l1,3c.02.33-.03.67,0,1l1,4c.02.33-.03.67,0,1,1.04,2.57,2.55,6.48,2,9l1,1c.52.31.51.64,0,1,1.21,3.17,2.9,6.1,4,9l-1,1c-.28.87-.62.86-1,0-.67-.26-.65-.6,0-1-.36-.49-.69-1.16-1-2-.88-.2-.85-.54,0-1l-1-1c-.89-.27-.87-.6,0-1l-1-2c-.88-.2-.85-.54,0-1l-1-1c-.89-.27-.87-.6,0-1l-1-2c-.88-.28-.87-.61,0-1l-1-2c-.92-.1-.87-.45,0-1-.32-.91-.65-1.91-1-3-.88-.21-.85-.54,0-1l-1-2c-3.16-1.76-4.71-6.77-3-10l-1-2c-.89-.24-.87-.58,0-1Z"/><path class="cls-111" d="M96.16,37.08c.63.33.63.67,0,1l-1,1c1.43.33,1.43,1.6,0,2l-1,2c2.66.82,2.15,3.72-.36,3.82l-1.64,5.17c1.25,1.64.58,2.97-2,4,.94,1.54.5,4.04-2,3l-1,1c.86.32.86.65,0,1-4.79,4.94-2.03-3,0-6-.61-.26-.58-.6,0-1,.02-.32.04-.69,0-1l1-.5c.15-.53-.14-1.15,0-1.5l1.48-5.07c-1.15-2.32-.61-3.97,1.52-1.93.49-2.67,1.49-4.67,3-6-.88-.9-.35-2.69,1-3,.29-.83.62-.82,1,0,1.16.02.76,1.19,0,2Z"/><path class="cls-224" d="M118.15,19.09l.8.49c5.79-.92,11.68,5.08,3.19,2.51-.21.68-.55.65-1,0-2.2-.92-5.79-.87-8,0l-2,1c-.1.92-.45.87-1,0-.62.7-1.41.72-2,0l-1,1c-.34.81-.67.81-1,0-.61.91-1.28,1.58-2,2-1.04.96-2.04,1.29-3,1-.43,1.18-.96,1.8-2,1-.4-.31-.39-.64,0-1l5-5c.21-.16.75.15,1,0l1-1c1.26-.67.93-.97,1-1,.56-.23,1.76.19,2.5,0,.4-.1.63-.95,1-1,2.18-.32,5.14.04,7.5,0Z"/><path class="cls-101" d="M65.16,57.07l2,2,1,1v1c2.97,2.77,2.92,7.46-1,3-.9-.26-.88-.59,0-1l-2-2c-2.65.56-2.88-.09-1-2l-1-1c-2.23,1.3-3.63.7-1.91-1.44l-1.09-1.56c-2.17,1.13-4.14-3.31-3-5l2-1.5v-.5h-2l1-1c2.84,3.83,4.8,4.96,7,10Z"/><path class="cls-17" d="M46.17,1.09c1.11.04,2.6-.22,3.5,0,.68.17.45.98.5,1-.67.97-2,1.64-4,2-.54,1.41-1.54,1.08-3-1-1.94-.97-5.16-.8-7,0-.2.88-.54.85-1,0l-2.5-1c1.46.73,2.76-.97,3-1,2.84-.4,7.46-.11,10.5,0Z"/><path class="cls-72" d="M133.15,30.08l-6.98-7.01c.33-3.34,7.92,3.44,8.98,5.01,1.03,1.47,1.96,3.03,3,4.5v1.5c-.09-.15-1.67-1.73-2-2.5-.23-.54.18-1.32,0-1.5h-2l1,4c-2.71,1.19-4.17-2.2-2-4Z"/><path class="cls-215" d="M99.15,28.08l-2,3-1,1c1.83.29.22,2.2-1,3-.47,1.15-.71,2.28-1,3-.3.61-.63.6-1,0,.07-.64-.15-1.49,0-2,1.01-3.52,3.38-6.73,6-9-.14.26.13.73,0,1Z"/><path class="cls-165" d="M57.16,6.09c-.57,2.24-2.13,1.8-4.67-1.33-3.06-.86-3.83-1.74-2.32-2.66,2.33.94,5.83,1.33,7,4Z"/><path class="cls-194" d="M61.16,16.09l-2,2c-.3.09-.68-.07-1,0-.3.56-.63.55-1,0-1.06-.93,3.12-4.38,4-4,.48-.37,1.15-.7,2-1,.35-.15.35-.48,0-1l-1-1c-.75-.51-.82-1.47,0-2,.3.17,1.05-.26,1.5,0,4.03,2.3-.29,5.32-2.5,7Z"/><path class="cls-42" d="M62.16,9.09c.09.63-.17,1.59,0,2-2.3,1.84-7.42-2.79-5-5,2.77.46,3.22,1.99,5,3Z"/><path class="cls-163" d="M122.15,19.09c.33.02.67-.04,1,0l2,1c2.46,1.3,6.07,3.21,8,5,.48.45,1.49,2.27,2,3l-4-2v-2l-4-1,6,7c-2.33,2.29-3.06.98-3-2-1.79-1.03-3.46-2.36-5-4l-1-1c-.24,1.22-1.28.93-2,0-.87-.28-.86-.62,0-1,.99-.02,2.01.01,3,0v-1c-2.18-.36-3.87-1.49-6.5-1l-.5-1c1.32-.02,2.69-.07,4,0Z"/><path class="cls-174" d="M94.16,38.08c-.76,1.87-2.32,3.45-2,5.5-.17.68-.76.39-1,.5-.46-2.37,1.46-3.63,1-6,.32.06.67-.04,1,0h1Z"/><path class="cls-227" d="M142.14,45.07c.12.97-.04,2.02,0,3l-1-.5c-.06-1.16.09-2.35,0-3.5.89-.1.91.25,1,1Z"/><path class="cls-227" d="M141.14,43.08l-1-.5v-2.5c.4.85.82.38,1,3Z"/><path class="cls-130" d="M61.16,17.09c-.82,0-1.03.72-2,1-.07-1.22,1.4-1.55,2-2v1Z"/><path class="cls-187" d="M57.16,45.07l-1-1c.03.06.3-.16,1,1Z"/><path class="cls-101" d="M58.16,46.07c-1.13.18-.95-.95-1-1,.04.06.34.09,1,1Z"/><path class="cls-232" d="M67.16,58.07c.17.15-.17.83,0,1-.83-.67-1.33-.48-2-2,.48.12,1.79.81,2,1Z"/><path class="cls-115" d="M68.16,60.07c-.48-.43-.94-.95-1-1h1v1Z"/><path class="cls-124" d="M39.17,8.09c.87.28.86.62,0,1l-1,1c2.57.47,2.42,1.12,0,2-1.65.6-.54,2.72,1,2,4.64-3.23,4.28,5.8-2,2-1.7.25-2.45.99-4,1l1-2.5-4-4,1-2-2-2.5c.74-.32,1.26-.69,2-1,5.47-1.79,8.14-.79,8,3Z"/><path class="cls-126" d="M43.17,3.09c1.4.8,1.73,1.46,1,2,1.04,1.91,1.04,3.24,0,4-.09,3.82-4.43,1.92-5-1-.44-.2-3.93-3-4.5-3l-3,1-.5-1c.87-.36,1.22-.88,1.5-1,.55-.22,1.38.2,2,0,.7-.23.45-.98.5-1,.27-.07.65.02,1,0,2-.78,4.94-.91,7,0Z"/><path class="cls-227" d="M146.14,60.07h-1c-.1-.27.08-.66,0-1l-1-1c-.59-3.49-1.69-5.23-2-9l1,.5c.83,3.35,1.75,7.39,3,10.5Z"/><path class="cls-122" d="M147.14,70.06l1,2c.12,1.99.08,2.22,1,4,.61,1.25.61,2.25,0,3,.06,1.82-1.8,2.45-3,1-3.27-.37-4.22-7.19-2-9-1.56-3.03,2.71-3.79.5-.83-.06.08.12-1.31,1.5-1.17.28-.87.62-.86,1,0,.03.33-.04.67,0,1Z"/><path class="cls-99" d="M149.14,79.06c.28-.87.62-.86,1,0,.03.33-.02.67,0,1,.58.23.54.57,0,1,.04,1.32-.02,2.67,0,4h-1c-1.37-1.01-2.37-2.01-3-3-2.64-.44-2.51-1.18,0-2,1.18-.31,1.49-1.42,3-1Z"/><path class="cls-142" d="M150.14,79.06h-1v-3c.53,1.02.78.5,1,3Z"/><path class="cls-152" d="M148.14,72.06l-1-.5c-.07-.5.06-1.01,0-1.5h1c.02.66-.04,1.34,0,2Z"/><path class="cls-142" d="M151.14,81.06h-1c0-.33.02-.67,0-1,.88-.1.91.25,1,1Z"/><path class="cls-88" d="M78.16,94.05c.14.54-.07,1.35,0,2-.33,1.27-1,2.26-2,3-.1.31.1.71,0,1-.82,2.04-1.82,3.71-3,5-1.52,2.99-3.52,4.99-6,6h-1c-.66-.29-.64-.63,0-1-.14-.51.2-1.17,1-2-.85-1.66-.52-2,1-1,1.44-.98,2.35-2.42,3-4-.87-.28-.85-.61,0-1-2.06-.98.28-5,2-6,.28-.87.62-.86,1,0l1-.12c-.28-2.71.87-3.87,3-1.88Z"/><path class="cls-158" d="M72.16,107.05c-.13.27.14.74,0,1l-8,8c-.3.1-.7-.1-1,0,.55-.59,1.46-2.46,2-3l1-1c.05-.05,1.18.13,1-1l6-6c.38.93-.22,1.44-1,2Z"/><path class="cls-145" d="M79.16,99.05h-1c-.03-.33.02-.67,0-1-.87-.11-.82-.46,0-1l1,.5c.06.5-.06,1.01,0,1.5Z"/><path class="cls-157" d="M80.16,82.06c.45,3.67.78,5,1,4l1.31-.73c.73,4.29,1.63,8.53,2.69,12.72,1-1.75,1.67-1.09,2,2,1.62.29,1.92,1.85,0,2l-.5,1-2.5-2v2h-1c-.02-.33.05-.68,0-1l-1-1c-.12-.28.12-.72,0-1l-1-1c-.13-.27.14-.74,0-1l-1-3c.05-.06.05-.94,0-1-.27-1.75-.6-3.42-1-5-.09-2.27-.12-4.73,0-7,.28-.87.62-.86,1,0Z"/><path class="cls-184" d="M86.16,67.06c.91.74,1.25,1.74,1,3,.87.28.86.62,0,1-.18.9-.52.87-1,0-.98,2.74-1.98,5.41-3,8,.54,2.26.03,5.93-2,7-.06.65.03,1.34,0,2h-1c.06-1.99-.08-4.01,0-6-.77-2.33-.22-5.86,1-8v-1c-1.22-2.17.75-6.53,3-7l1-1c-.87-.28-.86-.62,0-1,.28-.87.62-.86,1,0,2.7.78,2.2,1.52,0,3Z"/><path class="cls-201" d="M84.16,66.07c-.69,2.03-.95,3.45-2,5.5-.26.5.51,1.24-1,1.5-.6.1-1.34-.05-2,0v2.5l-1,.5c-.47-.25-.43-.59,0-1,.04-.66-.08-1.36,0-2l1-2c.09-.31-.09-.7,0-1l1-2c.11-.32-.13-.77,0-1l1-1c.08-.33-.09-.71,0-1l1-1c.27-.89.6-.87,1,0,1.2.08,1.25,1,1,2Z"/><path class="cls-139" d="M75.16,75.06c.66.26.64.6,0,1,.94,1.84,1.61,3.5,2,5-1.03,1.43-1.19,2.71-1,4.5l-1,.5-1-2c-2.7-.93-2.69-2.08,0-3-.2-1.41-.54-2.75-1-4-.66-.3-.65-.63,0-1-.29-.54-.63-1.21-1-2-.83-.25-.71-1.46,0-2-.39-4.32,2.35.47,3,3Z"/><path class="cls-139" d="M78.16,94.05h-2v4h-2v-2c-.85-.28-.66-2.26,0-3,.32-.75.65-1.08,1-1h1.5c.66.64,1.25,1.03,1.5,2Z"/><path class="cls-88" d="M75.16,86.06c.12,1.85.14,4.16,0,6-.06.77-.14,1.1-1,1-1.84-1.5-2.35-4.93,0-6-.88-1.39-.88-2.39,0-3l1,.5c.04.5-.03,1.01,0,1.5Z"/><path class="cls-232" d="M76.16,77.06c1.42.06.03,2.13,0,2-.14-.67.94-2.64,2-2-.17,2.35.29,2.21-1,4l-1-.5c-.71-1.53-.78-2.72-1-4.5.28-.87.62-.86,1,0,.03.33-.02.67,0,1Z"/><path class="cls-201" d="M80.16,82.06h-1c.15-2.86.3-4.92,1-7.5l1-.5c-.49,2.81-.87,4.94-1,8Z"/><path class="cls-145" d="M80.16,94.05c-1.51-1.85-.9-2.46-1-5l1,.5v4.5Z"/><path class="cls-145" d="M81.16,98.05c-.08-.16-1.59-1.66-2-2.5-.05-.62.97-.46,1-.5l1,.5v2.5Z"/><path class="cls-145" d="M82.16,100.05c-.03-.06-.35.3-1-1l1,1Z"/><path class="cls-47" d="M83.16,102.05c-1.09.15-.82-.57-1-1,.92-.11.88.28,1,1Z"/><path class="cls-209" d="M40.17,119.04c-2.61-1.2-2.95-4.22-.35-5.91-3.32-3.07,2.9-10.49,5.55-13.44-1.44-4.24.79-4.78,6.67-1.61-1.31-4.22.52-6.32,4.88-8.08-.9-2.25-.22-4.39,2.36-4.25.73-6.28,4.47-12.76,7.88-5.68,2.4,1.45,3.6,3.82,2,6v2c.91.33.91.67,0,1-.48,2.25.18,3.89,1.99,4.92-1.5,2.18-3.05,3.8-4.92,5.51-.36,2.48-.72,4.33-1.07,5.56,4.49.85-1.18,4.98-4,4-1.72,1.16-3.7,2.58-2.28,4.39l-1.72,1.61c.9.54.23,1.21-2,2-3.01.5-5.44,1.67-8,2-.25.84-.58.82-1,0-1.96.16-4.02-.06-6,0Z"/><path class="cls-158" d="M55.16,117.04l2-2,.71-2.06c2.46-.84,4.02-1.29,6.29-1.94-.68,1.35-2.31,3.14-3.5,4-1.88,1.37-3.23,1.62-5.5,2Z"/><path class="cls-234" d="M61.16,109.05c.88,2.68-2.19,3.88-.42,1.56,1.27-1.66,3.58-3.11,4.42-.56.66.29.64.63,0,1-.35.09-.81-.13-1,0-2.46,1.51-4.08,4.05-7,4l-1-5,2,.5-1-1,4-.5Z"/><path class="cls-158" d="M66.16,111.05c-.32.06-.69-.08-1,0v-1h1v1Z"/><path class="cls-88" d="M65.16,113.04l1-1c-.36.4-.66.66-1,1Z"/><path class="cls-173" d="M47.17,120.04l-1.5,1c-.63.04-.45-.98-.5-1l1-1c.33-.03.67.04,1,0v1Z"/><path class="cls-27" d="M35.17,25.08l2,1c.14.11,1.17-.15,1,1-1.38.48-1.05.81,1,1,1.16.21,2.16.87,3,2,1.45,1.66,1.79,2.36,3,4-.49,1.12-.49,2.12,0,3,.87.28.86.62,0,1,2.22,3.61,2.22,5.94,0,7,4.99,8.64-8.56,6.38-4-2l-1-1c-.25.86-.58.84-1,0-1.89,2.1-2.81-2.04-2.65-1.81,2.05,2.45,2.27,5.39.65,8.81,1.73.88,1.72,1.89.29,3.06,2.37,2.38,1.13,6.41-2.29,4.93-2.89-1.45-4.06-3.09-3.51-4.93-2.13-2.02-5.12-5.43-5.48-8.07-.88-.19-.84-.53,0-1q.96-.69,0,0c-2.25,2.2-3.16,1.98-2-1l-1-3,1.5-2,3.5,2-2-5v-1c-.77-3.67,4.14-1.08,3.88-.81-.22.23-3.66-.22-.88-2.19.15-.07,1.35-2.31,1-3h2v-2c.14-.71.49-.65,1,0,.62-.07,1.4-.09,2,0Z"/><path class="cls-39" d="M24.17,42.08c.12.06-.48.86,2,1-.08.31.06.68,0,1l.3,1.69c6.05,5.93,7.28,9.36,3.7,10.3-3.47-1.65-4.58.37-3.31,6.05,1.44,3.18,1.58,8.07-2.69,5.95-.49.1-.97.16-1.42.07-1.25-.26-5.1-10.99-4.54-9.97,3.32,6.06,1.41,10.71-5.03,4.9-.32.89-.65.88-1,0-1.09-.6-1.76-1.6-2-3-.8-1.6-1.83-2.17,0-3.5l-1-1.5h2l-1-1.5,2-7.5h2v-1l-3-2,5.5,1,2-2c1.64,2.63,4.24-.62,5.5,0Z"/><path class="cls-117" d="M10.18,60.07h2c-.09.97.15,2.07,0,3-.78.87-2.1.6-3,0-.59-.23-.55-.57,0-1,0-.49,0-.99,0-1.5l1-.5Z"/><path class="cls-98" d="M20.17,35.08c.13-.06,1.91-1.89,2-2l-2,2Z"/><path class="cls-108" d="M9.18,63.07c-.21-.14-1.17.15-1-1h1c0,.33,0,.67,0,1Z"/><path class="cls-25" d="M94.16,103.05c.28-.87.62-.86,1,0,.71.3.7.64,0,1-.82.69,3.82,8.7,7.09,3.23,2.31,1.23,3.59-.23,4.9-2.23.33-.65.67-.65,1,0l1,1c.25-.87.58-.85,1,0l1,1,1,1c7.15,4.38,4.24,8.41-4,9-.33-.05-.67.04-1,0-3.13-.41-8.88-3.03-11.5-5-1.53-1.15-3.46-3.34-4.5-5-.69-1.93-.36-2.93,1-3-2.53-2.69.42-4.14,2-1Z"/><path class="cls-55" d="M92.16,104.05c-.27,1.6.59,1.76,1,3h-3l-3-5v-2c-3.15-6.79,6.68-.99,5,4Z"/><path class="cls-16" d="M43.17,20.09c.4.47.73.47,1,0,.33.04.67-.02,1,0,.91.23.89.57,0,1,2.66.32,2.54,1.24,0,2-1.25-.01-4.39.28-5,0-1.25.32-2.59,0-4-1l-2-1c-.33.64-.67.64-1,0,.08-.33-.09-.71,0-1,.02-.05.83.17,1-.5v-1.5c2.66.54,6.13,2.01,7.5,1,.46.58.76.84,1.5,1Z"/><polygon class="cls-81" points="33.17 20.09 32.17 20.09 32.67 19.09 33.17 20.09"/><path class="cls-98" d="M19.67,31.08c.65,0,.65,1,0,1s-.65-1,0-1Z"/><path class="cls-15" d="M33.17,21.09c.64.32.63.65,0,1-.35,1.48-1.11,1.32-2,0l-1,1c-.05-.06-.84.16-1-.5v-1.5c1.29-.09,2.71-.07,4,0Z"/><path class="cls-103" d="M29.17,30.08c.31,1.18,1.42,1.49,1,3-1.9-1.24-2.1-1.24-4,0l-1-3c1.14-.22,3.23.34,4,0Z"/><path class="cls-91" d="M33.17,22.09c.88.19.85.52,0,1v1c-.22.72-.88.72-2,0h-1c.05-.06.05-.94,0-1l1-1c.66-.02,1.34.04,2,0Z"/><path class="cls-212" d="M33.17,24.08v1c-.33.04-.67-.03-1,0l-1-1h2Z"/><path class="cls-106" d="M33.17,115.04l1.9,1.48c4.06-.88,4.19.09,1.1,2.52h-1l-1-1c-1.2.74-3.74.88-5,0-1.87-.88-.68-2.73,1-3,.44-2.82,2.11-2.7,3,0Z"/><path class="cls-193" d="M34.17,118.04c.63.3.62.63,0,1h-5c.04-.33-.06-.68,0-1,1.63.16,3.36-.13,5,0Z"/><path class="cls-209" d="M39.17,119.04c-.66,0-1.34,0-2,0,0-3.73,2.67-3.65,2,0Z"/><path class="cls-68" d="M35.17,119.04h-1v-1c.77.06,1.1.14,1,1Z"/><path class="cls-68" d="M61.16,68.06l1.45,1.38c3.03.03,6.75,3.33,4.55,5.62,2.83.34,1.36,3.33,0,5l-2-1h-2v1.5l-2,.5,2,1-2,2.5,2,1.5c-2.82-.25-2.61,3.02-5,1l1,3.5c-1.1,1.54-2.17,1.73-4,1.5l2,3-5-1,3,2.5c.41,1.51-3.06,2.9-2,5.5-.4.49-2.64-1.75-2-3-2.39,1.99-2.58-1.08-5-2l2,3.5-3,1.5v2l-3,1.5,1.5.5.5,2h-4l-1,2,2.5,2,2.5.5c-1.44,1.43-2.28,2.98-4.5,2.5l.5,4c-.33.01-.67,0-1,0l-.5-1h-1l-.5,1h-1l1-2c-1.61.26-3.69-.03-4-2,1.18-.85,2.18-1.85,3-3-5.55.62-.89-4.61,3-4l-2-3-.58-1.1c4.47-2.29-2.69,4.45-5.42,2.1-1.3,1.56-2.69,1.57-4,0-.46,1.37-1.6,1.85-3,2-1.78,2.04-2.53,1.63-2-1-2.67-.97-2.67-2.14,0-3-.53-3.59,7.49-4.19,10-3-1.5-3.77,1.16-4.42,5.12-4.25-.79-2.66.05-5.44,2.52-8.34-1.99-2.68-.46-5.21,2.77-4.79,1.07-2.24,3.3-5.21,5.82-6.05-.17-6.31,1.69-8.53,5.57-6.66,2.71-2.92,5.11-3.88,7.19-2.89Z"/><path class="cls-70" d="M136.15,78.06c.56-5.85,2.78-.67,3.5,2.73.4,1.9.62,4.03.48,6.05,2.19,2.6,2.41,3.78-.98,4.22,2.86-4.21,4.34-.66,3,3,1.59.39,2.22,2.45,2,4-.23.58-.34,1.11-1,1.5v1.5c-1.49,2.37-2.49,4.02-4,6-1.48,1.85-3.07,3.58-5,5-.2.05-.84.07-1,0-1.47,1.1-2.26.97-2-1-.26.86-.6.84-1,0-1.81-.35-6.74,1.75-9.98,3.14-4.4-1.66-4.63-2.34-.74-5.87,5.02-.5,6.2-1.19,7.72-5.27.1-1.72,1.1-3.38,3-5-.86-.24-.84-.57,0-1v-1c.24-1.01,1.03-1.79,2-2,.32-1.37.92-2.11,2-1l1.6,1.6c-2.59,4.45-1.76,6.41,2.51,5.9-4.58-2.05-1.32-6.61.88-9.49-.29,3.58-4.68,7.14-4,0-1.49-.06-1.41-1.52,0-2,.38-1.04.71-2.04,1-3-.67-1.14-.4-2.43,1-2l-1-4c-1.13-.91-1.46-1.54,0-2Z"/><path class="cls-206" d="M146.14,84.06c.78,2.94.77,6.06,0,9-.24.11-.84-.18-1,.5.48,2.06-.4,2.97-1,4.5-1.71-.23-2.62-2.67-2-4l.55-2.69c-3.56-2.02-1.99-9.83,3.45-7.3Z"/><path class="cls-51" d="M146.14,82.06h3v3l-2-1v8.5c-.16.68-.76.39-1,.5-.02-2.99.02-6.01,0-9-.89-.19-.85-.52,0-1-.91-.1-.86-.45,0-1Z"/><polygon class="cls-225" points="145.14 104.05 143.14 106.05 143.14 104.05 145.14 104.05"/><path class="cls-33" d="M137.15,110.05c-.44-.45-1.82,1.72-3,2l5-5c-.69.9-1.51,1.96-2,3Z"/><path class="cls-9" d="M133.15,112.04c.17,1.15-.85.89-1,1l-1,1c-.24.11-.66-.08-1,0-1.83-.72-.18-2.26,1-3,1.76.53,1.86.94,2,1Z"/><path class="cls-33" d="M131.15,114.04l1-1c-.06.04.32.4-1,1Z"/><path class="cls-33" d="M130.15,115.04c-.06-.05-.77-.06-1,0-1.39-1.87-.79-2.44,1-1v1Z"/><path class="cls-9" d="M127.15,103.05l1,3.5c-.77.49-1.93,2.33-2.5,2.5-.61.17-1.37-.17-2,0-.41.11-.67,1-1,1-.21,0-.98-1.55-2.5-1v2l-3,1,4,.5c2.93-.45,5.61-3.2,8.5-2.5.69.17.45.99.5,1-.37,3.37-6.54,4.8-9.86,5.39l-2.14,1.61c-1.98.04-4.02.06-6,0-1.31-.37-2.64-.71-4-1-.02-1.51,2.67-.41,4-2.5.59-.93-1.12-2.46,2-.5.78-2.74-1.13-3.06-2-4.5-.27-.44.18-1.22,0-1.5l-1-1c-.05-.05-1.18.13-1-1,7.98,1.12,8.88.72,15.49-3.94.93-.66,1.37-.34,1.51.94Z"/><path class="cls-149" d="M130.15,114.04c-.66.15-1.12.04-1,1-2.12.51-2.88,1.59-6,2-1.37.28-2.7.61-4,1-.33.01-.67,0-1,0,.55-.98-2.09-3.65-.5-4,2.59-.57.98,2.54,2,2l2.5-1v-2l2.5,1,5.5-3c.32.08.7-.09,1,0v1.5l-1,1.5Z"/><path class="cls-33" d="M112.15,118.04c-1.16-.04-2.33.02-3.5,0-.55-.12-.49-.57-.5-1,1.12.15,2.35-.1,3.5,0l.5,1Z"/><path class="cls-33" d="M123.15,117.04l-.5,1c-1.17.02-2.34-.04-3.5,0l.5-1c1.15-.1,2.37.15,3.5,0Z"/><path class="cls-162" d="M13.18,63.07c.18-.04.59-1.76,3-1v1.5l2,.5v-6l2.5,4,2-4,.5,3.5-1,1c1.36,1.8.97,3.31,2,5.5,2.63,0,2.63,1.33,0,4-.18.9-.52.86-1,0-1.14.09-.81,1.09,1,3,.89-2.96,3.31,3.73,3.75,5.55,2.82,2.45-2.68,2.7-5.52,2.19-2.36,2.42-3.79,2.2-6.59,1.05-1.51,2.15-4.07,3.56-6.64,3.2-.02-.33.03-.67,0-1,.48-.4.48-.73,0-1-.16-.74-.42-1.04-1-1.5,1.89-1.3.21-1.23,0-2-.35-1.26,1.49-1.81,1-3.5l2,1v-4l-2-1c1.13-.06,2.99.54,3-1,0-.44-.68-1.55-1-2-.03-1.38.3-2.71,1-4-.77-1.3-.23-3,1-4Z"/><path class="cls-240" d="M10.18,90.05c-.02-7.19,11.51-5.03,14.94-1.26.67,2.58,1.35,5,2.06,7.26.87.28.86.62,0,1-.18.87-.52.84-1,0-.76,1.9-1.76,3.24-3,4,.38.92.05,1.92-1,3,.19.86-.11,2.03,0,3-.14,2.64-1.2,2.53-2,0-1.7-.58-3.36-1.62-4.5-3l-.5,2c-.33.88-.67.88-1,0-.62.59-1.29.59-2,0-.31.45-.64.44-1,0-.95-1.41-1.04-3.57-3-4v-1c2.09-1.24-.21-4.84,3-6.5-.56-.48-.88-.73-1-1.5.41-1.08.5-1.99,0-3Z"/><path class="cls-94" d="M25.17,72.06c2.49.42,4.25,2.74,5.29,6.97,2.42,2.02,6.08,5.45,3.53,8.35,3.58,2.69,4.39,6.65-.82,6.67,3.95-3.11,3.43,3.25,1.57,3.17-2.99-.13-3.65-1.11-1.57-3.17.28,3.32-1.72,3.98-6,2l-4-2c1.98-2.33-.42-3.24,0-6l-3,2-1-2.5-3-.5-1,2c.62-4.44-4.01-.04-5,1,1.67,1.28,2.04,2.02,0,3-.42-.07-.85.11-1-.5-.08-1.82.12-3.69,0-5.5l2-3,2,1v-2l3.5-2c.88,1.78,5.1,3.27,2.5.5l1.5-1.5c1.34-.39,2.44,2.39,4,0l2.5,2c.25-.31-1.65-5.68-2-6.5-.31-.71-.97-.45-1-.5-1.64-1.61-1.97-2.61-1-3,.27.06.72.03,1,0,.28-.86.61-.85,1,0Z"/><path class="cls-107" d="M7.18,75.06c-.29.66-.63.64-1,0,.34-1.02.9-1.78,2-2v1.5c-.17.67-.98.45-1,.5Z"/><path class="cls-237" d="M7.18,76.06c-.3.64-.63.63-1,0-.05-.22-.07-.8,0-1h1c-.09.29.08.67,0,1Z"/><path class="cls-107" d="M7.18,77.06c-.96.12-.85-.34-1-1h1c-.07.28.02.66,0,1Z"/><path class="cls-107" d="M7.18,79.06c-1.14.16-.85-.75-1-1h1c-.02.33.05.68,0,1Z"/><path class="cls-94" d="M9.18,86.06c-.03-.34.06-.7,0-1l1,.5-1,.5Z"/><path class="cls-60" d="M8.18,101.05c-1.01.13-.82-.42-1-1l1,1Z"/><path class="cls-237" d="M12.18,67.06c.94,1.82-.69,2.76-2,1,.01-1.85.03-2.42,1-4-.18-.37.15-.7,1-1,.34-.02.71.06,1,0-.15,1.54.68,3.88-1,4Z"/><path class="cls-233" d="M11.18,71.06s-.82.18-1-.5c-.16-.62,0-1.7,0-2.5l2-1c1.39,1.96,1.41,3.09-1,4Z"/><path class="cls-162" d="M12.18,63.07c-.23,1.35-.96.94-1,1h-1.5c-.66-.17-.45-.97-.5-1,.99-.04,2.01.07,3,0Z"/><path class="cls-116" d="M14.17,109.05c-1.14.18-.94-.93-1-1-.69-1.01-.34-2.13,1-2,.17.13.67-.08,1,0l1,1.5-2,1.5Z"/><path class="cls-94" d="M14.17,106.05l-1,2c-.19-.2-.44-.28-1-1v-1c2.27-1.5,1.33-.52,2,0Z"/><path class="cls-119" d="M12.18,107.05c-.04-.06-.33,0-1-1h1v1Z"/><path class="cls-69" d="M27.17,106.05c1.83.19,2.65,1.26,3,3,3.62-2.64,2.44,4.86,0,6-.13.82-.72,1.44-1,3-2.16-.21-3.45-.8-5.5-1l-.5-1c1.47-.13,3.01.09,4.5,0l.5-1c-.66-.31-.65-.64,0-1,.03-.05,1.05.13,1-.5l-1.5-1.5-1,1c-.23-.72-1.44-.93-1.5-1v2h-.5l-1.5-2h2c-.5-.54,1.1-.86-2-1-1.84-1.79-1.58-2.55,1-3,.3-1.14-.11-2.05,1.5-3,.51.5.7.99,1.5,1Z"/><path class="cls-150" d="M22.17,107.05c1,.23,1.16,1.02,2,1-.28,1.04-.12,1.83-1,3-.66-.03-1.35.07-2,0-.79-1.38-1.31-2.29-1-4,.48.16,1.41-.13,2,0Z"/><path class="cls-69" d="M27.17,115.04l-1-.5,1-.5c.64.34.65.67,0,1Z"/><path class="cls-128" d="M28.17,115.04c-.33-.08-.87.13-1,0s.08-.67,0-1h1c-.15.27.16.84,0,1Z"/><path class="cls-12" d="M60.16,13.09c.68.18,1.01.52,1,1l-4,4c.08,1.36-1.59,2.62-3,3-.05.02.2.72-.5,1-.75.29-3.54.88-4.5,1-2.26-.33-2.56-1.27-1-3,.71-2.66,2.25-2.79,4-2-.28-2.2,2.24-2.23,4-2,.3-.88.63-.87,1,0l2-3c-.87-.28-.86-.62,0-1,1.59-1.36,2.23-.72,1,1Z"/><path class="cls-181" d="M49.17,23.08c-1.21.16-2.71.02-4,0v-2l2-1c.25-.88.58-.86,1,0l1,1.5v1.5Z"/><path class="cls-41" d="M40.17,23.08l-1,1c-.32-.07-.69.08-1,0-1.87-.46-2.53-1.12-2-2,2.61.14,2.34.22,4,1Z"/><path class="cls-242" d="M52.17,36.08c.16.21-.16.78,0,1l2,2c.1.29-.09.68,0,1-2.32-1.84-3.55-3.41-5-6,1.23-.18,2.32,1.03,3,2Z"/><path class="cls-130" d="M54.17,21.09l3-3h1c-.32,1.01-1.67,2.45-2.5,3-.4.26-1.14-.16-1.5,0Z"/><path class="cls-187" d="M56.16,42.08c.1.33-.11.74,0,1-.99,0-1.7-1.1-2-2h1l1,1Z"/><path class="cls-115" d="M70.16,62.07c.09.29-.08.67,0,1l1,1c.08.34-.1.73,0,1,1.11.98,2.27,2.43,2,4-.12,1.5-.86,1.58-2,1-2.29.96-6.2-4.27-4-6l2,1c.57-1.9-.66-2.74-1-4h1l1,1Z"/><path class="cls-148" d="M87.16,55.07c-.23,1.28-.63,3.31-1,4.5-.17.53-1.54.86-1,2.5l2-1c2.48,1.28,1.49,2.89-1,3h-1c-.81.5-1.48.5-2,0-.31.09-.69-.09-1,0,.08-.34-.1-.74,0-1l1-1c.12-.28-.13-.73,0-1l1-1c.13-.27-.13-.73,0-1l1-1c.13-.27-.13-.73,0-1l1-1c.13-.28-.14-.75,0-1,.3-.64.63-.62,1,0Z"/><path class="cls-232" d="M73.16,69.06l1,1c.1.28-.09.68,0,1l1,1c.13.56-.07,1.35,0,2,.65.33.65.67,0,1l-1-.5-1.5-3.5-.5,1c-.28.87-.62.86-1,0-1.88-.53-1.85-1.39,0-2l.5-1h1.5Z"/><path class="cls-3" d="M105.15,22.09c.06-.04-.26-.33,1-1l-1,1Z"/><path class="cls-3" d="M99.15,27.08c1.11-2.15,3.09-3.62,5-5-1,2.26-3.25,3.48-5,5Z"/><path class="cls-74" d="M53.17,46.07c.61-1.19,1.51-.13,2,1l1,1c.27.37.72,1.6,1,2,1.18,1.68,2.35,4.08,3,5,3.3,3.22,1.08,5.36-2,3-1.8.2-2.13-.46-1-2-2.94-.03-7.73-6.91-6-10,.55-1.92,1.45-1.94,2,0Z"/><path class="cls-6" d="M47.17,35.08l2,2c.16.22-.15.77,0,1l2,2c.16.22-.16.79,0,1l1,1c.8.62,1.14,1.29,1,2,.83.73.97,1.44,0,2-.59-.12-1.41.12-2,0-.33.87-.67.87-1,0-2.33-1.86-3.59-3.54-3.78-5.05-1.86-.61-2.61-1.09-1.22-2.95v-1c-2.35-.04-.91-2.53,1-2,.21.16.76-.15,1,0Z"/><path class="cls-133" d="M42.17,30.08c-3.3-2.45-1.72,1.29-2,3l2,2-3-.5v-3.5l-2,.5,1,2.5-4,1v-4l5-1v-2c-.87-.28-.86-.62,0-1,1.55.23,2.21,2.1,3,3Z"/><path class="cls-66" d="M46.17,35.08l-1,.5v1.5h-3v-.5l3-2.5c.04.06.94.96,1,1Z"/><path class="cls-212" d="M36.17,22.09c.71,1.61,1.91.53,2,2-1.21-.3-2.59.59-3.5-1h-1.5c0-.33-.02-.67,0-1,.21-.69.55-.65,1,0,.52-.83,1.25-.6,2,0Z"/><path class="cls-169" d="M54.17,45.07l1,1c.1.28-.09.68,0,1-.43-.31-1.45-.88-2-1-.07-.64.15-1.49,0-2,.3-.5.64-.49,1,0,.14.23-.13.71,0,1Z"/><polygon class="cls-164" points="39.17 27.08 39.17 28.08 37.17 28.08 38.17 27.08 39.17 27.08"/><path class="cls-212" d="M37.17,26.08h-1.5l-.5-1c2.13.31,1.33.48,2,1Z"/><path class="cls-242" d="M49.17,37.08l-2-2c1.25.82,1.18.85,2,2Z"/><path class="cls-242" d="M51.17,40.08l-2-2c.08.12,1.17.82,2,2Z"/><path class="cls-242" d="M52.17,42.08c-.05-.05-1.18.13-1-1,.04.06.42.27,1,1Z"/><path class="cls-187" d="M54.17,44.08h-1c-.14-.49-.8-1.78-1-2,.27.34,1.13.6,2,2Z"/><path class="cls-187" d="M55.16,46.07l-1-1c.03.06.48-.37,1,1Z"/><path class="cls-187" d="M56.16,48.07c-.99.13-.83-.39-1-1,.61.45.55.4,1,1Z"/><path class="cls-44" d="M133.15,30.08l2,4c.03.33-.04.67,0,1l1,2c1.29,3.28,2.19,6.71,3,10l1,2c.08.26-.02.65,0,1,.91.76.57,2.1,0,3-.87,1.21-1.87.54-3-2-.33.88-.67.88-1,0-.51-.62-.65-1.5,0-2l-1-1c-.87-.33-.87-.67,0-1-.59-.27-.57-.61,0-1-.39-.48-.73-1.15-1-2-.52-.28-.5-.61,0-1l-1-2c-.88-.25-.85-.58,0-1l-1-2c-1.13-.07-1.47-.99-1-2-1.27.87-1.73.39-1-1-.87-.28-.86-.62,0-1l-1-1c-.89-.24-.87-.58,0-1l-1-2c.28-.87.62-.86,1,0l1-2c.45.47,2.24,1.6,3,2Z"/><path class="cls-83" d="M140.14,53.07c.28-.87.62-.86,1,0,.04.33-.03.67,0,1l1,2c.1.29-.09.68,0,1l1,2c.09.31-.1.7,0,1l1,1c.07.28-.03.66,0,1,.78.58.66,1.34,0,2,1.92,1.81.38,3.51-2,2-.28.87-.62.86-1,0-2.66-1.62-4.9-8.82-4-11.99-.85-.23-.82-.56,0-1-.74-.66-.72-1.37,0-2,.04-.03-.12-1.05.5-1l2.5,3Z"/><path class="cls-19" d="M145.14,65.07l1,1c.07.28-.03.66,0,1,.78.58.65,1.34,0,2v2c-2.33-1.68-1.78-.13-2,0-.32.87-.66.87-1,0-1.22.05-1.55-.62-1-2-2.17-.06-1.9-2.1,0-3l2-2c.28-.87.62-.86,1,0,.1.3-.09.69,0,1Z"/><path class="cls-227" d="M141.14,53.07h-1c-.04-.99.07-2.01,0-3l1,.5c.06.83-.09,1.69,0,2.5Z"/><path class="cls-152" d="M147.14,69.06h-1c-.02-.66.05-1.34,0-2l1,.5c.05.5-.05,1.01,0,1.5Z"/><path class="cls-227" d="M143.14,59.07l-1-.5v-1.5c.04.13.44.07,1,2Z"/><path class="cls-227" d="M142.14,56.07l-1-.5c-.05-.5.04-1.01,0-1.5l1,.5c.14.53-.13,1.13,0,1.5Z"/><path class="cls-227" d="M140.14,49.07c-.04-.13-.46.18-1-2l1,.5v1.5Z"/><path class="cls-72" d="M136.15,37.08c-.05-.12-.68.49-1-2l1,.5v1.5Z"/><path class="cls-152" d="M145.14,64.07h-1c-.02-.66.05-1.34,0-2l1,.5c.13.52-.12,1.11,0,1.5Z"/><path class="cls-152" d="M145.14,59.07c-.92.11-.88-.28-1-1,.96-.12.85.33,1,1Z"/><path class="cls-227" d="M144.14,61.07l-1-1c.02.07.66-.38,1,1Z"/><path class="cls-152" d="M146.14,66.07l-1-1c.02.07.66-.38,1,1Z"/><path class="cls-175" d="M92.16,60.07c1.41.83.7,3.01-1,3l-1,1c.84.31.83.65,0,1,.03,2.66-.63,3.33-2,2-.81.5-1.47.5-2,0-.05-.96-.1-2.05,0-3,.17-1.7.58-1.77,1-3,.11-.31-.12-.74,0-1l1-1c.62-1.22,1.75-2.52,2-3,2.61-3.6,3.28-2.27,2,4Z"/><path class="cls-37" d="M96.16,51.07c1.33,1.72.81,2.26-1,1-.48.37-.48.71,0,1,3.26,1.26,1.07,5.58-2,5,.66.27.64.61,0,1-.15.57-.32,1.01-1,1l-1-1.5,1-3.5-2,1c.54-1.02.24-3.22,2-4l2.26-6.52c1.37.12,1.95,1.96,1.74,5.52Z"/><path class="cls-222" d="M98.15,43.08c2.01,1.99,1.5,6.97-2,8l-1-.5v-3.5h-1c.55,1.98-.49,2.49-1,3.5-.28.56.54.82-1,1.5.11-.8-.19-1.84,0-2.5.74-2.56,1.62-2.38,2-6.5.28-.87.62-.86,1,0,.53-4.18,3.79-2.87,3,0Z"/><path class="cls-102" d="M97.15,37.08c.8,1.88,1.46,2.55,2,2,.85.3.71,1.51,0,2,2.14.26,1.77,1.02,0,2-.25.86-.58.84-1,0-.05-.03.13-1.05-.5-1l-2.5,1c-.85-.3-.7-1.52,0-2,0-.65-.12-1.45,0-2l1-1c.08-.31-.07-.68,0-1,.28-.87.62-.86,1,0Z"/><path class="cls-174" d="M101.15,28.08c.01,1.14-.65,2.14-2,3,.86.33.86.66,0,1-.89,1.81-1.89,2.81-3,3h-1c.45-1.1.76-2.46,1-3l1-1,2-3c.59-.37,1.34-.72,2-1,.87.28.86.62,0,1Z"/><path class="cls-174" d="M95.16,43.08h-1c.05-.49-.05-1,0-1.5l1-.5v2Z"/><path class="cls-215" d="M98.15,34.08c2.22,1,1.21,2.95-1,3h-1c.13-.55-.06-1.35,0-2l3-3c.14.66-.19,1.33-1,2Z"/><path class="cls-174" d="M95.16,39.08c.3-1.38.98-.93,1-1l-1,1Z"/><path class="cls-148" d="M87.16,60.07c.61-1.33.97-.94,1-1l-1,1Z"/><path class="cls-57" d="M121.15,22.09c.33,0,.67,0,1,0v1c-.68.32-1.02.66-1,1,2.6,1.47.4,1.96-6.59,1.45l-1.41.55c-.19.89-.52.85-1,0-.86-.61-1.13-.65-2,0,.85.33.85.66,0,1-.28.87-.62.86-1,0-.4-.48-.73-.48-1,0-2.75,1.76-4.1-.12-1-2,.57-.97,1.57-1.64,3-2,.33-.03.67.03,1,0,1.14-.54,2.47-.87,4-1,1.33-.97,4.44-.79,6,0Z"/><path class="cls-180" d="M121.15,22.09c-1.41.02-5.33-.31-6,0h-2l.5-1h7l.5,1Z"/><path class="cls-77" d="M113.15,22.09c.64-.08,1.34.04,2,0-1.73.81-1.46.8-4,1l.5-1c.5-.07,1.02.06,1.5,0Z"/><path class="cls-114" d="M104.15,26.08c.95,1.85-.16,2.93-2,2-.31.4-.65.39-1,0v-1c1.19-.51,2.23-.7,3-1Z"/><path class="cls-77" d="M110.15,23.08l-.5,1c-1.06-.2-1.51.57-2.5,1-.08,2.1-.42,2.54-2,1-.35-.54-.02-1.2,1-2,.28-.12.71.12,1,0l1-1c.57-.12,1.35.06,2,0Z"/><path class="cls-3" d="M107.15,24.08l1-1c-.07.01.37.45-1,1Z"/><path class="cls-3" d="M105.15,26.08c-.33.86-.67.86-1,0,.6-.64.43-1.33,2-2l-1,2Z"/><path class="cls-50" d="M67.16,63.07c.12.3-.14.76,0,1,.98,1.7,3.58,4.87,4,6,.15.41-.04,1.35,0,2,.88.44.67,1.23,0,2-.42,1.23-4.08-1.45-4.85-3.19-2.8-.49-4.18-1.42-4.14-2.81-.87-.28-.86-.62,0-1-1.33-1.7-.99-2.7,1-3-2.76-1.87-.65-4.14,2-2,.49-.39,1.16-.05,2,1Z"/><path class="cls-243" d="M30.17,56.07c1.65.24,1.95,1.88,0,2,1.18,3.96,3.05,6.12,5.59,6.47,4.49,5.15-4.21-.52-2.59-2.47.32-2.65,1.24-2.54,2,0,.28-.87.62-.86,1,0,.76-.48,1.33-.52,1.63.15,1.3-2.15,6.47-8.92,8.36-9.68,2.65-1.07,7.12,2.74,3.01,4.54-.37,1.93-.82,2.11-2.73,1.9-3.52,3.65-2.61,3.02,2.73-1.9,1.57-4.24,5.49-2.5,8-1,1.64.71.63,1,1,2q-1.45,2.53,0,0c1.16-.26,1.56-1.46,3-1l-1-2c.12.17,2.8,2.91,3,3l1,1c.24.3.74,1.64,1,2,.49.31.47.64,0,1-.97.08-1.81,1.08-2,2-1.78,1.84-2.55,1.2-3-1l-1,1c1.86-.03,2.53,1.44,3,3v1c-.28.82-.61.8-1,0-1.5.49-2.29,1.47-2,3h-4l1,1.5c-1.1,1.54-2.14,1.73-4,1.5l.5-2-2.5.5,2,3.5h-2l1,6-4-3-1,6-2-4,1,6-3.5-2-1.5,2h2v3h-2v4h-2v1.5l3-.5-1,3.5h-2l-2.5,1.5-1-2-2.5,3c-1.7,1.62-3.36.28-5-4v-1l.5-1,2,1,3.5-2v2l2-2h-2l2-2.5-2-2.5-2,.5-.5,4.5-.5-3-2-.5c1.33-1.2,2.1-2.88,4-2.5v-2l2-1-2-.5v-1.5h-2l1-2h-2l-4-9q1.96-1.5,0,0c-.15.11-.64-.04-1,0-.22-1.12.34-3.27,0-4,1.14-2.17,2.42.46,1.5-3-.75-2.81-1.07-2.42-.5-4.5.32-1.15-1.6-2.03-1-4,1.3-.53.87-2.35,1-2.5s2.93-.27,3.5-2c1.82,1.22,1.42,2.19,1.5,4Z"/><path class="cls-232" d="M64.16,59.07l-1-1c1.29.56.81.77,1,1Z"/><path class="cls-115" d="M67.16,63.07l-2-1v-1c.11.15,1.33.41,2,2Z"/><path class="cls-28" d="M50.17,2.09c-.13,1.42,1.21.79,1.5,1,2.79,2,1.26,2.3,5.5,3,.1.23-.18.75.5,1h1.5v3l2-1c-.54,2.03.93,1.89,1,2l1,1c.09.08.83-.18,1,.5,0,.63-.95.45-1,.5-.8.74-2.17.78-3,0-.18-.25.33-.65-1-1-.28.75-.61.74-1,0-.87-.28-.86-.62,0-1l-1-1c-.26.86-.59.84-1,0-2.16-1.34-4.16-3-6-5-.32.86-.65.86-1,0l-2-1c-.27.86-.6.85-1,0l-1-2h5Z"/><path class="cls-54" d="M46.17,4.09c.31.09.69-.09,1,0l2,1c.32.1.73-.11,1,0,1.98.61,3.15,2.01,3.52,4.18l2.48.82c.33.07.7-.08,1,0l1,1v1c-2.5,2.53-8.25.54-11-2-1.12.95-1.48.38-1-1-1.51.05-2.14-2.71-2-4-.36-.85-.93-1.25-1-2,.66.26,2.13.74,3,1Z"/><path class="cls-67" d="M43.17,3.09c-2.31.11-4.69-.15-7,0l.5-1c1.82.27,4.38-.39,6,0,.68.17.45.98.5,1Z"/><path class="cls-114" d="M96.16,32.08c.6-1.34.97-.94,1-1-.12.16.15,1.17-1,1Z"/><path class="cls-14" d="M63.16,12.09c-1.14.16-.85-.75-1-1,.03.07.7.71,1,1Z"/><path class="cls-92" d="M63.16,13.09c-.4.41.1,1.29-2,1-1.32-.18-.84-.78-1-1h3Z"/><path class="cls-105" d="M44.17,9.09c1.18-1.09,1.57-.53,1,1,1.9.21,1.75,2.54,1,4-.6,1.36-1.6,2.69-3,4-2.38.15-3.56-.23-5.5-1l-.5-1c1.26-.18,2.7.12,4,0-.05-1.1-1.1-1.6-2-2-1.63,1-3.03-1.14-1-2-.07-.6-.1-1.42,0-2l1-1v-1c.33.15.99-.2,1.5,0,.79.3,1.54,1.66,3.5,1Z"/><path class="cls-29" d="M38.17,12.09c.06.48-.07,1,0,1.5.25.68.77.4,1,.5l-.5,1-2.5-1v-4l2,2Z"/><path class="cls-126" d="M38.17,10.09c.12-.72.09-1.11,1-1l-1,1Z"/><path class="cls-170" d="M44.17,5.09c.12.27-.18.81.5,1l1.5-.5c-1.09.34-.46,2.47,0,3.5,1.04,1.43.59,1.95-1,1-.39-1.38-.97-.93-1-1-.26-.63.15-2.09,0-3h-2v-1h2Z"/><path class="cls-167" d="M146.14,80.06c.09.63-.05,1.35,0,2,.02.33-.01.67,0,1-5.54,4.28-8.23-.47-7.95-6.66.02-.38,1.2-4.65,1.39-4.84,1.56-1.48,4.22-.4,2.94.22-.99.48-1.13-.45.62-.72.14-.16.74.15,1,0-.74,1.89.86,2.98,1,3.5.35,1.36.8,4.09,1,5.5Z"/><path class="cls-138" d="M71.16,102.05c-.08.3.07.68,0,1-.64,1.57-1.56,3.03-3,4,.18,1.13-.94.94-1,1l-2,2c-.58.26-2.1-.16-3,0l-1.5,3-1.5-3c1.98.57,1.89-.92,2-1,1.28-.95,2.42-2.22,4-2,.09-.63-.17-1.62,0-2-.48-2.86.09-4.73,3-3,1.88-1.57,2.88-1.57,3,0Z"/><path class="cls-97" d="M73.16,96.05c-.07.82.04,1.67,0,2.5-.76.84-1.71,2.47-2,3.5h-1.5l-1,1-.5-1c-2.3-2.43-.39-6.12,2.21-7.27-1.21-1.43-.62-2.34,1.79-2.73,1.71-3.02,2.11,2.22,1,4Z"/><path class="cls-134" d="M72.16,92.05c-1.97-.51-2.43-3.54-.95-4.82-3.61-6.14,2.3-6.81,2.95-.18v9h-1c.07-.86.13-3.84,0-4-.14-.17-.82.16-1,0,.73,1.89-1.75,2.62-2,3.5-.54,1.88-.72,4.91-2,6.5-.43.53-2.54,1.95-3,3h-4l4-1-3-1,2-1-1-4h2l1.5-3c1.36-.39,1.91,2.09,3.5-.5l-2-.5-1-3.5c.22-.8,1.92-1.4,2-1.5l1.2-.85c.14,1.95.74,3.23,1.8,3.85Z"/><path class="cls-158" d="M68.16,107.05l3-4c-.43,1.86-.75,3.16-3,4Z"/><path class="cls-209" d="M66.16,110.05h-1c.13-.06,1.5-1.52,2-2l-1,2Z"/><path class="cls-35" d="M93.16,87.06c.89.25.87.58,0,1-.41,4.67.59,7,3,7,.86.34.86.67,0,1l1,1c1.01-.6,1.1-.02,1,1,.86.33.86.66,0,1,1.81,2.37,1.4,8.37-3,5,.15-.21-.14-.73,0-1,0-1.72-.33-1.72-1,0-1.25-.11-1.79-.27-2,1l-1-.5-3.5-5.5h-.5c-.1.11,0,1.36,0,2-1.47-.09-.39-1.29-2-2-.81-.87-.86-3.2,0-4-1.18-2.53-.18-4.2,3-5,.7-4.23,2.36-5.89,5-5,1.23.32,1.23,1.32,0,3Z"/><path class="cls-89" d="M84.16,79.06c1.31.21,1.31,1.21,0,3,.75,2.97,1.49,6.18,2.23,9.63-1.51.42-1.73,1.16-1.23,2.37.34.72-.22,2.88,0,4-.24-.11-.84.18-1-.5.27-3.98-2.65-6.83-2-11l-1-.5c.07-.82-.13-1.74,0-2.5.07-.37.9-.6,1-1,.44-1.78.18-1.76,1-3.5.28-.87.62-.86,1,0Z"/><path class="cls-93" d="M93.16,70.06c-5.42,5.57-7.42,5.9-6,1v-1c-.75-.97-.19-2.67,1-3l2-2c1.25.77,2.25-.9,3-5-.45-.28-.42-.61,0-1-.03-.27-.07-.75,0-1,.24-1.59,2.09-2.09,3.01-.86,2.4,3.22.4,10.7-3.01,12.85Z"/><path class="cls-159" d="M93.16,70.06c2.02,2.24.98,4.23-2,4-.33.8-1.07,1.35-2.22,1.64-.6,6.01-5.23,3.49-2.78-1.64-1.49.29-.61-1.85,0-3,.31-.08.68.06,1,0l.5,3,4-6,.5,1.5c.24.62.59.43,1,.5Z"/><path class="cls-109" d="M86.16,74.06c-.14,3.28-.81,4.95-2,5h-1c.31-.65-.23-2.49,0-3.5.08-.37,1.66-2.35,2-3,.26-.5-.54-1.11,1-1.5v3Z"/><path class="cls-73" d="M88.16,67.06c.42,1.51-.69,1.82-1,3l-1-.5c-.03-.83.04-1.68,0-2.5l1.5-1,.5,1Z"/><path class="cls-140" d="M85.16,64.07v1l-1,1-1-.5v-1.5c1.3-.37,1.81-1.83,2,0Z"/><path class="cls-148" d="M84.16,66.07c.18-.54-.04-1.14,1-1l-1,1Z"/><path class="cls-208" d="M67.16,75.06c-1.68-4.51,3.82-1.71,4.32,1.52l.68-.52c.28-.87.62-.86,1,0,.1.27-.08.67,0,1,.34,1.27.67,2.61,1,4,.05.99-.03,2.01,0,3s0,2.01,0,3l-3-4,1,4.5c-1.57.97-1.22,3.35,0,4.5h-2v-2.5l-1-.5c.05-.06.05-.94,0-1v-2c-.66-.9-1.19-1.88-1-3h-2c-.52-1.59,1-2.02,1-3,0-.8-.51-.99-1-1.5l1-3.5Z"/><path class="cls-232" d="M74.16,81.06l-1-.5v-3.5c.01.05.83-.19,1,.5.22.91-.06,2.38,0,3.5Z"/><path class="cls-232" d="M73.16,76.06h-1c-1.53-.4-1.94-1.85,0-2,.37.09.8-.15,1,.5.19.5-.14,1.13,0,1.5Z"/><path class="cls-208" d="M72.16,74.06c-.27.86-.6.85-1,0-.02-.66.04-1.34,0-2h1v2Z"/><path class="cls-134" d="M69.16,88.06c-.07-.08-1.61-.16-1-1.5l1-.5c.06.09,1.6.15,1,1.5l-1,.5Z"/><path class="cls-169" d="M41.17,43.08c.12.39-.16.98,0,1.5.19.62,1.72,1.58,1,3.5l3,1-1-2.5c.56-.48.88-.72,1-1.5.28-.87.62-.86,1,0,.49-.22.9-.37,1.03-.24,1.72,1.72.23,3.38.23.75,0-.17.32-.35.74-.52.76-1.2,1.59-.25,2,1,.32.07.68-.07,1,0l2,2.5v1.5h2c-.39,2.21.36,3.16,2,4.5l-1,1c.19.68.73.38,1,.5l-4,1.5-1-1,.5-1.5-1.5,3-2-1c.05.99-.03,2.01,0,3l-3-1v9c3.18.85,2.43-3.3,1-4.5v-1c.78-1.29,1.56-1.18,2.5-1.5,1.2-.4-.38-2.35,1.5-2l-2,4.5,1,3-2,2,1,3.5-2-3-3,1,2,1v4l-3,1,3,4-2.5-3-1,6-2-3c1.57-1.25-.5-2.21-.5-2.5,0-.66.72.11,0-3-.56-2.44.38-4.82,3-4.5v-2h2c-2.14-2.3.35-3.22,0-4.5l-2-3,6-3.5c-.03-.66.02-1.34,0-2l-3-1-1,4-1.5-1-2.5,4.5,2,2.5-3.5-3-2.5,4-1-3c.35-1.48.02-1.48-1,0h-2c-1.42-.36-2.42-1.69-3-4,.1-.58.03-1.35,0-2l1-4h-2c-.39-2.65-2.91-5.47-5-7.5l2-.5,6,7.5v1.5h2c-.34,1.75,1.31,2.2,1,4q-1.23.49,0,0l2-2.5c-2.37-1.97-3.82-4.23-5.5-6.5-1.04-1.4-2.04-1.61-1.5-4l2,3h2l1,4c1.22.18,1.87-1.94,2-2-.14-2.5.53-4.84,2-7,.23.12.67-.1,1,0l1,1Z"/><path class="cls-66" d="M45.17,38.08l5,6.5v1.5c-.57-.13-1.56-.68-2-1-.62.28-1.28.28-2,0h-1c.19-1.21-.01-1.78-1-2.5l2-1-5-.5v-3l3.5,1,.5-1Z"/><path class="cls-66" d="M39.17,42.08l1,2.5-2,3,1,1.5c-.62.09-1.65-.17-2,0l-3-5,3,1-1-5c.23-.28,2.14,1.54,3,2Z"/><path class="cls-169" d="M26.17,43.08c.09-.36-.15-.85.5-1h2.5c-.4-2.54,2.03-2.99,4-4l-2,2v2c-1.95.16-2.66,1.13-5,1Z"/><polygon class="cls-66" points="35.17 43.08 33.17 43.08 33.17 41.08 35.17 43.08"/><path class="cls-66" d="M41.17,43.08l-1-1c1.02-.13.82.43,1,1Z"/><path class="cls-195" d="M106.15,105.05c.26-.86.59-.84,1,0,.24,1.09,1.33,1.35,1,2.5l-3.5,2.5-3.5-1,2.5,4-6-2-4.5-5.5c.28-.8,1.93-1.4,2-1.5l3-1.5c-2.55-1.79-.09-3.26,0-3.5l1.4-.73,6.6,6.73Z"/><path class="cls-1" d="M127.15,103.05c-.54.14-1.35-.07-2,0v2h-2v2c-1.11.14-2.51-.23-3.5,0-1.14.26-3.01,3.02-4,1l-1.5,1v-2l-4-1c-.33-.03-.67.04-1,0l-1-1c-.32-.07-.69.08-1,0-.76-.33-.76-.66,0-1,.3-.85,1.51-.69,2,0,.29-.71.63-.7,1,0l2,1c.17-.84,1.51-.74,2,0,.82.64,1.18.69,2,0,.4-.95,2.18-.71,3,0,.49-.36,1.16-.7,2-1,.23-.68.57-.64,1,0l1-1,1-1c-.8-2.15,1.22-3.68,3-2,.88-1.48,1.88-2.14,3-2-.33,1.73-.46,1.43-1,2.5-.42.82-.05,2-2,2.5Z"/><path class="cls-9" d="M109.15,106.05c-.75-.1-1.1-.11-1-1,.66.15,1.12.04,1,1Z"/><path class="cls-137" d="M112.15,108.05c-.04-.06-.68-.66-1-1l1,1Z"/><path class="cls-12" d="M47.17,20.09l-.5,1h-1.5c0-.33.06-.7,0-1,.24-1.97,1.23-1.88,2,0Z"/><path class="cls-12" d="M43.17,20.09c.3.07.66-.04,1,0l-.5,1-.5-1Z"/><path class="cls-87" d="M34.17,22.09c-.33,0-.67-.02-1,0,.02-.34-.07-.72,0-1,.33.02.67-.04,1,0v1Z"/><path class="cls-79" d="M53.17,14.09c.97,1.18.64,2.51-1,4-.05.02.2.74-.5,1-1.22.46-2.16.77-3.5,1-.32.05-.67-.04-1,0-.64.07-1.35.04-2,0-.19-1.01-1.04-1.14-1-2-1.39-3.06.82-3.88,3-2-.29-1.72.38-1.72,2,0-.75-2.47.77-6.14,4-2Z"/><path class="cls-82" d="M46.17,14.09c1.22-.52,1.88,1,1,2-2.91.43-2,1.22-3,2-.12.1-.65-.02-1,0,.31-1.71-.21-2.62-1-4h4Z"/><path class="cls-212" d="M30.17,23.08l1-1-1,1Z"/><path class="cls-128" d="M31.17,106.05l1-1.5,2.5.5-.5-2h5c.18,1.59-.8.42-2,2,1.28.64,2.54,1.49,2,3-.47,1.11-1.33,1.69-1,3l-3-1,1,2c.05,1.87-1.32,2.64-3,3-.91-.16-2.03.1-3,0,.19-1.21-.01-1.78-1-2.5l2-3-1-.5c-2.39-.81-1.57-3.25,1-3Z"/><path class="cls-94" d="M27.17,97.05c1.79.16,2.79-.37,4,1.5l-1,1.5,2,1c-.69,1.78-2.78.13-2,3h-1v-2c-1.54-.55-2.25.99-2.5,1-.17,0-1.02-1.55-2.5-1l-2,2c-.26-1.16-1.47-1.56-1-3h2c.37-1.61,1.66-3.2,3-4,.33-.01.68-.03,1,0Z"/><path class="cls-143" d="M62.16,68.06c1.48.5,2.11,2.01,3.5,0,1.56.96,1.47,3.14,3,4,.71.4,1.91-.86,1.5,1.5.2.65.63.41,1,.5.31.08.69-.08,1,0v4h-2c1.61-2.07.11-2.26-1.5-4l-1.5,1-2-4-5-1,1-2c.19-.06.81-.06,1,0Z"/><path class="cls-153" d="M31.17,106.05l-1,3h-1.5l-1.5-1.5v-1.5c1.1.01,1.66-2.06,4,0Z"/><path class="cls-205" d="M36.17,112.04c1.16,1.34,1.32,3.47-.5,4-1.18.34-1.42-.81-2.5-1-.3-1.92,1.1-3.28,3-3Z"/><path class="cls-75" d="M37.17,105.05h3c.33,1.31-.53,1.88-1,3l-3-1.5c.72-.24.86-1.31,1-1.5Z"/><rect class="cls-209" x="58.16" y="83.06" width="2" height="1"/><path class="cls-209" d="M59.66,80.06c.65,0,.65,1,0,1s-.65-1,0-1Z"/><path class="cls-243" d="M34.67,101.05c.65,0,.65,1,0,1s-.65-1,0-1Z"/><path class="cls-182" d="M137.15,69.06c-1.35-8.7,6.65,2.3,3,2-.21-.02,0-4.04,2-2,.02.05.83-.16,1,.5v1.5c-.14.17.08,1.37,0,2l-3-1-1,8h2v3h5c.01.33,0,.67,0,1h-2l-2,4.5c2.2,1.97.75,3.91,0,5.5v-3c-.99.05-2.02-.08-3,0,.23-1.11,1.44-1.47,1-3l-2,2c-.27-4.56.8-9.31-1-13.49-1.35-1.57-.96.7-1,1.5-2.27-.38-1.93-2.71,1-7,.54-.45.54-.79,0-1-.88-.3-.87-.63,0-1Z"/><path class="cls-123" d="M135.15,91.05l1,2h2v-2c.33-.02.67.03,1,0-.21,1.02.14,2.37,0,3.5l-2,4,4-1.5c1.21,4.12-2.65,4.57-3,8l-1-4-1,2-3.5-2-2.5,1c-.8-.84,2.52-4.4,3-5.5.2-.45.59-2.32,1-3.5-.96-.94-.34-2.24,1-2Z"/><path class="cls-243" d="M24.17,75.06l-2-1.5v1.5h-3l2-2-1-3c2.93-.8,1.28,1.6,3,2,.95,1.06.77,2.54,1,3Z"/><path class="cls-39" d="M14.67,64.07c.65,0,.65,1,0,1s-.65-1,0-1Z"/><path class="cls-199" d="M17.17,99.05c.45,5.31-4.45,5.31-4,0h4Z"/><path class="cls-26" d="M19.17,90.05l1,2.5-2.5,2.5c-2.7-1.96-1.76-5.12,1.5-5Z"/><path class="cls-120" d="M26.17,97.05v4h-3v-4c.99-.02,2.01.03,3,0Z"/><path class="cls-34" d="M10.18,93.05c-.15-.94.09-2.02,0-3l3,1.5c-.97,1.1-1.45,1.76-3,1.5Z"/><rect class="cls-94" x="20.17" y="104.05" width="1" height="2"/><rect class="cls-94" x="18.82" y="100.99" width=".71" height="2.12" transform="translate(-66.55 43.46) rotate(-45.01)"/><polygon class="cls-240" points="25.17 90.05 24.17 90.05 25.67 87.06 26.17 87.56 25.17 90.05"/><path class="cls-170" d="M58.16,12.09c.31.09.69-.08,1,0v1l-2,3c-.14.17-.81-.16-1,0-2.03.74-2.67.04-3-2-.97-.12-2.02.07-3,0v1.5c-.24.62-.59.43-1,.5-2.2-.87-3.75-4.07-2-6,2.96-2.52,3.28.66,4.5,1,1.65.45,4.31.39,6.5,1Z"/><path class="cls-65" d="M56.16,16.09c-.1.08-.72,1.77-1.5,2-.71.21-2-.24-2.5,0l-1-.5c-.36-1.58,1.74-2,2-3.5,1.43.18,2.57.13,3,2Z"/><path class="cls-42" d="M57.16,16.09c.82-.97.8-3.02,2-3v1.5l-2,1.5Z"/><path class="cls-3" d="M97.15,31.08c.63-1.39-.49-1.44,2-3-.68,1.38-1.34,2.1-2,3Z"/><path class="cls-25" d="M117.15,47.07c-4.72-2.51,4.44-14.06,7.55-11.85-.69-2.71,2.41-2.57,3.32.2l3.13.65s.56-.22,1,.5c.25.41-.16,1.14,0,1.5l1,2c.04.33-.02.67,0,1l-.47,2.57c4.1,6.88,4.08,26.32-6.53,16.42l-1-1c-.32,1.53-1.16,1.18-2,0-.33.65-.67.65-1,0-.61.77-1.33.76-2,0-.2.43-2.63-.09-4.51-.49-.19-.04-.35-.25-.49-.51-1.56.76-3.42.72-5,0-4.09.12-.1-5.82,2.25-6.47,3.97,1.06,4.84-.71,4.75-4.53Z"/><path class="cls-30" d="M119.15,27.08c4.22,1.66,8.6,3.98,11,8,1.34.43.84.8,1,1l-1.5,2-3.5-4c.25,1.86-.01,3.49-2,4l-1-3-.5,3h-1.5l1,2c-1.9-.39-2.67,1.3-4,2.5l-1,4.5c.99,2.47-.81,2.88-3.08,3.22-3.8,4.23-11.07,3.66-8.96-2.72,2.8-.87,3.28-2.88.04-2.5,4.43-3.44,1.91,3.36.03,3.1-2.12-.3-2.84-2.8-.03-3.1-.97,3.14-9.31,2.9-6-2,1.37-1.26,2.24-2.85,2.61-4.76,1.81-3.14,3.61-6.22,5.39-9.23-2.74-1-1.79-2.62,1-2,.33-.65.67-.65,1,0h1c2.97-.76,3.29,1.26.96,6.06,4.39-.55,6.02-2.59,4.9-6.12l2.13-.93c.23-.6.57-.56,1,0,.87.28.86.62,0,1Z"/><path class="cls-198" d="M133.15,43.08l1,1c.64.56.73,1.44,0,2l1,1c.02.33-.02.67,0,1,.58.27.56.61,0,1,.47.43.8,1.09,1,2l1,2c-.04.36.1.78,0,1-.56,3.88.82,9.12,4,11.99h1c.16.89-.26,2.45,0,3l-2,2-1-4h-1c.52,2.09-.96,1.88-1,2-4.21,2.11-6.35-1.84-8-5-.8.45-1.65-.16-2-1-.3.6-.63.58-1,0-.67-.28-.65-.62,0-1l-1-1c-.29.6-.62.59-1,0-.92-.3-1.36-1.11-1-2,.65.06,1.44-.13,2,0l1,1c2.32,1.42,4.28,1.01,7,1l-2-1.5,3-1.5c-.26-2.36.37-5.25,0-7.5-.34-2.06,0-1.41,0-2,0-.18-1.92-2.64-2-3-.18-.83-.46-4.53,1-4.5.81.44.61,1.44,0,2Z"/><path class="cls-132" d="M122.15,27.08c.06-2.68,4.92-.24,4,2,1.24.75,2.28,1.72,3,3,.11.26-.09.67,0,1l1,1v1c-.48-.15-1.36.08-2,0v-2c-1.69-.57-4.83-1.96-6.5-3-.8-.5-2.19-2.02-2.5-3,.27-.85,2.26-.78,3,0Z"/><path class="cls-197" d="M121.15,24.08c2.77-1.21,9.95,2.7,8,6h-1c-.41.22-1.08-.11-2-1-1.01-.68-1.84-1.62-2.5-2-.42-.25-1.13.15-1.5,0l-3-1c-.33-.02-.67.01-1,0-1.58,2.67-3.42,2.67-5,0l.5-1c2.09-.32,5.13.46,7,0,.68-.17.45-.97.5-1Z"/><path class="cls-11" d="M122.15,23.08c.64-.03,1.46-.12,2,0l1,1c.35.17,1.11-.27,1.5,0,1.48,1.02,2.33,2.78,3.5,4v1.5l-1,.5v-2h-2v-2c-1.78.43-4.63-2.67-6-2l-1-1c.66-.01,1.34.03,2,0Z"/><path class="cls-2" d="M137.15,53.07l-1-.5c-.15-.53.14-1.17,0-1.5.33-.08.83.13,1,0-.03.66.07,1.35,0,2Z"/><path class="cls-25" d="M136.15,51.07c-.05-.12-.62.41-1-2,.3-.64.63-.63,1,0,.1.61-.05,1.35,0,2Z"/><path class="cls-2" d="M135.15,46.07c-.3.64-.63.63-1,0-.08-.64.07-1.35,0-2,1.47.64.8.65,1,2Z"/><path class="cls-2" d="M134.15,43.08c-.3.59-.63.58-1,0-.12-.56.05-1.34,0-2,.46,0,.83-.05,1,.5.06.5-.05,1.01,0,1.5Z"/><path class="cls-2" d="M133.15,40.08l-1-.5v-1.5c.05.12.68-.46,1,2Z"/><path class="cls-30" d="M128.15,30.08c.15.15.8,1.53,1,2l-3-3c.36.24,1.85.85,2,1Z"/><path class="cls-30" d="M130.15,34.08c-.99.13-.83-.39-1-1l1,1Z"/><path class="cls-25" d="M134.15,44.08c-.57-.25-.74.18-1-1h1c.03.33-.04.67,0,1Z"/><path class="cls-25" d="M135.15,47.07c-.89.1-.9-.25-1-1h1c.05.32-.02.67,0,1Z"/><path class="cls-2" d="M136.15,49.07h-1c-.05-.32.02-.67,0-1,.91-.11.88.28,1,1Z"/><path class="cls-31" d="M141.14,66.07l-1.5,1c-3.15-2.57-1.81-6.71-4.5-9.5v-1c.43-.89,1.93-2.34,2-2.5,1.75,3.4,2.05,7.38,4,10.5v1.5Z"/><path class="cls-57" d="M125.15,24.08l-1-1c1.37.31.94.97,1,1Z"/><path class="cls-185" d="M93.16,60.07c.04.1,1.45-.12,1,1.5l-2,5.5h-2c0-.66.01-1.34,0-2,0-.33-.06-.73,0-1l1-1c.28-.74.05-1.86,1-3h1Z"/><path class="cls-93" d="M90.16,64.07c.31-1.38.97-.93,1-1l-1,1Z"/><path class="cls-18" d="M99.15,43.08c.14.17-.08,1.37,0,2h2v-2h2v2h2v2l2-2h-2l.5-2,4.5,1-3,3.5-1,4.5,1-3,2,.5-.5,2.5,5-4c1.64.63,2.59-.96,3.5-1,1.08-.04,1.05,1.63,3,0l-2,4,3-1v2c-1.65-.53-1.91.79-2.5,1s-1.39-.2-2,0c-1.07.35-2.29,2.36-4,0l-1.5,2,4,2-5-1v2c.87.28.86.62,0,1-.07,1.63-2.53,3.01-4,2h-1c-3.56.1-5.74,2.4-6.56,6.89-1.46,2.79-3.56,5.82-5.44,2.1.99-2.18.95-4.04,3-5.5-1.5-1.16-1.35-3.98-.5-5.5l-2.5-1c.47-1.67,2.26-3.22,2-5-.58-.3-.57-.63,0-1,.67-.29.67.07,1-1,.41-1.32.62-3.29,1-4.5.2-.63,1.71-1.57,1-3.5.26.15.86-.16,1,0Z"/><path class="cls-222" d="M95.16,53.07l-1-.5c.19-.68.72-.38,1-.5v1Z"/><path class="cls-18" d="M93.16,60.07h-1l1-1c.05.36-.1.78,0,1Z"/><path class="cls-236" d="M107.15,29.08l1,2.5c-2.52,1.76-2.35,2.75-3,5-.24.83-3.73,3.48-3,5.5l-3,1c-.1-.12,0-1.36,0-2l1-2c-2.25-1.45-1.7-3.49,1-3-.58-.3-.57-.63,0-1-.91-1.41-.4-1.88,1-1-.09-2.83,2.43-9.59,5-5Z"/><path class="cls-49" d="M102.15,34.08c-.14.15.31.44-1,1-.48.37-.48.71,0,1-.88,1.17-.73,1.94-1,3-.28.87-.62.86-1,0l-1,2h-1c.09-1.31-.14-2.71,0-4,.19-1.7.61-1.79,1-3,2.48-3.94,6.93-6.39,4,0Z"/><path class="cls-30" d="M99.15,41.08v-2h1c-.11.42.12.98,0,1.5l-1,.5Z"/><path class="cls-220" d="M108.15,27.08c-.09.07-1.11,1.89-1,2h-2c.04,1.8-1.72,3.58-3,5l-1-.5c.98-.71,1.2-1.29,1-2.5l-4,3c.25-.78.66-1.23,1-2,.12-.28-.13-.73,0-1l3-3c.69-.81,1.27-1.22,2-2,.29-.11.71.11,1,0,.76-.29,1.25-.68,2-1v1.5l1,.5Z"/><path class="cls-215" d="M99.15,31.08c.62-1.29,1.64-1.79,2-3h1c-.79.92-1.45,2.76-3,3Z"/><path class="cls-127" d="M112.15,26.08c.33-.01.67,0,1,0,1.65-.03,3.35-.06,5,0l-.5,4,2.5.5c-1.18,1.42-3.34,2.35-3,4.5l-2-.5v-1.5h-1v2l-2-.5-2,3.5c-1.64.25-1-1.35-1-2.5-.01-2.71-.48-4.31,2-6-1.22-.98-1.22-1.02,0-2,.05-.62-.97-.46-1-.5-.13-.17.08-.67,0-1,.5-.81,1.22-.59,2,0Z"/><path class="cls-77" d="M112.15,26.08c-.66.03-1.34-.01-2,0l.5-1h1l.5,1Z"/><path class="cls-77" d="M109.15,27.08c-.33.08-.83-.13-1,0l.5-1,.5,1Z"/><path class="cls-39" d="M33.17,66.07l-1,1.5.5,6.5c-2.32-1.75-3.79-4.27-1.5-6.5-1.1-1.54-2.14-1.73-4-1.5l1-1.5-2-5.5c3.27,1.68,2.8,7.16,7,7Z"/><path class="cls-218" d="M63.16,64.07c-.25,1.22.66,2.99-1,3h-1.5c-.91-.81-2.04-1.73-1.5-3,.07-.84.4-1.17,1-1,1.34-.57,1.9.77,3,1Z"/><path class="cls-52" d="M58.16,58.07c.7,1.9,1.97,2.15-.5,4h-1c-1.54-1.1-1.73-2.14-1.5-4,.97-.12,2.14.19,3,0Z"/><path class="cls-39" d="M30.17,58.07h2c-.55,1.9.61,2.7,1,4,.15.5-.08,1.36,0,2l3-1c-.64,2.57,1.08,3.16,2,5l-2-2c-3.63-.07-4.61-4.41-7-6.5.57-.47.86-.73,1-1.5Z"/><polygon class="cls-169" points="42.17 65.07 41.17 67.56 42.17 69.06 40.17 69.06 40.17 65.07 42.17 65.07"/><path class="cls-39" d="M29.17,56.07v2c-1.9.29-3.29-1.09-3-3l3,1Z"/><path class="cls-94" d="M37.17,90.05l-3-1v-2c1.9-.29,3.29,1.09,3,3Z"/><polygon class="cls-39" points="36.17 71.06 34.17 71.06 34.17 68.06 36.17 69.56 36.17 71.06"/><path class="cls-169" d="M38.17,75.06c1.09,1.09-.91,3.09-2,2s.91-3.09,2-2Z"/><path class="cls-162" d="M25.17,72.06c.12-.08.84-2.22,2-2v2h-2Z"/><rect class="cls-94" x="36.17" y="91.05" width="3" height="1"/><path class="cls-189" d="M60.16,63.07c-.07.03-.97.93-1,1v-2l1,1Z"/><path class="cls-169" d="M38.67,78.06c.65,0,.65,1,0,1s-.65-1,0-1Z"/><path class="cls-94" d="M31.67,96.05c.65,0,.65,1,0,1s-.65-1,0-1Z"/><path class="cls-165" d="M50.17,5.09c.35.14,1-.2,1.5,0,.97.38,1.53,2.64,3.5,2l-2,1,3,2c-.75-.15-1.69.1-2.5,0-2.5-1.39-.33-4.6-3-4l-.5-1Z"/><path class="cls-165" d="M49.17,5.09h-1.5l-.5-1c1.96.56,1.87.96,2,1Z"/><path class="cls-42" d="M58.16,11.09l-1-1c.61.17,1.13,0,1,1Z"/><path class="cls-121" d="M47.17,10.09c.23.44.31,1.17,1,1.5l-1,1,2,3.5c-.61.11-1.37-.09-2,0-.13-.74-.65-1.28-1-2-.96-1.94-.62-2.65-1-4l1-1c.03.06.34-.29,1,1Z"/><path class="cls-167" d="M93.16,70.06c1.33.22,2.26-.36,3-1.5,1.09-1.69,1.91-5.29,3-7,1.2-1.87,4.59-1.58,4-4.5h3l-2,2c-.43.48,1,1.03,1,2,.01,1.19-.65,2.19-2,3,1.73.79.78,2.24-1,2l-1,1c1.67.92.83,2.14-1,2l-1,1c.86.26.84.6,0,1l-1,2c.85.33.85.66,0,1l-1,2c.86.25.84.59,0,1-.07,1.79-.4,3.46-1,5,1.43.37,1.28,1.13,0,2,.89,1.2.89,1.86,0,2,.58.3.57.63,0,1-.3.62-.63.61-1,0-.92-.09-.92-.76,0-2-.6-.71-1.26-1.04-2-1-.06.17-1.76.66-1,3h-3l2,3c-.52.45-2.94-.85-3-1l1,8c-1.89.08-.27-1.77-2-3.5-1.44-1.44-2.25-2.75-2,.5-1.77-3.76-1.34-7.79-1-11.99.66-2.47,1.83-5.57,3.85-2.73-1.03,3.22-1.71,6.8.14,9.73l-1.06-1.96c-.53-3.63.43-11.6,4.06-13.03.6-1.35,1.39-2.65,2-4Z"/><path class="cls-191" d="M95.16,87.06l1,1c.35-.09.68.24,1,1,1.57.59,1.56,1.41,0,2l1,2c.9.24.87.58,0,1l1,1c.94.2.91.54,0,1,1.08,1.37.82,2.71-1,2-1.14.18-.93-.93-1-1l-1-1c-.12-.28.12-.71,0-1-2.46.1-3.46-2.23-3-7,.05-.32-.01-.67,0-1,.36-2.17,1.02-2.83,2-2,.05.66-.12,1.43,0,2Z"/><path class="cls-137" d="M96.16,95.05l-2,4c.49-1.63-1.82-3.68-2-4.5-.56-2.55.69-4.38,1-6.5l1,.5c-.56,2.64,1.05,4.25,2,6.5Z"/><path class="cls-137" d="M100.15,97.05l4,4c.94.16,1.22,1.16,1,2,1.28.28,1.86.85,1,2-.44-.14-3.33-1.87-3.5-2-1.52-1.16-2.63-3.29-4.5-4,.11-.3-.11-.71,0-1,.33-.83.74-1.18,1-2,1.86-1.38,2.42-.8,1,1Z"/><path class="cls-137" d="M93.16,84.06c.16-.46-.08-1.36,0-2h2c.04.99-.07,2.01,0,3l-2,2c.04-.99-.03-2.01,0-3Z"/><path class="cls-195" d="M94.16,103.05v-2h2c.2.17-.68,1.4-1,2h-1Z"/><path class="cls-137" d="M97.15,97.05c-.06-.06-.42.3-1-1l1,1Z"/><path class="cls-171" d="M86.16,74.06c0,.95-.15,3.83,0,4l3.5-4h1.5l1,2h-3l1,2.5c-.52.65-1.94,3.65-2,4-.16.92-.2,6.04,0,6.5l-2-1.5c.2-2.86-.72-5.93,1-8.5l-3,3c.08-.98-.13-2.04,0-3,.15-1.1,1.73-2.49,1-4.5l1-.5Z"/><path class="cls-39" d="M35.17,62.07v-3h2c-.04,1.34.5,3-1,3h-1Z"/><path class="cls-27" d="M48.17,45.07v2l-2-2,1.5-1c.68.17.45.97.5,1Z"/><path class="cls-39" d="M35.17,57.07c-.45,2.6-3.54-.56-3-1l3,1Z"/><path class="cls-9" d="M107.15,103.05c.87.28.86.62,0,1,.05.32-.07.68,0,1-.32-.08-.71.1-1,0-.15-.72-.65-1.36-1-2,.29-.73.62-.72,1,0,.28-.87.62-.86,1,0Z"/><path class="cls-213" d="M130.15,95.05c.47.25.44.59,0,1-.01.65-.35.98-1,1-.06,1.02-.73,2.02-2,3-.96.66-2.07,1.31-3,2l-1,1c-.29.48-.62.46-1,0-.42.36-1.08.69-2,1-.21.68-.55.65-1,0-.81.76-2.08.7-3,0-.87-.28-.86-.62,0-1,1.71-.39,3.37-1.06,5-2l1.44-2.07c-1.79-1.35-1.27-1.66,1.56-.93-1.64-2.4.94-3.9,3-2l1-1c-.86-.31-.86-.65,0-1l1-1c-.84-.23-.81-.57,0-1,2.77-1.84,2.39.83,1,3Z"/><path class="cls-84" d="M112.15,102.05c1.31.44,2.64.77,4,1v1c-1.29.75-2.67.7-4,0-.3.85-1.52.7-2,0h-1c-.87-.28-.86-.62,0-1-.08-.36.25-.69,1-1,.26-.74.59-.71,1,0,.25-.87.58-.85,1,0Z"/><path class="cls-144" d="M116.15,104.05c.99-.01,2.01.02,3,0,.87.28.86.62,0,1-.91.07-2.52-.23-3,0-.47.77-1.49.77-2,0-.43-.16-1.37.1-2,0-.87-.28-.86-.62,0-1,1.33,0,2.67.02,4,0Z"/><path class="cls-156" d="M116.15,105.05c-.1.05.17,1.41-1.5,1-.68-.17-.45-.98-.5-1h2Z"/><path class="cls-156" d="M121.15,104.05l-.5,1c-.5.04-1.01-.04-1.5,0v-1c.33,0,.67.02,1,0h1Z"/><path class="cls-40" d="M112.15,104.05v1c-.48-.07-1,.08-1.5,0l-.5-1h2Z"/><path class="cls-144" d="M122.15,103.05c.61.3.59.63,0,1-.27.08-.65-.04-1,0-.33.04-.67-.02-1,0l.5-1c.5-.09,1.04.08,1.5,0Z"/><path class="cls-40" d="M109.15,103.05v1h-2v-1c.12-.8.47-.74,1,0,.22-.68.56-.64,1,0Z"/><path class="cls-53" d="M130.15,98.05c-1.09.48-2.02,1.32-3,2,.43-.83,1.45-2.43,2-3h1c-.03.34.06.69,0,1Z"/><path class="cls-144" d="M123.15,103.05c.48-.69.43-.58,1-1,.1.89-.25.91-1,1Z"/><path class="cls-156" d="M122.15,104.05v-1c.32-.06.67.04,1,0-.19.27.33.62-1,1Z"/><path class="cls-5" d="M129.15,64.07c.61.26,1.6-.44,2.5,1l.5,3,1.5-2,3.5,3c-.09.25.04.65,0,1,.83.27.81.61,0,1,.37,1.29,1.56,2.1,1,4l-3,1.5,1,1.5c-.03.66-.04,1.34,0,2l1,4c.35.35-.78,1.06-1,2-.28.87-.62.86-1,0-.2-2.5-.53-4.83-1-7-.88-.44-.65-1.23,0-2-.36-.49-.69-1.16-1-2-.88-.25-.86-.59,0-1l-1-1c-2.27.08-2.18-1.4,0-2l-1-1c-.87-.28-.86-.62,0-1l-2-2c-.92-.22-.89-.56,0-1-.58-.3-.57-.63,0-1-.7-.29-.68-.63,0-1Z"/><path class="cls-198" d="M137.15,70.06h2v1h-2c-.07-.24-.03-.73,0-1Z"/><path class="cls-85" d="M135.15,86.06c.74.81.82,2.24,0,3-.04.66.1,1.4,0,2-.14.83-.68,1.08-1,2-.46.11-1.86.86-2,1v-1c-.88-.25-.86-.58,0-1l1-2c-.84-.31-.84-.64,0-1l1-3c-.76-2.22-.76-4.78,0-7l1,.5c-.01,2.17.02,4.34,0,6.5Z"/><path class="cls-59" d="M120.15,59.07c1.26.34,2.26,1.01,3,2,.28-.65.62-.63,1,0,2.22.97,2.1,4.36,0,2-.28.87-.62.86-1,0l-1-1c-.33.82-.66.82-1,0-2.28-.04-4.61-.04-7,0-3.64.6-2.61-.32,0-2,2.81-.61,3.14-.94,1-1-.87-.28-.86-.62,0-1,2.74.04,4.32.91,5,1Z"/><path class="cls-64" d="M115.15,58.07v1c-.22.64-.56.6-1,0-1,1.12-3.07,1.63-4,0v-1c1.66.02,3.34-.02,5,0Z"/><path class="cls-141" d="M122.15,59.07c.78.26,1.3,1.14,1,2-1.07-.33-1.36-1.27-2.5-1l-.5-1c.63.09,1.34-.03,2,0Z"/><path class="cls-2" d="M124.15,61.07c-.31-.09-.7.09-1,0l-1-2c.33.02.67-.03,1,0,.11.74.64,1.25,1,2Z"/><path class="cls-85" d="M126.15,60.07l-1-1c1.37.32.94.96,1,1Z"/><path class="cls-127" d="M122.15,27.08h-3v-1c.82.06,1.81-.16,2.5,0s.45.98.5,1Z"/><path class="cls-141" d="M126.15,62.07c.09.3-.09.69,0,1l1,1c.48.31.47.64,0,1,1.97,3.14-1.99,1.41-3-1-.88-.3-.88-.64,0-1,.02-.05,1.04.13,1-.5,0-.09-.63-.72-1-1.5.31.09.7-.09,1,0l1,1Z"/><path class="cls-85" d="M126.15,62.07l-1-1c.89.27.73.12,1,1Z"/><path class="cls-46" d="M127.15,64.07c-.22-.17-.6.33-1-1h1c.68.29.67.63,0,1Z"/><path class="cls-80" d="M110.15,59.07c1.25-.14,2.69,0,4,0,.87.28.86.62,0,1-1.33,1.97-4.01,2.74-6,3l-4,4-1,1c.86.26.84.59,0,1l-1,1c.87.24.84.57,0,1l-1,1c-1.04,3.17-2.04,4.5-3,4-.85-.3-.71-1.51,0-2,0-.33-.04-.68,0-1l1-2c.12-.3-.14-.76,0-1l1-1c.34-.57.67-1.41,1-2l1-1c.33-.59.66-1.42,1-2l3-3c1.39-1.2,2.29-1.81,4-2Z"/><path class="cls-25" d="M114.65,52.07c.65,0,.65,1,0,1s-.65-1,0-1Z"/><path class="cls-63" d="M103.15,64.07c.63-1.05,2-2.29,2-3h1c-.65.56-1.48,2.93-3,3Z"/><path class="cls-220" d="M101.15,36.08l-1-.5c.19-.68.72-.38,1-.5v1Z"/><path class="cls-204" d="M100.15,76.06c1.8.59.47,3.81-1,4-.45,1.29-.79,2.62-1,4,.86.45.64,1.23,0,2-.72.95-1.73-.83-2-2,0-.66-.03-1.34,0-2,.63-1.46.96-3.12,1-5,.08-.33-.1-.72,0-1,.28-.87.62-.86,1,0,1.3-.02,1.46-2.55,2-3.5.41-.72.97-.45,1-.5,1.46.75.27,3-1,4Z"/><path class="cls-113" d="M96.16,82.06c.15-2.85.63-3.47,1-5v4.5l-1,.5Z"/><path class="cls-207" d="M97.15,89.05c-1.15.17-.88-.83-1-1-.52-.3-.5-.64,0-1v-1c1.77-.77,2.37,1.91,1,3Z"/><path class="cls-113" d="M98.15,76.06h-1c.13-.37-.14-.97,0-1.5l1-.5v2Z"/><path class="cls-63" d="M98.15,73.06c.32-2.47.95-1.88,1-2v1.5l-1,.5Z"/><path class="cls-113" d="M98.15,86.06c1.54.76,2.54,3.09,3,7l1,1c.93-.24,2.34,1.06,3,2,2.66.32,2.54,1.24,0,2-1.04.85-2.38.52-4-1-.3.57-.63.56-1,0-.15-.26.14-1.16-1-1,.07-.21.05-.77,0-1l-1-1c-.04-.33.06-.68,0-1l-1-2c-.06-.65.05-1.34,0-2-.06-.82.04-1.67,0-2.5l-1-.5v-2l2,2Z"/><path class="cls-63" d="M101.15,67.06c.16-.29-.14-1.16,1-1-.16.29.13,1.16-1,1Z"/><path class="cls-63" d="M99.15,70.06c.69-1.22.96-.94,1-1l-1,1Z"/><path class="cls-171" d="M93.66,75.06c.65,0,.65,1,0,1s-.65-1,0-1Z"/><path class="cls-137" d="M96.16,88.06c-.04-.06-.71.36-1-1h1v1Z"/><path class="cls-125" d="M98.15,93.05l-1-.5c-.05-.5.04-1.01,0-1.5l1,.5c.09.5-.08,1.04,0,1.5Z"/><path class="cls-125" d="M99.15,95.05c-.89.1-.91-.25-1-1,.96-.12.85.33,1,1Z"/><path class="cls-4" d="M104.15,101.05c-1.78-.92-2.99-2.3-4-4h1c1.97.75,4.28,1.93,3,4Z"/><path class="cls-40" d="M106.15,103.05h-1c-.3-.55-.68-1.51-1-2,.31-.86.65-.86,1,0,1.37.78,1.7,1.44,1,2Z"/><path class="cls-192" d="M108.15,102.05c.87.28.86.62,0,1-.33.03-.67,0-1,0h-1l-1-2c.5-1.63,2.06-.06,3,1Z"/><path class="cls-200" d="M116.15,82.06c3.74-3.51,6.36.94,7.78,5,2.27.23,4.4,4.72,4.22,7-.15.26.16.79,0,1l-1,1c-.46.49-2.44,1.48-3,2-2.2,1.76-2.94,1.74-2.2-.05-1.81-.05-4.23-1.6-4.79-2.95-1.39-.08-2.01-1.41-1.85-4-2.32-3.38-2.95-6.36.85-8.99Z"/><path class="cls-188" d="M120.15,79.06c.79-.71,2.08-.33,3.88,1.15,6.29-.75,6.28,6.05,5.12,10.84.9.32.9.65,0,1,0,.34.08.79,0,1l-1,1c-1.59-.06-.21-3.03-3-2v-3h-5l2-1.5-2-3,1-1.5h-3l-2-1c-1.23-.91-.3-1.59,1-2-1.81-1.11-1.12-2.19,1-2,1.52-2.27,2.38-1.71,2,1Z"/><path class="cls-238" d="M133.15,76.06c.69.21.65.55,0,1q-.7,1.27,0,0c.28-.87.62-.86,1,0,.06.65-.01,1.34,0,2,.05,2.31.07,4.69,0,7-.28.87-.62.86-1,0q-.93-3.15,0,0c.94.62.76,2.34,0,3-.02.35.08.74,0,1l-1,2c-.06.32.04.67,0,1-.29.96-1.02,1.85-2,2-.06-.82.04-1.67,0-2.5l-1-.5c0-.34.09-.88,0-1,.48-3.08.47-6.03-.01-8.85l2.01-1.15c-.67-1.71-.67-3.05,0-4-1.73-4.59.39-5.44,2-1Z"/><path class="cls-144" d="M121.15,101.05s.22.6-.5,1c-.34.19-1.48-.13-2,1-.83.02-1.67-.03-2.5,0-1.04.04-2.66.2-3.5,0-.69-.17-.44-.99-.5-1,.25-1.66,1.25-1.66,3,0,1.02-2.34,4.95-3.47,6-1Z"/><path class="cls-13" d="M124.15,98.05c-1.11,1.03-1.49,1.92-3,3-1.78-1.59-5.04-1.7-6,1-.99.03-2.01-.02-3,0-.33-.05-.67.05-1,0l-5-3c-1.46,1.05-1.94.54-1-1v-2c1.97-1.3,2.97-1.3,3,0,.27-2.93,4.46-1.67,6,0,.61-1.76,1.19-2.7,3-1,1.69-.26,4.27,1.57,5.5,3h1.5Z"/><path class="cls-238" d="M128.15,94.05c.68-1.23.97-.93,1-1l-1,1Z"/><path class="cls-238" d="M127.15,96.05c.4-.42.96-.94,1-1l-1,1Z"/><path class="cls-53" d="M132.15,94.05c-.65.63-1.34,1.35-2,2,0-.33.02-.67,0-1l2-2v1Z"/><path class="cls-238" d="M130.15,97.05h-1c.35-.36.65-.66,1-1,0,.33.03.68,0,1Z"/><path class="cls-192" d="M111.15,102.05c-.32-.05-.67.02-1,0-.18.54-.53.49-1,0-2.44-.59-3.44-1.59-3-3,1.72,1.3,4.33.47,5,3Z"/><path class="cls-210" d="M110.15,102.05c.12.96-.34.85-1,1-.29.07-.66-.03-1,0v-1h1c.32.04.67-.02,1,0Z"/><path class="cls-112" d="M129.15,68.06c1.04.82,1.58,1.76,2,3,.3-.64.63-.63,1,0,.11.62-.15,1.5,0,2l1,1c.06.31-.04.67,0,1,.65.33.65.67,0,1l-2-2c-.01.99.02,2.01,0,3-1.9-.09-4-1.82-2-4-2.64-1.91-3.3-3.58-2-5-.1-1.8.71-2.35,2-1,.67.29.66.62,0,1Z"/><path class="cls-46" d="M127.15,65.07c.52-.53,1.77.22,2,1,0,.34-.06.72,0,1l-2,1c-1.23.69-1.67.21-1-1-.7.47-1.36-.2-2-2-.92-.24-.9-.57,0-1l2.5,2,.5-1Z"/><path class="cls-182" d="M137.15,84.06c-1.62-.09-.92-2.45-1-4l1,.5v3.5Z"/><path class="cls-182" d="M135.15,89.05c.07-.98,0-2.01,0-3h1c-.17.72.11,1.69,0,2.5l-1,.5Z"/><path class="cls-46" d="M131.15,69.06c.11.27-.08.68,0,1,.59.3.58.63,0,1-.79.03-1.75-2.12-2-3,.44-.54,1.11-.2,2,1Z"/><path class="cls-85" d="M134.15,77.06h-1c0-.33.02-.67,0-1s.04-.67,0-1l1,.5c.05.5-.04,1.01,0,1.5Z"/><path class="cls-85" d="M129.15,65.07v1l-2-1v-1c.4.3,1.44.87,2,1Z"/><path class="cls-85" d="M131.15,69.06l-2-1c-.08-.3.07-.67,0-1,1.03,0,1.65,1.1,2,2Z"/><path class="cls-85" d="M132.15,71.06h-1v-1c.92-.11.88.28,1,1Z"/><path class="cls-85" d="M133.15,74.06l-1-1c.02.07.74-.37,1,1Z"/><path class="cls-53" d="M133.15,89.05c.06-.79.18-2.62,0-3h1c-.03.82.02,1.66,0,2.5l-1,.5Z"/><path class="cls-53" d="M132.15,92.05c.42-2.42.96-1.87,1-2v1.5l-1,.5Z"/><path class="cls-235" d="M121.15,62.07c.29-.03.73-.06,1,0l1,1h1c-.09.25.04.65,0,1-.03.29-.05.72,0,1,.67,1.68,1.34,2.34,2,2,1.15-.17.86.77,1,1,1.14,1.8,1.37,3.46,2,5-1.93,2.88-5.46-.21-6-3-2.2,1.56-3.54-.1-4-5-1.46-.53-1.43-1.36,0-2-2.19-1.21.29-2,2-1Z"/><path class="cls-64" d="M114.15,62.07c.87.28.86.62,0,1l-1.41,2.01c-.98-.87-1.84-1.2-2.59-1.01,1.41,1.63.83,2.23-1,1-.25,3.16-.83,2.81-3,1-.18-.76.48-1.76,2-3,.57-.41,1.57-1.4,2.5-2,1.68.58,2.44-.84,3.5-1-.29,1.25-1.88,1.79,0,2Z"/><path class="cls-100" d="M121.15,62.07c-2.54.23-1.87.97-2,1-.3,1.47-1.67,1.46-2,0-.18.9-.52.86-1,0-.95.86-1.4,1.25-2,0v-1c2.01-1.45,4.05-.98,6.5-1l.5,1Z"/><path class="cls-177" d="M115.15,59.07c1.33.02,2.67-.01,4,0v1c-1.61.16-3.47-.24-5,0v-1c.33,0,.67,0,1,0Z"/><path class="cls-141" d="M123.15,63.07l-1-1c.66.15,1.12.04,1,1Z"/><path class="cls-229" d="M114.15,63.07c.66-.03,1.34.04,2,0,.3,2.58.63,4.92,1,7-.28.87-.62.86-1,0-.43,2.39-.43,4.73,0,7,1.62-2.32,2.29-1.77,2,1-.13.74-.65,1.29-1,2l-1.9,1.87c-.52,4.08-1.55,5.79-3.1,5.12l-1-5c-.86-.29-.85-.62,0-1-1.02-2.27-2.77-3.62-5-5-.38-.34-.38-1.01,0-2-1.94.08-2.17-1.12-.87-2.48l-1.13-.52-1,1c1.83.66,1.49,1.66-1,3-.45,1.78-.77,2.72-2,1,.34-1.13.61-2.94,1-4l1-1c.11-.27-.09-.67,0-1l1-1c.08-.33-.09-.71,0-1l1-1c.63-.87,1.29-1.2,2-1,.72-.3,1.69-.17,3-1,.58-.05,1.06-.05,1.16.15,1.29,2.44-1,2.71-.16-1.15.11-.25-.18-.84.5-1,1.16-.04,2.34.06,3.5,0Z"/><path class="cls-63" d="M106.15,66.07c-.59.24-1.56.68-2,1,1.24-1.85,2.21-2.71,4-4l-2,3Z"/><path class="cls-204" d="M103.15,68.06c.4-1.33.75-.82,1-1-.13.2.15,1.17-1,1Z"/><path class="cls-63" d="M102.15,70.06c.17-.61,0-1.12,1-1-.15.66-.04,1.12-1,1Z"/><path class="cls-63" d="M101.15,72.06c.12-.16-.15-1.17,1-1-.53,1.37-.98.93-1,1Z"/><path class="cls-131" d="M102.15,77.06c.55.28.53.62,0,1l-1,2c2.15.51,2.22,3.56,0,4v1c-.84,4.67-3.56,2.03-2-1-.89-.57-.81-3.05,0-4,.39-.96.67-2.92,1-4,.72-.15,1.36-.65,2-1,1.46.53,1.43,1.35,0,2Z"/><path class="cls-36" d="M99.15,84.06v2c.89.1,1.02-1,2-1l1.34,1.62c-.8,1.72-1.45,3.85-.34,5.37.87.28.86.62,0,1-.31.43-.64.41-1,0-2.98-2.38-1.32-1.84-2-4.5-.1-.39-.78-.58-1-2.5-.07-.64-.02-1.35,0-2,.28-.87.62-.86,1,0Z"/><path class="cls-113" d="M99.15,84.06h-1c.03-1.1-.22-2.61,0-3.5.17-.68.98-.45,1-.5v4Z"/><path class="cls-196" d="M105.15,98.05c.94.59.69.62,1,1,1.13,1.4,1.78,1.85,3,3-.33-.04-.68.05-1,0-1.54-.26-1.75-.53-3-1-.31-.12-.75.13-1,0-.95-1.44-2.22-2.48-3-4,1.64-.27,2.67.16,4,1Z"/><path class="cls-4" d="M108.15,93.05c2.92.26,2.67,2.15,0,3-.98-.05-2.15.18-3,0-.78-.16-2.11-1.36-3-2v-1c1.5-.49,2.83-1.16,4-2,.28-.87.62-.86,1,0,1.93.37,2.66.9,1,2Z"/><path class="cls-125" d="M102.15,94.05c-.89-.64-.94-.96-1-1h1v1Z"/><path class="cls-172" d="M117.15,80.06c-.38.78-.89,1.29-1,2-.2,1.24.13,2.71,0,4h-2v1h2l1,8c-1.01.16-1.22.93-1.5,1-.54.12-1.13-.12-1.5,0-2.04-1.41-2.71-3.74-2-7-1.72.3-1.55-1.38,0-2l1-.5c-.36-3.09.01-4.64,2.5-6.5h1.5Z"/><path class="cls-217" d="M123.15,70.06l2-1v2l4,2c.08.19,1.84,1.26,1,3.5l1,.5c-.03,1.32.04,2.67,0,4-2.08-.63-4.34-.83-6.77-.59l-4.23-1.41c-.57-.36-1.35-.73-2-1-.9-.37-1.31-1-2-1-1.18-1.86-1.85-4.92,0-7h1c.42-.23.75.1,1,1,1.41-3.68,4.73.5,3.62.65-2.33.31-1.46-2.44,1.37-1.65Z"/><path class="cls-78" d="M120.15,79.06l2-3c-.17,3.24,2.42,3.23,5,3-.03-2.16-.75-3.51,2-3l2,5c-.1,3.47.48,6.57-1,9.5l-1,.5c-.07-.1-1.77-.67-2-1.5l2-4.5h-2l-1-4-2.5,1c-1.06-1.23-2.13-2.12-3.5-3Z"/><path class="cls-78" d="M126.65,86.06c.65,0,.65,1,0,1s-.65-1,0-1Z"/><path class="cls-38" d="M133.15,77.06c-.03,1.66.02,3.34,0,5h-1v-4.5l1-.5Z"/><path class="cls-38" d="M133.15,86.06c-.08-.16-1.77-.76-1-3h1v3Z"/><path class="cls-24" d="M115.15,102.05c.02-1.22-3.18-2.3-1-3.5,1.37-.76,2.58-.11,3.5-1.5,1.67,1.91,2.2,2.68,4.5,1,.45.5-.86,2.93-1,3-.33.15-.98-.2-1.5,0-.42.16-.64.92-1,1-.96.2-2.38-.04-3.5,0Z"/><path class="cls-86" d="M114.15,96.05c-1.65.54-2.35.64-4,2v-2c-.66-.02-1.34.03-2,0-.16-.89.26-2.45,0-3-.5-1.4,2.73-3.73,4-4,.06.17,1.84,1.77,2,2.5.28,1.27-.19,3.09,0,4.5Z"/><path class="cls-239" d="M126.15,67.06l-.5,1c-1.53-.99-1.26-1.67-1.5-3l2,2Z"/><path class="cls-76" d="M119.15,63.07c-.08.64.15,1.5,0,2,.65.08,1.34-.04,2,0-.21,1.86.49,4.23,2,5l-1.5,3c-1.14-1.83-2.12-1.57-3.5-2-3.05-3.77-2.72-5.77,1-6-2.38,3.77-4.8.62-2-2,.66-.03,1.43.12,2,0Z"/><path class="cls-226" d="M110.15,64.07l1,.5,1,2-3,1.5v-3c.44-.28.49.18,1-1Z"/><path class="cls-203" d="M117.15,63.07v2c.66.04,1.35-.08,2,0-.29.96-.98,1.36-1,1.5-.23,1.36.16,3.06,0,4.5-1.08-.33-.71-.34-1-1-.11-.24.18-.83-.5-1h-2.5c-.53-2.91.46-3.87,2-6,.33-.02.67.02,1,0Z"/><path class="cls-129" d="M106.15,76.06c3.12,1.19,4.79,2.86,5,5-.15.24.14.74,0,1,1.36,3.32-.13,11.71-4,9h-1c-.89-.26-.87-.6,0-1-1.18-.75-1.51-1.42-1-2q.78-.52,0,0c-.19.87-.53.83-1,0l-1.33-.39c1.58-2.14,2.36-5.01,2.33-8.61-.79-1.38-.89-5.63,1-5v2Z"/><path class="cls-230" d="M106.15,76.06l3-2v3l4-1c-1.62,1.84.02,2.21,0,2.5-.03.44-1.91,2.35-2,2.5h-2c.29-1.9-1.09-3.29-3-3-.09-.09,0-1.36,0-2Z"/><path class="cls-21" d="M104.15,71.06c1.1-1.43,1.86-3.44,4-3,.79.79-1.6,3.58-2,4.5-.21.48.15,1.14,0,1.5-.83,2.04-.92,2.08-1,5-.28.87-.62.86-1,0-.4-3.2-1.07-4.54-2-4,.2-.71.84-2.67,1-3l1-1Z"/><path class="cls-230" d="M112.15,87.06c.02.65-.15,1.6,0,2-.31,1.18-1.42,1.49-1,3h-2.5l-.5,1c-.02-.05-.83.16-1-.5v-1.5c3.22.32,2.47-1.83,3-3.5.13-.41.91-.62,1-1,.32-1.36.19-3.23-1-4-.05-.63.97-.45,1-.5l1,.5c.03,1.5-.05,3.01,0,4.5Z"/><path class="cls-203" d="M116.15,70.06v2h2l-2,3.5v1.5c-.98,0-1.11,1.1-2,1l1-2.5-2-3,3-2.5Z"/><path class="cls-131" d="M103.15,72.06c.62-1.31.96-.94,1-1l-1,1Z"/><path class="cls-118" d="M104.15,80.06c.93,1.15.91,3.61,0,5-.8,1.12-2.49.18-3-1,.03-1.31-.12-2.7,0-4l1-2c.06-.31-.03-.66,0-1,.85-1.43,1.51-.43,2,3Z"/><path class="cls-104" d="M104.15,79.06c.68.21.64.55,0,1l-1-.5v-2l-1-.5c.06-.65-.14-1.49,0-2,.42-.23,1.85-1.18,2-1,.01,1.66-.02,3.34,0,5Z"/><path class="cls-104" d="M101.15,80.06c.23-2.54.98-1.87,1-2v1.5l-1,.5Z"/><path class="cls-23" d="M104.15,85.06c-.21,2.82-2.29,3.99-3,0,0-.33,0-.67,0-1l1.5,1h1.5Z"/><path class="cls-183" d="M106.15,90.05c.07.32-.08.7,0,1l1,4c-2.55.63-3.09-1.01-5-2v-1c-.77-.87-.83-2.17,0-3,1.42-1.18,2.98-.44,4,1Z"/><path class="cls-136" d="M104.15,88.06l-2,1c-.14.89,0,2.02,0,3l-1-.5c-.02-2.17.03-4.34,0-6.5.8,0,.99.5,1.5,1h1c.61-.15.43-.58.5-1,.23-1.45-.02-3.41,0-5,0-.33,0-.67,0-1h1c-.07,2.55.71,5.86-1,7.5v1.5Z"/><rect class="cls-188" x="127.15" y="81.06" width="2" height="1"/><path class="cls-23" d="M104.15,88.06c.33,0,.67,0,1,0-.02.84.77,1,1,2-1.38-.79-2.29-1.31-4-1l.5-1c.5,0,1,0,1.5,0Z"/><rect class="cls-136" x="106.15" y="84.06" width="1" height="2"/><path class="cls-136" d="M106.65,82.06c.65,0,.65,1,0,1s-.65-1,0-1Z"/><path class="cls-136" d="M105.15,88.06l.5-1c.84.52.54,1.07-.5,1Z"/></g></svg>