<?xml version="1.0" encoding="UTF-8"?><svg id="_圖層_2" xmlns="http://www.w3.org/2000/svg" viewBox="0 0 171.15 133.39"><defs><style>.cls-1{fill:#eeb77c;}.cls-2{fill:#c68e5f;}.cls-3{fill:#dda46f;}.cls-4{fill:#c68951;}.cls-5{fill:#cd9568;}.cls-6{fill:#e2bda2;}.cls-7{fill:#8f9259;}.cls-8{fill:#d1946b;}.cls-9{fill:#deb089;}.cls-10{fill:#ebb47b;}.cls-11{fill:#b4be90;}.cls-12{fill:#eeb474;}.cls-13{fill:#cc854b;}.cls-14{fill:#c8c29d;}.cls-15{fill:#d69352;}.cls-16{fill:#edc393;}.cls-17{fill:#dab192;}.cls-18{fill:#d18f51;}.cls-19{fill:#e5a364;}.cls-20{fill:#db9a5e;}.cls-21{fill:#e4b382;}.cls-22{fill:#e6aa71;}.cls-23{fill:#8d6446;}.cls-24{fill:#d89c5d;}.cls-25{fill:#db9d62;}.cls-26{fill:#dca578;}.cls-27{fill:#eebb82;}.cls-28{fill:#ecb478;}.cls-29{fill:#90986b;}.cls-30{fill:#db955f;}.cls-31{fill:#d5a379;}.cls-32{fill:#eaac6d;}.cls-33{fill:#ba7f4a;}.cls-34{fill:#daa87e;}.cls-35{fill:#eaad71;}.cls-36{fill:#d5a37b;}.cls-37{fill:#c57d3e;}.cls-38{fill:#f3ca9a;}.cls-39{fill:#dbb396;}.cls-40{fill:#eab072;}.cls-41{fill:#e2bb9d;}.cls-42{fill:#d0986c;}.cls-43{fill:#eeb579;}.cls-44{fill:#e2bc9d;}.cls-45{fill:#dc9f6b;}.cls-46{fill:#e3b482;}.cls-47{fill:#ebaf6a;}.cls-48{fill:#ecb276;}.cls-49{fill:#e3ad77;}.cls-50{fill:#e6c1a5;}.cls-51{fill:#deaf7f;}.cls-52{fill:#c9854f;}.cls-53{fill:#d38f57;}.cls-54{fill:#db9b61;}.cls-55{fill:#936844;}.cls-56{fill:#c5864a;}.cls-57{fill:#8f9a68;}.cls-58{fill:#edb477;}.cls-59{fill:#b2bd7e;}.cls-60{fill:#f0af6c;}.cls-61{fill:#ba7c40;}.cls-62{fill:#d09269;}.cls-63{fill:#ecb073;}.cls-64{fill:#d9b698;}.cls-65{fill:#da9355;}.cls-66{fill:#da9457;}.cls-67{fill:#8e6646;}.cls-68{fill:#e0a876;}.cls-69{fill:#f2c99e;}.cls-70{fill:#dbad88;}.cls-71{fill:#d0874c;}.cls-72{fill:#eeb377;}.cls-73{fill:#d7a172;}.cls-74{fill:#d9a77f;}.cls-75{fill:#966947;}.cls-76{fill:#b16a38;}.cls-77{fill:#7d4d2f;}.cls-78{fill:#d89b60;}.cls-79{fill:#e6ad71;}.cls-80{fill:#bdbf8f;}.cls-81{fill:#6e783c;}.cls-82{fill:#a2743e;}.cls-83{fill:#b79981;}.cls-84{fill:#e9b985;}.cls-85{fill:#d89251;}.cls-86{fill:#8e8c4f;}.cls-87{fill:#c9c099;}.cls-88{fill:#d19a70;}.cls-89{fill:#85623f;}.cls-90{fill:#b2ad72;}.cls-91{fill:#cd9560;}.cls-92{fill:#d49257;}.cls-93{fill:#f0ba81;}.cls-94{fill:#edc08a;}.cls-95{fill:#ecb06f;}.cls-96{fill:#edb478;}.cls-97{fill:#94663b;}.cls-98{fill:#939f62;}.cls-99{fill:#da995c;}.cls-100{fill:#d4a781;}.cls-101{fill:#df9a58;}.cls-102{fill:#969a71;}.cls-103{fill:#ddba9f;}.cls-104{fill:#c57b40;}.cls-105{fill:#e6af75;}.cls-106{fill:#d19b75;}.cls-107{fill:#d6a781;}.cls-108{fill:#d9ae8e;}.cls-109{fill:#d58d48;}.cls-110{fill:#a67a49;}.cls-111{fill:#d9985b;}.cls-112{fill:#ccc7a6;}.cls-113{fill:#edbb83;}.cls-114{fill:#adb68a;}.cls-115{fill:#94a06b;}.cls-116{fill:#d29c70;}.cls-117{fill:#df995a;}.cls-118{fill:#d29669;}.cls-119{fill:#eab27a;}.cls-120{fill:#eaae6f;}.cls-121{fill:#d89b6a;}.cls-122{fill:#868e5c;}.cls-123{fill:#e5bd9c;}.cls-124{fill:#e1a972;}.cls-125{fill:#979b68;}.cls-126{fill:#d3986b;}.cls-127{fill:#e5bd92;}.cls-128{fill:#eeb679;}.cls-129{fill:#e5b27a;}.cls-130{fill:#e1a96b;}.cls-131{fill:#d7b28f;}.cls-132{fill:#edb273;}.cls-133{fill:#d6ae8f;}.cls-134{fill:#f0c187;}.cls-135{fill:#ebb57b;}.cls-136{fill:#9f744c;}.cls-137{fill:#7c8a51;}.cls-138{fill:#889254;}.cls-139{fill:#d7ad8d;}.cls-140{fill:#989972;}.cls-141{fill:#d5a37e;}.cls-142{fill:#e3bd9e;}.cls-143{fill:#d1976f;}.cls-144{fill:#d8a170;}.cls-145{fill:#d8a67a;}.cls-146{fill:#eeb77b;}.cls-147{fill:#eeaf6e;}.cls-148{fill:#dbbda6;}.cls-149{fill:#ca864e;}.cls-150{fill:#cf9468;}.cls-151{fill:#d9a06b;}.cls-152{fill:#9fa472;}.cls-153{fill:#c58141;}.cls-154{fill:#d49f77;}.cls-155{fill:#a87c4a;}.cls-156{fill:#848852;}.cls-157{fill:#e1a76a;}.cls-158{fill:#c6a360;}.cls-159{fill:#d9b89f;}.cls-160{fill:#ca854c;}.cls-161{fill:#d8ad8a;}.cls-162{fill:#ecb476;}.cls-163{fill:#dfa770;}.cls-164{fill:#d09d76;}.cls-165{fill:#eaa868;}.cls-166{fill:#ebb57c;}.cls-167{fill:#d8ad8f;}.cls-168{fill:#e0bfa6;}.cls-169{fill:#db9353;}.cls-170{fill:#edb97d;}.cls-171{fill:#e1ab79;}.cls-172{fill:#d49454;}.cls-173{fill:#c08555;}.cls-174{fill:#cc976e;}.cls-175{fill:#adb379;}.cls-176{fill:#e4bea0;}.cls-177{fill:#c99254;}.cls-178{fill:#e9b87f;}.cls-179{fill:#a49c66;}.cls-180{fill:#d79558;}.cls-181{fill:#e0bda0;}.cls-182{fill:#cf9160;}.cls-183{fill:#c5bf9e;}.cls-184{fill:#d9a16e;}.cls-185{fill:#db9c5e;}.cls-186{fill:#cb8e57;}.cls-187{fill:#daa97a;}.cls-188{fill:#d78e52;}.cls-189{fill:#bc7340;}.cls-190{fill:#b8a577;}.cls-191{fill:#8f663f;}.cls-192{fill:#895c3a;}.cls-193{fill:#d29365;}.cls-194{fill:#d18b4d;}.cls-195{fill:#e19f5e;}.cls-196{fill:#c9874e;}.cls-197{fill:#d59e72;}.cls-198{fill:#98915c;}.cls-199{fill:#e9b47a;}.cls-200{fill:#f0ba7f;}.cls-201{fill:#ce946c;}.cls-202{fill:#c88444;}.cls-203{fill:#988e60;}.cls-204{fill:#ddbaa0;}.cls-205{fill:#c9c49d;}.cls-206{fill:#e0a063;}.cls-207{fill:#ce894c;}.cls-208{fill:#d7ae8d;}.cls-209{fill:#eeb87d;}.cls-210{fill:#dd9857;}.cls-211{fill:#ecac6a;}.cls-212{fill:#edc292;}.cls-213{fill:#a97d56;}.cls-214{fill:#e0b38c;}.cls-215{fill:#ebad6e;}.cls-216{fill:#dda970;}.cls-217{fill:#aeba80;}.cls-218{fill:#f0ca9f;}.cls-219{fill:#a0a46d;}.cls-220{fill:#cd8958;}.cls-221{fill:#dab596;}.cls-222{fill:#da995e;}.cls-223{fill:#daad89;}.cls-224{fill:#edb57c;}.cls-225{fill:#efcca2;}.cls-226{fill:#c88a54;}.cls-227{fill:#ccbe9b;}.cls-228{fill:#e3a361;}.cls-229{fill:#db9d5e;}.cls-230{fill:#ca8b54;}.cls-231{fill:#dd9956;}.cls-232{fill:#d8a67f;}.cls-233{fill:#d7975b;}.cls-234{fill:#d7b195;}.cls-235{fill:#eeb06d;}.cls-236{fill:#e1bfa5;}.cls-237{fill:#eeba80;}.cls-238{fill:#e6b782;}.cls-239{fill:#e7ab6f;}.cls-240{fill:#d1c1a3;}.cls-241{fill:#c58a62;}.cls-242{fill:#efb981;}.cls-243{fill:#d39f75;}.cls-244{fill:#cd8a4d;}.cls-245{fill:#dcb193;}.cls-246{fill:#d19e75;}.cls-247{fill:#f1cfa5;}.cls-248{fill:#da9757;}.cls-249{fill:#ebaa69;}.cls-250{fill:#ebb074;}.cls-251{fill:#edaf76;}.cls-252{fill:#ddb698;}.cls-253{fill:#da9451;}.cls-254{fill:#ce9667;}.cls-255{fill:#d9b092;}.cls-256{fill:#d3c2a5;}.cls-257{fill:#d7a579;}.cls-258{fill:#be7943;}.cls-259{fill:#9ca060;}.cls-260{fill:#ebb171;}.cls-261{fill:#d3976a;}.cls-262{fill:#c5b99b;}.cls-263{fill:#de9f68;}.cls-264{fill:#e9bb88;}.cls-265{fill:#d09c71;}.cls-266{fill:#d8ae8e;}.cls-267{fill:#f0c89a;}.cls-268{fill:#a27f51;}.cls-269{fill:#e1a66f;}.cls-270{fill:#e3ad78;}.cls-271{fill:#c4c59d;}.cls-272{fill:#edae6b;}.cls-273{fill:#e2bc9c;}.cls-274{fill:#a6b07a;}.cls-275{fill:#dfa16a;}.cls-276{fill:#cb8646;}.cls-277{fill:#ecb176;}.cls-278{fill:#d29d6c;}.cls-279{fill:#dc9553;}.cls-280{fill:#ca8b55;}.cls-281{fill:#dcab80;}.cls-282{fill:#b8b880;}.cls-283{fill:#cf8f5d;}.cls-284{fill:#daa468;}.cls-285{fill:#ecb67b;}.cls-286{fill:#d8af8e;}.cls-287{fill:#ecb070;}.cls-288{fill:#c78851;}.cls-289{fill:#d38c52;}.cls-290{fill:#c58040;}.cls-291{fill:#c68543;}.cls-292{fill:#e6b881;}.cls-293{fill:#cd8f5b;}.cls-294{fill:#efc899;}.cls-295{fill:#d4a27e;}.cls-296{fill:#edb67a;}.cls-297{fill:#d89d6d;}.cls-298{fill:#c0bb93;}.cls-299{fill:#d39d76;}.cls-300{fill:#e2b080;}.cls-301{fill:#ddb08d;}.cls-302{fill:#c2bb99;}.cls-303{fill:#d1a180;}.cls-304{fill:#825737;}.cls-305{fill:#c7b796;}.cls-306{fill:#978e61;}.cls-307{fill:#e3c0a7;}.cls-308{fill:#d2976a;}.cls-309{fill:#e3b17d;}.cls-310{fill:#dfbca5;}.cls-311{fill:#deb491;}.cls-312{fill:#e4be9f;}.cls-313{fill:#dd9b60;}.cls-314{fill:#747a43;}.cls-315{fill:#be7839;}.cls-316{fill:#e9b883;}.cls-317{fill:#e0ad7e;}.cls-318{fill:#f0be88;}.cls-319{fill:#dda56a;}.cls-320{fill:#cd8f5f;}.cls-321{fill:#e0a469;}.cls-322{fill:#e5a766;}.cls-323{fill:#979a69;}.cls-324{fill:#878756;}.cls-325{fill:#9f8a5c;}.cls-326{fill:#edc392;}.cls-327{fill:#eebe88;}.cls-328{fill:#c68241;}.cls-329{fill:#dbbda4;}.cls-330{fill:#e6bfa3;}.cls-331{fill:#ebbd8d;}.cls-332{fill:#e8ab6c;}.cls-333{fill:#ecb177;}.cls-334{fill:#e3a462;}.cls-335{fill:#bb7642;}.cls-336{fill:#db9b64;}.cls-337{fill:#edb880;}.cls-338{fill:#c7c29b;}.cls-339{fill:#d19e77;}.cls-340{fill:#ecb379;}.cls-341{fill:#d09b77;}.cls-342{fill:#cf8f5f;}.cls-343{fill:#ebb679;}.cls-344{fill:#e1b89a;}.cls-345{fill:#d5a47c;}.cls-346{fill:#d3a584;}.cls-347{fill:#cd936f;}.cls-348{fill:#a4b178;}.cls-349{fill:#d3986f;}.cls-350{fill:#be9061;}.cls-351{fill:#987751;}.cls-352{fill:#d88a46;}.cls-353{fill:#c8874a;}.cls-354{fill:#7f8654;}.cls-355{fill:#d38d4e;}.cls-356{fill:#dfb38b;}.cls-357{fill:#dfa161;}.cls-358{fill:#d49f6d;}.cls-359{fill:#d6a17d;}.cls-360{fill:#e5be8e;}.cls-361{fill:#bcba94;}.cls-362{fill:#eabb87;}.cls-363{fill:#d99151;}.cls-364{fill:#c98c54;}.cls-365{fill:#ecb77e;}.cls-366{fill:#d09467;}.cls-367{fill:#cdc09f;}.cls-368{fill:#c88147;}.cls-369{fill:#888f60;}.cls-370{fill:#d58741;}.cls-371{fill:#e9aa66;}.cls-372{fill:#cbc5a4;}.cls-373{fill:#cd8e54;}.cls-374{fill:#d99b5e;}.cls-375{fill:#d29a75;}.cls-376{fill:#e0b381;}.cls-377{fill:#c0b990;}.cls-378{fill:#d19660;}.cls-379{fill:#d59d6b;}.cls-380{fill:#d69054;}.cls-381{fill:#ebbc89;}.cls-382{fill:#c4814b;}.cls-383{fill:#da9858;}.cls-384{fill:#cec7a7;}.cls-385{fill:#bcc291;}.cls-386{fill:#dbb69a;}.cls-387{fill:#e2bb99;}.cls-388{fill:#e1a369;}.cls-389{fill:#e8af79;}.cls-390{fill:#e09f61;}.cls-391{fill:#e5a86d;}.cls-392{fill:#da965e;}.cls-393{fill:#e2a163;}.cls-394{fill:#d7ae92;}.cls-395{fill:#dbab86;}.cls-396{fill:#b7743d;}.cls-397{fill:#e1c0a5;}.cls-398{fill:#bd7d49;}.cls-399{fill:#cd925f;}.cls-400{fill:#d1c5a6;}.cls-401{fill:#d8b59c;}.cls-402{fill:#e5a86f;}.cls-403{fill:#ecb075;}</style></defs><g id="_圖層_1-2"><path class="cls-73" d="M124.16,128.4c-.34.85-.67.85-1,0-.79,1.09-1.78,1.55-3,2,.64.3.63.63,0,1-.28.12-.7-.11-1,0l-2,1c-1.3.12-2.68-.04-4,0-3.08.86-6.93.9-10,0-.66-.04-1.44.12-2,0l-1-1c-.32-.1-.73.11-1,0-.87-.28-.86-.62,0-1-.87-.28-.86-.62,0-1,.3-.86.64-.85,1,0l1,1c.55-1.51,1.35-1.46,2,0,2.19.85,5.82.83,8,0,.44-.87,1.23-.66,2,0,.68-.51,1.68-.84,3-1,.05-.61.72-.94,2-1,.74-1.01,2.91-1.69,4-1l1-1c.28-.87.62-.86,1,0,2.14-.74,1.53.89,0,2Z"/><path class="cls-136" d="M63.18,100.41l4,2c2.17.57-1.92,3.28-2,1l-1,1c1.41,1.65.41,2.65-3,3-.07.28.03.65,0,1-.3.64-.63.63-1,0h-1c-.22.73-.55,1.07-1,1-.6,1.48-1.6.82-3-2-.86-.33-.86-.66,0-1,.76-1.1,1.43-1.43,2-1l1-1c-1.37-2.47,1.53-4.39,4-4,.18-.9.52-.87,1,0Z"/><path class="cls-335" d="M113.16,88.42c.97-.59,2-.58,3,0,.87.59,1.12.65,2,0,.21-.69.55-.65,1,0,.87.59,1.13.62,2,0,1.85-1.37,2.39-.84,1,1,2.24,1.6-2.76,1.79-4.86,1.48-.55,1.99-1.6,3.49-3.14,4.51-2.43-.17-1.87-.93-2-1-1.91-.29-1.91-1.29,0-3-1.12-.26-1.16-1.26-1-2l-1.72,2.69c0-2.04-.87-2.79-2.28-1.69-.22.92-.55.9-1,0-2.2-.5-2.53-1.16-1-2,2.23-.89,5.79-.95,8,0Z"/><path class="cls-116" d="M130.16,111.4c1.55.19,1.03.88,0,2,.36.49.7,1.15,1,2,2.63.13,2.63,1.8,0,5-1.72.76-1.45,2.83-2,4-.63.85-1.29,1.19-2,1l-1-1c-.85-.55-.51-1.55,1-3-.4-.8.09-1.1,1-1-.2-3.03-.2-6.03,0-9,.29-.66.63-.64,1,0,.29-.66.63-.64,1,0Z"/><path class="cls-75" d="M105.17,88.42c.2,1.01,1.03,1.15,1,2-.78.58-1.78.91-3,1,2.05,0,4.05,0,6,0l-2-1c.16-.07.51-2.41,2.5,0l1.5-1,1,2c.02.05,1.05-.13,1,.5l-1,2.5c-.36-.21-1.21-.29-1.5-1l-2.5,1h-1c-.3.31-1.62-2.07-4,0-.66-.29-.64-.63,0-1-1.29-.73-1.67-1.85,0-2-.15,1.22-6.77,2-5,0,.17-.19-.17-.83,0-1-.55-1.59-.48-1.86,1-1-.58-1.49.74-1.67,2-1,1.18-.5,2.51-.5,4,0Z"/><path class="cls-213" d="M69.17,103.41l-1,1c-.45.16-1.36-.08-2,0l1,2-2,1.5-4-.5c.09-.37-.15-.8.5-1,2.3.34,1.14-.49,1.5-1.5.19-.68.73-.38,1-.5l1-1c.44-.11,1.04.18,1.5,0,.65-.19.41-.63.5-1-.86-.33-.86-.66,0-1,.21-.67.55-.63,1,0,.24,1.01.97,1.15,1,2Z"/><path class="cls-375" d="M93.17,115.4c1.71-.28,1.41,1.43,0,2v1c.9.26.88.59,0,1,1.18,1.97,2.95,5.22,0,3l-1,2c-.43.1-.89-.05-1-.5-.35-1.45-.19-6.72,0-8.5,1.19-3.88,4.61-4.75,2,0Z"/><path class="cls-349" d="M95.17,125.4c1.24.25,2.87,1.88,2,3,1.28,1.26.72,1.57-1,1-.89-.67-1.89-1.19-3-1l-1-4v-1.5c.19-.68.73-.38,1-.5,1.34.21,2.4,1.63,2,3Z"/><path class="cls-167" d="M97.17,109.41c.63,1.16-.62,3.18-2,3,.58.3.57.63,0,1,.91,1.14-.8,3.27-2,2v-2h-1v1.5l-1,.5c.05-.51-.16-1.1,0-1.5,1.93-2.23,2.52-3.57,5-5.5,1.5-.88,1.95-.57,1,1Z"/><path class="cls-351" d="M73.17,98.41v2c-1.88.33-2.82.9-5,1-.68-.3-.67-.63,0-1-1.04-.8-.13-1.53,1-2,1.3-.13,2.68.08,4,0Z"/><path class="cls-31" d="M113.16,132.4l-.5,1h-9l-.5-1c3.19.18,6.78.09,10,0Z"/><path class="cls-261" d="M107.17,103.41c.87.28.86.62,0,1,.24.36-.1.7-1,1-.95.31-1.95.65-3,1-.18.9-.52.87-1,0-1.42.36-1.68.38-1-1,.05-.02-.2-.74.5-1,1.19-.45,4.75-.65,5.5-1Z"/><path class="cls-107" d="M109.17,102.41c1.29-.12,2.69,0,4,0,.87.28.86.62,0,1-.53.36-1.2.69-2,1-.45.87-1.23.65-2,0l-2-1c.12-.06-.48-.77,2-1Z"/><path class="cls-143" d="M99.17,107.41c.85.33.85.66,0,1v1c-.63.96-1.87,1.54-2,0l-1-1c1.01-.79,1.72-1.23,3-2v1Z"/><path class="cls-213" d="M60.18,108.41l1,1c-.04.66.1,1.4,0,2h-2v-3c.05-.05-.14-1,.5-1,.68.19.38.72.5,1Z"/><path class="cls-83" d="M103.17,91.41v2c-.28.87-.62.86-1,0-1.11-2.59-3.79.7-6,0-.19-1.2,1.77-1.74,2-2l.5,1,4.5-1Z"/><path class="cls-220" d="M99.17,129.4v1c-.3.86-1.51.71-2,0-1-.67-.94-.96-1-1l1-1c.88-1.21,2.1-.52,2,1Z"/><path class="cls-2" d="M99.17,89.41c-.08.07-.73.72-1,1l-.5-1c-.53-.15-1.15.14-1.5,0-.15-.06-.31-1.68-2.5-1l-.5-1c1.2-1.4,7.34.31,6,2Z"/><path class="cls-308" d="M101.17,105.41l1,1c.68,1.48-.86,2.06-2,1-.59-.13-1-.33-1-1,.9-.54.94-.53,2-1Z"/><polygon class="cls-191" points="108.17 94.41 107.67 95.41 107.17 94.41 107.67 93.41 108.17 94.41"/><path class="cls-89" d="M103.17,94.41c-.05.05.14,1.18-1,1v-2h1v1Z"/><path class="cls-145" d="M122.16,130.4c-.29.1-.69-.08-1,0-.3.58-.63.57-1,0,.02-.93,1.94-1.52,3-2l-1,2Z"/><path class="cls-31" d="M99.17,130.4v1c-.34-.14-.98.18-1.5,0-.69-.24-.45-.97-.5-1h2Z"/><path class="cls-31" d="M101.17,132.4c-1.38-.3-.93-.98-1-1l1,1Z"/><path class="cls-136" d="M68.18,104.41c.07-.02-.16-1.18,1-1,.02.78-.2,1.1-1,1Z"/><path class="cls-23" d="M61.18,109.41c-1.09.15-.82-.57-1-1h1c-.02.33.02.67,0,1Z"/><path class="cls-4" d="M12.19,55.43c.33-2.39,2.46-.9,1,1,1.63,5.3,1.5,11.84-3,14.99,2.8,2.02-.01,8.95-3,9-.98,2.25-.79,5.82,0,8,1.65.23,1.43,1.13,0,2l1,3c.89.27.87.6,0,1l1,2c.9.23.87.57,0,1l1,2c1.61,2.65,3.65,4.98,6,7l1,1c.84-.41,1.46.21,2,1,.66.29.64.63,0,1,.87.28.86.62,0,1-.69.09-1.36-.24-2-1l-1-1c-2.42-.86-5.05-3.61-6-6-6.77-7.03-6.73-18.33-4-26.99.53-5,3.24-7.85,4-11.49.47-2.28.19-4.79,1-7-1.36-.69-.75-1.88-1-2.5.8-1.94,1.53-.78,2,1Z"/><path class="cls-56" d="M55.18,106.41c-.15.24.15.77,0,1,.02.69-.65,1.36-2,2-1.79.69-3.91,1.87-5.5,3-.83.05-1.69-.08-2.5,0-3.26.88-6.6,1.55-10,2-1.64.07-3.35.03-5,0l-4-1c-.33-.03-.67.02-1,0-.87-.28-.86-.62,0-1-.87-.28-.86-.62,0-1,.92-.88,2.48-.18,3,1,.26-.66.6-.64,1,0,2.26-.75,5.72-.69,8,0l2-1c3.21-.73,5.01-1.91,5.39-3.54l6.6-.46c.05-1.59,2.75-1.62,4-1Z"/><path class="cls-29" d="M3.19,33.44c.28.13.74-.13,1,0l1,1c.25.15.77-.15,1,0,1.11.73,2.42,1.68,3,3l2,1c2.31.05.91,3.25-1,2-.3.62-.63.6-1,0-1.2,1.18-3.11-1.55-4-3-.87.16-1.54-.5-2-2-2.75,3.92-4.05-3.98,0-2Z"/><path class="cls-102" d="M3.19,43.44c-.19,1.09.47,1.09,2,0,.3-.5.64-.48,1,0,.41.3.39.63,0,1,2-.55,2.74.67,1,2,1.77,1.33,1.79,2.28.1.98l-.1,1.02c.86.33.86.67,0,1L.19,44.93l1.5-2.5c1.63-.45,1.4.96,1.5,1Z"/><path class="cls-280" d="M10.19,102.41c-.31.48-.64.47-1,0-.45-.59-.78-2.07-2-2,.54-1.64-.83-1.96-1-2.5-.49-1.56-1.85-5.17-2-6-.65-3.62.47-8.67,0-12.49.24-.11.84.18,1-.5v-3l1-.5c-.5,4.74-1.89,11.49-1,16.49.07.37.9.6,1,1,1.02,4.13,1.39,5.95,4,9.5Z"/><path class="cls-57" d="M5.19,38.44c1.4.47,3.99,2.48,3,4-.29.66-.63.64-1,0-.27.87-.61.86-1,0-.34-1.04-3-3.85-4-5h1c.72-1.26,1.38-.14,2,1Z"/><path class="cls-268" d="M11.19,51.43l2.41.26c-.26,1.84-.73,3.09-1.41,3.74-.34-.27-1.47-.87-2-1-.29-.72-.66-1.31-1-2-1.38-1.84-.83-2.37,1-1,.25-.89.58-.86,1,0Z"/><path class="cls-61" d="M21.19,109.41l2,1,2,1v1c-.66.75-1.38.74-2,0-.36-.04-.78.1-1,0-1.21-.29-2.5-.83-3-2v-1c.29-.66.63-.65,1,0,.27-.58.61-.56,1,0Z"/><path class="cls-203" d="M9.19,49.43c2.59-.95,3.04.11,1,2-.75.1-1.1.11-1,1-.16-.32-1.43-1.77-2-3-.13-.27.13-.72,0-1,.28-.87.62-.86,1,0l1,1Z"/><path class="cls-354" d="M3.19,43.44c.43.16,1.37-.08,2,0-.34.42-.66,1.61-1.5,2l-2.5-1.5,2-.5Z"/><path class="cls-364" d="M30.18,114.4c-1.32-.03-2.67.02-4,0v-1c1.15.1,2.34-.06,3.5,0l.5,1Z"/><path class="cls-140" d="M3.19,33.44h-2v3c.89.1,1.03-1.01,2-1,.67.29.66.63,0,1-.13.59-.33,1-1,1-1.53-1.75-3.79-2.12-.5-5h1c.68.17.45.98.5,1Z"/><path class="cls-378" d="M19.19,110.41c1.23.54,2.82,1.92,3,2h-1.5c-1.75-1.03-2.23-1.41-3.5-3,.68.34,1.3.69,2,1Z"/><path class="cls-364" d="M25.19,112.4v1c-.49-.03-1,.04-1.5,0l-.5-1c.65.07,1.34-.03,2,0Z"/><path class="cls-140" d="M5.19,34.44l-1-1c1.28.66.94.96,1,1Z"/><path class="cls-378" d="M16.19,108.41v1c-2.62-1.35-5.22-4.66-7-7h1c1.86,2.53,3.74,3.95,6,6Z"/><path class="cls-280" d="M17.19,109.41c-.27-.13-.74.14-1,0v-1c.39.35.5.38,1,1Z"/><path class="cls-62" d="M170.15,100.41c.09.63-.04,1.35,0,2,.86,1.69.85,4.3,0,6-.01.33.04.67,0,1l-1,2c-.13.3.14.77,0,1l-4,4c-.19.06-.8.06-1,0-1.81,1.38-2.35.86-1-1l4-4c-.86-.26-.84-.59,0-1-.08-1.2-.09-2.19,1-3l1-2c-.84-.33-.84-.66,0-1l-1-3c-.39.28-.72-.06-1-1-.9-.1-.84-.45,0-1-.61-.98-1.27-1.98-2-3-1.44.45-1.62-.75-1-2-.67-.89-.14-1.25,1-1,2.39,1.95,3.75,4.25,5,7Z"/><path class="cls-5" d="M160.15,117.4c3.22-1.74,2.26,1.6-1,2-.33.05-.67-.05-1,0-.94.33-1.94.66-3,1-2.59.07-8.45.5-10.5,0-.69-.17-.45-.99-.5-1,.81-.31,1.81-.64,3-1,.65-1.54,2.3-1.5,3,0,1.6-1.79,4.13-.93,6,0,.57-.29,1.24-.62,2-1,.23-1.63,1.86-1.91,2,0Z"/><path class="cls-295" d="M164.15,92.41c.68.89.13,1.25-1,1-1.59,2.03-2.25,1.69-2-1-1.28.78-2.61-.7-2-2-.11-.42.23-.75,1-1,.33-.88.66-.88,1,0l3,3Z"/><path class="cls-243" d="M164.15,116.4c-.63,2.04-3.19,2.73-5,3l2-1-1-1c-1.45-1.44.3-2.74,2-2,.29-.88.63-.87,1,0-.04,1.06.37.82,1,1Z"/><path class="cls-345" d="M170.15,108.41c.09-1.93.12-4.08,0-6l1,.5v5l-1,.5Z"/><path class="cls-201" d="M165.15,93.41l-1,1c-1.11.97-1.68.42-1-1l1-1c1.13-.18.95.95,1,1Z"/><path class="cls-243" d="M158.15,119.4c.11.91-.28.88-1,1-.6.1-1.34-.02-2,0l.5-1c.82-.08,1.71.12,2.5,0Z"/><path class="cls-17" d="M170.15,100.41l-1-.5c-.33-2.81-2.68-4.24-4-6.5,1.04,1.02,3.13,2.08,4,3.5.13.22-.15.71,0,1,.53,1.04.73.66,1,2.5Z"/><path class="cls-345" d="M169.15,111.4v-1.5l1-.5c-.3,2.47-.95,1.88-1,2Z"/><path class="cls-345" d="M165.15,116.4l4-4c-.87,1.43-2.38,3.46-4,4Z"/><path class="cls-382" d="M79.17,73.42l1,3c1.45-1.19,1.99-.61,1,1l2,2,1,1c.33-.81.66-.81,1,0,1.51-.11,1.84.22,1,1l1,1c.17-1.67,3.26-1.11,2,1,1.01.37,2.01.7,3,1,.31-.41.65-.4,1,0l1,1c.26-.85.6-.84,1,0l1,1c.33-.82.66-.82,1,0,3.44-.14,4.78.53,4,2-.38,0-1.73.78-2,1l-.5-1c-1.67-.38-3.95-.59-5.5-1-.31-.08-.7.09-1,0l-2-1c-2.91-1.36-5.57-3.03-8-5-1.61-.88-2.22-2.32-4-2v1.5c-.2.65-.63.41-1,.5-1-2.36.19-6.43,1-9,.28-.87.62-.86,1,0,.91.1.86.45,0,1Z"/><path class="cls-398" d="M77.17,81.42c-.04.33.02.67,0,1l-1,2c-.63,3.41-1.24,4.63-3,7.5-.49.81-1.45.89-1,2.5-.74.11-1.25.64-2,1-1.87,2.63-2.53,2.63-2,0-.87-.28-.86-.62,0-1l1-1c-.86-.27-.84-.6,0-1,.95-3.42,2.28-5.42,4-6-.49-1.2-.44-2.81,1-3-.61-1.18-.4-2.34,1-2,.31-.84.64-.83,1,0,.2-.87.54-.84,1,0Z"/><path class="cls-196" d="M90.17,86.42c-2.3-.78-4.48-1.61-6.5-3-.57-.39-1.49-1.25-1.5-2,1.47.81,7.47,3.8,8,5Z"/><path class="cls-2" d="M92.17,87.42h-1.5c-.68-.19-.38-.73-.5-1,1.62.55,1.87.96,2,1Z"/><path class="cls-382" d="M76.17,84.42c.08-.46-.09-1,0-1.5l1-.5c-.03.49.04,1,0,1.5l-1,.5Z"/><path class="cls-245" d="M123.16,104.41c-1.28.83-1.76.36-1-1h1v1Z"/><path class="cls-31" d="M107.17,130.4c1.21-.76,2.78-.74,4,0l-.5,1h-7l-.5-1c1.22-.75,2.79-.76,4,0Z"/><path class="cls-214" d="M122.16,123.4l1,1v1h-1.5c-.97.95-2.57,1.73-4,2l-.5,1h-4v1h3c-.76.34-.36.82-3,1l-.5-1c-1.83.02-3.68-.03-5.5,0-1,.75-2.04.74-3,0v-1c-.4-.47-.73-.47-1,0-.32-.07-.7.09-1,0-1.51-.98-1.94-1.72,0-2,.29-.66.62-.64,1,0,4.57-.31,9.23-.96,13.97-1.96,2.16-1.53,3.83-1.88,5.03-1.04Z"/><path class="cls-145" d="M126.16,126.4c-.35.29-.4,1.33-2,2l1-1.5-1-.5c-.19-1.13.95-.95,1-1,.89-.67,1.25-.14,1,1Z"/><path class="cls-145" d="M122.16,127.4l1-1c-.38,1.31-.67.79-1,1Z"/><path class="cls-31" d="M101.17,130.4c-.75-.09-1.1-.12-1-1,.67.15,1.12.04,1,1Z"/><path class="cls-251" d="M54.18,96.41c.33-.86.66-.86,1,0l2,2c.98-1.28,1.55-.38,2,1l1-1c.28-.87.62-.86,1,0,2.56-1.14,2.97.25,1,2-.71,1.89-2.52,2.86-4,4-.31.41-.65.39-1,0-.28.81-.61.8-1,0-1.5,1.4-1.88,1.13-2-1-.24.86-.58.84-1,0-.25.46-.59.43-1,0-1.1-1.95,1.12-3.14,2.68-2.01l.32-.99c-1.99-.95-3.33-1.95-4-3-3.54-2.32-.36-4.07,3-1Z"/><path class="cls-97" d="M65.18,100.41l2,1c-.06.32.08.69,0,1h-5l1-2c.32-.88.65-.88,1,0,.33-.75.66-.75,1,0Z"/><path class="cls-213" d="M58.18,109.41c-.15.48.08,1.36,0,2h-2v-3c-1.13.95-2.28.72-3,1-.22-1.17,1.92-1.88,2-2l3,2Z"/><path class="cls-67" d="M64.18,104.41c-.12-.98.37-.84,1-1,.15,1.09-.58.82-1,1Z"/><path class="cls-313" d="M57.18,105.41c-.62.36-1.33.7-2,1-.62-1.12-.38-2.29,1-2,.29.1.69-.07,1,0,.51.3.5.64,0,1Z"/><path class="cls-213" d="M57.18,105.41v-1h1c-.06.04.18.32-1,1Z"/><path class="cls-160" d="M131.16,85.42h1c-2.02,2.28-5.02,3.62-9,4-.33.02-.68-.05-1,0,.1-.89-.25-.9-1-1-.66.72-1.37.71-2,0-.33,0-.67-.03-1,0-.56.66-1.46.76-2,0-1,.18-1.36,1-1.5,1-.18,0-.5-.87-1.5-1-.87-.28-.86-.62,0-1,.18-.89.52-.86,1,0,.24-.56.58-.52,1,0,1.17-.83,2.6-1.62,3,0,.78-.87,1.52-1.21,2,0,1.14-.1,2.14-.44,3-1,1.68-1.32,2.68-1.32,3,0,1.81-.88,3.48-1.22,5-1Z"/><path class="cls-192" d="M106.17,90.41c.35-.03.79.09,1,0l2,1-.5,1c-2.33.55-3.56-.96-5.5-1v-1c.99-.04,2.01.07,3,0Z"/><path class="cls-304" d="M112.16,91.41h-2l1-2,1,.5c.19.52-.15,1.18,0,1.5Z"/><path class="cls-189" d="M121.16,88.42l-.5,1h-1l-.5-1c.66,0,1.36-.08,2,0Z"/><path class="cls-76" d="M118.16,88.42l-.5,1h-1l-.5-1c.6-.11,1.35.06,2,0Z"/><path class="cls-70" d="M128.16,110.41c.67.28.65.62,0,1,.34,1.21.97,2.36,1,2.5.31,1.78-.22,4.1,0,6-.15.67-.97.46-1,.5-1.04.56-1.49.08-1-1-1.05.62-1.42.09-1-1-2.18-.16-1.93-1.13,0-2,.28-.87.62-.86,1,0q.52.78,0,0c-.74-.66-.73-1.37,0-2-.75-1.54-1.38-3.76,0-5,1.02-.51,1.42-.08,1,1Z"/><path class="cls-70" d="M131.16,115.4l-1-.5c-.05-.5.05-1.01,0-1.5h1v2Z"/><path class="cls-293" d="M127.16,125.4c-.9.67-1.25.13-1-1l1,1Z"/><path class="cls-342" d="M129.16,111.4h-1c-.09-.31.08-.69,0-1,.29-.79.62-.78,1,0,.66.29.64.63,0,1Z"/><path class="cls-70" d="M130.16,111.4h-1v-1c.29-.68.63-.67,1,0v1Z"/><path class="cls-320" d="M135.16,112.4c1.37-.31,3.55,1.65,4,3,.28-.58.62-.56,1,0,1.24-.15,3.66.74,4,2l1,1c-.03-1.93,1.46-1.78,2,0l-.5,1h-2.5c-.32-.08-.71.09-1,0l-2-1c-3.63-1.55-3.84-1.35-7-4-.94-.75-2.03-1.86-1-3,.28-.87.62-.86,1,0l1,1Z"/><path class="cls-106" d="M133.16,111.4c.2,1.28.2,1.77,1,3-.51-.42-2.1-.78-2-2,.12-.23-.08-.66,0-1-.57-.3-.55-.63,0-1,.29-.84.62-.82,1,0,.74.26.72.59,0,1Z"/><path class="cls-77" d="M109.17,91.41c-1.1.1-2.08.21-2-1,1.1-.1,2.08-.21,2,1Z"/><path class="cls-136" d="M68.18,101.41c-.32.02-.68.03-1,0-.87-.28-.86-.62,0-1,.28-.87.62-.86,1,0-.07.16-.05.79,0,1Z"/><path class="cls-39" d="M96.17,123.4c1.32,1.4.77,1.92-1,1v1c-.1-.11-1.74-.73-2-1.5v-1.5c.27-.12.81.18,1-.5-1.34-.73-.77-1.7-1-2.5h1c1.69,1.63,2.35,2.96,2,4Z"/><path class="cls-167" d="M93.17,118.4c-.02-.05-1,.15-1-.5.17-.66.98-.45,1-.5.62.3.61.63,0,1Z"/><path class="cls-2" d="M102.17,86.42l1,1c.49-1.89,1.38-1.88,2,0,.04.34-.06.69,0,1-1.01.12-1.16.9-1.5,1-1.28.37-1.51-1-2.5-1l-.5-1h-3l-.5-1c-.23-2.55,1.45-3.08,3-1,1.07-1.99,2.71-1.12,2,1Z"/><path class="cls-255" d="M120.16,103.41c-.23.68-.57.64-1,0l-1,1c-.58.68-1.55.75-2,0-1.49.81-3.48.75-5,0l.5-1c.5-.04,1.01.03,1.5,0,1.14-.53,2.47-.86,4-1,.48-.23,1.75.16,2.5,0l.5,1Z"/><path class="cls-42" d="M117.16,102.41c-1.69.79-1.42.83-4,1v-1h4Z"/><path class="cls-55" d="M69.17,98.41c-.53,1.77-.94,1.87-1,2h-1c-.29.65-.63.64-1,0-1.61-1,.42-2.96,2-2,.31-.89.64-.89,1,0Z"/><path class="cls-307" d="M109.17,104.41c.74.25,1.07.59,1,1,.87.28.86.62,0,1,.61,1.08.15,1.49-1,1-.54,1.08-2.72,1.57-3,0-.65-.29-.63-.62,0-1,.54-.45.54-.79,0-1,.07-.03-.38-.69,1-1,.45-.8,1.48-.73,2,0Z"/><path class="cls-254" d="M109.17,104.41c-.66.05-1.44-.13-2,0v-1h1.5c.68.25.4.76.5,1Z"/><path class="cls-353" d="M45.18,112.4l-.5,1c-3.3.55-5.96.85-9.5,1l.5-1c3.49.18,6.16-.66,9.5-1Z"/><path class="cls-8" d="M100.17,107.41h-1c.04-.33-.03-.67,0-1l1,1Z"/><path class="cls-283" d="M127.16,125.4c-.15.14-.39.49-1,1l-1-1c.3-.3.96-.94,1-1l1,1Z"/><path class="cls-373" d="M48.18,43.44c3.69-1.2,8.51-.68,12,1,.32.07.68-.07,1,0l1,1c.28.12.72-.12,1,0l1,1c.66.31.65.64,0,1,.87.28.86.62,0,1-.6.12-1.26-.22-2-1-1.85-.43-3.52-1.1-5-2-.79,1.22-2.07,1.05-3,0-2.48-.74-6.63-1.13-9,0-2.37,1.07-4.93,1.84-7.68,2.31-2.89,2.93-8.55,3.22-11.32.69-1.6,1.45-2.15.87-1-1-2.03-.36-2.7-1.03-2-2,.21-.7.55-.66,1,0,4.99-.13,8.53-.54,13-1l4-1c.3-.06.66.02,1,0,1.74-.87,4.32-.79,6,0Z"/><path class="cls-52" d="M107.17,22.44c2.11,1.72,1.69,2.19-1,2l-1,1c-.88,1.58-1.88,2.24-3,2l-1,1-1,1c-.25.9-.59.88-1,0l-1,1c-.23.9-.57.87-1,0l-1,1c.14,1.43-1,1.91-3.43,1.44l-3.57,1.56c-.41,1.08-1.94,1.36-3,1-2.66,2.23-5.32,4.22-8,6-1.18.55-1.63.13-1-1,.14-.24-.12-.7,0-1l2-2c.22-.16.8.16,1,0l3-3c.21-.16.77.16,1,0l3-2c.49-.28,2.06-2.27,3.5-2l.5-1c.29.11,1.71.11,2,0l2-1c.33-.04.68.06,1,0,1.53-.95,3.14-1.9,5-2,1.48-2.02,3.15-3.35,5-4,.29-.65.63-.64,1,0Z"/><path class="cls-258" d="M78.17,41.44c.08,1.72-1.63,3.85-3,5,.64.29.63.62,0,1l-1,2-1,2c.68.83.66,2.08,0,3-.95,1.74-2.73-.49-2-2-1.21-.81-1.25-1.16.06-.99l.94-3.01c.29-1.33.35-1.67,1-3l1-1c.13-.31-.15-.81,0-1l3-3c.77-.03,1.1.2,1,1Z"/><path class="cls-306" d="M13.19,34.44l1,2c.03.29.06.73,0,1,1.43,1.66,1.42,3.02-1,3-.79,3.12-1.98,3.11-3,0l1-.5c.05-.5-.04-1.01,0-1.5-.86-.33-.86-.67,0-1,.06-1.66-.04-3.34,0-5,1.2-.04,1.53,1.32,2,2Z"/><path class="cls-190" d="M18.19,42.44c-.32.91-1.01,1.21-2,1-1.07,1.78-1.57.8-2-1-.27.85-.6.84-1,0-.85-.26-.65-1.35,0-2,.29-1.55.76-2,1-3,2.09.52,2.46,3.73,4,5Z"/><path class="cls-350" d="M18.19,42.44c.72.6,2.98,1.61,4,2,.87.28.86.62,0,1-.49.36-1.16.69-2,1-2.52,1.19-4.6-.53-4-3v-2l2,1Z"/><path class="cls-186" d="M60.18,44.43c-.74-.15-1.7.12-2.5,0-.38-.06-.63-.95-1-1-2.52-.32-5.83,0-8.5,0-.87-.28-.86-.62,0-1,4.21-.06,7.75-.12,11.5,1l.5,1Z"/><path class="cls-278" d="M48.18,42.44v1c-1.97,0-4.04-.13-6,0l.5-1c1.83-.02,3.68.03,5.5,0Z"/><path class="cls-278" d="M41.18,43.44c-.54.11-1.68.76-4,1l.5-1h3.5Z"/><path class="cls-186" d="M71.17,52.43c-1.25,1.41-3.6-1.5-3-3,.63.36,1.3.84,2,1,.4.47.73.47,1,0l1-2c-.3,1.36.28,2.49-1,4Z"/><path class="cls-190" d="M14.19,36.44l-1-.5v-1.5s.76-.19,1,.5c.05.5-.04,1.01,0,1.5Z"/><path class="cls-399" d="M87.17,32.44l-.5,1-2.5,1c1.21-.82,1.39-1.08,3-2Z"/><path class="cls-125" d="M11.19,37.44c-.01.33.03.67,0,1h-1.5c-.68-.19-.38-.73-.5-1h2Z"/><path class="cls-178" d="M24.19,45.43c-.33,0-.67-.02-1,0-.25.87-.58.85-1,0v-1c.36.14.97-.14,1.5,0l.5,1Z"/><path class="cls-399" d="M80.17,37.44c.73-.57,1.46-1.86,3-3l-3,3Z"/><path class="cls-399" d="M77.17,39.44c.61-1.46,1.04-1.32,2-2l-2,2Z"/><path class="cls-399" d="M74.17,43.44c.29-1.04,2.06-2.96,3-3-1.07,1.88-2.37,2.21-3,3Z"/><path class="cls-186" d="M62.18,45.43l-1-1c1.37.3.93.97,1,1Z"/><path class="cls-399" d="M73.17,45.43c.17-.35-.12-1.16,1-1-.18.43.09,1.15-1,1Z"/><path class="cls-91" d="M64.18,46.43c-.03-.06-1.18.15-1-1,1.34.6.94.96,1,1Z"/><path class="cls-186" d="M65.18,47.43c-.28.87-.62.86-1,0-.08-.33.12-.76,0-1,.25.15.77-.15,1,0,.42.31.41.64,0,1Z"/><path class="cls-91" d="M68.18,49.43c-1.35.61-2.77-.65-3-2v-1c1.68,1.09,1.85,1.6,3,3Z"/><polygon class="cls-91" points="70.17 50.43 71.17 50.43 70.67 51.43 70.17 50.43"/><path class="cls-331" d="M13.19,79.42c-2.98,2.07-3.2,6.21-1.74,9.58-.41,1.38-.83,2.51-1.25,3.41l.8.11c1.62,4.92,4.87,9.79,9.2,12.88,1.01-.62,1.38-.06,1,1,.87.28.86.62,0,1-.6.83-1.32.79-2,0-.8.49-1.72-.06-2-1-.29.48-.62.46-1,0-2.34-2.02-4.39-4.35-6-7l-1-2c-.11-.27.09-.68,0-1l-1-2c-.09-.31.08-.69,0-1l-1-3c-.04-.66.02-1.34,0-2-.73-2.44-.94-5.54,0-8,.78-1.08,2.38-6.98,3-9,3.2-9.11,4.96,5.05,3,8Z"/><path class="cls-105" d="M17.19,57.43l1,1c.89.31.89.65,0,1-.27,1.22-.61,2.22-1,3-1.44,4.77-2.11,9.77-2,14.99,1.35.55,1.42,2.51,0,3-.28.87-.62.86-1,0-.28.87-.62.86-1,0-.89-.18-.86-.52,0-1-.08-1.69.32-4.07,0-5.5-.14-.62-2.31-1.33,0-3l-2-1.5-1,2c.79-2.56,2.7-7.6,3-9.5.26-1.68-.18-3.74,0-5.5.28-.87.62-.86,1,0,1.01,1.42,1.34,1.42,1,0-.89-.28-.88-.61,0-1,.29-.65.63-.64,1,0,2.89-.81,2.96-.15,1,2Z"/><path class="cls-292" d="M16.19,43.44c1.03.66,2.45,2.3,4,3,.87.28.86.62,0,1-.21.88-.54.85-1,0l-2,1c2.27-.89,3.21.37,1.53,1.82,2.81,3.16-1.79,4.54-4.53,3.18.73.45,1.3,1.15,1,2,.15.25-.15.76,0,1-.28.87-.62.86-1,0h-1c.18-1.15-.87-.9-1-1,.31-1.71-.21-2.62-1-4,.22-2.14,1.69-5.05,4-4l-1-2c-1.26-.16-1.26-1.16,0-3,.67.21,1.43.64,2,1Z"/><path class="cls-280" d="M7.19,88.42l-1-.5c.31-2.11-.45-5.1,0-7,.16-.68.97-.45,1-.5.06,2.65-.09,5.34,0,8Z"/><path class="cls-280" d="M8.19,93.41c-.05-.17-.82-.3-1-3l1,.5v2.5Z"/><path class="cls-280" d="M9.19,96.41c-.04-.13-.44-.02-1-2l1,.5v1.5Z"/><path class="cls-378" d="M16.19,106.41c-3.24-2.55-4.08-3.38-6-7,.07.16,1.71,2.12,2,2.5.5.65,3.69,4.26,4,4.5Z"/><path class="cls-280" d="M10.19,99.41s-.74.2-1-.5c-.19-.51.14-1.15,0-1.5l1,.5c.15.54-.15,1.19,0,1.5Z"/><path class="cls-280" d="M17.19,107.41c-1.16-.68-.94-.96-1-1,.21.15.73-.15,1,0,.49.3.48.64,0,1Z"/><path class="cls-378" d="M19.19,107.41c.87.28.86.62,0,1-.69-.26-1.38-.64-2-1v-1c.71.39,1.34.9,2,1Z"/><path class="cls-280" d="M20.19,109.41h-1v-1c.32-.63.66-.62,1,0,.53.3.51.64,0,1Z"/><path class="cls-22" d="M42.18,108.41c-4.03-5.74,6.37-3.41,9-1-2.74,1.11-6.57,2.45-9.5,4-.83.06-1.69-.09-2.5,0-.33.65-.67.65-1,0-1.34-.87-.34-1.54,3-2,1.95-.6,2.28-.93,1-1Z"/><path class="cls-402" d="M56.18,104.41c-.16.69-.64,1.41-1,2-.85.37-3.1.64-4,1-2.66-.32-2.54-1.24,0-2,1.03-.45,2.03-1.12,3-2,2.45.39,1.88.96,2,1Z"/><path class="cls-364" d="M37.18,111.4c.87.28.86.62,0,1-2.41.15-5.62.21-8,0-.66-.29-.64-.63,0-1,2.21-1.22,4.88-1.22,8,0Z"/><path class="cls-364" d="M27.19,110.41c.83.04,1.23.08,1,1,.66.29.64.63,0,1-.58-.07-1.84-.7-3-1-.44-.11-1.03.18-1.5,0-.68-.19-.38-.73-.5-1,1.56-2.53,2.48-2.57,4,0Z"/><path class="cls-353" d="M39.18,111.4l-.5,1c-.5.04-1.01-.03-1.5,0v-1c.18-.89.52-.86,1,0,.33-.02.67.04,1,0Z"/><path class="cls-353" d="M29.18,112.4c-.33-.03-.67.04-1,0v-1c.29-.82.62-.81,1,0v1Z"/><path class="cls-11" d="M9.19,40.44c1.02.37,1.77,1.15,1,2,.63.86.31,1.5,0,2-.74,1.71-2.52.88-2-1-.66-.29-.64-.63,0-1l-3-4c-.68-.29-.67-.63,0-1,.98.89,3.16,2.12,4,3Z"/><path class="cls-114" d="M5.19,37.44v1c-.73-.08-1.19-.63-2-1v-2c1.35.01,1.68,1.71,2,2Z"/><path class="cls-125" d="M10.19,40.44l2,2v-1.5l1-.5c-.11.6.08,1.36,0,2-.14.64-.24,1.07-1,1-.52,1.91-1.82.54-2-1,.11-.11-.84-1.83-1-2h1Z"/><path class="cls-179" d="M14.19,45.43c.9.7,1.23,1.37,1,2-1.16.51-2.02,2.57-2,4-.65.04-1.36-.08-2,0-.33.04-.67-.04-1,0-.13-.56-.7-1.6-1-2l-1-1h-1c-.02-.05-.83.18-1-.5l1-1.5c.28-.87.62-.86,1,0l2,1c.19-.89.52-.85,1,0q.52.78,0,0c-.8-.29-.79-.62,0-1,.73-.64,1.06-1.3,1-2l1-2c.32.07.7-.09,1,0,.1.98-.17,2.1,0,3Z"/><path class="cls-122" d="M10.19,44.43c1.23-1.2,1.96.88,1,2v1c-.33,0-.67,0-1,0l-2-1h-1c.36-.36-.8-1.05-1-2,.14-.64.23-1.08,1-1,.29-.66.63-.64,1,0,.45.1,1.88.88,2,1Z"/><path class="cls-369" d="M3.19,37.44c-.24-.11-.67.08-1,0l1-1v1Z"/><rect class="cls-137" x="7.19" y="42.44" width="1" height="1"/><path class="cls-280" d="M23.19,110.41c-.49-.04-1,.05-1.5,0-.68-.25-.4-.76-.5-1,1.09-2.12,4.68-1.56,2,1Z"/><path class="cls-378" d="M21.19,109.41c-.32-.05-.67.04-1,0v-1c1.52-.81,2.02-.43,1,1Z"/><path class="cls-102" d="M9.19,49.43l-1-1c1.15-.17.89.85,1,1Z"/><path class="cls-368" d="M136.16,38.44c3.93,2.94,5.57,4.94,8,9l2,4c.05.33-.06.68,0,1,2.19,4.91,2.04,10.98,1,15.99-.32.66-.66.65-1,0-.19.9-.53.87-1,0-.92-.45-.71-1.24,0-2l1-2c-2.73-1.06-2.74-3.93,0-5l-1-3c-.88-.27-.87-.61,0-1l-1-2c-.86-.34-.86-.67,0-1l-1-1c-3.32-2.19-5.91-4.84-7-9-1.74.54-4.41-2.23-4-4l-3-3c-.24.83-.58.81-1,0-1.05-.22-1.38-.55-1-1-2.64-2.06-4.64-4.39-6-7v-1c4.92,3.87,9.92,7.86,15,11.99Z"/><path class="cls-104" d="M146.16,69.42c.82.52.59,1.25,0,2-.01.33.05.68,0,1l-2,4c-1.59,2.17-2,2.79-3,5-1.39,1.13-2.72,1.8-4,2-1.15,1.35-3.38,2.48-5,2h-1c.14-1.07,1.13-2.07,3-3,2.26-3.11,4.42-6.29,6.48-9.54l2.52-.46,1-1c-.88-.19-.85-.53,0-1l1-2c.3-.07.66.06,1,0,.66.29.65.63,0,1Z"/><path class="cls-266" d="M152.15,86.42l3,1c1.38.2,2.59-.52,3.5,1h1.5c-.05.34.07.7,0,1l-2,1c-.29.66-.63.64-1,0-1.2.71-1.89.43-2-1-1.32.29-1.99-.05-2-1-.66.73-1.37.72-2,0-1.19-.79-2.8-.78-4,0-.22.64-.56.6-1,0l-2-1c-.87-.28-.86-.62,0-1,2.59-.8,5.4-.8,8,0Z"/><path class="cls-230" d="M147.16,68.42c.09-3.72.44-8.99,0-12.49-.02-.19-.72-2.04-1-3.5l2,4.5v11c-.16.65-.64.41-1,.5Z"/><path class="cls-139" d="M141.16,87.42l1,1c.87.28.86.62,0,1-.47.95-1.68,1.19-2,0l-1,1c-.25.47-.59.44-1,0,.44.62.11.95-1,1-.28.87-.62.85-1,0l-1-1c-.58-.3-.56-.63,0-1,.22-.15.72.13,1,0l1-1c.27-.12.69.11,1,0l1-1c.31-.07.68.06,1,0,.27-.53.61-.5,1,0Z"/><path class="cls-197" d="M133.16,94.41c.92.34.92.67,0,1l-1,1c-1.4,1.32-1.92.77-1-1-.46-.31-.45-.64,0-1,.59-.79.93-.92,1-1,1.49-1.1,1.89-.57,1,1Z"/><path class="cls-208" d="M132.16,96.41c.92,1.14.49,2.35-1,2-1.01,1.25-1.86,1.9-2,0,.03-.34-.06-.71,0-1l1-1c.13-.3-.14-.77,0-1,.31-.41.65-.4,1,0l1,1Z"/><path class="cls-226" d="M137.16,83.42l-1,2c-.26.13-.73-.13-1,0-1.45,1.27-3.11,2.27-5,3-.28.11-.69-.1-1,0-.94.03-1.61.36-2,1-.59.28-2.86-.08-4,0l.5-1c3.5.45,6.1-1.65,8.5-3,1-.56,3.94-1.44,5-2Z"/><path class="cls-164" d="M134.16,92.41c.46.26.43.59,0,1,.78,1.27.3,1.77-1,1-.15-.66-.04-1.12-1-1,.16-.19-.17-.84,0-1,.62-1.01,1.29-1.34,2-1,.87.28.86.62,0,1Z"/><path class="cls-323" d="M121.16,17.45v1c-.33-.01-.67,0-1,0-.54-1.78-1.17-4.03,1-3v2Z"/><path class="cls-108" d="M155.15,87.42c-.79-.12-1.68.08-2.5,0l-.5-1c.33,0,.67-.02,1,0,.49.03,1-.04,1.5,0l.5,1Z"/><path class="cls-230" d="M146.16,51.43l-1-.5c.32-.95-.32-1.39-1-2v-1.5s.59-.22,1,.5c.47.82.84,2.44,1,3.5Z"/><path class="cls-149" d="M144.16,76.42v-1.5c.68-.61,1.32-1.04,1-2l1-.5c-.39,2.32-.89,2.49-2,4Z"/><path class="cls-230" d="M146.16,71.42c.03-.66-.01-1.34,0-2,.29-.65.63-.64,1,0-.03.49.04,1,0,1.5l-1,.5Z"/><path class="cls-108" d="M144.16,86.42v1c-.45.9-1.24.68-2,0-.87-.28-.86-.62,0-1,.65-.06,1.34.01,2,0Z"/><path class="cls-53" d="M131.16,33.44c.83.64,1.51,1.26,2.5,2,.82.61,1.4,1.92,2.5,2v1c-1.73-1.29-4.96-2.75-6.5-4-2.98-2.41-5.16-5.98-8.5-8-1.56-1.21-2.81-3.55-1-5,1.41.43,1.26,3.27,2,4.5,1.94,3.22,6.33,5.45,9,7.5Z"/><path class="cls-149" d="M147.16,69.42h-1v-1c.34-.06.7.07,1,0,0,.33.02.67,0,1Z"/><path class="cls-17" d="M168.15,101.41c.31.94.64,1.94,1,3,.01.32.04.68,0,1l-1,2c-.23.48.18,1.74,0,2.5-.16.68-.98.45-1,.5-1.18.62-1.64.2-1-1-.62-.28-.6-.61,0-1-.16-.3.17-.63,1-1-.59-.13-1-.33-1-1-.55-.18-.49-.53,0-1-2.29-.25-1.74-.77,0-2,.03-.18.88-.07,1-3,1.15-.17.87.82,1,1Z"/><path class="cls-345" d="M169.15,104.41l-1-.5v-2.5s.83-.18,1,.5c.02.83-.03,1.67,0,2.5Z"/><path class="cls-345" d="M168.15,107.41v-1.5l1-.5c-.3,2.45-.94,1.88-1,2Z"/><path class="cls-17" d="M167.15,99.41h-1c-.54-.28-.52-.61,0-1-.27-.56.16-.65-1-1-.6-.3-.59-.63,0-1,.85,1.05,1.59.12,2,3Z"/><path class="cls-345" d="M163.15,115.4l4-4c-1.13,1.89-2.22,2.78-4,4Z"/><path class="cls-142" d="M145.16,115.4c2-.24,4,.1,6,1,2.21,1.17,1.03,1.53-1,2-.99,0-2.01.04-3,0-.66-.02-1.4.1-2,0l-1-1c-1.24-.33-2.3-.6-3.5-1l-.5-1,1-1c.26-.48.6-.44,1,0,1.48-.39,2.48-.06,3,1Z"/><path class="cls-243" d="M158.15,117.4c-.03.46.06.8-.5,1-.5.04-1.01-.04-1.5,0v-1c.48-.82,1.2-.57,2,0Z"/><path class="cls-5" d="M143.16,119.4c-1.74-.54-1.88-.95-2-1h1.5l.5,1Z"/><path class="cls-347" d="M160.15,89.41c-.15.66-.04,1.12-1,1-.25-.11-.67.08-1,0,.09-.37-.15-.8.5-1,.42-.16,1,.07,1.5,0Z"/><path class="cls-32" d="M85.17,74.42c-1.47-2.39,2.47-2.81,3.86-2.02.58.33,1.85,3.84,2.14,5.02,2.13-.6,4.49,2.91,4,5,2.12,1.44,2.46,2.44,1,3-.3.6-.63.59-1,0-.32-.07-.7.1-1,0l-1-1c-2.46-1.06-3.79-2.4-4-4-.66.35-1.33.02-2-1-2.42-2.41-3.09-4.08-2-5Z"/><path class="cls-132" d="M81.17,69.42c1.43.17,1.43,1.63,0,2,.6.33.6.67,0,1l2,2c.87.32.87.65,0,1l1,1c.88.32.87.66,0,1,.96.63,1.23,1.69,0,2-.3.55-.64.53-1,0l-2-2c-.59-.44-.55-.39-1-1-.3-.94-.64-1.94-1-3-.04-.33.02-.67,0-1-.7-.21-.66-.55,0-1,.47-.4.47-.73,0-1-.98-.5-.79-1.24,0-2,.13-1.04.8-.71,2,1Z"/><path class="cls-37" d="M78.17,72.42c.08,1.75-.54,3.47,1,4.5-2.23,1.5-1.74,2.4-2,4.5-.27.07-.66,0-1,0-.83-.3-.72-2.31,0-3-.85-.29-.69-2.29,0-3,.84-1.61.82-4.41,0-6-.89-.18-.86-.52,0-1,.32-1.1.65-2.1,1-3,1.88,0,1.69,5.03,1,7Z"/><path class="cls-391" d="M97.17,82.42c.29-.76.62-.75,1,0,2.29-1.26,3.68,1.14,2,3-.65,0-1.26.82-3,1-.29.03-.72.06-1,0-.64-.3-.63-.63,0-1-.95-1.06-.77-2.52-1-3,.28-.78.94-.78,2,0Z"/><path class="cls-391" d="M89.17,80.42c1.87,1.3,2.55,2.41,4,4-.29-.08-.66.06-1,0-1.03-.37-2.03-.71-3-1-.73-1.66-1.08-.62-2-1l-1-1c-.17-.12-1.17.15-1-1-.53-1.2-.11-1.69,1-1,.28-.86.62-.84,1,0,.57.79,1.23,1.13,2,1Z"/><path class="cls-332" d="M86.17,79.42c.12.96-.34.85-1,1-.23.05-.78.06-1,0-.53-.3-.52-.64,0-1-.05-.65.1-1.38,0-2,.9-1.47,2.91.76,2,2Z"/><path class="cls-322" d="M80.17,76.42s-.83.18-1-.5c-.06-.83.09-1.69,0-2.5l1,.5v2.5Z"/><path class="cls-196" d="M92.17,84.42c-.76-.14-1.69.09-2.5,0-.68-.18-.39-.76-.5-1h2.5l.5,1Z"/><path class="cls-332" d="M83.17,79.42c-.62-.46-2.06-.78-2-2,.61.46,2.06.78,2,2Z"/><path class="cls-196" d="M84.17,80.42c-1.38-.4-.94-.96-1-1h1v1Z"/><path class="cls-196" d="M87.17,82.42c-1.35-.56-.94-.96-1-1l1,1Z"/><path class="cls-2" d="M94.17,85.42c-1.39-.45-.93-.98-1-1,.05.05,1.18-.13,1,1Z"/><path class="cls-2" d="M96.17,86.42c-.68-.14-1.11-.05-1-1h1v1Z"/><path class="cls-250" d="M65.18,78.42c1.26-2,5.48-1.39,6,1,1.35,4.35.35,9.04-2,12.99-.09.31.09.7,0,1l-1,1v1c1.07,1.99-.31,2.15-2,1-.87-.28-.86-.62,0-1-.66-1.27-1-3.27-1-6-1.18-2.71-3.28-8-2-10l2-1Z"/><path class="cls-380" d="M72.17,75.42c.46,3.65.79,7.31,1,11l-4,6c1.18-4.22,2.35-8.12,2-12.99-1.31-1.13-1.88-1.68,0-2-.64-.29-.63-.63,0-1-2.75-.46-2.59-1.99,0-3-.92-1.69-.48-2.26,1-1,.99.6,1.25,2.69,0,3Z"/><path class="cls-206" d="M73.17,76.42c.49,2.25.82,4.58,1,7-.29.94-.1,1.86-1,3l-1-.5c-.05-3.5.07-7.01,0-10.5.28-.87.62-.86,1,0,.85.24.82.57,0,1Z"/><path class="cls-40" d="M75.17,81.42c-.13.85-.71,1.05-1,2l-1-.5c.1-2.16-.14-4.36,0-6.5,1.07-1.1,1.74.56,2,5Z"/><path class="cls-173" d="M70.17,95.41c-.9,1.15-.71,2.04-1,3-.35.03-.74-.08-1,0-1.02.61-1.69.28-2-1-.66-.29-.64-.63,0-1l2-1,.5,1c.34-.69,1.02-.77,1.5-1Z"/><path class="cls-382" d="M76.17,81.42c-.34,0-.73.07-1,0-.72-.87-.75-2.14,0-3,.28-.87.62-.86,1,0v3Z"/><path class="cls-173" d="M68.18,94.41c-.18-1.16.98-.93,1-1l-1,1Z"/><path class="cls-154" d="M132.16,106.41c1.34.91,1.68,1.9,1,3,.84.3.83.64,0,1h-1c-.3.64-.63.63-1,0-1.09-.08-1.42-.74-1-2-.08-.3.07-.68,0-1-.64-.32-.63-.65,0-1l1-1h1c.86.23.83.57,0,1Z"/><path class="cls-118" d="M128.16,107.41c.13.27-.12.71,0,1,.25,1.1.05,1.56-1,1-.9,1.92-2.32-1.22-1-2-.42-.29-.4-.63,0-1,.49.34,1.4.86,2,1Z"/><path class="cls-310" d="M130.16,108.41c.03.13.45-.1,1,2h-2c-.82-.34-1.32-1.18-1-2l1.5,1,.5-1Z"/><path class="cls-310" d="M130.16,106.41c0,.33-.06.72,0,1l-1-.5c-.15-.53.14-1.15,0-1.5.28-.87.62-.86,1,0,.61.27.58.6,0,1Z"/><path class="cls-346" d="M131.16,98.41c.86.24.84.58,0,1-.73.96-.73,1.97,0,3,.65.33.65.67,0,1l-1,2h-1c.12-2.31-.17-4.69,0-7,.6-.1,1.34.05,2,0Z"/><path class="cls-141" d="M123.16,104.41c1.12.71,2.15,1.41,3,2-.14.58-.33,1-1,1-.3.56-.63.55-1,0-1.14.79-1.55.29-1-1-.74.31-1.41-.02-2-1-.66-.29-.64-.63,0-1-.87-.28-.86-.62,0-1,.33-.03.67,0,1,0,.51,1.18.55.72,1,1Z"/><path class="cls-193" d="M121.16,103.41v1c-.3.64-.63.63-1,0-.29.66-.63.65-1,0-.61-.3-.59-.63,0-1,.28-.08.65.04,1,0,.33-.04.67.03,1,0Z"/><path class="cls-301" d="M99.17,124.4l1,1c.27-.86.6-.84,1,0,.76.31,1.09.64,1,1v2c-.95-.28-3.79-1.58-4.5-2-.81-.48-1.37-1.97-2.5-2l1-1c.77-.95,1.77-.62,3,1Z"/><polygon class="cls-301" points="104.17 128.4 103.17 128.4 103.67 127.4 104.17 128.4"/><path class="cls-311" d="M126.16,121.4c-.56.43-1.51,2.99-3,3l-1-1c-1.71-2.13.86-4.61,3-3,.59.14,1,.33,1,1Z"/><path class="cls-403" d="M51.18,97.41l4,3c.05.05,1.18-.14,1,1l-4,2c-.81.75-2.24.87-3,0-1.37.7-3.69-.7-4-2-1.16.78-2.31.42-2-1l-2-1c-.33.82-.67.82-1,0-2.39-1.47-1.7-2.52,1-2,.3-.86.64-.85,1,0l1,1c.32-.86.66-.86,1,0,1.55,1.09,2.55.42,3-2,.33-.88.67-.88,1,0,1.42-1.2,2.42-.86,3,1Z"/><path class="cls-48" d="M63.18,87.42c1.42-2.99,2.18,4.06,1,6,1.37.6,1.35,1.34,0,2,.88.21.85.54,0,1-.28,1.91-1.12,2.92-3,2h-1c-.3.61-.63.6-1,0-.9-.18-.86-.52,0-1l-1-1c-.47,1.56-1.47.23-2-1-2.41-2.19.17-4.01,2.96-3.58.73-7.16,2.08-8.63,4.04-4.41Z"/><path class="cls-35" d="M51.18,93.41c1.36-.4,3.36,1.56,3,3-1.15-.24-1.78-.14-3-1-.06.65.12,1.42,0,2,2.9.47,2.36,1.12,4,3l-2.5-1-3.5,1.5c1.71-1.22,1.66-1.84,2-3.5-.79-.13-1.77.17-2.5,0-.67-.16-.46-.96-.5-1-.43-2.6.11-.49-.04-.49-3.62.1-2.85-4.42.04-4.51,1.3-.65,2.85.64,3,2Z"/><path class="cls-119" d="M64.18,96.41c1.23-1.4,2.06.6,1,2,.96.95.26,1.71-1,2-.34.04-.71-.07-1,0-.31.08-.68-.06-1,0l-1-2,1.5-2h1.5Z"/><path class="cls-66" d="M55.18,95.41c.67.28.65.61,0,1-.32-.05-.68.07-1,0l-3-3c-1.32-1.4-.77-1.92,1-1,2.23-2.17,5.06.45,3,3Z"/><path class="cls-92" d="M58.18,96.41c.46-.56.79-.22,1,1,.02.33-.02.67,0,1,.65.29.64.63,0,1-.52-.02-1.42-.64-2-1-.89-.69-1.23-1.36-1-2-.65-.33-.64-.66,0-1l2,1Z"/><path class="cls-276" d="M52.18,103.41c.33.01.67-.02,1,0,1,1.55-.81,2.1-2,1-.45.91-1.25.71-2,0-.87-.28-.86-.62,0-1,.45.21,2.11-.03,3,0Z"/><path class="cls-313" d="M54.18,103.41v2c-.99-.06-2.02.11-3,0-.87-.28-.86-.62,0-1,.49-.04,1,.05,1.5,0l.5-1c.33.02.68-.05,1,0Z"/><path class="cls-35" d="M57.18,98.41c-1.06-.66-1.41-.61-2-2,.29-.66.63-.64,1,0,.24,1,1.02,1.16,1,2Z"/><path class="cls-244" d="M59.18,99.41v-1h1c.1.8-.22,1.02-1,1Z"/><path class="cls-136" d="M68.18,98.41c-.94.29-1.92.97-2,2-.29.66-.63.65-1,0-.33,0-.68-.04-1,0,.12-.48.81-1.79,1-2,.08-.86.41-1.19,1-1,.33-.14.97.15,1.5,0l.5,1Z"/><path class="cls-110" d="M67.18,100.41v1c-.49-.04-1,.05-1.5,0l-.5-1h2Z"/><path class="cls-239" d="M134.16,82.42c-2.32,2-5.02,3.28-8,4-.98.1-2.01-.07-3,0-.55-1.34,1.24-3.99,3-3,.5-1.8,3.09-4.17,5-3,.81-.4,1.48-.4,2,0,3.22-3.77,4.14-1.27,1,2Z"/><path class="cls-389" d="M125.16,82.42c1.67-.85,2.01-.52,1,1-.17.12-2.91,2.8-3,3-.77.49-1.77.83-3,1-.57.12-1.34-.03-2,0-.3-1.57,1.37-3.24,5-5,.21-.68.55-.64,1,0,.3-.91.63-.9,1,0Z"/><path class="cls-45" d="M123.16,82.42v2c-1.77.14-4.4,1.07-5,3-.99.04-2.01-.04-3,0-.64-.3-.63-.63,0-1,.28-.12.72.12,1,0l1-1c.24-.15.79.16,1,0l3-3c.57-.36,1.32-.84,2-1,.66.29.64.63,0,1Z"/><path class="cls-45" d="M123.16,86.42c-.11.24.18.83-.5,1h-2.5c.18-.04.23-.81,3-1Z"/><path class="cls-226" d="M131.16,85.42c-1.81.42-3,.8-5,1l8-4-3,3Z"/><path class="cls-187" d="M127.16,119.4c.13,1-.39.83-1,1-.3.41-.63.39-1,0,.07-.32-.09-.7,0-1l1-1c1.14-.18.94.96,1,1Z"/><path class="cls-379" d="M127.16,116.4l1,.5c-.52.84-1.07.54-1-.5Z"/><path class="cls-182" d="M129.16,110.41h-1c-.31-1.13-.38-.73-1-1,.11-.73.09-1.11,1-1,.36.87.93,1.24,1,2Z"/><path class="cls-70" d="M132.16,111.4c-.98.12-.84-.37-1-1h1v1Z"/><path class="cls-144" d="M126.16,121.4l-1-1c.23-.12.66.09,1,0v1Z"/><path class="cls-41" d="M139.16,113.4c1.56-.9,2.09-.5,1,1l-1,1c-2.18-.74-2.72-1.41-4-3,.14-.59.32-1,1-1,1.38-.9,3.44.31,3,2Z"/><path class="cls-252" d="M135.16,109.41c.64.3.62.63,0,1l-1,1h-1c-.05-.3-.02-.69,0-1,.02-.35-.08-.74,0-1-.87-1.5-.45-2.02,1-1l1,1Z"/><path class="cls-5" d="M145.16,118.4c-.72-.12-1.11-.09-1-1,.62.17,1.12.01,1,1Z"/><path class="cls-106" d="M135.16,112.4c-.04-.06-1.18.14-1-1,.18-.55.53-.49,1,0,.41.29.39.63,0,1Z"/><path class="cls-168" d="M96.17,116.4v1c.09.31-.08.69,0,1l1,2v1c-.42-.39-2.13-.78-2-2v-3.5c.15-.68.75-.39,1-.5v1Z"/><path class="cls-168" d="M109.17,110.41c.87.28.86.62,0,1-.24,1.67-1.59,1.82-2,0l-1,1c-.31.88-.64.87-1,0l-4,4c2.67.87,2.67,2.03,0,3-.13.59-.33,1-1,1-.29.69-.63.68-1,0-.08-.26.03-.65,0-1-.24-2.87.35-4.59,1-7h-1.5c-.81.32-1.18,1.6-1.5,2-1.14.16-.85-.74-1-1,1.39-.35,1.08-2.84,3-3,1.48-.97,2.01-.53,1,1,.4.5.73.5,1,0,.29-.65.63-.64,1,0-.63-1.2-.2-1.67,1-1,.29-.66.63-.65,1,0-.68-1.15-.21-1.46,1-1,.32-.75.65-.74,1,0l3,1Z"/><path class="cls-42" d="M119.16,104.41c-.29.66-.63.64-1,0,.19-.26-.33-.62,1-1v1Z"/><path class="cls-330" d="M105.17,107.41v1c-.27.63-.6.61-1,0-.34.05-.69-.07-1,0l.5-1h1.5Z"/><path class="cls-123" d="M116.16,105.41c.34-.02.73.07,1,0,.84.29.82.62,0,1-.21.68-.55.64-1,0-1.99-.07-4.01.05-6,0v-1c1.99-.08,4.02.11,6,0Z"/><path class="cls-115" d="M119.16,1.45c.58.61.68,1.49,0,2-.28.87-.61.86-1,0-.7.42-1.37.75-2,1,.74.65.71,1.37,0,2l-1,2c1.54.56.36,2.41-1,2-.88,1.62-1.21,1.29-1-1,.31-1.33.64-2.69,1-4l1-2c.16-.42-.09-1.37,0-2,1.59-1.95,2.45-1.92,4,0Z"/><path class="cls-219" d="M108.17,6.45c1.63-1.36,3.15.17,2,2,.79.76.77,2.22,0,3q-.78.52,0,0c.19-.89.52-.86,1,0,1.92.3,1.8,1.09,0,2-.33.59-.67.59-1,0-.33.87-.66.87-1,0-.28.87-.62.86-1,0,.11-.97-.04-2.01,0-3-.76-1.15-.79-2.86,0-4Z"/><path class="cls-138" d="M114.16,10.45c1.57.14,1.21,2.15,0,3-.28.87-.61.86-1,0-.92,1.09-1.59,1.09-2,0,0-.66.03-1.34,0-2,.02-.82.69-1.16,2-1,.08-.31-.07-.68,0-1l1,1Z"/><path class="cls-288" d="M108.17,20.45c2.5.21,1.05,3.97-1,2h-1c-1.75,1.29-3.17,2.85-5,4-.59-.3-.58-.63,0-1,1.19-1.35,2.53-2.68,4-4,.46-.67,1.11-1.61,1-2.5l1-.5c1.22-.01,1.17,1.02,1,2Z"/><path class="cls-325" d="M109.17,15.45c1.1.84,1.42,1.25,0,2,.63.27.6.6,0,1-.72,1.71-1.67.58-2-1,0-.66-.09-1.38,0-2,.89-1.06,1.71-1.5,2,0Z"/><path class="cls-155" d="M109.17,18.45c2.07,1.06,1.03,3.19-1,2l-1-.5c-.05-.5.05-1.01,0-1.5-.03-.32,0-.67,0-1l2,1Z"/><path class="cls-198" d="M109.17,15.45h-2c.15-.97.9-1.06,1-2h1c1.07.72,1.44,1.83,0,2Z"/><path class="cls-152" d="M113.16,10.45c-.34,1.35-.69,1.02-2,1-.88-.44-.65-1.22,0-2l2,1Z"/><path class="cls-7" d="M111.16,9.45c.05.66-.03,1.34,0,2-.33,0-.67,0-1,0-.03-.99.05-2.01,0-3,.28-.87.62-.86,1,0,.05.32-.03.67,0,1Z"/><path class="cls-321" d="M95.17,28.44l-.5,1h-1.5c.12-.05-.49-.68,2-1Z"/><path class="cls-321" d="M101.17,26.44c-1.66,1.04-3.22,1.66-5,2l2-2,3-1v1Z"/><path class="cls-10" d="M45.18,45.43c1.78.79.44,1.79-4,3-1.5.56-3.17,1.23-5,2,3.42.15,5.58,1.31,6.48,3.49,6.39-1.38,8.92,6.14,2.52,5.5-1.97.94-5.24-1.07-6-3-1.54.67-4.09.22-5-1-1.85.31-4.37-.98-6-2l-3-1c-.87-.28-.86-.62,0-1,.1-1.11.43-2.1,1-3l10.5-1c1.48-1.91,7-1.29,8.5-2Z"/><path class="cls-315" d="M68.18,49.43c.79.97,1.46,2.74,3,3l2,2,1,1c2.12-.57,4.09,1.93,1,3,1.12,1.43,1.78,3.21,2,5,2.07.11,2,1.55,0,2v2.5l-1,.5c-.91-.1-.86-.45,0-1-.53-.8-.86-1.8-1-3-.66-.3-.64-.63,0-1-.3-.53-.63-1.2-1-2-2.18-.38-3.51-2.72-4-7l-6-6v-1h1c1.16.44,1.87,1.35,3,2Z"/><path class="cls-212" d="M54.18,45.43c.98.05,2.03-.12,3,0,.87.28.86.62,0,1,.87,1.8-.24,3.18-2,4-.66,1.99-4.14.44-5-1-1.17.62-2.91.41-3-1-3-.11-2.34-1.88,0-3,2.07-.96,4.84-.73,7,0Z"/><path class="cls-178" d="M25.19,47.43c.56,1.28.73.79,1,1,.12.1.03,1.57,2,1l-1.5,2c-.44.18-1.03-.09-1.5,0-.33.6-.66.6-1,0-2.08-.53-2.75-1.2-2-2-1.22-.46-1.89-1.13-2-2v-1c1.34-.62,3-.29,5,1Z"/><path class="cls-186" d="M54.18,45.43c-2.29-.11-4.71-.08-7,0-.61,1.87-1.51,1.88-2,0,.05-.02-.18-.83.5-1,2.11-.52,5.63.36,8,0l.5,1Z"/><path class="cls-33" d="M22.19,45.43c.32-.05.67.02,1,0,.09,1.48,1.3.39,2,2-1.95.68-2.77-.74-3.5-1-.52-.19-1.17.15-1.5,0l.5-1c.43-.17,1.01.08,1.5,0Z"/><path class="cls-186" d="M62.18,47.43c-1.72,2.68-4.32,2.37-5-1v-1c1.93.25,1.89.8,2.5,1s1.4-.2,2,0c.69.23.45.97.5,1Z"/><path class="cls-91" d="M64.18,48.43c2.48,1.79,4.19,3.53,6,6-.29.73-.62.71-1,0-1.36.75-1.97.29-1.81-1.39-3.11-1.84-4.84-3.71-5.19-5.61.39.28,1.62.72,2,1Z"/><path class="cls-157" d="M111.16,18.45c.63-.75,1.35-.67,2,0-.34,2.36-.68,4.69-1,7,2.24.28.91,2.24-1,2-.4.05-.73-.28-1-1-.6.44-1.27.44-2,0-1.85,2.07-2.4,1.7-2-1v-1c.2-.23.75-1.62,1-2,.03-.05.57.22,1-.5.25-.42-.16-1.14,0-1.5.05-.12.68.46,1-2,.04-.33-.02-.67,0-1,1.08-1.19,1.59-.37,2,1Z"/><path class="cls-79" d="M103.17,28.44c.76.74-.16,1.44-1,2l-1,1c-.81,1.77-4.05,3.15-6,3-1.11.28-2.44.28-4,0-.32.88-.65.88-1,0-.26.49-.6.45-1,0l.5-1c2.05-.9,4.48-1.23,6.5-2l1-1c.27-.11.67.09,1,0l1-1c.32-.09.72.1,1,0l1-1h1c.28-.85.62-.84,1,0Z"/><path class="cls-362" d="M89.17,34.44c.27-.08.65.04,1,0,.66,2.27-2.67,4.92-4,2-.71-.29-.69-.63,0-1,1.29-.58,1.88-.67,3-1Z"/><path class="cls-399" d="M86.17,36.44c-1.76,2.22-4.09,4.22-7,6-.03,1.18-.82,2.75-2,3-.18.68-.51,1.01-1,1-.28.87-.62.86-1,0,.93-1.74,1.68-3.5,3-5,1.8-2.03,5.57-4.9,8-6v1Z"/><path class="cls-155" d="M107.17,22.44h-1s-.14-1,.5-1l.5,1Z"/><path class="cls-288" d="M106.17,25.44c-.33.86-.66.86-1,0,.2-.19.83-.82,1-1v1Z"/><path class="cls-321" d="M104.17,27.44c.79.98.26,1.3-1,1h-1c-.43-.31-.42-.64,0-1,.81-.59,2.34-1.39,3-2,2.21,1.37,1.59,2.38-1,2Z"/><path class="cls-288" d="M102.17,28.44c-.33.08-.74-.11-1,0,.16-.15.17-.4,1-1v1Z"/><path class="cls-321" d="M100.17,29.44c-.18-1.14.93-.93,1-1-.07.03.37.48-1,1Z"/><path class="cls-321" d="M98.17,30.44c-.13-.99.39-.83,1-1,.13.99-.39.83-1,1Z"/><path class="cls-321" d="M96.17,31.44c.07-.03-.37-.47,1-1l-1,1Z"/><path class="cls-238" d="M76.17,46.43c.35,3.67,1.78,8.93,4,4-.06-1.76.26-3.08,2-2,1.52,1.14-.65,5.88-2,7-.29,5.46-1.29,7.46-3,6l-2-3c.47-1.57-.85-1.9-1-3-.91-.93-.84-2.85,0-4-.67-.61-.59-1.32,0-2,.62-.42.95-1.08,1-2,.13-.27-.14-.74,0-1h1Z"/><path class="cls-399" d="M74.17,55.43c-.89.1-.91-.25-1-1-.11-.88-.1-2.11,0-3,.28-.87.62-.86,1,0-.04,1.26-.16,2.82,0,4Z"/><path class="cls-399" d="M74.17,49.43c.47-1.1.79-1.56,1-2v1.5c-.17.67-.98.45-1,.5Z"/><path class="cls-186" d="M74.17,51.43h-1c.27-2.48.95-1.88,1-2-.14.49.02,1.35,0,2Z"/><path class="cls-316" d="M27.19,104.41c2.59.62,6.15,2.16,8,4h1l1.94,1.76c-3.51.67-7.16.75-10.94.24-1.21.12-2.78.1-4,0-.12-.27.18-.81-.5-1-.44-.17-1.02.08-1.5,0-.28-.64.1-.68-1-1-.32-.09-.72.11-1,0v-1c.61.09,1.36.03,2,0,1.11-1.61,2.44-2.94,4-4,.73-1.4,1.47-.31,2,1Z"/><path class="cls-16" d="M23.19,101.41c1.15-.76,2.67.78,2,2v2h2v2c-2.4-2.05-2.82-.13-3.5,0-.73.14-1.68-.04-2.5,0v-1l-1-3c-.25-.11-.66.09-1,0-1-2.06-1.34-3.73-1-5-.15-.5.07-1.36,0-2,1.57-.07,5.37,3.27,5,5Z"/><path class="cls-218" d="M21.19,106.41c-1.16.18-.94-.97-1-1v-2c.87.38,1.42.74,2,1.5l-1,1.5Z"/><path class="cls-27" d="M18.19,69.42c-.02,4.48.79,8.83,2.42,13.07l-1.42.92c1.22-.13,1,3.49,0,4-1.59-.27-2.59-1.6-3-4-1.14,2.89-2.23-1.08-1-3-.06-.97-.04-2.02,0-3-.64-3.02-.08-13.37,3-8Z"/><path class="cls-319" d="M16.19,83.42c1.13,1.63,1.13,2.63,0,3l1,1c1.05-.06,1.38.94,1,3,.86.33.86.67,0,1l1,1c.91.25.89.58,0,1,.57.3.56.63,0,1,1.1,3.39-.3,2.32-2,0-.03-.05-.77.19-1-.5-.58-3.64-1.87-6.61-2-10.5-.77-.86-.75-2.13,0-3h1c.05.82-.04,1.67,0,2.5.18.68.76.39,1,.5Z"/><path class="cls-135" d="M18.19,66.42c1.29.63,1.29,2.22,0,3-.6-.1-1.34.05-2,0,.76,1.83-.94,3.17-1,3.5-.22,1.32.06,3.05,0,4.5l-1-8.5c1.85-1.12.56-3.4,1-5,.24-.88,1.95-1.39,2-1.5.62.79.96,2.12,1,4Z"/><path class="cls-199" d="M15.19,56.43s.83-.18,1,.5c.36,1.49-.25,3.82,0,5.5l-2-1.5v-4.5h1Z"/><path class="cls-331" d="M14.19,83.42h-1c-.89-.19-.85-.52,0-1,0-.66.02-1.34,0-2h1c.02.99-.03,2.01,0,3Z"/><path class="cls-365" d="M20.19,47.43c.65-.06,1.34.03,2,0,.05.65-.1,1.39,0,2,0,1.36-1.38,1.11-2,0-.48.4-.48.73,0,1,1.13-.62,2.32,0,3,1l2,1c.87.27.86.61,0,1,5.23,2.45,3.6,11.64-2,6-1.13.95-1.58.39-1-1h-1c.43.29.41.62,0,1,.89.27.87.6,0,1,4.88,5.22-1.43,6.53-3,0-.68-.26-.66-.59,0-1-.02-.34.07-.71,0-1l-1-1c-.5-1.89-.41-1.15-1-2l-2-2c-.03-.06-1.18.16-1-1,2.14.08,3.73.41,5-1.5l-1-2.5,2-1c.26-.08.65.03,1,0Z"/><path class="cls-199" d="M16.19,55.43h-1c-.49-.85-.56-1.04-1-2,1.21-.04,1.53,1.33,2,2Z"/><path class="cls-178" d="M19.19,47.43c-.13.04.1,1.52-2,1l.5-1h1.5Z"/><path class="cls-178" d="M15.19,47.43c.04-.85-.81-.99-1-2l2,1.5c-.19.68-.73.38-1,.5Z"/><path class="cls-224" d="M29.18,100.41l.14-2.03c-5.57-.69-5.08-8.36.86-3.96,1.26-1.31,3.18.16,3,2,1.26-.62,2.55.84,3,2,1-.73,1.76-.12,2,1,.88-.19,1.79.15,2,1,.85-.66,1.66,0,2,1,.75-.77,1.49.12,2,1,.99-.67,1.4-.19,1,1l2,1c.22-1.42,1.02-1.05,2,0l2,1v2l-6-.5-1-1.5-2,3c-1.86.83-4.24.02-6-1-2.84.25-6.79-2.1-9-4-1.38-.05-2.17-1.02-1-2,.28-.87.62-.86,1,0,.85.19,1.42-.38,2-1Z"/><path class="cls-49" d="M41.18,109.41c-.14.07-.33,1.68-2.5,1l-.5,1c-.33.02-.67-.01-1,0-2.65.12-5.35-.08-8,0h-1l-1-1c1.84-.18,4.62-1.27,5.5-1,.62.19,1.58,1.71,3.5,1v-2c1.36-.75,3.73.16,5,1Z"/><path class="cls-233" d="M42.18,108.41c.58.12,1.35-.06,2,0v1c-.89.16-2.45-.26-3,0-2.24.62-3.47-.58-5-1-.32-.09-.7.09-1,0-1.33-1.33-.8-1.34,1-1,2.36-.38,3.97.58,6,1Z"/><path class="cls-385" d="M12.19,43.44c.61.3.6.63,0,1l1,2h-2c-.1-.45-.88-1.88-1-2l-1-1.5,1-.5,2,1Z"/><path class="cls-324" d="M12.19,44.43v-1l1-1c-.12,1,.39,2.07-1,2Z"/><path class="cls-102" d="M10.19,47.43c-1.08-.02-2.07.3-2-1h1.5l.5,1Z"/><path class="cls-314" d="M11.19,47.43l1,.5c-.52.84-1.07.54-1-.5Z"/><path class="cls-343" d="M143.16,51.43l1,1c.12.27-.12.71,0,1l1,2c.09.3-.09.68,0,1l1,3c.09,1.58.12,3.43,0,5l-1,2c-3.21,6.25-5.05.61-5-4-.82-1.03-.69-2.85,0-4-1.59-.85-1.95-3.66-1-5-2.22-3.99,1.67-6.93,4-2Z"/><path class="cls-211" d="M116.16,22.44c.63.3.62.63,0,1q-.17,3.52,0,0c.28-.87.62-.86,1,0,.42-.05.75.28,1,1,1.53-1.41,1.99-.84,1,1,2.12,3.35,4.78,6.35,8,9,.05.05,1.18-.13,1,1-.52,1.47-1.91,2.34-3,1-1.96.61-4.87-3.73-5.85-5.98l-1.15-.02c-.11,4.25-1.42.37-2-2-1.17.3-4.86-1.54-2-3-2.58-1.12-2.58-1.9,0-3,.27-2.67,1.1-2.5,2,0Z"/><path class="cls-47" d="M143.16,51.43c-.1-.09-1.28-.29-1.5-1l-2.5,1v2c-.28.87-.62.86-1,0-.98-1.84-1.64-3.84-2-6-1.12-.79-2.38-2.51-2-4,.37-.48.7-.83.86-.77,2.3.88.83,2.77.57.65-.03-.26.23-.56.57-.88,2.5,2.65,5.1,4.41,7,7.5.26.43-.17,1.19,0,1.5Z"/><path class="cls-95" d="M128.16,35.44c.3-.03.78-.07,1,0l3,3c1.5,1.39,2.61,2.52,4,4l1,2c-1.51.42-1.82-.69-3-1-.81.6-1.48-.07-2-2-1.46-1.07-3.13-2.07-5-3-.26.72-.92.39-2-1-.86-.34-.87-.67,0-1,1.26-.74,1.6-.86,3-1Z"/><path class="cls-396" d="M120.16,18.45c-.04.97-.09,2.03,0,3,.18,2.02.59,3.18,1,5v1c-.74.94-1.73-.88-2-2-.4-1.32-.73-.81-1-1-.75-.73-.79-2.31,0-3-1.28-3.62-.95-5.29,1-5,.56-.16.89.51,1,2Z"/><path class="cls-230" d="M146.16,59.43l-1-.5v-2.5c.05.17.85.24,1,3Z"/><path class="cls-371" d="M140.16,62.43l1,5,2-1,1,2c-.2-1.42-.26-1.43,1-2-.06.65.04,1.34,0,2l-1,2c-.07.3.04.66,0,1l-1,1c-1.96,4.05-5.32,7.25-9,10l1-3c-.19-.23-1.33.68-2,1-.87-.28-.86-.62,0-1,2.28-3.11,4.28-6.11,6-9,.13-2.65.47-5.31,1-8Z"/><path class="cls-230" d="M145.16,66.42c.04-.49-.05-1,0-1.5l1-.5c-.04.49.04,1,0,1.5-.23.68-.77.4-1,.5Z"/><path class="cls-230" d="M145.16,55.43l-1-.5v-1.5c.05.12.46.23,1,2Z"/><path class="cls-53" d="M121.16,27.44c1.87,2.39,3.96,4.76,6,7-1.65-1.42-7.38-6-8-7.5-.19-.47.13-1.08,0-1.5l2,2Z"/><path class="cls-53" d="M132.16,38.44l-3-3c1.84.57,2.14,2.21,3,3Z"/><path class="cls-230" d="M144.16,52.43c-1.13.18-.95-.95-1-1,.03.06.39-.34,1,1Z"/><path class="cls-149" d="M144.16,70.42c.1-.46-.17-1.05,0-1.5.2-.65.63-.41,1-.5-.03.49.04,1,0,1.5l-1,.5Z"/><path class="cls-149" d="M143.16,72.42c.17-.36-.11-1.16,1-1-.09.75-.11,1.1-1,1Z"/><path class="cls-339" d="M144.16,87.42c.49.04,1-.04,1.5,0l.5,1c-1.32-.03-2.69.11-4,0-.77-.06-1.1-.14-1-1,.32-.03.67,0,1,0,.66.01,1.34-.05,2,0Z"/><path class="cls-108" d="M151.16,88.42c-.54.78-1.26.56-2,0-.66-.02-1.34,0-2,0l.5-1h3l.5,1Z"/><path class="cls-50" d="M155.15,89.41c-.31.65-.98.98-2,1-1.36.75-2.8.58-2-1h1.5l.5-1c2.46.3,1.88.94,2,1Z"/><path class="cls-174" d="M136.16,91.41c-1.4.84-1.91.38-1-1,.81-.1,1,.22,1,1Z"/><path class="cls-323" d="M119.16,9.45l1.5,1,3.5-1c-.06.65.13,1.45,0,2-2.26,1-1.74,2.79-3,3-1.25,1.76-1.92,1.76-2,0-.26.83-1.47.72-2,0-.5-1.11-.16-2.44,1-4-.84-1.22-.37-1.7,1-1Z"/><path class="cls-265" d="M136.16,91.41c0,.78-.19,1.1-1,1h-1v-1c.06-.04-.15-1.17,1-1-.13,1.02.43.82,1,1Z"/><path class="cls-82" d="M121.16,14.45v1l-1,.5c-.02.83.03,1.67,0,2.5l-1-2c-.86-.33-.86-.66,0-1-.87-.28-.86-.62,0-1,.66,0,1.39.1,2,0Z"/><path class="cls-221" d="M162.15,105.41v1c-.29,1.79-2.57,4.46-4,3-1.4,1.32-1.92.77-1-1-2.39-1.83,1.66-5.69,4-4,.44-.55.77-.21,1,1Z"/><path class="cls-133" d="M161.15,98.41c.34.91.9,1.21,1,2-.27.73-.6,1.07-1,1-2.67,2.14-4.18-.87-2-3l1-1c.32-.6.65-.59,1,0,.66.25.63.59,0,1Z"/><path class="cls-257" d="M162.15,105.41l-1-1c-2.72-.58-2.48-1.79,0-3,.09-.75.11-1.1,1-1,.2,1.57-.13,3.37,0,5Z"/><path class="cls-273" d="M162.15,97.41c-.03-.99-1.09-1.11-1-2h2c.05.65-.1,1.38,0,2-.32-.02-.68-.02-1,0Z"/><path class="cls-17" d="M163.15,97.41c.33.02.67-.04,1,0-.11.26.16,1-.5,1-.61-.18-.43-.56-.5-1Z"/><path class="cls-345" d="M167.15,107.41c.18,1.15-.97.94-1,1-.3.61-.63.6-1,0l1-1h1Z"/><polygon class="cls-358" points="167.15 107.41 166.15 107.41 166.15 106.41 167.15 107.41"/><path class="cls-121" d="M166.15,109.41c-1.68,1.41-2.42.81-1-1h1c-.13.29.15.78,0,1Z"/><path class="cls-9" d="M166.15,109.41l-5,5c-.65-.05-1.39.1-2,0-1.06.55-1.47.12-1-1,.22-.74.56-.71,1,0l1-1c.28-.8.62-.79,1,0l1-1c-.72-.29-.71-.62,0-1l1-1,1-1h1c-.18,1.14.9.92,1,1Z"/><path class="cls-387" d="M160.15,95.41c-.76-.25-.74-.59,0-1-.66-.23-.63-.57,0-1,.3-.64.63-.63,1,0-.02,1.5.32,1.43-1,2Z"/><path class="cls-26" d="M148.16,114.4c3.93.2,5.59.87,5,2-.66-.02-1.34.03-2,0-3.1-.14-3.46.19-6-1-.65-1.13-.18-1.55,1-1,.06-.88,1.35-.72,2,0Z"/><path class="cls-297" d="M145.16,113.4c.64.14,1.07.24,1,1-.07.02.16,1.18-1,1-.48-.23-1.74.18-2.5,0-.68-.16-.45-.99-.5-1-.61-.3-.6-.63,0-1,.32-.61.65-.6,1,0,.33-1.5,1.09-1.33,2,0Z"/><path class="cls-366" d="M142.16,114.4c-.29-.08-.66.04-1,0-1.23-1.38-.68-1.79,1-1v1Z"/><path class="cls-317" d="M153.15,114.4c.82-.79,2.27-.76,3,0,1.39-1.03,2.24-.66,2,1-.33.04-.68-.06-1,0-.44.34-1.11.67-2,1-.21.68-.55.64-1,0-.33-.01-.67,0-1,0l-.5-1h-4c-.68-.16-.39-.76-.5-1,.95-1.6,3.96-1.5,5,0Z"/><path class="cls-44" d="M157.15,115.4v1c-.56-.12-1.34.04-2,0l.5-1c.5-.09,1.04.08,1.5,0Z"/><path class="cls-356" d="M158.15,113.4c-.11.92.28.88,1,1,.1.89-.25.91-1,1l-.5-1c-.5-.04-1.01.03-1.5,0-.87-.28-.86-.62,0-1,.1-.92.45-.86,1,0,.28-.54.61-.52,1,0Z"/><path class="cls-312" d="M159.15,93.41c-.29.41-.63.39-1,0-.19.88-.53.84-1,0-.18-1.15.97-.94,1-1,.96-.12.85.34,1,1Z"/><path class="cls-344" d="M160.15,94.41c-.29.71-.63.7-1,0v-1h1c-.08.27.04.65,0,1Z"/><path class="cls-147" d="M85.17,60.43l1.91.98c-1.04,3.21-.35,4.89,2.09,5.02,1.08,2.04,1.74,4.37,2,7,1.14,1,1.96,3.67,0,4l-1-1h-2c.69-2.99-.87-4.54-3-2-1.22,1.72-2.64-1.12-1-2l-1-1c-.88-.28-.86-.61,0-1-.62-3.13-.95-6.13-1-9-1.52-3.13,2.08-4.58,3-1Z"/><path class="cls-25" d="M97.17,82.42l-.5,1-1.5-1c-.89-1.81-2.97-3.61-4-5-.22-1.12.34-3.27,0-4,.28-.87.62-.86,1,0,2.73.43,4.5,5.84,5,9Z"/><path class="cls-210" d="M83.17,70.42c.09.29-.07.67,0,1,.77.27,1.11.6,1,1-.8,1.87.95,1.88,1,2,.16.35-.24,1.05,0,1.5.36.67,1.54,1.28,2,2,.26.4-.16,1.15,0,1.5-.19-.17-.83.17-1,0-.31-.3-.79-2.17-2-2-.05-.34.07-.7,0-1l-1-1c-.11-.31.12-.74,0-1-1.2-.28-1.65-.92-1-2l-1-1c-.07-.64.09-1.36,0-2-1.17-.75-1.5-1.42-1-2l1-2c1.87.66,2.91,3.29,2,5Z"/><path class="cls-196" d="M89.17,80.42l-.5,1c-.78-.26-1.37-1.89-1.5-2,.05.1,1.62.74,2,1Z"/><path class="cls-334" d="M80.17,62.43c.91.48.62,2.14,0,3l-1,3c-.03.66.01,1.34,0,2,.47.25.43.59,0,1,0,.33-.02.67,0,1h-1c-.14-3.1-.65-4.94-1-7-.1-.6.03-1.34,0-2v-2l2-1.5c-.72-2.43.64-3.62,1-4.5.86,1.86.64,4.83,0,7Z"/><path class="cls-332" d="M83.17,74.42h-2c-.02-.66.04-1.34,0-2,.3-.64.63-.63,1,0,.36.61.69,1.34,1,2Z"/><path class="cls-322" d="M80.17,67.42c.13.95.87,1.04,1,2l-2-1c.04-.82-.03-1.67,0-2.5l1-.5c.85.28.69,1.42,0,2Z"/><path class="cls-322" d="M79.17,71.42c0-.33,0-.67,0-1l1,.5-1,.5Z"/><path class="cls-322" d="M82.17,72.42h-1c-.02-.33.04-.67,0-1,1.14-.16.84.73,1,1Z"/><path class="cls-332" d="M84.17,76.42l-1-1c.02.07.68-.38,1,1Z"/><path class="cls-128" d="M75.17,64.43c.13,1.14.47,2.14,1,3,.03.33-.02.67,0,1s-.01.67,0,1c.82,1.88.78,4.17,0,6v3h-1c-1.5-4.72-2.28-9.43-2.32-14.12l1.32-.88c.28-.87.62-.86,1,0,.1.28-.09.67,0,1Z"/><path class="cls-382" d="M76.17,75.42c0-1.99.06-4.01,0-6l1,.5v5l-1,.5Z"/><path class="cls-337" d="M58.18,63.43c1.28,0,2.61.67,4,2,1.48.46,2.81,1.46,4,3,1.22.31,2.26.9,3,2,.47-.45.8-.12,1,1,.87.28.86.62,0,1,1.04,1.96-.16,2.83-3.62,2.6.37,1.6-.09,2.74-1.38,3.4v2c-.83,0-1.01-.74-2-1-.32.85-.65.85-1,0v-1c-2.72-3-5.32-7.54-7-11-.81-.07-1.14-.41-1-1-1.65.19-2.4-.89-1-2,.6-2.88,2.9-2.65,5-1Z"/><path class="cls-296" d="M65.18,78.42l-2-7,2,2c.34.32,2.21-2.32,3.5,0l1.5-1c1.28-1.29,1.59-.74,1,1-.16.91.25,2.42,0,3v1c.15.32-.05,1.35,0,2l-2-1v2l-4-2Z"/><path class="cls-289" d="M63.18,79.42v1.5c1.91,1.48,1.29,6.99,2,8.5.52,2.02,1.22,6.33-1,4-.25-1.67.36-4.01,0-5.5-.17-.68-.98-.45-1-.5-2.39-1.91-4.93-5.25-2-8h1c.34.04.71-.07,1,0Z"/><path class="cls-392" d="M66.18,95.41c-.32,2.09-.83,1.61-2,0-.06-.61-.12-1.47,0-2,.01-.05.83.19,1-.5.24-.97-.15-2.39,0-3.5,1.13,2.39,1,2.87,1,6Z"/><path class="cls-263" d="M66.18,95.41v2c-.06.03-.79.77-1,1v-1.5c-.17-.67-.98-.45-1-.5-.08-.26.03-.65,0-1h2Z"/><path class="cls-185" d="M71.17,69.42l1,1c1.93.24,1.94,1.76,0,2-.67.15-1.12.04-1,1l-1-1v-1l-1-2c-.88-.25-.86-.58,0-1-1.07-1.27-.68-3.34,1-2,2.76-.75,3.05,1.35,1,3Z"/><path class="cls-40" d="M72.17,72.42c2.07-5.92,3.92,5.5,1,3h-1c-.02-.99.06-2.01,0-3Z"/><path class="cls-250" d="M71.17,77.42c-.02-.05-.83.16-1-.5,0-.64.98-.45,1-.5v1Z"/><path class="cls-170" d="M74.17,61.43c.77.43.74,1.52,0,2,0,4.99,1.29,9.32,1,14.99-.05.98.14,2.06,0,3-.36-.09-.84.15-1-.5v-4l-1-.5c.02-.35-.08-.76,0-1,.02-.05,1.05.13,1-.5l-1-1,1-1.5c-.65.06-1.44-.13-2,0-.04-.66.12-1.44,0-2l-1-1c-.6-1.22-.75-2.45-1-3-1.43.34-1.65-.85-1-2,.19-1.17-.21-2.57-1.01-4.77l1.01-5.23h1c1.61,2.2,2.56,4.29,4,7Z"/><path class="cls-394" d="M135.16,107.41c.87.28.86.62,0,1-.33.55-.67.55-1,0-.88.27-.73.11-1,1l-1-.5c.04-.83-.06-1.68,0-2.5l1.5,1h1.5Z"/><path class="cls-241" d="M131.16,104.41v1c-.12.72-.08,1.11-1,1,0-.32-.05-.69,0-1,.08-.49-.16-1.07,0-1.5.19-.68.73-.38,1-.5.89.19.86.52,0,1Z"/><path class="cls-310" d="M132.16,105.41h-1c.05-.32-.02-.67,0-1,1.22-1.22,1.3-.67,1,1Z"/><path class="cls-150" d="M126.16,107.41h-1l1-1c.04.33-.06.68,0,1Z"/><path class="cls-208" d="M131.16,102.41l-1-.5v-2l1-.5c-.11.97.08,2.02,0,3Z"/><path class="cls-245" d="M121.16,105.41c-.31-.04-.69-.03-1,0-.87-.28-.86-.62,0-1h1v1Z"/><path class="cls-281" d="M123.16,124.4l-1-1,1,1Z"/><path class="cls-215" d="M30.18,78.42l.81-1.16c3.47,3.45,7.2,6.51,11.18,9.15,1.17-.99,2.76.59,3,2h1c.9.3.89.63,0,1q-.69,1.53,0,0c.94-1.22,2.99.85,2,2l-1,1.5,2,3-1,.5c-.16-.13-.67.08-1,0-.43,2.66-1.43,3.33-3,2-.31-.11-.73.12-1,0l-1-1c-.34-.08-.75.11-1,0-3.44,1.15-8.01-4.65-10-8-2.06-1.19-8.39-11.13-3-9,.89.28.87.62,0,1,2.12.86,2.92-.01,2-2-.87-.28-.86-.62,0-1Z"/><path class="cls-35" d="M41.18,97.41l-1,2c-.86.42-1.79-.09-2-1-.75.47-1.11-.21-1-1h-1c-1.05-.2-2.15-.92-2-2-1.63.16-2.56-.97-1-2-1.04-.75-2.08-1.66-2-3-.81-.29-.8-.62,0-1,1.56,1.92,7.95,7.1,10,8Z"/><path class="cls-18" d="M49.18,103.41v1c-.66,0-1.35.07-2,0l-2-1c-.99-.68-.94-.96-1-1-1.55-.85-1.22-1.19,1-1,1.53.56,3.08,1.57,4,2Z"/><path class="cls-35" d="M47.18,96.41v3c-2.34.76-2.83-.94-3-1h2v-1.5l1-.5Z"/><path class="cls-202" d="M45.18,101.41l-1,1c-.11-.07-1.42-.69-2-1-.58-.3-.57-.63,0-1,.29-.66.63-.65,1,0,.72,1.63,1,.63,2,1Z"/><path class="cls-291" d="M42.18,100.41v1c-.65-.34-1.3-.63-2-1-.6-.3-.58-.63,0-1,.32.07.68-.07,1,0,.68.11,1.12.19,1,1Z"/><path class="cls-35" d="M43.18,100.41h-1l-1-1c.47.1,1.05-.17,1.5,0,.68.19.38.73.5,1Z"/><path class="cls-35" d="M43.18,98.41c-.43-.18-1.15.09-1-1,.66.15,1.12.04,1,1Z"/><path class="cls-63" d="M61.18,79.42c1,2.19,1.56,7.05,2,8l-2-1.5,1,4-2,4.5-2.5-1-1.5,2c-.29.66-.63.64-1,0-1-1.76-1.69-1.87-3-3-2.63-.23-4.85-2.77-6-5-2.84-.53-6.72-4.18-7-7,.92-6.69,7.22-3.65,7,1,3.53-3.19,11.12,4.38,4,4,2.38-.52,3.16-1.07,5-3-1.42-1.41-1.34-5.15,1-5,2.36-2.37,2.4,1.65,2.27,1.47-.89-1.24-1.06-2.34.73-2.47,1.52-.36,2.57,1.72,2,3Z"/><path class="cls-63" d="M59.18,97.41l-1-1,1-1c.02.66-.04,1.34,0,2Z"/><path class="cls-85" d="M52.18,92.41l-1,1c-.83-.43-2.42-1.45-3-2-.31-.3-.79-2.17-2-2,.08-.24,0-.66,0-1-.47-.25-.43-.59,0-1,1.9,1.71,4.06,3.33,6,5Z"/><path class="cls-13" d="M56.18,96.41h-1c-.12-.3.14-.76,0-1h1c.06.32-.07.69,0,1Z"/><path class="cls-22" d="M51.18,104.41v1c-.51-.06-1.09.16-1.5,0l-.5-1c.66,0,1.35.06,2,0Z"/><path class="cls-333" d="M132.16,78.42c.77,1.06.33,2.04-1,2-1.67,1.68-4.09,2.36-5,3-1.16.18-.93-.98-1-1-.71-1.33-.27-1.82,1-1l1-1c-.77-1.41.96-5.6,3-4,1.89-2.16,3.44-.41,2,2Z"/><path class="cls-65" d="M133.16,79.42v1c-.48.23-1.16.31-1.5,1l-.5-1c.12-.13.89-1.55,1-2,.28-.87.62-.86,1,0,.61.28.59.62,0,1Z"/><path class="cls-275" d="M130.16,73.42c2.84.84,2.42,1.51,0,3-1.24.72-1.86,2.66-3,4l-1,1c-.07.07-1.18-.14-1,1-.21-.08-.68-.01-1,0-.66-.29-.64-.63,0-1-.52-1.13.92-2.34,2-3-.43-1.07-.1-2.51,1-3l2-5c.28-.87.62-.86,1,0,.79.77.69,2.13,0,3Z"/><path class="cls-30" d="M124.16,82.42c-.33.01-.67-.01-1,0v-1c.3-.58.63-.57,1,0v1Z"/><path class="cls-256" d="M115.16,81.42l1-1c-.41,1.34-.84.87-1,1Z"/><path class="cls-64" d="M103.17,121.4c.24-.85.58-.83,1,0l3,1c2.18.36,2.85,1.02,2,2-1.52.05-3.61.22-5,0l-1-1c-.23-.16-.81.16-1,0-1.4-.85-2.07-1.84-2-3h1l2,1Z"/><path class="cls-103" d="M109.17,122.4c.19-.89.52-.85,1,0,.81-.89,2.14-.6,3,0,.76.08,1.1.13,1,1-.05.02.18.83-.5,1-1.12.27-3.12-.04-4.5,0l-2-2c.35-1.47,1.11-1.31,2,0Z"/><path class="cls-159" d="M123.16,116.4c.63.3.61.63,0,1-.9,1.19-1.23,1.26-2,2l-1-1c-.87-.25-.85-.58,0-1-1.01-1.49-.56-2.03,1-1,.3-.88.64-.87,1,0,.26-.9.6-.88,1,0Z"/><path class="cls-161" d="M121.16,119.4c-.24.23-.42.51-1,1l-1-1c-2.5-.43-1.12-2.72,1-1l1,1Z"/><path class="cls-223" d="M140.16,111.4c.63.3.62.63,0,1,.79.76.46,1.1-1,1-1.03-.69-2.01-1.67-3-2h-1c-.64-.27-.62-.6,0-1l1-1c1.77-1.57,3.97-.13,4,2Z"/><path class="cls-126" d="M141.16,112.4c.25-.9.58-.88,1,0,.64.3.62.63,0,1-1.33.35-.82.74-1,1-.29-.04-.72-.05-1,0,.17-1.15-.8-.86-1-1-.12-.96.34-.85,1-1,.32-.61.65-.6,1,0Z"/><path class="cls-359" d="M136.16,109.41c-.27.56-.61.54-1,0-.43-.18-1.15.09-1-1,.2-.06.8-.06,1,0,1.7-1.41,2.29-.85,1,1Z"/><path class="cls-299" d="M135.16,110.41v-1c.26.11.67-.07,1,0,.17,1.15-.81.87-1,1Z"/><path class="cls-400" d="M102.17,75.42c-.03.82-.19,2.6,0,3,.95,1.32.48,1.82-1,1-.24-.78.34-1.78-1-2.5-.03-.83.04-1.68,0-2.5.28-.87.62-.86,1,0l1,1Z"/><path class="cls-240" d="M101.17,74.42h-1c-.02-.33-.02-.67,0-1,.03-.49-.04-1,0-1.5l1-.5c1.04.28,1.04,1.27,0,3Z"/><path class="cls-34" d="M111.16,108.41c1.46-.78,3.47-.82,5,0,.29-.65.63-.64,1,0,.87.28.86.62,0,1-2.1.3-4.44.63-7,1-.21.68-.55.64-1,0-.82-.04-1.67.03-2.5,0l-.5-1c.32,0,.69.05,1,0l2-1c.49-.14,1.35.02,2,0Z"/><path class="cls-6" d="M118.16,106.41c.48.07,1.03-.13,1.5,0,.3.7,1.12.79,1.5,1v1c.06,1.42-1.24,1.02-2,0l-3-1v-1c.33.01.67-.02,1,0s.68-.04,1,0Z"/><path class="cls-397" d="M116.16,107.41c.87.28.86.62,0,1-1.66,0-3.34-.06-5,0l.5-1c1.5.05,3.01-.08,4.5,0Z"/><path class="cls-168" d="M109.17,108.41c-.13.04.45.61-2,1l2-1Z"/><path class="cls-217" d="M117.16,9.45l-1,2c2.02.75.92,2.53-1,2-.28.87-.62.86-1,0,.16-.89-.26-2.45,0-3,.06-.13.47-.15,1-2,.31-.76.64-1.09,1-1,.28-.87.62-.86,1,0,1.58.29,1.44,1.21,0,2Z"/><path class="cls-90" d="M111.16,14.45c.42.31.4.64,0,1-.47.4-.47.73,0,1,.87.28.86.62,0,1,.87.28.86.62,0,1-.97-.28-1.18-.99-2-1,.04-.66,0-1.34,0-2v-2c.33-.05.68.06,1,0l1,1Z"/><path class="cls-274" d="M110.17,11.45l-.5,1c-.84-.52-.54-1.07.5-1Z"/><path class="cls-59" d="M111.16,14.45c-.42-.18-1.15.09-1-1,.32-.06.68.07,1,0,.89.18.86.52,0,1Z"/><path class="cls-259" d="M115.16,13.45c1.67.41,1.5,1.22,0,2,.86.28.84.61,0,1,.17,1.5-.93,2.52-2,1-.88-.33-.88-.66,0-1-1.21-1.64-1.21-2.64,0-3,.28.1.68-.08,1,0h1Z"/><path class="cls-86" d="M113.16,13.45c.03.99-.05,2.01,0,3-.79,1.1-1.46.43-2-2,0-.33,0-.67,0-1,.99-.22,1.36-.99,1.5-1,.63-.04.45.98.5,1Z"/><path class="cls-98" d="M119.16,9.45l-1,1c-.33.82-.66.82-1,0-.66-.29-.65-.63,0-1-.02-.66.04-1.34,0-2,1.16.18.93-.97,1-1,.2-.08.68-.01,1,0v3Z"/><path class="cls-337" d="M38.18,50.43c.3-.58.63-.57,1,0,.69-1.47,2.33-1.49,3,0l2.68.82c1.6-.49,3.72-.71,3.32,1.18,3.73,1.17,9.42,12.61,3,11-1.8-.11-5.98-1.98-6-4l2-2.5-1.5-1.5c-1.24,1.95-1.5,0-2,0-.34,0-1.04,1.67-2,1l-2.5-5-3,1c.07-.65-.14-1.46,0-2,.94-.99,1.72-1.49,2,0Z"/><path class="cls-20" d="M45.18,59.43c2.32,1.33,3.84,2.33,6,4,1.96-1.84,2.41-1.72,2,1,.1.09.84,1.83,1,2,.56.46.23.8-1,1-1.69,2.02-7.19-2.57-7-5-2.41,1.5-4.29,1.1-4-2-1.77,2.49-5.54-.15-5-3,.35-.57,1.01-.9,2-1,1.81.67,4.28,2.01,6,3Z"/><path class="cls-388" d="M41.18,48.43c1.49-1.12,5.38-2.37,6,0,.62.08,1.74.7,3,1,1.37,1.02,1.04,1.35-1,1-1.1,1.4-5.04.88-7,0-.99-.03-2.01,0-3,0-.4-.47-.73-.47-1,0h-2c.25-.97.84-1.36,1.5-2,1.17-.04,2.34.05,3.5,0Z"/><path class="cls-264" d="M47.18,45.43v3c-1.73-.21-4.18-.09-6,0,.41-2.43,2.52-1.61,3.5-2,.71-.28.45-.98.5-1,.51-.14,1.35.02,2,0Z"/><path class="cls-374" d="M34.18,55.43c1,.74.67,1.07-1,1-2.15,2.44-7.42.27-6-3,.14-.72.49-.66,1,0,3.14.36,3.72.93,6,2Z"/><path class="cls-222" d="M39.18,56.43l-.5,1h-1.5c-1.29,2.55-4.13,1.94-4-1l1-1c.59.28,3.74.53,5,1Z"/><path class="cls-229" d="M28.18,53.43c-.32-.04-.67,0-1,0-.19,2.65-.86,2.65-2,0-.09-.3.07-.68,0-1,.79.12,1.68-.08,2.5,0l.5,1Z"/><path class="cls-374" d="M25.19,51.43v1c-2.45-.36-1.88-.95-2-1,.3-.57.63-.55,1,0,.33-.05.68.06,1,0Z"/><path class="cls-37" d="M76.17,67.42l-1-.5v-2.5c.05.17.77.41,1,3Z"/><path class="cls-37" d="M77.17,61.43c.13.55-.03,1.34,0,2l-2-5,1,.5c-.31,1.18.75,1.42,1,2.5Z"/><path class="cls-37" d="M75.17,63.43h-1v-2s.74-.2,1,.5c.19.5-.14,1.13,0,1.5Z"/><path class="cls-124" d="M55.18,50.43c.07.03-.33.37,1,1,.98,1.44.48,1.85-1,1-.44,3.77-4.57-.17-6-2l1-1c1.53.37,1.98.84,2.5,1,.7.22,1.93-.23,2.5,0Z"/><path class="cls-130" d="M22.19,49.43c.27,1.62,1.99.45,2,2h-1c-.57-.23-2.3-.1-3-1-.65-.33-.65-.67,0-1h2Z"/><path class="cls-166" d="M108.17,26.44c.95,1.54.28,3.87-2,7,.6,1.37-1.48,4.21-3,3-3.23,1.88-3.23-.12,0-6,1.75-1.98,2.08-2.98,1-3,.29-.37.87-1.45,1-2,.32.06.69-.07,1,0,1.02.24,1.17,1,2,1Z"/><path class="cls-12" d="M114.16,22.44c.07.98-.12,2.03,0,3,.12,1.64-1.51,1.45-2,0l-2-1c-.77-3.06,1.87-3.64,3-6,1.59-.25,3.16,2.9,1,4Z"/><path class="cls-337" d="M110.17,26.44c1.19,1.44-.45,4.69-2,5v1c-.17,1.08-1.17,1.7-2,1l-2,1c-.93-1.1,3.6-5.04,4-6.5v-1.5c.8,0,.99-.5,1.5-1,.63-.04.45.94.5,1Z"/><path class="cls-184" d="M111.16,27.44c1.17.74.03,2.18-1,3,1.44,1.08.78,2.42-1,2-.58-.14-1-.33-1-1l2-3.5v-1.5c.05.05,1.18-.13,1,1Z"/><path class="cls-84" d="M114.16,25.44c.23,1.77.04,2.14,2,3,.89.5.61,1.3,0,2-2.45-.72-4.08-.47-4.89.74l-1.11-.74c.95-1.07.75-2.48,1-3,.06-.12,1.52.07,1-2h2Z"/><path class="cls-86" d="M113.16,17.45c.88.25.86.58,0,1-.64-.07-1.49.15-2,0v-1c.15-1.57.82-1.57,2,0Z"/><path class="cls-393" d="M101.17,31.44c2.14,2.01.6,4.22-4.62,6.63-2.61,2.19-5.4,3.97-8.37,5.36,1.9,3.24-1.2,3.79-4,4-.28.87-.62.86-1,0-.58-1.23.87-3.11,2-4,1.16-4.2,2.83-6.2,5-6,1.79-2.43,3.46-3.43,5-3,2.51-1.69,3.5-2,6-3Z"/><path class="cls-362" d="M95.17,34.44c-1.34.9-2.46,1.75-3.5,3h-1.5c-1.19-.18-.86-1.18,1-3,.2-.05,1.12-1.84,3.5-1l.5,1Z"/><path class="cls-157" d="M104.17,27.44l2,.5c-.95,1.63-2.79,1.17-3,2.5-.28.87-.62.86-1,0,.29-.56.68-1.54,1-2,.66-.95.96-.94,1-1Z"/><path class="cls-321" d="M101.17,31.44c.45-1.38.97-.94,1-1,.91,1.64.5,2.17-1,1Z"/><path class="cls-225" d="M90.17,37.44c-1.46,2.28-3.51,3.73-5,6-.3.51-.64.5-1,0-1.17-.86-.35-2.28-.39-2.17-1.11,2.83-2.38,4.75-3.61,1.17-.3.57-.63.56-1,0,2.49-2.86,3.36-4.38,7-6,.68-.3,2.56-.55,3.5-1l.5-1c.34-.04.7.07,1,0v1.5c-.71.27-.81,1.2-1,1.5Z"/><path class="cls-247" d="M80.17,42.44c.54,1.48,1.21,2.81,2,4,.86.28.85.62,0,1,.6.23.56.57,0,1-.53.23-1.94,1.87-2,2-3.01,7.32-4.58-1.07-3-5,.88-1.53.45-1.21,2-3h1Z"/><path class="cls-383" d="M84.17,49.43c1.93.84,1.07,2.43-1,2l-1,2c1.98-.09,1.55,1.03,0,2,1.5,2.37,1.17,4.37-1,6,.76.2.72.54,0,1-.28.87-.62.86-1,0-.16-1-1-1.35-1-1.5,0-.34.94-.62,1-1,.23-1.37-.15-3.06,0-4.5.79-1.92,1.51-4.89,2-7l1-1h1c.91.31.67,1.43,0,2Z"/><path class="cls-38" d="M77.17,45.43v5.5l2,1.5v-1.5l1-.5c-.16.33.25,1.06,0,1.5-.92,1.64-1.9,3.16-3.5,4.5l.5-2h-2c1.64-2.36.85-5.15,1-8-.17-1.15.96-.94,1-1Z"/><path class="cls-216" d="M19.19,94.41c.3-.64.63-.63,1,0,1.94.45,4.04,3.13,4,5,.66.29.64.63,0,1,.69,1.24.21,1.69-1,1-1.58-1.49-3.67-3.3-5-5-.26-.33-.73-1.62-1-2l1.5,1,.5-1Z"/><path class="cls-24" d="M36.18,107.41l-1,1c-3.38-1.06-5.39-2.43-8-4-.6-.3-.58-.63,0-1l9,4Z"/><path class="cls-284" d="M25.19,100.41c1.2-.63,1.66-.2,1,1,.24.28.87,1.49,1,2v1c-.49-.29-1.59-.7-2-1-1.25-.91-1.38-1.41-2-2-.12-.96.33-.85,1-1,.33-.65.66-.65,1,0Z"/><path class="cls-242" d="M19.19,83.42c.29-3.73,3.52-1.02,3.07,1.91l1.93,1.09c2.4-.31,6.49,5.7,6,8h-3c-1.12,1.19,3.32,4.64,4,5.5l-2,.5c-2.26.26-3.6-.41-4-2-2.39-.67-4.7-4.39-4-7-.9-1.33-1.56-2.66-2-4v-4Z"/><path class="cls-72" d="M20.19,74.42c1.89,2.77,3.22,6.1,4,10,1.4.36,1.83,1.86,0,2l-1.5,2c-1.92-1.88-3.45-2.45-1.5-5h-2c.74-1.89-1.76-2.64-2-3.5-.19-.69-.15-3.18,0-4,.41-2.23.83-3.47,1-6.5,1.13-1.88,1.8-.21,2,5Z"/><path class="cls-326" d="M19.19,87.42c.6.92,1.04,1.83,2,2.5v1.5c-1.67,3.47-2.66-2.99-1.98-2.28.21.22,0,1.61-1.02,1.28-.36-.97-.66-2.16-1-3l-1-1c-.16-.92.09-2.02,0-3,.73.32,2.37,3.04,3,4Z"/><path class="cls-267" d="M21.19,91.41c1.56,2.1,3.56,4.72,4,7,.87.33.87.66,0,1-.29.65-.63.64-1,0-1.03-.47-3.69-2.75-4-3.5-.2-.48.14-1.11,0-1.5l-1-1c-.08-.33.11-.74,0-1l-1-1c-.11-.29.11-.71,0-1l.5-2c1.46.86,1.33,2.27,1.5,2.5.54.71.97.45,1,.5Z"/><path class="cls-27" d="M17.19,87.42c-.03-.07-.76.36-1-1l1,1Z"/><path class="cls-326" d="M19.19,92.41c-.03-.07-.47.37-1-1l1,1Z"/><path class="cls-326" d="M20.19,94.41h-1v-1c1.05-.14.82.48,1,1Z"/><path class="cls-231" d="M21.19,72.42c.33.79,0,1.46-1,2-.02-.05-.83.18-1-.5-.27-1.1.18-2.75,0-4-.15-.62-.58-.43-1-.5.06-.99-.06-2.01,0-3-1-1.54-.7-3.1,1-2,1.91,1.2,2.76,6.07,2,8Z"/><path class="cls-228" d="M18.19,60.43c1.71,2.22,2.04,3.55,1,4l-1,.5c-.04.5.03,1.01,0,1.5l-1-.5v-3.5c.23-.51-.15-1.74,0-2.5l1-.5c.02.33-.05.68,0,1Z"/><path class="cls-340" d="M27.19,53.43l.5,1c1.88.48,3.56,1.28,5.5,2,.98.36,3.06.62,4,1,1.45.59,3.66,2.34,5,3,3.88,4.71-7.38,4.58-10.65,4.05-1,2.97-2.43,3.08-4.34.94-1.86-1-4.03-3.94-4-6,2.82.15,3.27,2.8,3-2h-2v-1h2c.41-1.41-.65-1.83-1-3h2Z"/><path class="cls-48" d="M18.19,60.43l1,.5c-.55,2.03,1.33,1.33,3,2.5.42-1.42-.66-1.83-1-3,2.6-.44,7.83,7.42,6,9-.52,1.46-1.29,1.14-2.32-.94-1.43.73-4.6,1.28-2.59-.94,1.65-1.83,7.74,5.44,1.92,5.87l-2,1c-1.43.55-1.76-.8-1-2-.81-2.74-1.39-5.33-2-8-.31-1.35-.7-2.18-1-4Z"/><path class="cls-195" d="M23.19,59.43c1.44,1.89,2.64,4.04,4,6,2.75.16,5.39,3.2,5,6,.87.28.86.62,0,1,.71,1.63.6,1.93-1,1-.33.85-.67.85-1,0-2.65,1.03-4.71-1.58-3-4v-1.5c-2.07-2.49-3.03-6.07-6-7.5-.09-.31.09-.7,0-1,.15-.58.32-1,1-1,.05.05.41.22,1,1Z"/><path class="cls-357" d="M22.19,58.43h-1c-.37-.53-2.78-.93-2-3h.5c1.11.65,1.77,2.13,2.5,3Z"/><path class="cls-178" d="M20.19,50.43l-1-.5,1-.5c.08.33-.13.83,0,1Z"/><path class="cls-199" d="M18.19,58.43c-.98.12-.84-.37-1-1,.96-.12.85.34,1,1Z"/><path class="cls-15" d="M21.19,59.43c-.11-.34.14-.8,0-1h1l-1,1Z"/><path class="cls-172" d="M26.19,85.42c.3-.64.63-.63,1,0,.87.31.87.64,0,1l2,2c.96-.32,1.58,1.09,1,2l3,3c.26.33.73,1.62,1,2,1.32,1.4.77,1.92-1,1-.75-.59-2.37-1.41-3-2-1.11-1.04-5.66-7.24-6-8-.17-.37.09-1.37,0-2-2.15-3.54,1.8-2.37,2,1Z"/><path class="cls-69" d="M25.19,98.41h1.5l1,1,1.5-1v4l-2-1q.78-.52,0,0h-1c-.05-.05-1.18.14-1-1-.66-.29-.64-.63,0-1-.05-.33.06-.68,0-1Z"/><path class="cls-207" d="M36.18,97.41v1c-.95-.64-2.11-1.3-3-2l1-1c.09.13,1.26.45,2,2Z"/><path class="cls-328" d="M40.18,99.41v1c-.66-.35-1.18-.54-2-1-.68-.29-.66-.63,0-1,.6.36,1.34.85,2,1Z"/><path class="cls-153" d="M38.18,98.41v1c-.58-.33-.87-.24-2-1,.14-.58.33-1,1-1,1.15-.17.94.96,1,1Z"/><path class="cls-22" d="M47.18,104.41c-2.29-.26-1.65-.76-2-1h1.5l.5,1Z"/><path class="cls-22" d="M41.68,104.41c.65,0,.65,1,0,1s-.65-1,0-1Z"/><path class="cls-111" d="M140.16,62.43c.04,2,.39,5.9,0,7.5-.17.68-.98.45-1,.5l-1-3c-.92-.1-.87-.44,0-1-.88-.25-.86-.58,0-1l1-1c-.83-1.45-1.28-4.64,0-6,.28-.87.62-.86,1,0,.14,1.26-.03,2.68,0,4Z"/><path class="cls-99" d="M140.16,58.43h-1c-.57.82-.91.49-1-1-1.99-.23-1.91-1.23,0-2-.88-.19-.85-.52,0-1-.54-.18-.49-.53,0-1h1c-.34,2.09.79,3.06,1,5Z"/><path class="cls-93" d="M125.16,36.44c.15.23-.15.76,0,1,2.29,1.72,7.39,8.34,3,8-1.43.05-3.21-2.54-3-4-1.4.64-1.65-.79-1-2l-1.09.35c-1.29-2.16-2.59-4.27-3.91-6.34-1.47-.53-1.58-1.75-1-3l.5-2c1.46.86,1.34,2.29,1.5,2.5,1.3,1.68,4.09,4.12,5,5.5Z"/><path class="cls-165" d="M117.16,18.45v2c.31-.28.64.05,1,1v3c-.24-.17-.71.33-1-1-.38-.69-.72-1.02-1-1-.4.17-1.37-.09-2,0-.18-2.41-.97-3.77-1-4-.05-.33.04-.67,0-1,.98-.28,1.18-.99,2-1,2.11-.88,3.93.14,2,2Z"/><path class="cls-21" d="M116.16,28.44c.24.11.83-.18,1,.5v2.5l1-1,1,.5c.04.83-.06,1.68,0,2.5.92.73,1.12,1.29,0,2-1.15,0-4.48-2.95-3-4-.89-.3-.89-.64,0-1-.06-.65.03-1.34,0-2Z"/><path class="cls-165" d="M116.16,23.44l1,3h-2c.04-1.34-.5-3,1-3Z"/><path class="cls-60" d="M117.16,23.44h-1v-1c.07-.03-.16-1.18,1-1,.06.65-.12,1.43,0,2Z"/><path class="cls-169" d="M134.16,43.44c.61.83,1.52,1.71,2,2.5.26.43-.17,1.19,0,1.5,1.17,1.39.66,1.94-1,1-2.34.79-4.35-4.16-3-6v-1c.35.42,1.72,1.61,2,2Z"/><path class="cls-117" d="M138.16,53.43c.03.33-.01.67,0,1-1.35.81-1.82.32-1-1-3.1-1.86-3.77-3.53-2-5l1-1s.7-.21,1,.5c.9,2.13.78,3.16,1,5.5Z"/><path class="cls-58" d="M127.16,38.44c2.17-.02,3.62,2.25,4,4,1.02,3.41,2.46,8.05,6,11,.18.51-.05,1.14,1,1,.01.33,0,.67,0,1-.23,1.4-1.9,2.06-5,2-.19.7-.36,1.25-.5,1.24-.76-.05-3.34-9.73-3.5-11.24-1.45.29-1.94-.97-1-2l1-1.5c-1.65-2.01-2.66-4.36-4-6.5l2,1Z"/><path class="cls-19" d="M132.16,41.44c-.14.59-.33,1-1,1-2.59-.5-1.18-3.68-3.5-3l-.5-1,.5-1c2.29,1.11,2.92,2.07,4.5,4Z"/><path class="cls-177" d="M117.16,15.45c.26-.83,1.47-.72,2,0-.06.32.08.69,0,1-.37,1.46-1,2.02-1,5-1.13.18-.95-.95-1-1-1.02-.97-1.42-1.61,0-2-.46-1.63-1.92-1.88-2-2-.1-.16.03-.64,0-1,.32-2.31,1.41-2.26,2,0Z"/><path class="cls-352" d="M139.16,70.42c-.54,1.31-1.09,4.12-2,5.5-.75,1.13-2.72,2.84-4,3.5.08-.31-.1-.71,0-1-2.41-1.59-.36-5.16,2.03-4.39l.97-1.61c-.65-1.67-.41-4.59,2-3,.36-.08.69.26,1,1Z"/><path class="cls-176" d="M149.16,89.41c.65.03,1.51-.14,2,0,.13.04-.43.59,2,1,.85-.38,1.52-.38,2,0l-2,1c.05,1.23-.95,1.23-3,0-3.27-.32-4.6-.99-4-2,.85-.15,2.06-.04,3,0Z"/><path class="cls-50" d="M150.16,91.41c-.66.74-1.37.72-2,0-.86.75-2.13.74-3,0-.87-.28-.86-.62,0-1,.07-.01-.37-.76,1-1l.5,1h3l.5,1Z"/><path class="cls-176" d="M145.16,90.41v1c-.85,1.1-1.25,1.43-2,0-1.57.78-1.94.58-1-1,.31-.09.69.08,1,0,.55-.14,1.4.12,2,0Z"/><path class="cls-156" d="M118.16,10.45c.17.14.03,1.57,2,1l-3,3c.87.28.86.62,0,1h-2c-.05-.61-.13-1.5,0-2,.03-.13.44-.02,1-2,.3-.73.63-1.07,1-1,.07-.05.94-.05,1,0Z"/><rect class="cls-158" x="117.16" y="14.45" width="2" height="1"/><path class="cls-329" d="M143.16,108.41c.25-.87.58-.85,1,0l1,1c.39-1.83,1.25-1.7,2,0,1.79.8,5.14.99,7,0,.69-.27,1.88-.05,3-1l1,1c-.17.1-1.96,1.53-2,2-.63.63-1.36.59-2,0-2.21.99-5.73.82-8,0l-1-1c-.15.85-1.41.69-2,0l-1-1c-1.78,1.44-2.37.88-1-1,.25-.87.58-.85,1,0,.27-.62.6-.6,1,0Z"/><path class="cls-88" d="M159.15,98.41c-1.41-1.83-.84-2.37,1-1l-1,1Z"/><path class="cls-356" d="M161.15,112.4l1-1c-.27.55.17.64-1,1Z"/><path class="cls-356" d="M159.15,113.4c-.12-.96.34-.85,1-1,.13,1.01-.42.82-1,1Z"/><path class="cls-287" d="M83.17,55.43c2.84-1.91,5.17-1.91,7,0,1.67-.2,1.5,1.44,0,2,.51,1.11.15,2.66-1,3-1.75,2.06-3.08,2.06-4,0-1.26.2-2.99-.63-3,1-.28.87-.62.86-1,0,0-1.59-.31-4.22,0-5.5.17-.69.99-.44,1-.5.28-.87.62-.86,1,0Z"/><path class="cls-272" d="M89.17,60.43c1.34,1.19,1.28,4.75,0,6l-3,2.5,2,3.5c-3.67-1.4-2.64-4.17-3.5-7l.5-5c1.02-.16,1.74.27,2.5-1l1.5,1Z"/><path class="cls-163" d="M91.17,58.43c-.35,2.31-.39,10.26,0,12.49.03.14.71,1.71,1,2.5h-1c-1.35-2.88-1.73-3.11-2-7-.13-1.87-.1-4.11,0-6,.15-2.76.95-2.82,1-3,1.3-1.32,1.66-.76,1,1Z"/><path class="cls-272" d="M83.17,70.42c-.56-1.84-1.38-3.69-2-5-.98-.38-.69-2.16,0-3-.02-.33,0-.67,0-1h1l1,2.5-1,1c1.89,1.43,2.33,2.6,2,5l-1,.5Z"/><path class="cls-272" d="M83.17,71.42h2c.18,1.16-.97.93-1,1-.96.12-.85-.34-1-1Z"/><path class="cls-279" d="M81.17,65.43v1.5l-1,.5c-.09-.64.09-1.37,0-2-.14-.96.15-2.05,0-3h1c.06.91-.22,2.53,0,3Z"/><path class="cls-113" d="M54.18,57.43c2.24,1.98,3.58,3.98,4,6h-2v2l-1.5-1h-1.5c-.24-.21-1.7-.77-2-1l2-2.5c-1.34-1.58-2.28-3.46-2-5.5l-3-3c1.31-2.59,7.6,1.88,6,5Z"/><path class="cls-327" d="M62.18,64.43c.87.28.86.62,0,1l-1.5,1c-1.14-.74-1.74-2.08-2.5-3-1.81-2.18-3.34-2.85-5-5.5l1-.5c-.69-1.64-.6-1.93,1-1,2-1.81,8.47,5.38,7,8Z"/><path class="cls-180" d="M62.18,78.42c-.13.59-.33,1-1,1-.28-.6-1.48-2.28-2-3-1.86.85-2.66.03-2.4-2.47-2.58-2.29-3.44-4.13-2.6-5.52.13-.59.33-1,1-1,2.77,3.38,5.29,6.37,7,11Z"/><path class="cls-94" d="M65.18,66.42c1.95.31,2.52.43,1,2l-2,1v-2h-2v-3c.84-3.56,4.5-.65,3,2Z"/><path class="cls-318" d="M68.18,68.42c.28-.87.62-.86,1,0-.04.33.03.67,0,1,.58.3.57.63,0,1l-1.5,1-1.5-3c.27-1.71,1.65-1.91,2,0Z"/><polygon class="cls-296" points="70.17 71.42 69.17 70.42 69.17 69.42 70.17 69.92 70.17 71.42"/><path class="cls-355" d="M55.18,67.42h-1c-.3.88-.63.87-1,0l1-1c.19.2.48.37,1,1Z"/><path class="cls-71" d="M62.18,79.42c-.33-.04-.67.03-1,0l1-1v1Z"/><path class="cls-129" d="M70.17,66.42l-1,.5c-.07.5.06,1.01,0,1.5h-1c-1.94-.25-1.85-2.09,0-3-1.39-1.85-.82-2.39,1-1,.33.68.68,1.31,1,2Z"/><path class="cls-128" d="M72.17,70.42l-1-1c.03.06.7-.37,1,1Z"/><path class="cls-128" d="M73.67,70.42c.65,0,.65,1,0,1s-.65-1,0-1Z"/><path class="cls-181" d="M123.16,112.4c-.03.33.03.67,0,1-.37,1.03-.71,2.03-1,3-.33.09-.76-.12-1,0-2.56-.82-2.97-3.18,0-4,.25-.47.59-.43,1,0,.34,0,.72.06,1,0Z"/><path class="cls-200" d="M27.19,69.42c1.62.71.93,1.42,1,1.5.7.76,1.87,1.45,2,2.5,2.02,1.15.97,3.23,0,5v1c2.12,3.52,1.12,4.91-2,2-.14-.24.14-.74,0-1-1.19.03-1.59,0-1-1-.9-.12-1.24-.46-1-1-1.9.23-2.76-3.49-2-5-.33-2.02,2.23-2.63,0-4.5-1.86-1.56-.07,1.99-2,1.5l-1-4,2.5-1c1.71,1.06,1.13,2.96,3.5,4Z"/><path class="cls-96" d="M42.18,86.42c.16,3.77-.64,1.24-2,.5-4.22-2.29-7.13-8.02-10-8.5-1.52-.25-.75-1.01-1-1.5-.39-.74-1.48-.86-1-2.5l2,1v-2c.33.08.83-.13,1,0,3.65,2.69,8.82,8.51,11,12.99Z"/><path class="cls-43" d="M24.19,73.42c1.95,2.62,1.3,3.29,2,5l1,1c.04.06.32-.24,1,1l-2,.5c.23.4.78.61,1,1,1.03,1.87,3.02,6.3,4,7.5v1c-.3.58-.63.56-1,0-.31-.47-.69-1.53-1-2l-2-2c-.15-.2.13-.7,0-1l-1-1c-.48-.3-.46-.64,0-1l-1-1c-2.68-.2-4.02-5.77-3-8v-3h1c-.57,1.98.92,1.89,1,2Z"/><path class="cls-1" d="M30.18,79.42l5,5.5-1,1c1.21,2.45,2.76.22,3,.5l1,4c-1.8.29-2.2,0-3.5-1-1.2-.92-3.58-3.3-4.5-4.5-.29-.38-1.44-2.55-2-3.5h2v-2Z"/><path class="cls-101" d="M39.18,80.42c2.39,2.63,4.36,4.63,7,7-.13.59-.33,1-1,1-.85-.43-2.39-1.43-3-2-3.27-3.05-6.45-7.31-9-10.5-.43-.54-1.87-2.4-2-2.5l1-1c2.34.39,8.79,5.28,7,8Z"/><path class="cls-35" d="M46.18,89.41v3h-1c-.76-2.36.94-2.83,1-3Z"/><path class="cls-109" d="M46.18,88.42h-1l1-1c0,.33,0,.67,0,1Z"/><path class="cls-215" d="M33.18,93.41c-1.53-.4-2.22-1.81-3-3h1c.5,1.03,1.31,2.12,2,3Z"/><path class="cls-290" d="M36.18,98.41c-.08-.33.11-.76,0-1h1l-1,1Z"/><path class="cls-28" d="M46.18,62.43c.69.43,2.39.92,2.5,1,1.49,1.11,2.72,3.41,4.5,4,.26.09.65-.04,1,0v1c.32,1.5,2.26,2.34,3,3.5.61.95,1.05,3.17,2,4.5v3c-1.23-.33-1.67-1.42-3-2-1.31,2.16-3.91-1.24-1-2-.24-1.04-.91-2.04-2-3-1.79,1.44-2.38.87-1-1,.6-.83.26-1.16-1-1-2.38-.34-4.69-1.11-6.93-2.33-6.28,2.26-3.17-.28-3.15.02.06.89-.42,1.62-.92,2.32-2.18,5.16-6.38-2.52-4.19-5.23.35-.43,8.92-3.58,10.19-2.77Z"/><path class="cls-146" d="M40.18,70.42c-2.66-4.23-.16-2.18,1.5-3,2.36-1.17,1.57.39,3,0,.41-.11.67-1,1-1,.18,0,2.42,1.76,3,2,.54.23,1.32-.17,1.5,0,.09.09.1.78,1,2,.69-.12,1.03.28,1,1-.17,1.15.77.86,1,1,.94.89,1.6,1.89,2,3-.61,1.31.04,1.58,1,2v1.5c-1.17.76-1.25,2.13-1,3.5-.28.87-.62.86-1,0-2.17-2.06-6.37-6.77-6-10-.83,1.1-4.16-.3-4.13-1.72l-1.87.72c-1.41,1.37-2.24.94-2-1Z"/><path class="cls-96" d="M32.18,71.42c-2.3-4.35,6.13-2.07,6.51,1.84,2.16-4.3,10.04,5.33,10.36,6.89.09.47-1.94,2.06-2.87,1.27-1.57-.69-1.39-4-5-3-.28.23,1.95,1.8-.5,3l-1.5-1c-.99-1.09-1.52-1.94-2-2.5-1.59-1.84-3.89-3.3-5-5.5v-1Z"/><path class="cls-277" d="M46.18,62.43l-3.5,3-2-1-3.5,2,1,4c.64.08,1.5-.15,2,0,.72.22,1.35.64,2,1,1.7-2.21,3.33-.34,3,2,3.55,1.95,6.55,4.95,9,9h1c.19,1.01,1.04,1.14,1,2l-3.5,2-2.5-1,2-1.5-2-2.5-1.5,2c-.78-.87-1.39-1.51-2.5-2l1.5-3c-1.97-.35-4.65-2.89-4.5-5-.48.06-1.07-.17-1.5,0-1.46.58-1.13,2.42-2,3l-3.5-2.5,1-2.5-1.5,1-3-2-.5,1c-.34.36-2.6-1.98-3-2.5-.31-.4-1.29-2.47-2-3.5h2.5l-1.5-3c2.85-.15,5.64.64,8-1v2h4l2-3c1.61.79,2.29.92,4,2Z"/><path class="cls-249" d="M133.16,67.42c2.81-2.42,3.81-.75,3,5-.16.35.25,1.07,0,1.5-.77,1.35-2.25,2.33-3,4.5h-1l-2-2c.04-.99-.07-2.01,0-3,.31-.77.65-1.1,1-1-.12-4.74.54-6.4,2-5Z"/><path class="cls-389" d="M126.16,81.42c.23-.22.93-.91,1-1l-1,1Z"/><path class="cls-305" d="M120.16,74.42c-.13.26.12.71,0,1l-1-.5c-.05-.5.04-1.01,0-1.5l1,1Z"/><path class="cls-389" d="M124.16,81.42h-1l1-2c.34-.22.6.3,1-1h1c-.64,1.18-1.58,1.82-2,3Z"/><path class="cls-363" d="M131.16,72.42c-.13.18.15,1.17-1,1,.07-.99-.09-2.02,0-3,1.6-1.69,2.11.64,1,2Z"/><path class="cls-112" d="M108.17,59.43c2.34,1.61,1.81,3.66-1,4h-1c-.71-.86-.71-2.14,0-3-.04-.33.06-.68,0-1h1c.28-.87.62-.86,1,0Z"/><path class="cls-262" d="M107.17,72.42c.12.96-.33.85-1,1-.04-.65-.05-1.35,0-2,.04-.49-.05-1,0-1.5l1-.5c2.7.72,2.54,2.02,0,3Z"/><path class="cls-372" d="M122.16,57.43c.9.18.87.52,0,1,0,.33,0,.67,0,1,.8,2.55.78,5.44,0,8,.01.99-.08,2.02,0,3h-1c-.28.87-.62.86-1,0-.68-.21-.65-.55,0-1,.03-.66-.12-1.44,0-2,.77-3.47.44-3.86,0-8-.03-.33.01-.67,0-1v-1c.28-.87.62-.86,1,0,.28-.87.62-.86,1,0Z"/><path class="cls-183" d="M116.16,62.43c-.75,1.25-.72,2.78,0,4-.02.33.03.67,0,1-.14,1.6-.75,2.35-1,4l-1-1c-2.91-.59-2.89-9.25,0-10v-1c.28-.87.62-.86,1,0,.39.83.83.36,1,3Z"/><path class="cls-131" d="M101.17,120.4c-.3-.09-.68.07-1,0l1-1v1Z"/><path class="cls-395" d="M123.16,116.4c-.32.06-.7-.09-1,0v-2.5l1-.5c-.08.98.05,2.01,0,3Z"/><path class="cls-100" d="M121.16,119.4l-1-1,1,1Z"/><path class="cls-87" d="M108.17,46.43c.03,1.2-1.31,1.53-2,2,.11-.59-.06-1.35,0-2,1.17-.51.71-.54,1-1l1,1Z"/><path class="cls-3" d="M95.17,48.43c-.72,1.31-.7,2.24-1,3-.02.05-.72-.21-1,.5-.43,1.09-.67,3.69-1,5-.08.3-.85.49-1,1.5l-1-1c.15-.55-.16-1.48,0-2-2.17-2.24-.87-5.27,2-6-1.25-2.29-.49-2.71,2-2,1.07-.81,1.52-.31,1,1Z"/><path class="cls-227" d="M105.17,52.43c-1.15.18-.94-.97-1-1v-1.5c.46-.84,1.41-1.1,2-1.5-.24,1.24-.61,2.84-1,4Z"/><path class="cls-168" d="M117.16,109.41c.71.29.7.63,0,1-1,.74-3.04.8-4,0-.66-.03-1.34.01-2,0-.33,0-.67,0-1,0l.5-1h6.5Z"/><path class="cls-386" d="M119.16,108.41c.87.28.86.62,0,1,.88.83.54,1.17-1,1-.32.62-.66.61-1,0v-2h2Z"/><path class="cls-348" d="M117.16,10.45c-.06.04.15,1.17-1,1,.12-.41-.12-.98,0-1.5l1-.5v1Z"/><path class="cls-81" d="M113.16,16.45c.02.33-.04.67,0,1-.51.15-1.36-.07-2,0v-1c-.58-.3-.57-.63,0-1v-1c1.61.7.52,1.91,2,2Z"/><polygon class="cls-86" points="111.16 16.45 110.17 15.95 111.16 15.45 111.16 16.45"/><path class="cls-381" d="M49.18,50.43c1.64.77,3.07.89,4.5,2h1.5c.85.23.82.56,0,1,2.53,1.12,2.52,1.84,0,3l-1,1c.28-.26-3.9-4.76-4.5-5-.48-.19-1.1.13-1.5,0-.67-.22-1.1-.39-1.5-1l-2,1-2.5-2c1.61.05,6.24-.36,7,0Z"/><polygon class="cls-10" points="39.18 50.43 38.18 50.43 38.68 49.43 39.18 50.43"/><path class="cls-360" d="M66.18,58.43c.12.29-.13.73,0,1,.75,1.59,2.08,3.13,3,5-.42.18-1.15-.09-1,1-.28.87-.62.86-1,0-2.41-1.13-6.44-4.35-4-7,.13-.59.33-1,1-1,.18.17,1.53.88,2,1Z"/><path class="cls-127" d="M62.18,55.43c-.14.58-.33,1-1,1-1.47,3.08-4.87-.39-4-3-.86-1.09-.34-1.54,1-1,1.6.94,2.86,2.13,4,3Z"/><path class="cls-309" d="M58.18,52.43l-1,1c-.35,2.61-1.07,2.45-2,0,.05-.36-.1-.78,0-1,.03-.06,1.18.16,1-1,.65.31,1.39.64,2,1Z"/><path class="cls-46" d="M64.18,57.43h-1c-1.65,1.34-2.21.77-1-1v-1c1.16.89,1.39,1.43,2,2Z"/><path class="cls-260" d="M103.17,36.44c.89.3.88.64,0,1l-7,8-1,1c.35.87-.11,1.22-1,1-.61.74-1.25,1.86-2,2-2.73.68-4.06-1.32-4-6,3.78-4.35,7.64-8.25,13-10,.08-.64-.15-1.52,0-2,.46-.18,1.15.07,1-1h1c-.27,1.66.68,3.44-1,4.5-.45,1.62.96,1.4,1,1.5Z"/><path class="cls-151" d="M109.17,32.44c-1.29,1.6-3.05,3.21-4,5-.45.11-1.87.87-2,1-.49-.31-.47-.64,0-1-.08-.33.11-.75,0-1,1.5-.03,2.4-2.52,3-3,.33-.27,1.47-.76,2-1h1Z"/><path class="cls-336" d="M109.17,32.44c-.33.08-.75-.11-1,0v-1l1,1Z"/><path class="cls-162" d="M88.17,43.44l4-2c.5.46-2.62,2.06-2,4.5l2,3.5c-.09,1.99-1.41,4.06-2,6l-1.5,1c-1.24-.82-3.26-.69-5.5-1,1.53-2.68,1.86-4.67,1-6,.09-.62-.17-1.65,0-2,.12-.25,3.46-3.38,4-4Z"/><path class="cls-238" d="M83.17,47.43c-.31.45-.64.44-1,0v-1c-2.26-1.55-.48-3.89,2-3h1c-.8,1.22-1.22,2.75-2,4Z"/><path class="cls-162" d="M82.17,48.43c.07-.31-.05-.68,0-1h1c-.29.46.17.49-1,1Z"/><path class="cls-209" d="M84.17,49.43c.06-.09,1.61-.07,1-2l2,.5-1,5-3,2.5h-1c.11-.61-.11-1.39,0-2l1-2c.3-.49.69-1.55,1-2Z"/><path class="cls-162" d="M82.17,53.43c.4-2.17.76-1.62,1-2v1.5l-1,.5Z"/><path class="cls-242" d="M25.19,100.41c-.32.05-.69-.07-1,0v-1h1v1Z"/><path class="cls-253" d="M22.19,74.42c.9,1.91,1.51,5.11,3,8l1,1c.1.3-.07.68,0,1,.58.3.57.63,0,1l-1-2-1,1c-.34.3-2.67-3.63-3-4.5-.45-1.19-.65-4.75-1-5.5v-1.5l1-.5c.53,1.78.93,1.84,1,2Z"/><path class="cls-215" d="M27.19,85.42h-1v-1c1.09-.15.82.57,1,1Z"/><path class="cls-215" d="M29.18,88.42l-2-2c.11.16,1.16.7,2,2Z"/><path class="cls-235" d="M136.16,65.43c.99-.51,1.64-.13,2,1-.03.32-.01.68,0,1,.68.58.68,1.37,0,2l-1,.5c.68,2.17-.94,2.36-1,2.5l-2,1.5,1-6.5h-2c-.86-.23-.83-.57,0-1l1-1c.89-3.52,3.19-3.34,2,0Z"/><path class="cls-343" d="M139.16,58.43c-.33,1.62.48,4.82,0,6l-1,1c-.05.33.04.67,0,1h-1.5c-.68-.19-.38-.73-.5-1-.86-2.15-1.48-7.23,2-8l1,1Z"/><path class="cls-370" d="M139.16,70.42c-.96.12-.85-.33-1-1-.12-.56.03-1.34,0-2l1,.5v2.5Z"/><path class="cls-371" d="M138.16,65.43c.19-1.35.97-.93,1-1l-1,1Z"/><path class="cls-285" d="M138.16,55.43c-.02.66.06,1.35,0,2-.22,2.47-.95,3.49,0,5.5l-2,2.5c-.12-.27.18-.81-.5-1-.22.71-1.4.91-1.5,1-.29-.9-.63-1.9-1-3-.51-1.49-1.1-4.41,0-5v-3c1.49-.05,2.64-.32,3.5,1h1.5Z"/><path class="cls-171" d="M124.16,39.44c.45,1.37.35,1.68-1,1-.28.87-.62.86-1,0-1.36-.87-2.31-2.49-3-4,.03-.32,0-.67,0-1,0-.66.05-1.34,0-2,1.05.33,2.38,1.64,3,2.5.4.55,1.23,2.4,2,3.5Z"/><path class="cls-270" d="M128.16,45.43c.35.62.69,1.34,1,2,.23,1.56-.11,1.89-1,1-1.78-.59-4.54-4.29-4-6-.83-1.19-.35-1.67,1-1,.68,1.02,1.89,2.04,3,4Z"/><path class="cls-68" d="M125.16,41.44l-1,1c-.57,2.26-2.37-.62-1-2l1-1c.29.41.71,1.56,1,2Z"/><path class="cls-60" d="M117.16,18.45c.15.51-.07,1.36,0,2-.3-.27-1.66-.68-2-1.5v-.5h2Z"/><path class="cls-120" d="M135.16,48.43c.95,1.9,1.37,3.24,2,5l-4-1.5c-1.65-1.79-.67-5.03-3-7l1-2.5h1c.42,2.2,1.88,3.74,3,6Z"/><path class="cls-188" d="M132.16,42.44h-1l1-1c.05.33-.06.68,0,1Z"/><path class="cls-269" d="M133.16,57.43c.28.61-.02,3.74,0,5-.28.87-.62.86-1,0-.21-1.3-.54-2.63-1-4-.95-2.33-1.22-5.46-2-8l-1-1v-1c.15-.66.04-1.12,1-1,.98,2.09,2.44,4.66,3,6.5.24.8-.22,2.11,0,3,.17.68.98.45,1,.5Z"/><path class="cls-286" d="M158.15,95.41c.06.03-.31.36,1,1,.32-.58.65-.57,1,0-.04.33.03.67,0,1-.6.17-1.13,0-1,1-.14-.14-1.53-.8-2-1-.3.86-.64.85-1,0l-1-1c-.33.87-.67.87-1,0-.87-.28-.86-.62,0-1,.49-.36,1.15-.7,2-1,.63.34,1.37.66,2,1Z"/><path class="cls-236" d="M148.16,92.41h3.5l.5,1c-.19.89-.52.85-1,0-2.14.94-3.81.94-5,0-.9,1.11-1.55,1.42-2,0l.5-1h3.5Z"/><path class="cls-74" d="M153.15,93.41l2,1c.31.12.76-.13,1,0l-.5,1c-.5.04-1.01-.03-1.5,0-.46.89-1.24.68-2,0-.56,1.91-1.44,1.91-2,0-.87-.28-.86-.62,0-1-.05-.39.28-.72,1-1,.33.01.67-.02,1,0s.68-.05,1,0Z"/><path class="cls-286" d="M155.15,94.41h-1.5l-.5-1c2.44.38,1.88.95,2,1Z"/><path class="cls-401" d="M142.16,107.41c.63.3.62.63,0,1-.33-.05-.67.04-1,0s-.67.03-1,0l-1-1c-.32-.44-.86-1.43-1-2l1-1c.3-.64.63-.63,1,0,.12.44-.19,1.04,0,1.5.32.77,1.46,1.14,2,1.5Z"/><path class="cls-148" d="M143.16,108.41c-.33-.04-.67.05-1,0v-1c.2.13,1.17-.15,1,1Z"/><path class="cls-148" d="M145.16,109.41l-1-1c1.35.18.93.98,1,1Z"/><path class="cls-148" d="M146.16,111.4c-.33-.02-.67.04-1,0v-1c1.17.26.75.42,1,1Z"/><path class="cls-204" d="M139.16,102.41c-.03.33.02.67,0,1,.56.28.54.61,0,1-.29.64-.62.62-1,0-1.38-.43-.94-.96-1-1-.57-.73-.79-1.45,0-2,.62-1.65,1.62-.44,2,1Z"/><path class="cls-303" d="M138.16,105.41v-1c.3.09.68-.07,1,0-.12.72-.08,1.11-1,1Z"/><path class="cls-148" d="M140.16,108.41c-1.15.17-.88-.83-1-1l1,1Z"/><path class="cls-194" d="M54.18,68.42v-1c.33.04.67-.03,1,0l-1,1Z"/><path class="cls-294" d="M68.18,68.42c-.62-.09-1.65.17-2,0-.1-.05-.74-1.58-1-2h1.5l.5-1h1v3Z"/><path class="cls-232" d="M122.16,112.4c-.33,0-.67,0-1,0-1.15.18-.94-.97-1-1,.29-.84.62-.82,1,0l1,1Z"/><path class="cls-36" d="M121.16,110.41v1h-1c-.77-.38-1.27-.84-2-1,.13-.19-.26-1.04,1-1l2,1Z"/><path class="cls-215" d="M27.19,79.42h-2l1-1c.03.07.3-.18,1,1Z"/><path class="cls-215" d="M26.19,83.42l-1-1c.03.06.55-.38,1,1Z"/><path class="cls-63" d="M55.18,75.42l-1-.5-1-2.5c1.17.74,2.13,1.41,3,2.5.05.63-.98.45-1,.5Z"/><path class="cls-63" d="M52.18,71.42c-1.15.17-.88-.84-1-1l.5-1,1.5,1.5-1,.5Z"/><path class="cls-134" d="M45.18,73.42c-3.04-2.71-.46-2.65,3-1,2.86,2.1,3.43,4.19,6,6.5l-1,2,1,1.5c-.48-.06-1.07.17-1.5,0-.46-.18-4.83-4.66-5.5-5.5-.15-.19.17-.77,0-1-.61-.82-1.92-1.39-2-2.5Z"/><path class="cls-237" d="M42.18,71.42v-1.5l2.5-1.5c1.59.62,1.37,2.87,1.5,3,.09.09.78.1,2,1l-1,2h-1v-2c-1.14-.18-.95.95-1,1-.48.42-2.83-1.91-3-2Z"/><path class="cls-390" d="M133.16,66.42c-.02.34.06.7,0,1-.01.05-.83-.19-1,.5-.28,1.13.26,2.84,0,4-.15.67-.97.45-1,.5v-1.5l-1-.5c.2-2.18.83-3.27,1-5l1-1c-.78-.27-.65-1.38,0-2h1c.8,1.02.81,2.88,0,4Z"/><rect class="cls-367" x="120.16" y="70.42" width="1" height="2"/><path class="cls-300" d="M132.16,62.43c0,.66.1,1.4,0,2-.3.64-.63.62-1,0,.16-1.97-.11-4.02,0-6,.02.05.83-.18,1,.5.21.87,0,2.42,0,3.5Z"/><path class="cls-270" d="M129.16,50.43h-1c.04-.33-.02-.67,0-1,.16.14.59-.34,1,1Z"/><path class="cls-269" d="M131.16,65.43c.03-.33-.03-.67,0-1h1c-.12.72-.09,1.11-1,1Z"/><path class="cls-80" d="M112.16,51.43h1c.06.32-.05.67,0,1,.58.3.57.63,0,1-.29-.07-.66.03-1,0-.22.64-.56.6-1,0-.11.89-.45.84-1,0-.27.63-.6.6-1,0,.66-.93.53-1.42,2-2,.4.47.73.47,1,0Z"/><path class="cls-14" d="M120.16,51.43c-.28.87-.62.86-1,0-.28.87-.62.86-1,0-.12-.97.07-2.02,0-3,.29-.84.62-.82,1,0,.29.98.69,2.08,1,3Z"/><path class="cls-205" d="M119.16,47.43c.09.31-.09.69,0,1h-1c-1.55.1-.74-1.41-1-2l1-1,1,2Z"/><path class="cls-271" d="M110.17,54.43c-.08.32.11.72,0,1l-1,1c-.09.29.07.67,0,1-.28.87-.62.86-1,0-.28.87-.62.86-1,0,.35-1.19,1.49-1.82,1-3.5.23-.69.97-.45,1-.5l1,1Z"/><path class="cls-377" d="M108.17,59.43h-1c.07-.64-.15-1.5,0-2h1c.82.21.38,1.23,0,2Z"/><path class="cls-302" d="M116.16,66.42l-1-.5v-3l1-.5c.08,1.27.1,2.73,0,4Z"/><path class="cls-298" d="M121.16,57.43h-1c-.07-.65.1-1.39,0-2,.28-.87.62-.86,1,0v2Z"/><path class="cls-361" d="M115.16,59.43h-1v-2c-.16-1.14.75-.85,1-1,.03.89-.21,2.55,0,3Z"/><path class="cls-54" d="M103.17,38.44c-2.1,2.09-5.69,6.03-7,8v-1c.19-.24-.3-1.14,0-1.5,1.88-2.26,4.62-4.74,7-6.5v1Z"/><path class="cls-78" d="M96.17,46.43c-.32.48-.7,1.45-1,2l-1-1c.51-.63.74-.74,1-1h1Z"/><path class="cls-376" d="M63.18,58.43v-1c.24.12.67-.08,1,0l-1,1Z"/><path class="cls-51" d="M62.18,56.43h-1l1-1c.08.33-.12.76,0,1Z"/><path class="cls-248" d="M96.17,46.43h-1c.32-.32.96-.94,1-1v1Z"/><rect class="cls-260" x="88.17" y="46.43" width="1" height="2"/><path class="cls-249" d="M134.16,65.43c-.05.05.13,1.18-1,1,.09-1.31.02-2.68,0-4l1,.5v2.5Z"/><path class="cls-394" d="M144.16,93.41c.63-.09,1.34.03,2,0,1.44.57.34,1.7-1,2-.34.04-.7-.06-1,0-.53.68-1.15,1.36-2,1-1.15.82-1.63.35-1-1,1.09-.91.14-1.59,3-2Z"/><path class="cls-234" d="M140.16,97.41c.62.27.6.6,0,1-.05.34.08.72,0,1l-1,1c-1.1.97-1.52.42-1-1,.17-.49-.16-1.47,0-2,.49-.12,1.78-.8,2-1,.87.28.86.62,0,1Z"/><path class="cls-341" d="M142.16,96.41l-1,1c-.3.63-.63.62-1,0v-1c.15-.14.39-.49,1-1l1,1Z"/><path class="cls-246" d="M151.16,93.41c.11.91-.28.88-1,1-.98.31-1.98.64-3,1-.66.04-1.35-.07-2,0l1-2c1.63-.08,3.37-.07,5,0Z"/><path class="cls-234" d="M142.16,97.41c-.27.11-.68-.08-1,0,.51-.79.46-.61,1-1v1Z"/><path class="cls-338" d="M121.16,53.43c.05.32-.03.67,0,1s0,.67,0,1h-1c-.19-1.12-1.65-2.1-1-4h1l1,2Z"/><path class="cls-175" d="M111.16,51.43c.27-.11.68.08,1,0l-.5,1-.5-1Z"/><path class="cls-384" d="M116.16,41.44h-1l1-1c.03.35-.07.72,0,1Z"/><path class="cls-282" d="M110.17,54.43c-.22-.14-1.17.15-1-1,.33-.03.67.04,1,0v1Z"/></g></svg>