<?xml version="1.0" encoding="UTF-8"?><svg id="_圖層_2" xmlns="http://www.w3.org/2000/svg" viewBox="0 0 158.11 83.06"><defs><style>.cls-1{fill:#7a7180;}.cls-2{fill:#f5bc3d;}.cls-3{fill:#817585;}.cls-4{fill:#9c969f;}.cls-5{fill:#9b919c;}.cls-6{fill:#f2b746;}.cls-7{fill:#7f7786;}.cls-8{fill:#827887;}.cls-9{fill:#807885;}.cls-10{fill:#7a7783;}.cls-11{fill:#938a99;}.cls-12{fill:#7c7187;}.cls-13{fill:#837888;}.cls-14{fill:#9d949e;}.cls-15{fill:#968e99;}.cls-16{fill:#e19e43;}.cls-17{fill:#7f7687;}.cls-18{fill:#7e7680;}.cls-19{fill:#78727f;}.cls-20{fill:#8f8691;}.cls-21{fill:#887f8e;}.cls-22{fill:#eaab3e;}.cls-23{fill:#f2b036;}.cls-24{fill:#dd943f;}.cls-25{fill:#777382;}.cls-26{fill:#f6bb37;}.cls-27{fill:#e3a23f;}.cls-28{fill:#e8a23b;}.cls-29{fill:#7b7488;}.cls-30{fill:#7f7685;}.cls-31{fill:#d9882e;}.cls-32{fill:#777181;}.cls-33{fill:#837d89;}.cls-34{fill:#e9a838;}.cls-35{fill:#857e8a;}.cls-36{fill:#8c8192;}.cls-37{fill:#eca931;}.cls-38{fill:#fbe6a5;}.cls-39{fill:#787681;}.cls-40{fill:#6d687d;}.cls-41{fill:#e0a353;}.cls-42{fill:#766f7c;}.cls-43{fill:#928795;}.cls-44{fill:#70697d;}.cls-45{fill:#e19a40;}.cls-46{fill:#7c7887;}.cls-47{fill:#e4a44e;}.cls-48{fill:#73687b;}.cls-49{fill:#887f90;}.cls-50{fill:#897e8e;}.cls-51{fill:#e3a440;}.cls-52{fill:#887e8b;}.cls-53{fill:#f6bb3b;}.cls-54{fill:#7c7587;}.cls-55{fill:#e29c33;}.cls-56{fill:#f6c13f;}.cls-57{fill:#776d7f;}.cls-58{fill:#8f878f;}.cls-59{fill:#72697e;}.cls-60{fill:#918d99;}.cls-61{fill:#766f84;}.cls-62{fill:#70687c;}.cls-63{fill:#837788;}.cls-64{fill:#746e77;}.cls-65{fill:#e1a141;}.cls-66{fill:#867e88;}.cls-67{fill:#f3bb51;}.cls-68{fill:#908992;}.cls-69{fill:#edaa37;}.cls-70{fill:#857f8f;}.cls-71{fill:#898390;}.cls-72{fill:#8c808f;}.cls-73{fill:#f7c042;}.cls-74{fill:#9b929d;}.cls-75{fill:#736f7c;}.cls-76{fill:#887d8e;}.cls-77{fill:#8c828f;}.cls-78{fill:#7a6d7f;}.cls-79{fill:#76707a;}.cls-80{fill:#8f8894;}.cls-81{fill:#857d89;}.cls-82{fill:#7e7683;}.cls-83{fill:#7f7483;}.cls-84{fill:#807c8a;}.cls-85{fill:#7b7484;}.cls-86{fill:#959098;}.cls-87{fill:#96919a;}.cls-88{fill:#716980;}.cls-89{fill:#7d7986;}.cls-90{fill:#958c98;}.cls-91{fill:#747186;}.cls-92{fill:#9b929c;}.cls-93{fill:#efab3c;}.cls-94{fill:#8c858e;}.cls-95{fill:#75697b;}.cls-96{fill:#ecb03c;}.cls-97{fill:#8c8794;}.cls-98{fill:#756d7e;}.cls-99{fill:#f7be3a;}.cls-100{fill:#f6be3d;}.cls-101{fill:#706b7e;}.cls-102{fill:#e5ab4b;}.cls-103{fill:#efae36;}.cls-104{fill:#7a6e80;}.cls-105{fill:#7c7387;}.cls-106{fill:#716979;}.cls-107{fill:#f5b736;}.cls-108{fill:#6f697d;}.cls-109{fill:#96909a;}.cls-110{fill:#726b7d;}.cls-111{fill:#777282;}</style></defs><g id="_圖層_1-2"><path class="cls-12" d="M3,34.09c1.93,1.26,1.92,2.73,0,4,.26,1.74.6,3.41,1,5,.89.18.86.52,0,1,.84.76.65,2.12,0,3l1,1c.64.33.64.67,0,1,.36.49.69,1.16,1,2,.89.2.85.54,0,1l1,1c1.94-.69,2.29.33,1,2,.69,1.91,1.69,3.57,3,5,.89.28.87.62,0,1,2.15-.11,2.61,1.07,2,3,1.15.77,2.15,1.77,3,3,1.31-.25,2.76.71,2,2l5,4c.32-.86.65-.86,1,0l2,1c.33-.85.66-.85,1,0l3,1c2.54-2.32,7.98-3.21,10,0l2-1c.27-.88.61-.87,1,0l2-1c.3-.88.64-.87,1,0l2-2c.3-.48.63-.46,1,0l2-2,3-3,2-2c-.85-.25-.83-.59,0-1l1-1c-2.39-1.54-1.83-3.15,1-3,1.84-3.88,3.38-3.84,2.09.64-.97,3.38-3.76,6.77-6.09,9.35-.37.4-.6.63-1,1-2.61,2.68-5.56,4.58-9,6-.32.05-.67-.03-1,0-.62.73-1.33.73-2,0l-2,1c-2.86.84-6.15.85-9,0-.33-.01-.67.02-1,0l-3-1c-.32-.09-.71.1-1,0-2.59-1.02-4.92-2.36-7-4-.27-.13-.74.14-1,0l-5-5c-3.85-4.52-4.8-6.4-7-11.99-.57-.59-.57-1.44,0-2l-1-1c-.66-.55-.66-1.4,0-2l-1-1c-.73-.8-.77-2.15,0-3l-1-1c-.36-1.57-.69-3.23-1-5-.02-.33.01-.67,0-1,.69-.97.75-1.97,0-3-.73-.63-.75-1.34,0-2,.32-2.65,1.24-2.54,2,0Z"/><path class="cls-76" d="M17,2.1c.87.28.86.62,0,1-.25.85-1.3.6-2,0l-1,1c-.29.65-.62.63-1,0l-5,5c.87.33.86.66,0,1l-1,1c.86.27.84.6,0,1l-1,1c2.02-.14,2.01,1.51,0,2,.45,4.85.13,10.63-.96,17.37l-2.03,1.62H1c-.8-2.48-.85-5.46,0-8,.21-4.97.65-6.26,2-10.5.2-.62-.21-1.43,0-2,.26-.7.98-.45,1-.5.72-.51.86-1.15,1-2,.13-.28-.14-.75,0-1,1.74-2.57,3.74-4.9,6-7,.26-.13.73.13,1,0,.74-.98,1.74-1.65,3-2,.21-.69.55-.65,1,0,.67.12,1.1.22,1,1Z"/><path class="cls-35" d="M115.97,80.06c2.25.98,5.83.79,8,0,.56-1.92,1.44-1.92,2,0,5.01-2.01,4.2.45,0,2-.32.05-.67-.02-1,0-2.92.92-7.07.91-10,0-4.16-.24-5.84-1.46-9.5-3l-3.5-3c-.17-.35.17-.68,1-1l.94-1.09c3.6,1.92,7.32,3.23,11.18,3.93l.88,2.16Z"/><path class="cls-105" d="M61.98,43.08c.01.33,0,.67,0,1,.76,1.23.89,2.82,0,4-.47.4-.47.73,0,1,.77.2.73.54,0,1-.47.4-.47.73,0,1,.85.48.63,1.2,0,2,.82.52.59,1.25,0,2-.04.66.08,1.35,0,2l-1,2c-.97,1.88-1.88,3.68-3,5.5-1.63,2.65-2.16,2.53-4,4.5,2.64-3.4,5.48-7.19,6-11.49l-2,1.5c-2.55-1.47-1.29-8.17,2-6,.77,3.11.71-.32,0-1-1.14-1.55-1.14-3.88,0-7-.77-.77-.75-2.22,0-3,.28-.87.62-.86,1,0,.45-.55.79-.22,1,1Z"/><path class="cls-30" d="M150.96,37.08l4,4c.15.23-.15.75,0,1l1,1c.13.25-.13.72,0,1l1,1c.11.28-.11.7,0,1,1.05,1.29.97,4.48-1,3-.68-.63-.7-1.34,0-2l-1-1c-.9-.2-.86-.54,0-1l-1-1c-.89-.28-.88-.61,0-1l-2-2c-1.44,1.11-2.57-.51-2-2-1.23-1.24-2.11-2.35,0-2,.21.16.8-.16,1,0Z"/><path class="cls-97" d="M156.96,55.08c-.25,1.7-.99,2.45-1,4-.45.11-1.92.92-2,1-.58-.14-1-.33-1-1-2.02-1.6.8-7.02,3-6l1,2Z"/><path class="cls-36" d="M1,34.09c0,.66-.01,1.34,0,2,.72.63.74,1.34,0,2l-1-.5v-11l1-.5c-.11,2.64,0,5.35,0,8Z"/><path class="cls-68" d="M81.98,64.07c.89.3.88.64,0,1l-1,1c-1.11-1.29-2.17-1.56-3-4l1-2c1.58-.19,3.96,2.13,3,4Z"/><path class="cls-82" d="M92.98,72.07c1.52,1.37.85,1.7-2,1-1.8-.73-2.97-1.55-4-2l1-1c2.03-2.06,4.96-.91,5,2Z"/><path class="cls-58" d="M97.98,73.07c1.25,1.54-.7,2.07-2,1-.59.71-1.28.52-2,0-.59-.28-1.87-.54-3-1h1.5l.5-1c1.72-2.48,4.32-1.96,5,1Z"/><path class="cls-87" d="M124.97,82.06l-.5,1h-9.5v-1c3.07.18,6.94.21,10,0Z"/><path class="cls-14" d="M62.98,45.08c.27,2.28.11,5.61,0,8-.28.87-.62.86-1,0,.02-.66-.01-1.34,0-2-.47-.25-.43-.59,0-1,0-.33,0-.67,0-1-.47-.25-.43-.59,0-1-.01-1.33.03-2.67,0-4,.88-.1.91.25,1,1Z"/><path class="cls-77" d="M23.99.1c.33.01.67-.02,1,0,.87.28.86.62,0,1-2.87.79-6.12.75-9,0-.87-.28-.86-.62,0-1C18.51-.06,21.45,0,23.99.1Z"/><path class="cls-21" d="M38.99,77.07c-.11.24.18.84-.5,1h-8l-.5-1c2.96.11,6.03.06,9,0Z"/><path class="cls-52" d="M156.96,54.08c-.68-.21-.64-.55,0-1l-1-3c-.66-.22-.62-.56,0-1l1-.5v-2.5c.02.05.83-.18,1,.5.46,1.87-.32,4.9,0,7l-1,.5Z"/><path class="cls-94" d="M84.98,67.07c.58.3.57.63,0,1,.27.87-.15,1.24-1,1-1.55-.24-2.21-2.08-3-3l1-1c1.13-1.9,4.07-.3,3,2Z"/><path class="cls-104" d="M145.96,34.09c.59.12.99.34,1,1,.3-.54.64-.53,1,0,.92.66.94.96,1,1l-1,1c-.23,1.66-2.81.41-3-1-2.26-1.27-2.61-2.21,0-2h1Z"/><path class="cls-1" d="M78.98,60.07l-1,1h-1c.05-.65-.1-1.39,0-2-1-1.5-.7-3.18,1-2,1.45-.05,1.74,1.91,1,3Z"/><path class="cls-80" d="M100.98,74.07c-.49.36-1.15.7-2,1-.99-.04-2.03.11-3,0-.87-.28-.86-.62,0-1,.48-.06,1,.07,1.5,0l.5-1c.38-3.51,5.05-2.3,3,1Z"/><path class="cls-50" d="M2,45.08c-.01-.05-.83.19-1-.5-.28-1.15.08-3.1,0-4.5l1,.5c.26,1.27-.38,3.57,0,4.5Z"/><path class="cls-79" d="M87.98,70.07l-1,1c-.27-.12-.7.11-1,0-.81-.05-1.15-.38-1-1-.76-1.03-.26-1.47,1-1,1.37-2.88,3.86-1.66,2,1Z"/><path class="cls-76" d="M1,39.08c-.01-.33,0-.67,0-1-.02-.66.01-1.34,0-2l1,.5v2l-1,.5Z"/><path class="cls-50" d="M3,49.08c-1.63-.71-.88-1.3-1-3,.3-.62.63-.61,1,0,.16.91-.08,2.01,0,3Z"/><path class="cls-42" d="M85.98,69.07l-1,1c-.29.66-.63.65-1,0-.06-.22-.06-.78,0-1,.17-.6,0-1.13,1-1,1.14-.44,1.6-.04,1,1Z"/><path class="cls-17" d="M12,67.07c2.03.67,2.69,3.48,5,3v2c-2.3-1.18-3.42-3.14-5-5Z"/><path class="cls-58" d="M100.98,74.07c.33-.87.67-.87,1,0,.61.3.59.63,0,1-.26.68-.6.66-1,0-.33.58-.67.58-1,0-.33-.02-.67.01-1,0l.5-1c.5-.05,1.01.04,1.5,0Z"/><path class="cls-17" d="M28.99,77.07c-2.68-.18-2.83-.95-3-1h2.5l.5,1Z"/><path class="cls-49" d="M15,1.1l-.5,1c-1.02-.18-1.56.55-2.5,1v-1l1-1c.22-.11.65.07,1,0,.3-.06.66.02,1,0Z"/><path class="cls-49" d="M5,10.1c1.51-2.76,2.95-5.42,6-7-2.05,2.37-3.8,5.3-6,7Z"/><path class="cls-49" d="M4,13.09c.44-1,.83-1.63,1-2v1.5l-1,.5Z"/><path class="cls-50" d="M4,52.08c-1.44-.62-.84-.6-1-2,.3-.59.63-.58,1,0,.12.56-.05,1.34,0,2Z"/><path class="cls-50" d="M5,55.08c-.05-.12-.68.48-1-2,.3-.59.63-.57,1,0,.13.55-.07,1.35,0,2Z"/><path class="cls-110" d="M156.96,54.08c-.01.33.05.68,0,1l-1-.5v-1.5c.28-.87.62-.86,1,0,.02.33.01.67,0,1Z"/><path class="cls-19" d="M77.98,62.07c-.1-.29.07-.69,0-1l1-1-1,2Z"/><path class="cls-17" d="M24.99,76.07c-1.66-.57-3.94-1.13-5.5-2-.52-.29-1.5-1.3-1.5-2,2.13,1.06,4.34,2.4,6.5,3l.5,1Z"/><path class="cls-105" d="M43.99,76.07l.5-1c3.39-.83,5.83-2.98,8.5-5-3.22,3.01-3.96,5.16-9,6Z"/><path class="cls-98" d="M102.98,75.07c0,1.07-.35.81-1,1-.22.06-.77.05-1,0-.64-.3-.62-.63,0-1,.33.03.68-.05,1,0,.23-.67.56-.63,1,0Z"/><path class="cls-105" d="M40.99,76.07c.87.28.86.62,0,1-.65.06-1.34-.01-2,0,.1-.23-.18-.74.5-1,.5-.07,1.02.06,1.5,0Z"/><path class="cls-21" d="M42.99,76.07l-.5,1c-.5.05-1.01-.04-1.5,0v-1c.64-.08,1.35.07,2,0Z"/><path class="cls-90" d="M144.96,34.09s-1.04-.13-1,.5l1,1.5c-.26.86-.59.84-1,0l-1-1c-.27.87-.61.85-1,0-.53-.3-.51-.64,0-1,.13-.49.8-.83,2-1h1c-.16.14.15.74,0,1Z"/><path class="cls-90" d="M146.96,35.08l-1-1c.32.07.7-.09,1,0,.53.3.51.64,0,1Z"/><path class="cls-52" d="M149.96,37.08l-1,.5,1,1.5c-1.08,1.05-2.87-.77-2-2l1-1c.94.66.94.96,1,1Z"/><path class="cls-52" d="M154.96,41.08l-4-4c1.7,1.37,2.76,2.1,4,4Z"/><path class="cls-52" d="M155.96,43.08l-1-1c.04.06.33-.26,1,1Z"/><path class="cls-52" d="M156.96,45.08l-1-1c.03.06.44-.36,1,1Z"/><path class="cls-76" d="M3,46.08h-1c-.02-.34.06-.7,0-1,.03.07.76-.36,1,1Z"/><path class="cls-76" d="M4,50.08h-1c-.04-.33.03-.67,0-1,.57.25.74-.18,1,1Z"/><path class="cls-76" d="M5,53.08h-1c-.04-.33.02-.67,0-1,.59.26.72-.16,1,1Z"/><path class="cls-80" d="M100.98,76.07c-.66-.15-1.12-.04-1-1,.33.02.67-.03,1,0v1Z"/><path class="cls-71" d="M132.97,78.07c-.12.1-.64,1.45-1.5,2-.46.29-2.33.72-3,1-.84.36-.6.73-2.5,1l.5-1h1.5v-1h-2c-2.34-2.53.72-4.29,2-1l1-1c.28-.89.62-.87,1,0,.99-2.25,1.66-2.58,2-1,.89-.67,1.25-.14,1,1Z"/><path class="cls-60" d="M143.97,65.07c1.2-.83,1.67-.35,1,1-.29.11-4.76,2.76-5,3l-1-1c-.87-.33-.87-.66,0-1-.3-1.52.89-2.03,2-1,.36-1.87.57-2.4,2-1h1Z"/><path class="cls-11" d="M139.97,69.07c-.18.18-2.89,3.76-3,4-1.03.71-1.24.2-1-1-.51-.3-.49-.63,0-1l1-1c-2.27-1.73-.12-4.41,2-2l1,1Z"/><path class="cls-40" d="M148.96,63.07c.87.25.85.58,0,1-.59,1.29-.91.91-1,1-.3.49-.64.48-1,0-1.2.81-1.67.35-1-1l1-1c.26-.9.6-.88,1,0,.29-.7.63-.69,1,0Z"/><path class="cls-91" d="M146.96,65.07c.59.3.57.63,0,1-.53.16-1.54-.18-2,0l-1-1,1-1c.31-.89.65-.88,1,0l1,1Z"/><path class="cls-70" d="M136.97,73.07c-.41.88-.04.77-1,2-.89.67-1.25.14-1-1-2.04-1.45-1.5-2.35,1-2,.35.17,1.16-.12,1,1Z"/><path class="cls-25" d="M153.96,60.07c-.79.88-1.1,1.21-2,2-.87-.28-.86-.62,0-1-.49-1.01-.06-1.42,1-1h1Z"/><path class="cls-101" d="M151.96,61.07v1c-.12.1-.31.45-1,1-1.15.82-1.63.35-1-1-.87-.28-.86-.62,0-1,.28-.87.62-.86,1,0,.29-.68.63-.67,1,0Z"/><path class="cls-44" d="M150.96,63.07l-1,1h-1c.11-.24-.08-.66,0-1-.5-1.14-.09-1.61,1-1l1,1Z"/><path class="cls-108" d="M135.97,75.07c-.56.72-.93.91-1,1l-1-1c-1.39-1.39-.79-1.95,1-1l1,1Z"/><path class="cls-59" d="M134.97,76.07c-.46.53-.63.65-1,1-.9.67-1.25.13-1-1-1.31-1.44-.71-2.01,1-1l1,1Z"/><path class="cls-88" d="M133.97,77.07c-.23.22-.43.51-1,1l-1-1c-1.42-1.38-.8-1.96,1-1l1,1Z"/><path class="cls-3" d="M32.99,4.1c.31.11.74-.12,1,0,.83,1.01,1.83,1.67,3,2,1.63,1.05,3.34,1.68,5,3,3.52,2.8,5.31,5.66,8,9l3,3c.14.26-.13.73,0,1l3,4c1.33,3.06,2.66,6.06,4,9,.34.7.63,1.44,0,2-.25.85-.58.83-1,0l-1-1c-.87-.29-.86-.62,0-1l-1-1c-.89-.29-.87-.62,0-1l-1-1c-.51-.3-.49-.63,0-1l-1-1c-.5-.3-.48-.63,0-1l-1-1c-.5-.3-.48-.63,0-1l-1-1v-1l-2-2v-1c-1.41-1.37-2.74-2.7-4-4l-1-1-2-2c-3.01-3.05-6.48-5.57-10-8l-3-2c-.33.58-.67.58-1,0-.66-.29-.64-.63,0-1l1-1c.34.04.7-.07,1,0l1,1Z"/><path class="cls-15" d="M118.97,22.09c-.13.98-.8,1.31-2,1-.47,2-1.38,1.97-2,0l-4-1c-1.57,2.7-3.44,2.72-5,0l-3-1c.66-1.72,3.94-.99,5.5-1,5.64-.04,6.17.08,10.5,2Z"/><path class="cls-20" d="M128.97,26.09l1,1c.28.12.72-.12,1,0l1,1c.28.13.75-.14,1,0,.64.3.62.63,0,1,.03,1.26-.94,1.47-2,1-.25.94-.58.92-1,0l-1-1c-.33.86-.67.86-1,0l-1-1c-.28.86-.62.85-1,0l-1-1c-.28.86-.62.85-1,0l-1-1c-.28.86-.62.85-1,0l-1-1c-.33.86-.66.86-1,0-.64-.3-.62-.63,0-1l2-1c2.34,1.08,4.86,2.05,7,3Z"/><path class="cls-86" d="M101.98,21.09l2,1c.87.28.86.62,0,1-.41,2.67-1.19,2.53-2,0l-1,1c-.39,2.72-2.31,2.86-4,1l-1-1s-.22-.6.5-1c1.48-.83,4-1.78,5.5-2Z"/><path class="cls-4" d="M140.97,32.09c-.33.4-.99.73-2,1-.27.61-.6.59-1,0-.2.89-.54.86-1,0l-1-1c.2,1.44-.46,1.44-2,0-.62-.3-.61-.63,0-1l2-1c.31-.4.65-.39,1,0,1.18.67,2.05,1.32,3.5,1l.5,1Z"/><path class="cls-92" d="M79.98,42.08c2.18,1.66,1.74,3.59-1,4-.28.87-.62.86-1,0-.36-.49-.7-1.16-1-2,.21-1.66.58-1.78,1-3,.1-.29-.07-.69,0-1h1c1.11.24,1.15,1.25,1,2Z"/><path class="cls-109" d="M96.98,25.09c1.08,2.75-1.53,4.54-4,3l-1-1c1.68-1.52,1.93-1.73,4-3l1,1Z"/><path class="cls-9" d="M81.98,38.08c1.97,1.56.26,4.34-2,4l-1-.5v-1.5c.55-.69.82-2.22,1-2.5.45-.72.97-.46,1-.5.86-.24,1.23.16,1,1Z"/><path class="cls-85" d="M140.97,32.09c.29-.03.73-.06,1,0l1,1c.28.11.68-.08,1,0l-.5,1c-.5.05-1.01-.05-1.5,0-.33.54-.67.54-1,0l-1-1c-.32.65-.65.65-1,0l.5-1c.5-.05,1.01.04,1.5,0Z"/><path class="cls-66" d="M132.97,29.09c.26-.63.6-.61,1,0,.32,0,.69-.05,1,0,.87.28.86.62,0,1,.04.37-.29.7-1,1-.33.62-.67.62-1,0-.2.9-.54.87-1,0l-1-1c.12-.06-.4-.62,2-1Z"/><path class="cls-83" d="M118.97,22.09c.99.44,1.66.84,2,1,.45.47.12.81-1,1-.33.6-.67.6-1,0-.19.89-.52.85-1,0l-1-1c.05-.02-.17-.83.5-1h1.5Z"/><path class="cls-89" d="M92.98,28.09c1.78,2.28.57,3.23-2,2l-1-1c-.13-1.22,1.57-1.61,2-2l1,1Z"/><path class="cls-94" d="M90.98,30.09c3.75,1.59-.92,4.05-3,2-.86-.26-.84-.6,0-1-.29-.6.04-1.27,1-2,.29-.1.69.07,1,0l1,1Z"/><path class="cls-33" d="M105.97,22.09c-.54.82-1.26.63-2,0-.49-.03-1,.04-1.5,0l-.5-1c.31-.05.68-.01,1,0,.82.03,1.67-.02,2.5,0,.54.14.5.55.5,1Z"/><path class="cls-7" d="M86.98,33.09c.57.3.56.63,0,1-.25.9-.59.88-1,0-.26.67-.6.65-1,0h-1c.72-.75,1.23-1.28,2-2l1,1Z"/><path class="cls-54" d="M83.98,35.08c.65.29.63.63,0,1,2.42.35,1.06,2.11-1,1l-1-1c.71-.82,1.33-1.3,2-2v1Z"/><path class="cls-77" d="M27.99,1.1c1.06.76,2.99.86,3,2-.71.68-1.43.79-2,0-2.73-.27-3.73-.94-3-2h2Z"/><path class="cls-46" d="M87.98,31.09c-.07.33.08.7,0,1,.87.27.85.61,0,1-.3.5-.64.49-1,0l-1-1c.22-.2.44-.52,1-1,.31-.49.64-.48,1,0Z"/><path class="cls-29" d="M82.98,37.08c.87.28.86.62,0,1-.25.87-.58.85-1,0-.75-.1-1.1-.11-1-1,.58-.75.92-.91,1-1l1,1Z"/><path class="cls-20" d="M36.99,6.1h-1.5l-1.5-2c1.36.65,2.24,1.51,3,2Z"/><path class="cls-18" d="M121.97,23.09l-.5,1c-.5.05-1.01-.05-1.5,0l1-1c.28.13.72-.13,1,0Z"/><path class="cls-20" d="M32.99,4.1l-1-1c1.38.32.93.98,1,1Z"/><path class="cls-4" d="M142.97,33.09l-1-1c1.38.32.93.97,1,1Z"/><path class="cls-48" d="M60.99,38.08c.02.33,0,.67,0,1,.74.84.79,2.28,0,3h-1c-.66-.28-.64-.61,0-1l-1-1c-.68-.21-.64-.55,0-1-.72-.62-.71-1.33,0-2,.33.08.73-.11,1,0,.25-.16.59.18,1,1Z"/><path class="cls-43" d="M61.98,43.08l-1-1v-3l1,.5c.02,1.17-.04,2.34,0,3.5Z"/><path class="cls-72" d="M59.99,35.08c-.02-.05-.72.21-1-.5-.77-1.91-2.05-7.11-3-8.5,2.27,3.67,2.67,4.98,4,9Z"/><path class="cls-5" d="M60.99,38.08c-1.16.18-.93-.97-1-1-.09-.63.17-1.63,0-2,.09.26.81.41,1,3Z"/><path class="cls-63" d="M55.99,26.09c-.77-1.12-1.88-1.77-3-4,1.89.41,2.08,2.52,3,4Z"/><path class="cls-63" d="M52.99,21.09l-3-3c.66.82,2,1.07,3,3Z"/><path class="cls-50" d="M4,43.08l-1-.5c-.02-1.5.03-3.01,0-4.5l1,.5c.03,1.5-.04,3.01,0,4.5Z"/><path class="cls-50" d="M5,47.08c-.29.65-.63.64-1,0-.1-.98.03-2.01,0-3l1,.5c.04.83-.05,1.68,0,2.5Z"/><path class="cls-17" d="M29.99,74.07v1c-.83-.03-1.66.02-2.5,0l-.5-1h3Z"/><path class="cls-50" d="M6,51.08l-1-.5c-.05-.5.04-1.01,0-1.5h1c.02.66-.06,1.35,0,2Z"/><path class="cls-17" d="M22.99,73.07c-3.18-1.52-2.98-2.18-5-4,1.71,1.46,4.26,2.01,5,4Z"/><path class="cls-17" d="M25.99,74.07c-2.5-.3-1.88-.95-2-1h1.5l.5,1Z"/><path class="cls-105" d="M44.99,73.07c-.05.02.2.73-.5,1-.48.18-1.09-.13-1.5,0l.5-1h1.5Z"/><path class="cls-105" d="M41.99,74.07c-.13.04.53.78-2,1l.5-1h1.5Z"/><path class="cls-76" d="M5,48.08c-.87.1-.92-.24-1-1h1c.02.33-.03.67,0,1Z"/><path class="cls-50" d="M7,53.08c-.04-.06-.67.38-1-1l1,1Z"/><path class="cls-105" d="M55.99,63.07v-1h1c-.18.53.04,1.14-1,1Z"/><path class="cls-105" d="M53.99,66.07c.32-.32.79-2.16,2-2-.63,1.61-1.65,1.6-2,2Z"/><path class="cls-105" d="M48.99,71.07c-.54-.51.22-1.77,1-2h1c-.42.37-.4,1.33-2,2Z"/><path class="cls-105" d="M45.99,73.07c.08-1.18,1.11-1.55,2-2-.76,1.22-.74,1.24-2,2Z"/><path class="cls-57" d="M24.99,1.1h1l.5,1c2.22-.68,2.35.96,2.5,1,.87.28.86.62,0,1-.33.54-.67.54-1,0l-2-1c-.33.64-.67.64-1,0-2.66-.39-5.33-.73-8-1l-1-1c2.98-.11,6.02,0,9,0Z"/><path class="cls-77" d="M24.99,3.1c-.53.81-1.25.58-2,0-1.6,1.78-3.69,2.1-5,0-.25.47-.59.43-1,0v-1h7.5l.5,1Z"/><path class="cls-49" d="M15,4.1c-.25.88-.58.86-1,0,.19-.3-.32-.72,1-1v1Z"/><path class="cls-49" d="M8,9.1l5-5c-.29.2-4.54,4.46-5,5Z"/><path class="cls-49" d="M7,11.1c.67-1.22.96-.94,1-1l-1,1Z"/><path class="cls-49" d="M6,13.09c.47-1.38.97-.93,1-1l-1,1Z"/><path class="cls-8" d="M77.98,55.08c.83.52.88,1.56,0,2l-1,.5c-.09.49.08,1.02,0,1.5l-1-.5c.06-3.5-.08-7.01,0-10.5,1.32.59,1.99,2.92,2,7Z"/><path class="cls-74" d="M77.98,48.08c.69.21.65.55,0,1,1.9.31,1.79,1.09,0,2,.47.25.43.59,0,1,.9.18.86.52,0,1,.71.6.57,1.29,0,2l-1-.5v-6l-1-.5c.02-.66-.08-1.35,0-2,.09-.75.12-1.1,1-1l1,3Z"/><path class="cls-87" d="M123.97,80.06l-.5,1c-2.09-.32-5.13.46-7,0-.68-.17-.45-.98-.5-1,2.65-.06,5.35.09,8,0Z"/><path class="cls-14" d="M59.99,42.08c.06.99-.01,2.01,0,3h-1c-1.4-.45-1.29-1.2,0-2-.89-.19-.85-.52,0-1-.47-.25-.43-.59,0-1,.3-.64.63-.63,1,0,.06.29-.02.66,0,1Z"/><path class="cls-48" d="M59.99,52.08l1,.5v3.5h-1c-.01-.99.02-2.01,0-3,0-.33,0-.67,0-1Z"/><path class="cls-48" d="M61.98,49.08l-1-.5,1-.5c0,.33,0,.67,0,1Z"/><path class="cls-48" d="M61.98,51.08l-1-.5,1-.5c0,.33,0,.67,0,1Z"/><path class="cls-52" d="M153.96,43.08c-.07-.12-1.28-1.15-2-2l2,2Z"/><path class="cls-52" d="M154.96,45.08c-.02-.07-.29.14-1-1l1,1Z"/><path class="cls-52" d="M155.96,47.08h-1c-.02-.33.05-.68,0-1,.89-.1.9.25,1,1Z"/><path class="cls-111" d="M153.96,60.07c-.33.08-.76-.12-1,0-.67-.29-.65-.63,0-1l1,1Z"/><path class="cls-106" d="M80.98,66.07l1-1-1,1Z"/><path class="cls-64" d="M86.98,71.07l1-1-1,1Z"/><path class="cls-30" d="M156.96,53.08h-1c.21-.45-.03-2.11,0-3l1,.5c.04.83-.05,1.68,0,2.5Z"/><path class="cls-78" d="M147.96,37.08l1-1-1,1Z"/><path class="cls-80" d="M102.98,75.07c-.29-.08-.66.06-1,0v-1c.81-.1,1,.22,1,1Z"/><path class="cls-84" d="M139.97,69.07c-1.11.15-.82-.63-1-1l1,1Z"/><path class="cls-62" d="M134.97,76.07l-1-1,1,1Z"/><path class="cls-95" d="M30.99,3.1c.05,1.06-.39.82-1,1-.31.67-.65.66-1,0v-1c.52.14,1.36-.08,2,0Z"/><path class="cls-20" d="M33.99,7.1c-.23-.15-.76.15-1,0l-1-1c-.27-.13-.73.13-1,0-.63-.3-.62-.63,0-1,.46.08,1-.09,1.5,0,.9.36,1.4,1.93,1.5,2Z"/><path class="cls-20" d="M29.99,5.1c-.34-.05-.72.08-1,0-.53-.3-.51-.64,0-1,.35-.04.73.08,1,0v1Z"/><path class="cls-63" d="M50.99,22.09c-1.44-.63-2.77-1.63-4-3-.16-.2.16-.79,0-1,1.19,1.13,3.47,2.1,4,4Z"/><path class="cls-63" d="M52.99,25.09h-1l-1-1c-.09-.31.09-.7,0-1,.73.61,1.49.47,2,2Z"/><path class="cls-63" d="M53.99,27.09c-.3.61-.63.59-1,0-.09-.31.08-.69,0-1,.15.13.62-.35,1,1Z"/><path class="cls-63" d="M54.99,29.09c-.3.61-.63.59-1,0-.09-.3.08-.68,0-1,.26.19.62-.33,1,1Z"/><path class="cls-72" d="M55.99,31.09c-.3.6-.63.58-1,0-.09-.3.08-.68,0-1,.39.27.44-.18,1,1Z"/><path class="cls-72" d="M56.99,33.09c-.04-.06-.3.05-1-1,.03.06,1.18-.15,1,1Z"/><path class="cls-72" d="M57.99,35.08c-.02-.07-.31.24-1-1l1,1Z"/><path class="cls-72" d="M58.99,37.08c-.28.87-.62.86-1,0-.03-.33.06-.68,0-1,.89-.1.9.25,1,1Z"/><path class="cls-39" d="M96.98,25.09l-1-1,1,1Z"/><path class="cls-81" d="M135.97,30.09l-.5,1c-.5.07-1.01-.06-1.5,0-.13-1.01.42-.82,1-1,.3-.09.68.07,1,0Z"/><path class="cls-13" d="M77.98,46.08c.87.44.66,1.23,0,2l-1-.5c-.01-.83.02-1.67,0-2.5,0-.32-.04-.68,0-1l1,.5c.04.5-.04,1.01,0,1.5Z"/><path class="cls-10" d="M92.98,28.09l-1-1,1,1Z"/><path class="cls-4" d="M140.97,34.09c-.33,0-.68.03-1,0v-1c1.33.38.81.74,1,1Z"/><path class="cls-75" d="M90.98,30.09l-1-1,1,1Z"/><path class="cls-32" d="M86.98,33.09l-1-1,1,1Z"/><path class="cls-54" d="M83.98,35.08v-1c.33-.03.67.04,1,0,.52.77-.04,1.06-1,1Z"/><path class="cls-61" d="M82.98,37.08l-1-1,1,1Z"/><path class="cls-5" d="M58.99,39.08h-1c-.03-.66.06-1.35,0-2h1c.08.64-.03,1.34,0,2Z"/><path class="cls-43" d="M59.99,41.08h-1c0-.33,0-.67,0-1,.95-.11.86.32,1,1Z"/><path class="cls-77" d="M27.99,4.1c-.66.02-1.34.03-2,0v-1c1.39.17,1.37-.45,2,1Z"/><path class="cls-45" d="M131.97,36.08c.36-.58,1.02-.25,2,1-.13.16.08.67,0,1,.59.13,1,.33,1,1,.06.32-.09.69,0,1l-1,3c-.28.87-.62.86-1,0-1.46-.32-2.13-1.98-2-5-2.2-2.2-1.84-4.74,1-2Z"/><path class="cls-51" d="M106.97,29.09c3.88-.87,8.11-.85,12,0,.33,0,.67-.02,1,0,.87.28.86.62,0,1l-.69,1.22c-3.73-.57-7.16-.56-10.3.78l-.56,1.28c-1.48-.9-3.29-.66-5.44.72l-1,1h-1c-4.76,2.19-3.35-2.81,1-4,.28-.65-.08-.67,1-1l2-1c.49-.14,1.35.02,2,0Z"/><path class="cls-34" d="M119.97,30.09c.66-.75,1.37-.73,2,0,.66.02,1.35-.06,2,0l1,1,1,1c1.55.7,1.89,1.37,1,2,1.29,1.27.73,1.54-1,1-.29.67-.63.66-1,0-.88-.31-.87-.64,0-1l-2-1c-.22,3.49-6.21,1.66-7-1-.66,1.46-1.46,1.53-2,0-.18.55-.53.49-1,0-.84,1.84-3.47,2.18-4,0-.04-.63,1.15-1.9,1.5-2,1.76-.48,7.13-.03,9.5,0Z"/><path class="cls-102" d="M101.98,31.09c-.59,1.37-2.02.96-3,2.5l2,1.5c.45.31.44.64,0,1,1.08,1.44.56,1.93-1,1-.3.63-.63.62-1,0-.34,1.23-2.15,2.47-3,1,.34-2.01,0-2.68-1-2,1.66-2.79,3.49-2.86,5.5-5h1.5Z"/><path class="cls-16" d="M128.97,33.09c.6.29,1.5.67,2,1,.84.64,1.17,1.31,1,2l-2-.5c1.13.76,1,1.3,1,2.5-1.62,2.1-2.26,1.58-2-1-.85-.26-.83-.6,0-1-1.35-.39-2.02-1.06-2-2-.25-.35-.79-1.76-1-2,.91-.84,1.91-.51,3,1Z"/><path class="cls-47" d="M93.98,37.08v-1c.19.06.81.06,1,0,.96,1.52.5,2.06-1,1Z"/><path class="cls-47" d="M97.98,55.08c-.3-.18-1.09.27-1.5,0-1.29-.85-3.81-4.5-4.5-6-.26-.57.55-2.1-1-2-1.02-.16-.54-1.17,0-2,.07-.29-.04-.66,0-1-.46-.77-.75-1.42,0-2h1c.81.21.99,1.47.53,3.77,2.23,2.82,4.42,6.46,5.46,9.23Z"/><path class="cls-27" d="M95.98,38.08c2.35,2.2.9,7.61-2,5-.7.9-.82,2.11,0,3,.71-2.27,1.53-1.95,2.45.97,1.58,3.87,2.41,4.98,7.02,7.33,1.55-.94,3.06-.37,4.53,1.7.87.28.86.62,0,1l-1,2c-.86-.19-2.03.12-3,0-.3-.69-4.88-3.34-6-4l-5-5.5c.7-1.57-.94-2.7-1-3-.22-1.2-.04-3.14,0-4.5,0-.33-.05-.68,0-1l2-3v-1c1.14.16.85-.74,1-1,.96-.3,1.19-.98,2-1,.42,1.42-.66,1.83-1,3Z"/><path class="cls-24" d="M133.97,52.08c-.87,1.25-2.64,2.74-4,2-.87-.28-.86-.62,0-1-1.24-1.44,1.16-4.78,3-5,.39-1.01.73-2.01,1-3-.86-.33-.86-.67,0-1,.37-1.03.7-2.03,1-3,.01.05.83-.19,1,.5,1.15,4.71-1.02,7.03-2,10.5Z"/><path class="cls-31" d="M134.97,41.08v2.5l-1,.5c-.76-.33-.76-.67,0-1,.04-.82-.03-1.67,0-2.5l1-.5c.08.29-.06.67,0,1Z"/><path class="cls-28" d="M133.97,44.08c-.03.33.03.67,0,1-.34,1.04-.67,2.04-1,3-1.05,1.46-1.62,3.47-3,5-.65,1.43-1.43,1.5-2,0-.24.58-.58.54-1,0-.73-1.41,1.54-3.57,3-4-1.06-1.84-.73-2.51,1-2-.17-3.54.49-4.87,2-4h1c-.02.33.03.67,0,1Z"/><path class="cls-93" d="M132.97,43.08c-.16,1.01-.88,1.14-1,1.5-.21.61.22,1.44,0,2-.28.71-.98.45-1,.5-1.21-.16-1.88-.81-2-2-1.2-.76-.49-6.7,2-7,.24.11.83-.18,1,.5-.5,1.96,1.27,2.73,1,4.5Z"/><path class="cls-47" d="M91.98,41.08c.2-1.41.11-2.57,2-3l-1,2.5-1,.5Z"/><path class="cls-2" d="M108.97,32.09c1.73,1.47,1.73,2.13,0,2,2.44.39.59,4.02-2,3-2.78-1.19-1.68-2.65,1-3-.87-.61-1.14-.64-2,0-.21,2.01-1.78,1.17-3,0,.04-.03-.22-.61.5-1,.23-.13.69.13,1,0,.43-.18.64-.91,1-1,.76-.18,2.62-.12,3.5,0Z"/><path class="cls-102" d="M102.98,35.08c-.28.87-.62.86-1,0,.32-.36.3-.47,1-1,.85.33.85.66,0,1Z"/><path class="cls-56" d="M122.97,33.09l2,1c.09.33-.11.74,0,1l2,1c-.05-1.48,1.07-.97,2,0-.07.31.1.71,0,1,2.39,6.87-5.41,13.43-7.84,4.18-1.44-.52-2.49-1.58-3.16-3.18-3.21.95-2.48-2.28-2-4-1.93-.38-1.72-1.15,0-2,2.8.14,3.65.61,5.5,1,.53.11,1.1-.11,1.5,0Z"/><path class="cls-73" d="M115.97,32.09c.07.64-.14,1.48,0,2-.28.87-.62.86-1,0l-1,2c.06,2.43-3.17.82-2-1-.87-.28-.86-.62,0-1-.48-.92,0-1.27,1-1l1-1c.66-.03,1.34-.03,2,0Z"/><path class="cls-26" d="M112.97,32.09c.63.3.62.63,0,1-.06.04.36.72-1,1-1.92,1.37-2.92,1.37-3,0,.09-.63-.04-1.35,0-2,1,.13,1.33,1,1.5,1,.15,0,.69-.77,2.5-1Z"/><path class="cls-22" d="M128.97,36.08c-.62.09-1.65-.17-2,0-.77.5-1.07-.05-1-1l1-1c.09.12,2.22.84,2,2Z"/><path class="cls-100" d="M126.97,36.08c-.05.02.13,1.04-.5,1-.75-.58-1.12-1.12-1.5-2h1l1,1Z"/><path class="cls-22" d="M124.97,34.09h-1.5l-.5-1c.43.12,1.03-.18,1.5,0,.65.2.41.63.5,1Z"/><path class="cls-22" d="M125.97,32.09c-.62-.17-1.12-.01-1-1,.46.41.58.53,1,1Z"/><path class="cls-56" d="M112.97,33.09v-1c.32-.04.67.01,1,0,.17,1.15-.83.88-1,1Z"/><path class="cls-6" d="M98.98,37.08c.61.3.6.63,0,1,.87.28.86.61,0,1,.39,1.02.72,2.02,1,3,.71,1.51-.65.75-.58.7,4.56-2.7,3.59,2.36-2.42,2.29,1.23,3.31,3.23,6.83,7,7,.28-.89.61-.87,1,0l1-1c1.4-1.32,1.92-.77,1,1,4.51,2.31,4.84,3.64,1,4-3.05.74-4.41-.99-6.5-2-.61-.3-2.54-.71-3-1-.86-.55-1.62-1.83-2.5-2.5l1-2.5c-1.76.14-2.31.32-2-1.5-.26-.68-.77-.4-1-.5-.82-.62-.73-2.36,0-3,.24-.11.83.18,1-.5,0-1.59.56-3.01,1-4.5,1.18-.31,1.49-1.42,3-1Z"/><path class="cls-100" d="M130.97,38.08c0,1.05-1.49,5.87-2,7,1.31,2.7-4.4,6.85-7,6,.13.96-.04,2.17-.87,2.41-2.23.64-8.65.61-10.12-.41-2.11-.95-2.07-3.01-1-5-.96-2.89,3.37-6.21,6.32-4.85-.05-2.46.51-4.18,1.68-5.15l2.5,1,2.5-1c-.55,1.54.99,2.25,1,2.5,0,.17-1.55,1.01-1,2.5l3.5,1c2.93-1.89.51-3.15.5-3.5,0-.2,1.64-2.43,2-3.5.75.07,1.16.63,2,1Z"/><path class="cls-55" d="M127.97,53.08c1.17,2.84-3.58,5.36-7,6-4.23,1.99-9.29,1.07-14,0l-.5-1h-2.5v-1c1.3-.12,2.74.18,4,0,1.15-2.46,2.15-2.79,3-1,1.95.15,3.95.15,6,0,.98-2.71,3.31-3.37,7-2-.03-1.44,2.12-2.06,3-1,.28-.07.65.03,1,0Z"/><path class="cls-103" d="M121.97,51.08c1.26-.2,1.59.47,1,2,1.82-.9,2.3-.66,1,1-.05.02.2.74-.5,1-1.55.56-5.85.69-6.5,1-2.05.26-4.05.26-6,0-1.09.28-1.32.76-3,1v-1l1-1.5-1.5-1.5-1,1,.5-2c.82-1.09,3.87-2.94,4,1,.8,0,.99-.5,1.5-1,1.28,1.93,1.34.11,2,0,2.56-.43,4.88.18,7.5-1Z"/><path class="cls-47" d="M93.98,46.08c-.24-.11-.83.18-1-.5v-2c.17-.68.76-.39,1-.5v3Z"/><path class="cls-65" d="M129.97,53.08v1c-.03,1.07-1.03,2.07-3,3-.14.06-.32,1.68-2.5,1-.68.17-.39.76-.5,1-.89.16-2.45-.26-3,0l.5-1c.82.04,4.33-.83,4.5-1,.19-.19-.26-1.03,0-1.5.45-.81,1.99-1.37,2-2.5.65-.06,1.34.03,2,0Z"/><path class="cls-41" d="M133.97,53.08c-1.23.6-.78.73-1,1-2.08,1.23-4.06,2.12-6,3l3-3,4-2c-.07.25-.03.73,0,1Z"/><path class="cls-45" d="M132.97,48.08v-2.5l1-.5c-.07.82.17,1.83,0,2.5s-.97.45-1,.5Z"/><path class="cls-69" d="M128.97,45.08h2v2c-.44,1-.08.81-1,2-1.66,2-4,3.33-7,4-.27-.12-.81.18-1-.5v-1.5c1.68-.76,2.11-2.39,4-2v-2c2.93.46,1.57-.65,2-1.5.37-.72.98-.45,1-.5Z"/><path class="cls-96" d="M129.97,49.08c-1.01,1.31-2.17,2.57-3,4-.81.21-2.2.71-3,1,.15-1.09-.58-.82-1-1l.5-1c2.76.51,4.02-2.35,6-4l.5,1Z"/><path class="cls-107" d="M111.97,34.09v1c-.26.82-.6.8-1,0v1c.9.26.88.59,0,1,.21,3.5-2.03,10.82-6,9-.16,2.81-1.35.23-1.23.29,2.63,1.17,1.98,2.91-.77,1.71-.84,1.13-1.77.35-2-1-1.02-.99-1.53-1.66,0-2,1.12-2.06,2.46-4.06,4-6,.24-2.51.91-3.17,2-2,.53-.36,1.69-.73,2-1.5.17-.42-.07-1,0-1.5.97-.11,2.12.18,3,0Z"/><path class="cls-102" d="M107.97,34.09c-.66-.02-1.34.03-2,0l.5-1h1l.5,1Z"/><path class="cls-99" d="M115.97,34.09c.2.7.4,1.07,1,1.5l-1,1,2-.5v2l1,4.5-2,3.5-4.5-2-2.5,4c-1.95,1.75-2.29,1.6-2-1,1.24-3.06,2.24-6.39,3-10-.16-.17.15-.74,0-1-.65-.29-.64-.63,0-1,.21-.05.84-.07,1,0,.12.05-.29,1.38,2,1l1-2h1Z"/><path class="cls-56" d="M113.97,36.08v-1.5l1-.5v1.5c-.24.62-.59.43-1,.5Z"/><path class="cls-23" d="M100.98,45.08c-.5,1.19-1.2.97-2,0-.84,1.62-1.59,1.81-2,0l1.5-2,2.5,1v-1h-2l1-1c-.63-1.2-.2-1.67,1-1,.28-.14.77.15,1,0,.97-.63,2.09-1.3,3-2l1,.5-3.5,5.5c-.42.17-1-.07-1.5,0Z"/><path class="cls-67" d="M98.98,45.08c.87.28.86.62,0,1,.73,2.07,2.06,3.73,4,5,1.01-.61,1.36-.06,1,1v2l-1-2-2,1c.38-2.49-2.77-3.63-4-5.5.5-1.1-2.01-2.22,0-2.5.63-.09,1.34.02,2,0Z"/><path class="cls-53" d="M104.97,46.08c1.64.28,2.64.62,3,1,.69.16,1.38.64,2,1,.11.07-.04,1.53,2,1l-1,4c-.8,0-.99-.5-1.5-1l-1,1-1.5-1-1-1c-.3.58-.63.57-1,0-1.03.42-1.44,0-1-1-1.17-.39-1.98-1.04-1-2l1-.5-1-1.5c.66-.03,1.35.07,2,0Z"/><path class="cls-37" d="M116.97,56.08c-.05.02.18.83-.5,1-1.36.33-3.47-.23-5,0l-.5-1c1.85-.48,3.38-1.24,5.5-1l.5,1Z"/><path class="cls-38" d="M104.97,51.08c.64.3.63.63,0,1-.3.13-.87-.16-1,0-1.15.18-.94-.97-1-1-.87-.28-.86-.62,0-1,.29-.72.62-.71,1,0,.04.06,1.18-.14,1,1Z"/><path class="cls-67" d="M104.97,52.08v-1h1c.15,1.09-.59.82-1,1Z"/><path class="cls-26" d="M110.97,37.08c.19.2,1.71.7,2,1.5.67.96-1,1.66-1,2,0,.21,1.55.98,1,2.5h-1.5l-3.5,4c-.72-.17-1.69.11-2.5,0l-.5-1c.65-.07,1.34.03,2,0l2-5.5-2-2,4-1.5Z"/><path class="cls-6" d="M100.98,45.08v2c-1.07,1.3-2.13.56-2-1v-1c.66-.02,1.37.09,2,0Z"/><path class="cls-67" d="M102.98,48.08c.09.07.79,1.72,1,2h-1c-1.76,1.19-4.8-2.58-2-3,.47.26,1.72.76,2,1Z"/><path class="cls-26" d="M110.97,36.08s-1,.14-1-.5c.2-.64.62-.41,1-.5v1Z"/></g></svg>