<?xml version="1.0" encoding="UTF-8"?><svg id="_圖層_2" xmlns="http://www.w3.org/2000/svg" viewBox="0 0 249.94 219.96"><defs><style>.cls-1{fill:#7e8588;}.cls-2{fill:#748b94;}.cls-3{fill:#83888d;}.cls-4{fill:#878a8d;}.cls-5{fill:#916748;}.cls-6{fill:#8e8f92;}.cls-7{fill:#878b8f;}.cls-8{fill:#a37d63;}.cls-9{fill:#82868b;}.cls-10{fill:#727d80;}.cls-11{fill:#6d6c71;}.cls-12{fill:#754624;}.cls-13{fill:#9fa3a2;}.cls-14{fill:#724321;}.cls-15{fill:#6a7b7d;}.cls-16{fill:#a5a7a0;}.cls-17{fill:#73737c;}.cls-18{fill:#82888b;}.cls-19{fill:#90241f;}.cls-20{fill:#835431;}.cls-21{fill:#788488;}.cls-22{fill:#818e90;}.cls-23{fill:#952820;}.cls-24{fill:#9c3b36;}.cls-25{fill:#798a94;}.cls-26{fill:#798a8d;}.cls-27{fill:#a57b5f;}.cls-28{fill:#95302f;}.cls-29{fill:#798489;}.cls-30{fill:#6a7a7b;}.cls-31{fill:#7e8a8e;}.cls-32{fill:#737b85;}.cls-33{fill:#a6856a;}.cls-34{fill:#87898d;}.cls-35{fill:#838d90;}.cls-36{fill:#7f8c90;}.cls-37{fill:#bca78e;}.cls-38{fill:#c9b39b;}.cls-39{fill:#747b7f;}.cls-40{fill:#6d727c;}.cls-41{fill:#623c20;}.cls-42{fill:#727e82;}.cls-43{fill:#879093;}.cls-44{fill:#9d3028;}.cls-45{fill:#6f7c7f;}.cls-46{fill:#9ca29f;}.cls-47{fill:#979fa2;}.cls-48{fill:#7c7e82;}.cls-49{fill:#728390;}.cls-50{fill:#875334;}.cls-51{fill:#85888e;}.cls-52{fill:#8c221e;}.cls-53{fill:#939496;}.cls-54{fill:#9e322a;}.cls-55{fill:#a2a4a3;}.cls-56{fill:#7a8487;}.cls-57{fill:#85888b;}.cls-58{fill:#929699;}.cls-59{fill:#774a28;}.cls-60{fill:#758489;}.cls-61{fill:#9f9f9f;}.cls-62{fill:#734423;}.cls-63{fill:#7a8086;}.cls-64{fill:#8c9496;}.cls-65{fill:#7b461c;}.cls-66{fill:#7c8083;}.cls-67{fill:#8e9294;}.cls-68{fill:#848e90;}.cls-69{fill:#7f8d94;}.cls-70{fill:#697f89;}.cls-71{fill:#738282;}.cls-72{fill:#d5c1a6;}.cls-73{fill:#8a9599;}.cls-74{fill:#8e939c;}.cls-75{fill:#8e9092;}.cls-76{fill:#747b80;}.cls-77{fill:#727b7d;}.cls-78{fill:#8c8e94;}.cls-79{fill:#902626;}.cls-80{fill:#808c94;}.cls-81{fill:#76797f;}.cls-82{fill:#6b3d1c;}.cls-83{fill:#97a6ae;}.cls-84{fill:#788790;}.cls-85{fill:#cab9a6;}.cls-86{fill:#718895;}.cls-87{fill:#8c9ba4;}.cls-88{fill:#818e93;}.cls-89{fill:#859198;}.cls-90{fill:#7f8d92;}.cls-91{fill:#747e83;}.cls-92{fill:#714321;}.cls-93{fill:#93a1a6;}.cls-94{fill:#747e84;}.cls-95{fill:#6e8390;}.cls-96{fill:#7f8487;}.cls-97{fill:#75858e;}.cls-98{fill:#718390;}.cls-99{fill:#98292b;}.cls-100{fill:#962720;}.cls-101{fill:#baa88d;}.cls-102{fill:#ad392f;}.cls-103{fill:#79878c;}.cls-104{fill:#83919a;}.cls-105{fill:#7f8b93;}.cls-106{fill:#808b8c;}.cls-107{fill:#ad3f39;}.cls-108{fill:#60676e;}.cls-109{fill:#75878c;}.cls-110{fill:#667780;}.cls-111{fill:#5f6d72;}.cls-112{fill:#80502c;}.cls-113{fill:#cbb79e;}.cls-114{fill:#a93f35;}.cls-115{fill:#6d8590;}.cls-116{fill:#82878b;}.cls-117{fill:#9e322c;}.cls-118{fill:#8b949d;}.cls-119{fill:#7e8287;}.cls-120{fill:#879299;}.cls-121{fill:#94241f;}.cls-122{fill:#818589;}.cls-123{fill:#9f7554;}.cls-124{fill:#81868a;}.cls-125{fill:#768991;}.cls-126{fill:#6c828c;}.cls-127{fill:#889497;}.cls-128{fill:#848c8e;}.cls-129{fill:#8c8f91;}.cls-130{fill:#ceb9a5;}.cls-131{fill:#603618;}.cls-132{fill:#d2c1a7;}.cls-133{fill:#85888c;}.cls-134{fill:#77838d;}.cls-135{fill:#67371b;}.cls-136{fill:#93969b;}.cls-137{fill:#841f1d;}.cls-138{fill:#667982;}.cls-139{fill:#774c29;}.cls-140{fill:#7b8a8d;}.cls-141{fill:#878c8f;}.cls-142{fill:#777d85;}.cls-143{fill:#74858e;}.cls-144{fill:#7e8a94;}.cls-145{fill:#a23a34;}.cls-146{fill:#8c654d;}.cls-147{fill:#8e6544;}.cls-148{fill:#683f22;}.cls-149{fill:#805334;}.cls-150{fill:#815334;}.cls-151{fill:#8b8e8e;}.cls-152{fill:#727f82;}.cls-153{fill:#825635;}.cls-154{fill:#7e9192;}.cls-155{fill:#737b84;}.cls-156{fill:#6a717b;}.cls-157{fill:#868f90;}.cls-158{fill:#724928;}.cls-159{fill:#992e27;}.cls-160{fill:#7d8d95;}.cls-161{fill:#86878a;}.cls-162{fill:#838d8f;}.cls-163{fill:#828791;}.cls-164{fill:#8c959a;}.cls-165{fill:#6c4325;}.cls-166{fill:#91221a;}.cls-167{fill:#70858f;}.cls-168{fill:#7a898b;}.cls-169{fill:#6b3a15;}.cls-170{fill:#875e45;}.cls-171{fill:#7c7f86;}.cls-172{fill:#b0423a;}.cls-173{fill:#858d92;}.cls-174{fill:#963331;}.cls-175{fill:#ccb9a2;}.cls-176{fill:#83878b;}.cls-177{fill:#d3bda0;}.cls-178{fill:#667379;}.cls-179{fill:#6d7980;}.cls-180{fill:#7b8187;}.cls-181{fill:#815329;}.cls-182{fill:#5d727d;}.cls-183{fill:#7c8b94;}.cls-184{fill:#9ca1a0;}.cls-185{fill:#787c82;}.cls-186{fill:#cbbba6;}.cls-187{fill:#748086;}.cls-188{fill:#708088;}.cls-189{fill:#8d9195;}.cls-190{fill:#a63b2e;}.cls-191{fill:#969696;}.cls-192{fill:#6d3f1c;}.cls-193{fill:#828c91;}.cls-194{fill:#6c3f1f;}.cls-195{fill:#879296;}.cls-196{fill:#9a2d28;}.cls-197{fill:#778082;}.cls-198{fill:#74828a;}.cls-199{fill:#7f8f92;}.cls-200{fill:#788b92;}.cls-201{fill:#7b7c84;}.cls-202{fill:#b6453a;}.cls-203{fill:#7a8588;}.cls-204{fill:#849093;}.cls-205{fill:#84888b;}.cls-206{fill:#7b7f87;}.cls-207{fill:#a8836a;}.cls-208{fill:#bca98b;}.cls-209{fill:#878d95;}.cls-210{fill:#c5b095;}.cls-211{fill:#c2af95;}.cls-212{fill:#677983;}.cls-213{fill:#8e9093;}.cls-214{fill:#972623;}.cls-215{fill:#6e7b7d;}.cls-216{fill:#936241;}.cls-217{fill:#767b7f;}.cls-218{fill:#7f858a;}.cls-219{fill:#8e9ba0;}.cls-220{fill:#808a8d;}.cls-221{fill:#8d9092;}.cls-222{fill:#8d989d;}.cls-223{fill:#7e5535;}.cls-224{fill:#92979b;}.cls-225{fill:#a1352e;}.cls-226{fill:#8e9691;}.cls-227{fill:#a02f27;}.cls-228{fill:#9f3834;}.cls-229{fill:#a34844;}.cls-230{fill:#b14640;}.cls-231{fill:#63340c;}.cls-232{fill:#8b2021;}.cls-233{fill:#7a4a28;}.cls-234{fill:#7e8f97;}.cls-235{fill:#7c5537;}.cls-236{fill:#6f4525;}.cls-237{fill:#c9b59e;}.cls-238{fill:#835a35;}.cls-239{fill:#942923;}.cls-240{fill:#9ca3a0;}.cls-241{fill:#798589;}.cls-242{fill:#849094;}.cls-243{fill:#5e737d;}.cls-244{fill:#cfb99e;}.cls-245{fill:#603412;}.cls-246{fill:#818489;}.cls-247{fill:#6a7a82;}.cls-248{fill:#6f7e82;}.cls-249{fill:#747e86;}.cls-250{fill:#8d9095;}.cls-251{fill:#7d4c26;}.cls-252{fill:#778182;}.cls-253{fill:#757c85;}.cls-254{fill:#747478;}.cls-255{fill:#7c4e31;}.cls-256{fill:#7d8d93;}.cls-257{fill:#7c8188;}.cls-258{fill:#926546;}.cls-259{fill:#982b29;}.cls-260{fill:#848d92;}.cls-261{fill:#666d73;}.cls-262{fill:#797d80;}.cls-263{fill:#8e1d15;}.cls-264{fill:#d0bba1;}.cls-265{fill:#7e9092;}.cls-266{fill:#7b8188;}.cls-267{fill:#60767e;}.cls-268{fill:#5f727e;}.cls-269{fill:#888a8d;}.cls-270{fill:#83878c;}.cls-271{fill:#6f7980;}.cls-272{fill:#6a3b1c;}.cls-273{fill:#936a4b;}.cls-274{fill:#717e80;}.cls-275{fill:#617372;}.cls-276{fill:#724423;}.cls-277{fill:#63381a;}.cls-278{fill:#8f2220;}.cls-279{fill:#7f8e97;}.cls-280{fill:#93140c;}.cls-281{fill:#7e9093;}.cls-282{fill:#898c8f;}.cls-283{fill:#8a8f90;}.cls-284{fill:#cdb89e;}.cls-285{fill:#7a8991;}.cls-286{fill:#8a8d92;}.cls-287{fill:#cdbaa2;}.cls-288{fill:#808887;}.cls-289{fill:#c6b094;}.cls-290{fill:#653918;}.cls-291{fill:#747a80;}.cls-292{fill:#7e4e2a;}.cls-293{fill:#cab59d;}.cls-294{fill:#8d949a;}.cls-295{fill:#764829;}.cls-296{fill:#8d9ea5;}.cls-297{fill:#a3a5a5;}.cls-298{fill:#673813;}.cls-299{fill:#8d8f91;}.cls-300{fill:#9d2d27;}.cls-301{fill:#997255;}.cls-302{fill:#cfbba3;}</style></defs><g id="_圖層_1-2"><path class="cls-95" d="M142.97,59.99c.68.61.64,1.32,0,2l-1,1c.69.67.71,1.36,0,2-.05.32.04.67,0,1-.3.64-.63.62-1,0l-1,2c.69.61.65,1.32,0,2l-1,1c.59.31.58.65,0,1-.02.31-.06.75,0,1-.28.87-.62.86-1,0-.46.4-.46.73,0,1,.47.82-.24,2.24-1,3-2.61,6.29-5.28,12.62-8,18.99-.11.3.12.73,0,1l-2,4c-1.25,5.07-3.42,10.21-6,14.99l-2,4c-.08.3.07.67,0,1-.3.64-.63.63-1,0-.69.99-1.03.66-1-1-.86-.27-.85-.6,0-1l4-9-1.1-.89,3.1-7.11c-1.08-2.35-.75-3.5,2-3l3-6c-.53-.28-.51-.61,0-1l1-2c-.66-.26-.64-.6,0-1l1-1c-.86-.25-.84-.59,0-1l1-2c-.86-.24-.84-.58,0-1l1-1c-.86-.26-.84-.6,0-1l1-1c-.86-.32-.85-.65,0-1l1-2c-.88-.25-.85-.58,0-1l1-2,1-1c-.59-.32-.58-.65,0-1-.86-.33-.86-.67,0-1l1-1c-.82-.17-.75-1.51,0-2l1-1c-.87-.34-.87-.67,0-1l1-1c-.86-.33-.86-.67,0-1l1-2v-1l1-1c-1.37-1.83-.77-5.53,1-6,.28-.87.62-.86,1,0,1.01,1.13,1.01,2.8,0,5Z"/><path class="cls-198" d="M141.97,23c.35,4.26-.59,9.45,0,13.49.08.57,1.8,8.07,2,8.5l1,3c.13,2.52.13,5.47,0,8l-1,3c-.09.32.1.72,0,1-.28.87-.62.86-1,0,.02-1.65.06-3.35,0-5-.45-1.82-.79-3.82-1-6-3.28.74-4.77-7.69-2-9l-1-3c-.9-.18-.86-.52,0-1-2.47-1.23-2.61-8.53-1.69-11.31.48-1.47,2.36-5.2,3.69-3.68,2.12-2.85,3.31-1.17,1,2Z"/><path class="cls-119" d="M160.96,213.92c.18-.9.52-.86,1,0l1,1c1.26-.69,2.81-.73,4,0,.56-1.91,1.44-1.91,2,0l1,1c1.26-.69,2.81-.73,4,0,.92-1.93,2.09-1.93,3,0l4,1c5.79-.3,11.46-.63,17-1,.56-1.91,1.44-1.91,2,0,.4.47.73.47,1,0,.19-.89.52-.86,1,0,2.1-.26,4.1-.6,6-1,.5-.8,1.22-.58,2,0l3-1c.21-.68.55-.64,1,0,.65.13,1.08.24,1,1,.87.28.86.62,0,1-.43,2.68-.94,2.43-2,0l-3,1c-.43,2.69-.94,2.43-2,0-1.85.07-3.52.4-5,1-1.23,2.73-2.76,2.72-4,0-6.89.9-14.1.86-20.99,0-.91,1.94-2.09,1.94-3,0l-1-1c-.33.64-.67.64-1,0-1.15.76-2.86.79-4,0-.66.73-1.37.72-2,0l-1-1c-.87.73-2.14.76-3,0-.65-.05-1.35.08-2,0l-2-1c-.31-.06-.66.04-1,0-1.17-1.52-.67-1.86,1-1,.62-.75,1.34-.76,2,0Z"/><path class="cls-97" d="M147.96,13.01c-.36.77.24,3.22,0,4.5-.07.4-1.55.89-1,2.5l-4,1-1,2c-.04-.49.04-1,0-1.5-.25-.69-.97-.45-1-.5-1.63.46-1.99.41-1-1-.91-.17-1.58-.5-2-1-.24.86-.58.84-1,0l-2-1c-.33.86-.67.86-1,0-.87-.28-.86-.62,0-1-.82-.49-.48-.83,1-1,.27-.55.61-.53,1,0l1,1c.5-.72,1.48-.73,2,0,.21-.67.55-.63,1,0,1.35.8,3.73.89,5,0-.21-.43-.21-1.1,0-2-1.29-.45-2.62-.78-4-1-3.22-1.88-.79-1.78,2.01-1.42l1.99-.58c-1.07-1.09-.74-1.75,1-2-.14-3.1,4.01.87,2,3Z"/><path class="cls-185" d="M146.96,148.95c6.34-5.11,7.27-1.65,1,2-1.16,2.88.17,5.21,4,7,.33-.85.67-.85,1,0,0,1.41-.15,2.97-1,4-.75.36-1.42.03-2-1-.27.86-.61.85-1,0l-2-2c-1.2-.2-1.87,1.13-2,4,.74.66.72,1.37,0,2-.28.87-.62.86-1,0,0-.33,0-.67,0-1-.81-3.92-.78-8.07,0-11.99,1.08-1.51,1.35-1.96,3-3Z"/><path class="cls-122" d="M141.97,205.92c.28-.88.61-.87,1,0l1.23-.54c-.17,1.57,1.08,2.75,3.77,3.54.85-.36,2.21.31,3,1,1.97-2.27,4.64-.96,4,2l2,1c.56-1.9,1.44-1.91,2,0,.87.28.86.62,0,1-.75.1-1.1.11-1,1-.34-.04-.7.07-1,0l-2-1c-.31-.09-.7.09-1,0l-2-1c-.51-.24-1.81.23-2.5,0-1-.33-7.12-3.44-8-4s-1.4-1.93-1.5-2c-1.38-1.85-.83-2.38,1-1,.25-.8.58-.78,1,0Z"/><path class="cls-175" d="M173.96,135.95c.75-1.41,1.75-.41,3,3,.77.25.74.59,0,1,.72.29.71.62,0,1,.07.36-.26.7-1,1,.87.28.86.62,0,1-.53,1.96-1.4,1.96-2,0-1.12-.18-1.6.04-1,1,4.1,2.99-4.89,4.82-5,0-.99.59-1.65.59-2,0-.63-1.99,1.19-2.23,3-2l-1-1,.5-1c.96.13,1.74-.55,2.5-1,.37-1.78.75-2.61,2-1l1-1c-.86-.3-.85-.64,0-1Z"/><path class="cls-293" d="M191.95,112.96l1,2c.12,1.29,0,2.69,0,4-.88,1.08-1.54.08-2-3-1-.3-2-.96-3-2-.19.88-.53.84-1,0-.63-.37-.96-1.04-1-2,0-.33-.07-.76,0-1-.5-.88-.06-1.7,1-2,.3-.54.64-.53,1,0,.32.17,1.06-.25,1.5,0,1.22.7,1.81,2.66,2.5,4Z"/><path class="cls-141" d="M135.97,198.92c.87.33.87.67,0,1l1,1c1.64-.68,3.78,1.33,3,3,.98.67,1.32,1.34,1,2-.72.12-1.11.08-1,1-1.13-.78-1.96-1.18-3-2l-1-1c-.15-.23.15-.76,0-1l-2-3c-.13-1.2-.07-2.75,0-4,.28-.87.62-.86,1,0l1,3Z"/><path class="cls-58" d="M148.96,184.93c.59.3.57.63,0,1-.28.87-.61.86-1,0l-1,1c-.53,1.95-1.43,1.93-2,0l-1,1c.86,2.87-2.57,4.6-5,3-.9.67-1.25.13-1-1l3-3c.32-.07.68.07,1,0l1-1c.28-.12.72.12,1,0l1-1c.28-.09.67.07,1,0l2-1c.24-.11.67.08,1,0,.62.3.61.63,0,1Z"/><path class="cls-130" d="M168.96,126.96c1.43-.11,2.43,1.22,3,4,1.18.83.51,1.82-2,3-.02-.05-.63.22-1-.5-.42-.81-1.95-3.77-2-4-.28-1.26-.37-4.55,1-4.5,2.39-1,3.06.26,1,2Z"/><path class="cls-302" d="M173.96,131.95c1.12-.37,2.81,1.89,2,3-.33.88-1.02,1.17-2,1-2.5,3.55-1.84-1.89-1.4-1.92.21-.02.82,3.85-1.6,1.92l-1-.5c-.15-.54.15-1.2,0-1.5v-2h1.5l.5-1c.5-.87,1.16-.54,2,1Z"/><path class="cls-113" d="M201.95,133.95c.11-1.69,1.9-2.5,3-1,.31.45.7,1.51,1,2-.28.87-.62.86-1,0-.1.92-.45.86-1,0-.21,1.96-1.09,2.5-3,2-.95-1.65-1.33-2.56-2-4-.71-1.19-.3-1.64,1-1,.44.55.78,2.08,2,2Z"/><path class="cls-237" d="M172.96,123.96c.6.6,1-.14,1,2-.28.87-.62.86-1,0-.99,2.45-2.32,2.79-4,1l-1-2c.09-1.47,1.29-.39,2-2h1l2,1Z"/><path class="cls-1" d="M146.96,168.94c.87.44.64,1.22,0,2,.36.49.7,1.15,1,2,.71.14.65.49,0,1,.36.49.7,1.15,1,2,.67.26.64.6,0,1,.52,1.56.18,1.89-1,1-.28.87-.62.86-1,0-.04-.33.03-.67,0-1l-1-2c-.03-.33.04-.67,0-1-.33-.95-.66-1.94-1-3-.02-.33,0-.67,0-1-.47-.25-.43-.59,0-1,.28-.87.62-.86,1,0,.28-.87.62-.86,1,0Z"/><path class="cls-38" d="M203.95,124.96c.16.46-.08,1.36,0,2l-3-1-1,1s-.85-.17-1,.5c-.23.99.14,2.39,0,3.5-.28.87-.62.86-1,0-.05-.32.02-.67,0-1-.47-.25-.43-.59,0-1-.04-.99.07-2.01,0-3,.84-.94,2.17-1.61,4-2,.16-.07.78-.05,1,0l1,1Z"/><path class="cls-206" d="M217.95,143.95c3.72.37,5.72,1.37,6,3,.02,1.23-1.1.64-2,0-1.21.7-2.88-.12-4-1-.25.87-.58.85-1,0l-1-1c-.3.66-.64.64-1,0-2.29-1-1.96-1.67,1-2,.33.03.67-.02,1,0,.77.31,1.1.64,1,1Z"/><path class="cls-75" d="M143.97,163.94l-1-.5v-11c.15-.67.97-.45,1-.5.03,3.99-.05,8.01,0,11.99Z"/><path class="cls-294" d="M167.96,140.95c.66.03,1.34-.01,2,0v2h-3.5l-.5,1c-.33.86-.67.86-1,0h-1c-1.82-.59-.19-1.74,1.04-1.8.14,0-1.61,1.79-2.04-.2-.87-.28-.86-.62,0-1,1.61-.1,3.38-.07,5,0Z"/><path class="cls-284" d="M187.95,115.96c1.84,2.89,1.5,4.22-1,4,.62,1.18.2,1.62-1,1l-1-1c.09-.14.61-2.04,1-3,.7-.51.85-1.17,1-2,.09-.3-.07-.68,0-1,.31.08.68-.06,1,0,1.89.32,1.8,1.11,0,2Z"/><path class="cls-264" d="M192.95,118.96v2c-1.15-.17-.86.78-1,1-.72,1.04-1.39,1.37-2,1-.61-.3-.6-.63,0-1-.87-.28-.86-.62,0-1l1-1c-2.44-.48-1.83-1.56,0-3-.87-.28-.86-.62,0-1l2,3Z"/><path class="cls-221" d="M136.97,192.93c.87.28.86.62,0,1l-1,1c2.67.7,2.6,3.1,0,4l-1-.5c-.03-.83.05-1.68,0-2.5-.9-.45-.69-1.24,0-2,.04-.33-.03-.67,0-1,.99-1.55,2.42-2.06,2,0Z"/><path class="cls-209" d="M156.96,143.95c1.13-.69,1.66-.16,2,1,.92,2.29-2.29,3.73-4,2l-2-1c-.27.89-.6.87-1,0-.64-.3-.63-.63,0-1,.34-.08.74.1,1,0l1-1c.28-.07.65.03,1,0,.83-.8,1.61-1.14,2,0Z"/><path class="cls-210" d="M206.95,136.95c.1.98-.06,2.01,0,3l-2-2c-.85-.31-.84-.64,0-1-.73-.66-.72-1.37,0-2h1c.13.21.75-.37,1,2Z"/><path class="cls-177" d="M204.95,132.95l-3,1c-.77-2.24.92-2.84,1-3,1.2-.03,1.53,1.31,2,2Z"/><path class="cls-212" d="M144.96,7.01c1.38.41.94.96,1,1l-1,1c-.57,2.94-3.98,1.71-2-1-1.39-1.87-.79-2.44,1-1,.23-.7.57-.67,1,0Z"/><path class="cls-51" d="M151.96,145.95c.31-.08.69.09,1,0,1.15-.17,1.61-.07,1,1,2.05,1.62-2.25,3.43-4,3-.65.89-1.32,1.22-2,1l4-4c-1.57.05-3.55,1.09-5,2v-1l1-1c.32-.1.73.11,1,0l1-1c.31-.08.69.08,1,0,.29-.57.62-.56,1,0Z"/><path class="cls-124" d="M144.96,165.94c.73.96.74,2,0,3,0,.33,0,.67,0,1l-1-.5c-.02-1.5.03-3.01,0-4.5h1c.68.21.64.55,0,1Z"/><path class="cls-37" d="M186.95,107.97c.53.3.51.64,0,1,.52,2.1-.96,1.87-1,2l-1-1v-1c-.91-1.38-.4-1.84,1-1,.2-.06.8-.06,1,0Z"/><path class="cls-163" d="M221.95,143.95l1,1c.22.16.78-.16,1,0,.43.3,1.52,1.46,2,2-.6,1.38-1.34,1.37-2,0l-.5-1c-1.67-1.02-3.44-.64-5-1-.67-.15-.45-.97-.5-1,.29-.66.63-.65,1,0,.98.09,2.08-.16,3,0Z"/><path class="cls-87" d="M144.96,47.99l-1-.5v-2.5c.38.8.86.34,1,3Z"/><path class="cls-279" d="M147.96,13.01c.23-1.86.04-2.9-1.5-4l-.5,1c-1.4,1.32-1.92.77-1-1l1-1c1.03.78,2.21,1.37,3,2.5.7,2.43-.93,2.36-1,2.5Z"/><path class="cls-87" d="M143.97,58.99v-2.5l1-.5c-.15,2.77-.95,2.82-1,3Z"/><path class="cls-287" d="M201.95,123.96c-.05.02.2.74-.5,1-.82.31-2.21-.17-3.5,1-.02-.35.1-.87,0-1,1.38-.79,2.29-1.31,4-1Z"/><path class="cls-74" d="M215.95,141.95v1c-1.2,1.72-4.16.97-3-1,.97.07,2.03.05,3,0Z"/><path class="cls-124" d="M145.96,173.94c-.91.11-.88-.28-1-1-.1-.6.03-1.34,0-2l1,.5c.06.83-.09,1.69,0,2.5Z"/><path class="cls-180" d="M138.97,190.93c1.27,1.48.69,2.04-1,1l-1-1c.09-.1-.15-1.18,1-1l1,1Z"/><path class="cls-269" d="M165.96,215.92c.64.3.62.63,0,1-.21.68-.55.64-1,0-.66,0-1.34-.02-2,0v-1c.98.08,2.03-.12,3,0Z"/><path class="cls-87" d="M142.97,61.99c.02-.66,0-1.34,0-2h1c-.37,1,.63,1.29-1,2Z"/><path class="cls-87" d="M141.97,64.98c.1-.62-.13-1.42,0-2,.3-.54.64-.53,1,0-.04.49.04,1,0,1.5l-1,.5Z"/><path class="cls-198" d="M140.97,66.98c-.04.33.05.68,0,1-.28.87-.62.86-1,0,.07-.5-.16-1.08,0-1.5l1-.5c.61.3.6.63,0,1Z"/><path class="cls-87" d="M139.97,69.98c.06-.65-.08-1.35,0-2h1c-.21,1.33.49,1.35-1,2Z"/><path class="cls-87" d="M138.97,73.98v1l-1,1c-.07.32.07.68,0,1-.28.87-.62.86-1,0,.26-.58.53-1.87,1-3-.61-.31-.6-.65,0-1h1c.08.31-.08.68,0,1Z"/><path class="cls-264" d="M192.95,114.96l-1-.5v-1.5c.06.12.78-.46,1,2Z"/><path class="cls-294" d="M161.96,141.95c.87.28.86.62,0,1-.35,1.44-1.11,1.26-2,0v-1c.32-.04.67.03,1,0s.67,0,1,0Z"/><path class="cls-74" d="M218.95,143.95h-1c-.18-.13-1.17.15-1-1,.49.03,1-.04,1.5,0l.5,1Z"/><path class="cls-189" d="M134.97,195.93h-1c.03-.49-.03-1,0-1.5l1-.5c-.07.64-.04,1.35,0,2Z"/><path class="cls-221" d="M135.97,202.92c-.41-.65-1.68-.08-2-3l1,.5,1,2.5Z"/><path class="cls-4" d="M153.96,213.92c-1.72-.53-1.81-.91-2-1h1.5l.5,1Z"/><path class="cls-4" d="M156.96,214.92c-2.27-.51-1.87-.96-2-1h1.5l.5,1Z"/><path class="cls-4" d="M160.96,215.92c-2.52-.31-1.87-.97-2-1h1.5l.5,1Z"/><path class="cls-198" d="M142.97,62.99h-1c.26-1.18.43-.75,1-1-.01.33.03.67,0,1Z"/><path class="cls-87" d="M140.97,66.98v-1h1c-.1.75-.11,1.1-1,1Z"/><path class="cls-98" d="M139.97,70.98c-.3.64-.63.62-1,0,.33-1.09.36-.72,1-1-.03.33.04.67,0,1Z"/><path class="cls-87" d="M138.97,71.98c.03-.35-.08-.74,0-1h1c-.1.75-.11,1.1-1,1Z"/><path class="cls-287" d="M203.95,124.96c-.02-.07-1.18.16-1-1,1.34.3.85.81,1,1Z"/><path class="cls-189" d="M137.97,191.93c2.81.74,1.51,2.79-1,1l-.5-1-1.5,1c-.2-1.19,1.79-1.76,2-2l1,1Z"/><path class="cls-221" d="M136.97,204.92c-.47-.37-.47-.22-1-1l1,1Z"/><path class="cls-187" d="M20.99,81.98c1.81-.89,2.37-.48,1,1-.46,2.63-1.19,2.5-2,0-1.14.11-2.14.44-3,1-.62.88-2.05.66-3,0-.32.44-.99.77-2,1,.32.48,0,.81-1,1,.62,1.04.08,1.41-1,1l1,1c.32-.86.66-.86,1,0l2,1c1.7-2.46,3.1-1.8,2,1l-2,1c-.23,2-1.23,1.92-2,0-1.16-.26-2.16-.92-3-2,1.12,1.66.46,2.66-2,3-.28.87-.62.86-1,0-.37.04-.71-.3-1-1-.7-.59-.5-1.27,0-2,1.41-2.65,1.39-3.17,4-5l2-1c.33-.04.69.06,1,0,2.42-1.61,6.31-2.01,9-1Z"/><path class="cls-106" d="M4,99.97c2.49,2.07,1.93,8.51-1,10-.28.87-.62.86-1,0-.27-1.74-.6-3.4-1-5,.22-2.92.73-5.08,1-8,.28-.87.62-.86,1,0,.5.87.84,1.87,1,3Z"/><path class="cls-252" d="M5,95.97c2.7,1.2,1.8,3.72-1,4l-1-.5c-.03-.83.05-1.68,0-2.5-.83-.52-.6-1.25,0-2,0-.33-.03-.67,0-1,.28-.87.62-.86,1,0,1.29-.02,1.24.98,1,2Z"/><path class="cls-10" d="M6,92.97c2.35,1.86,2.25,5.69-1,3l-1-.5c-.05-.5.05-1.01,0-1.5-.9-.45-.69-1.24,0-2,.01-.33-.04-.68,0-1,.28-.87.62-.86,1,0l1,2Z"/><path class="cls-45" d="M2,109.96c.68.21.64.55,0,1-.28.87-.62.86-1,0-.87-.97-.72-3.75,0-5,0-.33-.02-.67,0-1l1,.5c.02,1.5-.03,3.01,0,4.5Z"/><path class="cls-106" d="M1,110.96c.84,1.23.38,1.71-1,1v-5c.15-.25-.14-1.16,1-1v5Z"/><path class="cls-204" d="M20.99,80.98c.87.28.86.62,0,1-1.59-.12-3.97-.2-5.5,0-.19.03-2.01.72-3.5,1l.5-1c2.84-.88,5.32-.85,8.5-1Z"/><path class="cls-204" d="M11,82.98l-.5,1h-1.5c.38-.27-.27-.74,2-1Z"/><path class="cls-66" d="M240.94,192.93c.59.27.57.61,0,1,.35.43.69,1.09,1,2,.07.99-.07,2.01,0,3l-1,2c-.04.59-.13,1.73,0,2-1.73,1.18-3.41,2.64-5,4l-2,2c-.24.15-.75-.15-1,0l-1,1c-.25.14-.73-.13-1,0l-1,1c-.27.12-.71-.12-1,0l-1,1c-.3.1-.7-.1-1,0-.29.58-.62.57-1,0-.97.94-2.31,1.61-4,2-.31.08-.69-.09-1,0l-2,1c-.32.04-.67-.01-1,0-.86.77-2.12.74-3,0l-1-1c.21-.68.55-.64,1,0l3-1c.14-.7.49-.64,1,0,.49-.36,1.15-.7,2-1,.14-.71.49-.65,1,0l2-1c.27-.66.6-.64,1,0,2.37-1.04,4.7-2.37,7-4,.34-.86.67-.86,1,0l2-2c.32-.88.65-.87,1,0l1-1c-2.42-2.04-.82-4.69,2-3l1-2c-2.38-1.23-2.38-2.23,0-3-2.1-2.49-2.07-6.39,1-3Z"/><path class="cls-129" d="M198.95,217.92c-.65,1.72-3.94.99-5.5,1-3.33.03-6.67.02-10,0-1.56-.01-4.85.72-5.5-1,6.98.02,14.02.14,20.99,0Z"/><path class="cls-161" d="M207.95,216.92c-1.17.23-2.16.91-5,1l.5-1h4.5Z"/><path class="cls-299" d="M172.96,216.92c.66.29.64.63,0,1-1.32-.01-2.68.04-4,0v-1c1.32.02,2.68-.06,4,0Z"/><path class="cls-119" d="M225.95,212.92c-1.91,1.15-2.62.63-4,1l.5-1c1.68.49,2.31-.65,3.5-1,.64.3.62.63,0,1Z"/><path class="cls-161" d="M217.95,214.92l-.5,1c-.83.04-1.68-.07-2.5,0v-1c.99-.02,2.01.04,3,0Z"/><path class="cls-161" d="M212.95,215.92c-.18.04-.31.78-3,1l.5-1h2.5Z"/><path class="cls-119" d="M220.95,213.92c-.13.04.5.69-2,1l.5-1h1.5Z"/><path class="cls-176" d="M233.94,208.92l2-2c-.47.4-.6,1.11-2,2Z"/><path class="cls-176" d="M231.94,209.92l1-1c-.06.04.24.32-1,1Z"/><path class="cls-176" d="M229.94,210.92l1-1c-.06.03.34.41-1,1Z"/><path class="cls-176" d="M227.94,211.92l1-1c-.07.03.38.54-1,1Z"/><path class="cls-176" d="M225.95,212.92v-1c.31-.09.7.1,1,0,.16,1.14-.75.85-1,1Z"/><path class="cls-122" d="M173.96,217.92c-.33,0-.67,0-1,0v-1c.33.01.67-.04,1,0,.64.3.62.63,0,1Z"/><path class="cls-57" d="M174.96,217.92c-.33,0-.67,0-1,0v-1c.75.09,1.1.12,1,1Z"/><path class="cls-9" d="M242.94,157.94c.35.05.73-.08,1,0l2,2,2,2c.14.23-.13.71,0,1l1,1c.06.29-.03.66,0,1,.89,1.92.86,5.06,0,7-.03.66.08,1.35,0,2l-1,2c-.05.06-.05.94,0,1l-1,1c.57.29.55.62,0,1l-3,3c.44.33.44.67,0,1l-1,1-3,3c-.21.16-.75-.15-1,0-1.06.65-1.4,1.65-1,3l-1,1c-.65,2.58-2.23.65-3-1-1.28-1.26-.72-1.56,1-1,.95-1.6.95-1.94,0-1-.69,1.33-1.47,1.41-2,0-.76-.48-.1-1.15,2-2,.26-.9.59-.88,1,0l1-1c.23-2.75,4.4-6.86,7-6l1-1c-.86-.26-.84-.6,0-1l1-1c-.56-.27-.54-.61,0-1l1-1c-.74-.88-.78-2.14,0-3,.72-1.55.87-3.58,0-5-.65-.27-.63-.61,0-1-.5-.98-1.04-1.93-2-3-1.41,1.38-2.03.72-1-1l-1-1-1-1c-.14.7-.49.64-1,0-.33.64-.67.63-1,0-.87-.28-.86-.62,0-1,.21-.7.55-.66,1,0,.62-.74,1.33-.73,2,0Z"/><path class="cls-34" d="M248.94,171.94c.1-2.21.16-4.82,0-7l1,.5v6l-1,.5Z"/><path class="cls-78" d="M242.94,157.94c-.64-.08-1.35,0-2,0-.87-.28-.86-.62,0-1,.33.01.68-.04,1,0,.75.09,1.1.12,1,1Z"/><path class="cls-270" d="M247.94,175.93v-1.5l1-.5c-.26,2.14-.45,1.33-1,2Z"/><path class="cls-53" d="M241.94,194.93c.03.33-.02.67,0,1l-1-.5c-.08-.49.08-1.02,0-1.5.3-.61.63-.6,1,0,.02.33-.03.67,0,1Z"/><path class="cls-53" d="M241.94,199.92c.65.29.64.63,0,1h-1c.03-.49-.04-1,0-1.5l1-.5c.02.35-.09.76,0,1Z"/><path class="cls-78" d="M245.94,159.94l-2-2c1.58.49,1.51,1.51,2,2Z"/><path class="cls-34" d="M247.94,161.94c-1.22.16-1.66-1.66-2-2,.66.66,1.11.58,2,2Z"/><path class="cls-34" d="M248.94,163.94l-1-1c.03.06.7-.37,1,1Z"/><path class="cls-140" d="M51.99,146.95c-4.94,4.49-6.41,4.73-12.5,7-.23.09-.66.63-1.5,1l-2,4c-.1.6.04,1.34,0,2l-1,1c.72,1.38.8,3.65,0,5-.02,1.32,0,2.67,0,4-.19,2.23-.86,1.78-2,0-.7-.29-.68-.63,0-1l1-4c-.76-1.51-.81-3.51,0-5-2.03-.23-1.95-1.23,0-2l1-2c-.88-.25-.86-.58,0-1,.12-.59.34-.99,1-1,.04-1.34,2.34-3.47,4-4,.33-.87.67-.87,1,0l1-1c.28-.88.61-.87,1,0h1l1-1c-.53-2.61,2.05-3.26,4-2l2-1c1.4-1.32,1.92-.77,1,1Z"/><path class="cls-281" d="M62.98,126.96c-.18,1.74-.57,4.91-1,6.5-.1.38-.85.59-1,1-2.4,6.63-4.04,8-9,12.49l-1-1,3-4c-.87-.28-.86-.62,0-1,0-1.4,3.83-12.34,4.45-12.65.46-.23.99-.31,1.55-.34.16-1.18.49-2.18,1-3,.28-.87.62-.86,1,0l1,2Z"/><path class="cls-115" d="M68.98,102.97c-.1,2.97.56,5.3,2,7,.95-.24,1.29.09,1,1,1.74,2.07,3.74,3.74,6,5,1.24-.96,2.92.56,2,2l-2,1h-1c-3.66-2.28-4.14-2.6-7-6l-3-5c-.8-1.19-.72-2.78,0-4l1-2c-.66-.27-.64-.61,0-1,.28-.87.62-.86,1,0,.73.65.71,1.37,0,2Z"/><path class="cls-77" d="M62.98,103.97c.02.33,0,.67,0,1,.58.23.54.57,0,1,.81,1.63.75,3.33,0,5,.84,4.21.86,8.79,0,12.99-.28.87-.62.86-1,0-.31-4.78-.64-9.44-1-13.99-2.66-.32-2.54-1.24,0-2-.74-1.3-.73-2.66,0-4,.28-.87.62-.86,1,0,.28-.87.62-.86,1,0Z"/><path class="cls-31" d="M58.99,89.97c.36.49.7,1.15,1,2v1c.8.5.59,1.22,0,2l1,3c.68.21.64.55,0,1l1,3c.83.25.72,1.47,0,2h-1c-.28.87-.62.86-1,0-.88-.46-.66-1.24,0-2-.5-.82-.83-1.82-1-3l-1-2c-.89-.2-.85-.54,0-1l-1-3c-.93-.1-.87-.44,0-1-.89-.19-.85-.53,0-1-1.42-1.38-1.09-2.04,1-2,.28-.87.62-.86,1,0-.07.27-.03.71,0,1Z"/><path class="cls-195" d="M62.98,125.96c-.81-.52-.58-1.25,0-2,.13-4.3.02-8.69,0-12.99.28-.87.62-.86,1,0,.05,4.82-.04,9.66,0,14.49l-1,.5Z"/><path class="cls-222" d="M35.99,166.94h-1c.02-1.64-.13-3.37,0-5,.3-.63.63-.62,1,0-.07,1.65.02,3.34,0,5Z"/><path class="cls-47" d="M60.99,96.97c.47.25.43.59,0,1l-1-.5c-.03-.83.05-1.68,0-2.5.28-.87.62-.86,1,0,.05.66-.03,1.34,0,2Z"/><path class="cls-47" d="M61.98,100.97c.58.3.57.63,0,1l-1-.5c-.04-.83.05-1.68,0-2.5.28-.87.62-.86,1,0,.05.65,0,1.34,0,2Z"/><path class="cls-152" d="M62.98,125.96c-.02.33.03.67,0,1l-1-.5c-.04-.5.03-1.01,0-1.5-.68-.21-.64-.55,0-1h1c-.02.66.04,1.34,0,2Z"/><path class="cls-167" d="M69.98,112.96c-.92-1.09-2.47-1.7-3-4-.07-.3.04-.66,0-1l1,.5c.13,1.54,1.44,2.96,2,4.5Z"/><path class="cls-200" d="M78.98,118.96c3.01.77,5.34,2.11,7,4,1.13-.78,2.32-.03,3,1,.64.3.62.63,0,1-.66-.04-1.34.02-2,0,.11-1.56-1.46-.74-2-1-2.3-1.11-5.78-3.61-8-5h1c.3-.58.63-.57,1,0Z"/><path class="cls-242" d="M35.99,158.94c.25-1.51.62-3.4,2-4v1.5c-.68.61-1.32,1.04-1,2l-1,.5Z"/><path class="cls-242" d="M35.99,161.94h-1c.06-.77.14-1.1,1-1-.02.33.01.67,0,1Z"/><path class="cls-197" d="M49.99,210.92c3.11-3.22,3.15.85-1,2l-3,1c-.33.02-.67-.01-1,0-1.13.8-2.85.75-4,0l-3,1c-4.32.04-8.68.06-13,0-1.68-.35-3.35-.68-5-1-.35-.02-.73.07-1,0-2.15-.43-5.47-1.89-2-2,.3-.85,1.52-.7,2,0,.25-.82,1.47-.72,2,0l1,1c1.58-.72,4.45-.8,6,0,3.28-.75,6.72-.75,10,0,2.1-.25,4.1-.59,6-1,.42-.98,1.15-.68,2,0l2-1c.29-.66.63-.64,1,0,.29-.66.63-.64,1,0Z"/><path class="cls-36" d="M48.99,212.92c.12-.06-.07-1.52,2-1,.18-1.15-.96-.94-1-1-.67-.33-.67-.67,0-1,.3-2.19-.36-4.19-2-6v-1c.94-.05,1.61-.39,2-1,.31.17,1.09-.27,1.5,0,3.83,2.53,5.36,7.34,1,10-.8.49-2.72.71-3.5,1Z"/><path class="cls-93" d="M34.99,196.93h-1c-1.04-7.49-.67-15.46,0-22.99.28-.87.62-.86,1,0-.02,7.65.01,15.34,0,22.99Z"/><path class="cls-168" d="M40.99,197.92l2,1c.87.28.86.62,0,1-.48.37-1.15.7-2,1-.21.68-.55.64-1,0-.39,1.14-1.12.86-2,0-1.51-.31-2.51-.64-3-1-1.27-.55-1.3-1.67-1-3h1c1.95,1.53,3.75.8,6,1Z"/><path class="cls-274" d="M42.99,199.92c.45-.9,1.25-.7,2,0,.33.01.69-.05,1,0,3.97.72,3.54,3.48,0,2-.29.86-1.52.7-2,0l-2-1c-.33.64-.67.64-1,0l.5-1c.5-.05,1.01.05,1.5,0Z"/><path class="cls-64" d="M24.99,214.92c-.99-.01-2.01.06-3,0-.49-.03-1,.04-1.5,0l-.5-1c1.48.1,3.01-.07,4.5,0l.5,1Z"/><path class="cls-88" d="M34.99,170.94c0,.99,0,2.01,0,3h-1l-1-2c-.67-.29-.66-.63,0-1h2Z"/><path class="cls-43" d="M44.99,213.92l-.5,1c-1.17.02-2.34-.04-3.5,0-.87-.28-.86-.62,0-1,1.32-.05,2.68.05,4,0Z"/><path class="cls-43" d="M48.99,212.92c-.51.19-.36.82-3,1l.5-1c.75-.16,2.01.23,2.5,0Z"/><path class="cls-220" d="M40.99,213.92v1c-.99.03-2.01,0-3,0l.5-1c.83-.02,1.68.03,2.5,0Z"/><path class="cls-73" d="M44.99,199.92c-.65-.02-1.35-.06-2,0v-1c.35.14.97-.14,1.5,0l.5,1Z"/><path class="cls-73" d="M49.99,201.92l-2,1c-.29.42-.63.4-1,0-.18.9-.52.86-1,0-.87-.28-.86-.62,0-1h2v-1l-2-1c1.22.21,2.42.51,3.5,1,.71.32.45.97.5,1Z"/><path class="cls-188" d="M118.97,5.01c.37,2.98,2.37,5.31,6,7,1.35,1.88.78,2.43-1,1-.5.65-1.16.31-2-1-.3.66-.64.65-1,0-.49-1.38-.82-1.05-1,1,.68.21.64.55,0,1,.87.33.87.67,0,1-.67,3.52-1.67,5.18-3,5-.04.94-.71,1.61-2,2-.21.88-.54.85-1,0l-3,3c-.23.9-.57.88-1,0l-3,3c-.32.84-.65.84-1,0l-1,1c-1.86.86-3.52,2.19-5,4,.26.94-.07,1.27-1,1-.48.99-1.14,1.66-2,2l-2,2c.86.23.84.56,0,1-1.18,1.53-1.57,1.94-2.04.19-.57-2.13,4.36-7.69,6.04-9.19.2-.16.79.16,1,0l2-2,1-1c.22-.16.76.15,1,0l2-2c.3-.12.77.14,1,0l6-5c.32-.49.69-1.47,1-2l3-4c.07-.3-.04-.66,0-1,.75-.95.74-1.98,0-3,.02-.33,0-.67,0-1-.86-.75-.63-2.1,0-3,.03-.33-.02-.67,0-1l1-1c1.86-1.37,2.4-.81,1,1Z"/><path class="cls-80" d="M134.97,2.01l1,1c.3.11.72-.11,1,0,.52.71,1.16.85,2,1,.28.12.72-.12,1,0l1,1c.28.13.72-.13,1,0l1,1c.28.1.68-.08,1,0v1c-.66.15-1.12.04-1,1-.27.86-.61.84-1,0l-1-1c-.28.86-.61.84-1,0l-1-1c-.28.86-.61.84-1,0l-1-1c-.33.86-.67.86-1,0l-2-1c-.24.86-.57.84-1,0l-2-1c-1.63,2.5-6.41.92-8-1-.85-.31-.84-.65,0-1,.83-.36,1.83-.69,3-1,3.31.25,5.97.71,9,2Z"/><path class="cls-105" d="M121.97.01c.8.27,1.13.61,1,1,.1.21-.03.64,0,1,2.72.04,2.67,1.34,0,2,.85,1.67.52,2.01-1,1-.13,2.28-1.46,2.22-2,0-.28.87-.62.86-1,0-.12-.79-.05-1-1-1,.33-.56.67-1.44,1-2l1-1s-.19-.75.5-1c.5-.05,1.01.04,1.5,0Z"/><path class="cls-104" d="M142.97,6.01l-1-1c1.34.61.93.97,1,1Z"/><path class="cls-70" d="M117.97,120.96c.6.3.59.63,0,1-.05.32.07.69,0,1l-1,1c-.08.35.12.78,0,1-.79,1.34-1.79,2.34-3,3-.87.32-1.87.65-3,1-3.29.08-6.76-.24-10,0l-3-1c-.35.02-.76-.09-1,0l-3-1-2-1-1-1c-.31.63-.65.62-1,0l-1-1c-1.21-.32-1.7-.41-3-1-.6-.3-.59-.63,0-1,.3-.6.63-.59,1,0,.28-.87.62-.86,1,0l2,1c.15-.66.5-.6,1,0,1.64.98,3.31,1.64,5,2,.69-.86,2.14-.71,3,0,.77-1.12,2.11.11,3,1,3.29.44,6.63.78,10,1,2.41-2.17,3.92-3.91,5-7l1,1Z"/><path class="cls-98" d="M136.97,78.98c-.24.11-.83-.18-1,.5l-4,10-3,6.5c2.37-6.46,5.36-13.02,8-18.99.86.3.71,1.51,0,2Z"/><path class="cls-2" d="M113.97,127.96c.61.3.6.63,0,1-.33.02-.67-.03-1,0-.65.05-1.34-.02-2,0l.5-1h2.5Z"/><path class="cls-98" d="M126.97,100.97c.6-2.42,1.52-2.9,2-4v1.5c-.68.61-1.32,1.04-1,2l-1,.5Z"/><path class="cls-86" d="M118.97,119.96c.64-2.41,1.21-2.54,2-4v1.5c-.68.61-1.32,1.04-1,2l-1,.5Z"/><path class="cls-86" d="M117.97,121.96v-1h1c-.14.68-.05,1.11-1,1Z"/><path class="cls-86" d="M116.97,123.96c.15-.66.04-1.12,1-1-.15.66-.04,1.12-1,1Z"/><path class="cls-86" d="M114.97,127.96c-.3.63-.63.61-1,0l3-3c-.52,1.01-1.3,2.13-2,3Z"/><path class="cls-191" d="M197.95,139.95h4c1.41,0,1.08,1.29,0,2-.78.75-2.22.76-3,0-3.24,1.35-5.24,1.35-6,0-3.57-2.77,1.15-3.11,5-2Z"/><path class="cls-186" d="M190.95,138.95c.32.05.67-.03,1,0,.04.64.04,1.64,0,3,1.26,1.45.69,1.98-1,1q-2.07-.96,0,0c.85.22.82.56,0,1-1.45,1.89-7.75,1.53-5-1-.63-.3-.62-.63,0-1-.77-.82-1.32-1.94-1-3,.1-.92.45-.86,1,0,.47-2.99,3.97-3.01,5,0Z"/><path class="cls-72" d="M203.95,134.95l1,2c-.04.35.08.73,0,1-.02.05-.74-.2-1,.5-.31.82.17,2.21-1,3.5-.33.64-.67.64-1,0-.05-.65.11-1.4,0-2-.24-1.33-.25-1.69-1-3l1-2c.66-.02,1.34.05,2,0Z"/><path class="cls-61" d="M197.95,139.95h-6l1,2c-.31.85-.65.84-1,0l-1-1.5,1-1.5c1.78.17,3.69-.12,5.5,0l.5,1Z"/><path class="cls-287" d="M199.95,131.95l-1,1c-.06-.12-.62.4-1-2h1c1.15-.18.9.87,1,1Z"/><path class="cls-287" d="M197.95,129.96l-1-.5,1-.5c.01.33-.02.67,0,1Z"/><path class="cls-87" d="M142.97,54.99h-1c.17-1.96-.12-4.03,0-6,1.18,2.51.88,2.89,1,6Z"/><path class="cls-86" d="M116.97,118.96c.73-2.94,2.33-5.69,3-8.5l1-.5c-.72,2.92-1.77,5.61-3,8.5l-1,.5Z"/><path class="cls-87" d="M138.97,64.98v-1.5l1-.5c-.38,2.42-.95,1.88-1,2Z"/><path class="cls-87" d="M133.97,76.98c.17-1.39-.44-1.37,1-2-.09.44.1.99,0,1.5l-1,.5Z"/><path class="cls-98" d="M132.97,79.98c.08-.46-.09-1,0-1.5l1-.5c-.05.49.05,1,0,1.5l-1,.5Z"/><path class="cls-98" d="M129.97,86.97v-1.5l1-.5c-.41,2.42-.96,1.88-1,2Z"/><path class="cls-98" d="M127.97,91.97v-1c.02-.33-.05-.68,0-1h1c-.06.48.07,1,0,1.5l-1,.5Z"/><path class="cls-98" d="M124.97,98.97v-1c.56-1.54,1.87-2.96,2-4.5l1-.5c-.56,3.01-1.74,3.94-3,6Z"/><path class="cls-87" d="M139.97,61.99c0-.32.05-.69,0-1h1c-.21,1.33-.86.88-1,1Z"/><path class="cls-87" d="M137.97,66.98l1-1c-.58,1.35-.97.94-1,1Z"/><path class="cls-87" d="M136.97,68.98l1-1c-.6,1.35-.98.93-1,1Z"/><path class="cls-87" d="M135.97,71.98c.02-.33-.03-.67,0-1h1c-.15.67-.04,1.12-1,1Z"/><path class="cls-87" d="M135.97,73.98c-.3.53-.64.51-1,0,.14-.68.05-1.11,1-1-.04.35.08.73,0,1Z"/><path class="cls-198" d="M137.97,73.98l-1-.5,1-.5c-.07.33.11.74,0,1Z"/><path class="cls-98" d="M134.97,74.98c.07-.32-.07-.68,0-1h1c-.33,1.09-.36.72-1,1Z"/><path class="cls-98" d="M131.97,81.98l1-1c-.38,1.38-.97.93-1,1Z"/><path class="cls-98" d="M130.97,83.98v-1h1c-.16.31.13,1.16-1,1Z"/><path class="cls-98" d="M128.97,88.97v-1h1c-.16.28.14,1.16-1,1Z"/><path class="cls-91" d="M148.96,177.93l1,1c.88.28.87.61,0,1,.58.28.56.62,0,1l3,4c1.03-.62,1.4-.07,1,1,3.13.87,5.94,5.59,7,8,2.56-.45,2.58-.03,1,2l1,1c.28-.86.61-.84,1,0l1,1c.28-.86.62-.85,1,0l3,2c.32-.86.65-.86,1,0l2,1c.24-.86.57-.84,1,0l2,1c.23-1.99,1.23-1.91,2,0,1.33.37,2.66.7,4,1,.21-.68.55-.64,1,0,2.27.24,1.75.76,0,2-.2.76-.54.72-1,0l-2-1c-.74.86-2.1.61-3,0-.19.89-.52.85-1,0l-3-1c-.1.9-.45.85-1,0l-4-2c-.24.84-.58.82-1,0l-1-1c-.28.77-.62.76-1,0l-2-2c-.29.86-.62.85-1,0l-1-1c-2.43,2.42-7.04-2-6-5-3.07.6-4.06-1.8-2-4l-3-4c0-.66.07-1.35,0-2-.56-.25-.52-.59,0-1l-1-1c-.72-.62-.65-1.35,0-2l1-1c.65.33.65.67,0,1Z"/><path class="cls-124" d="M146.96,176.93l-1-.5c-.05-.5.04-1.01,0-1.5l1,.5c.05.5-.05,1.01,0,1.5Z"/><path class="cls-124" d="M147.96,179.93c-1.44-.63-.83-.61-1-2h1c.02.66-.05,1.34,0,2Z"/><path class="cls-224" d="M147.96,183.93c-.05.02.2.73-.5,1-.45.17-1.03-.1-1.5,0l.5-1h1.5Z"/><path class="cls-1" d="M148.96,180.93c-.3.64-.63.63-1,0-.06-.3.03-.66,0-1,.62.27.69-.13,1,1Z"/><path class="cls-124" d="M148.96,181.93c-.95.11-.86-.32-1-1h1c.08.28-.04.65,0,1Z"/><path class="cls-224" d="M143.97,185.93c.06-.03-.38-.55,1-1l-1,1Z"/><path class="cls-224" d="M141.97,186.93c-.15-1.09.57-.82,1-1,.11.95-.32.86-1,1Z"/><path class="cls-244" d="M182.96,128.96c1.81-.22,1.31,2.2,0,3,2.48,1.16,1.42,2.65-1,1-.13-.2.15-1.17-1-1-.05-.32.02-.67,0-1-.85-1.23-.86-3.77,0-5,.44,0,.86-.04,1,.5-.68,2.17.93,2.36,1,2.5Z"/><path class="cls-74" d="M211.95,141.95c1.66.84,1,1.5-2,2-1.8,2.34-3.03,1.94-3-1v-1.5c.17-.66.98-.45,1-.5,1.1.15,2.53-.24,3.5,0,.69.17.45.99.5,1Z"/><path class="cls-163" d="M215.95,142.95l-1,2c-.27.66-.61.64-1,0l-2-1c.16,1.04-.5,1.04-2,0l2-2c.3.06.66-.02,1,0l.5,1c.83.05,1.68-.07,2.5,0Z"/><path class="cls-129" d="M197.95,215.92l-.5,1c-5.49-.1-11.02.14-16.5,0-.87-.28-.86-.62,0-1,5.65.02,11.34.02,17,0Z"/><path class="cls-161" d="M204.95,214.92c.77-.79,2.22-.76,3,0l-.5,1c-1.83.02-3.68-.03-5.5,0l.5-1c.83-.03,1.68.04,2.5,0Z"/><path class="cls-269" d="M166.96,214.92c-1.31-.03-2.75.15-4,0-.64-.3-.62-.63,0-1,1.16.05,2.33-.03,3.5,0l.5,1Z"/><path class="cls-299" d="M173.96,215.92c-1.31-.02-2.75.15-4,0-.64-.3-.62-.63,0-1,1.16.04,2.33-.02,3.5,0l.5,1Z"/><path class="cls-57" d="M180.96,215.92v1c-1.16-.03-2.33.02-3.5,0l-.5-1c1.33,0,2.67,0,4,0Z"/><path class="cls-161" d="M212.95,213.92l-.5,1c-.83.02-1.68-.03-2.5,0v-1c.33,0,.67,0,1,0,.66-.01,1.34.01,2,0Z"/><path class="cls-4" d="M160.96,213.92c-.66.02-1.36-.08-2,0v-1c.49.04,1-.05,1.5,0l.5,1Z"/><path class="cls-4" d="M162.96,214.92c-.75-.09-1.1-.12-1-1,.33,0,.67-.01,1,0v1Z"/><path class="cls-122" d="M169.96,215.92c-.75-.09-1.1-.12-1-1,.33,0,.67-.01,1,0v1Z"/><path class="cls-122" d="M166.96,216.92c-.33,0-.67,0-1,0v-1c.75.09,1.1.11,1,1Z"/><path class="cls-161" d="M199.95,215.92c.33,0,.67,0,1,0l-.5,1-.5-1Z"/><path class="cls-25" d="M132.97,9.01l4,2c.63.09,1.35-.05,2,0l3,1c.55.26,2.11-.16,3,0-1.14,1.14-1.32,1.23-3.5,1-.54.13-.5.56-.5,1-.65,1.48-1.48,1.52-2,0l-2-1c-.27.87-.61.85-1,0l-2-1c-.24.86-.58.84-1,0l-1-1c-1.63.35-3.29-.32-5-2-.29.86-.62.85-1,0l-1-1c-1.3,1.94-5.16-1.44-3-3-.18-1.16.98-.93,1-1,1.22.38,2.44,1.38,3.5,2,2.1,1.22,4.4,1.99,6.5,3Z"/><path class="cls-256" d="M133.97,16.01c.33-.59.66-.59,1,0l-1,1c-.26.83-1.48.74-2,0-.21.68-.55.64-1,0l-2-1c-.29.46-.62.44-1,0l-1-1c-.29.55-.62.54-1,0l-1-1c-.29.6-.62.58-1,0-.79-.25-.77-.59,0-1,.03-.06,1.18.15,1-1,2.93.59,6.37,2.49,9,4Z"/><path class="cls-256" d="M142.97,17.01c.28-.87.62-.86,1,0,.3-.58.63-.57,1,0-.11.24.18.84-.5,1h-4l-.5-1c.87-.74,2.14-.76,3,0Z"/><path class="cls-83" d="M144.96,15.01c-1.16,1.7-6.65.47-4-1,1.11.04,2.59-.22,3.5,0,.67.16.46.96.5,1Z"/><path class="cls-83" d="M135.97,16.01c-.33-.03-.68.05-1,0s-.7.07-1,0c-.87-.28-.86-.62,0-1,.38-2.02,3.41-1.19,2,1Z"/><path class="cls-83" d="M138.97,16.01v1c-.66-.04-1.44.12-2,0-.54-.3-.53-.64,0-1,.22-1.67,1.13-1.47,2,0Z"/><path class="cls-160" d="M133.97,17.01v1c-.66-.03-1.35.06-2,0-.87-.28-.86-.62,0-1h2Z"/><path class="cls-256" d="M136.97,19.01c-.49-.05-1,.05-1.5,0l-.5-1c.49.05,1-.05,1.5,0l.5,1Z"/><path class="cls-256" d="M139.97,20.01h-2v-1c2.12.38,1.46.63,2,1Z"/><path class="cls-256" d="M136.97,17.01c-1.18-.26-.75-.43-1-1,.33-.86.67-.86,1,0v1Z"/><path class="cls-254" d="M152.96,157.94c.27-.47.61-.44,1,0,1.34.52,1.16,1.22,0,2l1.41.57c.75-2.68,2.06-.48,1.59,1.43-.38,1.65-2.93.98-4,0-.27.61-.61.58-1,0l-2-4c2.54,2.09,2.69.14,3,0Z"/><path class="cls-75" d="M146.96,158.94l-1,.5c-.02,1.17.03,2.34,0,3.5-.28.87-.62.86-1,0,.02-1.99-.01-4.01,0-6,1.21-.16,1.67,1.68,2,2Z"/><path class="cls-96" d="M145.96,165.94c-.28.87-.62.86-1,0,0-.33,0-.67,0-1,0-.66,0-1.34,0-2h1c-.03.99,0,2.01,0,3Z"/><path class="cls-4" d="M156.96,212.92c-2.39-.28-1.84-.91-2-1h1.5l.5,1Z"/><path class="cls-157" d="M176.96,140.95c2.05-2.77,12.51-1.89,7,1-2,.73-4.02.74-6,0-.3.85-1.52.7-2,0-.17-1.15.78-.86,1-1Z"/><path class="cls-208" d="M175.96,134.95c.78,1.84.75,2.03,1,4h-2v-2.5c-.18-.68-.76-.39-1-.5.14-.54-.07-1.35,0-2l2,1Z"/><path class="cls-289" d="M173.96,142.95c.17,1.15-.82.87-1,1h-2c-.34-.28,1.17-2.32,2.5-2,.68.17.45.98.5,1Z"/><path class="cls-213" d="M231.94,155.94v2c-1.09,2.77-5.6-4.59-1-6,.02.05.83-.18,1,.5.21.87,0,2.42,0,3.5Z"/><path class="cls-206" d="M230.94,151.95c-1.95,1.65-4.96-3.43-5-5,1.51.34,4.13,2.18,5,3.5.26.39-.16,1.11,0,1.5Z"/><path class="cls-287" d="M199.95,126.96c.12-.16-.25-1.04,1-1l-1,1Z"/><path class="cls-221" d="M136.97,200.92l-1-1c1.15-.17.86.79,1,1Z"/><path class="cls-1" d="M151.96,187.93c-.28.87-.62.86-1,0-.15-.71-.64-1.37-1-2l-1-1v-1c1.84.41,2.14,2.48,3,4Z"/><path class="cls-224" d="M149.96,185.93h-1v-1c1.14-.16.84.72,1,1Z"/><path class="cls-224" d="M146.96,186.93l1-1c-.07.02.38.68-1,1Z"/><path class="cls-224" d="M143.97,187.93c-.11-.92.28-.88,1-1,.16,1.14-.74.85-1,1Z"/><path class="cls-85" d="M201.95,141.95c.33.02.67-.04,1,0,.51.06,1.08-.16,1.5,0l.5,1c-.5,1.17-2.29,1.23-3,0-.28.87-.62.86-1,0-.66,0-1.34-.02-2,0-.87-.28-.86-.62,0-1,.99.01,2.01-.05,3,0Z"/><path class="cls-211" d="M204.95,142.95v1c-.73.3-1.28.68-2,1-1.84,1.15-2.13-.54-1-2h3Z"/><path class="cls-177" d="M204.95,136.95l-1-.5v-1.5c.33-.03.67.02,1,0-.03.66.07,1.35,0,2Z"/><path class="cls-39" d="M145.96,168.94h-1c-.02-.99,0-2,0-3h1c.84.25.74,2.25,0,3Z"/><path class="cls-124" d="M146.96,167.94c.47.25.43.59,0,1h-1v-3h1c0,.66-.01,1.34,0,2Z"/><path class="cls-124" d="M147.96,171.94c.47.25.43.59,0,1l-1-.5c-.05-.5.05-1.01,0-1.5h1c.02.33-.02.67,0,1Z"/><path class="cls-124" d="M148.96,174.94c.02.33-.04.67,0,1l-1-.5c-.05-.5.05-1.01,0-1.5h1c.04.33-.02.67,0,1Z"/><path class="cls-81" d="M223.95,146.95c.63.09,1.43-.13,2,0,1.74,1.94,3.45,2.85,5,5v5.5c.16.65.64.41,1,.5.29.07.66-.03,1,0,.6-.74,1.34-.65,2,0,.84.29.82.62,0,1-1.88.81-3.22,2.14-4,4,.88.19.85.53,0,1-1.02,1.32-1.86,1.96-2,0-.66-.29-.65-.63,0-1,.81-1.26.83-4.03,0-5-.49,2.94-1.49,3.61-3,2l-1,1c-.28.92-.61.91-1,0l-1,1c-.25.81-.59.78-1,0-.25.86-.58.84-1,0-1.05-1.51.47-2.3,2-3-.45-.48-.11-.82,1-1-1.38-1.4-.78-1.96,1-1l2-2c-.83-.24-.81-.58,0-1-.34-2.16,0-2.82,1-2-1.17-1.24-2.37-2.42-4-3-1.68-.66-2.35-1.32-2-2,.62.1,1.37-.09,2,0Z"/><path class="cls-163" d="M221.95,146.95c.09,1.48,1.3.39,2,2-1.82-.59-3.7-1.29-5.5-2l-.5-1c1.57.19,2.4.74,4,1Z"/><path class="cls-74" d="M215.95,145.95c-.25.47-.59.43-1,0v-1c.27.09.66-.06,1,0,.64.3.62.63,0,1Z"/><path class="cls-163" d="M216.95,145.95c-.32-.03-.67,0-1,0v-1c.72.12,1.11.08,1,1Z"/><path class="cls-32" d="M162.96,141.95c.99.03,2.01-.02,3,0l-2,2c-.23.68-.57.64-1,0-1.57.82-2.08.45-1-1v-1c.33,0,.67-.01,1,0Z"/><path class="cls-189" d="M135.97,194.93l1-1c.18,1.16-.97.93-1,1Z"/><path class="cls-253" d="M159.96,142.95c.66-.03,1.34.02,2,0-.13,1.01.42.82,1,1,.87.28.86.62,0,1-1.13.07-3.42-.27-4,0h-1.5c-.67-.17-.45-.98-.5-1l.5-1c.83-.03,1.68.04,2.5,0Z"/><path class="cls-155" d="M154.96,146.95c-.2.07-.78.05-1,0-.66-.15-1.12-.04-1-1,.98-.27,1.18-1,2-1v2Z"/><path class="cls-138" d="M144.96,9.01l1-1c.1.9-.26.9-1,1Z"/><path class="cls-63" d="M137.97,191.93l-1-1,1,1Z"/><path class="cls-18" d="M20,199.92c-.21.68-.55.64-1,0l-3,1c-.14.7-.49.64-1,0-.49.36-1.16.7-2,1-.27.66-.61.64-1,0-3.51,1.53-4.84,3.2-4,5l2,2c.27-.6.61-.57,1,0l1,1c.14-.7.49-.64,1,0l2,1c.46-.86,1.24-.64,2,0,.87.28.86.62,0,1l-1,1c2.39-.76,2.82.95,3,1-1.89.51-2.66-.55-4-1l-2-1c-.3-.11-.71.11-1,0-2.36-.86-4.36-2.19-6-4-.14-.24.13-.71,0-1-.77-.41-.73-1.53,0-2,.13-.28-.14-.76,0-1l3-3c.23-.14.7.13,1,0l2-1c.32-.06.68.06,1,0l2-1c.26-.08.65.02,1,0,1.52-.79,5.63-1.18,4,1Z"/><path class="cls-90" d="M28.99,160.94c1.02,7.49.81,15.45,0,22.99-.28.87-.62.86-1,0-.26-2.8-.59-5.46-1-8-.01-1.32.03-2.67,0-4l1-4c-.67-2.91-.77-6.09,0-9,.28-.87.62-.86,1,0,2.03.23,1.94,1.22,0,2Z"/><path class="cls-203" d="M27.99,183.93c.74,2.66.74,5.36,0,8-.28.87-.62.86-1,0-.73-2.99-.75-6.02,0-9,0-2.32.03-4.67,0-7l1,.5c.01,2.5-.02,5.01,0,7.5Z"/><path class="cls-60" d="M26.99,154.94c.89.3.88.63,0,1l1,1c.76.5.62,1.55,0,2,.08,2.97.06,6.02,0,9-.28.87-.62.86-1,0-.04-1.29.3-4.36,0-5-.33-1.28-.66-2.61-1-4-.03-.33.02-.67,0-1l-1-2c-.78-.28-.77-.61,0-1,.27-.62.61-.6,1,0,.3-.54.64-.53,1,0Z"/><path class="cls-35" d="M21.99,197.92c1.92-.29,3.25.05,4,1,.85,1.39.62,2.98-1,2-.4.38-.73.05-1-1-.33.64-.67.64-1,0-.87.73-2.13.74-3,0l-.5-1c-1.16.05-2.35-.08-3.5,0l.5-1c1.44.31,4.55-.45,5.5,0Z"/><path class="cls-127" d="M26.99,191.93c.86.29.73,2.31,0,3-.28.87-.62.86-1,0,.09-3.82-.07-7.67,0-11.49l1-.5v9Z"/><path class="cls-103" d="M27.99,195.93c1.64,2.29,1.64,3.62,0,4-.28.87-.62.86-1,0-.22-1.14-.55-2.14-1-3,.75.66.74,1.38,0,2-1.1-.15-2.53.24-3.5,0-.68-.17-.45-.98-.5-1,1.47-.92,2.2-1.15,4-1,.03-.66-.02-1.34,0-2h1c.46-.56.8-.23,1,1Z"/><path class="cls-90" d="M26.99,162.94c-.02-.05-.83.18-1-.5-.23-.94.11-2.38,0-3.5l1,.5v3.5Z"/><path class="cls-241" d="M26.99,171.94c-.03-1.32.04-2.68,0-4h1c-.02,1.16.02,2.33,0,3.5l-1,.5Z"/><path class="cls-199" d="M15,148.95c-1.63.24-2.66-1.08-4-2-1.18-1.73-2.64-3.41-4-5,.6-.5,1.1-.87,1.25-.76.38.29,6.57,6.22,6.87,6.59.17.21.07.66-.12,1.17Z"/><path class="cls-90" d="M25.99,157.94l-1-1v-1l1,.5c.04.5-.03,1.01,0,1.5Z"/><path class="cls-35" d="M15,198.92c-.13.04.4.56-2,1l.5-1h1.5Z"/><path class="cls-35" d="M12,199.92l-.5,1h-1.5c.12-.05-.36-.57,2-1Z"/><path class="cls-35" d="M6,206.92c-.02-.05-.83.18-1-.5v-1c.17-.68.98-.45,1-.5v2Z"/><path class="cls-128" d="M12,211.92c-.8-.29-2.69-.51-3.5-1-1.02-.62-1.88-1.96-2.5-3,1.84,1.02,3.26,2.73,5.5,3l.5,1Z"/><path class="cls-128" d="M15,212.92c-1.62-.55-1.88-.96-2-1h1.5l.5,1Z"/><path class="cls-219" d="M17,150.95h-1c-.12-.72-.09-1.11-1-1,.07-.31-.06-.68,0-1,1.55-.9,3.4.47,2,2Z"/><path class="cls-219" d="M19,151.95c-.32-.08-.7.09-1,0v-1c1.71-1.25,2.26-.72,1,1Z"/><path class="cls-35" d="M6,203.92c.95-1.57,1.43-2.05,3-3l-3,3Z"/><path class="cls-84" d="M90.98,44.99c.87.46.65,1.24,0,2,.89.46.68,1.25,0,2,.89.21.86.54,0,1,.29.56-.04,1.22-1,2,.44,3.22-.23,4.22-2,3-.53-.79-.86-1.79-1-3,.16-.91-.1-2.02,0-3,1.57.12.76-1.65,1-2,.04-.06,1.17.15,1-1,.34-1.14.75-2.42,2-2,.66.26.64.6,0,1Z"/><path class="cls-143" d="M98.98,30c-2.03,2.86-4.45,4.64-5.5,8l1.5,1c.65.33.65.66,0,1,2.08.71.92,2.41-1,2-.12.71-.45,1.05-1,1l-1,1c.85.31.84.64,0,1-.28.87-.62.86-1,0,.03-.33-.04-.67,0-1-.38-1.02-.04-2.35,1-4,2.63-5.3,1.72-5.64,7-10Z"/><path class="cls-49" d="M106.97,25c1.21-2.68,3.86-3.3,6-5-1.57,2.43-3.56,3.55-6,5Z"/><path class="cls-69" d="M90.98,43.99l-2,2v-1.5c.77-1.55,2.56-3.61,3-4.5.02,1.59-.79,2.25-1,4Z"/><path class="cls-49" d="M103.97,27c.12-.08.36-1.32,2-2l-2,2Z"/><path class="cls-49" d="M101.98,28c.06-.04.1-.35,1-1,.18,1.13-.95.95-1,1Z"/><path class="cls-143" d="M99.98,30c.33-.26.79-1.14,2-2-.39.43-.78,2.13-2,2Z"/><path class="cls-26" d="M4,129.96c.07.83.4,1.5,1,2,.87.33.87.66,0,1,.02.95.35,1.62,1,2l1,1c.88.29.87.63,0,1l1,1c.51.3.49.63,0,1l1,1v1l6,6c.3-.41.63-.39,1,0l1,1c.28-.65.62-.64,1,0l1,1c.29-.56.62-.54,1,0l1,1c.27-.57.6-.54,1,0l2,2c2.47-1.71,3.34-.64,2,2l-1,1c-.75-.29-1.27-.67-2-1l-1-1c-.24-.11-.66.08-1,0l-1-1c-.32-.07-.68.07-1,0,.13-1.01-.42-.82-1-1-.3-.09-.68.07-1,0-.84-1.05-1.01-1.17-2-2-.84-.71-1.42-.93-1.5-1-2.17-1.95-3.95-4.51-6.5-6-.32-.38-.18-.43-1-1l-1-1c-.09-.32.11-.73,0-1-2.48-1.93-3.48-3.59-3-5-.12-.28.11-.7,0-1-.87-.32-.87-.66,0-1l1-2c-.86-.33-.85-.66,0-1,.28-.87.62-.86,1,0,.89.2.86.54,0,1Z"/><path class="cls-143" d="M85.98,61.99c.15.54-.18.88-1,1l-1,2c.71.33.71.66,0,1l-1,1c.86.23.83.56,0,1l-1,2c.88.19.85.53,0,1-.57,1.47-1.24,2.13-2,2-.61.84-.71,1.16,0,2,1.29.86.56,2.63-1,2-.47.46-.8.12-1-1-.76-.13-.7-.48,0-1,.19-1.82-.06-2.23,1-4l1-1c.06-.28,0-.66,0-1l1-2c.03-.34-.07-.71,0-1l2-4c.07-.3-.04-.66,0-1l1-2c.47-1.98.63-1.41,1-2,.91-1.44,1.91-2.11,3-2l1.23.89c-1.19,1.84-2.27,3.88-3.23,6.1Z"/><path class="cls-56" d="M26.99,80.98c.22-.65.56-.61,1,0,.33,0,.67,0,1,0,.63-.72,1.34-.74,2,0,.33,0,.67,0,1,0,.25-.47.59-.43,1,0,3.98.01,8.02-.12,12,0,.87.28.86.62,0,1-1.31.64-2.98.98-5,1-.83,2.85-1.51,2.43-3,0-4.1-1-9.89-.94-14,0-.18.9-.52.86-1,0,.1-.86-.23-.94-1-1v-1c1.98-.09,4.01.04,6,0Z"/><path class="cls-42" d="M44.99,81.98c.86-.77,2.15-.79,3,0,.33.02.67-.03,1,0,.87.28.86.62,0,1l-2,1c-.54,3.43-6.83,2.22-7-1l.5-1c1.5-.03,3.01.04,4.5,0Z"/><path class="cls-285" d="M77.98,75.98v1c.16,1.85-1.08,5.68-3,5,.05-.66-.02-1.34,0-2l1-1c.33-1.24.6-2.3,1-3.5l1-.5c-.03.32,0,.67,0,1Z"/><path class="cls-183" d="M79.98,68.98c0-.66.1-1.41,0-2h1c-.05.49.05,1,0,1.5l-1,.5Z"/><path class="cls-68" d="M30.99,80.98c-.66,0-1.34,0-2,0l.5-1h1l.5,1Z"/><path class="cls-183" d="M78.98,70.98c.15-.25-.14-1.16,1-1-.14.68-.05,1.11-1,1Z"/><path class="cls-68" d="M27.99,80.98c-.33,0-.67,0-1,0v-1c.75.09,1.1.12,1,1Z"/><path class="cls-68" d="M32.99,80.98c-.33,0-.67,0-1,0l.5-1,.5,1Z"/><path class="cls-204" d="M20,82.98c-.18.03-.17.81-3,1,.11-.24-.18-.82.5-1h2.5Z"/><path class="cls-204" d="M14,83.98v1c-.33.02-.67-.01-1,0-.3.58-.63.57-1,0,.29-.19-.34-.76,2-1Z"/><path class="cls-30" d="M16,89.97c.87.28.86.62,0,1-.5.92-1.31.67-2,0,0-1.24.87-1.1,2-1Z"/><path class="cls-215" d="M6,91.97c.07.25,0,.66,0,1l-1-.5c-.07-.5.06-1.02,0-1.5,1-.13.83.39,1,1Z"/><path class="cls-21" d="M2,124.96l1,3c.68.21.64.55,0,1-.02.33.04.67,0,1-.13.65-.23,1.09-1,1-.03-.13-.63.49-1-2-.25-.94-.58-1.94-1-3v-13.99l1-1h1c.05,4.64-.18,9.36,0,13.99Z"/><path class="cls-119" d="M217.95,212.92l-.5,1c-.83.04-1.68-.05-2.5,0v-1c.33-.01.67.02,1,0,.66-.03,1.34.03,2,0Z"/><path class="cls-53" d="M240.94,191.93c.03.33-.04.67,0,1-.36-.26-1.88-1.14-2-1-.02,1.58.79,2.26,1,4l-2-2c-.87-.28-.86-.62,0-1-.57-.3-.56-.63,0-1-.68-.89-.13-1.25,1-1,.42-.27,1.08.07,2,1Z"/><path class="cls-53" d="M238.94,200.92v-2h1c-.05.49.06,1,0,1.5-.26.68-.77.4-1,.5Z"/><path class="cls-176" d="M224.95,210.92c-.87-.28-.86-.62,0-1,2.69-.7,4.43-1.84,7-3-1.05,2.26-4.8,3.58-7,4Z"/><path class="cls-119" d="M223.95,210.92l-.5,1c-.5.06-1.01-.06-1.5,0v-1c.33-.03.67.02,1,0s.67.04,1,0Z"/><path class="cls-119" d="M220.95,211.92l-.5,1c-.5.05-1.01-.05-1.5,0v-1c.33-.02.67.02,1,0s.67.02,1,0Z"/><path class="cls-176" d="M235.94,204.92l1-1c-.22.34.3.6-1,1Z"/><path class="cls-176" d="M232.94,206.92c.06-1.09,1.09-1.62,2-2-.05,1.13-1.12,1.58-2,2Z"/><path class="cls-270" d="M247.94,177.93c-.3.56-.63.55-1,0,.18-.58-.01-1.13,1-1-.05.32.07.69,0,1Z"/><path class="cls-270" d="M246.94,179.93c-.82,1.16-1.82,1.82-3,2,.27-1.54,2.01-2.2,3-3-.09.32.1.71,0,1Z"/><path class="cls-34" d="M240.94,156.94v1c-.33,0-.67-.01-1,0-1.36.25-2.7.59-4,1-.27.63-.6.61-1,0v-1c-.87-.28-.86-.62,0-1,1.92-.12,4.06-.07,6,0Z"/><path class="cls-34" d="M246.94,170.94c.01-.33,0-.67,0-1,.03-.99.04-2.01,0-3v-1l1,.5v4c-.16.68-.76.39-1,.5Z"/><path class="cls-250" d="M239.94,157.94v1c-1.28-.08-2.72-.09-4,0l.5-1c1.17-.03,2.34.05,3.5,0Z"/><path class="cls-217" d="M234.94,187.93c.13-.04-.1-1.52,2-1l-2,2c-.87-.28-.86-.62,0-1Z"/><path class="cls-34" d="M246.94,164.94c-.28.87-.62.86-1,0-.1-.3.1-.7,0-1l-1-1v-1c.12.14,1.67.67,2,1.5.09.5-.08,1.03,0,1.5Z"/><path class="cls-78" d="M241.94,159.94c-.33-.03-.67.01-1,0v-1c.33.03.67-.02,1,0,.6.3.58.63,0,1Z"/><path class="cls-34" d="M242.94,159.94c-.18.55-.53.49-1,0v-1c1.15-.17.94.96,1,1Z"/><path class="cls-78" d="M243.94,160.94h-1v-1c.86.62.89.9,1,1Z"/><path class="cls-270" d="M245.94,174.94c.03-.33-.03-.67,0-1h1c.17,1.15-.82.87-1,1Z"/><path class="cls-270" d="M244.94,176.93c.08-.32-.09-.69,0-1h1c-.12.72-.08,1.11-1,1Z"/><path class="cls-270" d="M243.94,178.93l1-1c-.41,1.38-.96.94-1,1Z"/><path class="cls-250" d="M234.94,156.94v1c-.66-.03-1.35.06-2,0l.5-1c.5-.04,1.01.03,1.5,0Z"/><path class="cls-126" d="M91.98,125.96c-.29-.05-.7-.03-1,0v-1c.88.27.73.11,1,1Z"/><path class="cls-222" d="M33.99,165.94c-.28.87-.62.86-1,0v-3c.14-.35-.14-.97,0-1.5l1-.5c-.04,1.66.04,3.34,0,5Z"/><path class="cls-88" d="M32.99,169.94v-4h1c-.03,1.16.02,2.33,0,3.5l-1,.5Z"/><path class="cls-242" d="M33.99,158.94c.04-.49-.05-1,0-1.5l1-.5c-.06.49.07,1,0,1.5l-1,.5Z"/><path class="cls-242" d="M34.99,155.94c.06-.34-.09-.73,0-1h1l-1,1Z"/><path class="cls-195" d="M61.98,123.96c0,.33-.02.67,0,1h-1c-.86-.74-.6-2.09,0-3,.04-1.32-.02-2.67,0-4-2.48-2.79-2.48-5.24,0-8l1,.5c.08,4.49-.11,9.01,0,13.49Z"/><path class="cls-167" d="M69.98,96.97l1,2c0,.83,0,1.66,0,2.5l-1,.5c-.7-.22-.66-.56,0-1h-2c.35-1.72,1.1-2.78,1-4.5l1-.5c.9.1.85.45,0,1Z"/><path class="cls-167" d="M70.98,109.96c-.1-.11-1.79-.74-2-1.5-.31-1.12-.04-4.01,0-5.5.28-.87.62-.86,1,0,.05,2.58-.51,4.87,1,7Z"/><path class="cls-182" d="M69.98,101.97c.02.33,0,.67,0,1h-1c.02-.66-.1-1.39,0-2,.29-.64.63-.63,1,0,.07.28-.02.66,0,1Z"/><path class="cls-167" d="M66.98,103.97c-.02-.33.01-.67,0-1s.06-.72,0-1h1c-.05.49.05,1,0,1.5l-1,.5Z"/><path class="cls-247" d="M79.98,117.96c.63.3.62.63,0,1-.21.71-.55.67-1,0h-1l.5-1h1.5Z"/><path class="cls-125" d="M78.98,77.98c.45.32.45.66,0,1l-1,1c.64.32.64.65,0,1l-1,2c.64.15.59.5,0,1l-1,1c.74.5.74,1.48,0,2,.89.25.86.58,0,1l-1,2c-.3.7-.65,1.33-1,2l-1,2c-.08.3.07.67,0,1-.3.64-.63.63-1,0-.85.93-1.18.59-1-1-.64-.32-.64-.65,0-1,.03-.33-.04-.67,0-1l1-2c-.64-.22-.6-.56,0-1,.23-.93.67-1.73,1-3,.29-.76.62-1.1,1-1l1-2c-.57-.27-.55-.61,0-1,1.27-.55,2.17-2.89,2-4.5l1-.5,1,1Z"/><path class="cls-267" d="M71.98,94.97c.61.33.61.66,0,1-.04.49.05,1,0,1.5l-1,.5c-.36.08-.69-.25-1-1-.04-.32,0-.67,0-1s-.03-.67,0-1c.31-.75.64-1.09,1-1,.95-.11.86.32,1,1Z"/><path class="cls-296" d="M70.98,91.97c.04-.33-.03-.67,0-1s-.05-.68,0-1c.3-.64.63-.62,1,0-.08.46.09.99,0,1.5l-1,.5Z"/><path class="cls-296" d="M70.98,93.97c-.15.66-.04,1.12-1,1,.04-.49-.05-1,0-1.5l1-.5c-.03.34.07.71,0,1Z"/><path class="cls-47" d="M60.99,107.97l-1-.5c-.02-1.17.04-2.34,0-3.5h1v4Z"/><path class="cls-29" d="M53.99,83.98c1.52.4,2.21,1.82,3,3l1,1c.06.28.03.71,0,1-.23,2.54-.97,1.87-1,2-.87.32-1.87.66-3,1-.35-.02-.76.08-1,0-.93-.05-2.01.12-4,1-.63.72-1.34.74-2,0-7.6.89-15.39.84-22.99,0-.26.82-1.49.75-2,0l-1-1c-.87.74-2.13.74-3,0-.65-.05-1.35.08-2,0-.87-.28-.86-.62,0-1v-1c.49.14,1.35-.02,2,0,1.33.37,2.66.7,4,1,.33.01.67,0,1,0l2,1c7.46-.1,14.79-.43,21.99-1,.14-.7.49-.64,1,0l3-1c-.08-.34.25-.67,1-1,.32-.05.67.04,1,0l1-1-3-3c-1.32-1.33-.75-1.77,1-1,.54.15,1.44-.14,2,0Z"/><path class="cls-47" d="M59.99,101.97h-1c-.89-.5-.61-1.3,0-2v-1c.23.59.82.35,1,3Z"/><path class="cls-126" d="M80.98,118.96c.34.03.71-.07,1,0l1,1c.34.08.74-.1,1,0l1,1c.3.12.75-.13,1,0,.64.3.62.63,0,1v1c-2.17-.98-4.31-2.45-6.5-3l-.5-1c.33,0,.67-.02,1,0,.15-.68.5-.62,1,0Z"/><path class="cls-64" d="M24.99,211.92c.06-2.86,2.32-2.73,3,0v1c-1.93-.02-4.16.22-6,0-.64-.3-.62-.63,0-1h3Z"/><path class="cls-43" d="M43.99,211.92l-.5,1c-1.83.02-3.68-.02-5.5,0v-1c1.99-.01,4.01.04,6,0Z"/><path class="cls-128" d="M19,210.92v1h-2v-1c.21-.68.55-.64,1,0,.19-.89.52-.85,1,0Z"/><path class="cls-43" d="M47.99,210.92l-.5,1c-.5.04-1.01-.03-1.5,0v-1c.24-.86.58-.84,1,0,.32.03.67,0,1,0Z"/><path class="cls-43" d="M49.99,210.92h-1v-1c.28-.87.62-.86,1,0-.05.06-.05.93,0,1Z"/><path class="cls-18" d="M21.99,212.92c-.75-.09-1.1-.12-1-1h1v1Z"/><path class="cls-248" d="M49.99,201.92c.07,1.42-1.04.85-2,1l2-1Z"/><path class="cls-109" d="M33.99,173.94c.37,7.62-.27,15.36,0,22.99l2,1c.02.84-.77,1-1,2,1.67-.08,1.67.58,0,2,.61,1.2.19,1.64-1,1-.62-.28-.6-.62,0-1l-1-1c-2.03-.23-1.94-1.23,0-2-.85-8.6-.68-17.41,0-25.99v-1l1,.5c.03.5-.02,1.01,0,1.5Z"/><path class="cls-73" d="M43.99,201.92c-.66,0-1.34.04-2,0v-1c.49.04,1-.05,1.5,0l.5,1Z"/><path class="cls-160" d="M121.97,9.01l1,1c.26-.86.6-.84,1,0l1,1c.25-.86.58-.83,1,0l1,1c.32-.85.65-.85,1,0l1,1c.28-.65.61-.63,1,0l1,1c.91-1.66,2.96-.99,3,1v1c-2.72-.62-6.25-2.59-9-4-1.47-.75-5.72-2.48-6-3.5-.25-.92.16-2.4,0-3.5h1c1.06.92,2.58,2.64,2,4Z"/><path class="cls-160" d="M120.97,12.01c1.78.8.97,1.53-1,1v-2l1,1Z"/><path class="cls-143" d="M104.97,29v1c-.32.15-.99-.21-1.5,0-1.06.43-2.02,2.84-3.5,3,1.02-.95,2.02-2.98,3.5-4,.4-.28,1.22.18,1.5,0Z"/><path class="cls-160" d="M123.97,13.01c-.12.24.08.66,0,1-.3-.08-.68.07-1,0l-1-2c1,.24,1.16,1.01,2,1Z"/><path class="cls-49" d="M112.97,24c-.77.05-1.1.65-2,1,.39-1.22,1.81-2.63,3-3,.02.84-.76,1-1,2Z"/><path class="cls-49" d="M106.97,28c.79-.62,1.07-2.01,3-3l-3,3Z"/><path class="cls-49" d="M104.97,29c.06-.04-.1-.3,1-1l-1,1Z"/><path class="cls-143" d="M96.98,37l-2,1c.53-1.6,1.69-1.64,2-2,.66.22.62.56,0,1Z"/><path class="cls-234" d="M137.97,6.01l-1-1c1.35.58.94.97,1,1Z"/><path class="cls-104" d="M139.97,7.01l-1-1c1.29.65.94.97,1,1Z"/><path class="cls-104" d="M141.97,8.01l-1-1c1.26.67.94.97,1,1Z"/><path class="cls-2" d="M104.97,125.96c1.29-1.07,4.9-.44,7,0,.65.29.64.63,0,1-2.77-.43-7.01.61-9.5,0-.68-.17-.45-.98-.5-1h3Z"/><path class="cls-126" d="M92.98,122.96l1,1c.65.08,1.35-.07,2,0,.87.28.86.62,0,1-.82-.09-1.84.18-2.5,0-.48-.13-2.22-1.36-2.5-2,.65.07,1.35-.08,2,0Z"/><path class="cls-86" d="M111.97,126.96v-1c-.24-.88,1.08-1.65,2-2,.03-.04.54.22,1-.5.54-.83.69-3.54,2-3.5-.24.97-.52,2.71-1,3.5s-3.12,3.33-4,3.5Z"/><path class="cls-200" d="M89.98,121.96c.54.3.53.64,0,1-.49-.05-1,.05-1.5,0l-.5-1c.65,0,1.45-.12,2,0Z"/><path class="cls-200" d="M86.98,121.96h-1v-1c.31.16,1.16-.13,1,1Z"/><path class="cls-126" d="M89.98,124.96c-.33-.03-.67.02-1,0v-1c.62.17,1.12.01,1,1Z"/><path class="cls-132" d="M185.95,133.95c-.16.43.08,1.37,0,2h-1c-.3-.45-1.94-1.42-3-3,1.15.18.94-.97,1-1,.22-.11.64.06,1,0,2.03.33,2.7,1,2,2Z"/><path class="cls-101" d="M190.95,142.95h-4v-1c1.21.2,1.79-.02,2.5-1l1.5,2Z"/><path class="cls-134" d="M122.97,71.98c-2.06,3.57-.06,4.23,6,2,.07.31-.05.68,0,1l-1,1c-.33.1-.75-.12-1,0l-1,1c1.35,2.09-.03,2.62-2,3l1,2c.9.25.88.58,0,1,1.64,2.53-.62,3.66-2,1l-1-2c-.04-.33.02-.67,0-1-.81-.96-1.48-.96-2,0-.02.33.02.67,0,1-.33,1.66-1.77,2.04-3,1-.15-.94.09-2.02,0-3,1.78-.25,1.58-3.53,2-4.5.58-1.35,2.37-2.82,2-4.5l2,1Z"/><path class="cls-118" d="M122.97,71.98v3c1.47-.07,3.7-1.07,5-2,.96-.12.85.34,1,1h-1.5c-1.58,1.34-3.46,2.28-5.5,2v-3.5l1-.5Z"/><path class="cls-118" d="M127.97,75.98l1-1c.13,1.02-.43.82-1,1Z"/><path class="cls-144" d="M125.97,83.98c.52,2.07-.94,1.88-1,2h-1l-1-1c-.08-.29.06-.66,0-1,.72.31,1.79,1.25,2,1v-2c.04.06,1.18-.14,1,1Z"/><path class="cls-257" d="M180.96,201.92v1c-1.16-.04-2.33.03-3.5,0l-.5-1c1.32.03,2.67,0,4,0Z"/><path class="cls-142" d="M184.96,202.92c.87.28.86.62,0,1-.14.7-.49.65-1,0l-1,1c-.33,0-.67,0-1,0v-2c.99.02,2.01,0,3,0Z"/><path class="cls-257" d="M174.96,203.92c-.33-.02-.67.04-1,0-.49-.06-1,.06-1.5,0l-.5-1c.82.04,1.67-.03,2.5,0l.5,1Z"/><path class="cls-257" d="M178.96,203.92c.87.28.86.62,0,1-.33-.02-.67.03-1,0-.49-.05-1,.05-1.5,0l-.5-1c.99.06,2.01-.07,3,0Z"/><path class="cls-1" d="M152.96,184.93c-1.39-1.27-2.38-1.85-3-4,.3-.64.63-.62,1,0,.75,1.27,1.3,2.69,2,4Z"/><path class="cls-257" d="M168.96,199.92c-2.56-1.02-2.03-1.39-3-2l2.5,1,.5,1Z"/><path class="cls-257" d="M171.96,200.92c-2.4-.44-1.87-.96-2-1h1.5l.5,1Z"/><path class="cls-257" d="M170.96,202.92c-.66-.04-1.39.1-2,0l-1-1c-.26-.15-1.16.14-1-1,1.23.23,3.97.76,4,2Z"/><path class="cls-257" d="M174.96,201.92c-.49-.04-1,.05-1.5,0l-.5-1c.49.05,1-.05,1.5,0l.5,1Z"/><path class="cls-142" d="M180.96,204.92c-.66-.02-1.34.03-2,0v-1c.49.03,1-.04,1.5,0l.5,1Z"/><path class="cls-124" d="M149.96,178.93l-1-1c.01.07.61-.39,1,1Z"/><path class="cls-124" d="M150.96,180.93h-1c-.09-.32.1-.71,0-1,1.14-.16.85.74,1,1Z"/><path class="cls-257" d="M162.96,196.93c-1.19-.58-.74-.64-1-1l1,1Z"/><path class="cls-257" d="M160.96,197.92l-1-1c.92.67.94.96,1,1Z"/><path class="cls-257" d="M164.96,197.92c-1.19-.7-.94-.97-1-1l1,1Z"/><path class="cls-257" d="M163.96,199.92c-.94-.32-1.2-.97-2-1v-1c.83.48,1.95.79,2,2Z"/><path class="cls-257" d="M165.96,200.92c-.35.02-.73-.07-1,0v-1c.61.17,1.13,0,1,1Z"/><path class="cls-74" d="M213.95,144.95h-1.5l-.5-1c2.51.31,1.87.97,2,1Z"/><path class="cls-297" d="M166.96,207.92l2,1c.84-1.26,2.48-1.35,4.91-.26,4.36-.69,8.05-.27,11.09,1.26.87.28.86.62,0,1l-3,1c-6.36-.18-10.29-1.14-16-2l-2-1c-.31-.09-.69.09-1,0-1.13-1.36-.58-1.83,1-1,.92-.92,2.43-1.43,3,0Z"/><path class="cls-136" d="M196.95,209.92c.3-.6.63-.59,1,0,.29-.68.63-.67,1,0l3,1c.81.93.24,1.24-1,1-.86-.38-6.23.03-8,0-.87-.28-.86-.62,0-1l1-1c-.08-1.52,2.72-1.49,3,0Z"/><path class="cls-151" d="M204.95,208.92c.8-.89,2.15-.61,3,0,1.79-.88,2.35-.47,1,1-.52.36-1.19.69-2,1-.33.02-.67-.01-1,0h-1c-.4-.47-.73-.47-1,0-.21.7-.55.67-1,0-.87-.28-.86-.62,0-1-.87-.28-.86-.62,0-1,.67-1.46,1.47-1.54,2,0Z"/><path class="cls-286" d="M192.95,210.92v1c-1.99-.03-4.01.03-6,0-.87-.28-.86-.62,0-1,1.56-.79,4.41-.72,6,0Z"/><path class="cls-55" d="M161.96,206.92c.86,1.11.36,1.58-1,1-.52-.15-1.39.11-2,0-.87-.28-.86-.62,0-1-.66-.29-.64-.63,0-1,1.23-1.96,3-1.27,3,1Z"/><path class="cls-67" d="M184.96,210.92c.49-.81,1.22-.58,2,0v1c-1.66-.03-3.34.05-5,0l.5-1c.83-.02,1.68.03,2.5,0Z"/><path class="cls-83" d="M141.97,12.01h-2.5l-.5-1c2.61.18,2.15.6,3,1Z"/><path class="cls-83" d="M136.97,11.01c-2.5-.36-2.84-1.44-4-2h1.5c.61.68,1.04,1.32,2,1l.5,1Z"/><path class="cls-160" d="M125.97,15.01c-.32-.08-.7.09-1,0v-1c1.33.38.81.74,1,1Z"/><path class="cls-160" d="M127.97,16.01c-.34-.05-.72.08-1,0v-1c1.35.38.87.85,1,1Z"/><path class="cls-83" d="M135.97,13.01h-1.5l-.5-1c2.45.39,1.87.96,2,1Z"/><path class="cls-83" d="M138.97,14.01h-1.5l-.5-1c2.1.55,1.87.96,2,1Z"/><path class="cls-83" d="M132.97,12.01c-.33-.02-.67.02-1,0v-1c.51.18,1.14-.05,1,1Z"/><path class="cls-160" d="M130.97,17.01c-.66-.05-1.34.02-2,0v-1c.49.06,1-.07,1.5,0l.5,1Z"/><path class="cls-17" d="M222.95,158.94c-.69.87-1.5,1.98-2,3-2.86,1.8-6.19,3.13-10,4,.34,3.31-5.94,5.01-7.74,2.56-9.48.24-18.9.05-28.25-.56-.5-.17-1.5.17-2,0-1.79-.12-3.45-.45-5-1-.33-.01-.67,0-1,0-1.33-.42-2.66-.75-4-1-2.81-.61-7.14-2.1-10-3v-1c1.3.12,2.68-.07,4,0,.36-1.47,1.12-1.31,2,0l3,1c.19-.88.52-.84,1,0,1.06.33,2.06.67,3,1,.34.48.68.48,1,0,.33-.85.66-.85,1,0,14.71,2.13,30.81,3.04,44.99-1-1.43-1.53-.87-2.04,1-1,.34-.64,1.01-.97,2-1,.23-.84.57-.81,1,0,2.04-1.83,3.71-2.5,5-2,.3-.63.63-.62,1,0Z"/><path class="cls-223" d="M157.96,157.94l1,2c.29-1.57,1.21-1.43,2,0,2.03,1.45,1.7,2.12-1,2-.33.65-.67.65-1,0-.66-.02-1.34.03-2,0l-.5-1c-2.19.47-1.89-.38-2.5-1,.7-.82.7-1.48,0-2,.11-.93.78-1.59,2-2,.32-.05.67.02,1,0,1.7-.05,1.67.77,1,2Z"/><path class="cls-41" d="M153.96,157.94c.65-.06,1.34.03,2,0v2h-2s-1.04.12-1-.5c.72-.23.87-1.34,1-1.5Z"/><path class="cls-276" d="M175.96,150.95c2.18-1.13,4.85-1.13,8,0,3.28-.78,6.72-.77,10,0,1.21-.76,2.78-.75,4,0,1.6.4,3.27.74,5,1,.87-.75,2.14-.78,3,0,.87.28.86.62,0,1l2,1c2.62-2.16,2.7,3.46,1.53,4.42s-5.52-.54-6.53-1.42c-.87-.28-.86-.62,0-1l1-1c-.64-.42-1.3-.42-2,0-.65,1.41-1.48,1.45-2,0-.5-.39-.83-1.06-1-2-.86,1.08-1.25,1.42-2,0-.63.71-1.34.73-2,0-.1.91-.45.86-1,0-.4-.48-.73-.48-1,0,2.22,1.17-.31,2-2,1-.44.88-1.23.67-2,0-2.65.59-3.98.26-4-1-1.67,1.3-3,1.3-4,0-.71,2.23-3.67,1.29-5,0l-2-1,.5-1c.5-.05,1.01.04,1.5,0Z"/><path class="cls-92" d="M173.96,151.95c.87.28.86.62,0,1,.06.37-.27.7-1,1-.36,1.07-1.36,1.07-3,0-.13.59-.33,1-1,1-.33,1.79-1.5,1.81-3,1-.27.89-.6.88-1,0l-2,1c-.33.89-.66.89-1,0-.61.65-1.44.81-2,0-.9-.1-.85-.45,0-1-.89-.21-.86-.54,0-1l1-1c.29-.67.63-.65,1,0,.06.05.94.05,1,0l2-1c.97-.11,2.01.04,3,0l3-1c.98,0,2.04-.1,3,0Z"/><path class="cls-20" d="M169.96,151.95h1l-.5,1c-.83.02-1.67-.03-2.5,0v-1h2Z"/><path class="cls-194" d="M210.95,152.95c.33.02.67-.04,1,0,.87.28.86.62,0,1,.57.47.24.81-1,1,4.17.09,6.5,1.42,7,4,1.32.37.99,1.04-1,2-.33,0-.78.08-1,0-.69.35-1.35.35-2,0-3.51,1.22-7.18.89-11-1-.26.9-.59.88-1,0-.76.8-2.56.35-2-1-.5-.19-.5-.86,0-2,.64-1.55,2.14-1.37,3,0,1.12.03,2.54-.2,3.5,0,.43.09.88,1.55,2.5,1-.15-1.54.68-3.88-1-4-.87-.28-.86-.62,0-1,.29-.66.63-.65,1,0,.52-.82,1.25-.6,2,0Z"/><path class="cls-148" d="M216.95,154.94c.32.11.77-.13,1,0,.63.3.62.63,0,1,4.38.45,3.34,5.2,0,3l-5.5-3-1.5,2v-3c.73-.47,1.39-.74,2,0l1-1c.33.01.68-.05,1,0l2,1Z"/><path class="cls-235" d="M192.95,149.95c.33,0,.67,0,1,0,.87.28.86.62,0,1-3.32.03-6.68-.03-10,0v-1c.33,0,.67,0,1,0,2.6-.76,5.4-.78,8,0Z"/><path class="cls-12" d="M201.95,150.95c.35-.02.76.09,1,0,.87.28.86.62,0,1-1.49-.04-3,.02-4.5,0l-.5-1c1.32-.03,2.69.09,4,0Z"/><path class="cls-12" d="M207.95,151.95c.33.01.67-.03,1,0,.87.28.86.62,0,1h-1c-.37.93-1.66,1.09-2,0v-1c.66.02,1.34-.02,2,0Z"/><path class="cls-236" d="M219.95,155.94c-.17,1.15.82.87,1,1,1.45-1.42,2.03-.83,1,1,.87.28.86.62,0,1-1.77.76-3.11,1.96-5,2l1-2h2v-2l-2-1c.3-.61.63-.59,1,0h1Z"/><path class="cls-48" d="M228.94,162.94v-5c.05-.05-.14-1.18,1-1v5.5c-.16.68-.76.39-1,.5Z"/><path class="cls-6" d="M228.94,163.94c1.76-.21.71,1.78,0,3-.28.87-.62.86-1,0,.1-1.14-.06-2.34,0-3.5.16-.68.76-.39,1-.5v1Z"/><path class="cls-48" d="M230.94,163.94c-.06.27,0,.66,0,1l-1,2c-.28.87-.62.86-1,0v-3h2Z"/><path class="cls-206" d="M227.94,151.95c-.86.55-1.86-.12-3-2-.21-.18-.44.29-1-1,.4.13,1.02-.19,1.5,0,.56.22,2.29,2.15,2.5,3Z"/><path class="cls-201" d="M223.95,157.94c-.41.44-.96.94-1,1h-1v-1c.41.16,1.37-.09,2,0Z"/><path class="cls-213" d="M234.94,158.94v1c-.35.04-.73-.08-1,0l-1,1c-1.61.7-.52,1.91-2,2v-1.5c1.48-1.71,1.89-2.2,4-2.5Z"/><path class="cls-201" d="M223.95,160.94l-1,1v-2c1.14-.18.94.96,1,1Z"/><path class="cls-201" d="M224.95,160.94c.06-.04.02-.33,1-1l-1,1Z"/><path class="cls-35" d="M19,199.92v1c-.19.89-.52.85-1,0-.52.82-1.25.58-2,0l.5-1c.83-.03,1.68.04,2.5,0Z"/><path class="cls-35" d="M15,200.92v1c-.33.87-.67.87-1,0h-1l.5-1c.5-.04,1.01.04,1.5,0Z"/><path class="cls-35" d="M12,201.92c.87.28.86.62,0,1-.29.87-.62.86-1,0l-3,4s-.83.18-1-.5v-1c1.89-1.92,2.42-3.03,5-3.5Z"/><path class="cls-128" d="M15,209.92v1c-.49-.05-1,.05-1.5,0l-.5-1c.33.04.67-.03,1,0,.33-.86.67-.86,1,0Z"/><path class="cls-128" d="M10,208.92c-1.47-.49-1.37-1.14-2-2,.32-2.1,2.01.61,2,2Z"/><path class="cls-128" d="M12,209.92c-1.15.18-.9-.87-1-1,.24-.86.58-.84,1,0v1Z"/><path class="cls-127" d="M28.99,188.93c.04,1.47-.33,5.25,0,6,.59.93.05,1.3-1,1-.73-1.33-.73-2.69,0-4,.01-2.65.02-5.34,0-8h1c.01,1.66-.04,3.34,0,5Z"/><path class="cls-178" d="M27.99,195.93l-1-1v-3h1c0,1.33.02,2.67,0,4Z"/><path class="cls-111" d="M25.99,154.94c-.32-.08-.73.11-1,0,.18-.58-.01-1.13,1-1,.44.31.43.64,0,1Z"/><path class="cls-90" d="M26.99,154.94h-1v-1c.04.06.38-.31,1,1Z"/><path class="cls-90" d="M27.99,156.94c-.96.12-.85-.34-1-1,.91-.11.88.28,1,1Z"/><path class="cls-71" d="M26.99,199.92c.9.45.69,1.25,0,2,.89.21.86.54,0,1-.3.62-.63.61-1,0l-1-1c-.82-.25-.79-.59,0-1,.06-.12.7.46,1-2,.08-.65-.03-1.34,0-2,.33.03.67-.02,1,0,.02.99-.03,2.01,0,3Z"/><path class="cls-219" d="M20.99,152.95c-.66-.15-1.12-.04-1-1,.66.15,1.12.04,1,1Z"/><path class="cls-219" d="M22.99,153.94l-1-1c1.33.62.94.97,1,1Z"/><path class="cls-268" d="M87.98,54.99c-1.16.51-2.02,2.57-2,4h-1v-2c.15-.24-.14-.74,0-1l2-4,1,.5c-.03.83.05,1.68,0,2.5Z"/><path class="cls-143" d="M84.98,55.99l2-4c-.44,2.47-1.2,2.59-2,4Z"/><path class="cls-183" d="M82.98,60.99c.06-.48-.07-1,0-1.5l1-.5c-.1.43.11.98,0,1.5l-1,.5Z"/><path class="cls-183" d="M80.98,65.98c.31-1.32.62-2.26,1-3.5l1-.5c-.31,1.32-.62,2.26-1,3.5l-1,.5Z"/><path class="cls-69" d="M91.98,45.99c-.03.33.04.67,0,1-.28.87-.62.86-1,0,.02-.66-.06-1.35,0-2h1c.87.25.85.58,0,1Z"/><path class="cls-69" d="M91.98,43.99c.4-1.38.96-.94,1-1l-1,1Z"/><path class="cls-179" d="M2,131.95c-.09-.29.07-.67,0-1l1-1c-.06.48.06,1,0,1.5l-1,.5Z"/><path class="cls-199" d="M9,139.95c-.26-.21-.41.25-1-1h1c.09.31-.08.69,0,1Z"/><path class="cls-199" d="M15,145.95v1c-1.31-.43-5.57-4.69-6-6l6,5Z"/><path class="cls-199" d="M17,147.95c-1.35-.38-.87-.85-1-1,.32.06.67-.05,1,0,.65.29.64.63,0,1Z"/><path class="cls-219" d="M19,148.95c-.89-.27-.73-.11-1-1,.32.08.7-.09,1,0,.53.3.51.64,0,1Z"/><path class="cls-219" d="M20.99,149.95c-1.33-.39-.81-.73-1-1,.31.08.69-.09,1,0,.54.3.53.64,0,1Z"/><path class="cls-219" d="M23.99,151.95c-.99-.83-1.16-.95-2-2,.91.38,1.94.91,2,2Z"/><path class="cls-285" d="M73.98,84.98c-.66-.29-.65-.63,0-1,.07-.32-.09-.7,0-1,.3-.53.64-.51,1,0-.07.48.08,1,0,1.5-.24.69-.97.45-1,.5Z"/><path class="cls-183" d="M83.98,64.98c.14-.34-.18-.98,0-1.5.24-.69.97-.46,1-.5v1.5l-1,.5Z"/><path class="cls-183" d="M81.98,69.98c.32-2.46.95-1.88,1-2v1.5l-1,.5Z"/><path class="cls-183" d="M80.98,74.98c-.28.87-.62.86-1,0-.77-.47-.77-1.49,0-2,1.61-.71.53-1.91,2-2-.3,1.39-.72,2.6-1,4Z"/><path class="cls-110" d="M79.98,74.98c-.05-.09-1.41.16-1-1.5.19-.68.73-.38,1-.5v2Z"/><path class="cls-110" d="M78.98,76.98c-.1.27.08.66,0,1-.92.11-.88-.28-1-1-.05-.31,0-.68,0-1l1,1Z"/><path class="cls-183" d="M82.98,66.98c.5-1.38.98-.93,1-1l-1,1Z"/><path class="cls-68" d="M36.99,82.98c-4.38-.24-9.6-.2-14,0l.5-1h13l.5,1Z"/><path class="cls-31" d="M57.99,87.97c-1.15.17-.86-.8-1-1,.95-.11.86.32,1,1Z"/><path class="cls-271" d="M48.99,82.98c2.21,1.15-.29,1.99-2,1,0-.47-.04-.8.5-1h1.5Z"/><path class="cls-45" d="M51.99,83.98l-1,1h-3.5c-.54-.13-.5-.56-.5-1,2.48-.22,1.88-.94,2-1,2.19-1.03,2.82.95,3,1Z"/><path class="cls-162" d="M46.99,92.97c.87.28.86.62,0,1-.66.03-1.34-.01-2,0-5.93.88-12.07.88-18,0-.99-.02-2.01.04-3,0-.87-.28-.86-.62,0-1,7.65,0,15.35.09,22.99,0Z"/><path class="cls-228" d="M18,111.96c1.25-.19,2.7.12,4,0,3.63,1.93-.72,2.26-3.66,2l-.34,1c-.25.88-.58.86-1,0-.3,1.94-2.98,2.67-4,1-1.79,1.26-2.92-.13-2-2-.11-.4.22-.74,1-1,.18-.55.53-.49,1,0,2.05-.26,3.26-.74,5-1Z"/><path class="cls-22" d="M20.99,91.97c.64.3.62.63,0,1h-2c-.18-.13-1.17.15-1-1,.98.08,2.03-.12,3,0Z"/><path class="cls-162" d="M52.99,91.97l-1,1c-.66.02-1.34-.04-2,0-.25.47-.59.43-1,0l.5-1,3-1c.63-.05.45.98.5,1Z"/><path class="cls-22" d="M16,90.97v1c-.51-.06-1.08.16-1.5,0-.54-.2-.5-.53-.5-1,.66.04,1.34-.02,2,0Z"/><path class="cls-162" d="M42.99,90.97c1.14-.78,2.85-.75,4,0-.65,1.72-3.94.99-5.5,1-5.41.04-11.15.26-16.5,0-.87-.28-.86-.62,0-1,5.98.05,12.02.08,18,0Z"/><path class="cls-22" d="M21.99,90.97c-1.15-.05-2.33.03-3.5,0l-.5-1c1.16.04,2.33-.03,3.5,0l.5,1Z"/><path class="cls-162" d="M50.99,89.97s.18.83-.5,1c-.83.04-1.68-.06-2.5,0v-1c.33,0,.67,0,1,0h2Z"/><path class="cls-22" d="M24.99,90.97v1c-.49-.02-.99.03-1.5,0l-.5-1c.66.01,1.34,0,2,0Z"/><path class="cls-28" d="M10,113.96c1.2,1.27,1.94,2.64,0,3,.88.86,2.04.82,3.47-.13l.53,1.13c3.43.28,4.43.94,3,2-.81,1.83-2.78,1.48-4,0-.1.99-.57,1.73-.85,1.47-2.11-1.96-2.02,1.75-1.15,3.53.89.19.85.52,0,1,.58.23.54.57,0,1,.69.21.65.55,0,1,.21,1.7-.79,2.36-3,2-.28.87-.62.86-1,0-.1-.29.09-.68,0-1l-1-3c-.03-.66.09-1.37,0-2-.16-1.45-.49-2.78-1-4,.03-.82-.13-1.76,0-2.5.06-.33,1.3-.59,1-2.5.57-.93,2.87-1.47,4-1Z"/><path class="cls-265" d="M3,125.96c0,.66.02,1.34,0,2l-1-.5c-.02-.83.03-1.68,0-2.5h1c0,.33,0,.67,0,1Z"/><path class="cls-297" d="M216.95,205.92c.64.12,1.06.26,1,1,.87.28.86.62,0,1-.3.08-.67-.07-1,0l-1,1c-.29.07-.66-.03-1,0s-.67-.04-1,0l-2-1c-.64-.3-.63-.63,0-1,.61-1.45,1.43-1.45,2,0l1-1c.43-.81,1.51-.74,2,0Z"/><path class="cls-13" d="M221.95,205.92c-.44.31-1.45.71-2,1h-1l-1-1c-.66-.29-.64-.63,0-1,.2-.89.54-.86,1,0l1-1c.23-.92.56-.89,1,0,1.92-1.04,2.28.42,1,2Z"/><path class="cls-226" d="M226.95,200.92c-1.04.96-1.81,1.98-3,3-.87-.28-.86-.62,0-1-.09-1.12.57-2.12,2-3,1.53-.97,1.94-.48,1,1Z"/><path class="cls-288" d="M223.95,202.92v1c-.48.41-.74,1.11-2,2l-1-2,1-1c.26-.9.6-.88,1,0,.3-.57.63-.55,1,0Z"/><path class="cls-16" d="M227.94,199.92c-.34.34-.61.64-1,1,.1-.8-.23-1.03-1-1-.86-.27-.84-.61,0-1,.06-.12,1.52.07,1-2h1v3Z"/><path class="cls-262" d="M238.94,190.93l-1,1c-.3.64-.63.63-1,0-.05-.23-.06-.78,0-1l1-1c1.15-.17.94.96,1,1Z"/><path class="cls-3" d="M241.94,171.94c.87.26.71,1.42,0,2-1.78,3.44-2.21,3.57-5,6-1.4,1.32-1.92.77-1-1-3.11-1.65-.12-3.35,2-4l1-1c-.86-.29-.85-.63,0-1,.44-1.63.78-3.29,1-5,.33-.86.66-.85,1,0,.98.84,1.31,2.17,1,4Z"/><path class="cls-40" d="M242.94,168.94c.63.22.59.56,0,1-.03.66.08,1.35,0,2-.28.87-.62.86-1,0-.02-.05-.83.18-1-.5-.24-.97.15-2.39,0-3.5.28-.87.62-.86,1,0,.43-.13.76.2,1,1Z"/><path class="cls-9" d="M231.94,187.93c2.03,1.42-1.21,2.48-2,1v-1c.33-.03.67.01,1,0s.67.01,1,0Z"/><path class="cls-205" d="M233.94,182.93c-.32-1.64,1.38-3.57,3-3-.05,1.33-2.07,2.3-3,3Z"/><path class="cls-205" d="M232.94,183.93c-.28.08-.66-.05-1,0-.82-1.04-.29-1.41,1-1,.6.3.58.63,0,1Z"/><path class="cls-133" d="M235.94,163.94c.56-.94,2.07-.74,3,0,.35.04.73-.08,1,0v1c.09.82-1.24,1.15-4,1,.77,2.59-.15,2.93-2,1l-1,1c-.34.86-.67.86-1,0-.86-.29-.85-.63,0-1-.58-.49-.25-1.15,1-2l1-1c.21-.11.64.06,1,0,.27-.6.6-.58,1,0Z"/><path class="cls-76" d="M234.94,187.93v1l-1,1c-.32.07-.7-.09-1,0l-2,1c-.51.89-1.3.63-2,0-3.93.6-2.11-1.47,1-2,.48-.06,1,.07,1.5,0l.5-1c.33-.01.67.02,1,0,.65-.04,1.52.15,2,0Z"/><path class="cls-93" d="M32.99,198.92l-1-.5c-.03-.83.05-1.68,0-2.5-.88-.47-.68-1.25,0-2-.03-.36.09-.78,0-1-.79-.41-.71-1.52,0-2,.56-1.18-.06-14.98,0-17.99h1c0,8.64-.22,17.36,0,25.99Z"/><path class="cls-159" d="M36.99,138.95c1.22.37,1.55,1.37,1,3,1.14.34,2.14,1.01,3,2,1.19-1.18,2.19-1.52,3-1,.9.18.86.52,0,1,1.2-.3,1.72-.03,1,1-.13.06-1.87,1.93-2,2l-4,2c-1.55.19-3.36-.06-5,0-1.92-2.09,2.63-2.93,4-1l1-1c.55-.4.57-.74,0-1-.99,1.58-3.92,1.48-5,0-.75.83-2.13.65-3,0-.93-.73-.93-1.39,0-2-2.51-3.12.45-5.13,4-6,1.22-1.52,2.49-.96,2,1Z"/><path class="cls-117" d="M51.99,138.95c-.11.31.13.75,0,1-.31.45-.64.43-1,0-.61-.3-.6-.63,0-1-1.63-.76-.58-1.57,1-2-.85-.32-.85-.65,0-1,.28-.87.62-.86,1,0,.37,1.34-.58,1.86-1,3Z"/><path class="cls-23" d="M50.99,139.95c-.67,1.95-2.9,4.18-5,5-.29.12-.72-.12-1,0-.96.12-.85-.34-1-1,2.29-1.54,4.25-3.42,5.87-5.65l1.13.65v1Z"/><path class="cls-239" d="M56.99,117.96c-1.72,2-1.72,2.66,0,2,.86,1.01.77,2.94,0,4,.69.9.69,2.23,0,4-1.21,1.69-1.84,5.34-3,7.5-.22.42-.52.62-1,.5-.18-1.17-.51-2.17-1-3-.62-.27-.6-.61,0-1-1.85-1.7-1.32-2.37,1-3,.91-1.47.94-4.64-1-5-.33.88-.67.88-1,0-3.91-.71-.59-1.6-.21-.82.28.57-5.3,3.86-5.79-.18l-3-2c-.87-.28-.86-.62,0-1,.23-2,1.23-1.91,2,0,.96-.86,2.82-.59,4,0,1.29-1.46,2.55-2.82,4-1,1.23-4.12,4.01-5.36,5-1Z"/><path class="cls-200" d="M80.98,118.96c-.33-.03-.67.02-1,0v-1c.18.13,1.17-.15,1,1Z"/><path class="cls-200" d="M82.98,119.96c-.66-.15-1.12-.04-1-1,.66.15,1.12.04,1,1Z"/><path class="cls-200" d="M84.98,120.96l-1-1c1.37.54.93.97,1,1Z"/><path class="cls-243" d="M70.98,97.97c.06.28,0,.67,0,1l-1-.5c-.06-.5.06-1.01,0-1.5.95-.11.86.32,1,1Z"/><path class="cls-243" d="M69.98,100.97h-1c.07-.44-.11-.82.5-1,.64.2.41.62.5,1Z"/><path class="cls-285" d="M77.98,81.98c-.04.35.08.72,0,1-.3.53-.64.51-1,0,.04-.49-.05-1,0-1.5l1-.5c-.04.33.04.67,0,1Z"/><path class="cls-296" d="M72.98,93.97c.52-1.88.83-1.68,1-2v1.5l-1,.5Z"/><path class="cls-285" d="M78.98,79.98h-1c.32-1.11.37-.73,1-1-.03.33.04.67,0,1Z"/><path class="cls-285" d="M76.98,84.98h-1c.28-1.33.76-.83,1-1-.04.33.04.67,0,1Z"/><path class="cls-296" d="M71.98,95.97c.03-.29.06-.72,0-1h1c-.14.68-.05,1.11-1,1Z"/><path class="cls-145" d="M56.99,115.96l1,1c.02.33-.02.67,0,1,.09,1.28.07,2.71,0,4-.04.66.02,1.34,0,2h-1c0-1.32.09-2.69,0-4-1.72,0-1.49-1.34,0-2-.25-.97-.84-1.36-1.5-2-1.15,1.09-1.99,2.32-3.5,3-2.1.14-2.06-1.5,0-2-.79-1.2-1.12-2.2-1-3,.69.18,1.7-.12,2.5,0,.88,1.06,2.33,1.26,3.5,2Z"/><path class="cls-162" d="M21.99,92.97h-1v-1c.75.09,1.1.11,1,1Z"/><path class="cls-168" d="M33.99,201.92h-1c-.05-.32.02-.67,0-1,.96-.12.85.34,1,1Z"/><path class="cls-168" d="M35.99,202.92c-.1.66-.24,1.08-1,1-.99.13-.83-.39-1-1,.92.11.88-.28,1-1,.93-.11.87.29,1,1Z"/><path class="cls-173" d="M111.97,71.98c-.07.32.07.68,0,1-1.18,1.52-1.51,2.85-1,4,1.35.59,2.68,1.34,4,2v2c-1.95.67-2.74-.72-3.5-1-.5-.19-1.13.14-1.5,0-.12-.05.42-.59-2-1-.75-.39-.62-1.47,0-2l1-2c-.86-.33-.66-1.48,0-2l2-3c-.86-.27-.84-.6,0-1,3.24-3.43,3.21.02,1,3Z"/><path class="cls-120" d="M104.97,66.98c2.45-6.32,8.1,1.97,2,4l-1,2c.85.33.85.66,0,1l-1,2h-3c-.02-.66.04-1.34,0-2l2-4c-.85-.31-.84-.64,0-1l1-1c-.89-.2-.85-.53,0-1Z"/><path class="cls-89" d="M113.97,66.98c.09.35-.13.83,0,1,.65.29.64.63,0,1-.15.25.15.78,0,1l-2,2c.31-1.45.91-2.56,1-4l-2,1c-2.72-2.9,1.01-2.51,3-2Z"/><path class="cls-89" d="M110.97,76.98c-.24-.11-.83.18-1-.5v-1l2-2.5-1,4Z"/><path class="cls-144" d="M124.97,81.98s-.73.2-1-.5c0-.5,0-1,0-1.5l1,.5v1.5Z"/><path class="cls-118" d="M126.97,76.98h-1c.06-.04-.29-.37,1-1v1Z"/><path class="cls-249" d="M204.95,201.92c.87.28.86.62,0,1-.18.87-.52.84-1,0-.56.66-1.45.75-2,0l-1,1c-.18.89-.52.86-1,0-.75.85-2.12.64-3,0l-1,1c-.96.74-2,.75-3,0-2.64.75-5.34.74-8,0-.33,0-.67,0-1,0-.64-.3-.63-.63,0-1,.32-.04.67.01,1,0,1.43-.81,3.56-.77,5,0,.31-.82,1.44-.68,2,0l1-1c.33,0,.67,0,1,0,.4.48.73.48,1,0,1.72-.27,3.39-.6,5-1,.33-.02.67.03,1,0,1-.78,2.66-1.05,4-1,.87.28.86.62,0,1Z"/><path class="cls-266" d="M199.95,201.92l-.5,1c-1.5.03-3.01-.04-4.5,0v-1c1.65-.04,3.35.09,5,0Z"/><path class="cls-218" d="M189.95,202.92c.87.28.86.62,0,1-1.66.05-3.34-.07-5,0v-1c1.66.02,3.34,0,5,0Z"/><path class="cls-142" d="M191.95,202.92c.64.3.63.63,0,1-.6.1-1.34-.02-2,0v-1c.66,0,1.34,0,2,0Z"/><path class="cls-266" d="M191.95,203.92v-1c.33,0,.67,0,1,0,.11.91-.28.88-1,1Z"/><path class="cls-142" d="M193.95,202.92c.33,0,.67,0,1,0l-.5,1-.5-1Z"/><path class="cls-218" d="M192.95,204.92c.87.28.86.62,0,1-.19.89-.52.85-1,0-.66,0-1.34,0-2,0-1.04,1.01-2.1,1.12-3,0-.33,0-.67-.01-1,0h-1v-1c2.66.01,5.34.03,8,0Z"/><path class="cls-156" d="M183.96,204.92c-.33,0-.67,0-1,0-.1-.88.25-.91,1-1v1Z"/><path class="cls-282" d="M202.95,209.92v1c-.33-.01-.67.02-1,0-.82-.05-1.67.03-2.5,0l-.5-1h4Z"/><path class="cls-46" d="M150.96,202.92c-.68-.89-.13-1.25,1-1l-1,1Z"/><path class="cls-184" d="M158.96,206.92h-1v-1c.27.12.7-.11,1,0v1Z"/><path class="cls-283" d="M210.95,207.92c.23-.57.57-.53,1,0,.49.03,1-.04,1.5,0l.5,1c-.33.04-.68-.05-1,0-.49.08-1.07-.16-1.5,0-.68.19-.38.73-.5,1-.66.03-1.35-.06-2,0,.1-.87-.24-.92-1-1-.87-.28-.86-.62,0-1,.98-.05,2.01-.03,3,0Z"/><path class="cls-282" d="M204.95,210.92c-.33,0-.67,0-1,0l.5-1,.5,1Z"/><path class="cls-240" d="M151.96,201.92l-1,1-1-1,1-1c.04.05.88.89,1,1Z"/><path class="cls-76" d="M218.95,190.93c1.24,1.69-2.48,3.56-2.31,3.37.83-.93,3.41-3.05,4.31-2.37.87.28.86.62,0,1,.88,3.08-4.69,8.43-6,4l-2,2c-.58,1.24-1.25,1.58-2,1l-1,1c-.2.89-.54.86-1,0l-1,1c-.31.81-.65.81-1,0-.26.8-1.48.72-2,0v-1c.27-.54.6-.51,1,0,1.31-.92,2.64-1.92,4-3,.26-.14.76.15,1,0l2-2c1.14-.87,1.52-1.59,2-2,1.21-1.03,2.64-2.15,4-3Z"/><path class="cls-266" d="M205.95,199.92c.87.28.86.62,0,1-.27.11-.68-.1-1,0-1.63.51-1.82.82-4,1l.5-1c1.39-.03,3.27-.54,4.5-1Z"/><path class="cls-249" d="M205.95,200.92v-1c1.27-.48,2.78-1.33,4-2-.37,1.62-2.51,2.4-4,3Z"/><path class="cls-249" d="M210.95,197.92c.12-.07.94-1.19,2-2l-2,2Z"/><path class="cls-11" d="M212.95,162.94c-.11.24.18.83-.5,1-2.87-.14-8.19,3-10,3-.25,0-.69-1.36-2-1-7.65,2.11-17.77-.76-28.99,0l-3.5-2c.19-.89.52-.85,1,0,1.04-.85,4-2.08,4,0,9.59.21,19.26.21,28.99,0,.46-2.65,1.16-2.56,2,0,1.74-3.7,6.69-3.46,9-1Z"/><path class="cls-290" d="M202.95,159.94c.17-.1.36-1.68,2.5-1,.4.13.61.89,1,1,1.04.29,2.62-1.74,4.5-1l-.5,2c1.5.02,2.98-2.3,3.5,0,.87.28.86.62,0,1-1.08.33-.72.34-1,1-1.44.15-3.14-.23-4.5,0-.99.17-1.95.91-4.5,1-1.19-.48-1.52-1.82-1-4Z"/><path class="cls-149" d="M177.96,158.94c1.83.74.24,2.31-1,3-.3,1.14-1.11.79-2,0-1.89.71-3.88,1.38-6,2-.33-.01-.67.01-1,0s-.68.04-1,0c-.28.53-.61.51-1,0-.87-.28-.86-.62,0-1-1-1.47.29-2.99,2-2,.36-.98,1.36-1.32,3-1-.01-.97,2.29-.79,3,0,.9.63,1.08.65,2,0-.8-.29-.79-.62,0-1,.31-.64.65-.63,1,0,.21-.71.55-.67,1,0Z"/><path class="cls-201" d="M220.95,161.94c.33-.05.67.05,1,0v1c1.04,2.92-6.35,4.84-8,3-.84.22-2.42-.27-3,0l.5-1c3.92-.29,5.84-2.44,9.5-3Z"/><path class="cls-59" d="M162.96,160.94c2.48.27,3.48.94,3,2-.92.73-2.18.76-3,0-.33,0-.67.02-1,0l-2-1c.13-.56.7-1.6,1-2,.26-.48.6-.45,1,0,1.76-1.32,2.31-.78,1,1Z"/><path class="cls-236" d="M215.95,160.94l-.5,1c-.52.13-1.11-.12-1.5,0v-1c2.36-1.7,1.86-.05,2,0Z"/><path class="cls-254" d="M161.96,162.94c-.82-.04-1.67.03-2.5,0l-.5-1c.33.01.67-.03,1,0,.49.04,1-.04,1.5,0l.5,1Z"/><path class="cls-254" d="M165.96,162.94v1c-.51-.23-1.74.15-2.5,0l-.5-1c.99-.03,2.01.02,3,0Z"/><path class="cls-11" d="M165.96,163.94c.33.03.67-.04,1,0l-.5,1c-.66-.17-.45-.98-.5-1Z"/><path class="cls-8" d="M165.96,157.94c-.75,1.69-1.56,1.83-2,0l-1,1c-.28.81-.61.8-1,0l-1,1c-.65-.06-1.34.03-2,0-1.42.06-1.02-1.24,0-2,.25-.88.58-.86,1,0l2-1c.33,0,.68.04,1,0l2-1c.27-.14.76.14,1,0,3.16-.93,3.41,1.29,0,2Z"/><path class="cls-272" d="M159.96,155.94c-.03.33.02.67,0,1,.87.28.86.62,0,1-.33.04-.67-.03-1,0-.28.87-.62.86-1,0-1.37.07-.91-.97-1-2,.33-.02.67,0,1,0,.25-.83,1.46-.7,2,0Z"/><path class="cls-5" d="M158.96,159.94c-.66-.03-1.34.02-2,0l1-2h1v2Z"/><path class="cls-150" d="M188.95,153.94c-1.43.55-1.43.88,0,1,.21-.68.55-.64,1,0,1.39,1.87.79,2.44-1,1l-2,2c-.33.86-.67.86-1,0l-2-1c-.64-.13-1.08-.24-1-1-.87-.28-.86-.62,0-1-1.53-.7-.86-1.37,2-2,1.67-.13,2.46.14,4-1v2Z"/><path class="cls-292" d="M194.95,152.95c.87.6,1.13.64,2,0,.66.01,1.34-.03,2,0,1.3.54.26,2.3-1,2-.66,1.47-2.54,1.87-3,0-.66.74-1.37.72-2,0-.56,1.92-1.44,1.92-2,0-.87-.28-.86-.62,0-1,2.55-.18,1.87-.98,2-1,.27-.54.61-.51,1,0,.32-.04.67.01,1,0Z"/><path class="cls-153" d="M180.96,152.95c1.7.45,2.7.79,1,2-.05,1.57-1.58,1.47-3,1-1.23.75-1.74.07-2-1-.63-.14-1.06-.25-1-1-.87-.28-.86-.62,0-1,1.65-.08,3.34.05,5,0Z"/><path class="cls-255" d="M201.95,154.94c.65.13,1.08.24,1,1v1c-.99-.03-2.01.02-3,0-1.92,6.29-10.48-1.36-1-1-.09-1.33.24-1.66,1-1,.48-.14,1.35,0,2,0Z"/><path class="cls-216" d="M184.96,152.95l-2,2c-.33.87-.66.87-1,0l-1-2c1.32-.04,2.69.1,4,0Z"/><path class="cls-12" d="M198.95,152.95c.66.03,1.34-.01,2,0l-1,2c-.07.02.35.4-1,1-1.22.22-1.66.14-1-1l1-2Z"/><polygon class="cls-298" points="207.95 152.95 207.95 153.94 204.95 154.94 205.95 152.95 207.95 152.95"/><path class="cls-12" d="M203.95,154.94c-.44.86-1.26.43-2,0l2-2c-.05.65.1,1.39,0,2Z"/><path class="cls-231" d="M175.96,152.95c-.26.85-1.31.62-2,0v-1c.51.06,1.09-.16,1.5,0l.5,1Z"/><path class="cls-12" d="M196.95,152.95l-.5,1h-1l-.5-1c.66-.02,1.34-.01,2,0Z"/><path class="cls-238" d="M190.95,153.94v1c-.19.89-.52.85-1,0-.33,0-.67.02-1,0-.87-.28-.86-.62,0-1,.66-.02,1.34.05,2,0Z"/><path class="cls-170" d="M203.95,154.94c-.12.72-.09,1.11-1,1l-1-1h2Z"/><path class="cls-12" d="M193.95,152.95c-.33.04-.68-.06-1,0l.5-1,.5,1Z"/><path class="cls-258" d="M168.96,154.94l3,1c2.01,1.36-.05,2.87-2,2-1.02,1.01-3.41,1.71-4,0l1-1.5-1-.5s-.18-.84.5-1,1.68.03,2.5,0Z"/><path class="cls-50" d="M172.96,153.94l4,1c1.23-.09,1.22,2.62,0,3-.26.68-.6.66-1,0-.9-1-1.73-1.49-3-2-.19.89-.52.86-1,0l-2-1v-1c.88-.15,2.03,0,3,0Z"/><path class="cls-20" d="M175.96,152.95v1c-.27.83-2.25.75-3,0-.06-.99.3-.85,1-1,.56-.12,1.34.03,2,0Z"/><path class="cls-258" d="M159.96,154.94c-.08.26.03.65,0,1h-2v-1c.65-.05,1.39.1,2,0Z"/><path class="cls-258" d="M164.96,155.94c-.12.06.42.69-2,1l.5-1h1.5Z"/><path class="cls-258" d="M161.96,156.94l-.5,1c-.5.07-1.02-.06-1.5,0v-1h2Z"/><path class="cls-20" d="M169.96,154.94c-.33.64-.67.64-1,0l1-1v1Z"/><path class="cls-131" d="M203.95,163.94c-.66.02-1.39-.1-2,0-2.68.37-5.35.37-8,0-1.72-.68-.16-2.31,1-3,.72-.77,2.32-.83,3,0,2.49-2.6,4.78,1,4.5,1-.13,0-1.76-1.78-.5-2,.17-.16.74.15,1,0l1,.5c-.32.95.32,1.39,1,2l-1,1.5Z"/><path class="cls-290" d="M201.95,159.94l.5,2c-1.1-1.49-2.9-1.49-4,0-.63.05-.45-.98-.5-1-.87-.28-.86-.62,0-1-.25-1.04,1-1.02,2-1l2,1Z"/><path class="cls-245" d="M212.95,153.94c.64.29.63.63,0,1-.55.13-1.35-.07-2,0l1-1c.33-.03.67.04,1,0Z"/><path class="cls-14" d="M192.95,154.94c.87.62,1.14.64,2,0,.98.03,2.04-.12,3,0,.75.09,1.1.11,1,1-1.1.49-1.7,1.32-3,1v1l3,1,1-2v2c-.88-.07-.99.9-2,1-2.07.34-4.17.78-6.31,1.32l-.69-1.32-2-1c-1.96-.61-2.11-2.61,0-3,.66-.16,1.12-.03,1-1,.33,0,.67,0,1,0,.66.02,1.34-.01,2,0Z"/><path class="cls-14" d="M190.95,159.94c2.51.8-.07,2.85-2,1-.87-.28-.86-.62,0-1,.66-.75,1.38-.74,2,0Z"/><path class="cls-194" d="M212.95,154.94v-1c.32-.04.68-.01,1,0,.06,1.01-.32.84-1,1Z"/><path class="cls-246" d="M229.94,166.94c.28-.87.62-.86,1,0,.29-.77.62-.75,1,0-.14.24.13.72,0,1l-1,1c1.99,3.06.26,11.81-4,12.99.87.28.86.62,0,1-2,2-2.42,1.4-3-1,.66-2.37,1.34-4.63,2-7,.42-1.51.89-4.76,1-5,.42-.89.78-.44,1-3h2Z"/><path class="cls-6" d="M230.94,165.94c.84.29.82.62,0,1h-1v-1.5l1-.5v1Z"/><path class="cls-213" d="M231.94,166.94h-1v-1c.51-.13,1.72-.76,2-1-.24.28-.74,1.54-1,2Z"/><path class="cls-166" d="M22.99,143.95c.29-.71.63-.7,1,0,.9.18.87.52,0,1,.33.49.67.49,1,0,.29-.73.62-.72,1,0,1.44,1.77,1.82,1.84,3.5.66l.5,1.34,4-1c1.61-.04,3.52.22,5,0,.87.28.86.62,0,1l-1,1c-1.09.18-2.36-.12-3.5,0l-.5,1c-1.65.06-3.35.03-5,0l-2-1c-.5.91-1.31.66-2,0l-1-1c-.31.65-.65.65-1,0l-2-1c-.27.6-.6.58-1,0-.66-.29-.64-.63,0-1-.7-1.88.4-1.9,2-1,.28-.66.61-.64,1,0Z"/><path class="cls-79" d="M22.99,146.95c-.27.61-.6.59-1,0-.35-.04-.73.08-1,0-.64-.3-.63-.63,0-1,.49.08,1.07-.16,1.5,0l.5,1Z"/><path class="cls-219" d="M26.99,147.95c.87.28.86.62,0,1-.66-.03-1.44.12-2,0-.64-.3-.63-.63,0-1,.66.05,1.34-.05,2,0Z"/><path class="cls-79" d="M28.99,148.95c-.66-.01-1.34.03-2,0v-1c.49.04,1-.04,1.5,0l.5,1Z"/><path class="cls-229" d="M20,145.95c-.33-.02-.67.01-1,0v-1c.18-.9.52-.87,1,0v1Z"/><path class="cls-219" d="M23.99,147.95c-.34-.03-.71.07-1,0v-1c.35.04.73-.08,1,0,.64.3.63.63,0,1Z"/><path class="cls-275" d="M25.99,202.92c-1.02.82-1.44.3-1-1,.81-.05,1.04.19,1,1Z"/><path class="cls-154" d="M25.99,202.92c-.18,3.17-4.17-.82-1-1l1,1Z"/><path class="cls-15" d="M35.99,204.92c-.32-.08-.7.09-1,0v-1l1-1c.11.59-.05,1.34,0,2Z"/><path class="cls-174" d="M9,131.95c.8.29.79.62,0,1-.28.87-.62.86-1,0-.05-.32.02-.67,0-1s.01-.67,0-1c1.88-1.35,2.43-.78,1,1Z"/><path class="cls-24" d="M16,142.95c-1.86-.76-3.53-2.09-5-4-.13-.25.12-.7,0-1-.33-.83-.75-1.19-1-2,.43-4.57,7.61,5.06,7.55,5.68l-1.55,1.32Z"/><path class="cls-278" d="M31.99,111.96c2.15.97,1.81,1.64-1,2-.81,2.28-7.28,2.05-9,1-.4-.48-.73-.48-1,0-1.02.7-2.44,1.33-3,0l-2-1v-1c1.67-.25,4.01.36,5.5,0,.68-.17.45-.98.5-1,.88-.42,7.99.04,10,0Z"/><path class="cls-121" d="M36.99,111.96c2.69.58,5.36.92,8,1,.32-.05.67.01,1,0,2.27.45,3.27,1.11,3,2-.33.66-.67.66-1,0-.84.84-2.02.6-3,0-.27.42-.56.76-.88.8-2.86.38-11.7.67-13.12-1.8l1-2c1.66-.03,3.34,0,5,0Z"/><path class="cls-225" d="M43.99,111.96c.33.01.67-.02,1,0v1c-1.08.16-1.3,1.35-2.5,1s-2.68-1.74-5-1l-.5-1c2.32,0,4.68-.08,7,0Z"/><path class="cls-102" d="M30.99,113.96c3.45,0,6.05.59,8.5,1,1.58.26,3.76-.05,5.5,0,.63.14,1.06.25,1,1,1.71.58.71,2.23-1,1-1.58,1.79-6,1.21-8,0-1.31.98-4.6,1.84-6,0-2.36.63-4.71.72-7,0,.12,2.22-2.44,1.99-3,0h-2c-.31,1.97-1.49,1.93-2,0-2.68-.34-2.51-1.15,0-2,.33-.04.67.03,1,0,.98-.08,2.01.05,3,0,.25-.47.59-.43,1,0,3.28-.18,6.49-1,9-1Z"/><path class="cls-107" d="M17,114.96v2c2.44,2.29-.97,2.37-3,1-.66-.31-2.5.24-3.5,0-.61-.18-.43-.56-.5-1,.59-1.61,1.62-2.04,3-1,.99-.38,2.88-.85,4-1Z"/><path class="cls-230" d="M19,116.96h2c.55-.26,2.11.16,3,0,2.58-.06,4.91.27,7,1,1.97-.16,3.97-.16,6,0,1.85-1.37,2.4-.84,1,1,.17.53.26.97.08,1.15-.61.6-14.27.51-16.08-.15-.43,1.51-4.22,1.43-5,0l-.5-1c-2.17.68-2.36-.93-2.5-1,2.32.76,2.83-.94,3-1,.29-.11,1.71-.11,2,0Z"/><path class="cls-19" d="M17,119.96c1.25.01,4.4-.28,5,0,1.37.36,2.7.69,4,1,.49,1.63-4.02,2.17-5,1-.74,2.65-5.05,2.6-7,1-.37-.48-.7-1.15-1-2-.87-.28-.86-.62,0-1,1.24-.14,2.7-.02,4,0Z"/><path class="cls-232" d="M11,127.96c.68.21.64.55,0,1,.88.46.67,1.24,0,2,.64.33.64.67,0,1-.25.47-.59.43-1,0-.26.91-.6.89-1,0-.06-.03.15-1.18-1-1v-3h3Z"/><path class="cls-116" d="M218.95,206.92h-1l-1-1c.14-.71.49-.65,1,0,.75.1,1.1.11,1,1Z"/><path class="cls-217" d="M229.94,188.93l-2,1,1,1c.87.28.86.62,0,1-.64.08-1.34-.03-2,0h-1c-.86-.61-1.13-.65-2,0-.81.75-2.08.71-3,0-1.82-.85.7-2.51,2-3l.5,1c2.44.06,4.12-.7,6.5-1Z"/><path class="cls-217" d="M232.94,189.93c-.13.04.53.8-2,1,.12-.27-.18-.81.5-1h1.5Z"/><path class="cls-291" d="M236.94,190.93c.17-.59,0-1.13,1-1l-1,1Z"/><path class="cls-171" d="M239.94,164.94c1.09.06,1.62,1.09,2,2,.11.27-.1.68,0,1h-1c-.32-.06-.69.08-1,0-.33.87-.67.87-1,0-.1-.07-.7-1.72-1.5-2h-1.5s-.18-.84.5-1c.98-.23,2.39.15,3.5,0Z"/><path class="cls-246" d="M236.94,179.93c-1.26,1.1-2.11,2.2-3,3-.18.16-.71-.14-1,0-1.24.6-.78.73-1,1-.32.05-.67-.04-1,0-.3.6-.63.58-1,0-.87-.25-.85-.58,0-1l4-3c.85-.38,1.33-.98,2-1l1,1Z"/><path class="cls-205" d="M229.94,184.93c-.79-.25-.77-.59,0-1h1c.18,1.13-.95.95-1,1Z"/><path class="cls-7" d="M227.94,184.93c.28-.54.61-.52,1,0,.33-.87.67-.87,1,0-.33.34-.7.69-1,1-.3.62-.63.61-1,0-.66.05-1.4-.1-2,0-.35.06-.77-.1-1,0-2.77-2.02,1.13-3.7,3-1Z"/><path class="cls-6" d="M232.94,167.94c.06-.04-.01-.33,1-1l-1,1Z"/><path class="cls-117" d="M49.99,130.96c.73-3.21,3.2-2.04,2,1l-1,1c.73.51.75,1.5,0,2l-1,1c.87.28.86.62,0,1,.7,1.23.21,1.68-1,1-1.39,1.98-3.05,3.32-5,4-.42-.06-1.42.6-3,2-1.31.41-2.1,1.54-4,1-.4-.33,1.66-1.67,1-3-.61-2.93,5.3-6.75,8-7-1.91-2.43,1.25-7.82,4-4Z"/><path class="cls-263" d="M51.99,136.95c-.12.58-.67,1.52-1,2-.21.3-2.68,1.03-2,2.5l-5,2.5c-.07-.31.05-.68,0-1l5-5c.06-.04-.38-.57,1-1,1-1.36,1.78-1.93,2,0Z"/><path class="cls-190" d="M43.99,141.95c.58.3.56.63,0,1-1.34.77-1.98.68-3,1l2.5-3,.5,1Z"/><path class="cls-280" d="M38.99,145.95c1.11-.17,1.43-1.46,3-1v.5c-1.03,1.77-2.24,1.16-3,1.5v-1Z"/><path class="cls-196" d="M50.99,123.96c1.12,1.52.53,5.61-1,7-.66-.05-1.34.02-2,0,.19,1.5-1.02,2.82-2,4-2.46,2.07-3.28,2.49-3-1-5.06-.42-7.16-2.96-5-8-1.28,1.02-1.77.48-1-1-2.18-1.13-.99-1.54,1-2,.64-1.59,2.37-1.59,3,0,.72-.14,1.39-.14,2,0-.04-1.48,1.09-1.03,2,0,2.27-.17,4.05.51,6-1v2Z"/><path class="cls-100" d="M41.99,120.96c1.46.15,2.57.16,3,2-.65.05-1.68-.15-2,0-.67-.17-1.34-.17-2,0-.91-.15-2.02.03-3,0-1.98,1.05-4.31,1.05-7,0-.18.89-.52.86-1,0-2.83,1.22-6.57,1.82-9,1-2.66-.32-2.54-1.24,0-2,2.84-.12,2.85.01,5-1,4.55-.69,11.33-1.41,16,0Z"/><path class="cls-202" d="M44.99,116.96h3c.31-.66.65-.65,1,0,2.76.43,1.24,2.75-1,2-1.25.34-2.58.68-4,1-.66-.01-1.34.04-2,0-1.02.86-4.14.74-4-1,.1-.89-.25-.91-1-1-.87-.28-.86-.62,0-1,2.79-1.31,4.7-1.69,8,0Z"/><path class="cls-54" d="M52.99,128.96c-.09,2.99-.97,2.82-1,3,.07-1.35-.95-.93-2-1l-1-1.5,1-1.5h-2l3-4c.33-.08.83.13,1,0,1.92.47,1.94,3.49,1,5Z"/><path class="cls-172" d="M37.99,118.96c1.53,1.13,2.31.88,4,1v1c-1.95-.21-15.27-.34-16,0-1.1-.15-2.53.24-3.5,0-.68-.17-.45-.98-.5-1,3.87-.44,8.81.61,12.5,0,1.21-.2,3.08.07,3.5-1Z"/><path class="cls-114" d="M50.99,116.96c.28-.87.62-.86,1,0-.17.34.09,1.37,0,2-.75.34-3.04.89-4,1-.87-.28-.86-.62,0-1l1-.5v-1.5c.44-.89,1.23-.67,2,0Z"/><path class="cls-137" d="M56.99,117.96c.14.53-.04,1.34,0,2l-1,.5v2.5h-2l1-5h2Z"/><path class="cls-196" d="M52.99,128.96c.06-2.04.21-3.3-1-5,.04-.03-.12-1.05.5-1,2.05,1.35,1.5,3.22,1.5,5.5l-1,.5Z"/><path class="cls-263" d="M52.99,135.95h-1c-.9-.58-.67-2.1,0-3l2-1-1,4Z"/><path class="cls-172" d="M47.99,118.96v1c-1.23.14-2.71.03-4,0l.5-1h3.5Z"/><path class="cls-23" d="M51.99,135.95c-.04.34.06.7,0,1-.64.08-1.51-.15-2,0v-1l1-1c.08-.64-.13-1.43,0-2,.3-.64.63-.63,1,0-.07.98.11,2.02,0,3Z"/><path class="cls-193" d="M94.98,61.99c.08.16,1.77.76,1,3h.5c.97-.97,1.92-1.68,2.5-3,1.23-.97,3.7-.79,4,1,.88.28.87.62,0,1,.5,1.73-.47,3.51-2,5l-1,1c-.01.33.02.67,0,1l-1,2c-.19.64.08,1-1,1-.8-.67-.76-2.34,0-3-.68-.21-.65-.55,0-1l1-1c-.82-.29-.69-1.44,0-2,.12-.66-.22-.66-1,0,.66.26.64.6,0,1-.05,1.55-.77,1.9-2,1-.27.13-.73-.13-1,0-3.06.39-3.4-2.48-1-4-.87-.28-.86-.62,0-1-1.99-1.44-1.14-2.41,1-2Z"/><path class="cls-164" d="M97.98,73.98c-1,0-.84-.26-1-1-.12-.58.06-1.35,0-2,.28-.87.62-.86,1,0v3Z"/><path class="cls-164" d="M99.98,72.98h-1c.12-.4-.13-.98,0-1.5l1-.5c-.04.63-.12,1.46,0,2Z"/><path class="cls-52" d="M51.99,116.96h-1l-3-1c-.87-.28-.86-.62,0-1,.33-.01.67.04,1,0-.67-1.16-.23-1.13,1-1,.33.07.7-.08,1,0l2,2.5c.04.63-.98.45-1,.5Z"/><path class="cls-225" d="M49.99,113.96c.1.88-.25.91-1,1l-.5-1h-2l-.5-1c2.82-.12,3.77.95,4,1Z"/><path class="cls-89" d="M108.97,72.98c.05-.34-.07-.7,0-1l1-1c.11-.15-.15-1.17,1-1-.13.4.19,1.02,0,1.5-.32.81-1.59,1.17-2,1.5Z"/><path class="cls-89" d="M107.97,76.98c0-.66-.05-1.35,0-2h1c-.05.49.05,1,0,1.5l-1,.5Z"/><path class="cls-164" d="M100.98,69.98h-1c-.18-1.15.87-.9,1-1,.07.32-.09.7,0,1Z"/><path class="cls-94" d="M94.98,61.99l-1,2c-.65.15-1.31.48-2,1,.86.26.84.6,0,1l-1,1c.86.33.86.67,0,1-4.63,3.95-1.47-2.39,0-5,.11-.29-.1-.7,0-1,1.58-2.56,2.88-3.25,4,0Z"/><path class="cls-260" d="M94.98,61.99l-2.5-1-1.5,1c.3-.88,1.86-4,2.5-4,2.11,1.02,1.09,3.13,1.5,4Z"/><path class="cls-260" d="M90.98,62.99c-.13.37.17.98,0,1.5-.29.89-2.8,3.55-2,4.5l2-1c1.52.29,1.19.95-1,2-.61.11-1.45-.14-2,0,.07-.64-.15-1.49,0-2,.44-1.53,1.96-2.96,2-4.5l1-.5Z"/><path class="cls-266" d="M199.95,203.92l-.5,1c-.83.02-1.68-.04-2.5,0-.64-.3-.63-.63,0-1,.97-.12,2.02.05,3,0Z"/><path class="cls-266" d="M206.95,201.92c.87.28.86.62,0,1-.56-.13-1.35.05-2,0v-1h2Z"/><path class="cls-266" d="M203.95,202.92l-.5,1c-.5.05-1.01-.04-1.5,0-.64-.3-.63-.63,0-1,.6-.1,1.34.03,2,0Z"/><path class="cls-142" d="M201.95,203.92c-.33.03-.67-.01-1,0-.11-.91.28-.88,1-1v1Z"/><path class="cls-142" d="M196.95,204.92c-.33.02-.67,0-1,0-.1-.89.25-.91,1-1v1Z"/><path class="cls-7" d="M221.95,185.93c.16-.16-.14-.71,0-1,.56-1.2.62-.73,1-1,2.3.25.8,3.49-1,2Z"/><path class="cls-7" d="M223.95,182.93c-.3.54-.64.52-1,0l1-1c.86.27.85.6,0,1Z"/><path class="cls-246" d="M222.95,183.93c.07-.33-.08-.7,0-1h1c1.34,1.53.7,2.15-1,1Z"/><path class="cls-108" d="M226.95,182.93c.81-.69,2.08-.64,3,0-.03.33.04.67,0,1s.03.67,0,1c-.33.03-.67-.04-1,0-.4-.48-.73-.48-1,0-.81.1-1.68-.07-2.5,0-.68.17-.46.97-.5,1l-1,1c-.29.43-.71,1.59-1,2-.6.86-1.39,2.29-2,3-.69.8-4.24,3.61-5,3,.74-1.58,2.11-2.47,3-4,.14-.25-.14-.74,0-1,1.36-.82,2.36-2.15,3-4,1.46.07.81-1.1,1-2,.26-.18.65.33,1-1,.08-.31-.09-.69,0-1,1.56-.45,1.87.79,3,1Z"/><path class="cls-76" d="M221.95,185.93l-1,4h-2c.56-1.03,1.08-1.77,2-2.5v-1.5c.33.01.67,0,1,0Z"/><path class="cls-249" d="M213.95,198.92h-1c.08-1.18,1.11-1.55,2-2-.07.75-.63,1.16-1,2Z"/><path class="cls-249" d="M210.95,200.92c-.27-.06-.72-.03-1,0-.17-1.15.83-.88,1-1v1Z"/><path class="cls-249" d="M207.95,201.92l1-1c-.07.02.38.67-1,1Z"/><path class="cls-165" d="M174.96,162.94c2.53-.64,4.87-.64,7,0,.1-.92.44-.87,1,0,.25-.87.58-.85,1,0,3.16.06,6.25-.05,9.27-.32l.73,1.32c2.66.02,5.34-.01,8,0-9.46,1.48-19.11.84-28.99,0-1.39-2.15-.04-2.28,2-1Z"/><path class="cls-158" d="M174.96,161.94c.87.28.86.62,0,1-.49,0-.99,0-1.5,0l-.5,1c-1.31-.11-2.68.05-4,0v-2c1.94,1.39,1.9.64,3.5-1,.76,1.23,1.41.88,2.5,1Z"/><path class="cls-14" d="M186.95,157.94c.71-.3.94.23,1,1,.87.28.86.62,0,1-.21.68-.55.64-1,0-1.56.25-2.89.58-4,1,.86-.76,2.13-.74,3,0,.87.28.86.62,0,1,.45.66-.22.99-2,1-.33-.04-.67.04-1,0-.85-.28-.75-1.52,0-2l-1,2c-2.31.08-4.25,1-4.5,1-.15,0-.54-.97-2.5-1v-1c.63.07,1.38.08,2,0,.32-1.45,2.06-2.56,3-1,.4.48.73.48,1,0-1.02-1.24.31-2.24,4-3,.26-.68.6-.66,1,0,.32.06.68-.06,1,0Z"/><path class="cls-62" d="M184.96,157.94l-.5,1c-2.54-.89-2.91,1.62-3.5,2-.29.57-.62.55-1,0-1.31.66-1.51.81-3,1v-1.5l1-1.5c1.08-1.33,3.48-1.33,5-1,.61-.77,1.32-.75,2,0Z"/><path class="cls-147" d="M181.96,156.94h1c.87.28.86.62,0,1-1.01.16-1.28.97-1.5,1-1.1.14-2.35-.06-3.5,0-.32.02-.68.03-1,0-.87-.28-.86-.62,0-1-.05-1.51.61-1.84,2-1,.31-1.08,2.62-1.32,3,0Z"/><path class="cls-192" d="M167.96,159.94c.87.28.86.62,0,1-1.62.24-.45,1.99-2,2l-2.5-1c-.68-.16-.39-.76-.5-1,.76-1.81,3.79-3.11,5-1Z"/><path class="cls-33" d="M172.96,158.94c1.38-1.04,2.32-.66,2,1-.29.66-.63.65-1,0-.25-.12-2.75-.12-3,0-1.22.86-1.69.38-1-1,1.19-1.19,2.51-2.01,3,0Z"/><path class="cls-273" d="M169.96,158.94l1,1c-.05.02.18.84-.5,1-.72.17-1.7-.12-2.5,0v-1c-2.2-1.15.25-1.91,2-1Z"/><path class="cls-207" d="M176.96,157.94v1c-.35-.03-.73.08-1,0-1,.51-1.38.07-1-1,.25-.89.58-.86,1,0,.33-.04.68.05,1,0Z"/><path class="cls-251" d="M175.96,159.94l-.5,1c-1.4.58-1.4-.95-1.5-1h1c.29-.8.62-.79,1,0Z"/><path class="cls-301" d="M174.96,157.94c.27.63-.11.68,1,1v1h-1l-.5-1c-.5-.04-1.01.03-1.5,0-1.64-2.29-.02-2.26,2-1Z"/><path class="cls-112" d="M165.96,157.94c1.29-.07,2.86.22,4,0,.87.28.86.62,0,1-2.47.27-1.88.94-2,1-.79.37-2.67-.65-3.5,1h-1.5c-.27-.62.13-.69-1-1-.6-.3-.58-.63,0-1,.3-.09.69.09,1,0l1-1c.65-.08,1.34.04,2,0Z"/><path class="cls-258" d="M161.96,159.94c-.27-.08-.65.03-1,0,.17-.22-.33-.6,1-1v1Z"/><path class="cls-258" d="M162.96,158.94c-.1-.88.25-.91,1-1,.13.99-.39.83-1,1Z"/><path class="cls-233" d="M181.96,154.94c.29-.11.72.12,1,0v1c.56.46.22.79-1,1-.89.03-2.55-.21-3,0-2.15.78-1.98-2.17,0-1,1.2-.52,2.22-.7,3-1Z"/><path class="cls-62" d="M188.95,155.94l-1,1.5,1,1.5c-.29.66-.63.64-1,0-1.39-.41-.93-.99-1-1v-2c.65-.06,1.45.13,2,0Z"/><path class="cls-146" d="M185.95,157.94c-.31-.05-.68,0-1,0-.66,0-1.39-.1-2,0v-1c.18-.55.53-.49,1,0,.49.04,1-.05,1.5,0l.5,1Z"/><path class="cls-139" d="M188.95,153.94v1c-.66-.04-1.34.02-2,0-.29-1.43.57-1.02,2-1Z"/><path class="cls-14" d="M183.96,156.94c-.33-.03-.67,0-1,0s-.67-.01-1,0l1-1,1,1Z"/><path class="cls-169" d="M194.95,154.94l-.5,1h-1l-.5-1c.66.01,1.34-.02,2,0Z"/><path class="cls-181" d="M178.96,155.94c-.27.12-.81-.18-1,.5l1,.5c-.12.06.4.62-2,1v-3c.49.03,1-.04,1.5,0l.5,1Z"/><path class="cls-123" d="M175.96,153.94l1,1c-1.15-.08-2.34.05-3.5,0l-.5-1h3Z"/><path class="cls-20" d="M174.96,157.94c-.49.06-1-.06-1.5,0l-.5,1c-.95-.06-2.07-.1-3,0v-1c.88-.17,2.02-1.1,2-2,.33.02.67-.01,1,0,2.02.45,2.69,1.11,2,2Z"/><path class="cls-27" d="M171.96,155.94c-.82-.05-1.67.04-2.5,0l-.5-1c.32-.01.68-.04,1,0,.51.06,1.07-.15,1.5,0,.55.2.49.53.5,1Z"/><path class="cls-65" d="M172.96,155.94c.99.03,2.01-.02,3,0v2c-.33.04-.67-.04-1,0-.7-1.61-1.91-.52-2-2Z"/><path class="cls-277" d="M194.95,160.94v1.5l-1,1.5c-3.95-.03-6.61-.6-10-1l2-1c3.28-.6,6.28-.93,9-1Z"/><path class="cls-82" d="M197.95,159.94v1c-.37-.16-2.29-.09-3,0-1.8.23-2.24.4-3.5,2-1.93-2.45-3.54.68-5.5-1v-1c.21-.68.55-.64,1,0,.62-.72,1.34-.73,2,0,.5-.06,1.08.16,1.5,0,.54-.2.5-.53.5-1,2.29-.08,4.79.22,7,0Z"/><path class="cls-82" d="M190.95,159.94c-.66.02-1.34-.01-2,0-.21.69-.55.65-1,0v-1c.29.09.67-.07,1,0,.47.1,1.05-.17,1.5,0,.54.2.5.53.5,1Z"/><path class="cls-7" d="M229.94,181.93c.87.28.86.62,0,1-.7.15-2.28.14-3,0v-1c.97-.11,2.14.19,3,0Z"/><path class="cls-6" d="M230.94,168.94c-.18-1.15.97-.94,1-1-.12.1-.96.94-1,1Z"/><path class="cls-79" d="M12,131.95l1,1c.07.33-.08.7,0,1l4,5,4,4c.22-.65.56-.61,1,0,.66.29.64.63,0,1-.91.27-1.12.79-2,1-.31.08-.68-.06-1,0l-1-1c-.3-.12-.75.13-1,0-.46-.34-.46-.67,0-1q.78-.52,0,0c-.31.47-.64.46-1,0,.23-1.86.04-2.9-1.5-4l-1,1-1.5-1.5.5-1.5-2.5-1c-.09-.3.07-.68,0-1,.49-.33.49-.67,0-1-.29.65-.63.64-1,0-.04-.33.03-.67,0-1v-1c.18.09.66,0,1,0,.4.47.73.47,1,0,.02-.33-.03-.67,0-1,.28-.87.62-.86,1,0,.67.22.64.56,0,1Z"/><path class="cls-79" d="M25.99,144.95c-1.14-1.14,1.79-2.56,3-1,.36-2.7,1.19-2.55,2,0l1,.5-1,1.5-1,1c-1.89-.07-3.37.29-4-2Z"/><path class="cls-214" d="M33.99,145.95l-.5,1c-1.17-.03-2.34.04-3.5,0-.1-.89.25-.91,1-1,.96-.12,2.02.02,3,0Z"/><path class="cls-99" d="M28.99,143.95c-.44.07-.82-.11-1,.5l1,1.5h-2v-2l-1,1h-1c-.3.58-.63.57-1,0-.08-.31.06-.68,0-1-.6-.79,0-1.02,1-1l1.11-.46c-.99-5,7.63-2.28,2.89,1.46Z"/><path class="cls-229" d="M22.99,143.95c-.32.07-.7-.09-1,0v-1c.2-.87.54-.83,1,0,.87.28.86.62,0,1Z"/><path class="cls-79" d="M23.99,144.95h1l-.5,1c-.64-.2-.41-.62-.5-1Z"/><path class="cls-79" d="M24.99,147.95c-.33-.03-.67.02-1,0v-1c.58.18,1.13-.01,1,1Z"/><path class="cls-214" d="M37.99,147.95l1-1c-.06.03.36.78-1,1Z"/><path class="cls-24" d="M19,144.95l-1-1c.45.18,1.15-.08,1,1Z"/><path class="cls-174" d="M10,134.95c-.31.07-.68-.05-1,0-.03-.33.04-.67,0-1h1c.58.3.57.63,0,1Z"/><path class="cls-229" d="M17,143.95c-1.23-.67-.94-.96-1-1,.14.17.84-.16,1,0,.13.13-.08.67,0,1Z"/><path class="cls-228" d="M21.99,114.96c-.33.02-.67-.02-1,0l.5-1,.5,1Z"/><path class="cls-225" d="M47.99,114.96v1c-.18.55-.53.49-1,0-.26.87-.6.85-1,0l-1-1c.99.03,2.01.04,3,0Z"/><path class="cls-107" d="M30.99,116.96c.87.28.86.62,0,1-1.52-.28-3.66-.27-4.5,1l-2.5-2,1.5-1c1.69,1.16,3.17.47,5.5,1Z"/><path class="cls-107" d="M20.99,116.96c-.1.05.17,1.41-1.5,1-.68-.17-.45-.98-.5-1l.5-1h1l.5,1Z"/><path class="cls-172" d="M47.99,116.96c-.15.04.07,1.64-2.5,1-.68-.17-.45-.97-.5-1,1.15.18.94-.97,1-1,.21-.1.64.05,1,0,.65.12,1.08.24,1,1Z"/><path class="cls-172" d="M36.99,116.96v1c-1.44-.18-2.69-.23-3.5,1-1.16.37-1.4-.8-2.5-1v-1c1.57.36,4.42.74,6,0Z"/><path class="cls-227" d="M36.99,124.96c1.31.56.93.93,1,1-1.4,3.33-.79,5.74,1.83,7.23l-.83.76c2.26.15,2.21,1.45,0,2-1.55,2.91-7.3.3-9.07-.98-4.08,3.14-7.05,4.13-8.92,2.98-.28.87-.62.86-1,0-.54-1.19-2.81-3.8-4-6l-1-1c-.07-.29.03-.66,0-1-.78-.58-.65-1.34,0-2,.32-2.65,1.24-2.54,2,0,1.75,1.44,4.34-1.65,5.19-3.6l7.8-1.4c.33,0,.67,0,1,0,2.89.2,4.89.87,6,2Z"/><path class="cls-259" d="M20.99,121.96v2c2.3,2.16-1.72,5.19-4,4h-2c-.28.87-.62.86-1,0-.03-.33.02-.67,0-1-.79-.76-.75-2.22,0-3-.68-.21-.64-.55,0-1,2.14-1.55,4.42-.89,7-1Z"/><path class="cls-174" d="M12,129.96v1h-1c.06-.65-.02-1.34,0-2h1c.02.33-.02.67,0,1Z"/><path class="cls-24" d="M17,138.95c-1.59-1.73-3.19-2.09-4-5,2.01.72,2.51,3.32,4,5Z"/><path class="cls-229" d="M20.99,138.95v1c-.1.91-.45.86-1,0v-1c-.08-.33.11-.75,0-1h1c.87.28.86.62,0,1Z"/><path class="cls-174" d="M13,132.95c-.96.12-.85-.34-1-1h1c.04.34-.06.69,0,1Z"/><path class="cls-229" d="M19,139.95c1.99.3,2.65.96,2,2,.63.3.61.63,0,1-1.91-.56-2.84-2.74-4-4,.09.11,1.82.84,2,1Z"/><path class="cls-28" d="M14,122.96c.02.33-.01.67,0,1h-1c-.02-.33,0-.67,0-1-.02-.66,0-1.34,0-2l1,.5c.04.5-.03,1.01,0,1.5Z"/><path class="cls-174" d="M10,131.95c.33,0,.67,0,1,0l-.5,1-.5-1Z"/><path class="cls-261" d="M225.95,191.93c-.66.02-1.34-.03-2,0l.5-1h1l.5,1Z"/><path class="cls-205" d="M229.94,182.93v-1c1.07-.24,2.79-1.46,4-2-.21,1.36-2.8,2.75-4,3Z"/><path class="cls-246" d="M228.94,184.93c-.33.04-.67-.04-1,0l.5-1,.5,1Z"/><path class="cls-44" d="M42.99,133.95c.14.11,1.27.28,1.5,1h1.5c-1.69,2.03-1.94,1.64-3,3.5-1.26,2.22-4.35.73-5,3.5-.02-.05-.84.18-1-.5-.18-.76.23-1.99,0-2.5-.53-1.85.02-2.9,2-3,.11-.59-.05-1.35,0-2,.24-1.31,1.58-1.31,4,0Z"/><path class="cls-196" d="M51.99,132.95h-1c.15-.67.04-1.12,1-1-.04.32.02.67,0,1Z"/><path class="cls-196" d="M49.99,135.95l1-1c-.1.75-.11,1.1-1,1Z"/><path class="cls-23" d="M43.99,142.95v-1c.22.23,4.16-3.35,5-4-1.1,1.94-3.07,3.89-5,5Z"/><path class="cls-300" d="M37.99,125.96c.05.05,1.04-.13,1,.5l-1,1.5h2l-1,1.5,1,3.5,1.5-1c.77.25,1.4,1.92,1.5,2l-.5,1c-.75-1.16-2.19-1.26-3.5-1-.75.15-1.03.43-1.5,1l.5-1.5c-1.22-2.46-2.75-.21-3-.5l-1-2.5,4-4.5Z"/><path class="cls-300" d="M37.99,122.96l-1,2c-1.46-.62-3.73-1.11-5.5-1l-.5-1c2.31-.04,4.69-.08,7,0Z"/><path class="cls-239" d="M42.99,122.96c-.05.02.13,1.04-.5,1-.48-.56-.73-.88-1.5-1l.5-1h1l.5,1Z"/><path class="cls-300" d="M29.99,122.96l-3.5,3-.5-2-1,2-2-1v5l-3.5-1-2,2-1.5-2,1-1,4-4c2.58-1.63,5.86-.93,9-1Z"/><path class="cls-145" d="M50.99,116.96c-.66.03-1.35-.06-2,0-.35.03-.73-.08-1,0l-1-1c.31-.04.68-.01,1,0,.83.03,1.67-.02,2.5,0l.5,1Z"/><path class="cls-260" d="M93.98,63.99v1h-2c.42-.68.67-1.49,1.5-2l.5,1Z"/><path class="cls-164" d="M97.98,66.98l.5-1h1.5l-1,1c-.28.87-.62.86-1,0Z"/><path class="cls-164" d="M97.98,69.98c0-.33-.01-.67,0-1h1c-.12.72-.09,1.11-1,1Z"/><path class="cls-260" d="M90.98,66.98c.54-1.36.97-.94,1-1l-1,1Z"/><path class="cls-246" d="M223.95,186.93c.51-.76.48-.61,1-1-.06.03.16,1.18-1,1Z"/><path class="cls-62" d="M182.96,162.94c-.32-.04-.68-.01-1,0-.02-1.43-.43-2.29,1-2v2Z"/><path class="cls-295" d="M186.95,159.94c.87.28.86.62,0,1-.33.02-.67-.01-1,0-.99.04-2.01-.02-3,0v-1c1.33-.02,2.67.03,4,0Z"/><path class="cls-62" d="M188.95,159.94v1c-.65.08-1.34-.04-2,0v-1c.33,0,.67,0,1,0s.67,0,1,0Z"/><path class="cls-135" d="M179.96,160.94c.27-.14.77.15,1,0l-.5,1-.5-1Z"/><path class="cls-232" d="M10,134.95v-1l1,.5c-.2.64-.62.41-1,.5Z"/><path class="cls-24" d="M17,142.95l.5-1c.84.52.54,1.07-.5,1Z"/><path class="cls-214" d="M23.99,139.95c-1.45-3.99,8.9-6.68,11-2v2c-2.55-.39-2.98,2.01-4,4-.65.05-1.38-.1-2,0v-3l-3.5,3-.5-1v-1c-.9-.28-1.24-1.2-1-2Z"/><path class="cls-300" d="M20.99,137.95h3l-1-2c2.81.09,4.81.51,6.5-2,1.36-.37,2.41,2.38,4,0l-.5,2h6c-.26,1.34-.05,2.58-2,3-.05-.1-1.62-.8-2-1-1-.52-1.72-1.27-3-1l-1,2-.5-3-4,1-2.5,3c-.33.66-.66.65-1,0-.32.85-.65.85-1,0-.59-.13-1-.33-1-1v-1Z"/><path class="cls-227" d="M21.99,139.95c-.33-.04-.67.02-1,0v-1l1,1Z"/><path class="cls-227" d="M24.99,141.95h-1l-1-2c.35.08.83-.13,1,0,.09.07.89,1.56,1,2Z"/></g></svg>