<?xml version="1.0" encoding="UTF-8"?><svg id="_圖層_2" xmlns="http://www.w3.org/2000/svg" viewBox="0 0 183.07 122.15"><defs><style>.cls-1{fill:#66391c;}.cls-2{fill:#84552f;}.cls-3{fill:#683716;}.cls-4{fill:#66391e;}.cls-5{fill:#75492c;}.cls-6{fill:#764729;}.cls-7{fill:#64391f;}.cls-8{fill:#704122;}.cls-9{fill:#663a19;}.cls-10{fill:#6c4025;}.cls-11{fill:#6e4429;}.cls-12{fill:#794527;}.cls-13{fill:#59321b;}.cls-14{fill:#6e3c20;}.cls-15{fill:#764b30;}.cls-16{fill:#623614;}.cls-17{fill:#51270e;}.cls-18{fill:#683b1e;}.cls-19{fill:#814e30;}.cls-20{fill:#5b3116;}.cls-21{fill:#764a29;}.cls-22{fill:#673c23;}.cls-23{fill:#7f5134;}.cls-24{fill:#5c3214;}.cls-25{fill:#6e4024;}.cls-26{fill:#5c3117;}.cls-27{fill:#5f381e;}.cls-28{fill:#623a22;}.cls-29{fill:#815236;}.cls-30{fill:#764d33;}.cls-31{fill:#7f5332;}.cls-32{fill:#61361c;}.cls-33{fill:#5c3015;}.cls-34{fill:#6e3f21;}.cls-35{fill:#764323;}.cls-36{fill:#593018;}.cls-37{fill:#5d3415;}.cls-38{fill:#6b3e22;}.cls-39{fill:#6b3d20;}.cls-40{fill:#694630;}.cls-41{fill:#7f5033;}.cls-42{fill:#885536;}.cls-43{fill:#764d2e;}.cls-44{fill:#55260e;}.cls-45{fill:#673e25;}.cls-46{fill:#6f4424;}.cls-47{fill:#623413;}.cls-48{fill:#6c4c38;}.cls-49{fill:#633110;}.cls-50{fill:#865536;}.cls-51{fill:#653c23;}.cls-52{fill:#683e23;}.cls-53{fill:#865538;}.cls-54{fill:#754226;}.cls-55{fill:#65371a;}.cls-56{fill:#713e20;}.cls-57{fill:#734d36;}.cls-58{fill:#835433;}.cls-59{fill:#79503b;}.cls-60{fill:#7d5231;}.cls-61{fill:#6c3c1f;}.cls-62{fill:#643115;}.cls-63{fill:#7e5033;}.cls-64{fill:#603411;}.cls-65{fill:#895738;}.cls-66{fill:#754729;}.cls-67{fill:#7b4f32;}.cls-68{fill:#5a2e14;}.cls-69{fill:#714629;}.cls-70{fill:#572d13;}.cls-71{fill:#673d21;}.cls-72{fill:#623214;}.cls-73{fill:#633512;}.cls-74{fill:#6b4227;}.cls-75{fill:#7f5539;}.cls-76{fill:#7d5943;}.cls-77{fill:#643419;}.cls-78{fill:#6f4428;}.cls-79{fill:#653819;}.cls-80{fill:#704831;}.cls-81{fill:#835332;}.cls-82{fill:#8f5c39;}.cls-83{fill:#613417;}.cls-84{fill:#6f452d;}.cls-85{fill:#6a4228;}.cls-86{fill:#704024;}.cls-87{fill:#744526;}.cls-88{fill:#895835;}.cls-89{fill:#865636;}.cls-90{fill:#5a321d;}.cls-91{fill:#65391e;}.cls-92{fill:#633519;}.cls-93{fill:#6d3c17;}.cls-94{fill:#663717;}.cls-95{fill:#5e3315;}.cls-96{fill:#875b37;}.cls-97{fill:#623515;}.cls-98{fill:#835434;}.cls-99{fill:#5f3416;}.cls-100{fill:#7f5133;}.cls-101{fill:#7f5030;}.cls-102{fill:#5b3018;}.cls-103{fill:#815233;}.cls-104{fill:#885534;}.cls-105{fill:#673819;}.cls-106{fill:#643b21;}.cls-107{fill:#623821;}.cls-108{fill:#6c3e21;}.cls-109{fill:#845434;}.cls-110{fill:#885633;}.cls-111{fill:#663c21;}.cls-112{fill:#653716;}.cls-113{fill:#815334;}.cls-114{fill:#633513;}.cls-115{fill:#6e401f;}.cls-116{fill:#845634;}.cls-117{fill:#734225;}.cls-118{fill:#66381a;}.cls-119{fill:#613617;}.cls-120{fill:#704224;}.cls-121{fill:#805031;}.cls-122{fill:#855435;}.cls-123{fill:#815133;}.cls-124{fill:#61361b;}.cls-125{fill:#5c2f11;}.cls-126{fill:#835537;}.cls-127{fill:#7e4f32;}.cls-128{fill:#6b3f21;}.cls-129{fill:#673814;}.cls-130{fill:#6e4225;}.cls-131{fill:#754f38;}.cls-132{fill:#714c31;}.cls-133{fill:#6d442b;}.cls-134{fill:#704a32;}.cls-135{fill:#70472f;}.cls-136{fill:#6f462a;}.cls-137{fill:#704730;}.cls-138{fill:#6d3f24;}.cls-139{fill:#5f371f;}.cls-140{fill:#704324;}.cls-141{fill:#62361c;}.cls-142{fill:#562e0f;}.cls-143{fill:#5b341b;}.cls-144{fill:#5f3415;}.cls-145{fill:#613616;}.cls-146{fill:#582c15;}.cls-147{fill:#673718;}.cls-148{fill:#5f3417;}.cls-149{fill:#815335;}.cls-150{fill:#855433;}.cls-151{fill:#714a32;}.cls-152{fill:#5a2e17;}.cls-153{fill:#673c20;}.cls-154{fill:#664229;}.cls-155{fill:#684023;}.cls-156{fill:#7f563a;}.cls-157{fill:#85583c;}.cls-158{fill:#6c4026;}.cls-159{fill:#643213;}.cls-160{fill:#825234;}.cls-161{fill:#6c462d;}.cls-162{fill:#683e24;}.cls-163{fill:#835432;}.cls-164{fill:#6c4126;}.cls-165{fill:#6d4631;}.cls-166{fill:#643817;}.cls-167{fill:#6e3f1e;}.cls-168{fill:#855534;}.cls-169{fill:#582c13;}.cls-170{fill:#774627;}.cls-171{fill:#a4a09f;}.cls-172{fill:#6f4527;}.cls-173{fill:#64351a;}.cls-174{fill:#713f21;}.cls-175{fill:#5d3111;}.cls-176{fill:#5b3518;}.cls-177{fill:#76492b;}.cls-178{fill:#805841;}.cls-179{fill:#69391b;}.cls-180{fill:#6c4427;}.cls-181{fill:#5e3313;}.cls-182{fill:#5e3218;}.cls-183{fill:#633717;}.cls-184{fill:#6b4228;}.cls-185{fill:#693f22;}.cls-186{fill:#704022;}.cls-187{fill:#64391c;}.cls-188{fill:#8e5837;}.cls-189{fill:#7d4929;}.cls-190{fill:#653f28;}.cls-191{fill:#613c22;}.cls-192{fill:#613921;}.cls-193{fill:#835334;}.cls-194{fill:#7b5030;}.cls-195{fill:#512406;}.cls-196{fill:#6e442a;}.cls-197{fill:#794929;}.cls-198{fill:#8b5b3e;}.cls-199{fill:#5b3112;}.cls-200{fill:#7e5133;}.cls-201{fill:#5e2e0e;}.cls-202{fill:#683c20;}.cls-203{fill:#905b3c;}.cls-204{fill:#7b5133;}.cls-205{fill:#522711;}.cls-206{fill:#703e1d;}.cls-207{fill:#7f5031;}.cls-208{fill:#6a3f25;}.cls-209{fill:#693e23;}.cls-210{fill:#825232;}.cls-211{fill:#855635;}.cls-212{fill:#6e3d20;}.cls-213{fill:#5b3118;}.cls-214{fill:#865336;}.cls-215{fill:#4e2710;}.cls-216{fill:#5e3115;}.cls-217{fill:#613512;}.cls-218{fill:#6b3e1b;}.cls-219{fill:#603014;}.cls-220{fill:#532707;}.cls-221{fill:#643716;}.cls-222{fill:#6d432c;}.cls-223{fill:#744c32;}.cls-224{fill:#6d3e23;}.cls-225{fill:#6d4025;}.cls-226{fill:#7f502e;}.cls-227{fill:#764c36;}.cls-228{fill:#935a3c;}.cls-229{fill:#84522d;}.cls-230{fill:#714b34;}.cls-231{fill:#683a1e;}.cls-232{fill:#835335;}.cls-233{fill:#815132;}.cls-234{fill:#825834;}.cls-235{fill:#623313;}.cls-236{fill:#633619;}.cls-237{fill:#5f351c;}.cls-238{fill:#865637;}.cls-239{fill:#66412a;}.cls-240{fill:#63391f;}.cls-241{fill:#60341c;}.cls-242{fill:#764426;}.cls-243{fill:#60351a;}</style></defs><g id="_圖層_1-2"><path class="cls-124" d="M167.05,89.03c.72-.76,1.39-.76,2,0,.49-.5.82-.17,1,1,.1.28-.09.68,0,1,1.19,1.74.19,3.41-3,5-2.36,1.24-4.77,2.07-7,3-2.33,2.35-10.09,5.96-8.95,1.31,2.08,1.01,2.49-.37,2.95-2.31q1.16-.73,0,0c-.32.88-.65.87-1,0-1.5.2-2.17-.47-2-2-1.37,1.24-1.95.65-1-1-2.88-3.2-.25-4,2-1,2.72-1.77,6.04-3.58,9.97-5.44l2.03,1.44,1-1c.19-.88.53-.84,1,0,.29-.87.62-.86,1,0Z"/><path class="cls-162" d="M183.04,69.04c.28,2.73-1.43,5.43-3.5,7-.2.15-.76-.17-1,0-.89.61-1.65,2.41-3,2-.84-.39-1.16-1.57-1.5-2l-1-1c-.12-.25.09-.67,0-1-1.41-1.07-2.39-2.42,0-2,.3-.64.63-.63,1,0,.3.54.63,1.21,1,2,.48-1.17,1.15-2.17,2-3-1.3-.75-2.65-.62-4,0-.97,1.76-1.64,2.09-2,1-.91-.18-.88-.52,0-1-1.4-2.22-.25-3.32,2-4,.35-.17,5.71-.17,6.5,0,.49.11,2.62,2,3.5,2Z"/><path class="cls-34" d="M153.05,80.04c.68,1.22.2,1.66-1,1-.66,2.5-1.11,2.41-2,0l-1,1c-.04,2.87-1.03,3-3,1l-1,1c-.26.9-.6.88-1,0l-1,1c2.42-.96,7.21,3.59,6,6,1.2-.69,2.67-.68,2,1,2.19.44,2.52,1.1,1,2-.64-.32-1.82-1.22-2-1v2c-1.47,1.44-4.19-1.22-4-3l-4-2c-.97-.05-1.3-.72-1-2l-1,1c.92-.22,1.59.45,2,2,.47.26.44.6,0,1-.28.87-.62.86-1,0-.3.62-.63.6-1,0h-1c-2.5.98-2.82-.13-1-2,.03-2.25,1.36-4.25,4-6-.54-.3-.52-.64,0-1,.27-.13.73.13,1,0,2.16-1.57,4.5-2.9,7-4,1.9-.69,4.68-1.15,3,1Z"/><path class="cls-192" d="M24.08,12.07c.87.28.86.62,0,1,.87.28.86.62,0,1-.16,1.77-.83,2.11-2,1-2.09,2.31-11.63,9.4-13,5-.33.6-.67.6-1,0-1.85,1.37-2.4.84-1-1,5.3-2.59,10.79-6.29,17-7Z"/><path class="cls-111" d="M134.05,104.03c1.78,1.93,1.66,2.72-1,3,.05,1.02.05,2.02,0,3h1c.33-.91.67-.91,1,0,.8.6,1.18.74,2,0,.11-2.05,1.62-2.03,2,0l1-1c.11-.79.45-1.13,1-1,.25-.67.59-.64,1,0,.69.85.97,2.23,0,3l-1,1c-.18.89-.52.86-1,0-1.34.29-2.67.63-4,1-.3,1.92-1.09,1.82-2,0l-2-1c-.28.87-.61.85-1,0-2.2-1.44-2.86-2.77-2-4-.87-.33-.87-.67,0-1,.67-.95,1.33-1.28,2-1v-1c-.15-1.22,1.65-1.65,2-2,1.07-.58,1.42-.13,1,1Z"/><path class="cls-239" d="M157.05,77.04c1.83-2.11,2.55-1.73,2,1l4,4c.33-.86.66-.86,1,0,.27.2,1.6,2.61,2,3,1.12,1.47.71,3.23-1,2-.97.8-1.6.05-2-1-1.77-.17-2.11-.83-1-2l-1-1c-1.51.71-1.64.39-1-1l-1-1c-1.78.95-3.78.62-6-1l-.5-1c-.75.16-2.01-.23-2.5,0,.12-.05.06-.45,2-1,1.86-1.3,3.52-1.63,5-1Z"/><path class="cls-209" d="M7.08,19.07c-.1.89.25.91,1,1,.64.29.63.63,0,1-.26.89-.6.87-1,0l-1,1c.93.83.6,1.17-1,1,.68.29.66.63,0,1-.31.83-.64.83-1,0-.15,2.36-.82,3.7-2,4,1.19,1.62,1.52,2.95,1,4-1.72-.16-1.65-1.71-2-2.5-.19-.43-.92-.64-1-1-.57-2.49,1.93-5.51,1-7.5h1.5c.99-1.5,3.52-1.52,4.5-2Z"/><path class="cls-140" d="M144.05,92.03c2.29,1.16,5.55,3.49,6,6,.84.29.82.62,0,1,.69,1.24.2,1.69-1,1-2.81-2.35-4.16-3.04-7-6v-1c-.68-.26-.65-.6,0-1-.07-.29.03-.66,0-1,.97-.82,2.16-.4,2,1Z"/><path class="cls-190" d="M140.05,104.03c.15.22-.13.71,0,1l1,1c.1.29-.07.69,0,1,.58.3.57.63,0,1-.06.04.06.31-1,1-1.68-.12-2.02-.79-1-2l-2-2c-.86-.26-.84-.59,0-1-3.45-.45-4.12-1.45-2-3,.06-.04-.14-1.18,1-1l4,4Z"/><path class="cls-202" d="M32.08,8.07l2,1c1.94,1.47-1.28,2.81-2,1,.82,2.27.16,2.93-2,2,0,2.79-2.26,1.98-1.35.08.12-.25,3.73,3.08-.65,1.92-1.47,1.36-2.09.72-1-1-.87-.28-.86-.62,0-1,.07-.32-.09-.7,0-1l1-1c.7-.56,1.96-1.69,2.5-2,.44-.25,1.19.17,1.5,0Z"/><path class="cls-28" d="M39.08,6.07c.21-.68.55-.64,1,0,2.38,3.13-1.72,4.41-4,2l-1,1c-.25.87-.58.85-1,0-.96-.15-2.07.42-2-1l4-2c.22-.09.64.03,1,0,.58-.78,1.34-.67,2,0Z"/><path class="cls-240" d="M154.05,98.03l1,2-4,2c3.54.61,6.02-1.75,9-3-1.06,2.26-6.31,4.6-8.5,4-.89-.24-2.06-2.63-2.5-3-.12-.95.33-.85,1-1,.3-.83.63-.82,1,0,.96-.16,1.63-.49,2-1,.14-.17.76.15,1,0Z"/><path class="cls-130" d="M169.05,88.03c-.31.61-.98.94-2,1-.28-.1-.67.09-1,0-1.4-.42-2.2-.89-1-2l1-.5v-1.5c1.19,1.15,1.9,1.43,3,3Z"/><path class="cls-84" d="M167.05,96.03c.34-1.46,1.61-2.3,3-2v-3c.02.05.82-.19,1,.5.74,2.9-1.89,3.39-4,4.5Z"/><path class="cls-170" d="M27.08,12.07v1c-.41,2.09-1.93,1.56-3,0v-1c.97-.11,2.02.07,3,0Z"/><path class="cls-76" d="M142.05,111.02c.26-.63-.15-2.09,0-3,.14.2,1.6.16,1,2.5-.17.68-.96.46-1,.5Z"/><path class="cls-22" d="M36.08,6.07c-.05.02.21.7-.5,1-1.09.46-2.28,1.04-3.5,1,.15-.08,1.69-1.59,2.5-2h1.5Z"/><path class="cls-22" d="M39.08,5.07c.87.28.86.62,0,1-.66,0-1.35-.06-2,0l.5-1c.53-.15,1.17.14,1.5,0Z"/><path class="cls-28" d="M41.08,4.07c2.55.38-.55,2.37-2,1,.12-.05-.45-.67,2-1Z"/><path class="cls-159" d="M142.05,93.03c.65.29.64.63,0,1-.3-.31-.67-.66-1-1-.62-.3-.61-.63,0-1h1c.08.34-.1.73,0,1Z"/><path class="cls-89" d="M43.08,3.07c1.71.93-.86,2.24-2,1,.07-.27,0-.66,0-1h2Z"/><path class="cls-84" d="M170.05,90.03l-1-1c-.87-.28-.86-.62,0-1,.03.05.76-.19,1,.5.18.52-.14,1.14,0,1.5Z"/><path class="cls-136" d="M142.05,112.02h-1c-.18-1.16.97-.93,1-1-.05.06-.05.94,0,1Z"/><path class="cls-170" d="M27.08,11.07c.39-1.34.82-.85,1-1l-1,1Z"/><path class="cls-11" d="M173.04,72.04s-1.04-.13-1,.5c.6.42.8.8,1,1.5l-2-1c-.9-.24-.87-.58,0-1l2-1c.57.28.54.61,0,1Z"/><path class="cls-11" d="M174.04,76.04c-.04-.06-.39.31-1-1l1,1Z"/><path class="cls-74" d="M141.05,93.03c-.05-.05-1.18.13-1-1h1v1Z"/><path class="cls-85" d="M140.05,104.03l-4-4c1.26.05,3.27,2.88,4,4Z"/><path class="cls-85" d="M135.05,101.03l-1,2h2.5c.65.15.41.64.5,1-.28.87-.62.86-1,0-.26.46-.59.43-1,0-.29.87-.62.86-1,0-.07-.02.16-1.18-1-1,.74-.74,1-1.21,2-2Z"/><path class="cls-190" d="M131.05,106.03c-.85.36-1.25.93-2,1,.35-.76.76-1.23,1-2h1c.58.3.57.63,0,1Z"/><path class="cls-136" d="M141.05,106.03l-1-1c.03.06.54-.38,1,1Z"/><path class="cls-136" d="M142.05,108.03c-.33.08-.82-.13-1,0v-1c1.15-.17.87.82,1,1Z"/><path class="cls-182" d="M95.06,104.03l1.28.97c1.84-1.5,3.41-1.82,4.72-.97l.42.95c-3.4,1.69-6.88,3.37-10.42,5.05-.26.14-.73-.13-1,0l-1,1c-.28.12-.7-.11-1,0-3.2,1.93-6.53,3.59-10,5-3.47,1.32-7.7,2.45-11,4-2.27,1.22-4.19,1.4-2-1-1.84-3.19.86-2.78,3-2l.02-2.27c6.16-1.65,11.48-4.23,15.98-7.73.27-.72.6-.7,1,0,.31-.88.65-.88,1,0,3.09-2.88,6.09-3.88,9-3Z"/><path class="cls-143" d="M37.08,81.04l1,1c2.77.54,6.34,3.21,4,6,1.98,1.02,2.65,2.02,2,3l2,3c2.53-1.53,3.62-.47,2,2,2.02-.48,2.73,1.97,1,3l1,1c.89.25.87.59,0,1l1,1c1.92.12,3.79,1.26,2,3l2,2c.87.33.87.67,0,1l1,1c.87.33.87.67,0,1l3,3c.89.27.88.6,0,1,3.44-.88,4.89,1.8,6,5,.05.02-.16.83.5,1h1.5c-.1.04.01.33-1.5,1-.42.19-.62.89-1,1-2.18.66-3.5-1.32-4.5-3l-1-1c-.08-.34.1-.73,0-1l-4-5c-3.03-4.63-6.03-9.29-9-13.99l-4-6-5-7c-.15-.25.15-.77,0-1l-1-1c-.5-.3-.49-.64,0-1l-1-1c-.45-.31-.44-.64,0-1,.24-.87.58-.84,1,0,1.46-1.58,2.16-.92,1,1Z"/><path class="cls-137" d="M116.06,91.03c-.06,1.99.08,4.01,0,6h-1c-1.28-.95-.98-5.74,0-7,1.35.19.94.97,1,1Z"/><path class="cls-154" d="M140.05,112.02l-.5,1c-1.17.01-2.34-.02-3.5,0l.5-1c1.17-.03,2.34.04,3.5,0Z"/><path class="cls-190" d="M131.05,112.02c-1.34-.41-2.01-1.64-3-2.5v-1c.17-.68.98-.45,1-.5v1.5l2,2.5Z"/><path class="cls-106" d="M55.07,112.02c-.31-.32-.66-.65-1-1-.49-.51-1.92-1.88-2-2-1.74.89-2.59-2.6-2-4-1.61-2.55-2.72-4.64-4-7,1.96.86,7.66,11.7,9,13.99Z"/><path class="cls-154" d="M134.05,113.02c-.49-.03-1,.04-1.5,0l-.5-1c.42.11.98-.12,1.5,0l.5,1Z"/><path class="cls-187" d="M59.07,117.02c-1.74-.02-1.75-2.14-2-2.5-.61-.86-1.3-1.31-2-2.5,1.84,1.9,2.86,2.03,4,5Z"/><path class="cls-187" d="M60.07,119.02c-.96.12-.85-.33-1-1,1.14-.16.85.74,1,1Z"/><path class="cls-213" d="M4.09,30.06l2.59.71c1.76,1.51,6.58,9.34,5.41,11.29l1,1c.87.33.87.67,0,1l1,1c2.05-.7,3.13,2.93,2,4,.51,2.18.45,3.06-1.01,1.69l-5.99-8.68c-2.24-2.94-3.27-4.79-5-8l-1-1c-.13-.26.12-.71,0-1-.52-1.2-1.06-2.54-2-3.5-.04-.63.98-.45,1-.5,1.07-2.65,3.89.14,2,2Z"/><path class="cls-209" d="M4.09,34.06c-.03-.06-.36.3-1-1l1,1Z"/><path class="cls-202" d="M16.08,49.05l5-2c1.48-1.32,2.04-.74,1,1v1c1.5.67,1.88,2.64,0,3q-.78.52,0,0c1.18-2.72,4.5,2.68,3,4,3.03,3.89,1.25,5.6-3,1l-1.56.05c-1.9-3.69-2.71-4.37-2.44-2.05l-3-3c-1.71-3.35-3.78-6.52-6-9v-1c.91,1.2,2.92,2.94,4,4.5.5.72.88,2.69,2.5,3.5l.5-1Z"/><path class="cls-91" d="M133.05,41.06c-.73,3.27,10.69,8.49,12.58,8.42,2.64-3.2,5.11-6,7.41-8.42-1.39-1.83-.8-2.36,1-1,2.68,2.42,4.01,3.09,4,2,.02.05.74-.2,1,.5.31.84-.52,2.2,1,3l-4,5.5-1.55-.55c-1.68,3.06-3.5,4.58-5.45,4.55-1.58,2.05-7.44-.14-8.01-2.45-3.21-.64-6.74-1.34-10.58-2.09l-.41-1.46c-1.37-.08-1.37.26,0,1,1.95.38,2.68.9,1,2,.32-.61.65-.61,1,0,.24-2.18,5.65-.84,3,1l1,1c1.97-1.15,2.97-1.15,3,0,3.23.35,6.56,1.01,10,2,1.91-1.73,3.58-2.73,5-3-1.16,3.39-4.07,5.45-6.5,8-.4-.61-.83-.78-1.5-1l-2-1c-.3-.1-.72.11-1,0-.53-.72-1.15-.84-2-1-.41-.62-1.08-.96-2-1-.26-.11-.67.07-1,0l-1-1c-.33-.04-.67.05-1,0-2.13-.52-4.23-1.62-6-3-1.25,1.41-7.12-1.68-5-4,.24-.11.83.18,1-.5-.13-3.82,3.71-6.02,6-8.5.89-.67,1.25-.14,1,1Z"/><path class="cls-218" d="M98.06,64.05c1,2.21,1.25,4.06,3,6l3,3c.14.25-.14.75,0,1,1.58,1.44,2.91,3.11,4,5l1,1c.14.28-.15.79,0,1l2,2c.16.22-.16.78,0,1l3,3c.14.22-.13.71,0,1l1,1c.06.29-.03.66,0,1,0,1.57-.66,1.91-2,1-1.82,2.07-2.53,1.68-2-1v-1c-1.21-.45-1.21-1.12,0-2l-2-2c-.87-.33-.87-.67,0-1l-2-2c-1.89.87-2.51-.58-1-2-1.39,1.24-1.91.67-1-1-2.63-.79-6.26-1.9-4-5-3.32-1.66-5.64-.92-8.78.9l-1.22-.9c-1.61.26-2.61-.07-3-1l.9-1.91c3.2-.8,5.57-2.49,7.1-5.08-1.98-.16-1.03-4.18,1-2,.3-.63.63-.62,1,0Z"/><path class="cls-38" d="M89.06,52.05l2,2c.09.3-.09.69,0,1l1,1,1,1c.08.28-.05.66,0,1v1c.46.26.42.6,0,1-1.86,1.36-2.39.81-1-1l-1-1c-2.36,2.31-4.69-1.11-2-3-.62-1.75-1.47-1.99-2.54-.74l-.46-2.26c-.64-.26-.62-.59,0-1-.89-.18-.86-.52,0-1-.84-1.21-.34-1.51,1-1,2.18-1.62,3.15-.89,1.62,1.28l.38,1.72Z"/><path class="cls-230" d="M108.06,42.06c-1.32.54-2.94.98-4.85,1.33-.09,2.14-.47,3.69-1.15,4.66h-1c0-.33,0-.67,0-1v-5c-.97-1.28-.46-1.58,1-1,1.79.16,3.69-.11,5.5,0l.5,1Z"/><path class="cls-74" d="M141.05,84.04c.8,1.37.05,2.37-2.24,3l-.76,3c-.17-.18-1.71-.7-2-1.5l1-1.5c.32-1.02,1.66-2.42,2.5-3,.4-.27,1.17.17,1.5,0Z"/><path class="cls-151" d="M150.05,79.04c-.05.02.21.7-.5,1-2.11.9-4.3,1.96-6.5,3,0-.7.97-1.7,1.5-2,1.66-.95,3.98-1.39,5.5-2Z"/><path class="cls-46" d="M97.06,62.05c.08.74.63,1.18,1,2h-1c-1.11.81-1.61.75-1.32-.41l-2.68-4.59c-.03-.33.05-.68,0-1l4,4Z"/><path class="cls-91" d="M136.05,56.05c-.63-.09-1.38.1-2,0l-1-1c-.32-.07-.68.06-1,0l-2-2,6,3Z"/><path class="cls-132" d="M157.05,77.04c-2.44-.45-2.94.87-3.5,1s-1.1-.11-1.5,0v-1h1.5c.77-1.16,1.64-1.13,3-1l.5,1Z"/><path class="cls-225" d="M106.06,75.04c.71.87,1.42,2.81,2,4-1.77-1.43-2.79-2.92-4-5,.46.12,1.93.91,2,1Z"/><path class="cls-126" d="M91.06,53.05c.14.18-.11.66,0,1-1.21.05-1.54-1.35-2-2,.05.1,1.59.89,2,1Z"/><path class="cls-126" d="M92.06,56.05c-.05-.05-.61.35-1-1,1.14-.18.93.93,1,1Z"/><path class="cls-46" d="M93.06,57.05c-1.14.18-.93-.93-1-1,.05.05.61-.35,1,1Z"/><path class="cls-91" d="M138.05,57.05h-1v-1c.75.1,1.1.11,1,1Z"/><path class="cls-233" d="M109.06,80.04c-1.11.16-.83-.64-1-1,.27.22.4-.24,1,1Z"/><path class="cls-233" d="M111.06,83.04l-2-2c.12.16,1.18.88,2,2Z"/><path class="cls-101" d="M142.05,84.04c-.28.87-.62.86-1,0,.06-.03-.33-.38,1-1v1Z"/><path class="cls-233" d="M114.06,87.03l-3-3c.38.54,1.92,1.33,3,3Z"/><path class="cls-137" d="M115.06,89.03l-1-1c.03.06.7-.37,1,1Z"/><path class="cls-241" d="M149.05,55.05c1.35-1.6,4.1-3.54,4-6h2c-1.09-2.78,5.47-5.61,4-2.5-.43.92-2.65,2.14-3,3-.21.5.15,1.16,0,1.5-.63,1.43-.99,1.31-2,2-2.07,1.41-1.62,2.05-2,2.5-.76.89-1.71,1.63-2.5,2.5l-.5-2c-.86-.27-.84-.61,0-1Z"/><path class="cls-184" d="M140.05,33.06c.32-.02.69-.04,1,0l2,1c1.07.57,2.81,1.91,3,2l-2,1c-1.46,2.17-2.35,1.59-2-1l-2.1,1.01c-.76,2.41-2.39,3.07-4.9,1.99l-1-1c.72-.7,3.7-4.85,4-5,.53-.82,1.25-.58,2,0Z"/><path class="cls-135" d="M156.05,40.06c-.07,1.93-.74,1.93-2,0-.67.15-1.12.05-1,1-1.48,1.99-3.48,1.33-6-2-2.16,1.44-3.46.55-2-2-.45-.52-.11-.86,1-1,1.66.77,5.17,2.02,7.5,3,.57.24,1.43-.24,2,0,.71.29.45.98.5,1Z"/><path class="cls-32" d="M144.05,21.06c-1.59,1.16-1.82,1.7-3,3-.94,1.03-1.94,1.69-3,2l-1-1-.89-1.09c2.28-1.49,4.24-3.46,5.89-5.91-.87-.28-.86-.62,0-1,.52.68,1.34,1.54,2,2.5v1.5Z"/><path class="cls-152" d="M156.05,40.06l2,1c.08.33-.1.73,0,1v2c-.95-.9-2.88-.88-3-1s-.1-2.05-1-3c.46-.1,1.68-.12,2,0Z"/><path class="cls-59" d="M173.04,67.04c-.12.06.07,1.52-2,1-.03.99.04,2.01,0,3h-1c-.23-1.86-.04-2.9,1.5-4h1.5Z"/><path class="cls-172" d="M146.05,60.05c-.4-.13-1.01.19-1.5,0-.71-.28-.45-.98-.5-1h1.5l.5,1Z"/><path class="cls-120" d="M143.05,59.05c-1.26-.49-1.78-.9-2-1,.32.15.97-.15,1.5,0l.5,1Z"/><path class="cls-91" d="M141.05,58.05c-.94-.41-1.84-.93-2-1h1.5c.66.17.45.98.5,1Z"/><path class="cls-91" d="M158.05,41.06h-1.5c-.67-.17-.45-.98-.5-1,.33.15.99-.2,1.5,0,.65.2.41.63.5,1Z"/><path class="cls-132" d="M163.05,82.04c-1.42-1.18-3.33-2.08-4-4,1.61.98,3.21,2.22,4,4Z"/><path class="cls-61" d="M78.07,38.06l2,2c.14.24-.13.72,0,1l1,1c.11.29-.11.71,0,1-.82,1.3-4.12,4.01-5,2-.87-.28-.86-.62,0-1q1.71-.72,0,0l-1,1c1.2,1.7.63,2.26-1,1,.02,1.54-1.56,1.47-2,0-1.36,1.72-2.03,1.72-2,0-.18-.98-.51-1.64-1-2-1.1-2.68.83-3.89,3-2,.45-1.64,1.79-2.97,4-4-.82-1.52-.87-2.68,1-2,.72,1.1.73,1.55,1,2Z"/><path class="cls-1" d="M66.07,22.06c3.41.8,4.18,3.85,6,7l5,7-1,2-1-1c-2.6.7-2.92-.17-1-2l-1-1c-2.59.66-2.91-.17-1-2l-1-1c-2,2.24-3.62.57-2-2-2.57.82-2.76-.02-1-2,.53-1.21-.29-2.46-2.48-3.75l.48-1.25Z"/><path class="cls-178" d="M90.06,45.05c.88,1.69-.27,3.24-2,2-1.61-.23-3.27-.89-5-2-.72-.29-.71-.62,0-1l3.5-2c1.76,1.08,2.21,1.33,3.5,3Z"/><path class="cls-134" d="M91.06,46.05c1.13,2.51-2.8,4.27-2,6-.16-.23-1.66-.33-1-2.5l-1-.5c-.65-1.09-.37-2.34,1-2l2-2c.22.28-.26.43,1,1Z"/><path class="cls-165" d="M106.06,33.06l-.5,1c-1.5-.04-3.01.07-4.5,0-.33-.01-.67.04-1,0-.87-.28-.86-.62,0-1,1.53-.59,5.14-1.08,6,0Z"/><path class="cls-25" d="M77.07,36.06c-2.32-1.31-3.61-4.59-5-7,2.42,1.25,3.49,4.7,5,7Z"/><path class="cls-89" d="M57.07,6.07v1c.7.33.7.67,0,1-1.43.09-3.2-2.6-3-4,.22-.05.8-.07,1,0l2,2Z"/><path class="cls-128" d="M66.07,22.06c-1,1.01-1.52.67-1.55-.99-2.28-1.35-3.09-3.35-2.45-6,2.21.97,3.59,4.83,4,7Z"/><path class="cls-196" d="M118.06,24.06c-1.6-.53-1.68-1.73-2-2v-1l1-.5c0-.5,0-1,0-1.5,1.33-.58,1.77-1.67,3-2,1.37,1.74.87,2.84-1.5,3.33.32,1.24.15,2.46-.5,3.67Z"/><path class="cls-185" d="M62.07,13.07c.15.57-.17,1.54,0,2-1.17-.36-2.5-1.36-4-3-1.87,1.38-2.44.79-1-1-.35-1.23-.13-1.7,1-1,.33-.8.67-.8,1,0l3,3Z"/><path class="cls-66" d="M59.07,9.07c.16.23-.16.79,0,1-.06-.05-.93-.05-1,0-1.06.36-1.65-1.04-1-2,.07.09,1.56.89,2,1Z"/><path class="cls-222" d="M107.06,24.06c-.77,1.65-3.67-.14-3-2v-1h1l2,3Z"/><path class="cls-227" d="M97.06,27.06c-.13-.28.13-.74,0-1,1.18-.4,1.78-1.35,3-2,2.11.89-1.93,4.41-3,3Z"/><path class="cls-158" d="M80.07,40.06l-2-2c.07.12,1.15.51,2,2Z"/><path class="cls-225" d="M81.07,42.06l-1-1c.03.06.47-.37,1,1Z"/><path class="cls-141" d="M83.07,44.05v1c-.21.73-.55.69-1,0-2.44.55-2.77-.11-1-2,1.01.15,1.13,1.05,2,1Z"/><path class="cls-107" d="M54.07,3.07c.16.21-.16.77,0,1,.69,1.24.21,1.69-1,1-2.86.65-6.84,1.29-10,0l-1,1c-.38,2.61-1.09,2.44-2,0-.33-.02-.67,0-1,0v-1h1.5c.65-.2.41-.63.5-1,2.35-.32,1.82-.89,2-1,1.33-.78,1.94-.69,3-1l2-1c.26-.08.65.02,1,0,1.78-1.32,3.97.35,5,2Z"/><path class="cls-131" d="M54.07,3.07c-1.1-1.46-3.25-2.12-5-2l.5-1c2.07-.44,3.67,1.11,4.5,3Z"/><path class="cls-131" d="M48.07,1.07c-.05.02.21.73-.5,1-.48.18-1.09-.12-1.5,0l.5-1h1.5Z"/><path class="cls-101" d="M152.05,81.04c2.15-1.74,5.06,1.18,6,3,.54-2.24,5.01.97,4,3,1.54-.91,2.75.45,2,2,.64.29.63.63,0,1-1.63.59-3.77,1.05-5.5,2-1.18.65-2.52,2.43-4,3-.89.26-1.6-.55-2.5-1l-1-2c-.27-2.15,2.76-2.51,2.29-1.46-.11.25-2.94.87-4.29.46-1.27-.78-5.95-4.78-6-6l1-1c.28-.13.77.14,1,0l1-1c1.27-.58,2.1-.68,3-1l1-1c.3-.11,1.71-.11,2,0Z"/><path class="cls-229" d="M146.05,92.03c.44.99,2.69,1.99,4,3,.06.04.16.37,1,1,1.69,1.82,1.51,2.52-1,2-2.71-1.15-4-4.19-6-6-.02-1.53,1.01-.97,2,0Z"/><path class="cls-240" d="M158.05,97.03l1-3c1.65.52,1.86-.74,2.5-1,1.66-.67,2.26-1.32,3.5.5l-7,3.5Z"/><path class="cls-150" d="M165.05,87.03c.37.84.93,1.25,1,2-.31-.08-.68.06-1,0-.3.58-.63.57-1,0l-2-2c-.63-1.2-.2-1.67,1-1,1.34-.57,1.57.02,2,1Z"/><path class="cls-197" d="M153.05,98.03c-.14.17.08,1.37,0,2-2.07.52-1.88-.94-2-1q.78-.52,0,0c-.15-.07-.78-.05-1,0v-1l1-.5v-1.5c.62.46,2.06.78,2,2Z"/><path class="cls-68" d="M169.05,88.03v1c-2.36,1.7-1.86.05-2,0v-2l2,1Z"/><polygon class="cls-130" points="168.05 93.03 166.05 93.03 166.05 92.53 168.05 91.03 168.05 93.03"/><path class="cls-146" d="M154.05,98.03c.11-.07-.02-1.54,2-1v1h-2Z"/><path class="cls-130" d="M164.05,90.03v-1h1c.14,1.05-.49.82-1,1Z"/><path class="cls-60" d="M173.04,71.04v-2h4c.02.66-.03,1.34,0,2-.05,1.69-.83,1.43-2,1-.25.91-.59.88-1,0l-1-1Z"/><path class="cls-5" d="M177.04,71.04c.05.99-.03,2.01,0,3-.66-.05-1.4.1-2,0-.77-.42-.74-1.52,0-2,.05-.02-.17-.83.5-1h1.5Z"/><path class="cls-11" d="M175.04,74.04c-.43-.07-.82.12-1-.5-.19-.48.13-1.09,0-1.5.32-.08.73.11,1,0v2Z"/><path class="cls-5" d="M174.04,72.04h-1c.12-.22-.08-.67,0-1,1.02-.13.82.43,1,1Z"/><path class="cls-31" d="M159.05,81.04c.63.3.62.63,0,1,.82,1.14.38,1.79-1,2-.8-.11-1.85.19-2.5,0-.33-.1-3.17-2.87-3.5-3-.16-1.14.75-.85,1-1,1.16-.7,2.07-1.3,3.5-1,.66.96,1.59,1.39,2.5,2Z"/><path class="cls-58" d="M149.05,91.03l1-1.5,1,.5v-2l4-1-1,5c-.98-.1-2.1.17-3,0-.64-.12-1.39-.63-2-1Z"/><polygon class="cls-26" points="142.05 84.04 142.05 87.03 139.05 87.03 139.05 89.53 138.05 90.03 137.05 88.53 141.05 84.04 142.05 84.04"/><path class="cls-226" d="M146.05,92.03h-2c-.22-.2-1.64-.75-2-1-.48-.29-.46-.62,0-1,2.21-.25,3.09-.06,4,2Z"/><path class="cls-74" d="M142.05,90.03c.05.32-.03.67,0,1-.67-.47-2.04-.79-2-2l1-1c.84-.75.89,1.25,1,2Z"/><path class="cls-239" d="M149.05,82.04l1-1c-.07.02.38.51-1,1Z"/><path class="cls-151" d="M145.05,84.04c.06-.04-.33-.39,1-1l-1,1Z"/><path class="cls-151" d="M143.05,85.04c-.15-1.11.63-.82,1-1l-1,1Z"/><path class="cls-116" d="M140.05,89.03l1-1c-.05.05.14,1.18-1,1Z"/><path class="cls-23" d="M22.08,15.07c1.51.99,2.27,2.88,2.29,5.66,3.37,2.58,4.27,4.69,2.7,6.33-2.11,2.7-4.14,3.38-6.08,2.04-2,1.34-3.25.94-1.4-.25.78-.5.82,2.15-.43,3.18-3.1,2.54-9.19-2.21-11.08-4.98-.84-.17-1.29-1.12-1-2l-2-2c-.17-1.15.79-.86,1-1l1-1c.32-.08.7.08,1,0l1-1c.51-.05,1.07.14,1.5,0,1.88-.62,4.98-3.12,7-4,.77-.33,3.51-.53,4.5-1Z"/><path class="cls-232" d="M24.08,14.07c2.31-.99,5.24,2.86,5,5,.87.28.86.62,0,1l2,2c.89.28.88.61,0,1l1,1c.87.33.87.67,0,1l2,2c1.61-.58,2.31.92,1,2l1,1c1.4,1.84.83,2.38-1,1l-2,1c-.29.88-.62.87-1,0l-1,1c-1.48,1.96-6.41,4.77-9,4-.34.64-.67.64-1,0-.66,2.3-6.15,4.95-6,1-.85-.31-.85-.64,0-1,1.08-2.42,5.99-5.44,9.17-6.14-.82-1.45.12-2.73,2.83-3.85,0-1.28-1.81-2.35-3-2l1-2h-2l-1-2.5,1-1.5h-2l1-4c.05-.02-.16-.83.5-1h1.5Z"/><path class="cls-221" d="M27.08,13.07c.07.03.38.46,1,1,2.17-1.35,3.71,3.18,4,5,1.37-.08,2,.97,1,2v1c-1.05-.06-2.38-1.05-4-3l-5-5v-1c.91.15,2.37-.26,3,0Z"/><path class="cls-121" d="M8.08,21.06v-1c.3.04.69.03,1,0,.13.99-.39.83-1,1Z"/><path class="cls-136" d="M138.05,107.03c.29-.65.63-.64,1,0,.08.11,1.31-.25,1,2l-1,1c-.59.13-1.56-.17-2,0-.47.75-1.49.77-2,0-.06-.05-.94-.05-1,0-.29.65-.63.64-1,0-.35-.17-1.37.09-2,0v-1.5c.36-.91,1.93-1.39,2-1.5,1.03-1.28,3.63-.69,5,0Z"/><path class="cls-43" d="M136.05,104.03h1c.08.32-.1.71,0,1,.75.55,1.48,1.15,1,2-2.03,1.36-2.97,1.36-5,0,.15-.23.09-2.02,1-3,.28.1.67-.08,1,0,.4.47.73.47,1,0Z"/><path class="cls-190" d="M137.05,110.02c-.1.04.17,1.41-1.5,1-.66-.16-.45-.96-.5-1h2Z"/><path class="cls-85" d="M139.05,110.02c-.17-1.15.79-.86,1-1-.14.98-.18.81-1,1Z"/><path class="cls-190" d="M133.05,110.02h1s.14,1-.5,1c-.66-.17-.45-.98-.5-1Z"/><path class="cls-216" d="M131.05,106.03v-1l1,.5c0,.66-.74.39-1,.5Z"/><path class="cls-163" d="M160.05,82.04c1.14-.18.92.9,1,1l1,1s.84-.16,1,.5v1.5c-.06.03.16,1.18-1,1l-.5-1-2,2-1.5-1.5,1-2c.05-.63-.98-.45-1-.5-.36-.76-.08-2.16,1-2,.3-.61.63-.6,1,0Z"/><path class="cls-132" d="M160.05,82.04h-1v-1c.2.14,1.17-.15,1,1Z"/><path class="cls-132" d="M162.05,84.04c-1.14.18-.92-.9-1-1,1.15-.17.88.84,1,1Z"/><path class="cls-91" d="M6.08,25.06c.88.3,1.34,1.06,1,2,2.61,4.02,5.28,8.02,8,11.99,1.8.12,1.43,2.33,0,3-.36,2.02-1.06,1.69-2.1-.98l-.9.98c-2.53-3.36-4.85-7.85-8-11.99.09-1.54.43-2.87,1-4l-1-1c-.87-.28-.86-.62,0-1,.33,0,.75-.07,1,0,.96-.5,1.38-.03,1,1Z"/><path class="cls-35" d="M4.09,24.06v1l1,1c.83,1.34,1.28,2.35,1,4h-2c-.45-.6-.78-2.07-2-2,.34-.77-.22-2.86,0-4,.66,0,1.34.01,2,0Z"/><path class="cls-121" d="M6.08,22.06c-.12-.96.34-.85,1-1,.17,1.15-.79.86-1,1Z"/><path class="cls-121" d="M7.08,25.06c-.29.67-.63.66-1,0-.17-.24.33-.63-1-1v-1c1.19.02,1.52,1.2,2,2Z"/><path class="cls-235" d="M142.05,94.03v-1c.02.05,1-.15,1,.5l-1,.5Z"/><path class="cls-85" d="M139.05,107.03h-1c-.03-.8-.69-1.06-1-2,1.21-.04,1.53,1.33,2,2Z"/><path class="cls-109" d="M44.08,7.07c.44-2.65,8.48-1.2,8.56,1.48l-.61,2.26c2.53,1.2,4.87,2.62,7.04,4.26.31-.45.64-.44,1,0,1.28-.29,1.97,1.07,1,2,.62.3.61.63,0,1,.64.29.63.63,0,1-.23.9-.57.87-1,0l-1,1c-.33.87-.66.87-1,0l-1,1c.14,1.93-4.71,3.21-6,2-3.4.59-11.88.35-10-3-2.61-2.61-5.28-5.28-8-8-.55,2.52-2.84-.34-1-2,.33-.14.97.15,1.5,0l.5-1c.32.05.68-.05,1,0,.31-.57.64-.56,1,0,4.42-.82,8.15.64,7.4,6.35,7.7.04,5.73,4.42,4.18,1.35-.66-2.49-2.24-5.04-4.72-7.67l1.15-2.03Z"/><path class="cls-206" d="M33.08,12.07c1.7.13,5.08,4.9,5,7,.87.28.86.62,0,1l1,1c2.27.04,4.4.93,2,3l-1,2c-.3.62-.63.6-1,0-1.91-.33-5.33-5.27-5-7-2.4-1.42-4.72-3.93-4-7,.13-.06.29-1.26,2-2v1.5c.17.66.97.45,1,.5Z"/><path class="cls-170" d="M30.08,12.07l1,.5c.71,2.02,1.79,4.57,3,6.5-.49,1.04-1.17.96-2,0-.08-.1-1.37-.73-2-1.5-.22-.27-1.12-2.73-2-3.5l1-.5-1-1.5c.62-.09,1.65.17,2,0Z"/><path class="cls-160" d="M42.08,6.07c.88-.84,2.22-.45,2,1l2,3.5,3-.5-2,3h2l1,2.5-1,3.5-2.5-2c-2.69,2.98-7.48-1.8-4.5-4.5-1.05-1.88-2.31-1.16-3.5-1.5-.49-.14-1.14-1.55-2.5-2-.64-.3-.63-.63,0-1,1.24-.33,2.3-.6,3.5-1l.5-1c.66.03,1.42-.12,2,0Z"/><path class="cls-22" d="M36.08,9.07c-.27-.09-.65.06-1,0-.12-.99.38-.83,1-1v1Z"/><path class="cls-13" d="M22.08,57.05l2.36,2.15c2-.81,1.94.09.64,1.85-.06.97-.73,1.3-2,1-.26.76-.6.74-1,0-1.95.35-2.98-3.27-3-5l-1-1c-.07-.32.08-.7,0-1-.19-.71-.4-1.07-1-1.5l-.5-3.5c2.1,2.1,3.71,4.65,5.5,7Z"/><path class="cls-48" d="M23.08,66.04c-.03,3.38.64,5.38,2,6,.3-.57.63-.56,1,0,.87.28.86.62,0,1,.64.3.62.63,0,1-1.26.75-2.7,1.3-4,2-.15-1.45.22-3.12,0-4.5-.24-1.51-.89-2.75-1-5.5.9-1.32,1.8-1.85,2,0Z"/><path class="cls-191" d="M25.08,63.05c1.27.54.94,1.21-1,2-.06.85-.4,1.18-1,1-.4.17-1.37-.09-2,0-.01-.33.03-.67,0-1,.42-1.62,1.09-2.29,2-2,.13-1.47,1.41-1.39,2,0Z"/><path class="cls-161" d="M30.08,73.04c.83.28.81.61,0,1-1.02-.59-1.78-1.25-3-1-.3.58-.63.57-1,0v-1c-.64-.29-.63-.63,0-1,.29-.93.63-.92,1,0,3.3-1.2,4.3-.53,3,2Z"/><path class="cls-7" d="M42.08,92.03c-2.08-.91-3.74-4.82-5-7,1.75.04,1.72,2.08,2,2.5,1.05,1.58,1.95,2.56,3,4.5Z"/><path class="cls-27" d="M46.08,98.03c-2.49-1.09-2.95-4.06-4-6,1.25.55,3.07,4.29,4,6Z"/><path class="cls-202" d="M19.08,57.05h-1c-.06-.32.07-.69,0-1,1.11-.16.82.64,1,1Z"/><path class="cls-171" d="M26.08,74.04v-1h1c.16,1.14-.74.85-1,1Z"/><path class="cls-71" d="M31.08,75.04c-.44-.42-.94-.96-1-1,1.32-1.35,1.74-.76,1,1Z"/><path class="cls-7" d="M32.08,76.04c-.3.62-.63.61-1,0-.12-.28.12-.71,0-1,1.25-.96,1.68-.45,1,1Z"/><path class="cls-71" d="M33.08,78.04c-.65-.6-1.33-.43-2-2h1c1.29-.94,2.03.9,1,2Z"/><path class="cls-7" d="M34.08,79.04c-.3.63-.63.62-1,0-.12-.29.13-.74,0-1,1.23-1,1.66-.48,1,1Z"/><path class="cls-71" d="M35.08,80.04v1c-.83-.67-1.37-.48-2-2h1c.91-.4,1.25.1,1,1Z"/><path class="cls-27" d="M36.08,82.04c-.3.59-.63.58-1,0-.09-.3.07-.68,0-1,.26.21.41-.25,1,1Z"/><path class="cls-71" d="M36.08,83.04c-.04-.06-.56.38-1-1h1c.13.27-.13.73,0,1Z"/><path class="cls-7" d="M37.08,84.04c-.04-.06-.31.05-1-1,.03.06,1.18-.15,1,1Z"/><path class="cls-231" d="M100.06,98.03c2.48-1.18,6.21-.99,3,2,.87.28.86.62,0,1-.2.88-.54.85-1,0l-.53.47c-3.49-.56-5.65.29-6.47,2.52-2.64,1.51-4.87,2.41-7.5,4-1.63.44-1.4-.96-1.5-1l-1-2c-1.92-.56-1.92-1.44,0-2-.91-.1-.86-.45,0-1-.88-.25-.86-.58,0-1,.98-.64,2.31.03,4,2-.84-2.81-.79-3.83,2-2,1.16.12,1.31-.5.46-1.88,2.05.28,4.06-.36,5.32-2.03l1.22.91c1.61-1.76,2.27-1.76,2,0Z"/><path class="cls-4" d="M84.07,107.03l-1.5,3-3.5,1v2c-3.71-.16-7.73,2.33-11,4-6.67,1.68-3.44-5.22-2-6-1.39-1.86-.81-2.41,1-1,1.68.59,3.25.35,4.7-.74l1.29.74c3.37.42,6.76-.72,10.17-3.42l.83.42Z"/><path class="cls-187" d="M66.07,111.02c.27.12.81-.18,1,.5l-1,1,1,1.5-2,.5,3,2.5c-.14.07-.34,1.68-2.5,1l-.5,1c-.34-.16-1.06.25-1.5,0-1.84-1.05-1.37-2.87-1.5-3-.16-.16-1.84.63-3-2,.44-2.6,2.1-3.6,5-3-.87-.28-.86-.62,0-1,1.7-2.19,2.63-1.69,2,1Z"/><path class="cls-44" d="M103.06,101.03c5.79-2.67,2.28,1.12-1,3-.19.14-.68-.12-1,0-1.43.52-3.74,1.79-4.5,2-.68.18-1.69-.1-2.5,0-.04-.85.81-.99,1-2,.27-.89.6-.88,1,0l1-1c-.18-1.3,1.48-1.97,5-2,.27-.08.65.03,1,0Z"/><path class="cls-231" d="M85.07,106.03c.66.29.64.63,0,1-.27-.03-.75-.07-1,0-2.29.65-5.87,3.82-6.5,4-1.05.29-2.77-.2-4,0l-.5-1c-.22-1.36,1.11-1.69,4-1l1-1c.19-.89.53-.86,1,0l1-1c-.14-2.69,4.03-3.67,5-1Z"/><path class="cls-4" d="M86.07,107.03c-.22-.1-.64.05-1,0v-1c-.87-.28-.86-.62,0-1l1,.5v1.5Z"/><path class="cls-4" d="M44.08,83.04c.64.16,1.31.83,2,2,1.52,1.63,2.19,1.97,2,1,.3-.62.63-.6,1,0,.28-.87.62-.86,1,0,3.04-.95,6.18-2.02,9.41-3.21l.58,1.21c1.55,0,1.88.33,1,1,1.32,2.26-2.76,3.58-4.79,4.17l.79.82c2.16,1.88.41,3.44-2,2-.28,2.23-1.04,1.94-2,0-.12,3.1-.84,4.11-2.15,3.05-.26,1.89-.69,2.88-2.84.95-.07-.12-1.49-1.77-2-2-.69-1.02-1.02-2.02-1-3l-3-3c-1.16-1.78-2.56-4.05-4-6-.95-5.07,3.86-.93,6,1Z"/><path class="cls-86" d="M31.08,72.04c-.98-5.19,3.08-3.71,6,0,2.26.8,6.09,5.73,5,8l1,1c1.8-.52,2.6.91,1,2-.58-.39-3.69-.52-4.5-2-.51.51-.7.97-1.5,1l-1-1c-.1-.1.28-.4-1-1-.87-.28-.86-.62,0-1l-1-1c-.89-.28-.87-.61,0-1l-1-1c-.89-.28-.87-.62,0-1l-1-1-1-1c-1.06.63-1.44.09-1-1Z"/><path class="cls-39" d="M54.07,95.03c.81,2.1.48,2.76-1,2-.49,1.25-.67.96-1.31-.08,1.58,2.44,3.35,4.8,5.31,7.08,1.52-2.14,4.96,2.22,4,4-.88,3.27-3.07-2.06-2.82-1.82,3.16,3.06,2.59,6.88-1.18,3.82-.3.58-.63.56-1,0-.15-.23.15-.77,0-1l-1-1c-.15-.23.15-.77,0-1l-2-2c-.65-.96-1.31-2.08-2-3l-1-1c-.12-.23.09-.66,0-1l-1-1c-.57-1.15-.82-2.66-1-3,1.13-.01,1.69-1.55,2.5-2,.72-.4,1.91.86,1.5-1.5.24-.62.59-.43,1-.5,1.59.31,2.6,2,1,3Z"/><path class="cls-8" d="M61.07,108.03c1.25.13,2.25,1.13,3,3l-3.5,3h-1.5c-.13-.29.13-.75,0-1-1.33-.83-1.99-1.83-2-3l2-1-1-3,3,2Z"/><path class="cls-27" d="M32.08,73.04l1,1,1,1c.15.24-.15.75,0,1l1,1c.13.27-.13.73,0,1l1,1v1c-.25-.12-.67.1-1,0-1.32-.38-.81-.72-1-1-.61-.88-.73-.75-1-1-.27-.57-.69-1.57-1-2-.59-.81-.73-.74-1-1-.56-1.35-.96-.94-1-1-.05-.07-.05-.93,0-1-.53-1.6-.53-1.86,1-1,1.13-.18.95.95,1,1Z"/><path class="cls-7" d="M42.08,88.03l1.5,1,1.5-1c.11.97-.19,2.14,0,3-.29.71-.63.7-1,0-.67-.99-1.34-2-2-3Z"/><path class="cls-27" d="M46.08,94.03c-1.28-.56-1.17-1.77-2-3h1c.17.74.42,1.04,1,1.5v1.5Z"/><path class="cls-27" d="M56.07,109.03c-.04-.06-.3.06-1-1l1,1Z"/><path class="cls-187" d="M59.07,113.02c-1.52-.4-2.22-1.8-3-3h1c.4,1.18,1.35,1.79,2,3Z"/><path class="cls-7" d="M38.08,82.04c-.77.03-1.1-.2-1-1,.22.22.41.21,1,1Z"/><path class="cls-27" d="M50.07,100.03c-1.12.16-.83-.64-1-1,.99-.13.83.39,1,1Z"/><path class="cls-27" d="M51.07,102.03c-.04-.06-.33.24-1-1l1,1Z"/><path class="cls-106" d="M55.07,107.03c-.08-.12-1.16-.75-2-2l2,2Z"/><path class="cls-77" d="M113.06,95.03c.94.37,1.6,1.03,2,2-1.72,2.04-5.06,2.79-7.5,4-1.75.87-3.58,2.31-5.5,3,.63-.49.9-2.73,3-2v-1c-.66.03-1.35-.06-2,0v-1c.33-.85.66-.85,1,0l1-1c-.37-2.79,3.23-4.13,5-2-.91-2.84.63-3.92,3-2Z"/><path class="cls-205" d="M115.06,90.03c.17,2.3-.12,4.69,0,7-1.76.41-2.67-.22-2-2-1.14-1.29-1.14-2.62,0-4-.08-1.18.91-1.15,2-1Z"/><path class="cls-56" d="M34.08,34.06c.96-.05,1.32,0,1,1,.54.11,1,.26,1.24.59.41.57-10.54,6.07-12.23,5.41-4.44,3.52-5.77,5.18-4,5,1.87-1.36,2.42-.8,1,1l-1,1.5,1,2.5c-2.55.63-3.09-1.01-5-2-.71-1.3-1.23-2.75-2-4l-1-1c-.15-.24.15-.77,0-1l-1-1c-.63-1.83.22-2.39,2-2v1.5c.24.62.59.43,1,.5l1.15-2.94c5.54-.67,11.25-2.68,17.14-6.03l.71.97Z"/><path class="cls-202" d="M13.08,43.05c-.04-.06-.36-.15-1-1,.02.07,1.18-.16,1,1Z"/><path class="cls-202" d="M14.08,45.05c-.04-.06-.3.09-1-1l1,1Z"/><path class="cls-52" d="M142.05,18.07v3h-2c.78,2.7-2.93,2.71-3,4l1,1c-.31.3-.79,2.17-2,2q-.71-1.11,0,0c.12.29-.12.73,0,1-.4.29-1.53.71-2,1-.64.64-1.36.63-2,0-.27.68-.61.66-1,0l-1-1c-.19.87-.53.84-1,0-1.33-.75-2.66-1.41-4-2-.28.58-.62.56-1,0l-1-1c-.26.85-.6.84-1,0-.65-.29-.64-.63,0-1-.03-.39.3-.72,1-1,.48-1.47,7.63,1.53,8.29,2.81.05.1-1.44-.57-.29-1.81,2.85-1.84,5.43-4.16,7.72-6.95l1.28-.05c-.12-2.06,1.12-1.64,2,0Z"/><path class="cls-92" d="M126.06,10.07c3.92-1.24,6.37,1.44,1,2l-4,4c-1.36.88-1.36,1.88,0,3h1c1.75-2.21,4.63-.52,5,2,1.24.52,1.91,1.18,2,2,.88.25.86.58,0,1-.3,1.91-1.09,1.8-2,0-2.44-.91-4.78-1.91-7-3-1.21.41-1.63.23-2-1-.66.75-.66,1.42,0,2,1.7-.74,1.92.54,2,2-.26.67-.6.64-1,0-.33.66-.67.66-1,0-.27.62-.61.59-1,0-.35-.05-.73.09-1,0l-1-2.5c1.04-1.47,1.96-3.04,3-4.5.16-.22-.16-.8,0-1l6-6Z"/><path class="cls-133" d="M107.06,24.06c.3.09.68-.07,1,0,.05.65-.11,1.4,0,2l1,1c.12.28-.12.71,0,1l1,2c.05.33-.07.69,0,1-.73.79-1.73,1.45-3,2-.33.04-.67-.02-1,0-2.83-.31-2.4-.72,0-2-1.32-1.37-.76-1.87,1-1l1-1c-1.07.7-1.72.13-2-1-1.33.92-1.73.4-1-1-1.82.47-3.48.47-5,0l-1,1c2.56.71,2.52,1.15,0,2,.53.3.52.64,0,1-.64.57-1.53-.19-2-1-.41-.32-.4-.65,0-1v-1c-.11-.3.12-.73,0-1,1.16-.8,2.62-1.46,3-3,.25-.13.7.12,1,0l2-2h1c1.27.24,1.62,1.58,3,2Z"/><path class="cls-62" d="M134.05,40.06c.42,1.29.13,1.79-1,1l-1-1c.36-.39.69-.68,1-1,.59.14,1,.33,1,1Z"/><path class="cls-155" d="M134.05,30.06c-.17.11.42.87-2,1v-1c.66.05,1.34-.02,2,0Z"/><path class="cls-72" d="M135.05,39.06c-.24.91-.57.89-1,0-.29.41-.63.39-1,0,.36-.37.63-.65,1-1,.9-.11.89.26,1,1Z"/><path class="cls-80" d="M110.06,30.06l-1-.5v-1.5c.05.12.61-.43,1,2Z"/><path class="cls-155" d="M129.05,29.06c-1.26-.33-2.03-.74-3-1-.32-.08-.71.09-1,0-.87-.28-.86-.62,0-1,.95.33,2.44.56,3.5,1l.5,1Z"/><path class="cls-10" d="M120.06,25.06c-.66-.15-1.12-.04-1-1,.32.05.67-.03,1,0,.66.29.64.63,0,1Z"/><path class="cls-138" d="M121.06,25.06c-.34,0-.73.06-1,0v-1c.33.03.67-.03,1,0,.87.28.86.62,0,1Z"/><path class="cls-10" d="M122.06,26.06h-1c-.08-.31.06-.68,0-1,.23-.67.57-.63,1,0v1Z"/><path class="cls-80" d="M109.06,27.06c-.93.11-.87-.29-1-1,1.09-.15.82.57,1,1Z"/><path class="cls-80" d="M110.06,32.06c-1.24.75-1.62.85-3,1l.5-1,2.5-1c.07.32-.06.68,0,1Z"/><path class="cls-98" d="M144.05,37.06c1.07,2.59,2.07,3.25,3,2h1.5c1.13,1.45,2.89.74,4.5,2,3.05,1.53-2.63,3.37-2,6h-2c.32,2.24-2.13,3.33-3.5,5l-7-4c-2.01.53-3.43-1.3-5-2-.8-.36-2.55.43-3.5-1.5,1.28-.95,2.05-2.28,3-3.5.04-.06,1.18.14,1-1v-1c.35-.04.74.09,1,0,1.47,1.43,3.14.45,5.02-2.94l1.98-.06c.71.35,1.25.76,2,1Z"/><path class="cls-120" d="M149.05,55.05c-.16.19.17.85,0,1-.56.51-1.98,1.02-2.5,2l-7.5-4q1.11-.71,0,0c-.34.16-2.29.09-3,0-.64-.3-.62-.63,0-1q1.17-.73,0,0c-.33.62-.67.62-1,0-.04-.04.17-.84-.5-1-.71-.16-1.68.09-2.5,0-.4-.46-.73-.46-1,0-.37-.09-.8.15-1-.5v-1.5c-.87-.28-.86-.62,0-1,3.68,1.69,10.3,1.11,13.5,5l1-1,4.5,2Z"/><path class="cls-87" d="M130.05,49.05v1h-2c-.28-1.5-.06-2.6,1.5-2,.7.27.45.98.5,1Z"/><path class="cls-91" d="M132.05,52.05c-.34-.04-.71.07-1,0l.5-1,.5,1Z"/><path class="cls-91" d="M136.05,54.05c-.75-.09-1.1-.11-1-1,.06.05.94.05,1,0v1Z"/><path class="cls-177" d="M104.06,73.04l-3-3c.87.97,1.91,1.1,3,3Z"/><path class="cls-123" d="M105.06,79.04c.04.06.34.07,1,1,.81,1.67-1.17,5.62-2.47,7.49-2.38,3.41-4.34,6.19-8.53,5.5-1.55-.57-3.22-1.91-5-4-3.06-2.26.28-5.28,3-6-3.57-3.92,9.5-7.81,12-4Z"/><path class="cls-123" d="M90.06,89.03c1.95,1.41,4.05,3.67,5,6,1.78-1.45,2.37-.88,1,1,3.34.64-2.53,3.89-3.62,3.56-.37-.11-4.01-5.78-3.37-6.56-1.82-.28-6.5-6.62-4-7,2.79-1.86,5.2-.22,5,3Z"/><path class="cls-193" d="M107.06,82.04l2,2c.16.23-.16.77,0,1l2,2c.67,1.23,1.6,1.95,0,2-.13.59-.33.99-1,1-.2.87-.54.84-1,0l-1,1c-.28.87-.62.86-1,0l-1,1c-.22.91-.56.88-1,0l-1,1c-.33.86-.67.86-1,0l-1,1c-.07,1.75-2.63,3.14-4,1l-1,1c-.25.88-.58.86-1,0,.17-1.15-.8-.86-1-1-1.17-1.19-1.17-1.86,0-2l2.5-3,3.5.5-2-1v-1.5c3.26.39,3.12-3.61,5-5.5l-.5-.5,2.5-2c.28.4.72,1.59,1,2Z"/><path class="cls-81" d="M105.06,79.04h-9v2l-1-.5-2,2.5c-.78,2.85-7.99,3.58-9,1-1.5-.45-1.7-3.78,0-4,.28-.87.62-.86,1,0l.5-1.56c2.1.41,4.27.26,6.5-.44.33-.86.67-.86,1,0,.98-1.71,4.02-1.94,6-2-.54-1.58-.46-1.85,1-1-.51-.28-.48-.61,0-1,.28-.87.62-.86,1,0,1.09,1.48,2.56,2.99,4,5Z"/><path class="cls-88" d="M101.06,74.04h-1c-.46.43-.46.76,0,1-.68,1.07-.96.94-1,1-2.33.35-4.1.64-6,2-.28-.13-.72.13-1,0-.81.07-1.81.07-3,0-2.52-.3-2.3-1.07,0-2-.64-.3-.63-.63,0-1-.49-1.52.5-1.57,2-1,1.19-.59,2.55-1.02,3.5-2l5-1c1.62.67,1.32,2.76,1.5,3Z"/><path class="cls-153" d="M111.06,90.03c1,.22,1.15,1.02,2,1-.02.85,1.52,1.48,1,3.5-.18.69-.98.45-1,.5-1.16.43-1.84,1.35-3,2-2.66,1.3-2.81-.9-2-3-1.65-.93-.34-2.54,1-3-.64-.29-.63-.63,0-1,.27-.06.67,0,1,0h1Z"/><path class="cls-115" d="M96.06,66.04c.17,1.11,1.46,1.43,1,3-1.65-.52-1.86.74-2.5,1-2.42.99-4.39,1.48-6.5,3-.11,2.01-2.48,3.4-4,2-4.16,1.07-2.51-3.05,1-3,1.74-2.08,4.92-3.45,8-4-2.68-1.62,2.81-4.09,3-2Z"/><path class="cls-181" d="M97.06,64.05c-1.22-.08-1.14,1.08-1,2h-1.5c-.76.58-1.12,1.13-1.5,2-4.21,1.73-5.54,1.4-4-1-1.15-2.35,4.69-4.39,5-2l1-1c-.59-.13-1-.33-1-1-.87-.25-.85-.58,0-1l-1-1c-.87-.28-.86-.62,0-1,0-.33.03-.67,0-1,1.98.74,2.54,3.29,4,5Z"/><path class="cls-129" d="M91.06,74.04c-.64.32-1.39.64-2,1l-1,1c-.28.87-.62.86-1,0l-1,1h-1c-.27.64-.61.62-1,0-.87-.28-.86-.62,0-1-.8-.33-.8-.67,0-1,1.25-.76,2.84-1.17,4-2h2.5l.5,1Z"/><path class="cls-233" d="M109.06,84.04l-2-2c.08.12,1.17.79,2,2Z"/><path class="cls-233" d="M111.06,87.03l-2-2c.08.12,1.2.53,2,2Z"/><path class="cls-233" d="M111.06,90.03c-.28-.06-.66,0-1,0l1-1v1Z"/><path class="cls-40" d="M108.06,42.06c.33.01.67-.04,1,0l2,1c.29.12.74-.13,1,0l1,1c-.11,1.3.17,2.73,0,4-.29.07-.66-.03-1,0-.33.71-.67.71-1,0h-1c-.83-.19-.79-.53,0-1-1.48-.11-1.41-1.6,0-2-1.71-.1-2.71-.43-3-1-.26.45-.6.42-1,0-.92-.63-1.09-.68-2,0-.68.88-.63,1.1,0,2,.85.26.84.6,0,1,2.75-.21,2.86-.21,1,2-.33.88-.66.88-1,0h-1c-.29.72-.62.7-1,0-.08-.26.03-.65,0-1-.16-1.97.11-4.02,0-6,1.99.06,4.01-.09,6,0Z"/><path class="cls-139" d="M110.06,48.05c.55.18.5.53,0,1,.77.22.74.55,0,1l-1,1c-.27.08-.65-.03-1,0-.8.82-2.16.77-3,0-.35-.04-.73.08-1,0-.63-.3-.61-.63,0-1v-1c.33,0,.68.03,1,0,.25-.88.58-.86,1,0l3-2c.28-.87.62-.86,1,0,.02.33,0,.67,0,1Z"/><path class="cls-45" d="M108.06,51.05l-.5,1h-2l-.5-1c.91.1,2.08.08,3,0Z"/><path class="cls-230" d="M104.06,50.05v1c-1.11-.34-1.66-.89-2-2h1c.59.13,1,.33,1,1Z"/><path class="cls-57" d="M111.06,43.05h-1.5l-.5-1c2.47.3,1.88.95,2,1Z"/><path class="cls-57" d="M113.06,44.05l-1-1c.35.17,1.16-.12,1,1Z"/><path class="cls-126" d="M89.06,55.05c.33,1.1,1.1,2.61,2,3l1,1c.08.09-.14,1.18,1,1v1c.59.3.58.63,0,1,.36,3.88-5.51,4.15-8,1-2.05-3.45.29-13.35,4-8Z"/><path class="cls-164" d="M86.07,52.05l3,1c.08.64-.15,1.5,0,2l-1.5-1c-1.9,1.03-1.15,2.39-1.5,3.5-.13.41-.93.63-1,1-.25,1.34.16,3.07,0,4.5-.28.87-.62.86-1,0-1-1.04-1.33-2.71-1-5-.89-.29-.68-1.48,0-2l1-2,2-2Z"/><path class="cls-46" d="M92.06,59.05l-1-1c1.3.56.85.83,1,1Z"/><path class="cls-57" d="M110.06,50.05c.08-.27-.04-.65,0-1,.13-.59.33-1,1-1,.33-.02.67.03,1,0-.02,1.2-1.2,1.52-2,2Z"/><path class="cls-45" d="M109.06,51.05c-.16-1.14.74-.85,1-1-.26.86-.07.74-1,1Z"/><path class="cls-78" d="M136.05,12.07l4,3-.29,1.3c-2.94-2.15-5.84-3.25-8.71-3.3-.33.91-.66.91-1,0l-1-1c-.7,2.56-1.14,2.52-2,0,.1-.23-.18-.75.5-1h1.5v-1h-3s-.18-.84.5-1c3.38.24,6.24,2.76,9.5,3Z"/><path class="cls-89" d="M142.05,36.06l-2,1.5,2,3.5c-1.48-.55-2.33,1.01-2.5,1-.25-.01-.96-1.55-2.5-1l-1.5,2c-2.47-1.61-.21-2.04-.5-4,1.74-.58,3.05-2.86,4.5-4,.89-.26,1.6.55,2.5,1Z"/><path class="cls-70" d="M146.05,36.06l-1,1c-.27.87-.61.86-1,0,.22-1.27.75-1.11,2-1Z"/><path class="cls-90" d="M140.05,15.07c1.5.66,1.31,1.12,2,2v1c-.62.09-1.65-.17-2,0-1.55,2.06-2.22,1.39-2-2-.33.82-.66.82-1,0l-1-1c-.29.87-.63.86-1,0l-1-1c-.23.84-.57.81-1,0l-1-1c-.33.86-.66.86-1,0,2.58-2.15,4.53.54,7.5,2,.46.23,1.15-.15,1.5,0Z"/><path class="cls-123" d="M147.05,39.06c.1.61-.05,1.35,0,2h2l-1,3h-2l1,2.5c-.94,1.2-1.9,1.93-3.5,1.5-2.36-.63-.38-2.9-.5-3l-2-.5,3-3-1-1c.29-1.27.74-2,1-3.5.3.09.68-.07,1,0,0,1.55,1.73.37,2,2Z"/><path class="cls-102" d="M138.05,26.06l-1-1,1,1Z"/><path class="cls-103" d="M71.07,31.06l1,1c.3.41.71,1.48,1,2,.5,2.35,1.2,6.7-1,8-.2.08-2.72,1.87-3,2-.76,2.19-4.43,5.5-7,3l-3.09-.03-5.91-6.97c-1.12-.46-1.33-1.59,0-2-.55-2-.21-2.66,1-2,1.32-3.27,3.47-5.17,6.45-5.72,3.17-2.56,4.84-2.64,8.54-1.27.4.56,1.34,1.71,2,2Z"/><path class="cls-173" d="M69.07,44.05h2c.02.84-.77,1-1,2,.86.32.85.65,0,1-.28.87-.62.86-1,0-.81.14-1.53.26-2,1,1.57-.25,2.57.08,3,1,.87.28.86.62,0,1,.33,2.05-.67,2.05-3,0-1.87.49-3.87.82-6,1-1.1.47-1.53.07-1-1-3.34-.32-.03-2.44,2-3,2.34-1.07,4.88-2.04,7-3Z"/><path class="cls-211" d="M74.07,35.06c.3.42.7,1.52,1,2l1,1,1,3c-1.95-.68-2.77.74-3.5,1-.51.18-1.14-.14-1.5,0l-1-4h-1.5l-.5-2h3l1-2,1,1Z"/><path class="cls-243" d="M81.07,43.05c.35.93.98,1.27,1,2-.28.56-.61.54-1,0l-2,1-2,1-1,1c-.24.9-.58.88-1,0-.26.48-.6.44-1,0-1.96.13-1.76-1.48,0-2,.68-.14,1.11-.05,1-1,.29-.64.63-.63,1,0,2.37.43,2.56-2.37,5-2Z"/><path class="cls-243" d="M72.07,46.05c.78.21,1.12.87,1,2,.91,1.29-1.82,1.83-3,1-1.88-.48-1.79-1.32,0-2,.04-.34-.07-.7,0-1h2Z"/><path class="cls-220" d="M74.07,46.05v2c-.32.88-.65.87-1,0h-2l1-2c.66,0,1.44.12,2,0Z"/><path class="cls-174" d="M76.07,44.05l2-2v2c-.66.03-1.35-.07-2,0Z"/><path class="cls-174" d="M76.07,44.05v1h-1l-1-1c.66-.03,1.35.07,2,0Z"/><path class="cls-113" d="M120.06,16.07c1.48-2.44,3.7-4.35,6-6-.89,2.54-4.64,4.31-6,6Z"/><path class="cls-168" d="M66.07,25.06c1.43-.97,2.85.64,2,2,.28.4.72,1.6,1,2-1.05,3.34-2.56.41-4.5,1-1.13.35-2.94,3.4-6.5,2,.4,2.54-2.03,2.99-4,4-.98-.34-1.31.33-1,2,.13.52,0,1.35,0,2-.31.45-.64.43-1,0-2.16-.66-3.82-2.65-5-6-3.93-1.08-.98-4.01,2-3,.42-1.48,1.98-2.47,3-1l1-1c.03-1.42,1.65-1.54,2,0l1-1c.33-.87.67-.87,1,0l1-1c.33-.87.67-.87,1,0l1-1c.29-1.58,1.78-2.29,3-1,.75-.81,2.18-.85,3,0Z"/><path class="cls-112" d="M62.07,15.07c.96,2.58,2.65,5.15,4,7,1.03,1.41,4.85,4.99,4,6l-2-1c-.57-.8-.61-1.71-2-2-.84-.78-2.13-.81-3,0-1.01.19-1.21.92-1.5,1-.53.15-1.13-.13-1.5,0l-1,1c-.29.12-.71-.12-1,0l-1,1c-.28.12-.72-.13-1,0l-1,1c-.47.17-1.48-.17-2,0l-1,1c-.45.23-1.17.31-1.5,1h-1.5c-3.35.56-2.2-.36,0-2l1-1c.05-1.41,3.12-2.52,4-1l1-1c1.52-1.98,6.5-4.72,9-4l-1-1c-1.69.85-2.03.51-1-1l-2,2c-.31.88-.64.88-1,0-1.79.75-2.12.42-1-1-.64-.3-.63-.63,0-1,.28-.12.72.12,1,0l1-1c.27-.11.68.09,1,0l1-1-1-1c-.28-.4-.71-1.58-1-2l-1-1c-2.3,1.06-2.86-.24-1-2l.5-1c1.74,1.02,2.3,3.47,3.5,4Z"/><path class="cls-25" d="M72.07,32.06l-1-1c1.26.55.77.68,1,1Z"/><path class="cls-25" d="M74.07,35.06c-1.14.16-.84-.71-1-1,1.25-.05.87.81,1,1Z"/><path class="cls-25" d="M76.07,38.06c-1.15.17-.85-.76-1-1l1,1Z"/><path class="cls-36" d="M99.06,31.06c2.24.69,4.24.69,6,0,.28-.87.62-.86,1,0-.16.45.11,1.38,0,2-1.87.1-4.16.15-6,0-.35-.03-.74.08-1,0l-2-2c-.67-.26-.65-.59,0-1,.74.13,1.28.65,2,1Z"/><path class="cls-222" d="M101.06,24.06l2-2c-.06,1.09-1.09,1.62-2,2Z"/><path class="cls-227" d="M97.06,29.06c-.09.24.05.65,0,1-.04.29-.07.79,0,1-.24-.11-.84.18-1-.5l1-2.5c.65.29.64.63,0,1Z"/><path class="cls-165" d="M99.06,33.06c-1.13-.35-1.63-.89-2-2,.9.4,1.95.9,2,2Z"/><path class="cls-169" d="M57.07,8.07c.34.49.86,1.4,1,2-.06.04.15,1.18-1,1-2.98.62-5.62-3.53-4-6-.12-.96.33-.85,1-1,1.04,1.49,2.21,2.86,3,4Z"/><path class="cls-89" d="M53.07,5.07c1.22,1.22,2.94,4.32,4,6,.14.23-.15,1.17,1,1,.14.6.66,1.51,1,2v1l-.5,1c-1.12-1.62-3.11-.88-5-1l.5-2-3,1v-2h-2l2-5-3,2-2-2c-.65-.05-1.41.11-2,0-2.41-.45-1.87-.97-2-1l1-1c1.23-.37,1.99-.84,2.5-1,.61-.19,1.4.2,2,0,.55-.18,1.01-1.57,3-1,.46.96,2.05,1.55,2.5,2Z"/><path class="cls-28" d="M42.08,6.07c-.13-1.01.42-.82,1-1l-1,1Z"/><path class="cls-96" d="M151.05,99.03l.5-1c.84.52.54,1.07-.5,1Z"/><path class="cls-127" d="M8.08,27.06l2.5,2,3.5-1v2l4,1v-3h1.5l-.5-2,4.5,2,3.5-1-2,2.5,2,.5c.19,3.84-2.65,2.49-4.5,3-.86.24-1.61,2.74-3.5,2v2h-4c-2.42-.22-6.4-6.51-7-10Z"/><rect class="cls-127" x="11.08" y="26.06" width="2" height="1"/><path class="cls-209" d="M8.08,27.06c-.28.87-.62.86-1,0-.25-.58-.69-1.57-1-2h1c.32.54.67,1.48,1,2Z"/><path class="cls-114" d="M33.08,22.06c1.33.25,2.33,1.24,3,3,.88.28.86.61,0,1l2,2c4.19,2.02,4.86,4.02,2,6l3,1c2.11.14,2.59.33,1,2-.69,1.83-2.65.55-3-1-.25.46-.59.42-1,0,.61,2.55,0,2.62-2,1-2.64.33-2.7.03-1-2-1.49-.26-1.15-.93,1-2-1.87.98-2.54-.36-2-4-.3.64-.63.63-1,0-.29-.5-.7-1.58-1-2l-2-2c-.15-.24.15-.76,0-1l-1-1c-.15-.24.15-.76,0-1l-2-2v-1l.5-1c1.74,1.02,2.3,3.47,3.5,4Z"/><path class="cls-147" d="M38.08,33.06c-.97,1.3-2.44,1.73-4,1-6.25.47-10.57,6.7-17,6v2c-.66-.05-1.4.1-2,0-.03-.99.05-2.01,0-3v-1l2.5,1c.96-.94,2.3-1.48,3.5-2,2.09,1.33,2.42,1.33,1,0,2.47-1,6.32-2.43,9-4l1-1c.24-.14.72.13,1,0l2-1c.57-.18,1.13.02,1-1-.58-.3-.57-.63,0-1l1,.5,1,3.5Z"/><path class="cls-20" d="M15.08,37.06c.1.23-.04.64,0,1,.04.33-.02.67,0,1l-6-6.5c-.79-1.65-1.35-3.99-2-5.5h1c2.17,3.47,4.12,5.64,6,9.5.35.72.98.45,1,.5Z"/><path class="cls-19" d="M35.08,31.06l-.5,1h-1.5c.27-.13.29-.47,2-1Z"/><path class="cls-125" d="M22.08,37.06l1,1h-1.5l-.5-1c.28-.12.71.12,1,0Z"/><path class="cls-221" d="M31.08,22.06c-.08-.12-2.2-.82-2-2l2,2Z"/><path class="cls-19" d="M32.08,24.06c-.04-.06-.3.14-1-1l1,1Z"/><path class="cls-19" d="M34.08,27.06c-.11-.16-1.16-.68-2-2l2,2Z"/><path class="cls-19" d="M36.08,30.06c-1.14.16-.84-.73-1-1h1v1Z"/><path class="cls-19" d="M31.08,33.06c.06-.04-.2-.31,1-1l-1,1Z"/><path class="cls-234" d="M135.05,104.03c.31.08.68-.06,1,0l-.5,1-.5-1Z"/><path class="cls-209" d="M5.09,26.06c-.04-.06-1.17.15-1-1l1,1Z"/><path class="cls-188" d="M41.08,20.07s-.18.84.5,1l4.5-1v2h4.5l.5,1c.71,1.15.24,1.39-1,1-.33.82-.66.82-1,0l-1,1c-.34.64-.67.64-1,0,.49,1.93-.74,2.52-2,1-.91.07-1.91-.26-3-1-.28.87-.62.86-1,0-.87-.28-.86-.61,0-1-.3-.9-1.36-2.16-2-3l-1-1v-1c-1.53-3.98,1.36-1.29,3,1Z"/><path class="cls-65" d="M41.08,20.07c-.86-.61-1.87-1.03-2.5-2l-.5,1c-.83.87-4.38-5.97-5-7l1.5-1c1.89,3.13,5.06,5.38,6.5,9Z"/><path class="cls-144" d="M57.07,21.06c.33-.59.67-.59,1,0l1,1-1,1c-.17,1.41-2.08,2.18-3,1l-2,1c-.1.92-.44.87-1,0-1.36.82-2.85.58-2-1-.16-1.14.75-.85,1-1,1.65-.99,2.38-.66,3.5-1,.52-.16.53-.8,2.5-1Z"/><path class="cls-185" d="M60.07,15.07h-1v-1c.04.06.32,0,1,1Z"/><path class="cls-185" d="M62.07,18.07c-.3.58-.63.57-1,0v-1c.04.06,1.17-.15,1,1Z"/><path class="cls-128" d="M61.07,19.07v-1h1c.13,1-.41.83-1,1Z"/><path class="cls-128" d="M59.07,20.07c.06-.03-.36-.43,1-1l-1,1Z"/><path class="cls-128" d="M58.07,21.06c-.33.03-.67-.03-1,0-.15-1.09.57-.82,1-1v1Z"/><path class="cls-189" d="M34.08,19.07c1.22,1.94,3.54,4.48,5,7,3.36,3.13,1.84,6.79-1,2l-2-2c-.09-.29.08-.67,0-1l-3-4c-.19-.21-.79-1.75-1-2l.5-1,1.5,1Z"/><path class="cls-94" d="M41.08,24.06c.1.3-.07.69,0,1,.92,1.48.57,1.95-1,1-.5-1.1-1.31-1.71-1-3l2,1Z"/><path class="cls-65" d="M39.08,21.06c-.04-.06-1.18.14-1-1l1,1Z"/><path class="cls-51" d="M28.08,57.05c1.63-2.56,7.13-2.77,9-1,2.05.87.78,1.54-1,2-2.24,1.04-4.57,2.04-7,3,.87.28.86.62,0,1-.46,1.52-2.81,2.08-4,1-1.27-1.37-.73-1.72,1-1v-1c-.33.79-.66.79-1,0-.82-1.44-2-2.68-3-4l3,2c.2-1.21-.02-1.79-1-2.5l1-.5c.46-.9,1.46-.57,3,1Z"/><path class="cls-215" d="M25.08,61.05c.29-.03.73-.06,1,0,.64.29.63.63,0,1-1.3.56-.84.82-1,1-.6.12-1.38-.1-2,0v-1s-.2-.73.5-1c.5-.05,1.01.04,1.5,0Z"/><path class="cls-171" d="M24.08,67.04c.46.26.42.59,0,1,2.34.97,1.88,2.2,1,4,.08,1.21-.9,1.1-2,1v-7c.07-.03.83-.8,1-1,1.91.3,1.8,1.09,0,2Z"/><path class="cls-71" d="M35.08,66.04c.29-.66.63-.65,1,0-.94,1.28-.61,3.28,1,6h-4l.5-3c-1.11.84-1.73,1.89-2.5,3-.67.96-.96.94-1,1l-.5-1c-2.17.68-2.36-.93-2.5-1l2-2c.31-.53.64-.52,1,0,.67-1.17,1.34-1.5,2-1l1-1c-2.19-2.68-.39-2.9,2-1Z"/><path class="cls-103" d="M59.07,90.03c3.51-1.96,6.41-1.11,5.56,3.31,2.69,1.75,2.82,5.28.18,1.15-1.64-2.56,12.13-4.09,6.26,5.94,1.35-2.32,2.69-3.45,4-3.41.28-.87.62-.86,1,0l1.23.29c-.86,2.2.39,3.44,3.77,3.71.28-.86.61-.84,1,0,1.32-1.07,2.58-.55,3,1-.03.33,0,.67,0,1-.52,1.12-4.74,2.82-6.71,3.56-1.3.49-3.34,1.24-4.29.44-.11,1.98-3.6,3.72-5,2-3.37-1.12-5.21-3.89-5.5-8.33-5.2,1.51-7.94-4.75-8.49-8.67l2-2c.29-1.97,1.3-1.94,2,0Z"/><path class="cls-117" d="M82.07,82.04c.93.29.92.62,0,1,1.7,3.15,3.7,7.15,6,11.99.5-.32.91-.54,1.02-.44,2.03,1.9,5.67,6.1,1.98,6.43-1.17.14-.74.99-2,2-1.88.27-3.18-2.74-3-4-3.02-3.21-5.67-6.93-7.94-11.14-5.32-4.99-5.68-7.27-1.06-6.85.46-1.82,1.47-3.57,3-2,.65.79,1.32,1.79,2,3Z"/><path class="cls-53" d="M85.07,100.03c.85.24.83.58,0,1-.04.33.03.67,0,1-2.2.73-2.66-.8-3-1-4.01-4.1-7.26-7.62-11.33-12.09-.93.71-1.8-.05-2.66-.9-.59,3.48-6.13,2.45-4-1-1.26-1.59,1.55-2.62,3-2,.39-.65,4.25-3.57,4.54-3.67,2.01-.68,13.3,15.65,13.45,18.66Z"/><path class="cls-212" d="M108.06,94.03l1,.5,1,2.5c-1.87,1.06-3.35,1.37-5,2l-1,1c-.18.13-.67-.08-1,0v-2c-2.59,2.12-2.82.07-3,0-2.41-1.67,7.37-6.82,8-4Z"/><path class="cls-148" d="M89.06,93.03c.35.51.6.88,1,1.5.78,1.22,2.54,1.57,2,3.5,1.13.03,2.49-.54,3.5-1,.71-.33.45-.97.5-1,.23-.12.67.08,1,0,.3-.57.63-.55,1,0,3.08-1.55,2.88,1.05,0,2-1.36.35-1.96,1.85-2.5,2-1.5.43-2.72-.16-4,2l-.5-1c.59-2.64-.71-2.92-2-4.5-.11-.14.61-.79-1-1.5-1.36-2.05-1.37-3.4,1-2Z"/><path class="cls-236" d="M85.07,103.03c-.02.66,0,1.34,0,2v1c-2.11-.22-3.26-.04-5,1l-1,1c-.3.07-.66-.04-1,0-.28.56-.61.54-1,0-2.48,1.93-6.61,1.96-3-1,2.74-1.2,6.05-3.34,8.5-4,.68-.18,1.69.1,2.5,0Z"/><path class="cls-179" d="M109.06,91.03c.35.69-.85,2.93-1,3-.58.26-2.1-.16-3,0v2c-2-.35-2.31,1.83-3.5,0l-1.5,2c-.31-.12-1.58-.11-2,0l1-1.5-1-.5c-.64-.3-.63-.63,0-1,1.07-.29,3.1-.61,4-1l1-1c.28-.12.72.12,1,0l1-1c.28-.12.7.11,1,0l1-1c.28-.1.68.08,1,0,.3-.57.63-.56,1,0Z"/><path class="cls-77" d="M102.06,101.03c-.05.01.19.79-.5,1-1.17.35-3.31.51-4.5,1l-1,1c-.28.13-.76-.14-1,0,.17-.89-.1-2.02,0-3l2.5-1,4.5,1Z"/><path class="cls-236" d="M89.06,103.03c-.59.47-2.57,1.43-3,1v-2.5l-1-.5c.05-.35-.09-.75,0-1-.85-1.67-.52-2.01,1-1,.33.51,2.96,2.12,3,4Z"/><path class="cls-55" d="M74.07,107.03v2c1.24-.82,1.74-.79,3-1,.64.3.63.63,0,1-1.04.28-3.16.62-4,1-2.37,1.07-3.97,4.22-6,0-.69-1.98.33-2.37,2-1,1.53-.64,3.28-1.25,5-2Z"/><path class="cls-122" d="M55.07,92.03c.28.05,2.94,3.28,3,3.5.26.9-.2,3.01,1.5,3.5,2.12.61,2.91-1.85,4,0l1.5-1,1,4h2l-2,2,1,2c4.8-.27,2.15.18,2,3-.68.28-1.38.64-2,1-.27.16-1.16-.14-1,1-.85-.36-1.25-.93-2-1-4.33-4.28-7.66-9.28-10-14.99-.2-.35-.29-1.21-1-1.5v-1.5c.56-.1,1.43-.09,2,0Z"/><path class="cls-79" d="M64.07,110.02v1h-2c.23-1.2-.39-2-1-3-.81-1.33-2.5-3.61-4-4-.87-.28-.86-.62,0-1l-1-1c-2.33-.3-3.2-2.92-3-5l1-2c2.47,4.18,6.66,8.38,9,12.49.22.38.44,1.77,1,2.5Z"/><path class="cls-182" d="M96.06,104.03c.06-.03-.36-.44,1-1l-1,1Z"/><path class="cls-4" d="M77.07,109.03v-1c.32-.05.67.04,1,0,.12.99-.38.83-1,1Z"/><path class="cls-4" d="M79.07,108.03c-.16-1.14.75-.85,1-1,.12.96-.34.85-1,1Z"/><path class="cls-29" d="M52.07,67.04c3.4.1,8.69.81,4,4-.08,1.57-1.07,2.24-2.96,2.01-1.09,2.49-2.36,4.47-3.82,5.92,3.23,2.43,3.82,4.45,1.79,6.07.67,1.22.2,1.66-1,1h-1l-1-1-1-1c-.89-.29-.87-.62,0-1-4.14-3.5-8.38-9.06-10-13.99-.57-1.2,1.1-1.53,5-1-.02-1.53,1.55-1.48,2,0,.75-.86,2.11-.65,3,0,.61-.73,1.32-.7,2,0,1.3-1.92,2.3-2.26,3-1Z"/><path class="cls-199" d="M67.07,85.04c-.28.13-1.85,1.42-3,2,.91,1.97-.76,2.97-5,3-.64-.06-1.37-.07-2,0-1.73.2-2.32.98-3.5,1l-.5-2c1.2.04,2.43-.55,3.5-1,1.85-.77,4.04-2.78,4.5-3,.87-1.28,3.24-2.74,4-1l1-1c.33-.87.67-.87,1,0,2.28.14,2.18,1.33,0,2Z"/><path class="cls-105" d="M38.08,65.04c3.98.43,7.98.76,12,1,.7,1.15.22,1.55-1,1-.44.8-1.5.73-2,0l-3,1c-.65.06-1.67-.16-2,0-2.83-.44-4.49-.11-5,1,3.15,4.5,7.55,9.39,10,13.99l-1,2c-1.17.21-1.88-1.92-2-2-.16-.7-.64-1.39-1-2l-1-1c-1.87-3.15-3.13-5.31-5-8-1.02-1.47-1.97-3.02-3-4.5l2-1.5c-.66-.29-.64-.63,0-1,.52-.81,1.25-.57,2,0Z"/><path class="cls-95" d="M60.07,84.04c-.78.13-1.68-.08-2.5,0l-6,4-1.5-2c-.16-1.14.74-.85,1-1-.2-3.67,7.52-6.5,10-4l1-1c.24-.89.58-.86,1,0,2.54-.31,1.54,1.02-3,4Z"/><path class="cls-14" d="M68.07,76.04c5.43,1.09,5.7,8.84-1,7-.3.1-.71-.11-1,0l-1,1c-.81.36-3.25.64-4,1-.8.1-1.03-.23-1-1,2.57-2.43,5.24-4.42,8-6-1.78-.58-1.77-1.36,0-2Z"/><path class="cls-83" d="M47.07,83.04c.14.26-.13.73,0,1l1,1c.63.25.6.59,0,1,.49,1.1,1.32,1.7,1,3h-2l-1-4-1-3,2,1Z"/><path class="cls-41" d="M49.07,86.04h-1c-.12-.27.12-.7,0-1,.05.05,1.18-.13,1,1Z"/><path class="cls-7" d="M33.08,74.04l-1-1c.26.25.43.24,1,1Z"/><path class="cls-71" d="M34.08,75.04c-1.13.18-.95-.95-1-1,.04.06.31-.09,1,1Z"/><path class="cls-7" d="M35.08,77.04l-1-1c.04.06.38-.32,1,1Z"/><path class="cls-7" d="M36.08,79.04l-1-1c.03.06,1.18-.15,1,1Z"/><path class="cls-4" d="M43.08,81.04c-1.14.16-.85-.74-1-1,1.14-.16.84.73,1,1Z"/><path class="cls-86" d="M53.07,97.03l1,.5c.31,1.44,1.18,3.11,2,4.5l1,1v1c-.54-.14-1.35.07-2,0v-2h-2l-2-6,2,1Z"/><path class="cls-231" d="M104.06,100.03c.06-.04-.37-.47,1-1l-1,1Z"/><path class="cls-73" d="M37.08,35.06c.1.05.89,1.59,1,2,.73,1.23.23,1.68-1,1,.38,1.11-.37,1.49-2.27,1.13-3.25,2.05-6.16,3.01-8.73,2.87-2.72.99-3.39.66-2-1,1.54-.32,7.27-3.93,9.5-5,.27-.13.72.13,1,0,.72-.33.45-.98.5-1,.29-1.11,1.62-1.19,2,0Z"/><path class="cls-3" d="M24.08,41.06l.5,1h1.5c0,1.97-3.7,5.44-6,4-.11.25.17.93-.5,1h-2.5v-3l4-1v-2c.97-.11,2.12.18,3,0Z"/><path class="cls-19" d="M38.08,33.06l-1,2c-.21-.1-1.71-.11-2,0l-1-1,4-1Z"/><path class="cls-32" d="M140.05,18.07c-.79.38-.88,2.88-1,3-.35.35-5.67,2.71-6.5,4h-1.5c-.93-.26-.91-.59,0-1,.05-.32-.04-.67,0-1,2.2-2.44,4.53-4.77,7-7,1.64.4.46,1.96,2,2Z"/><path class="cls-69" d="M129.05,24.06c.66.04,1.34-.02,2,0-.04.26-.06.75,0,1,.41,1.64,1.69.91,3,1l-2.5,2-7-4c-.47-.15-1.03.09-1.5,0-4.46-4.43,3.45-1.34,6,0Z"/><path class="cls-201" d="M123.06,24.06c.03,1.07-.38.81-1,1-.25.07-.66,0-1,0v-1c.33.03.67-.04,1,0,.26-.79.59-.77,1,0Z"/><path class="cls-237" d="M136.05,28.06c-.05-.12-1.52.08-1-2h1v2Z"/><path class="cls-155" d="M124.06,27.06l-1-1c1.39.45.93.98,1,1Z"/><path class="cls-155" d="M131.05,30.06c-.68-.14-1.11-.05-1-1,.68.14,1.11.05,1,1Z"/><path class="cls-149" d="M129.05,12.07l1,1c.07.05.94.05,1,0l1,1c.29-.63.63-.61,1,0,.34,0,.79-.08,1,0l1,1c.26.1.66-.08,1,0,.64.3.62.63,0,1,.63,2.33-3.97,8.8-7,5-1.64-.02-3.46-1.12-5-2-.59-.13-.99-.33-1-1-2.06.5-1.65-.7,0-2l4-4c.65.06,1.44-.13,2,0Z"/><path class="cls-204" d="M138.05,16.07v1.5c-2.32,1.81-4.1,5.48-7,5.5l-2-2,2.5,1,1.5-1.5-1-1c.57-1.33,2.22-1.3,2.5-1.5.88-.63,1.4-1.93,1.5-2,.28-.62.62-.61,1,0,.28-.04.74-.06,1,0Z"/><path class="cls-138" d="M129.05,24.06c-.82-.05-1.85.17-2.5,0-1.06-.29-2.91-2.53-4.5-2l1,2c-.32-.06-.67.04-1,0l-2-2c.21-1.37.8-1.32,2-1,2.34.55,4.22.79,6.5,2l.5,1Z"/><path class="cls-196" d="M122.06,21.06l-2,1c-.76-.44-.76-1.5,0-2,.84-.02,1,.77,2,1Z"/><path class="cls-10" d="M120.06,22.06c-.95.11-1.22-.6-1-1.5l1-.5v2Z"/><path class="cls-113" d="M123.06,16.07c1.13-1.27,2.15-3.51,4-4-.99,2.24-2.94,2.76-4,4Z"/><path class="cls-196" d="M123.06,18.07v1l-2-1.5c.27-.78,1.88-1.36,2-1.5-.1.12-.28,1.28-1,1.5-.04.63.97.45,1,.5Z"/><path class="cls-113" d="M124.06,19.07c-.26-.15-.84.16-1,0s.15-.73,0-1l1,1Z"/><path class="cls-75" d="M100.06,27.06c1.52-1.27,2.93-2.44,5-2,.09.63-.16,1.59,0,2-1.17,4.24-1.68-.65-.51.6,1.62,1.74-.51,2.83-2.49,3.4-1.1.66-2.61.11-3-1,.06-.65-.12-1.43,0-2l1-1Z"/><path class="cls-30" d="M105.06,27.06c.03.07.43-.36,1,1,.6.52,1.11,1.25,1,2-.62.77-.98.93-1,1h-1c-.88.83-2.2.81-3,0v-2h2l-1-2h2Z"/><path class="cls-157" d="M108.06,29.06l-1,1c-1.55.1-.74-1.39-1-2l2,1Z"/><path class="cls-227" d="M99.06,28.06c.28-1.34.85-.88,1-1l-1,1Z"/><path class="cls-36" d="M97.06,29.06v-1c.02.05,1-.15,1,.5-.17.67-.98.45-1,.5Z"/><path class="cls-80" d="M107.06,30.06l1-1c.07,1.24-.96.94-1,1Z"/><path class="cls-165" d="M102.06,31.06c.97.11,2.01-.07,3,0l-.5,1c-2.37.3-3.55-.04-5.5-1v-1c1.24.75,1.63.84,3,1Z"/><path class="cls-219" d="M134.05,40.06l-1-1c.33-.03.67.04,1,0v1Z"/><path class="cls-6" d="M139.05,54.05c.12-.06-.07-1.52,2-1v1h-2Z"/><path class="cls-21" d="M136.05,53.05c.15-.12.03-1.57,2-1v1h-2Z"/><path class="cls-207" d="M84.07,84.04l1,1v-3l3.5,2,.5-2,2,1.5,2-.5-1,3,3.5-1,1.5,2.5-2,1,1-1.5c-1.64-.54-1.99.85-2.5,1-1.25.36-1.87-1.51-3.5-1,.07.64-.14,1.47,0,2-2.09-1.11-2.54-1.93-5-3-1.5,1.36-3.37-.49-2-2,.28-.87.62-.86,1,0Z"/><path class="cls-207" d="M95.06,93.03c.15.51-.07,1.36,0,2-2.21-1.48-4.31-3.38-5-6,.3.16.98-.21,1.5,0,.63.26,3.26,3.14,3.5,4Z"/><rect class="cls-207" x="95.06" y="83.04" width="3" height="1"/><path class="cls-233" d="M109.06,91.03h-1c-.12-.96.34-.85,1-1v1Z"/><path class="cls-233" d="M106.06,92.03l1-1c-.07.03.37.47-1,1Z"/><path class="cls-233" d="M104.06,93.03c.07-.03-.36-.43,1-1l-1,1Z"/><path class="cls-233" d="M102.06,94.03c.06-.03-.35-.42,1-1l-1,1Z"/><path class="cls-233" d="M98.06,96.03h-1c-.12-.99.38-.83,1-1v1Z"/><path class="cls-110" d="M99.06,76.04c-.31.38-.75,1.79-1.5,2-.98.28-2.18-.5-3,1-.36-.68-.99-.77-1.5-1v-1.5c1.28-1.93,3.17-1.22,5-2.5l1,2Z"/><path class="cls-110" d="M85.07,77.04c1.93-.27,3.26.06,4,1,1.08-.19,1.28-1.31,2.5-1,.68.18.45.98.5,1l-6,3,1-1.5-2,.5c-.83-.33-1.49-1-2-2-1.52-1.66-.92-2.23,1-1,.22-.05.84-.07,1,0Z"/><path class="cls-50" d="M84.07,80.04c.34.72-.22,2.88,0,4h-1c-.23,2.35-2.18.86-1-1,.07-.16.05-.79,0-1-1.95-1.66-1.95-2.66,0-3-1.53-1.41-.93-1.98,1-1,.91.35,1.34,1.1,1,2Z"/><path class="cls-203" d="M83.07,78.04c.13-.13,1.36.07,2,0v2h-1c-.06-.12-2.26-.74-1-2Z"/><path class="cls-110" d="M100.06,75.04l-1-.5,1-.5c-.08.33.13.8,0,1Z"/><path class="cls-82" d="M89.06,76.04v2c-2.67.48-3.03-.56-4-1h1l1-1c.27-.11.68.08,1,0,.3-.58.63-.57,1,0Z"/><path class="cls-110" d="M89.06,76.04h-1c-.16-1.14.73-.84,1-1v1Z"/><path class="cls-18" d="M89.06,67.04l.5,1h3.5c-.85,1.93-5.5-.09-5,4h-3c-.87-.28-.86-.62,0-1-2.77-.5,1.03-2.25,2.64-2.24,1.16,0-.29,1.2-.64-.75-.88-2.59-.02-2.79,2-1Z"/><path class="cls-200" d="M93.06,62.05c.3-.64.63-.63,1,0,.05.32-.03.67,0,1v1c.64.29.63.63,0,1-.42.13-1.04-.2-1.5,0-.93.4-2.3,1.48-3.5,2-1.03.45-1.69.86-2,1-1.18,1.93-4.58,3.29-7,3-1.11-1.06-1.11-2.06,0-3-3.38-1.07.53-3.02,2.19-2.58.11-1.5.71-2.31,1.81-2.42h1l1.5-1,4,2,2.5-2Z"/><path class="cls-38" d="M94.06,62.05h-1v-1c.92-.11.88.28,1,1Z"/><path class="cls-46" d="M95.06,64.05c-.3.58-.63.57-1,0-.02-.33.03-.67,0-1l1,1Z"/><path class="cls-38" d="M94.06,65.04v-1h1c.13,1.01-.42.82-1,1Z"/><path class="cls-118" d="M74.07,71.04c1.98-.56,2.65.15,3,2,1.45-.13,2.78-.46,4-1,.55-1.38,3.04-2.25,4-1v1l-2,2.5c-.05.62.97.46,1,.5.13.17-.08.67,0,1-.1.58-.5.84-1.01,1.08-1.74.8-5.88,2.63-6.99,1.92-.41.2-.74-.14-1-1-3.35-.14-6.88-7.79-2-7,.29-.65.63-.64,1,0Z"/><path class="cls-64" d="M84.07,76.04v1c-1.37.3-.94.96-1,1-1.16.7-.93.98-1,1-1.16,1.21-1.83,1.21-2,0-.41.07-.76-.12-1,.5.31,1.82-.24,1.64-2,1.5-1.87,1.39-2.44.79-1-1-.66-.3-.65-.63,0-1,1.95-1.44,3.91-2.2,5.5-4l2.5,1Z"/><path class="cls-110" d="M86.07,77.04l1-1c-.07.03.16,1.18-1,1Z"/><path class="cls-15" d="M110.06,45.05c-.23.83-.89,1.5-2,2,.05.7-.62,1.37-2,2-.32.06-.67-.03-1,0,.03-.85-.79-.99-1-2-.17-1.61.83-2.61,3-3,.82.07,1.67-.04,2.5,0,.62.14.43.58.5,1Z"/><path class="cls-156" d="M106.06,44.05c.32-.02.68-.03,1,0l-.5,1h-1.5l1,2h-2c-.06-.28,0-.67,0-1-.75-.62-.76-1.34,0-2,.57-.81,1.28-.7,2,0Z"/><path class="cls-194" d="M110.06,45.05c.1.6-.04,1.34,0,2h-1c-.29.69-.63.68-1,0,.17-.35-.09-1.37,0-2h2Z"/><path class="cls-15" d="M106.06,44.05c-.66.04-1.34-.02-2,0,.15-.15.15-1.59,1.5-1l.5,1Z"/><path class="cls-230" d="M104.06,46.05l-1-.5c-.59-1.35.85-1.35,1-1.5,0,.66,0,1.34,0,2Z"/><path class="cls-45" d="M110.06,49.05c.04-.32,0-.67,0-1h1l-1,1Z"/><polygon class="cls-33" points="104.06 50.05 103.06 49.05 104.06 49.05 104.06 50.05"/><path class="cls-45" d="M109.06,47.05c-.42,1.94-1.64,1.76-3,2-.18-1.22,1.94-1.87,2-2h1Z"/><path class="cls-18" d="M84.07,63.05c-.09,1.33.16,3.52-1.5,4-.64.18-1.44-.21-2,0-.7.26-.45.98-.5,1-1.22,2.19-3.88,2.19-8,0-1.46.87-6.46-3.56-3-4,1.87-1.47,3.87-.94,6,0,1.51.81,4.54.87,6,0-.85-.31-.84-.65,0-1l1-3c-.64-.16-.59-.5,0-1l1-1c.01.05.83-.19,1,.5.24.98.08,3.29,0,4.5Z"/><path class="cls-126" d="M86.07,52.05c-.31.94-.96,1.92-2,2,.38-1.03,1.23-1.4,1-2.5l1-.5c0,.33.08.77,0,1Z"/><path class="cls-113" d="M130.05,13.07l-1-1c1.37.31.94.96,1,1Z"/><path class="cls-113" d="M132.05,14.07c-.06.03.15,1.18-1,1v-2c.32.05.68-.07,1,0,.64.3.63.63,0,1Z"/><path class="cls-78" d="M133.05,14.07c-.34,0-.83-.09-1,0v-1c.67.15,1.12.05,1,1Z"/><path class="cls-78" d="M135.05,15.07c-1.37-.54-.93-.97-1-1l1,1Z"/><path class="cls-78" d="M137.05,16.07c-.36.05-.84-.11-1,0v-1c.66.15,1.12.04,1,1Z"/><path class="cls-104" d="M53.07,40.06h2v2c2.39-.25,3.68,2.51,5.5,4,.23.19,1.64-.41,1.5,1l-2.11.86c-1.34,4.62-7.48-3.89-5.88-5.86l-1-1v-1Z"/><path class="cls-2" d="M53.07,38.06c-.28-1.11-2.71-4.31-2-5l4-1c.52.43-3.94,3.4-1,4l-1,2Z"/><path class="cls-167" d="M53.07,42.06c.31-.47.64-.45,1,0,.68,1.09,3.73,7,4.5,7,.99-1.91,2.56-1.57,3.5-2l-2,1v2c-.25.83-.59.81-1,0-.12,1.3-2.26,1.97-3,1-3.16-2.85-5.16-5.85-6-9-.85-.3-.84-.64,0-1,.4-.79,1.4-.46,3,1Z"/><path class="cls-167" d="M67.07,50.05l-.5,1c-2.23-.36-3.53.66-5.5,1-.87-.28-.86-.62,0-1l1-2c1.74,1.34,3.01.89,5,1Z"/><path class="cls-49" d="M61.07,51.05v1c-.32.06-.67-.05-1,0-.28.54-.61.52-1,0-2.7-.4-2.37-.92,0-2,.29-.03.76-.07,1,0,.61.17,1.13,0,1,1Z"/><path class="cls-195" d="M70.07,49.05h-2.5l-.5-1,2-1h1c-.08.64.04,1.34,0,2Z"/><polygon class="cls-243" points="69.07 47.05 67.07 48.05 67.57 47.05 69.07 47.05"/><path class="cls-141" d="M81.07,45.05c.64.29.63.63,0,1-.6.13-1.56-.17-2,0,.12-.05-.41-.62,2-1Z"/><path class="cls-225" d="M79.07,46.05c-.05.02.17.83-.5,1h-1.5c1.15-.84.96-.54,2-1Z"/><path class="cls-225" d="M81.07,46.05v-1c.32-.05.67.02,1,0,.12.95-.33.85-1,1Z"/><path class="cls-94" d="M49.07,31.06l-2,1c-.02.66.04,1.34,0,2v1c-1.11,2.14-2.52,1.71-4,0-.82.05-1.67-.03-2.5,0-.61-.14-.43-.58-.5-1,.87-3.3,2.2-4.3,4-3,.67-2.06,3.05-2.56,5-2-.2.35-.29,1.21-1,1.5l1,.5Z"/><path class="cls-16" d="M52.07,40.06l1,1v1l-.5,1-2.5-2c-2.36-.31-5.52-4.67-3-6-.05-.3-.02-.69,0-1,2.02,1.4,3.38,3.85,5,6Z"/><path class="cls-1" d="M66.07,25.06c-.7-.15-2.28-.14-3,0l.5-1h2l.5,1Z"/><path class="cls-94" d="M59.07,27.06c.07-.03-.38-.52,1-1l-1,1Z"/><path class="cls-94" d="M57.07,28.06c.06-.03-.36-.45,1-1l-1,1Z"/><path class="cls-94" d="M55.07,29.06c.07-.02-.34-.39,1-1l-1,1Z"/><path class="cls-94" d="M52.07,30.06c.06-.03-.38-.56,1-1l-1,1Z"/><path class="cls-167" d="M53.07,41.06c-.72-.5-.6-.47-1-1h1v1Z"/><path class="cls-186" d="M63.07,21.06l1,1c-.03.46.06.8-.5,1-.67.16-1.47-.21-2,0-2.02.78-4.63,2.16-6.5,3l-1,1c-.85.37-3.13.63-4,1l-1,1c-1.66.7-3.34,1.28-5,2-2.53,1.55-3.87-.11-4-5l1-1h1c1.31-.06,1.75.93,1,2,2.07,0,4.07-.33,6-1,.3-.64,1.3-.97,3-1,.31.04.68.01,1,0l2-1c1.13-.29,1.69-.18,3-1l1-1c.34-.08.75.11,1,0l2-2c1.13-.18.94.94,1,1Z"/><path class="cls-128" d="M60.07,22.06l2-2c-.06,1.09-1.09,1.62-2,2Z"/><path class="cls-128" d="M64.07,22.06l-1-1c.05.05,1.07-.23,1,1Z"/><path class="cls-94" d="M54.07,27.06l1-1c-.06.03.35.41-1,1Z"/><path class="cls-93" d="M49.07,29.06c.15-.26-.14-1.16,1-1-.07.03.36.43-1,1Z"/><path class="cls-210" d="M41.08,37.06c.87.27.86.61,0,1l1,1c2.08-.83,2.58.43,1,2l.02,2.17-10.23,4.25c-.22,2.52-.77,5.1-3.4,4.08-1.2,4.02-3.24,2.71-4.37-.51-1.61,1.22-2.18.69-1-1-1.94-3.3-2.18-4.75,1.65-6.57l11.35-5.42c-.17-1.15.86-.89,1-1,.38-.29,1.47-.88,2-1,.59.12.99.34,1,1Z"/><path class="cls-142" d="M44.08,37.06l1,1c2.54.08,3.87,2.08,4,6,1.96,3.38,3.26,6.87-1,3-2.21,1.77-3.23.54-2-2-2.75,1.03-4.99-1.78-3-4-.28-.39-.71-1.58-1-2l-1-1c-.1-.3.07-.68,0-1v-1c1.53.15,1.7.36,3,1Z"/><path class="cls-224" d="M47.07,35.06c.43,2.56,1.44,3.8,3,6-.08.33.11.76,0,1,.75,1.59.42,2.25-1,2-.24-.11-.83.18-1-.5.34-2.26-1.64-3.75-3-5.5l-1-1c-.36-.56-.84-1.33-1-2,1.14-.07,1.74.19,2.5-1l1.5,1Z"/><path class="cls-12" d="M44.08,31.06c-.24.11-.82-.18-1,.5v2.5h-3c-.2-1.24.13-2.71,0-4h-2c-.07-.65.14-1.46,0-2,.42.25,1.86,1.16,2,1,.25-1.22-.41-1.98-1-3h1c.76,1.68,1.42,4.08,3.5,4l.5,1Z"/><path class="cls-206" d="M36.08,25.06c-1.47-.77-.89-2.07-3-3v-1c1.54,1.71,2.24.73,3,4Z"/><path class="cls-206" d="M38.08,28.06c-.98-.6-1.58-.63-2-2,1,.08,1.76,1.06,2,2Z"/><path class="cls-94" d="M41.08,37.06l-1-1c.27-.06.71-.03,1,0v1Z"/><path class="cls-93" d="M49.07,26.06c-.11.05-.61,1.75-1.5,2-.98.28-2.18-.5-3,1-.84-.43-1.12-1.49-1.5-2-.42-1.89.69-2.43,2-1,.65-.35,1.31-.7,2-1,.8.24,1.47.57,2,1Z"/><path class="cls-228" d="M45.08,26.06c-.64.35-1.28.85-2,1-.03-.05-.84.16-1-.5v-1.5l.5-1c1.09-.27,2.28.84,2.5,2Z"/><path class="cls-94" d="M52.07,25.06l-.5,1c-.76.15-1.99-.23-2.5,0h-1.5l-.5-1c.28-.12.71.12,1,0l1-1c.07-.05.94-.05,1,0,.72.6-.12.73,2,1Z"/><path class="cls-93" d="M48.07,25.06l1-1c-.06.04.36.45-1,1Z"/><path class="cls-94" d="M55.07,24.06l-.5,1c-.5.02-1-.02-1.5,0l.5-1c.52-.12,1.08.11,1.5,0Z"/><path class="cls-128" d="M58.07,23.06c-.12-.96.34-.85,1-1,0,1.26-.75.84-1,1Z"/><path class="cls-67" d="M46.08,45.05c1.08,1.44.47,2.73-1.83,3.87.31,2.82-.41,4.53-2.17,5.13l-1,1c-.31,1.26-3.1,2.54-4,1-1.49.33-2.28.95-2.5,1-1.7.38-3.89-.8-5,1l-1.5-1c-1.85-.9-5.68-5.52-3-6,1.83.8.19,2.26,2,2v-4l5,1-2-1,1.5-3,11.5-5c.82,1.14,1.92,2.55,3,4Z"/><path class="cls-99" d="M24.08,50.05c.09.09-.31.43,1,1v1.5c1.55,1.17,2.21,2.78,3,4.5l-.5,1c-.35-.89-2.28-1.74-2.5-2-.54-.66-.86-2.3-1-2.5-.66-.96-1.95-1.39-2-1.5-.26-.58.16-2.1,0-3h1c.74-.06,1.07.27,1,1Z"/><path class="cls-119" d="M41.08,55.05c1.66-.07,1.66.6,0,2l-2,1c-.33.03-.67-.01-1,0-.57.65-1.45.75-2,0l1-2c1.38-.31,1.79-.82,4-1Z"/><path class="cls-67" d="M36.08,58.05c.62-.1,1.34.03,2,0l-.5,1c-2.4-.11-5.2.69-7,2h-1.5c-.11-1.41,1.04-.76,1.5-1,1.81-.92,3.44-1.68,5.5-2Z"/><path class="cls-17" d="M26.08,62.05v-1c.38.09.8-.14,1,.5,0,.66-.74.39-1,.5Z"/><path class="cls-214" d="M37.08,38.06v3l-1.5-1-8.5,4v2c-1.46-.44-1.33-1.69-2.5,0l-.5,4c-.35-.35-.63-.59-1-1-.6-.12-1-.32-1-1-.52-.65-.71-.71-1-1-.05-.05.13-1.18-1-1,.58-1.36,4.6-3.33,6-4,1.62-.77,7.24-3.64,8.5-4,.66-.19,1.69.11,2.5,0Z"/><path class="cls-56" d="M23.08,49.05h-1v-1c.04.06.57.53,1,1Z"/><path class="cls-56" d="M22.08,52.05l-.5,1c-.84-.52-.54-1.07.5-1Z"/><path class="cls-161" d="M33.08,64.05l2,1c.66.29.64.63,0,1-2.01-.55-1.89.93-2,1l-1,1c-.44.31-1.44.72-2,1-.54-.72.2-1.54,1-2,.03-.05,1,.14,1-.5-.18-.61-.56-.43-1-.5l-1-2.5,1-.5c.51.32,1.49.68,2,1Z"/><path class="cls-171" d="M27.08,71.04c.06-1.09,1.09-1.62,2-2-.46.61-.78,2.06-2,2Z"/><path class="cls-208" d="M36.08,66.04h-1v-1c.33-.64.67-.64,1,0v1Z"/><path class="cls-105" d="M32.08,68.04c.06-.04,0-.32,1-1l-1,1Z"/><path class="cls-100" d="M68.07,88.03c3.68.49,9.75,5.54,7,9-1.15,1.34-.7,2.46-1,3.5-.16.55-1.78,1.39-2,2-.51,1.43,1.18,3.07-2,2.5l.5-2h-1.5v-4l-3-1h4l1-3-4-1-1,3-.5-2c-1.38,1.99-2.44-.79-3.5-1.5l1-2c-1.21-1.87-2.21-1.34-4-1.5l.5-1c1.5-.25,3.03-1.26,4.5-2l.5,1h3.5Z"/><path class="cls-58" d="M68.07,88.03l4-2v2h2l1,4h2c-.04,2.62,2.26,4.17,3,6.5.35,1.11,2.86-.47,2,2.5-.24-.15-.76.15-1,0-6.34.42-3.66-4.12-3.32-3.52.22.38-1.03.61-1.68-.47h-1l-1-.5,1-1-2-.5,1-2c-2.67.46-3.33-3.46-6-3v-2Z"/><path class="cls-100" d="M76.07,97.03l1.5-1,1.5,2-2,2c1.03-.07.69-.91,2-.5,1.54.48,1.89,1.43,2,1.5l-7,2,2-1.5v-4.5Z"/><path class="cls-100" d="M77.57,103.03c.65,0,.65,1,0,1s-.65-1,0-1Z"/><path class="cls-217" d="M67.07,70.04l1,1c.88.3.87.63,0,1l2,3c1.16-1.02,4.58,2.72,3,4,.72.85,1.72,1.18,3,1,.15.66.04,1.12,1,1l-2,1.5c.84,1.06,2.27,1.95,3,3,2.82,4.06,5.36,9.4,8,13.49.18,1.16-.98.93-1,1l-8-11.49-5.5-5.5c-.78.62-2.19,1.62-3,2-.48.23-1.17-.16-1.5,0v-2c1.36-.48,2.11-1.5,4-1l-1-1.5,1-1-3-3.5c-.86-.28-.84-.61,0-1l-2-2c-.88-.3-.87-.63,0-1-4.46-3.5-2.93-5.66,1-2Z"/><path class="cls-166" d="M83.07,84.04c.63.7.44,1.32,2,2v1.5c2.25,1.43,2.73,3.65,4,5.5l-1,.5v1.5c-1.3-.57-3.02-5.1-4-6.5-.74-1.05-2.16-1.94-3-3-.7-2.43.94-2.36,1-2.5-.18,1.13.95.95,1,1Z"/><path class="cls-198" d="M82.07,79.04l-1,1.5c.59.45.82.77,1,1.5l-2-1.5v-1.5c.62-.11,1.55.16,2,0Z"/><polygon class="cls-103" points="63.07 100.03 61.07 102.03 61.07 100.03 63.07 100.03"/><path class="cls-39" d="M57.07,103.03c-1.14.16-.85-.74-1-1l1,1Z"/><path class="cls-41" d="M56.07,71.04c7.72-2.68,9.07,2.76,5,9,.64.3.63.63,0,1-3.29,1.18-6.83,2.11-10,4l-1-2.5c-2.89-2.54-5.34-5.56-6-9.5l4,3,1,2,.5-3-.5-2h2v-2c1.34.28,4.12-.41,5,0Z"/><path class="cls-238" d="M58.07,66.04c1.2-1.02,3.23-.43,4,1,1.4,1.45,2.73,3.12,4,5,.13.25-.12.7,0,1l2,2c.1.16-.03.64,0,1,.06.62.12,1.46,0,2-1.35,1.25-3.02,1.91-5,2-.25.11-.67-.08-1,0-.3.57-.63.56-1,0-2.51-.57.36-2.23,0-3.5l-2-2,1.5.5,1.5-3-3.5,1c-.87-.43-2.34-1.92-2.5-2v-1.5l-1.5-1.5-2.5,1v-2c.33-.65.66-.65,1,0l2-1c.65-1.2,2.21-1.2,3,0Z"/><path class="cls-208" d="M42.08,68.04c-.05.02.13,1.05-.5,1l-4-1-.5,1c-.08-.11-1.55,0-1-2l6,1Z"/><path class="cls-108" d="M53.07,66.04c.87.28.86.62,0,1-.34.04-.69-.06-1,0-1.43.29-2.32.92-3,1-.87-.28-.86-.62,0-1,.67-.15,1.12-.04,1-1-.87-.28-.86-.62,0-1,.18-.89.52-.86,1,0l2,1Z"/><path class="cls-108" d="M47.07,67.04c.87.28.86.62,0,1-.98.1-2.02-.09-3,0l.5-1c.83-.05,1.68.08,2.5,0Z"/><path class="cls-208" d="M49.07,67.04v1c-.65.07-1.35-.07-2,0v-1c.65-.06,1.44.13,2,0Z"/><path class="cls-105" d="M48.07,85.04c-.03-.07-.36.31-1-1l1,1Z"/><path class="cls-217" d="M65.07,84.04l1-1c-.07.02.35.41-1,1Z"/><path class="cls-9" d="M68.07,78.04c-.25,1.16-1.47,1.56-1,3-.41.5-1.25-1-1.5-1-.51,0-2.44,3.5-5.5,4,.07-1.85,3.13-1.97,4-3.5l-1-.5c.05-.02-.2-.72.5-1,1.43-.56,2.75-1.25,4.5-1Z"/><path class="cls-9" d="M61.07,81.04v-1h1c.14,1.05-.49.82-1,1Z"/><path class="cls-113" d="M128.56,17.07c.65,0,.65,1,0,1s-.65-1,0-1Z"/><path class="cls-24" d="M87.07,68.04l2,.5c-1.18,2.03-2.63,1.13-3.5,1.5-.71.3-.45.98-.5,1-.82.36-3.24.64-4,1-1.94,1.31-2.47.76-1-1,2.34-1.16,4.86-2.03,7-3Z"/><path class="cls-42" d="M80.07,68.04l1,.5c.41,1.21-.98,1.48-1,2.5-.02,1.86-1.44,2.4-3,2-.54-.19-1.82.18-2,0-.09-.09-.15-.81-1-2-1.06-.18-1.54-1.1-2-2-.87-.33-.86-.66,0-1l.5-1c2.39-.9,6,1.7,7.5,1Z"/><path class="cls-54" d="M71.07,70.04c.28-.87.62-.86,1,0,.71-.12,1,.3,1,1l-1,2.5,1,2.5h2c.09.63-.16,1.59,0,2,1.58,2.2-1.3,3.38-2,1-.3-.69-2.55-3.2-3-4l-2-3c-.15-.22.14-.72,0-1l-1-1c-.47-.31-.46-.64,0-1-1.54-3.69,2.44-1.15,4,1Z"/><path class="cls-145" d="M81.07,72.04c-.26.13-.73,2.71-3.5,2-.69-.18-.45-.98-.5-1l.5-1c1.01.17,1.57-.54,2.5-1-.02.78.2,1.1,1,1Z"/><path class="cls-18" d="M74.07,71.04h-1c-1.01.13-.82-.42-1-1-.83-.27-.81-.61,0-1,1.21-.05,1.54,1.35,2,2Z"/><path class="cls-117" d="M76.07,79.04c.1.27-.08.66,0,1l-3,1c-.09-.63.17-1.62,0-2l2,1v-2c.03.07.49-.38,1,1Z"/><path class="cls-175" d="M68.07,64.05c.29-.67.63-.66,1,0v1.5c.4.96,2.79,2.2,3,2.5.14.2-.11.66,0,1,.1.3-.09.69,0,1h-1l-2.63-2.44c-2.8.28-5.59-1.67-2.37-3.56.25-.83,1.46-.71,2,0Z"/><path class="cls-103" d="M54.07,42.06h-1v-1c.57.4.5.21,1,1Z"/><path class="cls-242" d="M50.07,42.06c.06,2.06,2.86,1.86,3,2,.19.19-.26,1.03,0,1.5.56,1.01,3.99,3.52,4,4l-1,1.5c-.24.83-.57.8-1,0-.02,1.86-1.8,1.98-2,0-1.71-1.46-3.04-3.79-4-7,0-2.49.94-1.88,1-2Z"/><path class="cls-97" d="M59.07,50.05v2l-2,1c-.35.02-.73-.07-1,0-2.69.64-2.98-.12-1-2,.34-.02.7.06,1,0,1-.19,1.21-.82,3-1Z"/><path class="cls-167" d="M59.07,52.05c.33-.04.67.05,1,0l-.5,1c-.83.04-1.68-.06-2.5,0l.5-1c.5-.06,1.01.06,1.5,0Z"/><path class="cls-94" d="M42.08,39.06c-.04-.06-.55.38-1-1l1,1Z"/><path class="cls-63" d="M48.07,47.05c2.77,1.03,3.77,2.36,3,4,.88.33.88.67,0,1l-2,1c-.23,1.15-1.7,1.35-2,0l-2,1c-.24.76-.58.73-1,0-.43.87-1.22.62-2,0v-6l4-3c.28.37,1.72,1.63,2,2Z"/><path class="cls-97" d="M53.07,51.05c-.71,1.82-1.37,1.82-2,0-.04-.04-.55.22-1-.5-.16-.25.15-.78,0-1-.55-.82-1.37-1.66-2-2.5l2,1c.17-1.71-.99-2.12-1-4,1.65.72,1.89,4.34,4,5.5v1.5Z"/><path class="cls-94" d="M45.08,38.06c-.04-.06-.32.05-1-1,.35.17,1.16-.12,1,1Z"/><path class="cls-180" d="M44.08,54.05c.87.28.86.62,0,1-1.17.76-2.53,1.44-3,0,.16-.64.03-1.12,1-1,.66-.03,1.35.06,2,0Z"/><path class="cls-180" d="M53.07,54.05c-1.08.51-2.92,1.49-4,2-1.26.59-5.28.76-7,1-1.57-1.62,1.56-2.08,3-1,.27-1.58,7.89-4.96,8-2Z"/><path class="cls-67" d="M41.08,57.05c.25-.87.58-.85,1,0-.11.24.18.82-.5,1-.83.04-1.68-.07-2.5,0l.5-1c.5-.04,1.01.03,1.5,0Z"/><path class="cls-176" d="M44.08,55.05c1.63-.86,2.14-.5,1,1-.69.18-1.7-.12-2.5,0-.68.18-.39.76-.5,1-.32.04-.67-.02-1,0,.07-.65-.14-1.46,0-2,.93-.07,2.11-.11,3,0Z"/><path class="cls-208" d="M50.07,65.04v1h-11.5l-.5-1c3.96.11,8.04.12,12,0Z"/><path class="cls-183" d="M62.07,64.05c-.03-.59,1.22-.73,1.53-.5,1.56,1.15,2.82,3.81,3.47,5.49v1c-.98-.62-1.82-1.22-3-1-.27.23,1.54,2.15,2,3-1.34-.68-3.14-2.32-4-3.5-.27-.37.17-1.14,0-1.5-.85-1.4-2.62-1.96-4-1-.98-.08-2.01.04-3,0-.66.75-1.38.74-2,0-.87-.28-.86-.62,0-1,1.92-.93,3.92-1.59,6-2,.33-.03.67.02,1,0l2,1Z"/><path class="cls-183" d="M70.07,75.04l-1-.5-1-2.5c.07.1,1.39.59,2,1.5.27.41-.17,1.19,0,1.5Z"/><path class="cls-18" d="M68.07,71.04l-1-1c.49.31.47-.09,1,1Z"/><path class="cls-183" d="M68.07,75.04c-.08-.12-1.32-.36-2-2l2,2Z"/><path class="cls-223" d="M62.07,67.04c-.45-.96-2.95-.91-4-1l.5-1c1.67-.3,3.06.27,3.5,2Z"/><path class="cls-223" d="M55.07,66.04l-.5,1c-.5.07-1.02-.06-1.5,0v-1c.65.08,1.34-.02,2,0Z"/><path class="cls-47" d="M53.07,65.04v1c-.51-.06-1.08.16-1.5,0-.54-.21-.5-.53-.5-1,.6-.7,1.29-.57,2,0Z"/><path class="cls-18" d="M64.07,63.05c1.09.03,1.76.37,2,1v2c2.08-.23,3.94,2.16,5,4-1.69-.62-3.13-3.62-4-1l-4-2,1-3h-2c-.87-.28-.86-.62,0-1,.66-.03,1.34.03,2,0Z"/><path class="cls-223" d="M66.07,63.05c.65-.04,1.35.08,2,0v1h-2l-2-1c.66-.03,1.34.04,2,0Z"/><path class="cls-37" d="M53.07,51.05c.57.11,1.37.04,2,0l1,2c-.17.05-2.78.9-3,1-1.11.15-2.52-.23-3.5,0-.78.19-3.24,1.67-4.5,2,.1-.89-.25-.91-1-1v-1c.34-.03.7.06,1,0l2-1c.61-.11,1.48.15,2,0l2-1c-.08-.33.13-.84,0-1l.5-1c.47.57.74.86,1.5,1Z"/><path class="cls-180" d="M47.07,53.05l-.5,1h-1.5c.13-.03-.41-.55,2-1Z"/><path class="cls-180" d="M51.07,52.05l-.5,1h-1.5c.13-.04-.1-1.52,2-1Z"/><path class="cls-223" d="M59.07,63.05l-.5,1c-2.03.22-3.37.76-5.5,1-.65.07-1.34-.03-2,0,0-.44-.04-.87.5-1,1.89.82,3.62-.93,4-1,1.05-.18,2.36.1,3.5,0Z"/><path class="cls-223" d="M62.07,63.05v1h-1.5l-.5-1c.66-.04,1.34.03,2,0Z"/></g></svg>