<?xml version="1.0" encoding="UTF-8"?><svg id="_圖層_2" xmlns="http://www.w3.org/2000/svg" viewBox="0 0 146.96 121.04"><defs><style>.cls-1{fill:#848586;}.cls-2{fill:#838285;}.cls-3{fill:#939190;}.cls-4{fill:#9e9d9d;}.cls-5{fill:#8b8c8a;}.cls-6{fill:#828082;}.cls-7{fill:#989592;}.cls-8{fill:#9a9a99;}.cls-9{fill:#949291;}.cls-10{fill:#868688;}.cls-11{fill:#8e8f90;}.cls-12{fill:#9a9a9a;}.cls-13{fill:#9e9b9c;}.cls-14{fill:#808082;}.cls-15{fill:#92908f;}.cls-16{fill:#848484;}.cls-17{fill:#7d7d7d;}.cls-18{fill:#868586;}.cls-19{fill:#8d8c8d;}.cls-20{fill:#86878b;}.cls-21{fill:#747078;}.cls-22{fill:#868786;}.cls-23{fill:#9f9f9f;}.cls-24{fill:#8a8888;}.cls-25{fill:#7a7e84;}.cls-26{fill:#adaaa6;}.cls-27{fill:#a4a2a2;}.cls-28{fill:#929496;}.cls-29{fill:#898888;}.cls-30{fill:#929597;}.cls-31{fill:#7c7a7a;}.cls-32{fill:#7f7c75;}.cls-33{fill:#8e8d8d;}.cls-34{fill:#727277;}.cls-35{fill:#8d8c86;}.cls-36{fill:#777077;}.cls-37{fill:#a7a4a0;}.cls-38{fill:#a4a6a6;}.cls-39{fill:#838385;}.cls-40{fill:#989491;}.cls-41{fill:#828284;}.cls-42{fill:#8a8788;}.cls-43{fill:#7f7f83;}.cls-44{fill:#82807f;}.cls-45{fill:#8d8c8b;}.cls-46{fill:#79787c;}.cls-47{fill:#8b8a8c;}.cls-48{fill:#979593;}.cls-49{fill:#9f9996;}.cls-50{fill:#898789;}.cls-51{fill:#7d7e7e;}.cls-52{fill:#8f908f;}.cls-53{fill:#757373;}.cls-54{fill:#72747c;}.cls-55{fill:#707075;}.cls-56{fill:#7d7c79;}.cls-57{fill:#8c8b8c;}.cls-58{fill:#838586;}.cls-59{fill:#908f90;}.cls-60{fill:#979595;}.cls-61{fill:#8a898a;}.cls-62{fill:#7a7b7b;}.cls-63{fill:#8e8c8c;}.cls-64{fill:#777578;}.cls-65{fill:#898589;}.cls-66{fill:#919091;}.cls-67{fill:#797a7d;}.cls-68{fill:#7f7e7f;}.cls-69{fill:#6a696d;}.cls-70{fill:#898a8c;}.cls-71{fill:#787a7a;}.cls-72{fill:#959597;}.cls-73{fill:#838281;}.cls-74{fill:#9c9997;}.cls-75{fill:#979390;}.cls-76{fill:#797c7d;}.cls-77{fill:#7e7d7e;}.cls-78{fill:#777778;}.cls-79{fill:#868687;}.cls-80{fill:#67686a;}.cls-81{fill:#7e7978;}.cls-82{fill:#959392;}.cls-83{fill:#828184;}.cls-84{fill:#7a7d7e;}.cls-85{fill:#97989a;}.cls-86{fill:#737077;}.cls-87{fill:#999696;}.cls-88{fill:#8f9092;}.cls-89{fill:#909091;}.cls-90{fill:#98999f;}.cls-91{fill:#82817f;}.cls-92{fill:#545654;}.cls-93{fill:#767373;}.cls-94{fill:#a19f9f;}.cls-95{fill:#71716c;}.cls-96{fill:#888c8e;}.cls-97{fill:#898788;}.cls-98{fill:#858584;}.cls-99{fill:#929192;}.cls-100{fill:#8d8d90;}.cls-101{fill:#898889;}.cls-102{fill:#8e8b8c;}.cls-103{fill:#908e8e;}.cls-104{fill:#787c81;}.cls-105{fill:#888788;}.cls-106{fill:#949494;}.cls-107{fill:#9db5a4;}.cls-108{fill:#a6a7ab;}.cls-109{fill:#858487;}.cls-110{fill:#908f8e;}.cls-111{fill:#868181;}.cls-112{fill:#8d8c8c;}.cls-113{fill:#9e9d9c;}.cls-114{fill:#979594;}.cls-115{fill:#7d7e80;}.cls-116{fill:#817f80;}.cls-117{fill:#8b8888;}.cls-118{fill:#6c6e74;}.cls-119{fill:#838482;}.cls-120{fill:#7d7c80;}.cls-121{fill:#9b9a98;}.cls-122{fill:#8e8f8e;}.cls-123{fill:#909093;}.cls-124{fill:#848787;}.cls-125{fill:#9d989a;}.cls-126{fill:#7f7d7b;}.cls-127{fill:#8a8b8a;}.cls-128{fill:#818181;}.cls-129{fill:#65696e;}.cls-130{fill:#8c8b8d;}</style></defs><g id="_圖層_1-2"><path class="cls-109" d="M138.97,86.96c1.78.18,2.38,1.05,4,1-.57,1.53,1.8,3.57,2,4.5.77,3.56-.91,7.13-3,10,2.27,2.38,3.78,4.37,4,7.5.84,1.22.87,3.81,0,5-.03.33.02.67,0,1l-2,2c-.27.29-.2.42-1,1l-1,1c-.3.07-.66-.04-1,0-.62.75-1.33.75-2,0-.21.69-.55.65-1,0-1.04.77-2.9.88-4,0-1.61-.26-2.98-.6-4-2v-2c.28-.87.62-.86,1,0l1,1c.32-.85.65-.84,1,0l1,1c.33-.67.67-.67,1,0,1.31.42,2.65.75,4,1,.13-.59.33-1,1-1,.23-.66.57-.63,1,0l1-1,1-1c-.86-.26-.84-.59,0-1l1-1c-.89-.4-1.22-1.73-1-4-2.89.31-3.87-1.84-2-4,.33-.59.61-1.05.68-1.02,2.37.99.65,1.72-1.68.02-.28.88-.62.87-1,0-3.7-.69-3.17-3.71,1.58-9.07.63-1.2,1.32-2.79.42-3.93-1.69.14-2.24-.46-2-2-1.53.23-1.86-.11-1-1-1.26-.73-2.87-.88-4,0-.31.84-.65.84-1,0-2.62,1.46-4.95,3.46-7,6,.86.25.83.58,0,1-.28.87-.62.86-1,0-.71-.67-.73-1.38,0-2-.51-.3-.5-.64,0-1l1-1c-.87-.25-.85-.58,0-1,3.11-3.48,8.45-5.82,13-4Z"/><path class="cls-24" d="M10,91.96c2.83-1.21,3.15,1,0,1-.29.65-.63.64-1,0l-1,1-1,1c-.33.87-.66.87-1,0l-2,2c.85.24.83.58,0,1l-1,1c.86.63.63,2.08,0,3l1,2c.53-.73.86-.39,1,1l1,1c.26-.86.6-.84,1,0l2,1c.25-.86.58-.84,1,0,.53-.8,1.25-.58,2,0l1,1c.87.28.86.62,0,1-2.12-.19-4.36.13-6.5,0l-4.5-3c-.9-.18-.87-.52,0-1l-1-1v-2c-.89-.72-.63-2.1,0-3-.89-.2-.86-.53,0-1l1-1c-.85-.25-.83-.58,0-1,1.44-1.88,3.11-3.21,5-4,.22-.92.56-.89,1,0,.62-.75,1.33-.74,2,0Z"/><path class="cls-10" d="M18,108.95c.86.3.85.63,0,1,1.5,1.66,3.17,2.99,5,4,.98-2.27,4.74-3.26,7-3l1-1c-.85-.32-.85-.65,0-1,.28-.87.62-.86,1,0,.28-.87.62-.86,1,0-.08.33.1.73,0,1l-1,2c-.67.95-2.69,3.76-3.5,4-.71.21-2-.24-2.5,0-.9.61-2.24,1.04-3,0-.32,0-.68.05-1,0-2.4-1.12-4.87-3.59-6-6-1.26-.79-1.6-1.46-1-2-.9-.26-.88-.6,0-1-.87-.28-.86-.62,0-1,.2-.9.54-.86,1,0l2,3Z"/><path class="cls-42" d="M59.99,11.99c-.25.88-.58.86-1,0-.18.85-.52.82-1,0-.34.86-.67.86-1,0l-3,3c.9.1.85.45,0,1l-1,2c1.3.84,1.51,1.43,0,2-.13.59-.33,1-1,1,.82.43,1.48.43,2,0-.74-1.03-.07-2.03,2-3,1.23-1.44,2.19-2.32,2,0,.87.33.87.67,0,1l-3,3c1.35,2.51.84,3.27-2,3l-2,1c.04-2.32-.06-4.68,0-7l1-3c-.55-.33-.55-.67,0-1l1-1c-.55-.29-.53-.62,0-1,1.02-2.54,6.76-4.03,7-1Z"/><path class="cls-48" d="M62.98,34.98c.34,1.08.67,1.41,1,1,1.05-2.75,4.32-3.13,5,0,1.31-.8,1.98-.47,2,1,4.14,3.72-6.57,3.68-8,2l-3-1.5,1-3.5c.28-.87.62-.86,1,0l1,1Z"/><path class="cls-16" d="M43.99,14.99h1c-.63-1.06-.09-1.44,1-1,2.07-.6,1.91,1.92,0,3-.36.24-.31.42-1.5,1-.71.35-.86,1.49-2.5,1-.02-.99.03-2.01,0-3,.12-2.9.79-3.9,2-3,1.47.12,1.4,1.56,0,2Z"/><path class="cls-110" d="M44.99,11c1.08,1.19.49,3.97-1,2-.24.11-.83-.18-1,.5l-1,2.5c-.03-.94-.17-2.2,0-3-2.27-1.73-.47-5.56,2-3,1.88-1.35,2.43-.78,1,1Z"/><path class="cls-29" d="M133.97,119.95c-.48-.23-1.75.16-2.5,0-.77-.23-1.38-1.9-1.5-2l4,2Z"/><path class="cls-70" d="M146.96,110.95v3.5l-1,.5c.13-1.52.11-3.46,0-5,1.15-.17.87.82,1,1Z"/><path class="cls-70" d="M137.97,119.95c.66.29.64.63,0,1-1.08,0-2.63.21-3.5,0-.68-.17-.45-.98-.5-1,1.32.05,2.68-.08,4,0Z"/><path class="cls-7" d="M1,101.95h-1v-2.5l1-.5c-.09.97,0,2.02,0,3Z"/><path class="cls-26" d="M50.99,18.99c0-.33-.02-.67,0-1,.03-.66-.12-1.43,0-2,.3-.58.63-.56,1,0-.08.82.05,1.67,0,2.5l-1,.5Z"/><path class="cls-45" d="M25.99,115.95c-.16.08-.76,1.77-3,1v-1h3Z"/><path class="cls-82" d="M15,107.95c.24.78.65,1.22,1,2-1.26-.73-1.58-.87-3-1v-1c.29-.81,1.44-.69,2,0Z"/><path class="cls-45" d="M21.99,115.95c-.5-.07-1.08.17-1.5,0-.3-.12-4.38-4.2-4.5-4.5-.2-.5.15-1.16,0-1.5l6,6Z"/><path class="cls-70" d="M140.97,119.95l-.5,1c-.5.05-1.01-.04-1.5,0-.66-.29-.64-.63,0-1,.66-.01,1.35.08,2,0Z"/><path class="cls-70" d="M143.97,117.95l2-2c.17,1.21-1.72,1.7-2,2Z"/><path class="cls-3" d="M129.97,116.95c.05.32-.04.67,0,1-1.74-1.52-4.01-2.73-5-5,.1-.91.45-.85,1,0,1.8.66,3.32,2.19,4,4Z"/><path class="cls-70" d="M141.97,119.95l1-1c-.06.04.37.69-1,1Z"/><path class="cls-29" d="M138.97,120.95c-.33.03-.67,0-1,0v-1c.33.02.67,0,1,0v1Z"/><path class="cls-8" d="M47.99,13.99v1c.04.28.06.73,0,1-.65.16-1.47.64-2,1,2.07-2.55.2-2.58,0-3-1.36.07-1.36-.93,0-3,.28-.87.62-.86,1,0,1.09.54,1.45,1.99,1,3Z"/><path class="cls-7" d="M2,104.95h-1v-1c.98-.12.84.37,1,1Z"/><path class="cls-35" d="M18,81.96c1.12.85.35,1.87-1,2q-.52-.78,0,0c.74,3.82-.26,6.82-3,9-1.64,1.15-2.97,1.48-4,1-.66-.29-.64-.63,0-1l1-.5-1-.5c-.87-.28-.86-.62,0-1,.45-.11,1.04.18,1.5,0,1.86-.74,1.19-2.65,1.5-3.5.27-.74.61-1.18,1-2.5l1-2c.09-.31-.1-.71,0-1l1-1c-.59-.32-.58-.65,0-1,.03-.33-.04-.67,0-1,.29-.66.63-.64,1,0,.53.83.86,1.83,1,3Z"/><path class="cls-13" d="M28.99,47.98l1,1c1.6.07,1.13,1.06,0,2-.16,1.39-.82,3.05-2,5,.87.28.85.61,0,1-.28.87-.62.86-1,0-1.47.2-1.31.41,0,1,.6.3.59.63,0,1,2.7.31,2.57,1.23,0,2,.66.26.63.6,0,1,.44,1.22.13,1.69-1,1-.23.93-.57.9-1,0-1.19.69-1.89.39-2-1-.85-.3-.7-1.52,0-2,.24-.11.82.18,1-.5.38-4.69,3.62-8.31,4-12.99.24-.68.96-.46,1-.5,1.51.05,1.32,1.37,0,2Z"/><path class="cls-56" d="M20.99,72.97c.72.22.68.56,0,1l-1,2c.87.28.86.62,0,1,1.54,1.24,1.21,1.58-1,1-1.63,1.94-2.03-.44-1-2-.67-.26-.65-.6,0-1l1-2c.03-.33-.02-.67,0-1,.28-.87.62-.86,1,0,.47-.55.8-.22,1,1Z"/><path class="cls-75" d="M24.99,62.97c1.78,1.22-.03,5.46-2,4-.38-.04-.7-.1-.75-.25-.79-2.29,1.35-.71-.06.66-.14.13-.62-.08-1.19-.4.35-1.34.71-2.64,1-4,.07-.3-.04-.66,0-1,.28-.87.62-.86,1,0,1.97-.57,1.83.86,2,1Z"/><path class="cls-44" d="M19,77.96c.64,1.17.16,3.19-1,4l-1-.5c-.04-.83.06-1.68,0-2.5-.69-.21-.65-.55,0-1-.65-.22-.61-.56,0-1,.03-.33-.05-.68,0-1,.28-.87.62-.86,1,0,.06.48-.07,1,0,1.5l1,.5Z"/><path class="cls-83" d="M28.99,45.98c.29-.29.06-1.55,2-1,.15.91-.26,2.37,0,3,.88,1.45.39,1.93-1,1l-1-1c-.13-.56.06-1.35,0-2Z"/><path class="cls-113" d="M31.99,48.98c.87.28.86.62,0,1,.15.89-.12,2.25-1,3-1.35.13-2.15-.82-1-2,.19-.42-.18-1.53,0-2,.03-.07,1.18.16,1-1,.03.07.94.97,1,1Z"/><path class="cls-121" d="M20,70.97c.66.29.64.63,0,1h-1c.03-.66.04-1.34,0-2h1c.86.24.84.58,0,1Z"/><path class="cls-27" d="M33.99,48.98c.84,1.23.38,1.71-1,1-.28.87-.62.86-1,0v-1c.22.11.65-.07,1,0,.3.06.66-.03,1,0Z"/><path class="cls-7" d="M7,91.96c-.1.04-1.31.86-1.5,1-.66.48-3.06,2.51-3.5,3l3.5-4h1.5Z"/><path class="cls-7" d="M10,90.96v1c-.66.03-1.35-.07-2,0l.5-1c.52-.12,1.08.11,1.5,0Z"/><path class="cls-121" d="M18,74.97v-1c.15-.25-.14-1.16,1-1-.05.49.05,1,0,1.5l-1,.5Z"/><path class="cls-7" d="M1,97.96c.3-1.37.96-.94,1-1l-1,1Z"/><path class="cls-73" d="M115.97,13.99c.3.1.69-.09,1,0l1,1c.3.42.72,1.46,1,2l1,2c.04.33-.02.67,0,1,1.65,1.25,3.98,1.91,7,2l1,1c.23.15.76-.15,1,0,1.93,2.08,3.62,5.43,2,8-.37,1.34-1.48,3-3,3h-1c.31-1.08.97-2.08,2-3-.86-.25-.84-.59,0-1,.66-.95.86-2.07,0-3-.9-.26-.88-.59,0-1l-4-3c-4.96,2.4-7.29,1.4-7-3l-1-1c-2.56-.3-2.84-1.21-1-3l-1-1c-.14.7-.49.64-1,0-1.2-.81-2.82-.76-4,0-.23.63-.57.59-1,0-2.67,3.75-4.44,1.29-2.14-1.1,1.6-1.67,7.53-2.38,9.14.1Z"/><path class="cls-19" d="M83.98,58.97l3,1,1-1c.29-.66.63-.64,1,0,1.93-.02,1.72,1.27,0,2-1.92.36-3.92.69-6,1-.2.89-.54.85-1,0l-1,1c-.3.88-.64.87-1,0-.51,1.44-1.17,2.44-2,3-.6.79-.73,1.23,0,2,.88.3.87.63,0,1,1.3.9,1.97,1.9,2,3,.89.27.88.61,0,1-.34-.06-.72.09-1,0-1.84-1.78-4.57-4.55-3-7-.75-.62-.74-1.33,0-2l1-1c1.16-1.34,1.31-1.89,3-3l1-1c.33-.04.68.05,1,0,.58-.67,1.43-.78,2,0Z"/><path class="cls-79" d="M102.98,42.98c.86.33.86.67,0,1l-3,4c.87,1.29-.55,3.06-2,3l-1,1c.67.26.65.6,0,1l-2,2c-.28.83-.62.81-1,0v-1c.08-.32-.11-.73,0-1l2-2c.15-.23-.15-.76,0-1l1-1c.3-.47.7-1.55,1-2l2-2c.16-.23-.16-.78,0-1l2-2c.11-.27-.1-.68,0-1l1-1c.26-.9.6-.88,1,0,1.08.93.03,2.28-1,3Z"/><path class="cls-112" d="M108.97,31.99c2.4.56,1.73,2.56-2,6,1.45,2.42.48,3.26-2,2-.28.87-.62.86-1,0-.32.07-.7-.09-1,0,.08-.33-.1-.73,0-1l1-1c.11-3.06,3.59-5.83,3-9,.28-.87.62-.86,1,0,1.1.26,1.43,1.25,1,3Z"/><path class="cls-12" d="M69.98,31.99c.54,1.16.12,1.63-1,1-1.21.46-2.55.46-4,0-1.48,1.93-2.15,1.93-2,0v-1l3-3c.2-.14.23-1.65,2.5-1,2.06,1.16,1.13,2.59,1.5,4Z"/><path class="cls-33" d="M115.97,13.99c-.95-.3-1.38-.98-1.5-1-2.87-.47-5.09.42-7.5,1v2c.82,0,1.02-.73,2-1-.45,1.91-1.45,3.91-3,6-.24,2.61-.91,2.61-2,0,.05-1.75-.52-3.48,1-4.5.62-3.82,8.45-6.96,11-2.5Z"/><path class="cls-61" d="M40.99,52.98c.46-.56.79-.22,1,1-.12.27.11.7,0,1-.69.52-.84,1.17-1,2-.12.28.12.72,0,1l-1,1c-.12.27.12.71,0,1l-1,1c-.08.29.06.66,0,1-.29.66-.63.64-1,0-1.1.65-1.52.19-1-1-.94-.24-.92-.58,0-1l1-1c-.85-.31-.84-.64,0-1l1-1c-.72-.34-.72-.67,0-1-1.57-2.27-.8-4.22,2-3Z"/><path class="cls-111" d="M105.97,20.99c1,.7,1.08,1.45,0,2l1,1c.87.46,1.54,1.46,2,3,.89.28.88.61,0,1,.54,1.17.14,1.62-1,1h-1c-.12-.65-.62-1.34-1-2l-1-1c-.13-.24.12-.69,0-1-.33-.92-.67-1.92-1-3-.02-.33,0-.67,0-1h2Z"/><path class="cls-47" d="M94.98,54.98c.63.28.61.62,0,1l-2,2c.26,1.63-2.42,4.22-4,3,.09-.63-.16-1.59,0-2-.66-.4-.32-.74,1-1,.05-.05.88-.89,1-1,.92-1.06,1.92-1.73,3-2,.27-.13.73.13,1,0Z"/><path class="cls-57" d="M70.98,36.98h-1.5c-.66-.17-.45-.98-.5-1-2.72-.58-2.48-1.78,0-3,.08-.76.12-1.1,1-1,.26.99.97,1.32,1,1.5.16.85.14,2.62,0,3.5Z"/><path class="cls-94" d="M35.99,51.98l2,1c1.49.5.49,1.49-3,3-2.25,3.63-3.81-1.38-1-4-.77.18-1.13-.21-1-1-.87-.28-.86-.62,0-1l1-1c.34.03.72-.07,1,0,.31.93.64,1.93,1,3Z"/><path class="cls-106" d="M40.99,51.98c.66.29.64.63,0,1h-2c2.07,2.55.18,2.61,0,3l-2-1-1,1c-.19.88-.53.84-1,0v-3l2.5,1c.68-.18.46-.97.5-1,1.04-.77,1.79-.88,3-1Z"/><path class="cls-52" d="M47.99,8c.65.29.63.63,0,1l-1,2h-1c-.29.87-.62.86-1,0-.07-.03.16-1.18-1-1,1.29-1.72,1.19-2.45,4-2Z"/><path class="cls-40" d="M126.97,21.99c-1.23-.5-6.52.47-7,0-.02-.66.04-1.34,0-2,2.02,1.77,4.4.52,6.5,1,.67.15.46.97.5,1Z"/><path class="cls-62" d="M48.99,11.99c.09.31-.06.68,0,1l-1,1c-.05-.17-1.1.02-1-3,.02-.49-.02-1,0-1.5l1-.5,1,3Z"/><path class="cls-102" d="M130.97,30.99c.43-3.18-.4-5.34-2-8,1.85,1.14,1.35,1.03,2,2.5.19.43.92.64,1,1,.17.75.18,3.28,0,4s-.98.45-1,.5Z"/><path class="cls-26" d="M59.99,14.99c-.97-.32-.62-2.13,0-3l-.5-1c-3.06-.44-4.27.21-6.5,2,.08-.32-.09-.7,0-1l1-1c1.83-1.17,3.29-1.15,5.5-1,1.51,1.01,1.93,2.72,1.5,4.5-.17.68-.98.45-1,.5Z"/><path class="cls-27" d="M35.99,51.98l-1-.5v-2.5c.36.09.85-.15,1,.5v2.5Z"/><path class="cls-50" d="M104.97,24.99c-.02-.05-.84.18-1-.5s.06-1.68,0-2.5l1,.5v2.5Z"/><path class="cls-68" d="M41.99,53.98l-1-1v-1c.28-.03.74-.07,1,0,.76.38.74,1.53,0,2Z"/><path class="cls-106" d="M40.99,56.97v-1.5l1-.5c-.49,1.28-.95,1.88-1,2Z"/><path class="cls-66" d="M57.99,17.99l-.5-1c-.37.67-.95.77-1.5,1-1.49-1.27-.92-2.49,1-2,.3-.59.63-.58,1,0,.69-1,1.35-1.34,2-1-.16.39.26,1.11,0,1.5-.61.91-1.93,1.4-2,1.5Z"/><path class="cls-130" d="M126.97,35.98c-.26.09-.65-.04-1,0-1.26-.74-.6-1.41,2-2l3-3c-.16.38.26,1.11,0,1.5-.62.93-2.94,3.15-4,3.5Z"/><path class="cls-106" d="M41.99,53.98v-2c.36.09.84-.15,1,.5v1c-.17.68-.98.45-1,.5Z"/><path class="cls-40" d="M119.97,18.99l-1-.5v-1.5c.06.12.69-.41,1,2Z"/><path class="cls-26" d="M51.99,14.99c.03-.35-.08-.73,0-1h1c-.38,1.33-.74.81-1,1Z"/><path class="cls-33" d="M117.97,14.99l-1-1c1.15-.17.88.84,1,1Z"/><path class="cls-66" d="M54.99,21.99c.81-1.14,1.45-2.63,3-3-.8,1.16-1.45,2.62-3,3Z"/><path class="cls-102" d="M127.97,22.99c-1.16.18-.93-.97-1-1,.85.64.94.96,1,1Z"/><path class="cls-50" d="M105.97,26.99c-.04-.06-.31.23-1-1l1,1Z"/><path class="cls-4" d="M62.98,31.99c.37-1.56,1.86-2.18,3-3l-3,3Z"/><path class="cls-4" d="M64.98,32.99c2.44,1.39,1.65,2.55-1,2-.28.87-.62.86-1,0l-1-1,1-1,.5,1c.22-.72,1.38-.9,1.5-1Z"/><path class="cls-89" d="M102.98,38.98c.18-.5-.06-1.14,1-1l-1,1Z"/><path class="cls-89" d="M101.98,40.98c.27-.88.11-.73,1-1-.15.66-.04,1.12-1,1Z"/><path class="cls-89" d="M99.98,43.98c.46-.65.79-2.05,2-2-.38.91-.91,1.94-2,2Z"/><path class="cls-89" d="M97.98,46.98c.84-1.24,1.92-1.88,2-2l-2,2Z"/><path class="cls-11" d="M95.98,49.98c.7-1.14.96-.94,1-1l-1,1Z"/><path class="cls-11" d="M93.98,52.98c.64-1.65,1.92-1.88,2-2l-2,2Z"/><path class="cls-11" d="M93.98,54.98c-.88.44-2.31,1.39-3,2l3-3v1Z"/><path class="cls-106" d="M39.99,58.97l1-1c-.58,1.35-.97.94-1,1Z"/><path class="cls-106" d="M38.99,60.97l1-1c-.56,1.37-.98.93-1,1Z"/><path class="cls-60" d="M75.98,63.97v-1h1c-.16.18.3.44-1,1Z"/><path class="cls-127" d="M99.98,66.97c.47,1.43.76,3.41,1,4l1,1c.06.31-.04.66,0,1-.48.4-.48.73,0,1,.05.65.04,1.35,0,2l-1,2c.65.33.65.67,0,1l-1,1c.38.92-.08,1.28-1,1-.83,1.15-1.73,1.98-3,1-.82.36-1.82.7-3,1-.34-.03-.69.06-1,0-1.91-.59-2.03-2.74,0-2,1.09-2.13,2.77-2.1,4,0l1-1c-.95-2.42-.4-2.76,2-2l1-2c-1.72.01-2.28-.93-1.69-2.82l-1.31-5.18c-1.66.09-1.2-1.04,0-2,.65-.72,1.31-1.05,2-1,2.08-2.15,2.54-.16,1,2Z"/><path class="cls-16" d="M126.97,33.98h1l-2,2c-.33.04-.67-.02-1,0-2.06.26-4.06.59-6,1-.58,1.34-1.3,2.71-2,4-3.34,4.96-4.67,5.96-4,3-.55-.3-.54-.63,0-1l1-1c-.86-.26-.84-.6,0-1l1-1c-.82-.33-.82-.66,0-1,.11-1.6,1.11-2.93,3-4,1.1-2.81,2.81-2.72,4,0l3-1c.29-.87.62-.86,1,0h1Z"/><path class="cls-43" d="M82.98,98.96c2.99-.02,6.01-.06,9,0,1.79.38,2.69.7,1,2-4.72,1.04-9.05,1.04-13,0-.86-.33-.86-.66,0-1-.87-.28-.86-.62,0-1,1-.75,2.04-.74,3,0Z"/><path class="cls-39" d="M123.97,98.96c-.3.89-.64.89-1,0-2.33.31-4.67.64-7,1-.22.62-.56.58-1,0-.86-.61-1.13-.65-2,0-.18.89-.52.86-1,0l-2-1c-.66.73-1.37.71-2,0-.21.7-.55.66-1,0l.5-1c3.16-.06,6.35.08,9.5,0,2.89.06,5.23-.61,7-2,.26-.9.6-.88,1,0,.76,1.17.05,2.32-1,3Z"/><path class="cls-79" d="M99.98,103.95c-.23,1.33-1.64,1.42-2,0-.09-2.16-1.76-3.16-5-3l-1-2c2.2.05,7.4-.68,8,1.5-.01,1.17.02,2.34,0,3.5Z"/><path class="cls-125" d="M71.98,90.96c.95,1.99-1.95,2.57-3,1q-1.75-1.41,0,0c.87.28.86.62,0,1-2.41,1.92-5.13,1.15-3-2-1.44-.22-1.12-1.05,0-2h1c.06-1.27.96-1.32,2-1,.25.15.81-.16,1,0,.39.33,1.52,2.45,2,3Z"/><path class="cls-15" d="M113.97,45.98l-2,2c-.15.23.15.76,0,1l-2,2c-.15.23.15.75,0,1-.98.69-2.48-.05-3-1-.87-.28-.86-.62,0-1,.32-.45.98-.78,2-1l2-2c-.56-.28-.54-.62,0-1l1-1c-.86-.31-.86-.65,0-1,.3-.53.64-.51,1,0l.5,1c1.7-1.08,1.33-3.48,3.5-4-.98,1.82-1.92,3.25-3,5Z"/><path class="cls-31" d="M106.97,98.96c.33-.02.67,0,1,0,.87.28.86.62,0,1,.17.35-.16.69-1,1l-1,3c3.2,2.24-.96,3.99-2,1-.86-.27-.85-.6,0-1,.11-.41-.13-.98,0-1.5.12-.49,1.74-1.61,1-3.5.66-.02,1.34.04,2,0Z"/><path class="cls-30" d="M102.98,61.97c-.81,1.4-1.7,3.05-2,4.5l-1,.5c-.24-.74.52-2.09-1-2v-1c.03-1.32,1.29-3,3-3,1.09-.6,1.46-.14,1,1Z"/><path class="cls-6" d="M103.97,103.95c-.08.31.09.69,0,1,1.68,2.03,1.61,2.5-1,2-1.87,1.21-6.71,1.75-4-1-.62-.98.04-1.52,1-2,.76.14,1.03.43,1.5,1l2.5-1Z"/><path class="cls-116" d="M65.98,90.96v2c.99.06,2.02-.1,3,0,1.94-1.31,2.52-.73,1,1l-4,1c-1.84,2.79-4.1.69-2-2,.28-1.85.94-2.52,2-2Z"/><path class="cls-65" d="M69.98,93.96c.1-.87-.24-.92-1-1v-1l3-1c.12.14,1.73.72,2,1.5-1.1,1.54-2.14,1.73-4,1.5Z"/><path class="cls-72" d="M79.98,100.95c.87.29.86.62,0,1,.77.85.77,1.52,0,2-.75,3.21-3.73,2.16-3-1-.06-.04-.96-.94-1-1-.16-.2.15-.75,0-1l3-1c.29-.66.63-.64,1,0-.05.32.07.69,0,1Z"/><path class="cls-101" d="M138.97,86.96c-2.1-.21-4.37.15-6.5,0l-6.5,4c.37-.84.93-1.25,1-2,3.84-2.2,6.92-3.66,11.5-3l.5,1Z"/><path class="cls-130" d="M124.97,35.98l-.5,1h-5.5c.11-.24-.18-.84.5-1,1.82-.08,3.69.12,5.5,0Z"/><path class="cls-45" d="M116.97,97.96l.5-1c1.53-.23,3.64.33,5,0,.69-.17.44-.99.5-1,.3-.59.63-.57,1,0-1.37,3.01-3.96,1.92-7,2Z"/><path class="cls-72" d="M82.98,98.96c-.99,0-2.01-.01-3,0-.63.72-1.34.74-2,0v-1c1.4.2,3.03-.13,4.5,0l.5,1Z"/><path class="cls-104" d="M103.97,59.97v1l-1,1c-.96.12-.85-.34-1-1-.79-.44-.75-1.51,0-2,1.84-1.98,2.37-1.6,2,1Z"/><path class="cls-71" d="M95.98,81.96c.87.28.86.62,0,1-.95.08-2.05.07-3,0l.5-1c.81-.1,1.76.15,2.5,0Z"/><path class="cls-108" d="M105.97,58.97c-.49,1.13-.46,1.23-2,1-1.32-1.4-.77-1.92,1-1,.29-.8.62-.79,1,0Z"/><path class="cls-90" d="M106.97,56.97c-.36.61-.71,1.33-1,2h-1c-.87-.28-.86-.62,0-1l1-2,1,1Z"/><path class="cls-122" d="M97.98,82.96c-.53.14-1.35-.05-2,0v-1c1.23-.25,1.71-.19,3-1,.57.41.24,1.07-1,2Z"/><path class="cls-122" d="M101.98,77.96h-1c.09-.44-.1-.99,0-1.5l1-.5c-.04.65.09,1.37,0,2Z"/><path class="cls-99" d="M106.97,50.98l3,1c-.7,1.17-.96.94-1,1-1.38-.79-2.29-1.31-4-1-1.5-1.19.86-2.2,2-1Z"/><path class="cls-114" d="M111.97,47.98l2-2c-.85,1.37-1.92,1.88-2,2Z"/><path class="cls-114" d="M109.97,50.98l2-2c-.84,1.31-1.92,1.88-2,2Z"/><path class="cls-108" d="M102.98,61.97l1-1c.17,1.15-.96.94-1,1Z"/><path class="cls-122" d="M101.98,71.97l-1-1c.03.07.73-.37,1,1Z"/><path class="cls-122" d="M101.98,73.97l-1-.5,1-.5c.03.33-.02.67,0,1Z"/><path class="cls-122" d="M91.98,80.96s-1.04-.13-1,.5l1,1.5c-.32-.06-.67.04-1,0l-2-2c.51-.68,1.09-1.31,2-1,.33-.88.67-.88,1,0,.88.33.88.66,0,1Z"/><path class="cls-105" d="M37.99,61.97c.66.29.65.63,0,1,.65.29.63.63,0,1l-1,1c.86.28.84.61,0,1l-2,4c.76.33.76.66,0,1l-1,1c.87.34.87.67,0,1l-1,2c2.27,1.08,1.87,5.13-1,5-.8,2.62-2.21,4.33-3,6-.01,2.09-1.6,2.06-2,0-.71-.21-.67-.55,0-1-.91-.1-.86-.45,0-1l1-1c-.58-.27-.55-.61,0-1l1-2c-.61-.27-.59-.6,0-1-.88-.18-.84-.52,0-1,.36-1.03.69-2.03,1-3-.55-1.2.71-3.16,2-3l1-2c-.87-.25-.85-.58,0-1l1-1c-.78-.31-.46-1.3,0-2,1-.83,1.79-1.67,2-3-.85-.3-.84-.63,0-1,.13-.59.33-1,1-1,.03.06,1.18-.15,1,1Z"/><path class="cls-128" d="M26.99,95.96c-.18,1.15.89.91,1,1v1c2.05,1.62,4.04,3.53,5,6,.11.26-.08.67,0,1,1,.93.67,2.84,0,4h-1c-.26-1.31-.59-2.64-1-4-.88-.2-.85-.54,0-1l-1-1c-2.05.15-3.72-1.52-5-5-1.07-1.39-.6-4.35,1-2,.3-.5.64-.49,1,0Z"/><path class="cls-22" d="M27.99,88.96c.79.43.75,1.41,0,2,.02.32.03.68,0,1-.36,1.83-1.03,3.17-2,4-.03.05-.83-.16-1,.5v1.5c-.3.51-.64.5-1,0-.9-.25-.88-.59,0-1-.89-.65-.76-2.25,0-3-.87-.28-.85-.61,0-1l1-2c-.86-.29-.85-.62,0-1,.37-2.17,1.03-3.17,2-3,1.2,0,1.45.97,1,2Z"/><path class="cls-23" d="M41.99,85.96c.14-.71.49-.66,1,0,4.86.47,6.2,1.47,4,3-.55.79-1.27.63-2,0l-2,1c-1.78-.16-2.79.37-4-1.5l1-2.5h1c.3-.57.63-.56,1,0Z"/><path class="cls-20" d="M49.99,88.96c.28-.87.62-.86,1,0,.91-.39,1.17.06,1,1-.18,1.41-5.11,1.34-6.5,1-.69-.17-.44-.99-.5-1l2-1c1.13-2.56,1.87-2.56,3,0Z"/><path class="cls-76" d="M28.99,85.96c-.23.48.07,2.08,0,3-.28.87-.62.86-1,0-.03-.13-.61.47-1-2-.89-.24-.87-.58,0-1h2Z"/><path class="cls-123" d="M32.99,108.95v-4c.01.05.83-.19,1,.5.7,2.88-.95,3.3-1,3.5Z"/><path class="cls-88" d="M44.99,88.96c.87.28.86.62,0,1-.63-.09-1.35.06-2,0l.5-1c.5-.04,1.01.03,1.5,0Z"/><path class="cls-123" d="M31.99,111.95v-1.5l1-.5c-.14.36.18.99,0,1.5-.25.69-.97.45-1,.5Z"/><path class="cls-123" d="M32.99,103.95l-1-.5c-.05-2.27-3.22-3.27-4-5.5h1c.68.71,3.89,4.22,4,4.5.2.5-.14,1.14,0,1.5Z"/><path class="cls-97" d="M105.97,111.95c1.13-.79,2.86-.77,4,0,1.21-.78,2.79-.76,4,0,.66.29.64.63,0,1-.98.78-3,.74-4,0l-1,1c-.66,0-1.34,0-2,0-2.38.79-5.58.66-8,0l-1,1c-3.76.14-7.37,1-12,1-.3.58-.63.57-1,0l-1-1c-.87-.28-.86-.62,0-1,.45-2.55,3.62-3.43,5-1,2.09-.9,5.06-.83,7,0,2.54-.63,5.21-.96,8-1,.26-.67.6-.65,1,0,.4.47.73.47,1,0Z"/><path class="cls-89" d="M78.98,113.95c.42.53.42,1.53,0,3-.06.32.08.69,0,1h-4c-.53-1.9,1.18-2.27,2-3.5.36-.54.47-.8,1-1.5,1.4-1.32,1.92-.77,1,1Z"/><path class="cls-63" d="M106.97,113.95v1c-2.63-.02-5.38-.15-8,0-.65-.29-.64-.63,0-1,2.55-.2,5.38.02,8,0Z"/><path class="cls-89" d="M84.98,115.95h1l-.5,1h-5.5c-.87-.28-.86-.62,0-1,.99-.87,3.75-.74,5,0Z"/><path class="cls-77" d="M79.98,114.95c.86.33.86.67,0,1v1h-3l2-3c.28-.87.62-.86,1,0,.9.1.85.45,0,1Z"/><path class="cls-117" d="M98.98,114.95c-.33.02-.67-.01-1,0-.1-.86.23-.94,1-1v1Z"/><path class="cls-86" d="M139.97,104.95v-2h2l1,4-2-1c-.15-.26.14-1.16-1-1Z"/><path class="cls-29" d="M129.97,115.95c.09.27-.05.65,0,1l-4-4c.3-.88.63-.88,1,0,1.21-.18,3.68,1.73,3,3Z"/><path class="cls-70" d="M138.97,117.95v1h-3.5l-.5-1c1.3.06,2.7.08,4,0Z"/><path class="cls-70" d="M142.97,114.95l1-1c-.22,1.36-.97.93-1,1Z"/><path class="cls-3" d="M130.97,114.95c-.05.06-.05.93,0,1h-1c-.41-1.22-1.78-2.59-3-3-.87-.28-.86-.62,0-1,1.77-2.37,5.02.56,4,3Z"/><path class="cls-29" d="M131.97,116.95c-.66-.16-1.12-.03-1-1,.04.06,1.18-.15,1,1Z"/><path class="cls-70" d="M141.97,116.95v-1h1c-.66,1.09-.85.85-1,1Z"/><path class="cls-29" d="M133.97,117.95c-.75-.09-1.1-.12-1-1,.31.03.69.04,1,0v1Z"/><path class="cls-70" d="M140.97,117.95c-.27.08-.65-.03-1,0v-1c.26.07.72.03,1,0,.61.3.6.63,0,1Z"/><path class="cls-29" d="M140.97,117.95v-1h1c-.07.07.35.61-1,1Z"/><path class="cls-29" d="M138.97,118.95v-1c.33-.02.67.03,1,0l-1,1Z"/><path class="cls-17" d="M15,106.95c.07.32-.09.7,0,1-.65-.05-1.4.11-2,0-.71-.13-1.11-.07-1-1h1c.3-.86,1.52-.72,2,0Z"/><path class="cls-7" d="M4,103.95c-.2-.29-.76.33-1-2l1,.5v1.5Z"/><path class="cls-35" d="M9,93.96c-.31.11-.74-.12-1,0,.06-.04-.15-1.17,1-1,.66.29.64.63,0,1Z"/><path class="cls-7" d="M10,93.96c-.32.09-.72-.1-1,0v-1h1v1Z"/><path class="cls-7" d="M7,94.96c.06-.04-.1-.31,1-1-.06.03.15,1.18-1,1Z"/><path class="cls-35" d="M4,96.96c.47-1.42,1.05-1.38,2-2l-2,2Z"/><path class="cls-7" d="M4,98.96h-1c.08-.76.13-1.1,1-1-.04.32-.01.68,0,1Z"/><path class="cls-123" d="M31.99,108.95h-1c.12-1.22.09-2.76,0-4l1,.5v3.5Z"/><path class="cls-45" d="M20,110.95l3,3c-.51-.06-1.09.16-1.5,0-1.06-1.31-2.96-2.38-3.5-4l2,1Z"/><path class="cls-82" d="M15,105.95v1h-2v-1c.65-.03,1.35-.04,2,0Z"/><path class="cls-82" d="M18,107.95c0,.33-.03.68,0,1l-2-1.5v-1.5c1.64.4.46,1.96,2,2Z"/><path class="cls-123" d="M29.99,110.95l1-1c-.3,1.36-.96.94-1,1Z"/><path class="cls-126" d="M59.99,14.99c-.06.12-1.52-.07-1,2l-1-1,1-4c.32.05.67-.04,1,0-.16.89.26,2.45,0,3Z"/><path class="cls-26" d="M57.99,15.99h-1c.61-1.41,1.42-2.15,1-4,.26-.06.73-.04,1,0,.31,1.71-.21,2.62-1,4Z"/><path class="cls-26" d="M53.99,17.99h-1c.04-.49-.05-1,0-1.5l1-.5c-.06.65.03,1.34,0,2Z"/><path class="cls-66" d="M53.99,20.99c-.11.24.18.83-.5,1l-1.5-1h2Z"/><path class="cls-26" d="M53.99,14.99l3-3c-.44.31-1.57,3.04-3,3Z"/><polygon class="cls-26" points="52.99 20.99 51.99 20.99 52.99 19.99 52.99 20.99"/><path class="cls-98" d="M62.98,34.98l-1-1c.95-.12.85.32,1,1Z"/><path class="cls-107" d="M1,1l1-1-1,1Z"/><path class="cls-8" d="M43.99,14.99h1c-.05.05.14,1-.5,1-.61-.18-.43-.56-.5-1Z"/><path class="cls-44" d="M17,83.96l-1-.5c.52-.84,1.07-.54,1,.5Z"/><path class="cls-36" d="M26.99,56.97c.66.29.64.63,0,1l-1,.5v2.5h-1c-.07-2.14-.41-3.73,1.5-5l.5,1Z"/><path class="cls-55" d="M29.99,48.98c-.96.12-.85-.34-1-1l1,1Z"/><path class="cls-81" d="M22.99,66.97c.86.26.84.6,0,1l-1,2c.61.22.57.56,0,1-.26.9-.6.88-1,0-.28.87-.62.86-1,0,.04-.33-.06-.68,0-1l1-2c.09-.31-.08-.69,0-1l1-.5v-1.5h1v2Z"/><path class="cls-40" d="M20,69.97c.42-2.43.96-1.87,1-2v1.5l-1,.5Z"/><path class="cls-92" d="M27.99,62.97c.9.29.68,1.47,0,2-1.24.07-.87-.8-1-1l-1-1c.06-.04-.15-1.17,1-1,1.01-.47,1.42-.05,1,1Z"/><path class="cls-53" d="M20.99,72.97l-1-1v-1h1c.73.66.71,1.37,0,2Z"/><path class="cls-121" d="M20,75.97c.5-2.31.97-1.87,1-2v1.5l-1,.5Z"/><path class="cls-64" d="M32.99,49.98v1c.63.36.3,1.03-1,2h-1c.04-1.34-.5-3,1-3h1Z"/><path class="cls-1" d="M83.98,71.97c2.55-3.27,5.96-.35,4,3,.53,1.1.61,1.83-1,2l-2-2-3-1-2-1c-.13-.28.14-.75,0-1,1.15-.8,2.73-.65,4,0Z"/><path class="cls-58" d="M88.98,74.97c2.78.18,3.18,1.23,1,3,.93.29.92.62,0,1,.35.71.02,1.37-1,2l-2-4v-1.5l1-.5c.28-.87.62-.86,1,0Z"/><path class="cls-60" d="M78.98,72.97c-2.27-.7-2.76-3.06-4-4.5.03-.83-.05-1.68,0-2.5.28-.87.62-.86,1,0,.11.8-.07,1.68,0,2.5l3,4.5Z"/><path class="cls-60" d="M81.98,73.97h-1c-.32-.24-.42.23-1-1,.46.08.99-.09,1.5,0l.5,1Z"/><path class="cls-40" d="M117.97,19.99s.85-.17,1,.5c.23.99-.14,2.39,0,3.5,2.1-.26,3.46-1.45,6-1,.81.29.8.62,0,1-2.78-.59-4.44,1.26-7,1v-5Z"/><path class="cls-33" d="M113.97,14.99c-.46.87-1.24.65-2,0-.33,0-.67-.03-1,0-.28.54-.61.51-1,0l.5-1h3l.5,1Z"/><path class="cls-102" d="M128.97,29.99v-3s.82-.18,1,.5c.65,2.53-.95,2.35-1,2.5Z"/><path class="cls-102" d="M128.97,25.99c-.18-.17-1.67-.76-2-1-.46-.32-1.42-.86-2-1v-1c1.13.2,3.82,1.67,4,3Z"/><path class="cls-33" d="M115.97,15.99h-1v-1c1.15-.17.86.78,1,1Z"/><path class="cls-130" d="M126.97,33.98c-.32.07-.7-.09-1,0l3-3c-.64,1.09-1.55,1.84-2,3Z"/><path class="cls-60" d="M83.98,71.97c-1.32-.03-2.67.02-4,0-.6-1.11-1.36-1.92-2-3,2.01,1.26,2.75,2.6,5.5,2l.5,1Z"/><path class="cls-120" d="M86.98,58.97c.65.29.64.63,0,1-.83.03-1.67-.02-2.5,0l-.5-1c.98-.07,2.01,0,3,0Z"/><path class="cls-60" d="M77.98,67.97c-.02-.05-.83.18-1-.5v-1c.17-.68.97-.45,1-.5v2Z"/><path class="cls-47" d="M86.98,59.97v-1h1c.1.83-.22.98-1,1Z"/><path class="cls-89" d="M101.98,46.98l-2,1c.72-1.53,1.28-3.6,3-4-.34.98-.75,2.4-1,3Z"/><path class="cls-89" d="M102.98,42.98c.22-.62.35-1.09,1-1.5v-1.5h1c-.3.54.14,2.81-2,3Z"/><path class="cls-11" d="M97.98,51.98c-.29.66-.63.64-1,0-.18-1.15.87-.9,1-1v1Z"/><path class="cls-11" d="M96.98,53.98c-.32.85-1.09,1.26-2,1,.31-.94.96-1.92,2-2,.52.33.52.67,0,1Z"/><path class="cls-93" d="M108.97,31.99l-1-.5c.07-.82-.1-1.69,0-2.5.09-.75.11-1.1,1-1,.03.05.83-.18,1,.5.15.6.15,2.4,0,3-.17.68-.98.45-1,.5Z"/><path class="cls-106" d="M37.99,57.97c.03-.28.07-.77,0-1h1c-.18.43.09,1.15-1,1Z"/><path class="cls-106" d="M36.99,59.97c.31-1.38.98-.93,1-1l-1,1Z"/><path class="cls-106" d="M38.99,62.97h-1v-1h1c-.06.32.06.68,0,1Z"/><path class="cls-50" d="M106.97,23.99c-.92.11-.88-.28-1-1,1.14-.16.85.74,1,1Z"/><path class="cls-11" d="M94.98,56.97c-.45.11-1.87.87-2,1-.02-1.2,1.29-1.53,2-2,.86.26.84.6,0,1Z"/><path class="cls-27" d="M33.99,51.98c-.58.13-1.56.68-2,1l1-2c.88-.1.91.25,1,1Z"/><path class="cls-94" d="M36.99,55.97h-1c-.1-.9.26-.9,1-1v1Z"/><path class="cls-74" d="M83.98,108.95c1.25-.71,1.69-.22,1,1,2.77,2.78-1.52,3.65-4,3-.82-.25-.82-.92,0-2,.9-.65.06-1.54,3-2Z"/><path class="cls-100" d="M85.98,105.95c.86.29.85.63,0,1,.71,1.3-.59,2.67-2,2-.33-1.24-.63-1.88-1-3-1.09-.5-2.24-2.12-1-3,2.04-2.05,3.73.92,4,3Z"/><path class="cls-67" d="M81.98,102.95c.93,1.17.72,2.14,1,3h-1l-1-1c-.11-.11-.36.24-1-1-1.38-2.68-.14-1.63,0-2,1.08-.77,2.23-.46,2,1Z"/><path class="cls-46" d="M80.98,112.95c.71,1.15.24,1.46-1,1h-1l-1-1c.38-.5.22-.48,1-1l1-1c.22-.16.78.16,1,0l1,.5-1,1.5Z"/><path class="cls-103" d="M65.98,88.96c-.06.65.03,1.34,0,2l-2,2c-.12-.45-.11-1.54,0-2,.31-1.27,1.29-2.28,2-3v1Z"/><path class="cls-100" d="M81.98,105.95c-1.13.18-.94-.94-1-1l1,1Z"/><path class="cls-74" d="M78.98,111.95l1-1c-.06.04.02.32-1,1Z"/><path class="cls-28" d="M50.99,82.96l1,1c.13.57-.1,1.38,0,2-.16,1.28-.49,2.28-1,3h-1c-2.71-.2-2.87-3.36,0-4-1.02-.72-2.03-.73-3,0-.62,1.87-1.52,1.88-2,0-.78.56-1.06-.01-1-1,.28-.12.7.11,1,0l1-1c1.13-.33,2.6.62,3.5-1h1c.68.16.46.97.5,1Z"/><path class="cls-25" d="M52.99,89.96h-1c-.89.1-.91-.25-1-1-.1-.81.07-1.67,0-2.5l1-.5c.22,1.36,1,3.77,1,4Z"/><path class="cls-87" d="M68.98,87.96l-.5,1h-1.5c-.59-.13-1-.33-1-1,.04-.04-.17-.83.5-1,2.41-.61,2.37.92,2.5,1Z"/><path class="cls-5" d="M43.99,85.96c-.24.9-.58.87-1,0-.32.04-.67,0-1,0-.64-.3-.63-.63,0-1,.24-.06.76-.06,1,0,1.17-.65,1.65-.2,1,1Z"/><path class="cls-85" d="M44.99,83.96c.07-.03-.39-.59,1-1l-1,1Z"/><path class="cls-85" d="M44.99,84.96c1.45,1.74.86,2.3-1,1,.12-.96-.34-.85-1-1-.15-1.09.57-.82,1-1l1,1Z"/><path class="cls-37" d="M41.99,85.96h-1c-.12-.96.34-.85,1-1v1Z"/><path class="cls-101" d="M137.97,88.96c-1.1-.18-2.81-.08-4,0l.5-1h3l.5,1Z"/><path class="cls-101" d="M132.97,88.96c-.05.02.23.55-.5,1-.27.16-.81-.14-1,0-.65.47-5.3,4.69-5.5,5l5.5-6h1.5Z"/><path class="cls-45" d="M123.97,98.96c.77-1.23.82-1.67,1-3h1c-.42,1.16.29,2.3-2,3Z"/><path class="cls-101" d="M124.97,95.96c-.32.07-.7-.09-1,0-.79-.65-.19-2.14,1-2,0,.65.09,1.36,0,2Z"/><path class="cls-101" d="M124.97,92.96v-1h1c-.15.67-.04,1.12-1,1Z"/><path class="cls-122" d="M98.98,77.96v-1.5l1-.5c-.03.49.03,1,0,1.5-.25.69-.97.45-1,.5Z"/><path class="cls-122" d="M99.98,79.96c.14-.22-.15-1.17,1-1-.14.68-.05,1.11-1,1Z"/><path class="cls-122" d="M95.98,80.96c-.16-1.14.74-.85,1-1,.1.88-.25.91-1,1Z"/><path class="cls-130" d="M124.97,33.98c-.18.03-.2.82-3,1l.5-1h2.5Z"/><path class="cls-15" d="M113.97,40.98c.15-.66.04-1.12,1-1-.14.68-.05,1.11-1,1Z"/><path class="cls-15" d="M112.97,42.98l1-1c-.39,1.33-.73.81-1,1Z"/><path class="cls-114" d="M112.97,43.98h-1c.39-1.33.73-.81,1-1v1Z"/><path class="cls-9" d="M77.98,98.96c.66-.02,1.34,0,2,0v1h-1c-.89.72-1.82,1.23-3,1-.07-.11-1.54.04-1-2,.99-.02,2.01.03,3,0Z"/><path class="cls-45" d="M122.97,98.96l-.5,1c-2.17.02-4.34-.04-6.5,0l.5-1c2.15-.12,4.37.17,6.5,0Z"/><path class="cls-78" d="M114.97,99.95c-.66,0-1.34-.02-2,0l.5-1h1l.5,1Z"/><path class="cls-14" d="M111.97,99.95c-.5.89-1.3.61-2,0-.87-.28-.86-.62,0-1,.5.06,1.08-.16,1.5,0,.54.2.5.53.5,1Z"/><path class="cls-34" d="M109.97,98.96v1c-.44.89-1.23.67-2,0v-1c.65,0,1.36-.08,2,0Z"/><path class="cls-80" d="M99.98,103.95c0,.49,0,.99,0,1.5l-1,.5c-.29.87-.62.86-1,0-.83-.25-.71-1.46,0-2,.65.05,1.41-.11,2,0Z"/><path class="cls-2" d="M66.98,88.96h-1c.03-.33-.02-.67,0-1l1,1Z"/><path class="cls-84" d="M106.97,49.98v1h-1.5c-.62.18-.43.57-.5,1-.09.53-.13,1.58,0,2-2.12.52-1.75-2.6-1-4,.62-.91,2.07-.64,3,0Z"/><path class="cls-114" d="M110.97,45.98c.05-.05-.13-1.18,1-1-.56,1.36-.97.94-1,1Z"/><path class="cls-114" d="M108.97,48.98c.16-.13-.14-.71,0-1l2-1c-.8,1.27-.84,1.2-2,2Z"/><path class="cls-99" d="M104.97,53.98c.04.13,1-.51,1,2-.28.87-.62.86-1,0-.41.41-.74.07-1-1l-1-1c.01-.33-.01-.67,0-1-.87-.81-.74-2.13,0-3h1c-.09,1.15.06,2.34,0,3.5l1,.5Z"/><path class="cls-49" d="M109.97,99.95c.66-.05,1.34.03,2,0,0,.44.04.87-.5,1h-4.5c.11-.15-.15-1.17,1-1,.66-.02,1.34.05,2,0Z"/><polygon class="cls-51" points="78.98 99.95 77.48 101.95 75.98 100.95 76.48 99.95 78.98 99.95"/><path class="cls-38" d="M104.97,55.97c.78.43.73,1.4,0,2v1l-1,1c-.84.02-1-.77-2-1-.29-.07-.66.02-1,0-.86-.33-.86-.67,0-1l2-1,1-1c.07-.32-.05-.68,0-1,.07.07.69-.34,1,1Z"/><path class="cls-118" d="M104.97,57.97c-.06-.65.13-1.44,0-2h1v1.5l-1,.5Z"/><path class="cls-61" d="M31.99,71.97c.13-.37-.14-.97,0-1.5l1-.5c-.06.49.06,1,0,1.5l-1,.5Z"/><path class="cls-61" d="M34.99,69.97c.63-1.51,1.47-2.85,2-4v1.5c-.68.61-1.32,1.04-1,2l-1,.5Z"/><path class="cls-61" d="M33.99,65.97c.61-1.14,1.81-2.63,2-3v1.5c-.3.84-1.94,1.39-2,1.5Z"/><path class="cls-61" d="M32.99,74.97c.37-2.44.95-1.88,1-2v1.5l-1,.5Z"/><path class="cls-106" d="M35.99,61.97v-1c.33,0,.67,0,1,0l-1,1Z"/><path class="cls-61" d="M36.99,64.97c.64-1.31.97-.93,1-1l-1,1Z"/><path class="cls-61" d="M32.99,68.97c.04-.33-.05-.67,0-1h1c-.16.7,0,1.06-1,1Z"/><path class="cls-61" d="M33.99,71.97c.51-1.38.98-.93,1-1l-1,1Z"/><path class="cls-123" d="M30.99,103.95h-1v-1c.61.26.7-.14,1,1Z"/><path class="cls-41" d="M46.99,88.96c0,1.24-.87,1.1-2,1v-1c.66-.04,1.34.01,2,0Z"/><path class="cls-63" d="M113.97,112.95c.21-.68.55-.64,1,0,.96-.73,2-.74,3,0,.59-1.45,1.39-1.44,2,0l-.5,1c-3.17.02-6.34-.02-9.5,0-.65-.29-.64-.63,0-1,1.31-.11,2.68.02,4,0Z"/><path class="cls-117" d="M103.97,111.95c-2.21.31-4.75.93-8,1l.5-1h7.5Z"/><path class="cls-63" d="M111.97,110.95c1.86-1.39,3.96-.71,6,0,.87.28.86.62,0,1-.29.86-2.3.72-3,0-.29.66-.63.64-1,0-1.32,0-2.68-.03-4,0v-1c.66,0,1.34,0,2,0Z"/><path class="cls-59" d="M83.98,113.95v1c-1,.75-3.04.81-4,0,.03-.33-.02-.67,0-1-.17-1.15.78-.86,1-1l.5,1c.83.02,1.67-.02,2.5,0Z"/><path class="cls-46" d="M83.98,114.95c.77.06,1.1.14,1,1h-5c.02-.33-.03-.67,0-1,1.32.07,2.69-.11,4,0Z"/><path class="cls-117" d="M109.97,113.95c-.33,0-.67,0-1,0-.1-.86.23-.94,1-1v1Z"/><path class="cls-117" d="M104.97,111.95c.32-.04.67.01,1,0l-.5,1-.5-1Z"/><path class="cls-21" d="M114.97,112.95c-.33,0-.67,0-1,0v-1h1c.87.28.86.62,0,1Z"/><path class="cls-18" d="M126.97,110.95c.88.33.87.66,0,1v1c-.26-.09-.65.04-1,0-.33-.04-.67.02-1,0-1.65-.09-3.35.03-5,0-.66-.01-1.34,0-2,0-.87-.28-.86-.62,0-1v-1c1.97-.18,3.97-.51,6-1,.31-.67.65-.66,1,0l2,1Z"/><path class="cls-75" d="M22.99,68.97c.74.29.73.63,0,1-.3.5-.64.49-1,0,.04-.49-.05-1,0-1.5l1-.5c-.08.3.06.67,0,1Z"/><path class="cls-40" d="M21.99,72.97h-1c.07-.65-.03-1.34,0-2,.32-.07.7.09,1,0,2.68.56,2.4.97,0,2Z"/><path class="cls-75" d="M26.99,63.97l-1-1c1.15-.17.87.81,1,1Z"/><path class="cls-32" d="M27.99,64.97v-2c.2.16.86-.17,1,0,.1,1.17.26,1.93-1,2Z"/><path class="cls-91" d="M29.99,70.97c-.15.32.2.98,0,1.5-.2.65-.63.41-1,.5-.4-.48-.73-.48-1,0-2.02.43-1.26.48-2,1l-2,3c.05,2.03-1.26,1.78-2,0,.95-1.07.75-2.48,1-3-.28-2.78.16-4.68,3-2l1-1c.33-.84.66-.84,1,0h2Z"/><path class="cls-95" d="M23.99,76.97l1,2c-.02.33.02.67,0,1h-1.5c-.77-.25-1.4-1.91-1.5-2v-1h2Z"/><path class="cls-119" d="M90.98,79.96c-.1.08-.77,2.23-2,1s.94-1.88,1-2l1,1Z"/><path class="cls-124" d="M100.98,55.97h2c.57.3.55.63,0,1-.69.45-1.47.71-2,0-.48.4-1.14.73-2,1-.22.75-.56.72-1,0-.74-.68-.78-1.4,0-2,.93-1.05,2.57-1.67,3,0Z"/><path class="cls-96" d="M86.98,107.95v1c-.11-.11-1.84.84-2,1-.99.12-.83-.38-1-1,1.62-.26.45-1.99,2-2,1.4-1.32,1.92-.77,1,1Z"/><path class="cls-85" d="M49.99,84.96c-.99.02-2.01-.04-3,0l.5-1h2l.5,1Z"/><path class="cls-99" d="M106.97,48.98c-.09.3.07.68,0,1-.98.1-2.02-.08-3,0,.03-.33-.02-.67,0-1,.99-.02,2.01.04,3,0Z"/><path class="cls-108" d="M100.98,57.97c-.02.33.02.67,0,1-.63-.04-1.45-.11-2,0-.81-.29-.8-.62,0-1,.63-.7,1.35-.73,2,0Z"/><path class="cls-54" d="M102.98,56.97c-.7.55.12.69-2,1-.87-.28-.86-.62,0-1,.6-.11,1.35.05,2,0Z"/><path class="cls-69" d="M28.99,72.97c-.31.08-.68-.07-1,0l.5-1,.5,1Z"/><path class="cls-115" d="M117.97,111.95v1c-.99,0-2.01-.01-3,0v-1h3Z"/><path class="cls-129" d="M100.98,56.97v1c-.61.09-1.36.04-2,0l.5-1c.45-.17,1.03.09,1.5,0Z"/></g></svg>