<svg width="34" height="34" viewBox="0 0 34 34" fill="none" xmlns="http://www.w3.org/2000/svg">
<path fill-rule="evenodd" clip-rule="evenodd" d="M17 3.03257C21.5458 3.03257 22.0689 3.03257 23.8498 3.12065C25.5436 3.20873 26.4278 3.47298 26.9634 3.74981C27.7604 4.01406 28.296 4.46706 28.9187 4.99556C29.5414 5.62472 29.9026 6.15322 30.1641 6.95855C30.4256 7.58771 30.6996 8.46854 30.7868 10.0792C30.874 11.8534 30.874 12.3945 30.874 16.9371C30.874 21.4796 30.874 22.0081 30.7868 23.795C30.6996 25.4811 30.4256 26.3745 30.1641 26.9156C29.9026 27.7209 29.4542 28.2494 28.9187 28.8786C28.296 29.5078 27.7604 29.8601 26.9634 30.1243C26.3407 30.3886 25.444 30.6528 23.8498 30.7535C22.0689 30.8416 21.5333 30.8416 17 30.8416C12.4667 30.8416 11.9311 30.8416 10.1502 30.7535C8.45641 30.6654 7.57216 30.4012 7.03663 30.1243C6.23956 29.8601 5.70403 29.4071 5.08132 28.8786C4.45861 28.2494 4.09744 27.7209 3.8359 26.9156C3.57436 26.2865 3.30037 25.4056 3.21319 23.795C3.12601 22.0207 3.12601 21.4796 3.12601 16.9371C3.12601 12.3945 3.12601 11.866 3.21319 10.0792C3.30037 8.39304 3.57436 7.49963 3.8359 6.95855C4.09744 6.15322 4.54579 5.62472 5.08132 4.99556C5.70403 4.3664 6.23956 4.01406 7.03663 3.74981C7.65934 3.48557 8.55604 3.22132 10.1502 3.12065C11.9311 3.03257 12.4667 3.03257 17 3.03257ZM17 0C12.367 0 11.8315 -3.82511e-07 9.96337 0.0880825C8.18242 0.176165 6.937 0.440414 5.86593 0.893412C4.72015 1.30866 3.68645 1.97557 2.83956 2.8564C1.96777 3.69948 1.29524 4.73131 0.884249 5.87639C0.435897 6.94597 0.174359 8.19171 0.0871791 9.96595C-3.78588e-07 11.7402 0 12.3694 0 17C0 21.6306 -3.78588e-07 22.1591 0.0871791 24.034C0.174359 25.8083 0.448352 27.054 0.884249 28.1236C1.29524 29.2687 1.96777 30.3005 2.83956 31.1436C3.68645 32.0244 4.72015 32.6913 5.86593 33.1066C6.937 33.547 8.18242 33.8238 9.96337 33.9119C11.7443 34 12.367 34 17 34C21.633 34 22.1685 34 24.0366 33.9119C25.8176 33.8238 27.063 33.5596 28.1341 33.1066C29.2799 32.6913 30.3136 32.0244 31.1604 31.1436C32.0322 30.3005 32.7048 29.2687 33.1158 28.1236C33.5641 27.054 33.8256 25.8083 33.9128 24.034C34 22.2598 34 21.6306 34 17C34 12.3694 34 11.8409 33.9128 9.96595C33.8256 8.19171 33.5517 6.94597 33.1158 5.87639C32.7048 4.73131 32.0322 3.69948 31.1604 2.8564C30.3136 1.97557 29.2799 1.30866 28.1341 0.893412C27.063 0.452998 25.8176 0.176165 24.0366 0.0880825C22.1685 -3.82511e-07 21.633 0 17 0Z" fill="white"/>
<path fill-rule="evenodd" clip-rule="evenodd" d="M16.9995 8.05469C12.0676 8.05469 8.04492 12.0687 8.04492 17.0014C8.04492 21.934 12.0676 25.9481 16.9995 25.9481C21.9314 25.9481 25.9541 21.934 25.9541 17.0014C25.9541 11.9807 21.9314 8.05469 16.9995 8.05469ZM16.9995 22.7519C13.7988 22.7519 11.1585 20.1975 11.1585 16.9133C11.1585 13.6291 13.7116 11.0747 16.9995 11.0747C20.2002 11.0747 22.8405 13.6291 22.8405 16.9133C22.853 20.1975 20.2002 22.7519 16.9995 22.7519Z" fill="white"/>
<path fill-rule="evenodd" clip-rule="evenodd" d="M27.7478 8.05548C27.7603 9.04956 26.9632 9.86747 25.9793 9.88005C24.9955 9.89263 24.1859 9.08731 24.1735 8.09323C24.161 7.09915 24.9581 6.28124 25.942 6.26866C25.9544 6.26866 25.9544 6.26866 25.9669 6.26866C26.9383 6.24349 27.7354 7.02365 27.7603 8.00515C27.7478 8.01773 27.7478 8.03031 27.7478 8.05548Z" fill="white"/>
</svg>
